<?xml version="1.0" encoding="utf-8" standalone="no"?>
<!DOCTYPE svg PUBLIC "-//W3C//DTD SVG 1.1//EN"
  "http://www.w3.org/Graphics/SVG/1.1/DTD/svg11.dtd">
<svg xmlns:xlink="http://www.w3.org/1999/xlink" width="648pt" height="360pt" viewBox="0 0 648 360" xmlns="http://www.w3.org/2000/svg" version="1.1">
 <metadata>
  <rdf:RDF xmlns:dc="http://purl.org/dc/elements/1.1/" xmlns:cc="http://creativecommons.org/ns#" xmlns:rdf="http://www.w3.org/1999/02/22-rdf-syntax-ns#">
   <cc:Work>
    <dc:type rdf:resource="http://purl.org/dc/dcmitype/StillImage"/>
    <dc:date>2026-07-06T01:59:35.583121</dc:date>
    <dc:format>image/svg+xml</dc:format>
    <dc:creator>
     <cc:Agent>
      <dc:title>Matplotlib v3.11.0, https://matplotlib.org/</dc:title>
     </cc:Agent>
    </dc:creator>
   </cc:Work>
  </rdf:RDF>
 </metadata>
 <defs>
  <style type="text/css">*{stroke-linejoin: round; stroke-linecap: butt}</style>
 </defs>
 <g id="figure_1">
  <g id="patch_1">
   <path d="M 0 360 
L 648 360 
L 648 0 
L 0 0 
z
" style="fill: #ffffff"/>
  </g>
  <g id="axes_1">
   <g id="patch_2">
    <path d="M 51.562344 317.877656 
L 637.2 317.877656 
L 637.2 43.446328 
L 51.562344 43.446328 
z
" style="fill: #ffffff"/>
   </g>
   <g id="matplotlib.axis_1">
    <g id="xtick_1">
     <g id="line2d_1">
      <path d="M 122.548726 317.877656 
L 122.548726 43.446328 
" clip-path="url(#p2b7ea150e2)" style="fill: none; stroke: #b0b0b0; stroke-opacity: 0.3; stroke-width: 0.8; stroke-linecap: square"/>
     </g>
     <g id="line2d_2">
      <defs>
       <path id="m5db6a4ccfc" d="M 0 0 
L 0 3.5 
" style="stroke: #000000; stroke-width: 0.8"/>
      </defs>
      <g>
       <use xlink:href="#m5db6a4ccfc" x="122.548726" y="317.877656" style="stroke: #000000; stroke-width: 0.8"/>
      </g>
     </g>
     <g id="text_1">
      <!-- −100 -->
      <g transform="translate(108.815133 332.475312) scale(0.1 -0.1)">
       <defs>
        <path id="DejaVuSans-c9c" d="M 678 2272 
L 4684 2272 
L 4684 1741 
L 678 1741 
L 678 2272 
z
" transform="scale(0.015625)"/>
        <path id="DejaVuSans-14" d="M 794 531 
L 1825 531 
L 1825 4091 
L 703 3866 
L 703 4441 
L 1819 4666 
L 2450 4666 
L 2450 531 
L 3481 531 
L 3481 0 
L 794 0 
L 794 531 
z
" transform="scale(0.015625)"/>
        <path id="DejaVuSans-13" d="M 2034 4250 
Q 1547 4250 1301 3770 
Q 1056 3291 1056 2328 
Q 1056 1369 1301 889 
Q 1547 409 2034 409 
Q 2525 409 2770 889 
Q 3016 1369 3016 2328 
Q 3016 3291 2770 3770 
Q 2525 4250 2034 4250 
z
M 2034 4750 
Q 2819 4750 3233 4129 
Q 3647 3509 3647 2328 
Q 3647 1150 3233 529 
Q 2819 -91 2034 -91 
Q 1250 -91 836 529 
Q 422 1150 422 2328 
Q 422 3509 836 4129 
Q 1250 4750 2034 4750 
z
" transform="scale(0.015625)"/>
       </defs>
       <use xlink:href="#DejaVuSans-c9c"/>
       <use xlink:href="#DejaVuSans-14" transform="translate(83.796875 0)"/>
       <use xlink:href="#DejaVuSans-13" transform="translate(147.421875 0)"/>
       <use xlink:href="#DejaVuSans-13" transform="translate(211.046875 0)"/>
      </g>
     </g>
    </g>
    <g id="xtick_2">
     <g id="line2d_3">
      <path d="M 233.464949 317.877656 
L 233.464949 43.446328 
" clip-path="url(#p2b7ea150e2)" style="fill: none; stroke: #b0b0b0; stroke-opacity: 0.3; stroke-width: 0.8; stroke-linecap: square"/>
     </g>
     <g id="line2d_4">
      <g>
       <use xlink:href="#m5db6a4ccfc" x="233.464949" y="317.877656" style="stroke: #000000; stroke-width: 0.8"/>
      </g>
     </g>
     <g id="text_2">
      <!-- −50 -->
      <g transform="translate(222.912605 332.475312) scale(0.1 -0.1)">
       <defs>
        <path id="DejaVuSans-18" d="M 691 4666 
L 3169 4666 
L 3169 4134 
L 1269 4134 
L 1269 2991 
Q 1406 3038 1543 3061 
Q 1681 3084 1819 3084 
Q 2600 3084 3056 2656 
Q 3513 2228 3513 1497 
Q 3513 744 3044 326 
Q 2575 -91 1722 -91 
Q 1428 -91 1123 -41 
Q 819 9 494 109 
L 494 744 
Q 775 591 1075 516 
Q 1375 441 1709 441 
Q 2250 441 2565 725 
Q 2881 1009 2881 1497 
Q 2881 1984 2565 2268 
Q 2250 2553 1709 2553 
Q 1456 2553 1204 2497 
Q 953 2441 691 2322 
L 691 4666 
z
" transform="scale(0.015625)"/>
       </defs>
       <use xlink:href="#DejaVuSans-c9c"/>
       <use xlink:href="#DejaVuSans-18" transform="translate(83.796875 0)"/>
       <use xlink:href="#DejaVuSans-13" transform="translate(147.421875 0)"/>
      </g>
     </g>
    </g>
    <g id="xtick_3">
     <g id="line2d_5">
      <path d="M 344.381172 317.877656 
L 344.381172 43.446328 
" clip-path="url(#p2b7ea150e2)" style="fill: none; stroke: #b0b0b0; stroke-opacity: 0.3; stroke-width: 0.8; stroke-linecap: square"/>
     </g>
     <g id="line2d_6">
      <g>
       <use xlink:href="#m5db6a4ccfc" x="344.381172" y="317.877656" style="stroke: #000000; stroke-width: 0.8"/>
      </g>
     </g>
     <g id="text_3">
      <!-- 0 -->
      <g transform="translate(341.199922 332.475312) scale(0.1 -0.1)">
       <use xlink:href="#DejaVuSans-13"/>
      </g>
     </g>
    </g>
    <g id="xtick_4">
     <g id="line2d_7">
      <path d="M 455.297395 317.877656 
L 455.297395 43.446328 
" clip-path="url(#p2b7ea150e2)" style="fill: none; stroke: #b0b0b0; stroke-opacity: 0.3; stroke-width: 0.8; stroke-linecap: square"/>
     </g>
     <g id="line2d_8">
      <g>
       <use xlink:href="#m5db6a4ccfc" x="455.297395" y="317.877656" style="stroke: #000000; stroke-width: 0.8"/>
      </g>
     </g>
     <g id="text_4">
      <!-- 50 -->
      <g transform="translate(448.934895 332.475312) scale(0.1 -0.1)">
       <use xlink:href="#DejaVuSans-18"/>
       <use xlink:href="#DejaVuSans-13" transform="translate(63.625 0)"/>
      </g>
     </g>
    </g>
    <g id="xtick_5">
     <g id="line2d_9">
      <path d="M 566.213617 317.877656 
L 566.213617 43.446328 
" clip-path="url(#p2b7ea150e2)" style="fill: none; stroke: #b0b0b0; stroke-opacity: 0.3; stroke-width: 0.8; stroke-linecap: square"/>
     </g>
     <g id="line2d_10">
      <g>
       <use xlink:href="#m5db6a4ccfc" x="566.213617" y="317.877656" style="stroke: #000000; stroke-width: 0.8"/>
      </g>
     </g>
     <g id="text_5">
      <!-- 100 -->
      <g transform="translate(556.669867 332.475312) scale(0.1 -0.1)">
       <use xlink:href="#DejaVuSans-14"/>
       <use xlink:href="#DejaVuSans-13" transform="translate(63.625 0)"/>
       <use xlink:href="#DejaVuSans-13" transform="translate(127.25 0)"/>
      </g>
     </g>
    </g>
    <g id="text_6">
     <!-- tiempo desde Toe (minutos) -->
     <g transform="translate(274.514766 346.476094) scale(0.1 -0.1)">
      <defs>
       <path id="DejaVuSans-57" d="M 1172 4494 
L 1172 3500 
L 2356 3500 
L 2356 3053 
L 1172 3053 
L 1172 1153 
Q 1172 725 1289 603 
Q 1406 481 1766 481 
L 2356 481 
L 2356 0 
L 1766 0 
Q 1100 0 847 248 
Q 594 497 594 1153 
L 594 3053 
L 172 3053 
L 172 3500 
L 594 3500 
L 594 4494 
L 1172 4494 
z
" transform="scale(0.015625)"/>
       <path id="DejaVuSans-4c" d="M 603 3500 
L 1178 3500 
L 1178 0 
L 603 0 
L 603 3500 
z
M 603 4863 
L 1178 4863 
L 1178 4134 
L 603 4134 
L 603 4863 
z
" transform="scale(0.015625)"/>
       <path id="DejaVuSans-48" d="M 3597 1894 
L 3597 1613 
L 953 1613 
Q 991 1019 1311 708 
Q 1631 397 2203 397 
Q 2534 397 2845 478 
Q 3156 559 3463 722 
L 3463 178 
Q 3153 47 2828 -22 
Q 2503 -91 2169 -91 
Q 1331 -91 842 396 
Q 353 884 353 1716 
Q 353 2575 817 3079 
Q 1281 3584 2069 3584 
Q 2775 3584 3186 3129 
Q 3597 2675 3597 1894 
z
M 3022 2063 
Q 3016 2534 2758 2815 
Q 2500 3097 2075 3097 
Q 1594 3097 1305 2825 
Q 1016 2553 972 2059 
L 3022 2063 
z
" transform="scale(0.015625)"/>
       <path id="DejaVuSans-50" d="M 3328 2828 
Q 3544 3216 3844 3400 
Q 4144 3584 4550 3584 
Q 5097 3584 5394 3201 
Q 5691 2819 5691 2113 
L 5691 0 
L 5113 0 
L 5113 2094 
Q 5113 2597 4934 2840 
Q 4756 3084 4391 3084 
Q 3944 3084 3684 2787 
Q 3425 2491 3425 1978 
L 3425 0 
L 2847 0 
L 2847 2094 
Q 2847 2600 2669 2842 
Q 2491 3084 2119 3084 
Q 1678 3084 1418 2786 
Q 1159 2488 1159 1978 
L 1159 0 
L 581 0 
L 581 3500 
L 1159 3500 
L 1159 2956 
Q 1356 3278 1631 3431 
Q 1906 3584 2284 3584 
Q 2666 3584 2933 3390 
Q 3200 3197 3328 2828 
z
" transform="scale(0.015625)"/>
       <path id="DejaVuSans-53" d="M 1159 525 
L 1159 -1331 
L 581 -1331 
L 581 3500 
L 1159 3500 
L 1159 2969 
Q 1341 3281 1617 3432 
Q 1894 3584 2278 3584 
Q 2916 3584 3314 3078 
Q 3713 2572 3713 1747 
Q 3713 922 3314 415 
Q 2916 -91 2278 -91 
Q 1894 -91 1617 61 
Q 1341 213 1159 525 
z
M 3116 1747 
Q 3116 2381 2855 2742 
Q 2594 3103 2138 3103 
Q 1681 3103 1420 2742 
Q 1159 2381 1159 1747 
Q 1159 1113 1420 752 
Q 1681 391 2138 391 
Q 2594 391 2855 752 
Q 3116 1113 3116 1747 
z
" transform="scale(0.015625)"/>
       <path id="DejaVuSans-52" d="M 1959 3097 
Q 1497 3097 1228 2736 
Q 959 2375 959 1747 
Q 959 1119 1226 758 
Q 1494 397 1959 397 
Q 2419 397 2687 759 
Q 2956 1122 2956 1747 
Q 2956 2369 2687 2733 
Q 2419 3097 1959 3097 
z
M 1959 3584 
Q 2709 3584 3137 3096 
Q 3566 2609 3566 1747 
Q 3566 888 3137 398 
Q 2709 -91 1959 -91 
Q 1206 -91 779 398 
Q 353 888 353 1747 
Q 353 2609 779 3096 
Q 1206 3584 1959 3584 
z
" transform="scale(0.015625)"/>
       <path id="DejaVuSans-3" transform="scale(0.015625)"/>
       <path id="DejaVuSans-47" d="M 2906 2969 
L 2906 4863 
L 3481 4863 
L 3481 0 
L 2906 0 
L 2906 525 
Q 2725 213 2448 61 
Q 2172 -91 1784 -91 
Q 1150 -91 751 415 
Q 353 922 353 1747 
Q 353 2572 751 3078 
Q 1150 3584 1784 3584 
Q 2172 3584 2448 3432 
Q 2725 3281 2906 2969 
z
M 947 1747 
Q 947 1113 1208 752 
Q 1469 391 1925 391 
Q 2381 391 2643 752 
Q 2906 1113 2906 1747 
Q 2906 2381 2643 2742 
Q 2381 3103 1925 3103 
Q 1469 3103 1208 2742 
Q 947 2381 947 1747 
z
" transform="scale(0.015625)"/>
       <path id="DejaVuSans-56" d="M 2834 3397 
L 2834 2853 
Q 2591 2978 2328 3040 
Q 2066 3103 1784 3103 
Q 1356 3103 1142 2972 
Q 928 2841 928 2578 
Q 928 2378 1081 2264 
Q 1234 2150 1697 2047 
L 1894 2003 
Q 2506 1872 2764 1633 
Q 3022 1394 3022 966 
Q 3022 478 2636 193 
Q 2250 -91 1575 -91 
Q 1294 -91 989 -36 
Q 684 19 347 128 
L 347 722 
Q 666 556 975 473 
Q 1284 391 1588 391 
Q 1994 391 2212 530 
Q 2431 669 2431 922 
Q 2431 1156 2273 1281 
Q 2116 1406 1581 1522 
L 1381 1569 
Q 847 1681 609 1914 
Q 372 2147 372 2553 
Q 372 3047 722 3315 
Q 1072 3584 1716 3584 
Q 2034 3584 2315 3537 
Q 2597 3491 2834 3397 
z
" transform="scale(0.015625)"/>
       <path id="DejaVuSans-37" d="M -19 4666 
L 3928 4666 
L 3928 4134 
L 2272 4134 
L 2272 0 
L 1638 0 
L 1638 4134 
L -19 4134 
L -19 4666 
z
" transform="scale(0.015625)"/>
       <path id="DejaVuSans-b" d="M 1984 4856 
Q 1566 4138 1362 3434 
Q 1159 2731 1159 2009 
Q 1159 1288 1364 580 
Q 1569 -128 1984 -844 
L 1484 -844 
Q 1016 -109 783 600 
Q 550 1309 550 2009 
Q 550 2706 781 3412 
Q 1013 4119 1484 4856 
L 1984 4856 
z
" transform="scale(0.015625)"/>
       <path id="DejaVuSans-51" d="M 3513 2113 
L 3513 0 
L 2938 0 
L 2938 2094 
Q 2938 2591 2744 2837 
Q 2550 3084 2163 3084 
Q 1697 3084 1428 2787 
Q 1159 2491 1159 1978 
L 1159 0 
L 581 0 
L 581 3500 
L 1159 3500 
L 1159 2956 
Q 1366 3272 1645 3428 
Q 1925 3584 2291 3584 
Q 2894 3584 3203 3211 
Q 3513 2838 3513 2113 
z
" transform="scale(0.015625)"/>
       <path id="DejaVuSans-58" d="M 544 1381 
L 544 3500 
L 1119 3500 
L 1119 1403 
Q 1119 906 1312 657 
Q 1506 409 1894 409 
Q 2359 409 2629 706 
Q 2900 1003 2900 1516 
L 2900 3500 
L 3475 3500 
L 3475 0 
L 2900 0 
L 2900 538 
Q 2691 219 2414 64 
Q 2138 -91 1772 -91 
Q 1169 -91 856 284 
Q 544 659 544 1381 
z
M 1991 3584 
L 1991 3584 
z
" transform="scale(0.015625)"/>
       <path id="DejaVuSans-c" d="M 513 4856 
L 1013 4856 
Q 1481 4119 1714 3412 
Q 1947 2706 1947 2009 
Q 1947 1309 1714 600 
Q 1481 -109 1013 -844 
L 513 -844 
Q 928 -128 1133 580 
Q 1338 1288 1338 2009 
Q 1338 2731 1133 3434 
Q 928 4138 513 4856 
z
" transform="scale(0.015625)"/>
      </defs>
      <use xlink:href="#DejaVuSans-57"/>
      <use xlink:href="#DejaVuSans-4c" transform="translate(39.203125 0)"/>
      <use xlink:href="#DejaVuSans-48" transform="translate(66.984375 0)"/>
      <use xlink:href="#DejaVuSans-50" transform="translate(128.515625 0)"/>
      <use xlink:href="#DejaVuSans-53" transform="translate(225.921875 0)"/>
      <use xlink:href="#DejaVuSans-52" transform="translate(289.40625 0)"/>
      <use xlink:href="#DejaVuSans-3" transform="translate(350.59375 0)"/>
      <use xlink:href="#DejaVuSans-47" transform="translate(382.375 0)"/>
      <use xlink:href="#DejaVuSans-48" transform="translate(445.859375 0)"/>
      <use xlink:href="#DejaVuSans-56" transform="translate(507.390625 0)"/>
      <use xlink:href="#DejaVuSans-47" transform="translate(559.484375 0)"/>
      <use xlink:href="#DejaVuSans-48" transform="translate(622.96875 0)"/>
      <use xlink:href="#DejaVuSans-3" transform="translate(684.5 0)"/>
      <use xlink:href="#DejaVuSans-37" transform="translate(716.28125 0)"/>
      <use xlink:href="#DejaVuSans-52" transform="translate(760.375 0)"/>
      <use xlink:href="#DejaVuSans-48" transform="translate(821.5625 0)"/>
      <use xlink:href="#DejaVuSans-3" transform="translate(883.09375 0)"/>
      <use xlink:href="#DejaVuSans-b" transform="translate(914.875 0)"/>
      <use xlink:href="#DejaVuSans-50" transform="translate(953.890625 0)"/>
      <use xlink:href="#DejaVuSans-4c" transform="translate(1051.296875 0)"/>
      <use xlink:href="#DejaVuSans-51" transform="translate(1079.078125 0)"/>
      <use xlink:href="#DejaVuSans-58" transform="translate(1142.453125 0)"/>
      <use xlink:href="#DejaVuSans-57" transform="translate(1205.828125 0)"/>
      <use xlink:href="#DejaVuSans-52" transform="translate(1245.03125 0)"/>
      <use xlink:href="#DejaVuSans-56" transform="translate(1306.21875 0)"/>
      <use xlink:href="#DejaVuSans-c" transform="translate(1358.3125 0)"/>
     </g>
    </g>
   </g>
   <g id="matplotlib.axis_2">
    <g id="ytick_1">
     <g id="line2d_11">
      <path d="M 51.562344 305.403505 
L 637.2 305.403505 
" clip-path="url(#p2b7ea150e2)" style="fill: none; stroke: #b0b0b0; stroke-opacity: 0.3; stroke-width: 0.8; stroke-linecap: square"/>
     </g>
     <g id="line2d_12">
      <defs>
       <path id="ma16d588e40" d="M 0 0 
L -3.5 0 
" style="stroke: #000000; stroke-width: 0.8"/>
      </defs>
      <g>
       <use xlink:href="#ma16d588e40" x="51.562344" y="305.403505" style="stroke: #000000; stroke-width: 0.8"/>
      </g>
     </g>
     <g id="text_7">
      <!-- 0 -->
      <g transform="translate(38.199844 309.202333) scale(0.1 -0.1)">
       <use xlink:href="#DejaVuSans-13"/>
      </g>
     </g>
    </g>
    <g id="ytick_2">
     <g id="line2d_13">
      <path d="M 51.562344 259.70997 
L 637.2 259.70997 
" clip-path="url(#p2b7ea150e2)" style="fill: none; stroke: #b0b0b0; stroke-opacity: 0.3; stroke-width: 0.8; stroke-linecap: square"/>
     </g>
     <g id="line2d_14">
      <g>
       <use xlink:href="#ma16d588e40" x="51.562344" y="259.70997" style="stroke: #000000; stroke-width: 0.8"/>
      </g>
     </g>
     <g id="text_8">
      <!-- 100 -->
      <g transform="translate(25.474844 263.508798) scale(0.1 -0.1)">
       <use xlink:href="#DejaVuSans-14"/>
       <use xlink:href="#DejaVuSans-13" transform="translate(63.625 0)"/>
       <use xlink:href="#DejaVuSans-13" transform="translate(127.25 0)"/>
      </g>
     </g>
    </g>
    <g id="ytick_3">
     <g id="line2d_15">
      <path d="M 51.562344 214.016435 
L 637.2 214.016435 
" clip-path="url(#p2b7ea150e2)" style="fill: none; stroke: #b0b0b0; stroke-opacity: 0.3; stroke-width: 0.8; stroke-linecap: square"/>
     </g>
     <g id="line2d_16">
      <g>
       <use xlink:href="#ma16d588e40" x="51.562344" y="214.016435" style="stroke: #000000; stroke-width: 0.8"/>
      </g>
     </g>
     <g id="text_9">
      <!-- 200 -->
      <g transform="translate(25.474844 217.815263) scale(0.1 -0.1)">
       <defs>
        <path id="DejaVuSans-15" d="M 1228 531 
L 3431 531 
L 3431 0 
L 469 0 
L 469 531 
Q 828 903 1448 1529 
Q 2069 2156 2228 2338 
Q 2531 2678 2651 2914 
Q 2772 3150 2772 3378 
Q 2772 3750 2511 3984 
Q 2250 4219 1831 4219 
Q 1534 4219 1204 4116 
Q 875 4013 500 3803 
L 500 4441 
Q 881 4594 1212 4672 
Q 1544 4750 1819 4750 
Q 2544 4750 2975 4387 
Q 3406 4025 3406 3419 
Q 3406 3131 3298 2873 
Q 3191 2616 2906 2266 
Q 2828 2175 2409 1742 
Q 1991 1309 1228 531 
z
" transform="scale(0.015625)"/>
       </defs>
       <use xlink:href="#DejaVuSans-15"/>
       <use xlink:href="#DejaVuSans-13" transform="translate(63.625 0)"/>
       <use xlink:href="#DejaVuSans-13" transform="translate(127.25 0)"/>
      </g>
     </g>
    </g>
    <g id="ytick_4">
     <g id="line2d_17">
      <path d="M 51.562344 168.3229 
L 637.2 168.3229 
" clip-path="url(#p2b7ea150e2)" style="fill: none; stroke: #b0b0b0; stroke-opacity: 0.3; stroke-width: 0.8; stroke-linecap: square"/>
     </g>
     <g id="line2d_18">
      <g>
       <use xlink:href="#ma16d588e40" x="51.562344" y="168.3229" style="stroke: #000000; stroke-width: 0.8"/>
      </g>
     </g>
     <g id="text_10">
      <!-- 300 -->
      <g transform="translate(25.474844 172.121728) scale(0.1 -0.1)">
       <defs>
        <path id="DejaVuSans-16" d="M 2597 2516 
Q 3050 2419 3304 2112 
Q 3559 1806 3559 1356 
Q 3559 666 3084 287 
Q 2609 -91 1734 -91 
Q 1441 -91 1130 -33 
Q 819 25 488 141 
L 488 750 
Q 750 597 1062 519 
Q 1375 441 1716 441 
Q 2309 441 2620 675 
Q 2931 909 2931 1356 
Q 2931 1769 2642 2001 
Q 2353 2234 1838 2234 
L 1294 2234 
L 1294 2753 
L 1863 2753 
Q 2328 2753 2575 2939 
Q 2822 3125 2822 3475 
Q 2822 3834 2567 4026 
Q 2313 4219 1838 4219 
Q 1578 4219 1281 4162 
Q 984 4106 628 3988 
L 628 4550 
Q 988 4650 1302 4700 
Q 1616 4750 1894 4750 
Q 2613 4750 3031 4423 
Q 3450 4097 3450 3541 
Q 3450 3153 3228 2886 
Q 3006 2619 2597 2516 
z
" transform="scale(0.015625)"/>
       </defs>
       <use xlink:href="#DejaVuSans-16"/>
       <use xlink:href="#DejaVuSans-13" transform="translate(63.625 0)"/>
       <use xlink:href="#DejaVuSans-13" transform="translate(127.25 0)"/>
      </g>
     </g>
    </g>
    <g id="ytick_5">
     <g id="line2d_19">
      <path d="M 51.562344 122.629364 
L 637.2 122.629364 
" clip-path="url(#p2b7ea150e2)" style="fill: none; stroke: #b0b0b0; stroke-opacity: 0.3; stroke-width: 0.8; stroke-linecap: square"/>
     </g>
     <g id="line2d_20">
      <g>
       <use xlink:href="#ma16d588e40" x="51.562344" y="122.629364" style="stroke: #000000; stroke-width: 0.8"/>
      </g>
     </g>
     <g id="text_11">
      <!-- 400 -->
      <g transform="translate(25.474844 126.428192) scale(0.1 -0.1)">
       <defs>
        <path id="DejaVuSans-17" d="M 2419 4116 
L 825 1625 
L 2419 1625 
L 2419 4116 
z
M 2253 4666 
L 3047 4666 
L 3047 1625 
L 3713 1625 
L 3713 1100 
L 3047 1100 
L 3047 0 
L 2419 0 
L 2419 1100 
L 313 1100 
L 313 1709 
L 2253 4666 
z
" transform="scale(0.015625)"/>
       </defs>
       <use xlink:href="#DejaVuSans-17"/>
       <use xlink:href="#DejaVuSans-13" transform="translate(63.625 0)"/>
       <use xlink:href="#DejaVuSans-13" transform="translate(127.25 0)"/>
      </g>
     </g>
    </g>
    <g id="ytick_6">
     <g id="line2d_21">
      <path d="M 51.562344 76.935829 
L 637.2 76.935829 
" clip-path="url(#p2b7ea150e2)" style="fill: none; stroke: #b0b0b0; stroke-opacity: 0.3; stroke-width: 0.8; stroke-linecap: square"/>
     </g>
     <g id="line2d_22">
      <g>
       <use xlink:href="#ma16d588e40" x="51.562344" y="76.935829" style="stroke: #000000; stroke-width: 0.8"/>
      </g>
     </g>
     <g id="text_12">
      <!-- 500 -->
      <g transform="translate(25.474844 80.734657) scale(0.1 -0.1)">
       <use xlink:href="#DejaVuSans-18"/>
       <use xlink:href="#DejaVuSans-13" transform="translate(63.625 0)"/>
       <use xlink:href="#DejaVuSans-13" transform="translate(127.25 0)"/>
      </g>
     </g>
    </g>
    <g id="text_13">
     <!-- residuo posicional vs broadcast completa (m) -->
     <g transform="translate(19.0725 294.546367) rotate(-90) scale(0.1 -0.1)">
      <defs>
       <path id="DejaVuSans-55" d="M 2631 2963 
Q 2534 3019 2420 3045 
Q 2306 3072 2169 3072 
Q 1681 3072 1420 2755 
Q 1159 2438 1159 1844 
L 1159 0 
L 581 0 
L 581 3500 
L 1159 3500 
L 1159 2956 
Q 1341 3275 1631 3429 
Q 1922 3584 2338 3584 
Q 2397 3584 2469 3576 
Q 2541 3569 2628 3553 
L 2631 2963 
z
" transform="scale(0.015625)"/>
       <path id="DejaVuSans-46" d="M 3122 3366 
L 3122 2828 
Q 2878 2963 2633 3030 
Q 2388 3097 2138 3097 
Q 1578 3097 1268 2742 
Q 959 2388 959 1747 
Q 959 1106 1268 751 
Q 1578 397 2138 397 
Q 2388 397 2633 464 
Q 2878 531 3122 666 
L 3122 134 
Q 2881 22 2623 -34 
Q 2366 -91 2075 -91 
Q 1284 -91 818 406 
Q 353 903 353 1747 
Q 353 2603 823 3093 
Q 1294 3584 2113 3584 
Q 2378 3584 2631 3529 
Q 2884 3475 3122 3366 
z
" transform="scale(0.015625)"/>
       <path id="DejaVuSans-44" d="M 2194 1759 
Q 1497 1759 1228 1600 
Q 959 1441 959 1056 
Q 959 750 1161 570 
Q 1363 391 1709 391 
Q 2188 391 2477 730 
Q 2766 1069 2766 1631 
L 2766 1759 
L 2194 1759 
z
M 3341 1997 
L 3341 0 
L 2766 0 
L 2766 531 
Q 2569 213 2275 61 
Q 1981 -91 1556 -91 
Q 1019 -91 701 211 
Q 384 513 384 1019 
Q 384 1609 779 1909 
Q 1175 2209 1959 2209 
L 2766 2209 
L 2766 2266 
Q 2766 2663 2505 2880 
Q 2244 3097 1772 3097 
Q 1472 3097 1187 3025 
Q 903 2953 641 2809 
L 641 3341 
Q 956 3463 1253 3523 
Q 1550 3584 1831 3584 
Q 2591 3584 2966 3190 
Q 3341 2797 3341 1997 
z
" transform="scale(0.015625)"/>
       <path id="DejaVuSans-4f" d="M 603 4863 
L 1178 4863 
L 1178 0 
L 603 0 
L 603 4863 
z
" transform="scale(0.015625)"/>
       <path id="DejaVuSans-59" d="M 191 3500 
L 800 3500 
L 1894 563 
L 2988 3500 
L 3597 3500 
L 2284 0 
L 1503 0 
L 191 3500 
z
" transform="scale(0.015625)"/>
       <path id="DejaVuSans-45" d="M 3116 1747 
Q 3116 2381 2855 2742 
Q 2594 3103 2138 3103 
Q 1681 3103 1420 2742 
Q 1159 2381 1159 1747 
Q 1159 1113 1420 752 
Q 1681 391 2138 391 
Q 2594 391 2855 752 
Q 3116 1113 3116 1747 
z
M 1159 2969 
Q 1341 3281 1617 3432 
Q 1894 3584 2278 3584 
Q 2916 3584 3314 3078 
Q 3713 2572 3713 1747 
Q 3713 922 3314 415 
Q 2916 -91 2278 -91 
Q 1894 -91 1617 61 
Q 1341 213 1159 525 
L 1159 0 
L 581 0 
L 581 4863 
L 1159 4863 
L 1159 2969 
z
" transform="scale(0.015625)"/>
      </defs>
      <use xlink:href="#DejaVuSans-55"/>
      <use xlink:href="#DejaVuSans-48" transform="translate(38.90625 0)"/>
      <use xlink:href="#DejaVuSans-56" transform="translate(100.4375 0)"/>
      <use xlink:href="#DejaVuSans-4c" transform="translate(152.53125 0)"/>
      <use xlink:href="#DejaVuSans-47" transform="translate(180.3125 0)"/>
      <use xlink:href="#DejaVuSans-58" transform="translate(243.796875 0)"/>
      <use xlink:href="#DejaVuSans-52" transform="translate(307.171875 0)"/>
      <use xlink:href="#DejaVuSans-3" transform="translate(368.359375 0)"/>
      <use xlink:href="#DejaVuSans-53" transform="translate(400.140625 0)"/>
      <use xlink:href="#DejaVuSans-52" transform="translate(463.625 0)"/>
      <use xlink:href="#DejaVuSans-56" transform="translate(524.8125 0)"/>
      <use xlink:href="#DejaVuSans-4c" transform="translate(576.90625 0)"/>
      <use xlink:href="#DejaVuSans-46" transform="translate(604.6875 0)"/>
      <use xlink:href="#DejaVuSans-4c" transform="translate(659.671875 0)"/>
      <use xlink:href="#DejaVuSans-52" transform="translate(687.453125 0)"/>
      <use xlink:href="#DejaVuSans-51" transform="translate(748.640625 0)"/>
      <use xlink:href="#DejaVuSans-44" transform="translate(812.015625 0)"/>
      <use xlink:href="#DejaVuSans-4f" transform="translate(873.296875 0)"/>
      <use xlink:href="#DejaVuSans-3" transform="translate(901.078125 0)"/>
      <use xlink:href="#DejaVuSans-59" transform="translate(932.859375 0)"/>
      <use xlink:href="#DejaVuSans-56" transform="translate(992.046875 0)"/>
      <use xlink:href="#DejaVuSans-3" transform="translate(1044.140625 0)"/>
      <use xlink:href="#DejaVuSans-45" transform="translate(1075.921875 0)"/>
      <use xlink:href="#DejaVuSans-55" transform="translate(1139.40625 0)"/>
      <use xlink:href="#DejaVuSans-52" transform="translate(1178.3125 0)"/>
      <use xlink:href="#DejaVuSans-44" transform="translate(1239.5 0)"/>
      <use xlink:href="#DejaVuSans-47" transform="translate(1300.78125 0)"/>
      <use xlink:href="#DejaVuSans-46" transform="translate(1364.265625 0)"/>
      <use xlink:href="#DejaVuSans-44" transform="translate(1419.25 0)"/>
      <use xlink:href="#DejaVuSans-56" transform="translate(1480.53125 0)"/>
      <use xlink:href="#DejaVuSans-57" transform="translate(1532.625 0)"/>
      <use xlink:href="#DejaVuSans-3" transform="translate(1571.828125 0)"/>
      <use xlink:href="#DejaVuSans-46" transform="translate(1603.609375 0)"/>
      <use xlink:href="#DejaVuSans-52" transform="translate(1658.59375 0)"/>
      <use xlink:href="#DejaVuSans-50" transform="translate(1719.78125 0)"/>
      <use xlink:href="#DejaVuSans-53" transform="translate(1817.1875 0)"/>
      <use xlink:href="#DejaVuSans-4f" transform="translate(1880.671875 0)"/>
      <use xlink:href="#DejaVuSans-48" transform="translate(1908.453125 0)"/>
      <use xlink:href="#DejaVuSans-57" transform="translate(1969.984375 0)"/>
      <use xlink:href="#DejaVuSans-44" transform="translate(2009.1875 0)"/>
      <use xlink:href="#DejaVuSans-3" transform="translate(2070.46875 0)"/>
      <use xlink:href="#DejaVuSans-b" transform="translate(2102.25 0)"/>
      <use xlink:href="#DejaVuSans-50" transform="translate(2141.265625 0)"/>
      <use xlink:href="#DejaVuSans-c" transform="translate(2238.671875 0)"/>
     </g>
    </g>
   </g>
   <g id="line2d_23">
    <path d="M 78.182237 55.920479 
L 89.273859 66.318088 
L 100.365482 76.715575 
L 111.457104 87.112923 
L 122.548726 97.510115 
L 133.640349 107.907134 
L 144.731971 118.303966 
L 155.823593 128.700594 
L 166.915215 139.097007 
L 178.006838 149.493191 
L 189.09846 159.889136 
L 200.190082 170.28483 
L 211.281705 180.680265 
L 222.373327 191.075433 
L 233.464949 201.470327 
L 244.556571 211.864941 
L 255.648194 222.259271 
L 266.739816 232.653314 
L 277.831438 243.047066 
L 288.92306 253.440527 
L 300.014683 263.833697 
L 311.106305 274.226578 
L 322.197927 284.61917 
L 333.28955 295.011478 
L 344.381172 305.403505 
L 355.472794 295.011754 
L 366.564416 284.620272 
L 377.656039 274.229053 
L 388.747661 263.83809 
L 399.839283 253.447373 
L 410.930906 243.056895 
L 422.022528 232.666645 
L 433.11415 222.276614 
L 444.205772 211.88679 
L 455.297395 201.497162 
L 466.389017 191.107719 
L 477.480639 180.71845 
L 488.572261 170.329341 
L 499.663884 159.94038 
L 510.755506 149.551555 
L 521.847128 139.162853 
L 532.938751 128.774261 
L 544.030373 118.385767 
L 555.121995 107.997356 
L 566.213617 97.609018 
L 577.30524 87.220738 
L 588.396862 76.832505 
L 599.488484 66.444306 
L 610.580107 56.056128 
" clip-path="url(#p2b7ea150e2)" style="fill: none; stroke: #d62728; stroke-width: 1.8; stroke-linecap: square"/>
   </g>
   <g id="line2d_24">
    <path d="M 78.182237 150.828995 
L 89.273859 141.570559 
L 100.365482 133.215409 
L 111.457104 125.810279 
L 122.548726 119.396508 
L 133.640349 114.009846 
L 144.731971 109.680279 
L 155.823593 106.431886 
L 166.915215 104.282709 
L 178.006838 103.244668 
L 189.09846 103.323493 
L 200.190082 104.518701 
L 211.281705 106.823594 
L 222.373327 110.2253 
L 233.464949 114.704834 
L 244.556571 120.237203 
L 255.648194 126.791529 
L 266.739816 134.331205 
L 277.831438 142.814075 
L 288.92306 152.192623 
L 300.014683 162.414181 
L 311.106305 173.421112 
L 322.197927 185.150965 
L 333.28955 197.536515 
L 344.381172 210.505549 
L 355.472794 223.980078 
L 366.564416 237.874026 
L 377.656039 252.086479 
L 388.747661 266.47878 
L 399.839283 280.769465 
L 410.930906 293.661847 
L 422.022528 294.514181 
L 433.11415 281.964475 
L 444.205772 267.710287 
L 455.297395 253.31223 
L 466.389017 239.078512 
L 477.480639 225.153458 
L 488.572261 211.639817 
L 499.663884 198.624465 
L 510.755506 186.185851 
L 521.847128 174.396516 
L 532.938751 163.323973 
L 544.030373 153.030953 
L 555.121995 143.575375 
L 566.213617 135.010212 
L 577.30524 127.383301 
L 588.396862 120.737149 
L 599.488484 115.108737 
L 610.580107 110.529345 
" clip-path="url(#p2b7ea150e2)" style="fill: none; stroke: #1f77b4; stroke-width: 1.8; stroke-linecap: square"/>
   </g>
   <g id="line2d_25">
    <path d="M 78.182237 277.39986 
L 89.273859 277.159261 
L 100.365482 277.078443 
L 111.457104 277.154036 
L 122.548726 277.382288 
L 133.640349 277.759082 
L 144.731971 278.279941 
L 155.823593 278.940043 
L 166.915215 279.734235 
L 178.006838 280.65704 
L 189.09846 281.702676 
L 200.190082 282.865071 
L 211.281705 284.137873 
L 222.373327 285.514467 
L 233.464949 286.987995 
L 244.556571 288.551368 
L 255.648194 290.197281 
L 266.739816 291.918239 
L 277.831438 293.706563 
L 288.92306 295.554419 
L 300.014683 297.453827 
L 311.106305 299.396687 
L 322.197927 301.374792 
L 333.28955 303.379851 
L 344.381172 305.403505 
L 355.472794 303.36966 
L 366.564416 301.334058 
L 377.656039 299.305139 
L 388.747661 297.291334 
L 399.839283 295.301042 
L 410.930906 293.342613 
L 422.022528 291.424328 
L 433.11415 289.554377 
L 444.205772 287.740847 
L 455.297395 285.991696 
L 466.389017 284.314739 
L 477.480639 282.717627 
L 488.572261 281.20783 
L 499.663884 279.792622 
L 510.755506 278.479059 
L 521.847128 277.273966 
L 532.938751 276.18392 
L 544.030373 275.215233 
L 555.121995 274.373935 
L 566.213617 273.665766 
L 577.30524 273.096153 
L 588.396862 272.670202 
L 599.488484 272.392685 
L 610.580107 272.268025 
" clip-path="url(#p2b7ea150e2)" style="fill: none; stroke: #2ca02c; stroke-width: 1.8; stroke-linecap: square"/>
   </g>
   <g id="line2d_26">
    <path d="M 78.182237 196.220006 
L 89.273859 212.026593 
L 100.365482 225.693951 
L 111.457104 236.656377 
L 122.548726 244.26565 
L 133.640349 248.043653 
L 144.731971 248.072262 
L 155.823593 245.108563 
L 166.915215 240.222623 
L 178.006838 234.375979 
L 189.09846 228.262944 
L 200.190082 222.337408 
L 211.281705 216.884332 
L 222.373327 212.07887 
L 233.464949 208.025388 
L 244.556571 204.781508 
L 255.648194 202.372749 
L 266.739816 200.801539 
L 277.831438 200.052886 
L 288.92306 200.09803 
L 300.014683 200.896854 
L 311.106305 202.399492 
L 322.197927 204.547414 
L 333.28955 207.274119 
L 344.381172 210.505549 
L 355.472794 214.160247 
L 366.564416 218.149318 
L 377.656039 222.376208 
L 388.747661 226.736398 
L 399.839283 231.117155 
L 410.930906 235.397649 
L 422.022528 239.450013 
L 433.11415 243.142171 
L 444.205772 246.34352 
L 455.297395 248.93428 
L 466.389017 250.81815 
L 477.480639 251.935679 
L 488.572261 252.273508 
L 499.663884 251.864607 
L 510.755506 250.777958 
L 521.847128 249.100955 
L 532.938751 246.92038 
L 544.030373 244.306841 
L 555.121995 241.304769 
L 566.213617 237.927787 
L 577.30524 234.158287 
L 588.396862 229.950112 
L 599.488484 225.233507 
L 610.580107 219.921702 
" clip-path="url(#p2b7ea150e2)" style="fill: none; stroke-dasharray: 6.66,2.88; stroke-dashoffset: 0; stroke: #000000; stroke-width: 1.8"/>
   </g>
   <g id="line2d_27">
    <path d="M 344.381172 317.877656 
L 344.381172 43.446328 
" clip-path="url(#p2b7ea150e2)" style="fill: none; stroke: #808080; stroke-width: 0.6; stroke-linecap: square"/>
   </g>
   <g id="patch_3">
    <path d="M 51.562344 317.877656 
L 51.562344 43.446328 
" style="fill: none; stroke: #000000; stroke-width: 0.8; stroke-linejoin: miter; stroke-linecap: square"/>
   </g>
   <g id="patch_4">
    <path d="M 637.2 317.877656 
L 637.2 43.446328 
" style="fill: none; stroke: #000000; stroke-width: 0.8; stroke-linejoin: miter; stroke-linecap: square"/>
   </g>
   <g id="patch_5">
    <path d="M 51.562344 317.877656 
L 637.2 317.877656 
" style="fill: none; stroke: #000000; stroke-width: 0.8; stroke-linejoin: miter; stroke-linecap: square"/>
   </g>
   <g id="patch_6">
    <path d="M 51.562344 43.446328 
L 637.2 43.446328 
" style="fill: none; stroke: #000000; stroke-width: 0.8; stroke-linejoin: miter; stroke-linecap: square"/>
   </g>
   <g id="text_14">
    <!-- Toe -->
    <g style="fill: #808080" transform="translate(344.381172 59.163759) scale(0.08 -0.08)">
     <use xlink:href="#DejaVuSans-37"/>
     <use xlink:href="#DejaVuSans-52" transform="translate(44.09375 0)"/>
     <use xlink:href="#DejaVuSans-48" transform="translate(105.28125 0)"/>
    </g>
   </g>
   <g id="text_15">
    <!-- Qué corrige cada parche del ICD — E05, órbita Galileo -->
    <g transform="translate(181.546797 22.563047) scale(0.12 -0.12)">
     <defs>
      <path id="DejaVuSans-34" d="M 2522 4238 
Q 1834 4238 1429 3725 
Q 1025 3213 1025 2328 
Q 1025 1447 1429 934 
Q 1834 422 2522 422 
Q 3209 422 3611 934 
Q 4013 1447 4013 2328 
Q 4013 3213 3611 3725 
Q 3209 4238 2522 4238 
z
M 3406 84 
L 4238 -825 
L 3475 -825 
L 2784 -78 
Q 2681 -84 2626 -87 
Q 2572 -91 2522 -91 
Q 1538 -91 948 567 
Q 359 1225 359 2328 
Q 359 3434 948 4092 
Q 1538 4750 2522 4750 
Q 3503 4750 4090 4092 
Q 4678 3434 4678 2328 
Q 4678 1516 4351 937 
Q 4025 359 3406 84 
z
" transform="scale(0.015625)"/>
      <path id="DejaVuSans-ab" d="M 3597 1894 
L 3597 1613 
L 953 1613 
Q 991 1019 1311 708 
Q 1631 397 2203 397 
Q 2534 397 2845 478 
Q 3156 559 3463 722 
L 3463 178 
Q 3153 47 2828 -22 
Q 2503 -91 2169 -91 
Q 1331 -91 842 396 
Q 353 884 353 1716 
Q 353 2575 817 3079 
Q 1281 3584 2069 3584 
Q 2775 3584 3186 3129 
Q 3597 2675 3597 1894 
z
M 3022 2063 
Q 3016 2534 2758 2815 
Q 2500 3097 2075 3097 
Q 1594 3097 1305 2825 
Q 1016 2553 972 2059 
L 3022 2063 
z
M 2468 5119 
L 3090 5119 
L 2072 3944 
L 1593 3944 
L 2468 5119 
z
" transform="scale(0.015625)"/>
      <path id="DejaVuSans-4a" d="M 2906 1791 
Q 2906 2416 2648 2759 
Q 2391 3103 1925 3103 
Q 1463 3103 1205 2759 
Q 947 2416 947 1791 
Q 947 1169 1205 825 
Q 1463 481 1925 481 
Q 2391 481 2648 825 
Q 2906 1169 2906 1791 
z
M 3481 434 
Q 3481 -459 3084 -895 
Q 2688 -1331 1869 -1331 
Q 1566 -1331 1297 -1286 
Q 1028 -1241 775 -1147 
L 775 -588 
Q 1028 -725 1275 -790 
Q 1522 -856 1778 -856 
Q 2344 -856 2625 -561 
Q 2906 -266 2906 331 
L 2906 616 
Q 2728 306 2450 153 
Q 2172 0 1784 0 
Q 1141 0 747 490 
Q 353 981 353 1791 
Q 353 2603 747 3093 
Q 1141 3584 1784 3584 
Q 2172 3584 2450 3431 
Q 2728 3278 2906 2969 
L 2906 3500 
L 3481 3500 
L 3481 434 
z
" transform="scale(0.015625)"/>
      <path id="DejaVuSans-4b" d="M 3513 2113 
L 3513 0 
L 2938 0 
L 2938 2094 
Q 2938 2591 2744 2837 
Q 2550 3084 2163 3084 
Q 1697 3084 1428 2787 
Q 1159 2491 1159 1978 
L 1159 0 
L 581 0 
L 581 4863 
L 1159 4863 
L 1159 2956 
Q 1366 3272 1645 3428 
Q 1925 3584 2291 3584 
Q 2894 3584 3203 3211 
Q 3513 2838 3513 2113 
z
" transform="scale(0.015625)"/>
      <path id="DejaVuSans-2c" d="M 628 4666 
L 1259 4666 
L 1259 0 
L 628 0 
L 628 4666 
z
" transform="scale(0.015625)"/>
      <path id="DejaVuSans-26" d="M 4122 4306 
L 4122 3641 
Q 3803 3938 3442 4084 
Q 3081 4231 2675 4231 
Q 1875 4231 1450 3742 
Q 1025 3253 1025 2328 
Q 1025 1406 1450 917 
Q 1875 428 2675 428 
Q 3081 428 3442 575 
Q 3803 722 4122 1019 
L 4122 359 
Q 3791 134 3420 21 
Q 3050 -91 2638 -91 
Q 1578 -91 968 557 
Q 359 1206 359 2328 
Q 359 3453 968 4101 
Q 1578 4750 2638 4750 
Q 3056 4750 3426 4639 
Q 3797 4528 4122 4306 
z
" transform="scale(0.015625)"/>
      <path id="DejaVuSans-27" d="M 1259 4147 
L 1259 519 
L 2022 519 
Q 2988 519 3436 956 
Q 3884 1394 3884 2338 
Q 3884 3275 3436 3711 
Q 2988 4147 2022 4147 
L 1259 4147 
z
M 628 4666 
L 1925 4666 
Q 3281 4666 3915 4102 
Q 4550 3538 4550 2338 
Q 4550 1131 3912 565 
Q 3275 0 1925 0 
L 628 0 
L 628 4666 
z
" transform="scale(0.015625)"/>
      <path id="DejaVuSans-af6" d="M 313 1978 
L 6088 1978 
L 6088 1528 
L 313 1528 
L 313 1978 
z
" transform="scale(0.015625)"/>
      <path id="DejaVuSans-28" d="M 628 4666 
L 3578 4666 
L 3578 4134 
L 1259 4134 
L 1259 2753 
L 3481 2753 
L 3481 2222 
L 1259 2222 
L 1259 531 
L 3634 531 
L 3634 0 
L 628 0 
L 628 4666 
z
" transform="scale(0.015625)"/>
      <path id="DejaVuSans-f" d="M 750 794 
L 1409 794 
L 1409 256 
L 897 -744 
L 494 -744 
L 750 256 
L 750 794 
z
" transform="scale(0.015625)"/>
      <path id="DejaVuSans-b5" d="M 1959 3097 
Q 1497 3097 1228 2736 
Q 959 2375 959 1747 
Q 959 1119 1226 758 
Q 1494 397 1959 397 
Q 2419 397 2687 759 
Q 2956 1122 2956 1747 
Q 2956 2369 2687 2733 
Q 2419 3097 1959 3097 
z
M 1959 3584 
Q 2709 3584 3137 3096 
Q 3566 2609 3566 1747 
Q 3566 888 3137 398 
Q 2709 -91 1959 -91 
Q 1206 -91 779 398 
Q 353 888 353 1747 
Q 353 2609 779 3096 
Q 1206 3584 1959 3584 
z
M 2393 5119 
L 3015 5119 
L 1997 3944 
L 1518 3944 
L 2393 5119 
z
" transform="scale(0.015625)"/>
      <path id="DejaVuSans-2a" d="M 3809 666 
L 3809 1919 
L 2778 1919 
L 2778 2438 
L 4434 2438 
L 4434 434 
Q 4069 175 3628 42 
Q 3188 -91 2688 -91 
Q 1594 -91 976 548 
Q 359 1188 359 2328 
Q 359 3472 976 4111 
Q 1594 4750 2688 4750 
Q 3144 4750 3555 4637 
Q 3966 4525 4313 4306 
L 4313 3634 
Q 3963 3931 3569 4081 
Q 3175 4231 2741 4231 
Q 1884 4231 1454 3753 
Q 1025 3275 1025 2328 
Q 1025 1384 1454 906 
Q 1884 428 2741 428 
Q 3075 428 3337 486 
Q 3600 544 3809 666 
z
" transform="scale(0.015625)"/>
     </defs>
     <use xlink:href="#DejaVuSans-34"/>
     <use xlink:href="#DejaVuSans-58" transform="translate(78.71875 0)"/>
     <use xlink:href="#DejaVuSans-ab" transform="translate(142.09375 0)"/>
     <use xlink:href="#DejaVuSans-3" transform="translate(203.625 0)"/>
     <use xlink:href="#DejaVuSans-46" transform="translate(235.40625 0)"/>
     <use xlink:href="#DejaVuSans-52" transform="translate(290.390625 0)"/>
     <use xlink:href="#DejaVuSans-55" transform="translate(351.578125 0)"/>
     <use xlink:href="#DejaVuSans-55" transform="translate(390.9375 0)"/>
     <use xlink:href="#DejaVuSans-4c" transform="translate(432.046875 0)"/>
     <use xlink:href="#DejaVuSans-4a" transform="translate(459.828125 0)"/>
     <use xlink:href="#DejaVuSans-48" transform="translate(523.3125 0)"/>
     <use xlink:href="#DejaVuSans-3" transform="translate(584.84375 0)"/>
     <use xlink:href="#DejaVuSans-46" transform="translate(616.625 0)"/>
     <use xlink:href="#DejaVuSans-44" transform="translate(671.609375 0)"/>
     <use xlink:href="#DejaVuSans-47" transform="translate(732.890625 0)"/>
     <use xlink:href="#DejaVuSans-44" transform="translate(796.375 0)"/>
     <use xlink:href="#DejaVuSans-3" transform="translate(857.65625 0)"/>
     <use xlink:href="#DejaVuSans-53" transform="translate(889.4375 0)"/>
     <use xlink:href="#DejaVuSans-44" transform="translate(952.921875 0)"/>
     <use xlink:href="#DejaVuSans-55" transform="translate(1014.203125 0)"/>
     <use xlink:href="#DejaVuSans-46" transform="translate(1053.109375 0)"/>
     <use xlink:href="#DejaVuSans-4b" transform="translate(1108.09375 0)"/>
     <use xlink:href="#DejaVuSans-48" transform="translate(1171.46875 0)"/>
     <use xlink:href="#DejaVuSans-3" transform="translate(1233 0)"/>
     <use xlink:href="#DejaVuSans-47" transform="translate(1264.78125 0)"/>
     <use xlink:href="#DejaVuSans-48" transform="translate(1328.265625 0)"/>
     <use xlink:href="#DejaVuSans-4f" transform="translate(1389.796875 0)"/>
     <use xlink:href="#DejaVuSans-3" transform="translate(1417.578125 0)"/>
     <use xlink:href="#DejaVuSans-2c" transform="translate(1449.359375 0)"/>
     <use xlink:href="#DejaVuSans-26" transform="translate(1478.859375 0)"/>
     <use xlink:href="#DejaVuSans-27" transform="translate(1548.6875 0)"/>
     <use xlink:href="#DejaVuSans-3" transform="translate(1625.6875 0)"/>
     <use xlink:href="#DejaVuSans-af6" transform="translate(1657.46875 0)"/>
     <use xlink:href="#DejaVuSans-3" transform="translate(1757.46875 0)"/>
     <use xlink:href="#DejaVuSans-28" transform="translate(1789.25 0)"/>
     <use xlink:href="#DejaVuSans-13" transform="translate(1852.4375 0)"/>
     <use xlink:href="#DejaVuSans-18" transform="translate(1916.0625 0)"/>
     <use xlink:href="#DejaVuSans-f" transform="translate(1979.6875 0)"/>
     <use xlink:href="#DejaVuSans-3" transform="translate(2011.46875 0)"/>
     <use xlink:href="#DejaVuSans-b5" transform="translate(2043.25 0)"/>
     <use xlink:href="#DejaVuSans-55" transform="translate(2104.4375 0)"/>
     <use xlink:href="#DejaVuSans-45" transform="translate(2145.546875 0)"/>
     <use xlink:href="#DejaVuSans-4c" transform="translate(2209.03125 0)"/>
     <use xlink:href="#DejaVuSans-57" transform="translate(2236.8125 0)"/>
     <use xlink:href="#DejaVuSans-44" transform="translate(2276.015625 0)"/>
     <use xlink:href="#DejaVuSans-3" transform="translate(2337.296875 0)"/>
     <use xlink:href="#DejaVuSans-2a" transform="translate(2369.078125 0)"/>
     <use xlink:href="#DejaVuSans-44" transform="translate(2446.5625 0)"/>
     <use xlink:href="#DejaVuSans-4f" transform="translate(2507.84375 0)"/>
     <use xlink:href="#DejaVuSans-4c" transform="translate(2535.625 0)"/>
     <use xlink:href="#DejaVuSans-4f" transform="translate(2563.40625 0)"/>
     <use xlink:href="#DejaVuSans-48" transform="translate(2591.1875 0)"/>
     <use xlink:href="#DejaVuSans-52" transform="translate(2652.71875 0)"/>
    </g>
    <!-- (a=29600 km, i=55.5°): cada término tiene su firma temporal -->
    <g transform="translate(157.524297 37.446328) scale(0.12 -0.12)">
     <defs>
      <path id="DejaVuSans-20" d="M 678 2906 
L 4684 2906 
L 4684 2381 
L 678 2381 
L 678 2906 
z
M 678 1631 
L 4684 1631 
L 4684 1100 
L 678 1100 
L 678 1631 
z
" transform="scale(0.015625)"/>
      <path id="DejaVuSans-1c" d="M 703 97 
L 703 672 
Q 941 559 1184 500 
Q 1428 441 1663 441 
Q 2288 441 2617 861 
Q 2947 1281 2994 2138 
Q 2813 1869 2534 1725 
Q 2256 1581 1919 1581 
Q 1219 1581 811 2004 
Q 403 2428 403 3163 
Q 403 3881 828 4315 
Q 1253 4750 1959 4750 
Q 2769 4750 3195 4129 
Q 3622 3509 3622 2328 
Q 3622 1225 3098 567 
Q 2575 -91 1691 -91 
Q 1453 -91 1209 -44 
Q 966 3 703 97 
z
M 1959 2075 
Q 2384 2075 2632 2365 
Q 2881 2656 2881 3163 
Q 2881 3666 2632 3958 
Q 2384 4250 1959 4250 
Q 1534 4250 1286 3958 
Q 1038 3666 1038 3163 
Q 1038 2656 1286 2365 
Q 1534 2075 1959 2075 
z
" transform="scale(0.015625)"/>
      <path id="DejaVuSans-19" d="M 2113 2584 
Q 1688 2584 1439 2293 
Q 1191 2003 1191 1497 
Q 1191 994 1439 701 
Q 1688 409 2113 409 
Q 2538 409 2786 701 
Q 3034 994 3034 1497 
Q 3034 2003 2786 2293 
Q 2538 2584 2113 2584 
z
M 3366 4563 
L 3366 3988 
Q 3128 4100 2886 4159 
Q 2644 4219 2406 4219 
Q 1781 4219 1451 3797 
Q 1122 3375 1075 2522 
Q 1259 2794 1537 2939 
Q 1816 3084 2150 3084 
Q 2853 3084 3261 2657 
Q 3669 2231 3669 1497 
Q 3669 778 3244 343 
Q 2819 -91 2113 -91 
Q 1303 -91 875 529 
Q 447 1150 447 2328 
Q 447 3434 972 4092 
Q 1497 4750 2381 4750 
Q 2619 4750 2861 4703 
Q 3103 4656 3366 4563 
z
" transform="scale(0.015625)"/>
      <path id="DejaVuSans-4e" d="M 581 4863 
L 1159 4863 
L 1159 1991 
L 2875 3500 
L 3609 3500 
L 1753 1863 
L 3688 0 
L 2938 0 
L 1159 1709 
L 1159 0 
L 581 0 
L 581 4863 
z
" transform="scale(0.015625)"/>
      <path id="DejaVuSans-11" d="M 684 794 
L 1344 794 
L 1344 0 
L 684 0 
L 684 794 
z
" transform="scale(0.015625)"/>
      <path id="DejaVuSans-72" d="M 1600 4347 
Q 1350 4347 1178 4173 
Q 1006 4000 1006 3750 
Q 1006 3503 1178 3333 
Q 1350 3163 1600 3163 
Q 1850 3163 2022 3333 
Q 2194 3503 2194 3750 
Q 2194 3997 2020 4172 
Q 1847 4347 1600 4347 
z
M 1600 4750 
Q 1800 4750 1984 4673 
Q 2169 4597 2303 4453 
Q 2447 4313 2519 4134 
Q 2591 3956 2591 3750 
Q 2591 3338 2302 3052 
Q 2013 2766 1594 2766 
Q 1172 2766 890 3047 
Q 609 3328 609 3750 
Q 609 4169 896 4459 
Q 1184 4750 1600 4750 
z
" transform="scale(0.015625)"/>
      <path id="DejaVuSans-1d" d="M 750 794 
L 1409 794 
L 1409 0 
L 750 0 
L 750 794 
z
M 750 3309 
L 1409 3309 
L 1409 2516 
L 750 2516 
L 750 3309 
z
" transform="scale(0.015625)"/>
      <path id="DejaVuSans-13af" d="M 3431 3500 
L 3431 0 
L 2853 0 
L 2853 3053 
L 1275 3053 
L 1275 0 
L 697 0 
L 697 3053 
L 147 3053 
L 147 3500 
L 697 3500 
L 697 3744 
Q 697 4316 967 4589 
Q 1238 4863 1797 4863 
L 2375 4863 
L 2375 4384 
L 1825 4384 
Q 1516 4384 1395 4259 
Q 1275 4134 1275 3809 
L 1275 3500 
L 3431 3500 
z
M 2853 4856 
L 3431 4856 
L 3431 4128 
L 2853 4128 
L 2853 4856 
z
" transform="scale(0.015625)"/>
     </defs>
     <use xlink:href="#DejaVuSans-b"/>
     <use xlink:href="#DejaVuSans-44" transform="translate(39.015625 0)"/>
     <use xlink:href="#DejaVuSans-20" transform="translate(100.296875 0)"/>
     <use xlink:href="#DejaVuSans-15" transform="translate(184.09375 0)"/>
     <use xlink:href="#DejaVuSans-1c" transform="translate(247.71875 0)"/>
     <use xlink:href="#DejaVuSans-19" transform="translate(311.34375 0)"/>
     <use xlink:href="#DejaVuSans-13" transform="translate(374.96875 0)"/>
     <use xlink:href="#DejaVuSans-13" transform="translate(438.59375 0)"/>
     <use xlink:href="#DejaVuSans-3" transform="translate(502.21875 0)"/>
     <use xlink:href="#DejaVuSans-4e" transform="translate(534 0)"/>
     <use xlink:href="#DejaVuSans-50" transform="translate(591.90625 0)"/>
     <use xlink:href="#DejaVuSans-f" transform="translate(689.3125 0)"/>
     <use xlink:href="#DejaVuSans-3" transform="translate(721.09375 0)"/>
     <use xlink:href="#DejaVuSans-4c" transform="translate(752.875 0)"/>
     <use xlink:href="#DejaVuSans-20" transform="translate(780.65625 0)"/>
     <use xlink:href="#DejaVuSans-18" transform="translate(864.453125 0)"/>
     <use xlink:href="#DejaVuSans-18" transform="translate(928.078125 0)"/>
     <use xlink:href="#DejaVuSans-11" transform="translate(991.703125 0)"/>
     <use xlink:href="#DejaVuSans-18" transform="translate(1023.484375 0)"/>
     <use xlink:href="#DejaVuSans-72" transform="translate(1087.109375 0)"/>
     <use xlink:href="#DejaVuSans-c" transform="translate(1137.109375 0)"/>
     <use xlink:href="#DejaVuSans-1d" transform="translate(1176.125 0)"/>
     <use xlink:href="#DejaVuSans-3" transform="translate(1209.8125 0)"/>
     <use xlink:href="#DejaVuSans-46" transform="translate(1241.59375 0)"/>
     <use xlink:href="#DejaVuSans-44" transform="translate(1296.578125 0)"/>
     <use xlink:href="#DejaVuSans-47" transform="translate(1357.859375 0)"/>
     <use xlink:href="#DejaVuSans-44" transform="translate(1421.34375 0)"/>
     <use xlink:href="#DejaVuSans-3" transform="translate(1482.625 0)"/>
     <use xlink:href="#DejaVuSans-57" transform="translate(1514.40625 0)"/>
     <use xlink:href="#DejaVuSans-ab" transform="translate(1553.609375 0)"/>
     <use xlink:href="#DejaVuSans-55" transform="translate(1615.140625 0)"/>
     <use xlink:href="#DejaVuSans-50" transform="translate(1654.5 0)"/>
     <use xlink:href="#DejaVuSans-4c" transform="translate(1751.90625 0)"/>
     <use xlink:href="#DejaVuSans-51" transform="translate(1779.6875 0)"/>
     <use xlink:href="#DejaVuSans-52" transform="translate(1843.0625 0)"/>
     <use xlink:href="#DejaVuSans-3" transform="translate(1904.25 0)"/>
     <use xlink:href="#DejaVuSans-57" transform="translate(1936.03125 0)"/>
     <use xlink:href="#DejaVuSans-4c" transform="translate(1975.234375 0)"/>
     <use xlink:href="#DejaVuSans-48" transform="translate(2003.015625 0)"/>
     <use xlink:href="#DejaVuSans-51" transform="translate(2064.546875 0)"/>
     <use xlink:href="#DejaVuSans-48" transform="translate(2127.921875 0)"/>
     <use xlink:href="#DejaVuSans-3" transform="translate(2189.453125 0)"/>
     <use xlink:href="#DejaVuSans-56" transform="translate(2221.234375 0)"/>
     <use xlink:href="#DejaVuSans-58" transform="translate(2273.328125 0)"/>
     <use xlink:href="#DejaVuSans-3" transform="translate(2336.703125 0)"/>
     <use xlink:href="#DejaVuSans-13af" transform="translate(2368.484375 0)"/>
     <use xlink:href="#DejaVuSans-55" transform="translate(2431.46875 0)"/>
     <use xlink:href="#DejaVuSans-50" transform="translate(2470.828125 0)"/>
     <use xlink:href="#DejaVuSans-44" transform="translate(2568.234375 0)"/>
     <use xlink:href="#DejaVuSans-3" transform="translate(2629.515625 0)"/>
     <use xlink:href="#DejaVuSans-57" transform="translate(2661.296875 0)"/>
     <use xlink:href="#DejaVuSans-48" transform="translate(2700.5 0)"/>
     <use xlink:href="#DejaVuSans-50" transform="translate(2762.03125 0)"/>
     <use xlink:href="#DejaVuSans-53" transform="translate(2859.4375 0)"/>
     <use xlink:href="#DejaVuSans-52" transform="translate(2922.921875 0)"/>
     <use xlink:href="#DejaVuSans-55" transform="translate(2984.109375 0)"/>
     <use xlink:href="#DejaVuSans-44" transform="translate(3025.21875 0)"/>
     <use xlink:href="#DejaVuSans-4f" transform="translate(3086.5 0)"/>
    </g>
   </g>
   <g id="legend_1">
    <g id="patch_7">
     <path d="M 262.239297 98.808828 
L 426.523047 98.808828 
Q 428.123047 98.808828 428.123047 97.208828 
L 428.123047 49.046328 
Q 428.123047 47.446328 426.523047 47.446328 
L 262.239297 47.446328 
Q 260.639297 47.446328 260.639297 49.046328 
L 260.639297 97.208828 
Q 260.639297 98.808828 262.239297 98.808828 
z
" style="fill: #ffffff; opacity: 0.8; stroke: #cccccc; stroke-linejoin: miter"/>
    </g>
    <g id="line2d_28">
     <path d="M 263.839297 54.245078 
L 271.839297 54.245078 
L 279.839297 54.245078 
" style="fill: none; stroke: #d62728; stroke-width: 1.8; stroke-linecap: square"/>
    </g>
    <g id="text_16">
     <!-- corrección Δn (movimiento medio) -->
     <g transform="translate(286.239297 57.045078) scale(0.08 -0.08)">
      <defs>
       <path id="DejaVuSans-329" d="M 2188 4044 
L 906 525 
L 3472 525 
L 2188 4044 
z
M 50 0 
L 1831 4666 
L 2547 4666 
L 4325 0 
L 50 0 
z
" transform="scale(0.015625)"/>
      </defs>
      <use xlink:href="#DejaVuSans-46"/>
      <use xlink:href="#DejaVuSans-52" transform="translate(54.984375 0)"/>
      <use xlink:href="#DejaVuSans-55" transform="translate(116.171875 0)"/>
      <use xlink:href="#DejaVuSans-55" transform="translate(155.53125 0)"/>
      <use xlink:href="#DejaVuSans-48" transform="translate(194.4375 0)"/>
      <use xlink:href="#DejaVuSans-46" transform="translate(255.96875 0)"/>
      <use xlink:href="#DejaVuSans-46" transform="translate(310.953125 0)"/>
      <use xlink:href="#DejaVuSans-4c" transform="translate(365.9375 0)"/>
      <use xlink:href="#DejaVuSans-b5" transform="translate(393.71875 0)"/>
      <use xlink:href="#DejaVuSans-51" transform="translate(454.90625 0)"/>
      <use xlink:href="#DejaVuSans-3" transform="translate(518.28125 0)"/>
      <use xlink:href="#DejaVuSans-329" transform="translate(550.0625 0)"/>
      <use xlink:href="#DejaVuSans-51" transform="translate(618.46875 0)"/>
      <use xlink:href="#DejaVuSans-3" transform="translate(681.84375 0)"/>
      <use xlink:href="#DejaVuSans-b" transform="translate(713.625 0)"/>
      <use xlink:href="#DejaVuSans-50" transform="translate(752.640625 0)"/>
      <use xlink:href="#DejaVuSans-52" transform="translate(850.046875 0)"/>
      <use xlink:href="#DejaVuSans-59" transform="translate(911.234375 0)"/>
      <use xlink:href="#DejaVuSans-4c" transform="translate(970.421875 0)"/>
      <use xlink:href="#DejaVuSans-50" transform="translate(998.203125 0)"/>
      <use xlink:href="#DejaVuSans-4c" transform="translate(1095.609375 0)"/>
      <use xlink:href="#DejaVuSans-48" transform="translate(1123.390625 0)"/>
      <use xlink:href="#DejaVuSans-51" transform="translate(1184.921875 0)"/>
      <use xlink:href="#DejaVuSans-57" transform="translate(1248.296875 0)"/>
      <use xlink:href="#DejaVuSans-52" transform="translate(1287.5 0)"/>
      <use xlink:href="#DejaVuSans-3" transform="translate(1348.6875 0)"/>
      <use xlink:href="#DejaVuSans-50" transform="translate(1380.46875 0)"/>
      <use xlink:href="#DejaVuSans-48" transform="translate(1477.875 0)"/>
      <use xlink:href="#DejaVuSans-47" transform="translate(1539.40625 0)"/>
      <use xlink:href="#DejaVuSans-4c" transform="translate(1602.890625 0)"/>
      <use xlink:href="#DejaVuSans-52" transform="translate(1630.671875 0)"/>
      <use xlink:href="#DejaVuSans-c" transform="translate(1691.859375 0)"/>
     </g>
    </g>
    <g id="line2d_29">
     <path d="M 263.839297 66.565703 
L 271.839297 66.565703 
L 279.839297 66.565703 
" style="fill: none; stroke: #1f77b4; stroke-width: 1.8; stroke-linecap: square"/>
    </g>
    <g id="text_17">
     <!-- armónicos Cxx (J2 y período corto) -->
     <g transform="translate(286.239297 69.365703) scale(0.08 -0.08)">
      <defs>
       <path id="DejaVuSans-5b" d="M 3513 3500 
L 2247 1797 
L 3578 0 
L 2900 0 
L 1881 1375 
L 863 0 
L 184 0 
L 1544 1831 
L 300 3500 
L 978 3500 
L 1906 2253 
L 2834 3500 
L 3513 3500 
z
" transform="scale(0.015625)"/>
       <path id="DejaVuSans-2d" d="M 628 4666 
L 1259 4666 
L 1259 325 
Q 1259 -519 939 -900 
Q 619 -1281 -91 -1281 
L -331 -1281 
L -331 -750 
L -134 -750 
Q 284 -750 456 -515 
Q 628 -281 628 325 
L 628 4666 
z
" transform="scale(0.015625)"/>
       <path id="DejaVuSans-5c" d="M 2059 -325 
Q 1816 -950 1584 -1140 
Q 1353 -1331 966 -1331 
L 506 -1331 
L 506 -850 
L 844 -850 
Q 1081 -850 1212 -737 
Q 1344 -625 1503 -206 
L 1606 56 
L 191 3500 
L 800 3500 
L 1894 763 
L 2988 3500 
L 3597 3500 
L 2059 -325 
z
" transform="scale(0.015625)"/>
       <path id="DejaVuSans-af" d="M 1325 5119 
L 1947 5119 
L 929 3944 
L 450 3944 
L 1325 5119 
z
M 603 3500 
L 1178 3500 
L 1178 0 
L 603 0 
L 603 3500 
z
M 891 3584 
L 891 3584 
z
" transform="scale(0.015625)"/>
      </defs>
      <use xlink:href="#DejaVuSans-44"/>
      <use xlink:href="#DejaVuSans-55" transform="translate(61.28125 0)"/>
      <use xlink:href="#DejaVuSans-50" transform="translate(100.640625 0)"/>
      <use xlink:href="#DejaVuSans-b5" transform="translate(198.046875 0)"/>
      <use xlink:href="#DejaVuSans-51" transform="translate(259.234375 0)"/>
      <use xlink:href="#DejaVuSans-4c" transform="translate(322.609375 0)"/>
      <use xlink:href="#DejaVuSans-46" transform="translate(350.390625 0)"/>
      <use xlink:href="#DejaVuSans-52" transform="translate(405.375 0)"/>
      <use xlink:href="#DejaVuSans-56" transform="translate(466.5625 0)"/>
      <use xlink:href="#DejaVuSans-3" transform="translate(518.65625 0)"/>
      <use xlink:href="#DejaVuSans-26" transform="translate(550.4375 0)"/>
      <use xlink:href="#DejaVuSans-5b" transform="translate(620.265625 0)"/>
      <use xlink:href="#DejaVuSans-5b" transform="translate(679.453125 0)"/>
      <use xlink:href="#DejaVuSans-3" transform="translate(738.640625 0)"/>
      <use xlink:href="#DejaVuSans-b" transform="translate(770.421875 0)"/>
      <use xlink:href="#DejaVuSans-2d" transform="translate(809.4375 0)"/>
      <use xlink:href="#DejaVuSans-15" transform="translate(838.9375 0)"/>
      <use xlink:href="#DejaVuSans-3" transform="translate(902.5625 0)"/>
      <use xlink:href="#DejaVuSans-5c" transform="translate(934.34375 0)"/>
      <use xlink:href="#DejaVuSans-3" transform="translate(993.53125 0)"/>
      <use xlink:href="#DejaVuSans-53" transform="translate(1025.3125 0)"/>
      <use xlink:href="#DejaVuSans-48" transform="translate(1088.796875 0)"/>
      <use xlink:href="#DejaVuSans-55" transform="translate(1150.328125 0)"/>
      <use xlink:href="#DejaVuSans-af" transform="translate(1191.4375 0)"/>
      <use xlink:href="#DejaVuSans-52" transform="translate(1219.21875 0)"/>
      <use xlink:href="#DejaVuSans-47" transform="translate(1280.40625 0)"/>
      <use xlink:href="#DejaVuSans-52" transform="translate(1343.890625 0)"/>
      <use xlink:href="#DejaVuSans-3" transform="translate(1405.078125 0)"/>
      <use xlink:href="#DejaVuSans-46" transform="translate(1436.859375 0)"/>
      <use xlink:href="#DejaVuSans-52" transform="translate(1491.84375 0)"/>
      <use xlink:href="#DejaVuSans-55" transform="translate(1553.03125 0)"/>
      <use xlink:href="#DejaVuSans-57" transform="translate(1594.140625 0)"/>
      <use xlink:href="#DejaVuSans-52" transform="translate(1633.34375 0)"/>
      <use xlink:href="#DejaVuSans-c" transform="translate(1694.53125 0)"/>
     </g>
    </g>
    <g id="line2d_30">
     <path d="M 263.839297 78.886328 
L 271.839297 78.886328 
L 279.839297 78.886328 
" style="fill: none; stroke: #2ca02c; stroke-width: 1.8; stroke-linecap: square"/>
    </g>
    <g id="text_18">
     <!-- deriva de inclinación (luni-solar) -->
     <g transform="translate(286.239297 81.686328) scale(0.08 -0.08)">
      <defs>
       <path id="DejaVuSans-10" d="M 313 2009 
L 1997 2009 
L 1997 1497 
L 313 1497 
L 313 2009 
z
" transform="scale(0.015625)"/>
      </defs>
      <use xlink:href="#DejaVuSans-47"/>
      <use xlink:href="#DejaVuSans-48" transform="translate(63.484375 0)"/>
      <use xlink:href="#DejaVuSans-55" transform="translate(125.015625 0)"/>
      <use xlink:href="#DejaVuSans-4c" transform="translate(166.125 0)"/>
      <use xlink:href="#DejaVuSans-59" transform="translate(193.90625 0)"/>
      <use xlink:href="#DejaVuSans-44" transform="translate(253.09375 0)"/>
      <use xlink:href="#DejaVuSans-3" transform="translate(314.375 0)"/>
      <use xlink:href="#DejaVuSans-47" transform="translate(346.15625 0)"/>
      <use xlink:href="#DejaVuSans-48" transform="translate(409.640625 0)"/>
      <use xlink:href="#DejaVuSans-3" transform="translate(471.171875 0)"/>
      <use xlink:href="#DejaVuSans-4c" transform="translate(502.953125 0)"/>
      <use xlink:href="#DejaVuSans-51" transform="translate(530.734375 0)"/>
      <use xlink:href="#DejaVuSans-46" transform="translate(594.109375 0)"/>
      <use xlink:href="#DejaVuSans-4f" transform="translate(649.09375 0)"/>
      <use xlink:href="#DejaVuSans-4c" transform="translate(676.875 0)"/>
      <use xlink:href="#DejaVuSans-51" transform="translate(704.65625 0)"/>
      <use xlink:href="#DejaVuSans-44" transform="translate(768.03125 0)"/>
      <use xlink:href="#DejaVuSans-46" transform="translate(829.3125 0)"/>
      <use xlink:href="#DejaVuSans-4c" transform="translate(884.296875 0)"/>
      <use xlink:href="#DejaVuSans-b5" transform="translate(912.078125 0)"/>
      <use xlink:href="#DejaVuSans-51" transform="translate(973.265625 0)"/>
      <use xlink:href="#DejaVuSans-3" transform="translate(1036.640625 0)"/>
      <use xlink:href="#DejaVuSans-b" transform="translate(1068.421875 0)"/>
      <use xlink:href="#DejaVuSans-4f" transform="translate(1107.4375 0)"/>
      <use xlink:href="#DejaVuSans-58" transform="translate(1135.21875 0)"/>
      <use xlink:href="#DejaVuSans-51" transform="translate(1198.59375 0)"/>
      <use xlink:href="#DejaVuSans-4c" transform="translate(1261.96875 0)"/>
      <use xlink:href="#DejaVuSans-10" transform="translate(1289.75 0)"/>
      <use xlink:href="#DejaVuSans-56" transform="translate(1325.828125 0)"/>
      <use xlink:href="#DejaVuSans-52" transform="translate(1377.921875 0)"/>
      <use xlink:href="#DejaVuSans-4f" transform="translate(1439.109375 0)"/>
      <use xlink:href="#DejaVuSans-44" transform="translate(1466.890625 0)"/>
      <use xlink:href="#DejaVuSans-55" transform="translate(1528.171875 0)"/>
      <use xlink:href="#DejaVuSans-c" transform="translate(1569.28125 0)"/>
     </g>
    </g>
    <g id="line2d_31">
     <path d="M 263.839297 90.886953 
L 271.839297 90.886953 
L 279.839297 90.886953 
" style="fill: none; stroke-dasharray: 6.66,2.88; stroke-dashoffset: 0; stroke: #000000; stroke-width: 1.8"/>
    </g>
    <g id="text_19">
     <!-- elipse pura (todo apagado) -->
     <g transform="translate(286.239297 93.686953) scale(0.08 -0.08)">
      <use xlink:href="#DejaVuSans-48"/>
      <use xlink:href="#DejaVuSans-4f" transform="translate(61.53125 0)"/>
      <use xlink:href="#DejaVuSans-4c" transform="translate(89.3125 0)"/>
      <use xlink:href="#DejaVuSans-53" transform="translate(117.09375 0)"/>
      <use xlink:href="#DejaVuSans-56" transform="translate(180.578125 0)"/>
      <use xlink:href="#DejaVuSans-48" transform="translate(232.671875 0)"/>
      <use xlink:href="#DejaVuSans-3" transform="translate(294.203125 0)"/>
      <use xlink:href="#DejaVuSans-53" transform="translate(325.984375 0)"/>
      <use xlink:href="#DejaVuSans-58" transform="translate(389.46875 0)"/>
      <use xlink:href="#DejaVuSans-55" transform="translate(452.84375 0)"/>
      <use xlink:href="#DejaVuSans-44" transform="translate(493.953125 0)"/>
      <use xlink:href="#DejaVuSans-3" transform="translate(555.234375 0)"/>
      <use xlink:href="#DejaVuSans-b" transform="translate(587.015625 0)"/>
      <use xlink:href="#DejaVuSans-57" transform="translate(626.03125 0)"/>
      <use xlink:href="#DejaVuSans-52" transform="translate(665.234375 0)"/>
      <use xlink:href="#DejaVuSans-47" transform="translate(726.421875 0)"/>
      <use xlink:href="#DejaVuSans-52" transform="translate(789.90625 0)"/>
      <use xlink:href="#DejaVuSans-3" transform="translate(851.09375 0)"/>
      <use xlink:href="#DejaVuSans-44" transform="translate(882.875 0)"/>
      <use xlink:href="#DejaVuSans-53" transform="translate(944.15625 0)"/>
      <use xlink:href="#DejaVuSans-44" transform="translate(1007.640625 0)"/>
      <use xlink:href="#DejaVuSans-4a" transform="translate(1068.921875 0)"/>
      <use xlink:href="#DejaVuSans-44" transform="translate(1132.40625 0)"/>
      <use xlink:href="#DejaVuSans-47" transform="translate(1193.6875 0)"/>
      <use xlink:href="#DejaVuSans-52" transform="translate(1257.171875 0)"/>
      <use xlink:href="#DejaVuSans-c" transform="translate(1318.359375 0)"/>
     </g>
    </g>
   </g>
  </g>
 </g>
 <defs>
  <clipPath id="p2b7ea150e2">
   <rect x="51.562344" y="43.446328" width="585.637656" height="274.431328"/>
  </clipPath>
 </defs>
</svg>
