<?xml version="1.0" encoding="utf-8" standalone="no"?>
<!DOCTYPE svg PUBLIC "-//W3C//DTD SVG 1.1//EN"
  "http://www.w3.org/Graphics/SVG/1.1/DTD/svg11.dtd">
<svg xmlns:xlink="http://www.w3.org/1999/xlink" width="792pt" height="309.6pt" viewBox="0 0 792 309.6" xmlns="http://www.w3.org/2000/svg" version="1.1">
 <metadata>
  <rdf:RDF xmlns:dc="http://purl.org/dc/elements/1.1/" xmlns:cc="http://creativecommons.org/ns#" xmlns:rdf="http://www.w3.org/1999/02/22-rdf-syntax-ns#">
   <cc:Work>
    <dc:type rdf:resource="http://purl.org/dc/dcmitype/StillImage"/>
    <dc:date>2026-07-06T01:59:35.712122</dc:date>
    <dc:format>image/svg+xml</dc:format>
    <dc:creator>
     <cc:Agent>
      <dc:title>Matplotlib v3.11.0, https://matplotlib.org/</dc:title>
     </cc:Agent>
    </dc:creator>
   </cc:Work>
  </rdf:RDF>
 </metadata>
 <defs>
  <style type="text/css">*{stroke-linejoin: round; stroke-linecap: butt}</style>
 </defs>
 <g id="figure_1">
  <g id="patch_1">
   <path d="M 0 309.6 
L 792 309.6 
L 792 0 
L 0 0 
z
" style="fill: #ffffff"/>
  </g>
  <g id="axes_1">
   <g id="patch_2">
    <path d="M 51.562344 271.793125 
L 456.679531 271.793125 
L 456.679531 43.446328 
L 51.562344 43.446328 
z
" style="fill: #ffffff"/>
   </g>
   <g id="patch_3">
    <path d="M 69.976761 271.793125 
L 107.197393 271.793125 
L 107.197393 54.319985 
L 69.976761 54.319985 
z
" clip-path="url(#pc83ba26e91)" style="fill: #1f77b4"/>
   </g>
   <g id="patch_4">
    <path d="M 167.925791 271.793125 
L 205.146423 271.793125 
L 205.146423 95.57225 
L 167.925791 95.57225 
z
" clip-path="url(#pc83ba26e91)" style="fill: #1f77b4"/>
   </g>
   <g id="patch_5">
    <path d="M 265.874821 271.793125 
L 303.095452 271.793125 
L 303.095452 242.909088 
L 265.874821 242.909088 
z
" clip-path="url(#pc83ba26e91)" style="fill: #1f77b4"/>
   </g>
   <g id="patch_6">
    <path d="M 363.823851 271.793125 
L 401.044482 271.793125 
L 401.044482 176.6184 
L 363.823851 176.6184 
z
" clip-path="url(#pc83ba26e91)" style="fill: #1f77b4"/>
   </g>
   <g id="patch_7">
    <path d="M 107.197393 271.793125 
L 144.418024 271.793125 
L 144.418024 271.793125 
L 107.197393 271.793125 
z
" clip-path="url(#pc83ba26e91)" style="fill: #ff7f0e"/>
   </g>
   <g id="patch_8">
    <path d="M 205.146423 271.793125 
L 242.367054 271.793125 
L 242.367054 189.071039 
L 205.146423 189.071039 
z
" clip-path="url(#pc83ba26e91)" style="fill: #ff7f0e"/>
   </g>
   <g id="patch_9">
    <path d="M 303.095452 271.793125 
L 340.316084 271.793125 
L 340.316084 271.793125 
L 303.095452 271.793125 
z
" clip-path="url(#pc83ba26e91)" style="fill: #ff7f0e"/>
   </g>
   <g id="patch_10">
    <path d="M 401.044482 271.793125 
L 438.265114 271.793125 
L 438.265114 189.071039 
L 401.044482 189.071039 
z
" clip-path="url(#pc83ba26e91)" style="fill: #ff7f0e"/>
   </g>
   <g id="matplotlib.axis_1">
    <g id="xtick_1">
     <g id="line2d_1">
      <defs>
       <path id="m4010c788e9" d="M 0 0 
L 0 3.5 
" style="stroke: #000000; stroke-width: 0.8"/>
      </defs>
      <g>
       <use xlink:href="#m4010c788e9" x="107.197393" y="271.793125" style="stroke: #000000; stroke-width: 0.8"/>
      </g>
     </g>
     <g id="text_1">
      <!-- Δn -->
      <g transform="translate(101.926143 285.672031) scale(0.08 -0.08)">
       <defs>
        <path id="DejaVuSans-329" d="M 2188 4044 
L 906 525 
L 3472 525 
L 2188 4044 
z
M 50 0 
L 1831 4666 
L 2547 4666 
L 4325 0 
L 50 0 
z
" transform="scale(0.015625)"/>
        <path id="DejaVuSans-51" d="M 3513 2113 
L 3513 0 
L 2938 0 
L 2938 2094 
Q 2938 2591 2744 2837 
Q 2550 3084 2163 3084 
Q 1697 3084 1428 2787 
Q 1159 2491 1159 1978 
L 1159 0 
L 581 0 
L 581 3500 
L 1159 3500 
L 1159 2956 
Q 1366 3272 1645 3428 
Q 1925 3584 2291 3584 
Q 2894 3584 3203 3211 
Q 3513 2838 3513 2113 
z
" transform="scale(0.015625)"/>
       </defs>
       <use xlink:href="#DejaVuSans-329"/>
       <use xlink:href="#DejaVuSans-51" transform="translate(68.40625 0)"/>
      </g>
      <!-- (mov. medio) -->
      <g transform="translate(80.677393 295.274219) scale(0.08 -0.08)">
       <defs>
        <path id="DejaVuSans-b" d="M 1984 4856 
Q 1566 4138 1362 3434 
Q 1159 2731 1159 2009 
Q 1159 1288 1364 580 
Q 1569 -128 1984 -844 
L 1484 -844 
Q 1016 -109 783 600 
Q 550 1309 550 2009 
Q 550 2706 781 3412 
Q 1013 4119 1484 4856 
L 1984 4856 
z
" transform="scale(0.015625)"/>
        <path id="DejaVuSans-50" d="M 3328 2828 
Q 3544 3216 3844 3400 
Q 4144 3584 4550 3584 
Q 5097 3584 5394 3201 
Q 5691 2819 5691 2113 
L 5691 0 
L 5113 0 
L 5113 2094 
Q 5113 2597 4934 2840 
Q 4756 3084 4391 3084 
Q 3944 3084 3684 2787 
Q 3425 2491 3425 1978 
L 3425 0 
L 2847 0 
L 2847 2094 
Q 2847 2600 2669 2842 
Q 2491 3084 2119 3084 
Q 1678 3084 1418 2786 
Q 1159 2488 1159 1978 
L 1159 0 
L 581 0 
L 581 3500 
L 1159 3500 
L 1159 2956 
Q 1356 3278 1631 3431 
Q 1906 3584 2284 3584 
Q 2666 3584 2933 3390 
Q 3200 3197 3328 2828 
z
" transform="scale(0.015625)"/>
        <path id="DejaVuSans-52" d="M 1959 3097 
Q 1497 3097 1228 2736 
Q 959 2375 959 1747 
Q 959 1119 1226 758 
Q 1494 397 1959 397 
Q 2419 397 2687 759 
Q 2956 1122 2956 1747 
Q 2956 2369 2687 2733 
Q 2419 3097 1959 3097 
z
M 1959 3584 
Q 2709 3584 3137 3096 
Q 3566 2609 3566 1747 
Q 3566 888 3137 398 
Q 2709 -91 1959 -91 
Q 1206 -91 779 398 
Q 353 888 353 1747 
Q 353 2609 779 3096 
Q 1206 3584 1959 3584 
z
" transform="scale(0.015625)"/>
        <path id="DejaVuSans-59" d="M 191 3500 
L 800 3500 
L 1894 563 
L 2988 3500 
L 3597 3500 
L 2284 0 
L 1503 0 
L 191 3500 
z
" transform="scale(0.015625)"/>
        <path id="DejaVuSans-11" d="M 684 794 
L 1344 794 
L 1344 0 
L 684 0 
L 684 794 
z
" transform="scale(0.015625)"/>
        <path id="DejaVuSans-3" transform="scale(0.015625)"/>
        <path id="DejaVuSans-48" d="M 3597 1894 
L 3597 1613 
L 953 1613 
Q 991 1019 1311 708 
Q 1631 397 2203 397 
Q 2534 397 2845 478 
Q 3156 559 3463 722 
L 3463 178 
Q 3153 47 2828 -22 
Q 2503 -91 2169 -91 
Q 1331 -91 842 396 
Q 353 884 353 1716 
Q 353 2575 817 3079 
Q 1281 3584 2069 3584 
Q 2775 3584 3186 3129 
Q 3597 2675 3597 1894 
z
M 3022 2063 
Q 3016 2534 2758 2815 
Q 2500 3097 2075 3097 
Q 1594 3097 1305 2825 
Q 1016 2553 972 2059 
L 3022 2063 
z
" transform="scale(0.015625)"/>
        <path id="DejaVuSans-47" d="M 2906 2969 
L 2906 4863 
L 3481 4863 
L 3481 0 
L 2906 0 
L 2906 525 
Q 2725 213 2448 61 
Q 2172 -91 1784 -91 
Q 1150 -91 751 415 
Q 353 922 353 1747 
Q 353 2572 751 3078 
Q 1150 3584 1784 3584 
Q 2172 3584 2448 3432 
Q 2725 3281 2906 2969 
z
M 947 1747 
Q 947 1113 1208 752 
Q 1469 391 1925 391 
Q 2381 391 2643 752 
Q 2906 1113 2906 1747 
Q 2906 2381 2643 2742 
Q 2381 3103 1925 3103 
Q 1469 3103 1208 2742 
Q 947 2381 947 1747 
z
" transform="scale(0.015625)"/>
        <path id="DejaVuSans-4c" d="M 603 3500 
L 1178 3500 
L 1178 0 
L 603 0 
L 603 3500 
z
M 603 4863 
L 1178 4863 
L 1178 4134 
L 603 4134 
L 603 4863 
z
" transform="scale(0.015625)"/>
        <path id="DejaVuSans-c" d="M 513 4856 
L 1013 4856 
Q 1481 4119 1714 3412 
Q 1947 2706 1947 2009 
Q 1947 1309 1714 600 
Q 1481 -109 1013 -844 
L 513 -844 
Q 928 -128 1133 580 
Q 1338 1288 1338 2009 
Q 1338 2731 1133 3434 
Q 928 4138 513 4856 
z
" transform="scale(0.015625)"/>
       </defs>
       <use xlink:href="#DejaVuSans-b"/>
       <use xlink:href="#DejaVuSans-50" transform="translate(39.015625 0)"/>
       <use xlink:href="#DejaVuSans-52" transform="translate(136.421875 0)"/>
       <use xlink:href="#DejaVuSans-59" transform="translate(197.609375 0)"/>
       <use xlink:href="#DejaVuSans-11" transform="translate(249.03125 0)"/>
       <use xlink:href="#DejaVuSans-3" transform="translate(280.8125 0)"/>
       <use xlink:href="#DejaVuSans-50" transform="translate(312.59375 0)"/>
       <use xlink:href="#DejaVuSans-48" transform="translate(410 0)"/>
       <use xlink:href="#DejaVuSans-47" transform="translate(471.53125 0)"/>
       <use xlink:href="#DejaVuSans-4c" transform="translate(535.015625 0)"/>
       <use xlink:href="#DejaVuSans-52" transform="translate(562.796875 0)"/>
       <use xlink:href="#DejaVuSans-c" transform="translate(623.984375 0)"/>
      </g>
     </g>
    </g>
    <g id="xtick_2">
     <g id="line2d_2">
      <g>
       <use xlink:href="#m4010c788e9" x="205.146423" y="271.793125" style="stroke: #000000; stroke-width: 0.8"/>
      </g>
     </g>
     <g id="text_2">
      <!-- armónicos -->
      <g transform="translate(184.400173 285.992656) scale(0.08 -0.08)">
       <defs>
        <path id="DejaVuSans-44" d="M 2194 1759 
Q 1497 1759 1228 1600 
Q 959 1441 959 1056 
Q 959 750 1161 570 
Q 1363 391 1709 391 
Q 2188 391 2477 730 
Q 2766 1069 2766 1631 
L 2766 1759 
L 2194 1759 
z
M 3341 1997 
L 3341 0 
L 2766 0 
L 2766 531 
Q 2569 213 2275 61 
Q 1981 -91 1556 -91 
Q 1019 -91 701 211 
Q 384 513 384 1019 
Q 384 1609 779 1909 
Q 1175 2209 1959 2209 
L 2766 2209 
L 2766 2266 
Q 2766 2663 2505 2880 
Q 2244 3097 1772 3097 
Q 1472 3097 1187 3025 
Q 903 2953 641 2809 
L 641 3341 
Q 956 3463 1253 3523 
Q 1550 3584 1831 3584 
Q 2591 3584 2966 3190 
Q 3341 2797 3341 1997 
z
" transform="scale(0.015625)"/>
        <path id="DejaVuSans-55" d="M 2631 2963 
Q 2534 3019 2420 3045 
Q 2306 3072 2169 3072 
Q 1681 3072 1420 2755 
Q 1159 2438 1159 1844 
L 1159 0 
L 581 0 
L 581 3500 
L 1159 3500 
L 1159 2956 
Q 1341 3275 1631 3429 
Q 1922 3584 2338 3584 
Q 2397 3584 2469 3576 
Q 2541 3569 2628 3553 
L 2631 2963 
z
" transform="scale(0.015625)"/>
        <path id="DejaVuSans-b5" d="M 1959 3097 
Q 1497 3097 1228 2736 
Q 959 2375 959 1747 
Q 959 1119 1226 758 
Q 1494 397 1959 397 
Q 2419 397 2687 759 
Q 2956 1122 2956 1747 
Q 2956 2369 2687 2733 
Q 2419 3097 1959 3097 
z
M 1959 3584 
Q 2709 3584 3137 3096 
Q 3566 2609 3566 1747 
Q 3566 888 3137 398 
Q 2709 -91 1959 -91 
Q 1206 -91 779 398 
Q 353 888 353 1747 
Q 353 2609 779 3096 
Q 1206 3584 1959 3584 
z
M 2393 5119 
L 3015 5119 
L 1997 3944 
L 1518 3944 
L 2393 5119 
z
" transform="scale(0.015625)"/>
        <path id="DejaVuSans-46" d="M 3122 3366 
L 3122 2828 
Q 2878 2963 2633 3030 
Q 2388 3097 2138 3097 
Q 1578 3097 1268 2742 
Q 959 2388 959 1747 
Q 959 1106 1268 751 
Q 1578 397 2138 397 
Q 2388 397 2633 464 
Q 2878 531 3122 666 
L 3122 134 
Q 2881 22 2623 -34 
Q 2366 -91 2075 -91 
Q 1284 -91 818 406 
Q 353 903 353 1747 
Q 353 2603 823 3093 
Q 1294 3584 2113 3584 
Q 2378 3584 2631 3529 
Q 2884 3475 3122 3366 
z
" transform="scale(0.015625)"/>
        <path id="DejaVuSans-56" d="M 2834 3397 
L 2834 2853 
Q 2591 2978 2328 3040 
Q 2066 3103 1784 3103 
Q 1356 3103 1142 2972 
Q 928 2841 928 2578 
Q 928 2378 1081 2264 
Q 1234 2150 1697 2047 
L 1894 2003 
Q 2506 1872 2764 1633 
Q 3022 1394 3022 966 
Q 3022 478 2636 193 
Q 2250 -91 1575 -91 
Q 1294 -91 989 -36 
Q 684 19 347 128 
L 347 722 
Q 666 556 975 473 
Q 1284 391 1588 391 
Q 1994 391 2212 530 
Q 2431 669 2431 922 
Q 2431 1156 2273 1281 
Q 2116 1406 1581 1522 
L 1381 1569 
Q 847 1681 609 1914 
Q 372 2147 372 2553 
Q 372 3047 722 3315 
Q 1072 3584 1716 3584 
Q 2034 3584 2315 3537 
Q 2597 3491 2834 3397 
z
" transform="scale(0.015625)"/>
       </defs>
       <use xlink:href="#DejaVuSans-44"/>
       <use xlink:href="#DejaVuSans-55" transform="translate(61.28125 0)"/>
       <use xlink:href="#DejaVuSans-50" transform="translate(100.640625 0)"/>
       <use xlink:href="#DejaVuSans-b5" transform="translate(198.046875 0)"/>
       <use xlink:href="#DejaVuSans-51" transform="translate(259.234375 0)"/>
       <use xlink:href="#DejaVuSans-4c" transform="translate(322.609375 0)"/>
       <use xlink:href="#DejaVuSans-46" transform="translate(350.390625 0)"/>
       <use xlink:href="#DejaVuSans-52" transform="translate(405.375 0)"/>
       <use xlink:href="#DejaVuSans-56" transform="translate(466.5625 0)"/>
      </g>
      <!-- (J2, Cxx) -->
      <g transform="translate(188.229548 295.594219) scale(0.08 -0.08)">
       <defs>
        <path id="DejaVuSans-2d" d="M 628 4666 
L 1259 4666 
L 1259 325 
Q 1259 -519 939 -900 
Q 619 -1281 -91 -1281 
L -331 -1281 
L -331 -750 
L -134 -750 
Q 284 -750 456 -515 
Q 628 -281 628 325 
L 628 4666 
z
" transform="scale(0.015625)"/>
        <path id="DejaVuSans-15" d="M 1228 531 
L 3431 531 
L 3431 0 
L 469 0 
L 469 531 
Q 828 903 1448 1529 
Q 2069 2156 2228 2338 
Q 2531 2678 2651 2914 
Q 2772 3150 2772 3378 
Q 2772 3750 2511 3984 
Q 2250 4219 1831 4219 
Q 1534 4219 1204 4116 
Q 875 4013 500 3803 
L 500 4441 
Q 881 4594 1212 4672 
Q 1544 4750 1819 4750 
Q 2544 4750 2975 4387 
Q 3406 4025 3406 3419 
Q 3406 3131 3298 2873 
Q 3191 2616 2906 2266 
Q 2828 2175 2409 1742 
Q 1991 1309 1228 531 
z
" transform="scale(0.015625)"/>
        <path id="DejaVuSans-f" d="M 750 794 
L 1409 794 
L 1409 256 
L 897 -744 
L 494 -744 
L 750 256 
L 750 794 
z
" transform="scale(0.015625)"/>
        <path id="DejaVuSans-26" d="M 4122 4306 
L 4122 3641 
Q 3803 3938 3442 4084 
Q 3081 4231 2675 4231 
Q 1875 4231 1450 3742 
Q 1025 3253 1025 2328 
Q 1025 1406 1450 917 
Q 1875 428 2675 428 
Q 3081 428 3442 575 
Q 3803 722 4122 1019 
L 4122 359 
Q 3791 134 3420 21 
Q 3050 -91 2638 -91 
Q 1578 -91 968 557 
Q 359 1206 359 2328 
Q 359 3453 968 4101 
Q 1578 4750 2638 4750 
Q 3056 4750 3426 4639 
Q 3797 4528 4122 4306 
z
" transform="scale(0.015625)"/>
        <path id="DejaVuSans-5b" d="M 3513 3500 
L 2247 1797 
L 3578 0 
L 2900 0 
L 1881 1375 
L 863 0 
L 184 0 
L 1544 1831 
L 300 3500 
L 978 3500 
L 1906 2253 
L 2834 3500 
L 3513 3500 
z
" transform="scale(0.015625)"/>
       </defs>
       <use xlink:href="#DejaVuSans-b"/>
       <use xlink:href="#DejaVuSans-2d" transform="translate(39.015625 0)"/>
       <use xlink:href="#DejaVuSans-15" transform="translate(68.515625 0)"/>
       <use xlink:href="#DejaVuSans-f" transform="translate(132.140625 0)"/>
       <use xlink:href="#DejaVuSans-3" transform="translate(163.921875 0)"/>
       <use xlink:href="#DejaVuSans-26" transform="translate(195.703125 0)"/>
       <use xlink:href="#DejaVuSans-5b" transform="translate(265.53125 0)"/>
       <use xlink:href="#DejaVuSans-5b" transform="translate(324.71875 0)"/>
       <use xlink:href="#DejaVuSans-c" transform="translate(383.90625 0)"/>
      </g>
     </g>
    </g>
    <g id="xtick_3">
     <g id="line2d_3">
      <g>
       <use xlink:href="#m4010c788e9" x="303.095452" y="271.793125" style="stroke: #000000; stroke-width: 0.8"/>
      </g>
     </g>
     <g id="text_3">
      <!-- IDOT -->
      <g transform="translate(293.243577 285.672031) scale(0.08 -0.08)">
       <defs>
        <path id="DejaVuSans-2c" d="M 628 4666 
L 1259 4666 
L 1259 0 
L 628 0 
L 628 4666 
z
" transform="scale(0.015625)"/>
        <path id="DejaVuSans-27" d="M 1259 4147 
L 1259 519 
L 2022 519 
Q 2988 519 3436 956 
Q 3884 1394 3884 2338 
Q 3884 3275 3436 3711 
Q 2988 4147 2022 4147 
L 1259 4147 
z
M 628 4666 
L 1925 4666 
Q 3281 4666 3915 4102 
Q 4550 3538 4550 2338 
Q 4550 1131 3912 565 
Q 3275 0 1925 0 
L 628 0 
L 628 4666 
z
" transform="scale(0.015625)"/>
        <path id="DejaVuSans-32" d="M 2522 4238 
Q 1834 4238 1429 3725 
Q 1025 3213 1025 2328 
Q 1025 1447 1429 934 
Q 1834 422 2522 422 
Q 3209 422 3611 934 
Q 4013 1447 4013 2328 
Q 4013 3213 3611 3725 
Q 3209 4238 2522 4238 
z
M 2522 4750 
Q 3503 4750 4090 4092 
Q 4678 3434 4678 2328 
Q 4678 1225 4090 567 
Q 3503 -91 2522 -91 
Q 1538 -91 948 565 
Q 359 1222 359 2328 
Q 359 3434 948 4092 
Q 1538 4750 2522 4750 
z
" transform="scale(0.015625)"/>
        <path id="DejaVuSans-37" d="M -19 4666 
L 3928 4666 
L 3928 4134 
L 2272 4134 
L 2272 0 
L 1638 0 
L 1638 4134 
L -19 4134 
L -19 4666 
z
" transform="scale(0.015625)"/>
       </defs>
       <use xlink:href="#DejaVuSans-2c"/>
       <use xlink:href="#DejaVuSans-27" transform="translate(29.5 0)"/>
       <use xlink:href="#DejaVuSans-32" transform="translate(106.5 0)"/>
       <use xlink:href="#DejaVuSans-37" transform="translate(185.21875 0)"/>
      </g>
      <!-- (luni-solar) -->
      <g transform="translate(281.500452 295.274219) scale(0.08 -0.08)">
       <defs>
        <path id="DejaVuSans-4f" d="M 603 4863 
L 1178 4863 
L 1178 0 
L 603 0 
L 603 4863 
z
" transform="scale(0.015625)"/>
        <path id="DejaVuSans-58" d="M 544 1381 
L 544 3500 
L 1119 3500 
L 1119 1403 
Q 1119 906 1312 657 
Q 1506 409 1894 409 
Q 2359 409 2629 706 
Q 2900 1003 2900 1516 
L 2900 3500 
L 3475 3500 
L 3475 0 
L 2900 0 
L 2900 538 
Q 2691 219 2414 64 
Q 2138 -91 1772 -91 
Q 1169 -91 856 284 
Q 544 659 544 1381 
z
M 1991 3584 
L 1991 3584 
z
" transform="scale(0.015625)"/>
        <path id="DejaVuSans-10" d="M 313 2009 
L 1997 2009 
L 1997 1497 
L 313 1497 
L 313 2009 
z
" transform="scale(0.015625)"/>
       </defs>
       <use xlink:href="#DejaVuSans-b"/>
       <use xlink:href="#DejaVuSans-4f" transform="translate(39.015625 0)"/>
       <use xlink:href="#DejaVuSans-58" transform="translate(66.796875 0)"/>
       <use xlink:href="#DejaVuSans-51" transform="translate(130.171875 0)"/>
       <use xlink:href="#DejaVuSans-4c" transform="translate(193.546875 0)"/>
       <use xlink:href="#DejaVuSans-10" transform="translate(221.328125 0)"/>
       <use xlink:href="#DejaVuSans-56" transform="translate(257.40625 0)"/>
       <use xlink:href="#DejaVuSans-52" transform="translate(309.5 0)"/>
       <use xlink:href="#DejaVuSans-4f" transform="translate(370.6875 0)"/>
       <use xlink:href="#DejaVuSans-44" transform="translate(398.46875 0)"/>
       <use xlink:href="#DejaVuSans-55" transform="translate(459.75 0)"/>
       <use xlink:href="#DejaVuSans-c" transform="translate(500.859375 0)"/>
      </g>
     </g>
    </g>
    <g id="xtick_4">
     <g id="line2d_4">
      <g>
       <use xlink:href="#m4010c788e9" x="401.044482" y="271.793125" style="stroke: #000000; stroke-width: 0.8"/>
      </g>
     </g>
     <g id="text_4">
      <!-- elipse pura -->
      <g transform="translate(378.835107 285.672656) scale(0.08 -0.08)">
       <defs>
        <path id="DejaVuSans-53" d="M 1159 525 
L 1159 -1331 
L 581 -1331 
L 581 3500 
L 1159 3500 
L 1159 2969 
Q 1341 3281 1617 3432 
Q 1894 3584 2278 3584 
Q 2916 3584 3314 3078 
Q 3713 2572 3713 1747 
Q 3713 922 3314 415 
Q 2916 -91 2278 -91 
Q 1894 -91 1617 61 
Q 1341 213 1159 525 
z
M 3116 1747 
Q 3116 2381 2855 2742 
Q 2594 3103 2138 3103 
Q 1681 3103 1420 2742 
Q 1159 2381 1159 1747 
Q 1159 1113 1420 752 
Q 1681 391 2138 391 
Q 2594 391 2855 752 
Q 3116 1113 3116 1747 
z
" transform="scale(0.015625)"/>
       </defs>
       <use xlink:href="#DejaVuSans-48"/>
       <use xlink:href="#DejaVuSans-4f" transform="translate(61.53125 0)"/>
       <use xlink:href="#DejaVuSans-4c" transform="translate(89.3125 0)"/>
       <use xlink:href="#DejaVuSans-53" transform="translate(117.09375 0)"/>
       <use xlink:href="#DejaVuSans-56" transform="translate(180.578125 0)"/>
       <use xlink:href="#DejaVuSans-48" transform="translate(232.671875 0)"/>
       <use xlink:href="#DejaVuSans-3" transform="translate(294.203125 0)"/>
       <use xlink:href="#DejaVuSans-53" transform="translate(325.984375 0)"/>
       <use xlink:href="#DejaVuSans-58" transform="translate(389.46875 0)"/>
       <use xlink:href="#DejaVuSans-55" transform="translate(452.84375 0)"/>
       <use xlink:href="#DejaVuSans-44" transform="translate(493.953125 0)"/>
      </g>
      <!-- (todo) -->
      <g transform="translate(388.920732 295.274844) scale(0.08 -0.08)">
       <defs>
        <path id="DejaVuSans-57" d="M 1172 4494 
L 1172 3500 
L 2356 3500 
L 2356 3053 
L 1172 3053 
L 1172 1153 
Q 1172 725 1289 603 
Q 1406 481 1766 481 
L 2356 481 
L 2356 0 
L 1766 0 
Q 1100 0 847 248 
Q 594 497 594 1153 
L 594 3053 
L 172 3053 
L 172 3500 
L 594 3500 
L 594 4494 
L 1172 4494 
z
" transform="scale(0.015625)"/>
       </defs>
       <use xlink:href="#DejaVuSans-b"/>
       <use xlink:href="#DejaVuSans-57" transform="translate(39.015625 0)"/>
       <use xlink:href="#DejaVuSans-52" transform="translate(78.21875 0)"/>
       <use xlink:href="#DejaVuSans-47" transform="translate(139.40625 0)"/>
       <use xlink:href="#DejaVuSans-52" transform="translate(202.890625 0)"/>
       <use xlink:href="#DejaVuSans-c" transform="translate(264.078125 0)"/>
      </g>
     </g>
    </g>
   </g>
   <g id="matplotlib.axis_2">
    <g id="ytick_1">
     <g id="line2d_5">
      <path d="M 51.562344 271.793125 
L 456.679531 271.793125 
" clip-path="url(#pc83ba26e91)" style="fill: none; stroke: #b0b0b0; stroke-opacity: 0.3; stroke-width: 0.8; stroke-linecap: square"/>
     </g>
     <g id="line2d_6">
      <defs>
       <path id="m3bc28da98e" d="M 0 0 
L -3.5 0 
" style="stroke: #000000; stroke-width: 0.8"/>
      </defs>
      <g>
       <use xlink:href="#m3bc28da98e" x="51.562344" y="271.793125" style="stroke: #000000; stroke-width: 0.8"/>
      </g>
     </g>
     <g id="text_5">
      <!-- 0 -->
      <g transform="translate(38.199844 275.591953) scale(0.1 -0.1)">
       <defs>
        <path id="DejaVuSans-13" d="M 2034 4250 
Q 1547 4250 1301 3770 
Q 1056 3291 1056 2328 
Q 1056 1369 1301 889 
Q 1547 409 2034 409 
Q 2525 409 2770 889 
Q 3016 1369 3016 2328 
Q 3016 3291 2770 3770 
Q 2525 4250 2034 4250 
z
M 2034 4750 
Q 2819 4750 3233 4129 
Q 3647 3509 3647 2328 
Q 3647 1150 3233 529 
Q 2819 -91 2034 -91 
Q 1250 -91 836 529 
Q 422 1150 422 2328 
Q 422 3509 836 4129 
Q 1250 4750 2034 4750 
z
" transform="scale(0.015625)"/>
       </defs>
       <use xlink:href="#DejaVuSans-13"/>
      </g>
     </g>
    </g>
    <g id="ytick_2">
     <g id="line2d_7">
      <path d="M 51.562344 231.962293 
L 456.679531 231.962293 
" clip-path="url(#pc83ba26e91)" style="fill: none; stroke: #b0b0b0; stroke-opacity: 0.3; stroke-width: 0.8; stroke-linecap: square"/>
     </g>
     <g id="line2d_8">
      <g>
       <use xlink:href="#m3bc28da98e" x="51.562344" y="231.962293" style="stroke: #000000; stroke-width: 0.8"/>
      </g>
     </g>
     <g id="text_6">
      <!-- 100 -->
      <g transform="translate(25.474844 235.761121) scale(0.1 -0.1)">
       <defs>
        <path id="DejaVuSans-14" d="M 794 531 
L 1825 531 
L 1825 4091 
L 703 3866 
L 703 4441 
L 1819 4666 
L 2450 4666 
L 2450 531 
L 3481 531 
L 3481 0 
L 794 0 
L 794 531 
z
" transform="scale(0.015625)"/>
       </defs>
       <use xlink:href="#DejaVuSans-14"/>
       <use xlink:href="#DejaVuSans-13" transform="translate(63.625 0)"/>
       <use xlink:href="#DejaVuSans-13" transform="translate(127.25 0)"/>
      </g>
     </g>
    </g>
    <g id="ytick_3">
     <g id="line2d_9">
      <path d="M 51.562344 192.13146 
L 456.679531 192.13146 
" clip-path="url(#pc83ba26e91)" style="fill: none; stroke: #b0b0b0; stroke-opacity: 0.3; stroke-width: 0.8; stroke-linecap: square"/>
     </g>
     <g id="line2d_10">
      <g>
       <use xlink:href="#m3bc28da98e" x="51.562344" y="192.13146" style="stroke: #000000; stroke-width: 0.8"/>
      </g>
     </g>
     <g id="text_7">
      <!-- 200 -->
      <g transform="translate(25.474844 195.930288) scale(0.1 -0.1)">
       <use xlink:href="#DejaVuSans-15"/>
       <use xlink:href="#DejaVuSans-13" transform="translate(63.625 0)"/>
       <use xlink:href="#DejaVuSans-13" transform="translate(127.25 0)"/>
      </g>
     </g>
    </g>
    <g id="ytick_4">
     <g id="line2d_11">
      <path d="M 51.562344 152.300628 
L 456.679531 152.300628 
" clip-path="url(#pc83ba26e91)" style="fill: none; stroke: #b0b0b0; stroke-opacity: 0.3; stroke-width: 0.8; stroke-linecap: square"/>
     </g>
     <g id="line2d_12">
      <g>
       <use xlink:href="#m3bc28da98e" x="51.562344" y="152.300628" style="stroke: #000000; stroke-width: 0.8"/>
      </g>
     </g>
     <g id="text_8">
      <!-- 300 -->
      <g transform="translate(25.474844 156.099456) scale(0.1 -0.1)">
       <defs>
        <path id="DejaVuSans-16" d="M 2597 2516 
Q 3050 2419 3304 2112 
Q 3559 1806 3559 1356 
Q 3559 666 3084 287 
Q 2609 -91 1734 -91 
Q 1441 -91 1130 -33 
Q 819 25 488 141 
L 488 750 
Q 750 597 1062 519 
Q 1375 441 1716 441 
Q 2309 441 2620 675 
Q 2931 909 2931 1356 
Q 2931 1769 2642 2001 
Q 2353 2234 1838 2234 
L 1294 2234 
L 1294 2753 
L 1863 2753 
Q 2328 2753 2575 2939 
Q 2822 3125 2822 3475 
Q 2822 3834 2567 4026 
Q 2313 4219 1838 4219 
Q 1578 4219 1281 4162 
Q 984 4106 628 3988 
L 628 4550 
Q 988 4650 1302 4700 
Q 1616 4750 1894 4750 
Q 2613 4750 3031 4423 
Q 3450 4097 3450 3541 
Q 3450 3153 3228 2886 
Q 3006 2619 2597 2516 
z
" transform="scale(0.015625)"/>
       </defs>
       <use xlink:href="#DejaVuSans-16"/>
       <use xlink:href="#DejaVuSans-13" transform="translate(63.625 0)"/>
       <use xlink:href="#DejaVuSans-13" transform="translate(127.25 0)"/>
      </g>
     </g>
    </g>
    <g id="ytick_5">
     <g id="line2d_13">
      <path d="M 51.562344 112.469796 
L 456.679531 112.469796 
" clip-path="url(#pc83ba26e91)" style="fill: none; stroke: #b0b0b0; stroke-opacity: 0.3; stroke-width: 0.8; stroke-linecap: square"/>
     </g>
     <g id="line2d_14">
      <g>
       <use xlink:href="#m3bc28da98e" x="51.562344" y="112.469796" style="stroke: #000000; stroke-width: 0.8"/>
      </g>
     </g>
     <g id="text_9">
      <!-- 400 -->
      <g transform="translate(25.474844 116.268624) scale(0.1 -0.1)">
       <defs>
        <path id="DejaVuSans-17" d="M 2419 4116 
L 825 1625 
L 2419 1625 
L 2419 4116 
z
M 2253 4666 
L 3047 4666 
L 3047 1625 
L 3713 1625 
L 3713 1100 
L 3047 1100 
L 3047 0 
L 2419 0 
L 2419 1100 
L 313 1100 
L 313 1709 
L 2253 4666 
z
" transform="scale(0.015625)"/>
       </defs>
       <use xlink:href="#DejaVuSans-17"/>
       <use xlink:href="#DejaVuSans-13" transform="translate(63.625 0)"/>
       <use xlink:href="#DejaVuSans-13" transform="translate(127.25 0)"/>
      </g>
     </g>
    </g>
    <g id="ytick_6">
     <g id="line2d_15">
      <path d="M 51.562344 72.638963 
L 456.679531 72.638963 
" clip-path="url(#pc83ba26e91)" style="fill: none; stroke: #b0b0b0; stroke-opacity: 0.3; stroke-width: 0.8; stroke-linecap: square"/>
     </g>
     <g id="line2d_16">
      <g>
       <use xlink:href="#m3bc28da98e" x="51.562344" y="72.638963" style="stroke: #000000; stroke-width: 0.8"/>
      </g>
     </g>
     <g id="text_10">
      <!-- 500 -->
      <g transform="translate(25.474844 76.437791) scale(0.1 -0.1)">
       <defs>
        <path id="DejaVuSans-18" d="M 691 4666 
L 3169 4666 
L 3169 4134 
L 1269 4134 
L 1269 2991 
Q 1406 3038 1543 3061 
Q 1681 3084 1819 3084 
Q 2600 3084 3056 2656 
Q 3513 2228 3513 1497 
Q 3513 744 3044 326 
Q 2575 -91 1722 -91 
Q 1428 -91 1123 -41 
Q 819 9 494 109 
L 494 744 
Q 775 591 1075 516 
Q 1375 441 1709 441 
Q 2250 441 2565 725 
Q 2881 1009 2881 1497 
Q 2881 1984 2565 2268 
Q 2250 2553 1709 2553 
Q 1456 2553 1204 2497 
Q 953 2441 691 2322 
L 691 4666 
z
" transform="scale(0.015625)"/>
       </defs>
       <use xlink:href="#DejaVuSans-18"/>
       <use xlink:href="#DejaVuSans-13" transform="translate(63.625 0)"/>
       <use xlink:href="#DejaVuSans-13" transform="translate(127.25 0)"/>
      </g>
     </g>
    </g>
    <g id="text_11">
     <!-- residuo posicional (m) -->
     <g transform="translate(19.0725 213.03457) rotate(-90) scale(0.1 -0.1)">
      <use xlink:href="#DejaVuSans-55"/>
      <use xlink:href="#DejaVuSans-48" transform="translate(38.90625 0)"/>
      <use xlink:href="#DejaVuSans-56" transform="translate(100.4375 0)"/>
      <use xlink:href="#DejaVuSans-4c" transform="translate(152.53125 0)"/>
      <use xlink:href="#DejaVuSans-47" transform="translate(180.3125 0)"/>
      <use xlink:href="#DejaVuSans-58" transform="translate(243.796875 0)"/>
      <use xlink:href="#DejaVuSans-52" transform="translate(307.171875 0)"/>
      <use xlink:href="#DejaVuSans-3" transform="translate(368.359375 0)"/>
      <use xlink:href="#DejaVuSans-53" transform="translate(400.140625 0)"/>
      <use xlink:href="#DejaVuSans-52" transform="translate(463.625 0)"/>
      <use xlink:href="#DejaVuSans-56" transform="translate(524.8125 0)"/>
      <use xlink:href="#DejaVuSans-4c" transform="translate(576.90625 0)"/>
      <use xlink:href="#DejaVuSans-46" transform="translate(604.6875 0)"/>
      <use xlink:href="#DejaVuSans-4c" transform="translate(659.671875 0)"/>
      <use xlink:href="#DejaVuSans-52" transform="translate(687.453125 0)"/>
      <use xlink:href="#DejaVuSans-51" transform="translate(748.640625 0)"/>
      <use xlink:href="#DejaVuSans-44" transform="translate(812.015625 0)"/>
      <use xlink:href="#DejaVuSans-4f" transform="translate(873.296875 0)"/>
      <use xlink:href="#DejaVuSans-3" transform="translate(901.078125 0)"/>
      <use xlink:href="#DejaVuSans-b" transform="translate(932.859375 0)"/>
      <use xlink:href="#DejaVuSans-50" transform="translate(971.875 0)"/>
      <use xlink:href="#DejaVuSans-c" transform="translate(1069.28125 0)"/>
     </g>
    </g>
   </g>
   <g id="patch_11">
    <path d="M 51.562344 271.793125 
L 51.562344 43.446328 
" style="fill: none; stroke: #000000; stroke-width: 0.8; stroke-linejoin: miter; stroke-linecap: square"/>
   </g>
   <g id="patch_12">
    <path d="M 456.679531 271.793125 
L 456.679531 43.446328 
" style="fill: none; stroke: #000000; stroke-width: 0.8; stroke-linejoin: miter; stroke-linecap: square"/>
   </g>
   <g id="patch_13">
    <path d="M 51.562344 271.793125 
L 456.679531 271.793125 
" style="fill: none; stroke: #000000; stroke-width: 0.8; stroke-linejoin: miter; stroke-linecap: square"/>
   </g>
   <g id="patch_14">
    <path d="M 51.562344 43.446328 
L 456.679531 43.446328 
" style="fill: none; stroke: #000000; stroke-width: 0.8; stroke-linejoin: miter; stroke-linecap: square"/>
   </g>
   <g id="text_12">
    <!-- 546 -->
    <g transform="translate(80.952077 52.39811) scale(0.08 -0.08)">
     <defs>
      <path id="DejaVuSans-19" d="M 2113 2584 
Q 1688 2584 1439 2293 
Q 1191 2003 1191 1497 
Q 1191 994 1439 701 
Q 1688 409 2113 409 
Q 2538 409 2786 701 
Q 3034 994 3034 1497 
Q 3034 2003 2786 2293 
Q 2538 2584 2113 2584 
z
M 3366 4563 
L 3366 3988 
Q 3128 4100 2886 4159 
Q 2644 4219 2406 4219 
Q 1781 4219 1451 3797 
Q 1122 3375 1075 2522 
Q 1259 2794 1537 2939 
Q 1816 3084 2150 3084 
Q 2853 3084 3261 2657 
Q 3669 2231 3669 1497 
Q 3669 778 3244 343 
Q 2819 -91 2113 -91 
Q 1303 -91 875 529 
Q 447 1150 447 2328 
Q 447 3434 972 4092 
Q 1497 4750 2381 4750 
Q 2619 4750 2861 4703 
Q 3103 4656 3366 4563 
z
" transform="scale(0.015625)"/>
     </defs>
     <use xlink:href="#DejaVuSans-18"/>
     <use xlink:href="#DejaVuSans-17" transform="translate(63.625 0)"/>
     <use xlink:href="#DejaVuSans-19" transform="translate(127.25 0)"/>
    </g>
   </g>
   <g id="text_13">
    <!-- 0 -->
    <g transform="translate(123.262708 269.87125) scale(0.08 -0.08)">
     <use xlink:href="#DejaVuSans-13"/>
    </g>
   </g>
   <g id="text_14">
    <!-- 442 -->
    <g transform="translate(178.901107 93.650375) scale(0.08 -0.08)">
     <use xlink:href="#DejaVuSans-17"/>
     <use xlink:href="#DejaVuSans-17" transform="translate(63.625 0)"/>
     <use xlink:href="#DejaVuSans-15" transform="translate(127.25 0)"/>
    </g>
   </g>
   <g id="text_15">
    <!-- 208 -->
    <g transform="translate(216.121738 187.149164) scale(0.08 -0.08)">
     <defs>
      <path id="DejaVuSans-1b" d="M 2034 2216 
Q 1584 2216 1326 1975 
Q 1069 1734 1069 1313 
Q 1069 891 1326 650 
Q 1584 409 2034 409 
Q 2484 409 2743 651 
Q 3003 894 3003 1313 
Q 3003 1734 2745 1975 
Q 2488 2216 2034 2216 
z
M 1403 2484 
Q 997 2584 770 2862 
Q 544 3141 544 3541 
Q 544 4100 942 4425 
Q 1341 4750 2034 4750 
Q 2731 4750 3128 4425 
Q 3525 4100 3525 3541 
Q 3525 3141 3298 2862 
Q 3072 2584 2669 2484 
Q 3125 2378 3379 2068 
Q 3634 1759 3634 1313 
Q 3634 634 3220 271 
Q 2806 -91 2034 -91 
Q 1263 -91 848 271 
Q 434 634 434 1313 
Q 434 1759 690 2068 
Q 947 2378 1403 2484 
z
M 1172 3481 
Q 1172 3119 1398 2916 
Q 1625 2713 2034 2713 
Q 2441 2713 2670 2916 
Q 2900 3119 2900 3481 
Q 2900 3844 2670 4047 
Q 2441 4250 2034 4250 
Q 1625 4250 1398 4047 
Q 1172 3844 1172 3481 
z
" transform="scale(0.015625)"/>
     </defs>
     <use xlink:href="#DejaVuSans-15"/>
     <use xlink:href="#DejaVuSans-13" transform="translate(63.625 0)"/>
     <use xlink:href="#DejaVuSans-1b" transform="translate(127.25 0)"/>
    </g>
   </g>
   <g id="text_16">
    <!-- 73 -->
    <g transform="translate(279.395137 240.987213) scale(0.08 -0.08)">
     <defs>
      <path id="DejaVuSans-1a" d="M 525 4666 
L 3525 4666 
L 3525 4397 
L 1831 0 
L 1172 0 
L 2766 4134 
L 525 4134 
L 525 4666 
z
" transform="scale(0.015625)"/>
     </defs>
     <use xlink:href="#DejaVuSans-1a"/>
     <use xlink:href="#DejaVuSans-16" transform="translate(63.625 0)"/>
    </g>
   </g>
   <g id="text_17">
    <!-- 0 -->
    <g transform="translate(319.160768 269.87125) scale(0.08 -0.08)">
     <use xlink:href="#DejaVuSans-13"/>
    </g>
   </g>
   <g id="text_18">
    <!-- 239 -->
    <g transform="translate(374.799167 174.696525) scale(0.08 -0.08)">
     <defs>
      <path id="DejaVuSans-1c" d="M 703 97 
L 703 672 
Q 941 559 1184 500 
Q 1428 441 1663 441 
Q 2288 441 2617 861 
Q 2947 1281 2994 2138 
Q 2813 1869 2534 1725 
Q 2256 1581 1919 1581 
Q 1219 1581 811 2004 
Q 403 2428 403 3163 
Q 403 3881 828 4315 
Q 1253 4750 1959 4750 
Q 2769 4750 3195 4129 
Q 3622 3509 3622 2328 
Q 3622 1225 3098 567 
Q 2575 -91 1691 -91 
Q 1453 -91 1209 -44 
Q 966 3 703 97 
z
M 1959 2075 
Q 2384 2075 2632 2365 
Q 2881 2656 2881 3163 
Q 2881 3666 2632 3958 
Q 2384 4250 1959 4250 
Q 1534 4250 1286 3958 
Q 1038 3666 1038 3163 
Q 1038 2656 1286 2365 
Q 1534 2075 1959 2075 
z
" transform="scale(0.015625)"/>
     </defs>
     <use xlink:href="#DejaVuSans-15"/>
     <use xlink:href="#DejaVuSans-16" transform="translate(63.625 0)"/>
     <use xlink:href="#DejaVuSans-1c" transform="translate(127.25 0)"/>
    </g>
   </g>
   <g id="text_19">
    <!-- 208 -->
    <g transform="translate(412.019798 187.149164) scale(0.08 -0.08)">
     <use xlink:href="#DejaVuSans-15"/>
     <use xlink:href="#DejaVuSans-13" transform="translate(63.625 0)"/>
     <use xlink:href="#DejaVuSans-1b" transform="translate(127.25 0)"/>
    </g>
   </g>
   <g id="text_20">
    <!-- En Toe, Δn e IDOT se anulan (dependen de tk); -->
    <g transform="translate(113.689063 22.563047) scale(0.12 -0.12)">
     <defs>
      <path id="DejaVuSans-28" d="M 628 4666 
L 3578 4666 
L 3578 4134 
L 1259 4134 
L 1259 2753 
L 3481 2753 
L 3481 2222 
L 1259 2222 
L 1259 531 
L 3634 531 
L 3634 0 
L 628 0 
L 628 4666 
z
" transform="scale(0.015625)"/>
      <path id="DejaVuSans-4e" d="M 581 4863 
L 1159 4863 
L 1159 1991 
L 2875 3500 
L 3609 3500 
L 1753 1863 
L 3688 0 
L 2938 0 
L 1159 1709 
L 1159 0 
L 581 0 
L 581 4863 
z
" transform="scale(0.015625)"/>
      <path id="DejaVuSans-1e" d="M 750 3309 
L 1409 3309 
L 1409 2516 
L 750 2516 
L 750 3309 
z
M 750 794 
L 1409 794 
L 1409 256 
L 897 -744 
L 494 -744 
L 750 256 
L 750 794 
z
" transform="scale(0.015625)"/>
     </defs>
     <use xlink:href="#DejaVuSans-28"/>
     <use xlink:href="#DejaVuSans-51" transform="translate(63.1875 0)"/>
     <use xlink:href="#DejaVuSans-3" transform="translate(126.5625 0)"/>
     <use xlink:href="#DejaVuSans-37" transform="translate(158.34375 0)"/>
     <use xlink:href="#DejaVuSans-52" transform="translate(202.4375 0)"/>
     <use xlink:href="#DejaVuSans-48" transform="translate(263.625 0)"/>
     <use xlink:href="#DejaVuSans-f" transform="translate(325.15625 0)"/>
     <use xlink:href="#DejaVuSans-3" transform="translate(356.9375 0)"/>
     <use xlink:href="#DejaVuSans-329" transform="translate(388.71875 0)"/>
     <use xlink:href="#DejaVuSans-51" transform="translate(457.125 0)"/>
     <use xlink:href="#DejaVuSans-3" transform="translate(520.5 0)"/>
     <use xlink:href="#DejaVuSans-48" transform="translate(552.28125 0)"/>
     <use xlink:href="#DejaVuSans-3" transform="translate(613.8125 0)"/>
     <use xlink:href="#DejaVuSans-2c" transform="translate(645.59375 0)"/>
     <use xlink:href="#DejaVuSans-27" transform="translate(675.09375 0)"/>
     <use xlink:href="#DejaVuSans-32" transform="translate(752.09375 0)"/>
     <use xlink:href="#DejaVuSans-37" transform="translate(830.8125 0)"/>
     <use xlink:href="#DejaVuSans-3" transform="translate(891.890625 0)"/>
     <use xlink:href="#DejaVuSans-56" transform="translate(923.671875 0)"/>
     <use xlink:href="#DejaVuSans-48" transform="translate(975.765625 0)"/>
     <use xlink:href="#DejaVuSans-3" transform="translate(1037.296875 0)"/>
     <use xlink:href="#DejaVuSans-44" transform="translate(1069.078125 0)"/>
     <use xlink:href="#DejaVuSans-51" transform="translate(1130.359375 0)"/>
     <use xlink:href="#DejaVuSans-58" transform="translate(1193.734375 0)"/>
     <use xlink:href="#DejaVuSans-4f" transform="translate(1257.109375 0)"/>
     <use xlink:href="#DejaVuSans-44" transform="translate(1284.890625 0)"/>
     <use xlink:href="#DejaVuSans-51" transform="translate(1346.171875 0)"/>
     <use xlink:href="#DejaVuSans-3" transform="translate(1409.546875 0)"/>
     <use xlink:href="#DejaVuSans-b" transform="translate(1441.328125 0)"/>
     <use xlink:href="#DejaVuSans-47" transform="translate(1480.34375 0)"/>
     <use xlink:href="#DejaVuSans-48" transform="translate(1543.828125 0)"/>
     <use xlink:href="#DejaVuSans-53" transform="translate(1605.359375 0)"/>
     <use xlink:href="#DejaVuSans-48" transform="translate(1668.84375 0)"/>
     <use xlink:href="#DejaVuSans-51" transform="translate(1730.375 0)"/>
     <use xlink:href="#DejaVuSans-47" transform="translate(1793.75 0)"/>
     <use xlink:href="#DejaVuSans-48" transform="translate(1857.234375 0)"/>
     <use xlink:href="#DejaVuSans-51" transform="translate(1918.765625 0)"/>
     <use xlink:href="#DejaVuSans-3" transform="translate(1982.140625 0)"/>
     <use xlink:href="#DejaVuSans-47" transform="translate(2013.921875 0)"/>
     <use xlink:href="#DejaVuSans-48" transform="translate(2077.40625 0)"/>
     <use xlink:href="#DejaVuSans-3" transform="translate(2138.9375 0)"/>
     <use xlink:href="#DejaVuSans-57" transform="translate(2170.71875 0)"/>
     <use xlink:href="#DejaVuSans-4e" transform="translate(2209.921875 0)"/>
     <use xlink:href="#DejaVuSans-c" transform="translate(2267.828125 0)"/>
     <use xlink:href="#DejaVuSans-1e" transform="translate(2306.84375 0)"/>
    </g>
    <!-- los armónicos NO (el achatamiento actúa siempre) -->
    <g transform="translate(101.359063 37.446328) scale(0.12 -0.12)">
     <defs>
      <path id="DejaVuSans-31" d="M 628 4666 
L 1478 4666 
L 3547 763 
L 3547 4666 
L 4159 4666 
L 4159 0 
L 3309 0 
L 1241 3903 
L 1241 0 
L 628 0 
L 628 4666 
z
" transform="scale(0.015625)"/>
      <path id="DejaVuSans-4b" d="M 3513 2113 
L 3513 0 
L 2938 0 
L 2938 2094 
Q 2938 2591 2744 2837 
Q 2550 3084 2163 3084 
Q 1697 3084 1428 2787 
Q 1159 2491 1159 1978 
L 1159 0 
L 581 0 
L 581 4863 
L 1159 4863 
L 1159 2956 
Q 1366 3272 1645 3428 
Q 1925 3584 2291 3584 
Q 2894 3584 3203 3211 
Q 3513 2838 3513 2113 
z
" transform="scale(0.015625)"/>
      <path id="DejaVuSans-bc" d="M 544 1381 
L 544 3500 
L 1119 3500 
L 1119 1403 
Q 1119 906 1312 657 
Q 1506 409 1894 409 
Q 2359 409 2629 706 
Q 2900 1003 2900 1516 
L 2900 3500 
L 3475 3500 
L 3475 0 
L 2900 0 
L 2900 538 
Q 2691 219 2414 64 
Q 2138 -91 1772 -91 
Q 1169 -91 856 284 
Q 544 659 544 1381 
z
M 1991 3584 
L 1991 3584 
z
M 2418 5119 
L 3040 5119 
L 2022 3944 
L 1543 3944 
L 2418 5119 
z
" transform="scale(0.015625)"/>
     </defs>
     <use xlink:href="#DejaVuSans-4f"/>
     <use xlink:href="#DejaVuSans-52" transform="translate(27.78125 0)"/>
     <use xlink:href="#DejaVuSans-56" transform="translate(88.96875 0)"/>
     <use xlink:href="#DejaVuSans-3" transform="translate(141.0625 0)"/>
     <use xlink:href="#DejaVuSans-44" transform="translate(172.84375 0)"/>
     <use xlink:href="#DejaVuSans-55" transform="translate(234.125 0)"/>
     <use xlink:href="#DejaVuSans-50" transform="translate(273.484375 0)"/>
     <use xlink:href="#DejaVuSans-b5" transform="translate(370.890625 0)"/>
     <use xlink:href="#DejaVuSans-51" transform="translate(432.078125 0)"/>
     <use xlink:href="#DejaVuSans-4c" transform="translate(495.453125 0)"/>
     <use xlink:href="#DejaVuSans-46" transform="translate(523.234375 0)"/>
     <use xlink:href="#DejaVuSans-52" transform="translate(578.21875 0)"/>
     <use xlink:href="#DejaVuSans-56" transform="translate(639.40625 0)"/>
     <use xlink:href="#DejaVuSans-3" transform="translate(691.5 0)"/>
     <use xlink:href="#DejaVuSans-31" transform="translate(723.28125 0)"/>
     <use xlink:href="#DejaVuSans-32" transform="translate(798.09375 0)"/>
     <use xlink:href="#DejaVuSans-3" transform="translate(876.8125 0)"/>
     <use xlink:href="#DejaVuSans-b" transform="translate(908.59375 0)"/>
     <use xlink:href="#DejaVuSans-48" transform="translate(947.609375 0)"/>
     <use xlink:href="#DejaVuSans-4f" transform="translate(1009.140625 0)"/>
     <use xlink:href="#DejaVuSans-3" transform="translate(1036.921875 0)"/>
     <use xlink:href="#DejaVuSans-44" transform="translate(1068.703125 0)"/>
     <use xlink:href="#DejaVuSans-46" transform="translate(1129.984375 0)"/>
     <use xlink:href="#DejaVuSans-4b" transform="translate(1184.96875 0)"/>
     <use xlink:href="#DejaVuSans-44" transform="translate(1248.34375 0)"/>
     <use xlink:href="#DejaVuSans-57" transform="translate(1309.625 0)"/>
     <use xlink:href="#DejaVuSans-44" transform="translate(1348.828125 0)"/>
     <use xlink:href="#DejaVuSans-50" transform="translate(1410.109375 0)"/>
     <use xlink:href="#DejaVuSans-4c" transform="translate(1507.515625 0)"/>
     <use xlink:href="#DejaVuSans-48" transform="translate(1535.296875 0)"/>
     <use xlink:href="#DejaVuSans-51" transform="translate(1596.828125 0)"/>
     <use xlink:href="#DejaVuSans-57" transform="translate(1660.203125 0)"/>
     <use xlink:href="#DejaVuSans-52" transform="translate(1699.40625 0)"/>
     <use xlink:href="#DejaVuSans-3" transform="translate(1760.59375 0)"/>
     <use xlink:href="#DejaVuSans-44" transform="translate(1792.375 0)"/>
     <use xlink:href="#DejaVuSans-46" transform="translate(1853.65625 0)"/>
     <use xlink:href="#DejaVuSans-57" transform="translate(1908.640625 0)"/>
     <use xlink:href="#DejaVuSans-bc" transform="translate(1947.84375 0)"/>
     <use xlink:href="#DejaVuSans-44" transform="translate(2011.21875 0)"/>
     <use xlink:href="#DejaVuSans-3" transform="translate(2072.5 0)"/>
     <use xlink:href="#DejaVuSans-56" transform="translate(2104.28125 0)"/>
     <use xlink:href="#DejaVuSans-4c" transform="translate(2156.375 0)"/>
     <use xlink:href="#DejaVuSans-48" transform="translate(2184.15625 0)"/>
     <use xlink:href="#DejaVuSans-50" transform="translate(2245.6875 0)"/>
     <use xlink:href="#DejaVuSans-53" transform="translate(2343.09375 0)"/>
     <use xlink:href="#DejaVuSans-55" transform="translate(2406.578125 0)"/>
     <use xlink:href="#DejaVuSans-48" transform="translate(2445.484375 0)"/>
     <use xlink:href="#DejaVuSans-c" transform="translate(2507.015625 0)"/>
    </g>
   </g>
   <g id="legend_1">
    <g id="patch_15">
     <path d="M 329.117031 74.167578 
L 451.079531 74.167578 
Q 452.679531 74.167578 452.679531 72.567578 
L 452.679531 49.046328 
Q 452.679531 47.446328 451.079531 47.446328 
L 329.117031 47.446328 
Q 327.517031 47.446328 327.517031 49.046328 
L 327.517031 72.567578 
Q 327.517031 74.167578 329.117031 74.167578 
z
" style="fill: #ffffff; opacity: 0.8; stroke: #cccccc; stroke-linejoin: miter"/>
    </g>
    <g id="patch_16">
     <path d="M 330.717031 57.045078 
L 346.717031 57.045078 
L 346.717031 51.445078 
L 330.717031 51.445078 
z
" style="fill: #1f77b4"/>
    </g>
    <g id="text_21">
     <!-- máximo en el arco ±2 h -->
     <g transform="translate(353.117031 57.045078) scale(0.08 -0.08)">
      <defs>
       <path id="DejaVuSans-a3" d="M 2194 1759 
Q 1497 1759 1228 1600 
Q 959 1441 959 1056 
Q 959 750 1161 570 
Q 1363 391 1709 391 
Q 2188 391 2477 730 
Q 2766 1069 2766 1631 
L 2766 1759 
L 2194 1759 
z
M 3341 1997 
L 3341 0 
L 2766 0 
L 2766 531 
Q 2569 213 2275 61 
Q 1981 -91 1556 -91 
Q 1019 -91 701 211 
Q 384 513 384 1019 
Q 384 1609 779 1909 
Q 1175 2209 1959 2209 
L 2766 2209 
L 2766 2266 
Q 2766 2663 2505 2880 
Q 2244 3097 1772 3097 
Q 1472 3097 1187 3025 
Q 903 2953 641 2809 
L 641 3341 
Q 956 3463 1253 3523 
Q 1550 3584 1831 3584 
Q 2591 3584 2966 3190 
Q 3341 2797 3341 1997 
z
M 2290 5119 
L 2912 5119 
L 1894 3944 
L 1415 3944 
L 2290 5119 
z
" transform="scale(0.015625)"/>
       <path id="DejaVuSans-73" d="M 2944 4013 
L 2944 2803 
L 4684 2803 
L 4684 2272 
L 2944 2272 
L 2944 1063 
L 2419 1063 
L 2419 2272 
L 678 2272 
L 678 2803 
L 2419 2803 
L 2419 4013 
L 2944 4013 
z
M 678 531 
L 4684 531 
L 4684 0 
L 678 0 
L 678 531 
z
" transform="scale(0.015625)"/>
      </defs>
      <use xlink:href="#DejaVuSans-50"/>
      <use xlink:href="#DejaVuSans-a3" transform="translate(97.40625 0)"/>
      <use xlink:href="#DejaVuSans-5b" transform="translate(158.6875 0)"/>
      <use xlink:href="#DejaVuSans-4c" transform="translate(217.875 0)"/>
      <use xlink:href="#DejaVuSans-50" transform="translate(245.65625 0)"/>
      <use xlink:href="#DejaVuSans-52" transform="translate(343.0625 0)"/>
      <use xlink:href="#DejaVuSans-3" transform="translate(404.25 0)"/>
      <use xlink:href="#DejaVuSans-48" transform="translate(436.03125 0)"/>
      <use xlink:href="#DejaVuSans-51" transform="translate(497.5625 0)"/>
      <use xlink:href="#DejaVuSans-3" transform="translate(560.9375 0)"/>
      <use xlink:href="#DejaVuSans-48" transform="translate(592.71875 0)"/>
      <use xlink:href="#DejaVuSans-4f" transform="translate(654.25 0)"/>
      <use xlink:href="#DejaVuSans-3" transform="translate(682.03125 0)"/>
      <use xlink:href="#DejaVuSans-44" transform="translate(713.8125 0)"/>
      <use xlink:href="#DejaVuSans-55" transform="translate(775.09375 0)"/>
      <use xlink:href="#DejaVuSans-46" transform="translate(814 0)"/>
      <use xlink:href="#DejaVuSans-52" transform="translate(868.984375 0)"/>
      <use xlink:href="#DejaVuSans-3" transform="translate(930.171875 0)"/>
      <use xlink:href="#DejaVuSans-73" transform="translate(961.953125 0)"/>
      <use xlink:href="#DejaVuSans-15" transform="translate(1045.75 0)"/>
      <use xlink:href="#DejaVuSans-3" transform="translate(1109.375 0)"/>
      <use xlink:href="#DejaVuSans-4b" transform="translate(1141.15625 0)"/>
     </g>
    </g>
    <g id="patch_17">
     <path d="M 330.717031 69.045703 
L 346.717031 69.045703 
L 346.717031 63.445703 
L 330.717031 63.445703 
z
" style="fill: #ff7f0e"/>
    </g>
    <g id="text_22">
     <!-- en el instante Toe -->
     <g transform="translate(353.117031 69.045703) scale(0.08 -0.08)">
      <use xlink:href="#DejaVuSans-48"/>
      <use xlink:href="#DejaVuSans-51" transform="translate(61.53125 0)"/>
      <use xlink:href="#DejaVuSans-3" transform="translate(124.90625 0)"/>
      <use xlink:href="#DejaVuSans-48" transform="translate(156.6875 0)"/>
      <use xlink:href="#DejaVuSans-4f" transform="translate(218.21875 0)"/>
      <use xlink:href="#DejaVuSans-3" transform="translate(246 0)"/>
      <use xlink:href="#DejaVuSans-4c" transform="translate(277.78125 0)"/>
      <use xlink:href="#DejaVuSans-51" transform="translate(305.5625 0)"/>
      <use xlink:href="#DejaVuSans-56" transform="translate(368.9375 0)"/>
      <use xlink:href="#DejaVuSans-57" transform="translate(421.03125 0)"/>
      <use xlink:href="#DejaVuSans-44" transform="translate(460.234375 0)"/>
      <use xlink:href="#DejaVuSans-51" transform="translate(521.515625 0)"/>
      <use xlink:href="#DejaVuSans-57" transform="translate(584.890625 0)"/>
      <use xlink:href="#DejaVuSans-48" transform="translate(624.09375 0)"/>
      <use xlink:href="#DejaVuSans-3" transform="translate(685.625 0)"/>
      <use xlink:href="#DejaVuSans-37" transform="translate(717.40625 0)"/>
      <use xlink:href="#DejaVuSans-52" transform="translate(761.5 0)"/>
      <use xlink:href="#DejaVuSans-48" transform="translate(822.6875 0)"/>
     </g>
    </g>
   </g>
  </g>
  <g id="axes_2">
   <g id="patch_18">
    <path d="M 511.121875 271.793125 
L 781.2 271.793125 
L 781.2 43.446328 
L 511.121875 43.446328 
z
" style="fill: #ffffff"/>
   </g>
   <g id="patch_19">
    <path d="M 523.398153 271.793125 
L 605.240009 271.793125 
L 605.240009 179.052494 
L 523.398153 179.052494 
z
" clip-path="url(#pfc8da15c97)" style="fill: #2ca02c"/>
   </g>
   <g id="patch_20">
    <path d="M 687.081866 271.793125 
L 768.923722 271.793125 
L 768.923722 54.319985 
L 687.081866 54.319985 
z
" clip-path="url(#pfc8da15c97)" style="fill: #bcbd22"/>
   </g>
   <g id="matplotlib.axis_3">
    <g id="xtick_5">
     <g id="line2d_17">
      <g>
       <use xlink:href="#m4010c788e9" x="564.319081" y="271.793125" style="stroke: #000000; stroke-width: 0.8"/>
      </g>
     </g>
     <g id="text_23">
      <!-- salto medio -->
      <g transform="translate(535.083144 286.391562) scale(0.1 -0.1)">
       <use xlink:href="#DejaVuSans-56"/>
       <use xlink:href="#DejaVuSans-44" transform="translate(52.09375 0)"/>
       <use xlink:href="#DejaVuSans-4f" transform="translate(113.375 0)"/>
       <use xlink:href="#DejaVuSans-57" transform="translate(141.15625 0)"/>
       <use xlink:href="#DejaVuSans-52" transform="translate(180.359375 0)"/>
       <use xlink:href="#DejaVuSans-3" transform="translate(241.546875 0)"/>
       <use xlink:href="#DejaVuSans-50" transform="translate(273.328125 0)"/>
       <use xlink:href="#DejaVuSans-48" transform="translate(370.734375 0)"/>
       <use xlink:href="#DejaVuSans-47" transform="translate(432.265625 0)"/>
       <use xlink:href="#DejaVuSans-4c" transform="translate(495.75 0)"/>
       <use xlink:href="#DejaVuSans-52" transform="translate(523.53125 0)"/>
      </g>
     </g>
    </g>
    <g id="xtick_6">
     <g id="line2d_18">
      <g>
       <use xlink:href="#m4010c788e9" x="728.002794" y="271.793125" style="stroke: #000000; stroke-width: 0.8"/>
      </g>
     </g>
     <g id="text_24">
      <!-- salto máx -->
      <g transform="translate(703.442637 286.791562) scale(0.1 -0.1)">
       <use xlink:href="#DejaVuSans-56"/>
       <use xlink:href="#DejaVuSans-44" transform="translate(52.09375 0)"/>
       <use xlink:href="#DejaVuSans-4f" transform="translate(113.375 0)"/>
       <use xlink:href="#DejaVuSans-57" transform="translate(141.15625 0)"/>
       <use xlink:href="#DejaVuSans-52" transform="translate(180.359375 0)"/>
       <use xlink:href="#DejaVuSans-3" transform="translate(241.546875 0)"/>
       <use xlink:href="#DejaVuSans-50" transform="translate(273.328125 0)"/>
       <use xlink:href="#DejaVuSans-a3" transform="translate(370.734375 0)"/>
       <use xlink:href="#DejaVuSans-5b" transform="translate(432.015625 0)"/>
      </g>
     </g>
    </g>
   </g>
   <g id="matplotlib.axis_4">
    <g id="ytick_7">
     <g id="line2d_19">
      <path d="M 511.121875 271.793125 
L 781.2 271.793125 
" clip-path="url(#pfc8da15c97)" style="fill: none; stroke: #b0b0b0; stroke-opacity: 0.3; stroke-width: 0.8; stroke-linecap: square"/>
     </g>
     <g id="line2d_20">
      <g>
       <use xlink:href="#m3bc28da98e" x="511.121875" y="271.793125" style="stroke: #000000; stroke-width: 0.8"/>
      </g>
     </g>
     <g id="text_25">
      <!-- 0.00 -->
      <g transform="translate(481.85625 275.591953) scale(0.1 -0.1)">
       <use xlink:href="#DejaVuSans-13"/>
       <use xlink:href="#DejaVuSans-11" transform="translate(63.625 0)"/>
       <use xlink:href="#DejaVuSans-13" transform="translate(95.40625 0)"/>
       <use xlink:href="#DejaVuSans-13" transform="translate(159.03125 0)"/>
      </g>
     </g>
    </g>
    <g id="ytick_8">
     <g id="line2d_21">
      <path d="M 511.121875 240.240422 
L 781.2 240.240422 
" clip-path="url(#pfc8da15c97)" style="fill: none; stroke: #b0b0b0; stroke-opacity: 0.3; stroke-width: 0.8; stroke-linecap: square"/>
     </g>
     <g id="line2d_22">
      <g>
       <use xlink:href="#m3bc28da98e" x="511.121875" y="240.240422" style="stroke: #000000; stroke-width: 0.8"/>
      </g>
     </g>
     <g id="text_26">
      <!-- 0.25 -->
      <g transform="translate(481.85625 244.03925) scale(0.1 -0.1)">
       <use xlink:href="#DejaVuSans-13"/>
       <use xlink:href="#DejaVuSans-11" transform="translate(63.625 0)"/>
       <use xlink:href="#DejaVuSans-15" transform="translate(95.40625 0)"/>
       <use xlink:href="#DejaVuSans-18" transform="translate(159.03125 0)"/>
      </g>
     </g>
    </g>
    <g id="ytick_9">
     <g id="line2d_23">
      <path d="M 511.121875 208.687718 
L 781.2 208.687718 
" clip-path="url(#pfc8da15c97)" style="fill: none; stroke: #b0b0b0; stroke-opacity: 0.3; stroke-width: 0.8; stroke-linecap: square"/>
     </g>
     <g id="line2d_24">
      <g>
       <use xlink:href="#m3bc28da98e" x="511.121875" y="208.687718" style="stroke: #000000; stroke-width: 0.8"/>
      </g>
     </g>
     <g id="text_27">
      <!-- 0.50 -->
      <g transform="translate(481.85625 212.486546) scale(0.1 -0.1)">
       <use xlink:href="#DejaVuSans-13"/>
       <use xlink:href="#DejaVuSans-11" transform="translate(63.625 0)"/>
       <use xlink:href="#DejaVuSans-18" transform="translate(95.40625 0)"/>
       <use xlink:href="#DejaVuSans-13" transform="translate(159.03125 0)"/>
      </g>
     </g>
    </g>
    <g id="ytick_10">
     <g id="line2d_25">
      <path d="M 511.121875 177.135015 
L 781.2 177.135015 
" clip-path="url(#pfc8da15c97)" style="fill: none; stroke: #b0b0b0; stroke-opacity: 0.3; stroke-width: 0.8; stroke-linecap: square"/>
     </g>
     <g id="line2d_26">
      <g>
       <use xlink:href="#m3bc28da98e" x="511.121875" y="177.135015" style="stroke: #000000; stroke-width: 0.8"/>
      </g>
     </g>
     <g id="text_28">
      <!-- 0.75 -->
      <g transform="translate(481.85625 180.933843) scale(0.1 -0.1)">
       <use xlink:href="#DejaVuSans-13"/>
       <use xlink:href="#DejaVuSans-11" transform="translate(63.625 0)"/>
       <use xlink:href="#DejaVuSans-1a" transform="translate(95.40625 0)"/>
       <use xlink:href="#DejaVuSans-18" transform="translate(159.03125 0)"/>
      </g>
     </g>
    </g>
    <g id="ytick_11">
     <g id="line2d_27">
      <path d="M 511.121875 145.582312 
L 781.2 145.582312 
" clip-path="url(#pfc8da15c97)" style="fill: none; stroke: #b0b0b0; stroke-opacity: 0.3; stroke-width: 0.8; stroke-linecap: square"/>
     </g>
     <g id="line2d_28">
      <g>
       <use xlink:href="#m3bc28da98e" x="511.121875" y="145.582312" style="stroke: #000000; stroke-width: 0.8"/>
      </g>
     </g>
     <g id="text_29">
      <!-- 1.00 -->
      <g transform="translate(481.85625 149.38114) scale(0.1 -0.1)">
       <use xlink:href="#DejaVuSans-14"/>
       <use xlink:href="#DejaVuSans-11" transform="translate(63.625 0)"/>
       <use xlink:href="#DejaVuSans-13" transform="translate(95.40625 0)"/>
       <use xlink:href="#DejaVuSans-13" transform="translate(159.03125 0)"/>
      </g>
     </g>
    </g>
    <g id="ytick_12">
     <g id="line2d_29">
      <path d="M 511.121875 114.029608 
L 781.2 114.029608 
" clip-path="url(#pfc8da15c97)" style="fill: none; stroke: #b0b0b0; stroke-opacity: 0.3; stroke-width: 0.8; stroke-linecap: square"/>
     </g>
     <g id="line2d_30">
      <g>
       <use xlink:href="#m3bc28da98e" x="511.121875" y="114.029608" style="stroke: #000000; stroke-width: 0.8"/>
      </g>
     </g>
     <g id="text_30">
      <!-- 1.25 -->
      <g transform="translate(481.85625 117.828436) scale(0.1 -0.1)">
       <use xlink:href="#DejaVuSans-14"/>
       <use xlink:href="#DejaVuSans-11" transform="translate(63.625 0)"/>
       <use xlink:href="#DejaVuSans-15" transform="translate(95.40625 0)"/>
       <use xlink:href="#DejaVuSans-18" transform="translate(159.03125 0)"/>
      </g>
     </g>
    </g>
    <g id="ytick_13">
     <g id="line2d_31">
      <path d="M 511.121875 82.476905 
L 781.2 82.476905 
" clip-path="url(#pfc8da15c97)" style="fill: none; stroke: #b0b0b0; stroke-opacity: 0.3; stroke-width: 0.8; stroke-linecap: square"/>
     </g>
     <g id="line2d_32">
      <g>
       <use xlink:href="#m3bc28da98e" x="511.121875" y="82.476905" style="stroke: #000000; stroke-width: 0.8"/>
      </g>
     </g>
     <g id="text_31">
      <!-- 1.50 -->
      <g transform="translate(481.85625 86.275733) scale(0.1 -0.1)">
       <use xlink:href="#DejaVuSans-14"/>
       <use xlink:href="#DejaVuSans-11" transform="translate(63.625 0)"/>
       <use xlink:href="#DejaVuSans-18" transform="translate(95.40625 0)"/>
       <use xlink:href="#DejaVuSans-13" transform="translate(159.03125 0)"/>
      </g>
     </g>
    </g>
    <g id="ytick_14">
     <g id="line2d_33">
      <path d="M 511.121875 50.924201 
L 781.2 50.924201 
" clip-path="url(#pfc8da15c97)" style="fill: none; stroke: #b0b0b0; stroke-opacity: 0.3; stroke-width: 0.8; stroke-linecap: square"/>
     </g>
     <g id="line2d_34">
      <g>
       <use xlink:href="#m3bc28da98e" x="511.121875" y="50.924201" style="stroke: #000000; stroke-width: 0.8"/>
      </g>
     </g>
     <g id="text_32">
      <!-- 1.75 -->
      <g transform="translate(481.85625 54.72303) scale(0.1 -0.1)">
       <use xlink:href="#DejaVuSans-14"/>
       <use xlink:href="#DejaVuSans-11" transform="translate(63.625 0)"/>
       <use xlink:href="#DejaVuSans-1a" transform="translate(95.40625 0)"/>
       <use xlink:href="#DejaVuSans-18" transform="translate(159.03125 0)"/>
      </g>
     </g>
    </g>
    <g id="text_33">
     <!-- discontinuidad en el empalme (m) -->
     <g transform="translate(475.453906 243.613477) rotate(-90) scale(0.1 -0.1)">
      <use xlink:href="#DejaVuSans-47"/>
      <use xlink:href="#DejaVuSans-4c" transform="translate(63.484375 0)"/>
      <use xlink:href="#DejaVuSans-56" transform="translate(91.265625 0)"/>
      <use xlink:href="#DejaVuSans-46" transform="translate(143.359375 0)"/>
      <use xlink:href="#DejaVuSans-52" transform="translate(198.34375 0)"/>
      <use xlink:href="#DejaVuSans-51" transform="translate(259.53125 0)"/>
      <use xlink:href="#DejaVuSans-57" transform="translate(322.90625 0)"/>
      <use xlink:href="#DejaVuSans-4c" transform="translate(362.109375 0)"/>
      <use xlink:href="#DejaVuSans-51" transform="translate(389.890625 0)"/>
      <use xlink:href="#DejaVuSans-58" transform="translate(453.265625 0)"/>
      <use xlink:href="#DejaVuSans-4c" transform="translate(516.640625 0)"/>
      <use xlink:href="#DejaVuSans-47" transform="translate(544.421875 0)"/>
      <use xlink:href="#DejaVuSans-44" transform="translate(607.90625 0)"/>
      <use xlink:href="#DejaVuSans-47" transform="translate(669.1875 0)"/>
      <use xlink:href="#DejaVuSans-3" transform="translate(732.671875 0)"/>
      <use xlink:href="#DejaVuSans-48" transform="translate(764.453125 0)"/>
      <use xlink:href="#DejaVuSans-51" transform="translate(825.984375 0)"/>
      <use xlink:href="#DejaVuSans-3" transform="translate(889.359375 0)"/>
      <use xlink:href="#DejaVuSans-48" transform="translate(921.140625 0)"/>
      <use xlink:href="#DejaVuSans-4f" transform="translate(982.671875 0)"/>
      <use xlink:href="#DejaVuSans-3" transform="translate(1010.453125 0)"/>
      <use xlink:href="#DejaVuSans-48" transform="translate(1042.234375 0)"/>
      <use xlink:href="#DejaVuSans-50" transform="translate(1103.765625 0)"/>
      <use xlink:href="#DejaVuSans-53" transform="translate(1201.171875 0)"/>
      <use xlink:href="#DejaVuSans-44" transform="translate(1264.65625 0)"/>
      <use xlink:href="#DejaVuSans-4f" transform="translate(1325.9375 0)"/>
      <use xlink:href="#DejaVuSans-50" transform="translate(1353.71875 0)"/>
      <use xlink:href="#DejaVuSans-48" transform="translate(1451.125 0)"/>
      <use xlink:href="#DejaVuSans-3" transform="translate(1512.65625 0)"/>
      <use xlink:href="#DejaVuSans-b" transform="translate(1544.4375 0)"/>
      <use xlink:href="#DejaVuSans-50" transform="translate(1583.453125 0)"/>
      <use xlink:href="#DejaVuSans-c" transform="translate(1680.859375 0)"/>
     </g>
    </g>
   </g>
   <g id="patch_21">
    <path d="M 511.121875 271.793125 
L 511.121875 43.446328 
" style="fill: none; stroke: #000000; stroke-width: 0.8; stroke-linejoin: miter; stroke-linecap: square"/>
   </g>
   <g id="patch_22">
    <path d="M 781.2 271.793125 
L 781.2 43.446328 
" style="fill: none; stroke: #000000; stroke-width: 0.8; stroke-linejoin: miter; stroke-linecap: square"/>
   </g>
   <g id="patch_23">
    <path d="M 511.121875 271.793125 
L 781.2 271.793125 
" style="fill: none; stroke: #000000; stroke-width: 0.8; stroke-linejoin: miter; stroke-linecap: square"/>
   </g>
   <g id="patch_24">
    <path d="M 511.121875 43.446328 
L 781.2 43.446328 
" style="fill: none; stroke: #000000; stroke-width: 0.8; stroke-linejoin: miter; stroke-linecap: square"/>
   </g>
   <g id="text_34">
    <!-- El salto entre efemérides consecutivas -->
    <g transform="translate(529.852812 22.563047) scale(0.12 -0.12)">
     <defs>
      <path id="DejaVuSans-49" d="M 2375 4863 
L 2375 4384 
L 1825 4384 
Q 1516 4384 1395 4259 
Q 1275 4134 1275 3809 
L 1275 3500 
L 2222 3500 
L 2222 3053 
L 1275 3053 
L 1275 0 
L 697 0 
L 697 3053 
L 147 3053 
L 147 3500 
L 697 3500 
L 697 3744 
Q 697 4328 969 4595 
Q 1241 4863 1831 4863 
L 2375 4863 
z
" transform="scale(0.015625)"/>
      <path id="DejaVuSans-ab" d="M 3597 1894 
L 3597 1613 
L 953 1613 
Q 991 1019 1311 708 
Q 1631 397 2203 397 
Q 2534 397 2845 478 
Q 3156 559 3463 722 
L 3463 178 
Q 3153 47 2828 -22 
Q 2503 -91 2169 -91 
Q 1331 -91 842 396 
Q 353 884 353 1716 
Q 353 2575 817 3079 
Q 1281 3584 2069 3584 
Q 2775 3584 3186 3129 
Q 3597 2675 3597 1894 
z
M 3022 2063 
Q 3016 2534 2758 2815 
Q 2500 3097 2075 3097 
Q 1594 3097 1305 2825 
Q 1016 2553 972 2059 
L 3022 2063 
z
M 2468 5119 
L 3090 5119 
L 2072 3944 
L 1593 3944 
L 2468 5119 
z
" transform="scale(0.015625)"/>
     </defs>
     <use xlink:href="#DejaVuSans-28"/>
     <use xlink:href="#DejaVuSans-4f" transform="translate(63.1875 0)"/>
     <use xlink:href="#DejaVuSans-3" transform="translate(90.96875 0)"/>
     <use xlink:href="#DejaVuSans-56" transform="translate(122.75 0)"/>
     <use xlink:href="#DejaVuSans-44" transform="translate(174.84375 0)"/>
     <use xlink:href="#DejaVuSans-4f" transform="translate(236.125 0)"/>
     <use xlink:href="#DejaVuSans-57" transform="translate(263.90625 0)"/>
     <use xlink:href="#DejaVuSans-52" transform="translate(303.109375 0)"/>
     <use xlink:href="#DejaVuSans-3" transform="translate(364.296875 0)"/>
     <use xlink:href="#DejaVuSans-48" transform="translate(396.078125 0)"/>
     <use xlink:href="#DejaVuSans-51" transform="translate(457.609375 0)"/>
     <use xlink:href="#DejaVuSans-57" transform="translate(520.984375 0)"/>
     <use xlink:href="#DejaVuSans-55" transform="translate(560.1875 0)"/>
     <use xlink:href="#DejaVuSans-48" transform="translate(599.09375 0)"/>
     <use xlink:href="#DejaVuSans-3" transform="translate(660.625 0)"/>
     <use xlink:href="#DejaVuSans-48" transform="translate(692.40625 0)"/>
     <use xlink:href="#DejaVuSans-49" transform="translate(753.9375 0)"/>
     <use xlink:href="#DejaVuSans-48" transform="translate(789.140625 0)"/>
     <use xlink:href="#DejaVuSans-50" transform="translate(850.671875 0)"/>
     <use xlink:href="#DejaVuSans-ab" transform="translate(948.078125 0)"/>
     <use xlink:href="#DejaVuSans-55" transform="translate(1009.609375 0)"/>
     <use xlink:href="#DejaVuSans-4c" transform="translate(1050.71875 0)"/>
     <use xlink:href="#DejaVuSans-47" transform="translate(1078.5 0)"/>
     <use xlink:href="#DejaVuSans-48" transform="translate(1141.984375 0)"/>
     <use xlink:href="#DejaVuSans-56" transform="translate(1203.515625 0)"/>
     <use xlink:href="#DejaVuSans-3" transform="translate(1255.609375 0)"/>
     <use xlink:href="#DejaVuSans-46" transform="translate(1287.390625 0)"/>
     <use xlink:href="#DejaVuSans-52" transform="translate(1342.375 0)"/>
     <use xlink:href="#DejaVuSans-51" transform="translate(1403.5625 0)"/>
     <use xlink:href="#DejaVuSans-56" transform="translate(1466.9375 0)"/>
     <use xlink:href="#DejaVuSans-48" transform="translate(1519.03125 0)"/>
     <use xlink:href="#DejaVuSans-46" transform="translate(1580.5625 0)"/>
     <use xlink:href="#DejaVuSans-58" transform="translate(1635.546875 0)"/>
     <use xlink:href="#DejaVuSans-57" transform="translate(1698.921875 0)"/>
     <use xlink:href="#DejaVuSans-4c" transform="translate(1738.125 0)"/>
     <use xlink:href="#DejaVuSans-59" transform="translate(1765.90625 0)"/>
     <use xlink:href="#DejaVuSans-44" transform="translate(1825.09375 0)"/>
     <use xlink:href="#DejaVuSans-56" transform="translate(1886.375 0)"/>
    </g>
    <!-- (7 empalmes de E05): sub-métrico -->
    <g transform="translate(541.840625 37.446328) scale(0.12 -0.12)">
     <defs>
      <path id="DejaVuSans-1d" d="M 750 794 
L 1409 794 
L 1409 0 
L 750 0 
L 750 794 
z
M 750 3309 
L 1409 3309 
L 1409 2516 
L 750 2516 
L 750 3309 
z
" transform="scale(0.015625)"/>
      <path id="DejaVuSans-45" d="M 3116 1747 
Q 3116 2381 2855 2742 
Q 2594 3103 2138 3103 
Q 1681 3103 1420 2742 
Q 1159 2381 1159 1747 
Q 1159 1113 1420 752 
Q 1681 391 2138 391 
Q 2594 391 2855 752 
Q 3116 1113 3116 1747 
z
M 1159 2969 
Q 1341 3281 1617 3432 
Q 1894 3584 2278 3584 
Q 2916 3584 3314 3078 
Q 3713 2572 3713 1747 
Q 3713 922 3314 415 
Q 2916 -91 2278 -91 
Q 1894 -91 1617 61 
Q 1341 213 1159 525 
L 1159 0 
L 581 0 
L 581 4863 
L 1159 4863 
L 1159 2969 
z
" transform="scale(0.015625)"/>
     </defs>
     <use xlink:href="#DejaVuSans-b"/>
     <use xlink:href="#DejaVuSans-1a" transform="translate(39.015625 0)"/>
     <use xlink:href="#DejaVuSans-3" transform="translate(102.640625 0)"/>
     <use xlink:href="#DejaVuSans-48" transform="translate(134.421875 0)"/>
     <use xlink:href="#DejaVuSans-50" transform="translate(195.953125 0)"/>
     <use xlink:href="#DejaVuSans-53" transform="translate(293.359375 0)"/>
     <use xlink:href="#DejaVuSans-44" transform="translate(356.84375 0)"/>
     <use xlink:href="#DejaVuSans-4f" transform="translate(418.125 0)"/>
     <use xlink:href="#DejaVuSans-50" transform="translate(445.90625 0)"/>
     <use xlink:href="#DejaVuSans-48" transform="translate(543.3125 0)"/>
     <use xlink:href="#DejaVuSans-56" transform="translate(604.84375 0)"/>
     <use xlink:href="#DejaVuSans-3" transform="translate(656.9375 0)"/>
     <use xlink:href="#DejaVuSans-47" transform="translate(688.71875 0)"/>
     <use xlink:href="#DejaVuSans-48" transform="translate(752.203125 0)"/>
     <use xlink:href="#DejaVuSans-3" transform="translate(813.734375 0)"/>
     <use xlink:href="#DejaVuSans-28" transform="translate(845.515625 0)"/>
     <use xlink:href="#DejaVuSans-13" transform="translate(908.703125 0)"/>
     <use xlink:href="#DejaVuSans-18" transform="translate(972.328125 0)"/>
     <use xlink:href="#DejaVuSans-c" transform="translate(1035.953125 0)"/>
     <use xlink:href="#DejaVuSans-1d" transform="translate(1074.96875 0)"/>
     <use xlink:href="#DejaVuSans-3" transform="translate(1108.65625 0)"/>
     <use xlink:href="#DejaVuSans-56" transform="translate(1140.4375 0)"/>
     <use xlink:href="#DejaVuSans-58" transform="translate(1192.53125 0)"/>
     <use xlink:href="#DejaVuSans-45" transform="translate(1255.90625 0)"/>
     <use xlink:href="#DejaVuSans-10" transform="translate(1319.390625 0)"/>
     <use xlink:href="#DejaVuSans-50" transform="translate(1355.46875 0)"/>
     <use xlink:href="#DejaVuSans-ab" transform="translate(1452.875 0)"/>
     <use xlink:href="#DejaVuSans-57" transform="translate(1514.40625 0)"/>
     <use xlink:href="#DejaVuSans-55" transform="translate(1553.609375 0)"/>
     <use xlink:href="#DejaVuSans-4c" transform="translate(1594.71875 0)"/>
     <use xlink:href="#DejaVuSans-46" transform="translate(1622.5 0)"/>
     <use xlink:href="#DejaVuSans-52" transform="translate(1677.484375 0)"/>
    </g>
   </g>
   <g id="legend_2">
    <g id="patch_25">
     <path d="M 516.721875 74.167578 
L 605.351875 74.167578 
Q 606.951875 74.167578 606.951875 72.567578 
L 606.951875 49.046328 
Q 606.951875 47.446328 605.351875 47.446328 
L 516.721875 47.446328 
Q 515.121875 47.446328 515.121875 49.046328 
L 515.121875 72.567578 
Q 515.121875 74.167578 516.721875 74.167578 
z
" style="fill: #ffffff; opacity: 0.8; stroke: #cccccc; stroke-linejoin: miter"/>
    </g>
    <g id="patch_26">
     <path d="M 518.321875 56.725078 
L 534.321875 56.725078 
L 534.321875 51.125078 
L 518.321875 51.125078 
z
" style="fill: #2ca02c"/>
    </g>
    <g id="text_35">
     <!-- medio 0.73 m -->
     <g transform="translate(540.721875 56.725078) scale(0.08 -0.08)">
      <use xlink:href="#DejaVuSans-50"/>
      <use xlink:href="#DejaVuSans-48" transform="translate(97.40625 0)"/>
      <use xlink:href="#DejaVuSans-47" transform="translate(158.9375 0)"/>
      <use xlink:href="#DejaVuSans-4c" transform="translate(222.421875 0)"/>
      <use xlink:href="#DejaVuSans-52" transform="translate(250.203125 0)"/>
      <use xlink:href="#DejaVuSans-3" transform="translate(311.390625 0)"/>
      <use xlink:href="#DejaVuSans-13" transform="translate(343.171875 0)"/>
      <use xlink:href="#DejaVuSans-11" transform="translate(406.796875 0)"/>
      <use xlink:href="#DejaVuSans-1a" transform="translate(438.578125 0)"/>
      <use xlink:href="#DejaVuSans-16" transform="translate(502.203125 0)"/>
      <use xlink:href="#DejaVuSans-3" transform="translate(565.828125 0)"/>
      <use xlink:href="#DejaVuSans-50" transform="translate(597.609375 0)"/>
     </g>
    </g>
    <g id="patch_27">
     <path d="M 518.321875 69.045703 
L 534.321875 69.045703 
L 534.321875 63.445703 
L 518.321875 63.445703 
z
" style="fill: #bcbd22"/>
    </g>
    <g id="text_36">
     <!-- máximo 1.72 m -->
     <g transform="translate(540.721875 69.045703) scale(0.08 -0.08)">
      <use xlink:href="#DejaVuSans-50"/>
      <use xlink:href="#DejaVuSans-a3" transform="translate(97.40625 0)"/>
      <use xlink:href="#DejaVuSans-5b" transform="translate(158.6875 0)"/>
      <use xlink:href="#DejaVuSans-4c" transform="translate(217.875 0)"/>
      <use xlink:href="#DejaVuSans-50" transform="translate(245.65625 0)"/>
      <use xlink:href="#DejaVuSans-52" transform="translate(343.0625 0)"/>
      <use xlink:href="#DejaVuSans-3" transform="translate(404.25 0)"/>
      <use xlink:href="#DejaVuSans-14" transform="translate(436.03125 0)"/>
      <use xlink:href="#DejaVuSans-11" transform="translate(499.65625 0)"/>
      <use xlink:href="#DejaVuSans-1a" transform="translate(531.4375 0)"/>
      <use xlink:href="#DejaVuSans-15" transform="translate(595.0625 0)"/>
      <use xlink:href="#DejaVuSans-3" transform="translate(658.6875 0)"/>
      <use xlink:href="#DejaVuSans-50" transform="translate(690.46875 0)"/>
     </g>
    </g>
   </g>
  </g>
 </g>
 <defs>
  <clipPath id="pc83ba26e91">
   <rect x="51.562344" y="43.446328" width="405.117188" height="228.346797"/>
  </clipPath>
  <clipPath id="pfc8da15c97">
   <rect x="511.121875" y="43.446328" width="270.078125" height="228.346797"/>
  </clipPath>
 </defs>
</svg>
