<?xml version="1.0" encoding="utf-8" standalone="no"?>
<!DOCTYPE svg PUBLIC "-//W3C//DTD SVG 1.1//EN"
  "http://www.w3.org/Graphics/SVG/1.1/DTD/svg11.dtd">
<svg xmlns:xlink="http://www.w3.org/1999/xlink" width="648pt" height="360pt" viewBox="0 0 648 360" xmlns="http://www.w3.org/2000/svg" version="1.1">
 <metadata>
  <rdf:RDF xmlns:dc="http://purl.org/dc/elements/1.1/" xmlns:cc="http://creativecommons.org/ns#" xmlns:rdf="http://www.w3.org/1999/02/22-rdf-syntax-ns#">
   <cc:Work>
    <dc:type rdf:resource="http://purl.org/dc/dcmitype/StillImage"/>
    <dc:date>2026-07-06T01:59:35.822549</dc:date>
    <dc:format>image/svg+xml</dc:format>
    <dc:creator>
     <cc:Agent>
      <dc:title>Matplotlib v3.11.0, https://matplotlib.org/</dc:title>
     </cc:Agent>
    </dc:creator>
   </cc:Work>
  </rdf:RDF>
 </metadata>
 <defs>
  <style type="text/css">*{stroke-linejoin: round; stroke-linecap: butt}</style>
 </defs>
 <g id="figure_1">
  <g id="patch_1">
   <path d="M 0 360 
L 648 360 
L 648 0 
L 0 0 
z
" style="fill: #ffffff"/>
  </g>
  <g id="axes_1">
   <g id="patch_2">
    <path d="M 47.962344 317.877656 
L 618.747273 317.877656 
L 618.747273 43.446328 
L 47.962344 43.446328 
z
" style="fill: #ffffff"/>
   </g>
   <g id="FillBetweenPolyCollection_1">
    <defs>
     <path id="m84bb0fd0b2" d="M 73.907113 -68.977845 
L 73.907113 -54.596495 
L 81.113994 -54.596495 
L 88.320874 -54.596495 
L 95.527754 -54.596495 
L 102.734635 -54.596495 
L 109.941515 -54.596495 
L 117.148396 -54.596495 
L 124.355276 -54.596495 
L 131.562157 -54.596495 
L 138.769037 -54.596495 
L 145.975917 -54.596495 
L 153.182798 -54.596495 
L 160.389678 -54.596495 
L 167.596559 -54.596495 
L 174.803439 -54.596495 
L 182.010319 -54.596495 
L 189.2172 -54.596495 
L 196.42408 -54.596495 
L 203.630961 -54.596495 
L 210.837841 -54.596495 
L 218.044722 -54.596495 
L 225.251602 -54.596495 
L 232.458482 -54.596495 
L 239.665363 -54.596495 
L 246.872243 -54.596495 
L 254.079124 -54.596495 
L 261.286004 -54.596495 
L 268.492884 -54.596495 
L 275.699765 -54.596495 
L 282.906645 -54.596495 
L 290.113526 -54.596495 
L 297.320406 -54.596495 
L 304.527287 -54.596495 
L 311.734167 -54.596495 
L 318.941047 -54.596495 
L 326.147928 -54.596495 
L 333.354808 -54.596495 
L 340.561689 -54.596495 
L 347.768569 -54.596495 
L 354.975449 -54.596495 
L 362.18233 -54.596495 
L 369.38921 -54.596495 
L 376.596091 -54.596495 
L 383.802971 -54.596495 
L 391.009852 -54.596495 
L 398.216732 -54.596495 
L 405.423612 -54.596495 
L 412.630493 -54.596495 
L 419.837373 -54.596495 
L 427.044254 -54.596495 
L 434.251134 -54.596495 
L 441.458014 -54.596495 
L 448.664895 -54.596495 
L 455.871775 -54.596495 
L 463.078656 -54.596495 
L 470.285536 -54.596495 
L 477.492417 -54.596495 
L 484.699297 -54.596495 
L 491.906177 -54.596495 
L 499.113058 -54.596495 
L 506.319938 -54.596495 
L 513.526819 -54.596495 
L 520.733699 -54.596495 
L 527.940579 -54.596495 
L 535.14746 -54.596495 
L 542.35434 -54.596495 
L 549.561221 -54.596495 
L 556.768101 -54.596495 
L 563.974982 -54.596495 
L 571.181862 -54.596495 
L 578.388742 -54.596495 
L 585.595623 -54.596495 
L 592.802503 -54.596495 
L 592.802503 -304.079521 
L 592.802503 -304.079521 
L 585.595623 -297.400963 
L 578.388742 -290.347419 
L 571.181862 -283.004946 
L 563.974982 -275.466469 
L 556.768101 -267.829652 
L 549.561221 -260.194626 
L 542.35434 -252.661594 
L 535.14746 -245.3284 
L 527.940579 -238.288107 
L 520.733699 -231.626664 
L 513.526819 -225.420758 
L 506.319938 -219.735932 
L 499.113058 -214.625055 
L 491.906177 -210.127233 
L 484.699297 -206.267197 
L 477.492417 -203.055172 
L 470.285536 -200.48719 
L 463.078656 -198.545746 
L 455.871775 -197.200704 
L 448.664895 -196.410311 
L 441.458014 -196.122267 
L 434.251134 -196.274781 
L 427.044254 -196.797642 
L 419.837373 -197.613333 
L 412.630493 -198.638257 
L 405.423612 -199.784112 
L 398.216732 -200.959458 
L 391.009852 -202.071463 
L 383.802971 -203.0278 
L 376.596091 -203.738644 
L 369.38921 -204.118707 
L 362.18233 -204.089225 
L 354.975449 -203.579852 
L 347.768569 -202.530376 
L 340.561689 -200.892216 
L 333.354808 -198.629653 
L 326.147928 -195.720762 
L 318.941047 -192.158028 
L 311.734167 -187.948616 
L 304.527287 -183.114316 
L 297.320406 -177.691143 
L 290.113526 -171.728622 
L 282.906645 -165.288765 
L 275.699765 -158.444779 
L 268.492884 -151.279528 
L 261.286004 -143.88379 
L 254.079124 -136.354351 
L 246.872243 -128.79199 
L 239.665363 -121.299376 
L 232.458482 -113.978939 
L 225.251602 -106.930717 
L 218.044722 -100.250183 
L 210.837841 -94.025955 
L 203.630961 -88.337194 
L 196.42408 -83.250293 
L 189.2172 -78.814227 
L 182.010319 -75.053907 
L 174.803439 -71.961721 
L 167.596559 -69.48999 
L 160.389678 -67.55087 
L 153.182798 -66.031111 
L 145.975917 -64.822131 
L 138.769037 -63.855414 
L 131.562157 -63.128888 
L 124.355276 -62.71007 
L 117.148396 -62.699299 
L 109.941515 -63.154147 
L 102.734635 -64.031915 
L 95.527754 -65.205562 
L 88.320874 -66.518134 
L 81.113994 -67.819467 
L 73.907113 -68.977845 
z
" style="stroke: #d62728; stroke-opacity: 0.1"/>
    </defs>
    <g clip-path="url(#pb7e8fc3f71)">
     <use xlink:href="#m84bb0fd0b2" x="0" y="360" style="fill: #d62728; fill-opacity: 0.1; stroke: #d62728; stroke-opacity: 0.1"/>
    </g>
   </g>
   <g id="patch_3">
    <path d="M 47.962344 305.403505 
L 618.747273 305.403505 
L 618.747273 304.71104 
L 47.962344 304.71104 
z
" clip-path="url(#pb7e8fc3f71)" style="fill: #2ca02c; opacity: 0.2; stroke: #2ca02c; stroke-linejoin: miter"/>
   </g>
   <g id="matplotlib.axis_1">
    <g id="xtick_1">
     <g id="line2d_1">
      <path d="M 73.907113 317.877656 
L 73.907113 43.446328 
" clip-path="url(#pb7e8fc3f71)" style="fill: none; stroke: #b0b0b0; stroke-opacity: 0.3; stroke-width: 0.8; stroke-linecap: square"/>
     </g>
     <g id="line2d_2">
      <defs>
       <path id="m27e191db48" d="M 0 0 
L 0 3.5 
" style="stroke: #000000; stroke-width: 0.8"/>
      </defs>
      <g>
       <use xlink:href="#m27e191db48" x="73.907113" y="317.877656" style="stroke: #000000; stroke-width: 0.8"/>
      </g>
     </g>
     <g id="text_1">
      <!-- 0 -->
      <g transform="translate(70.725863 332.475312) scale(0.1 -0.1)">
       <defs>
        <path id="DejaVuSans-13" d="M 2034 4250 
Q 1547 4250 1301 3770 
Q 1056 3291 1056 2328 
Q 1056 1369 1301 889 
Q 1547 409 2034 409 
Q 2525 409 2770 889 
Q 3016 1369 3016 2328 
Q 3016 3291 2770 3770 
Q 2525 4250 2034 4250 
z
M 2034 4750 
Q 2819 4750 3233 4129 
Q 3647 3509 3647 2328 
Q 3647 1150 3233 529 
Q 2819 -91 2034 -91 
Q 1250 -91 836 529 
Q 422 1150 422 2328 
Q 422 3509 836 4129 
Q 1250 4750 2034 4750 
z
" transform="scale(0.015625)"/>
       </defs>
       <use xlink:href="#DejaVuSans-13"/>
      </g>
     </g>
    </g>
    <g id="xtick_2">
     <g id="line2d_3">
      <path d="M 160.389678 317.877656 
L 160.389678 43.446328 
" clip-path="url(#pb7e8fc3f71)" style="fill: none; stroke: #b0b0b0; stroke-opacity: 0.3; stroke-width: 0.8; stroke-linecap: square"/>
     </g>
     <g id="line2d_4">
      <g>
       <use xlink:href="#m27e191db48" x="160.389678" y="317.877656" style="stroke: #000000; stroke-width: 0.8"/>
      </g>
     </g>
     <g id="text_2">
      <!-- 2 -->
      <g transform="translate(157.208428 332.475312) scale(0.1 -0.1)">
       <defs>
        <path id="DejaVuSans-15" d="M 1228 531 
L 3431 531 
L 3431 0 
L 469 0 
L 469 531 
Q 828 903 1448 1529 
Q 2069 2156 2228 2338 
Q 2531 2678 2651 2914 
Q 2772 3150 2772 3378 
Q 2772 3750 2511 3984 
Q 2250 4219 1831 4219 
Q 1534 4219 1204 4116 
Q 875 4013 500 3803 
L 500 4441 
Q 881 4594 1212 4672 
Q 1544 4750 1819 4750 
Q 2544 4750 2975 4387 
Q 3406 4025 3406 3419 
Q 3406 3131 3298 2873 
Q 3191 2616 2906 2266 
Q 2828 2175 2409 1742 
Q 1991 1309 1228 531 
z
" transform="scale(0.015625)"/>
       </defs>
       <use xlink:href="#DejaVuSans-15"/>
      </g>
     </g>
    </g>
    <g id="xtick_3">
     <g id="line2d_5">
      <path d="M 246.872243 317.877656 
L 246.872243 43.446328 
" clip-path="url(#pb7e8fc3f71)" style="fill: none; stroke: #b0b0b0; stroke-opacity: 0.3; stroke-width: 0.8; stroke-linecap: square"/>
     </g>
     <g id="line2d_6">
      <g>
       <use xlink:href="#m27e191db48" x="246.872243" y="317.877656" style="stroke: #000000; stroke-width: 0.8"/>
      </g>
     </g>
     <g id="text_3">
      <!-- 4 -->
      <g transform="translate(243.690993 332.475312) scale(0.1 -0.1)">
       <defs>
        <path id="DejaVuSans-17" d="M 2419 4116 
L 825 1625 
L 2419 1625 
L 2419 4116 
z
M 2253 4666 
L 3047 4666 
L 3047 1625 
L 3713 1625 
L 3713 1100 
L 3047 1100 
L 3047 0 
L 2419 0 
L 2419 1100 
L 313 1100 
L 313 1709 
L 2253 4666 
z
" transform="scale(0.015625)"/>
       </defs>
       <use xlink:href="#DejaVuSans-17"/>
      </g>
     </g>
    </g>
    <g id="xtick_4">
     <g id="line2d_7">
      <path d="M 333.354808 317.877656 
L 333.354808 43.446328 
" clip-path="url(#pb7e8fc3f71)" style="fill: none; stroke: #b0b0b0; stroke-opacity: 0.3; stroke-width: 0.8; stroke-linecap: square"/>
     </g>
     <g id="line2d_8">
      <g>
       <use xlink:href="#m27e191db48" x="333.354808" y="317.877656" style="stroke: #000000; stroke-width: 0.8"/>
      </g>
     </g>
     <g id="text_4">
      <!-- 6 -->
      <g transform="translate(330.173558 332.475312) scale(0.1 -0.1)">
       <defs>
        <path id="DejaVuSans-19" d="M 2113 2584 
Q 1688 2584 1439 2293 
Q 1191 2003 1191 1497 
Q 1191 994 1439 701 
Q 1688 409 2113 409 
Q 2538 409 2786 701 
Q 3034 994 3034 1497 
Q 3034 2003 2786 2293 
Q 2538 2584 2113 2584 
z
M 3366 4563 
L 3366 3988 
Q 3128 4100 2886 4159 
Q 2644 4219 2406 4219 
Q 1781 4219 1451 3797 
Q 1122 3375 1075 2522 
Q 1259 2794 1537 2939 
Q 1816 3084 2150 3084 
Q 2853 3084 3261 2657 
Q 3669 2231 3669 1497 
Q 3669 778 3244 343 
Q 2819 -91 2113 -91 
Q 1303 -91 875 529 
Q 447 1150 447 2328 
Q 447 3434 972 4092 
Q 1497 4750 2381 4750 
Q 2619 4750 2861 4703 
Q 3103 4656 3366 4563 
z
" transform="scale(0.015625)"/>
       </defs>
       <use xlink:href="#DejaVuSans-19"/>
      </g>
     </g>
    </g>
    <g id="xtick_5">
     <g id="line2d_9">
      <path d="M 419.837373 317.877656 
L 419.837373 43.446328 
" clip-path="url(#pb7e8fc3f71)" style="fill: none; stroke: #b0b0b0; stroke-opacity: 0.3; stroke-width: 0.8; stroke-linecap: square"/>
     </g>
     <g id="line2d_10">
      <g>
       <use xlink:href="#m27e191db48" x="419.837373" y="317.877656" style="stroke: #000000; stroke-width: 0.8"/>
      </g>
     </g>
     <g id="text_5">
      <!-- 8 -->
      <g transform="translate(416.656123 332.475312) scale(0.1 -0.1)">
       <defs>
        <path id="DejaVuSans-1b" d="M 2034 2216 
Q 1584 2216 1326 1975 
Q 1069 1734 1069 1313 
Q 1069 891 1326 650 
Q 1584 409 2034 409 
Q 2484 409 2743 651 
Q 3003 894 3003 1313 
Q 3003 1734 2745 1975 
Q 2488 2216 2034 2216 
z
M 1403 2484 
Q 997 2584 770 2862 
Q 544 3141 544 3541 
Q 544 4100 942 4425 
Q 1341 4750 2034 4750 
Q 2731 4750 3128 4425 
Q 3525 4100 3525 3541 
Q 3525 3141 3298 2862 
Q 3072 2584 2669 2484 
Q 3125 2378 3379 2068 
Q 3634 1759 3634 1313 
Q 3634 634 3220 271 
Q 2806 -91 2034 -91 
Q 1263 -91 848 271 
Q 434 634 434 1313 
Q 434 1759 690 2068 
Q 947 2378 1403 2484 
z
M 1172 3481 
Q 1172 3119 1398 2916 
Q 1625 2713 2034 2713 
Q 2441 2713 2670 2916 
Q 2900 3119 2900 3481 
Q 2900 3844 2670 4047 
Q 2441 4250 2034 4250 
Q 1625 4250 1398 4047 
Q 1172 3844 1172 3481 
z
" transform="scale(0.015625)"/>
       </defs>
       <use xlink:href="#DejaVuSans-1b"/>
      </g>
     </g>
    </g>
    <g id="xtick_6">
     <g id="line2d_11">
      <path d="M 506.319938 317.877656 
L 506.319938 43.446328 
" clip-path="url(#pb7e8fc3f71)" style="fill: none; stroke: #b0b0b0; stroke-opacity: 0.3; stroke-width: 0.8; stroke-linecap: square"/>
     </g>
     <g id="line2d_12">
      <g>
       <use xlink:href="#m27e191db48" x="506.319938" y="317.877656" style="stroke: #000000; stroke-width: 0.8"/>
      </g>
     </g>
     <g id="text_6">
      <!-- 10 -->
      <g transform="translate(499.957438 332.475312) scale(0.1 -0.1)">
       <defs>
        <path id="DejaVuSans-14" d="M 794 531 
L 1825 531 
L 1825 4091 
L 703 3866 
L 703 4441 
L 1819 4666 
L 2450 4666 
L 2450 531 
L 3481 531 
L 3481 0 
L 794 0 
L 794 531 
z
" transform="scale(0.015625)"/>
       </defs>
       <use xlink:href="#DejaVuSans-14"/>
       <use xlink:href="#DejaVuSans-13" transform="translate(63.625 0)"/>
      </g>
     </g>
    </g>
    <g id="xtick_7">
     <g id="line2d_13">
      <path d="M 592.802503 317.877656 
L 592.802503 43.446328 
" clip-path="url(#pb7e8fc3f71)" style="fill: none; stroke: #b0b0b0; stroke-opacity: 0.3; stroke-width: 0.8; stroke-linecap: square"/>
     </g>
     <g id="line2d_14">
      <g>
       <use xlink:href="#m27e191db48" x="592.802503" y="317.877656" style="stroke: #000000; stroke-width: 0.8"/>
      </g>
     </g>
     <g id="text_7">
      <!-- 12 -->
      <g transform="translate(586.440003 332.475312) scale(0.1 -0.1)">
       <use xlink:href="#DejaVuSans-14"/>
       <use xlink:href="#DejaVuSans-15" transform="translate(63.625 0)"/>
      </g>
     </g>
    </g>
    <g id="text_8">
     <!-- horas extrapoladas desde Toe -->
     <g transform="translate(258.630589 346.476094) scale(0.1 -0.1)">
      <defs>
       <path id="DejaVuSans-4b" d="M 3513 2113 
L 3513 0 
L 2938 0 
L 2938 2094 
Q 2938 2591 2744 2837 
Q 2550 3084 2163 3084 
Q 1697 3084 1428 2787 
Q 1159 2491 1159 1978 
L 1159 0 
L 581 0 
L 581 4863 
L 1159 4863 
L 1159 2956 
Q 1366 3272 1645 3428 
Q 1925 3584 2291 3584 
Q 2894 3584 3203 3211 
Q 3513 2838 3513 2113 
z
" transform="scale(0.015625)"/>
       <path id="DejaVuSans-52" d="M 1959 3097 
Q 1497 3097 1228 2736 
Q 959 2375 959 1747 
Q 959 1119 1226 758 
Q 1494 397 1959 397 
Q 2419 397 2687 759 
Q 2956 1122 2956 1747 
Q 2956 2369 2687 2733 
Q 2419 3097 1959 3097 
z
M 1959 3584 
Q 2709 3584 3137 3096 
Q 3566 2609 3566 1747 
Q 3566 888 3137 398 
Q 2709 -91 1959 -91 
Q 1206 -91 779 398 
Q 353 888 353 1747 
Q 353 2609 779 3096 
Q 1206 3584 1959 3584 
z
" transform="scale(0.015625)"/>
       <path id="DejaVuSans-55" d="M 2631 2963 
Q 2534 3019 2420 3045 
Q 2306 3072 2169 3072 
Q 1681 3072 1420 2755 
Q 1159 2438 1159 1844 
L 1159 0 
L 581 0 
L 581 3500 
L 1159 3500 
L 1159 2956 
Q 1341 3275 1631 3429 
Q 1922 3584 2338 3584 
Q 2397 3584 2469 3576 
Q 2541 3569 2628 3553 
L 2631 2963 
z
" transform="scale(0.015625)"/>
       <path id="DejaVuSans-44" d="M 2194 1759 
Q 1497 1759 1228 1600 
Q 959 1441 959 1056 
Q 959 750 1161 570 
Q 1363 391 1709 391 
Q 2188 391 2477 730 
Q 2766 1069 2766 1631 
L 2766 1759 
L 2194 1759 
z
M 3341 1997 
L 3341 0 
L 2766 0 
L 2766 531 
Q 2569 213 2275 61 
Q 1981 -91 1556 -91 
Q 1019 -91 701 211 
Q 384 513 384 1019 
Q 384 1609 779 1909 
Q 1175 2209 1959 2209 
L 2766 2209 
L 2766 2266 
Q 2766 2663 2505 2880 
Q 2244 3097 1772 3097 
Q 1472 3097 1187 3025 
Q 903 2953 641 2809 
L 641 3341 
Q 956 3463 1253 3523 
Q 1550 3584 1831 3584 
Q 2591 3584 2966 3190 
Q 3341 2797 3341 1997 
z
" transform="scale(0.015625)"/>
       <path id="DejaVuSans-56" d="M 2834 3397 
L 2834 2853 
Q 2591 2978 2328 3040 
Q 2066 3103 1784 3103 
Q 1356 3103 1142 2972 
Q 928 2841 928 2578 
Q 928 2378 1081 2264 
Q 1234 2150 1697 2047 
L 1894 2003 
Q 2506 1872 2764 1633 
Q 3022 1394 3022 966 
Q 3022 478 2636 193 
Q 2250 -91 1575 -91 
Q 1294 -91 989 -36 
Q 684 19 347 128 
L 347 722 
Q 666 556 975 473 
Q 1284 391 1588 391 
Q 1994 391 2212 530 
Q 2431 669 2431 922 
Q 2431 1156 2273 1281 
Q 2116 1406 1581 1522 
L 1381 1569 
Q 847 1681 609 1914 
Q 372 2147 372 2553 
Q 372 3047 722 3315 
Q 1072 3584 1716 3584 
Q 2034 3584 2315 3537 
Q 2597 3491 2834 3397 
z
" transform="scale(0.015625)"/>
       <path id="DejaVuSans-3" transform="scale(0.015625)"/>
       <path id="DejaVuSans-48" d="M 3597 1894 
L 3597 1613 
L 953 1613 
Q 991 1019 1311 708 
Q 1631 397 2203 397 
Q 2534 397 2845 478 
Q 3156 559 3463 722 
L 3463 178 
Q 3153 47 2828 -22 
Q 2503 -91 2169 -91 
Q 1331 -91 842 396 
Q 353 884 353 1716 
Q 353 2575 817 3079 
Q 1281 3584 2069 3584 
Q 2775 3584 3186 3129 
Q 3597 2675 3597 1894 
z
M 3022 2063 
Q 3016 2534 2758 2815 
Q 2500 3097 2075 3097 
Q 1594 3097 1305 2825 
Q 1016 2553 972 2059 
L 3022 2063 
z
" transform="scale(0.015625)"/>
       <path id="DejaVuSans-5b" d="M 3513 3500 
L 2247 1797 
L 3578 0 
L 2900 0 
L 1881 1375 
L 863 0 
L 184 0 
L 1544 1831 
L 300 3500 
L 978 3500 
L 1906 2253 
L 2834 3500 
L 3513 3500 
z
" transform="scale(0.015625)"/>
       <path id="DejaVuSans-57" d="M 1172 4494 
L 1172 3500 
L 2356 3500 
L 2356 3053 
L 1172 3053 
L 1172 1153 
Q 1172 725 1289 603 
Q 1406 481 1766 481 
L 2356 481 
L 2356 0 
L 1766 0 
Q 1100 0 847 248 
Q 594 497 594 1153 
L 594 3053 
L 172 3053 
L 172 3500 
L 594 3500 
L 594 4494 
L 1172 4494 
z
" transform="scale(0.015625)"/>
       <path id="DejaVuSans-53" d="M 1159 525 
L 1159 -1331 
L 581 -1331 
L 581 3500 
L 1159 3500 
L 1159 2969 
Q 1341 3281 1617 3432 
Q 1894 3584 2278 3584 
Q 2916 3584 3314 3078 
Q 3713 2572 3713 1747 
Q 3713 922 3314 415 
Q 2916 -91 2278 -91 
Q 1894 -91 1617 61 
Q 1341 213 1159 525 
z
M 3116 1747 
Q 3116 2381 2855 2742 
Q 2594 3103 2138 3103 
Q 1681 3103 1420 2742 
Q 1159 2381 1159 1747 
Q 1159 1113 1420 752 
Q 1681 391 2138 391 
Q 2594 391 2855 752 
Q 3116 1113 3116 1747 
z
" transform="scale(0.015625)"/>
       <path id="DejaVuSans-4f" d="M 603 4863 
L 1178 4863 
L 1178 0 
L 603 0 
L 603 4863 
z
" transform="scale(0.015625)"/>
       <path id="DejaVuSans-47" d="M 2906 2969 
L 2906 4863 
L 3481 4863 
L 3481 0 
L 2906 0 
L 2906 525 
Q 2725 213 2448 61 
Q 2172 -91 1784 -91 
Q 1150 -91 751 415 
Q 353 922 353 1747 
Q 353 2572 751 3078 
Q 1150 3584 1784 3584 
Q 2172 3584 2448 3432 
Q 2725 3281 2906 2969 
z
M 947 1747 
Q 947 1113 1208 752 
Q 1469 391 1925 391 
Q 2381 391 2643 752 
Q 2906 1113 2906 1747 
Q 2906 2381 2643 2742 
Q 2381 3103 1925 3103 
Q 1469 3103 1208 2742 
Q 947 2381 947 1747 
z
" transform="scale(0.015625)"/>
       <path id="DejaVuSans-37" d="M -19 4666 
L 3928 4666 
L 3928 4134 
L 2272 4134 
L 2272 0 
L 1638 0 
L 1638 4134 
L -19 4134 
L -19 4666 
z
" transform="scale(0.015625)"/>
      </defs>
      <use xlink:href="#DejaVuSans-4b"/>
      <use xlink:href="#DejaVuSans-52" transform="translate(63.375 0)"/>
      <use xlink:href="#DejaVuSans-55" transform="translate(124.5625 0)"/>
      <use xlink:href="#DejaVuSans-44" transform="translate(165.671875 0)"/>
      <use xlink:href="#DejaVuSans-56" transform="translate(226.953125 0)"/>
      <use xlink:href="#DejaVuSans-3" transform="translate(279.046875 0)"/>
      <use xlink:href="#DejaVuSans-48" transform="translate(310.828125 0)"/>
      <use xlink:href="#DejaVuSans-5b" transform="translate(370.609375 0)"/>
      <use xlink:href="#DejaVuSans-57" transform="translate(429.796875 0)"/>
      <use xlink:href="#DejaVuSans-55" transform="translate(469 0)"/>
      <use xlink:href="#DejaVuSans-44" transform="translate(510.109375 0)"/>
      <use xlink:href="#DejaVuSans-53" transform="translate(571.390625 0)"/>
      <use xlink:href="#DejaVuSans-52" transform="translate(634.875 0)"/>
      <use xlink:href="#DejaVuSans-4f" transform="translate(696.0625 0)"/>
      <use xlink:href="#DejaVuSans-44" transform="translate(723.84375 0)"/>
      <use xlink:href="#DejaVuSans-47" transform="translate(785.125 0)"/>
      <use xlink:href="#DejaVuSans-44" transform="translate(848.609375 0)"/>
      <use xlink:href="#DejaVuSans-56" transform="translate(909.890625 0)"/>
      <use xlink:href="#DejaVuSans-3" transform="translate(961.984375 0)"/>
      <use xlink:href="#DejaVuSans-47" transform="translate(993.765625 0)"/>
      <use xlink:href="#DejaVuSans-48" transform="translate(1057.25 0)"/>
      <use xlink:href="#DejaVuSans-56" transform="translate(1118.78125 0)"/>
      <use xlink:href="#DejaVuSans-47" transform="translate(1170.875 0)"/>
      <use xlink:href="#DejaVuSans-48" transform="translate(1234.359375 0)"/>
      <use xlink:href="#DejaVuSans-3" transform="translate(1295.890625 0)"/>
      <use xlink:href="#DejaVuSans-37" transform="translate(1327.671875 0)"/>
      <use xlink:href="#DejaVuSans-52" transform="translate(1371.765625 0)"/>
      <use xlink:href="#DejaVuSans-48" transform="translate(1432.953125 0)"/>
     </g>
    </g>
   </g>
   <g id="matplotlib.axis_2">
    <g id="ytick_1">
     <g id="line2d_15">
      <path d="M 47.962344 305.403505 
L 618.747273 305.403505 
" clip-path="url(#pb7e8fc3f71)" style="fill: none; stroke: #b0b0b0; stroke-opacity: 0.3; stroke-width: 0.8; stroke-linecap: square"/>
     </g>
     <g id="line2d_16">
      <defs>
       <path id="m122e0bef4d" d="M 0 0 
L -3.5 0 
" style="stroke: #000000; stroke-width: 0.8"/>
      </defs>
      <g>
       <use xlink:href="#m122e0bef4d" x="47.962344" y="305.403505" style="stroke: #000000; stroke-width: 0.8"/>
      </g>
     </g>
     <g id="text_9">
      <!-- 0.0 -->
      <g transform="translate(25.059219 309.202333) scale(0.1 -0.1)">
       <defs>
        <path id="DejaVuSans-11" d="M 684 794 
L 1344 794 
L 1344 0 
L 684 0 
L 684 794 
z
" transform="scale(0.015625)"/>
       </defs>
       <use xlink:href="#DejaVuSans-13"/>
       <use xlink:href="#DejaVuSans-11" transform="translate(63.625 0)"/>
       <use xlink:href="#DejaVuSans-13" transform="translate(95.40625 0)"/>
      </g>
     </g>
    </g>
    <g id="ytick_2">
     <g id="line2d_17">
      <path d="M 47.962344 270.780276 
L 618.747273 270.780276 
" clip-path="url(#pb7e8fc3f71)" style="fill: none; stroke: #b0b0b0; stroke-opacity: 0.3; stroke-width: 0.8; stroke-linecap: square"/>
     </g>
     <g id="line2d_18">
      <g>
       <use xlink:href="#m122e0bef4d" x="47.962344" y="270.780276" style="stroke: #000000; stroke-width: 0.8"/>
      </g>
     </g>
     <g id="text_10">
      <!-- 0.5 -->
      <g transform="translate(25.059219 274.579104) scale(0.1 -0.1)">
       <defs>
        <path id="DejaVuSans-18" d="M 691 4666 
L 3169 4666 
L 3169 4134 
L 1269 4134 
L 1269 2991 
Q 1406 3038 1543 3061 
Q 1681 3084 1819 3084 
Q 2600 3084 3056 2656 
Q 3513 2228 3513 1497 
Q 3513 744 3044 326 
Q 2575 -91 1722 -91 
Q 1428 -91 1123 -41 
Q 819 9 494 109 
L 494 744 
Q 775 591 1075 516 
Q 1375 441 1709 441 
Q 2250 441 2565 725 
Q 2881 1009 2881 1497 
Q 2881 1984 2565 2268 
Q 2250 2553 1709 2553 
Q 1456 2553 1204 2497 
Q 953 2441 691 2322 
L 691 4666 
z
" transform="scale(0.015625)"/>
       </defs>
       <use xlink:href="#DejaVuSans-13"/>
       <use xlink:href="#DejaVuSans-11" transform="translate(63.625 0)"/>
       <use xlink:href="#DejaVuSans-18" transform="translate(95.40625 0)"/>
      </g>
     </g>
    </g>
    <g id="ytick_3">
     <g id="line2d_19">
      <path d="M 47.962344 236.157047 
L 618.747273 236.157047 
" clip-path="url(#pb7e8fc3f71)" style="fill: none; stroke: #b0b0b0; stroke-opacity: 0.3; stroke-width: 0.8; stroke-linecap: square"/>
     </g>
     <g id="line2d_20">
      <g>
       <use xlink:href="#m122e0bef4d" x="47.962344" y="236.157047" style="stroke: #000000; stroke-width: 0.8"/>
      </g>
     </g>
     <g id="text_11">
      <!-- 1.0 -->
      <g transform="translate(25.059219 239.955875) scale(0.1 -0.1)">
       <use xlink:href="#DejaVuSans-14"/>
       <use xlink:href="#DejaVuSans-11" transform="translate(63.625 0)"/>
       <use xlink:href="#DejaVuSans-13" transform="translate(95.40625 0)"/>
      </g>
     </g>
    </g>
    <g id="ytick_4">
     <g id="line2d_21">
      <path d="M 47.962344 201.533818 
L 618.747273 201.533818 
" clip-path="url(#pb7e8fc3f71)" style="fill: none; stroke: #b0b0b0; stroke-opacity: 0.3; stroke-width: 0.8; stroke-linecap: square"/>
     </g>
     <g id="line2d_22">
      <g>
       <use xlink:href="#m122e0bef4d" x="47.962344" y="201.533818" style="stroke: #000000; stroke-width: 0.8"/>
      </g>
     </g>
     <g id="text_12">
      <!-- 1.5 -->
      <g transform="translate(25.059219 205.332647) scale(0.1 -0.1)">
       <use xlink:href="#DejaVuSans-14"/>
       <use xlink:href="#DejaVuSans-11" transform="translate(63.625 0)"/>
       <use xlink:href="#DejaVuSans-18" transform="translate(95.40625 0)"/>
      </g>
     </g>
    </g>
    <g id="ytick_5">
     <g id="line2d_23">
      <path d="M 47.962344 166.91059 
L 618.747273 166.91059 
" clip-path="url(#pb7e8fc3f71)" style="fill: none; stroke: #b0b0b0; stroke-opacity: 0.3; stroke-width: 0.8; stroke-linecap: square"/>
     </g>
     <g id="line2d_24">
      <g>
       <use xlink:href="#m122e0bef4d" x="47.962344" y="166.91059" style="stroke: #000000; stroke-width: 0.8"/>
      </g>
     </g>
     <g id="text_13">
      <!-- 2.0 -->
      <g transform="translate(25.059219 170.709418) scale(0.1 -0.1)">
       <use xlink:href="#DejaVuSans-15"/>
       <use xlink:href="#DejaVuSans-11" transform="translate(63.625 0)"/>
       <use xlink:href="#DejaVuSans-13" transform="translate(95.40625 0)"/>
      </g>
     </g>
    </g>
    <g id="ytick_6">
     <g id="line2d_25">
      <path d="M 47.962344 132.287361 
L 618.747273 132.287361 
" clip-path="url(#pb7e8fc3f71)" style="fill: none; stroke: #b0b0b0; stroke-opacity: 0.3; stroke-width: 0.8; stroke-linecap: square"/>
     </g>
     <g id="line2d_26">
      <g>
       <use xlink:href="#m122e0bef4d" x="47.962344" y="132.287361" style="stroke: #000000; stroke-width: 0.8"/>
      </g>
     </g>
     <g id="text_14">
      <!-- 2.5 -->
      <g transform="translate(25.059219 136.086189) scale(0.1 -0.1)">
       <use xlink:href="#DejaVuSans-15"/>
       <use xlink:href="#DejaVuSans-11" transform="translate(63.625 0)"/>
       <use xlink:href="#DejaVuSans-18" transform="translate(95.40625 0)"/>
      </g>
     </g>
    </g>
    <g id="ytick_7">
     <g id="line2d_27">
      <path d="M 47.962344 97.664132 
L 618.747273 97.664132 
" clip-path="url(#pb7e8fc3f71)" style="fill: none; stroke: #b0b0b0; stroke-opacity: 0.3; stroke-width: 0.8; stroke-linecap: square"/>
     </g>
     <g id="line2d_28">
      <g>
       <use xlink:href="#m122e0bef4d" x="47.962344" y="97.664132" style="stroke: #000000; stroke-width: 0.8"/>
      </g>
     </g>
     <g id="text_15">
      <!-- 3.0 -->
      <g transform="translate(25.059219 101.46296) scale(0.1 -0.1)">
       <defs>
        <path id="DejaVuSans-16" d="M 2597 2516 
Q 3050 2419 3304 2112 
Q 3559 1806 3559 1356 
Q 3559 666 3084 287 
Q 2609 -91 1734 -91 
Q 1441 -91 1130 -33 
Q 819 25 488 141 
L 488 750 
Q 750 597 1062 519 
Q 1375 441 1716 441 
Q 2309 441 2620 675 
Q 2931 909 2931 1356 
Q 2931 1769 2642 2001 
Q 2353 2234 1838 2234 
L 1294 2234 
L 1294 2753 
L 1863 2753 
Q 2328 2753 2575 2939 
Q 2822 3125 2822 3475 
Q 2822 3834 2567 4026 
Q 2313 4219 1838 4219 
Q 1578 4219 1281 4162 
Q 984 4106 628 3988 
L 628 4550 
Q 988 4650 1302 4700 
Q 1616 4750 1894 4750 
Q 2613 4750 3031 4423 
Q 3450 4097 3450 3541 
Q 3450 3153 3228 2886 
Q 3006 2619 2597 2516 
z
" transform="scale(0.015625)"/>
       </defs>
       <use xlink:href="#DejaVuSans-16"/>
       <use xlink:href="#DejaVuSans-11" transform="translate(63.625 0)"/>
       <use xlink:href="#DejaVuSans-13" transform="translate(95.40625 0)"/>
      </g>
     </g>
    </g>
    <g id="ytick_8">
     <g id="line2d_29">
      <path d="M 47.962344 63.040903 
L 618.747273 63.040903 
" clip-path="url(#pb7e8fc3f71)" style="fill: none; stroke: #b0b0b0; stroke-opacity: 0.3; stroke-width: 0.8; stroke-linecap: square"/>
     </g>
     <g id="line2d_30">
      <g>
       <use xlink:href="#m122e0bef4d" x="47.962344" y="63.040903" style="stroke: #000000; stroke-width: 0.8"/>
      </g>
     </g>
     <g id="text_16">
      <!-- 3.5 -->
      <g transform="translate(25.059219 66.839731) scale(0.1 -0.1)">
       <use xlink:href="#DejaVuSans-16"/>
       <use xlink:href="#DejaVuSans-11" transform="translate(63.625 0)"/>
       <use xlink:href="#DejaVuSans-18" transform="translate(95.40625 0)"/>
      </g>
     </g>
    </g>
    <g id="text_17">
     <!-- error del kepleriano puro (km) -->
     <g transform="translate(18.656875 255.94793) rotate(-90) scale(0.1 -0.1)">
      <defs>
       <path id="DejaVuSans-4e" d="M 581 4863 
L 1159 4863 
L 1159 1991 
L 2875 3500 
L 3609 3500 
L 1753 1863 
L 3688 0 
L 2938 0 
L 1159 1709 
L 1159 0 
L 581 0 
L 581 4863 
z
" transform="scale(0.015625)"/>
       <path id="DejaVuSans-4c" d="M 603 3500 
L 1178 3500 
L 1178 0 
L 603 0 
L 603 3500 
z
M 603 4863 
L 1178 4863 
L 1178 4134 
L 603 4134 
L 603 4863 
z
" transform="scale(0.015625)"/>
       <path id="DejaVuSans-51" d="M 3513 2113 
L 3513 0 
L 2938 0 
L 2938 2094 
Q 2938 2591 2744 2837 
Q 2550 3084 2163 3084 
Q 1697 3084 1428 2787 
Q 1159 2491 1159 1978 
L 1159 0 
L 581 0 
L 581 3500 
L 1159 3500 
L 1159 2956 
Q 1366 3272 1645 3428 
Q 1925 3584 2291 3584 
Q 2894 3584 3203 3211 
Q 3513 2838 3513 2113 
z
" transform="scale(0.015625)"/>
       <path id="DejaVuSans-58" d="M 544 1381 
L 544 3500 
L 1119 3500 
L 1119 1403 
Q 1119 906 1312 657 
Q 1506 409 1894 409 
Q 2359 409 2629 706 
Q 2900 1003 2900 1516 
L 2900 3500 
L 3475 3500 
L 3475 0 
L 2900 0 
L 2900 538 
Q 2691 219 2414 64 
Q 2138 -91 1772 -91 
Q 1169 -91 856 284 
Q 544 659 544 1381 
z
M 1991 3584 
L 1991 3584 
z
" transform="scale(0.015625)"/>
       <path id="DejaVuSans-b" d="M 1984 4856 
Q 1566 4138 1362 3434 
Q 1159 2731 1159 2009 
Q 1159 1288 1364 580 
Q 1569 -128 1984 -844 
L 1484 -844 
Q 1016 -109 783 600 
Q 550 1309 550 2009 
Q 550 2706 781 3412 
Q 1013 4119 1484 4856 
L 1984 4856 
z
" transform="scale(0.015625)"/>
       <path id="DejaVuSans-50" d="M 3328 2828 
Q 3544 3216 3844 3400 
Q 4144 3584 4550 3584 
Q 5097 3584 5394 3201 
Q 5691 2819 5691 2113 
L 5691 0 
L 5113 0 
L 5113 2094 
Q 5113 2597 4934 2840 
Q 4756 3084 4391 3084 
Q 3944 3084 3684 2787 
Q 3425 2491 3425 1978 
L 3425 0 
L 2847 0 
L 2847 2094 
Q 2847 2600 2669 2842 
Q 2491 3084 2119 3084 
Q 1678 3084 1418 2786 
Q 1159 2488 1159 1978 
L 1159 0 
L 581 0 
L 581 3500 
L 1159 3500 
L 1159 2956 
Q 1356 3278 1631 3431 
Q 1906 3584 2284 3584 
Q 2666 3584 2933 3390 
Q 3200 3197 3328 2828 
z
" transform="scale(0.015625)"/>
       <path id="DejaVuSans-c" d="M 513 4856 
L 1013 4856 
Q 1481 4119 1714 3412 
Q 1947 2706 1947 2009 
Q 1947 1309 1714 600 
Q 1481 -109 1013 -844 
L 513 -844 
Q 928 -128 1133 580 
Q 1338 1288 1338 2009 
Q 1338 2731 1133 3434 
Q 928 4138 513 4856 
z
" transform="scale(0.015625)"/>
      </defs>
      <use xlink:href="#DejaVuSans-48"/>
      <use xlink:href="#DejaVuSans-55" transform="translate(61.53125 0)"/>
      <use xlink:href="#DejaVuSans-55" transform="translate(100.890625 0)"/>
      <use xlink:href="#DejaVuSans-52" transform="translate(139.796875 0)"/>
      <use xlink:href="#DejaVuSans-55" transform="translate(200.984375 0)"/>
      <use xlink:href="#DejaVuSans-3" transform="translate(242.09375 0)"/>
      <use xlink:href="#DejaVuSans-47" transform="translate(273.875 0)"/>
      <use xlink:href="#DejaVuSans-48" transform="translate(337.359375 0)"/>
      <use xlink:href="#DejaVuSans-4f" transform="translate(398.890625 0)"/>
      <use xlink:href="#DejaVuSans-3" transform="translate(426.671875 0)"/>
      <use xlink:href="#DejaVuSans-4e" transform="translate(458.453125 0)"/>
      <use xlink:href="#DejaVuSans-48" transform="translate(512.796875 0)"/>
      <use xlink:href="#DejaVuSans-53" transform="translate(574.328125 0)"/>
      <use xlink:href="#DejaVuSans-4f" transform="translate(637.8125 0)"/>
      <use xlink:href="#DejaVuSans-48" transform="translate(665.59375 0)"/>
      <use xlink:href="#DejaVuSans-55" transform="translate(727.125 0)"/>
      <use xlink:href="#DejaVuSans-4c" transform="translate(768.234375 0)"/>
      <use xlink:href="#DejaVuSans-44" transform="translate(796.015625 0)"/>
      <use xlink:href="#DejaVuSans-51" transform="translate(857.296875 0)"/>
      <use xlink:href="#DejaVuSans-52" transform="translate(920.671875 0)"/>
      <use xlink:href="#DejaVuSans-3" transform="translate(981.859375 0)"/>
      <use xlink:href="#DejaVuSans-53" transform="translate(1013.640625 0)"/>
      <use xlink:href="#DejaVuSans-58" transform="translate(1077.125 0)"/>
      <use xlink:href="#DejaVuSans-55" transform="translate(1140.5 0)"/>
      <use xlink:href="#DejaVuSans-52" transform="translate(1179.40625 0)"/>
      <use xlink:href="#DejaVuSans-3" transform="translate(1240.59375 0)"/>
      <use xlink:href="#DejaVuSans-b" transform="translate(1272.375 0)"/>
      <use xlink:href="#DejaVuSans-4e" transform="translate(1311.390625 0)"/>
      <use xlink:href="#DejaVuSans-50" transform="translate(1369.296875 0)"/>
      <use xlink:href="#DejaVuSans-c" transform="translate(1466.703125 0)"/>
     </g>
    </g>
   </g>
   <g id="line2d_31">
    <path d="M 73.907113 291.022155 
L 81.113994 292.180533 
L 88.320874 293.481866 
L 95.527754 294.794438 
L 102.734635 295.968085 
L 109.941515 296.845853 
L 117.148396 297.300701 
L 124.355276 297.28993 
L 131.562157 296.871112 
L 138.769037 296.144586 
L 145.975917 295.177869 
L 153.182798 293.968889 
L 160.389678 292.44913 
L 167.596559 290.51001 
L 174.803439 288.038279 
L 182.010319 284.946093 
L 189.2172 281.185773 
L 196.42408 276.749707 
L 203.630961 271.662806 
L 210.837841 265.974045 
L 218.044722 259.749817 
L 225.251602 253.069283 
L 232.458482 246.021061 
L 239.665363 238.700624 
L 246.872243 231.20801 
L 254.079124 223.645649 
L 261.286004 216.11621 
L 268.492884 208.720472 
L 275.699765 201.555221 
L 282.906645 194.711235 
L 290.113526 188.271378 
L 297.320406 182.308857 
L 304.527287 176.885684 
L 311.734167 172.051384 
L 318.941047 167.841972 
L 326.147928 164.279238 
L 333.354808 161.370347 
L 340.561689 159.107784 
L 347.768569 157.469624 
L 354.975449 156.420148 
L 362.18233 155.910775 
L 369.38921 155.881293 
L 376.596091 156.261356 
L 383.802971 156.9722 
L 391.009852 157.928537 
L 398.216732 159.040542 
L 405.423612 160.215888 
L 412.630493 161.361743 
L 419.837373 162.386667 
L 427.044254 163.202358 
L 434.251134 163.725219 
L 441.458014 163.877733 
L 448.664895 163.589689 
L 455.871775 162.799296 
L 463.078656 161.454254 
L 470.285536 159.51281 
L 477.492417 156.944828 
L 484.699297 153.732803 
L 491.906177 149.872767 
L 499.113058 145.374945 
L 506.319938 140.264068 
L 513.526819 134.579242 
L 520.733699 128.373336 
L 527.940579 121.711893 
L 535.14746 114.6716 
L 542.35434 107.338406 
L 549.561221 99.805374 
L 556.768101 92.170348 
L 563.974982 84.533531 
L 571.181862 76.995054 
L 578.388742 69.652581 
L 585.595623 62.599037 
L 592.802503 55.920479 
" clip-path="url(#pb7e8fc3f71)" style="fill: none; stroke: #d62728; stroke-width: 2; stroke-linecap: square"/>
   </g>
   <g id="line2d_32">
    <defs>
     <path id="m30c4cd47c2" d="M 0 2.5 
C 0.663008 2.5 1.29895 2.236584 1.767767 1.767767 
C 2.236584 1.29895 2.5 0.663008 2.5 0 
C 2.5 -0.663008 2.236584 -1.29895 1.767767 -1.767767 
C 1.29895 -2.236584 0.663008 -2.5 0 -2.5 
C -0.663008 -2.5 -1.29895 -2.236584 -1.767767 -1.767767 
C -2.236584 -1.29895 -2.5 -0.663008 -2.5 0 
C -2.5 0.663008 -2.236584 1.29895 -1.767767 1.767767 
C -1.29895 2.236584 -0.663008 2.5 0 2.5 
z
" style="stroke: #d62728"/>
    </defs>
    <g clip-path="url(#pb7e8fc3f71)">
     <use xlink:href="#m30c4cd47c2" x="160.389678" y="292.44913" style="fill: #d62728; stroke: #d62728"/>
    </g>
   </g>
   <g id="line2d_33">
    <g clip-path="url(#pb7e8fc3f71)">
     <use xlink:href="#m30c4cd47c2" x="333.354808" y="161.370347" style="fill: #d62728; stroke: #d62728"/>
    </g>
   </g>
   <g id="line2d_34">
    <g clip-path="url(#pb7e8fc3f71)">
     <use xlink:href="#m30c4cd47c2" x="592.802503" y="55.920479" style="fill: #d62728; stroke: #d62728"/>
    </g>
   </g>
   <g id="line2d_35">
    <path d="M 203.630961 317.877656 
L 203.630961 43.446328 
" clip-path="url(#pb7e8fc3f71)" style="fill: none; stroke-dasharray: 1,1.65; stroke-dashoffset: 0; stroke: #808080"/>
   </g>
   <g id="patch_4">
    <path d="M 47.962344 317.877656 
L 47.962344 43.446328 
" style="fill: none; stroke: #000000; stroke-width: 0.8; stroke-linejoin: miter; stroke-linecap: square"/>
   </g>
   <g id="patch_5">
    <path d="M 618.747273 317.877656 
L 618.747273 43.446328 
" style="fill: none; stroke: #000000; stroke-width: 0.8; stroke-linejoin: miter; stroke-linecap: square"/>
   </g>
   <g id="patch_6">
    <path d="M 47.962344 317.877656 
L 618.747273 317.877656 
" style="fill: none; stroke: #000000; stroke-width: 0.8; stroke-linejoin: miter; stroke-linecap: square"/>
   </g>
   <g id="patch_7">
    <path d="M 47.962344 43.446328 
L 618.747273 43.446328 
" style="fill: none; stroke: #000000; stroke-width: 0.8; stroke-linejoin: miter; stroke-linecap: square"/>
   </g>
   <g id="text_18">
    <!-- 187 m -->
    <g transform="translate(166.389678 286.44913) scale(0.09 -0.09)">
     <defs>
      <path id="DejaVuSans-1a" d="M 525 4666 
L 3525 4666 
L 3525 4397 
L 1831 0 
L 1172 0 
L 2766 4134 
L 525 4134 
L 525 4666 
z
" transform="scale(0.015625)"/>
     </defs>
     <use xlink:href="#DejaVuSans-14"/>
     <use xlink:href="#DejaVuSans-1b" transform="translate(63.625 0)"/>
     <use xlink:href="#DejaVuSans-1a" transform="translate(127.25 0)"/>
     <use xlink:href="#DejaVuSans-3" transform="translate(190.875 0)"/>
     <use xlink:href="#DejaVuSans-50" transform="translate(222.65625 0)"/>
    </g>
   </g>
   <g id="text_19">
    <!-- 2080 m -->
    <g transform="translate(339.354808 155.370347) scale(0.09 -0.09)">
     <use xlink:href="#DejaVuSans-15"/>
     <use xlink:href="#DejaVuSans-13" transform="translate(63.625 0)"/>
     <use xlink:href="#DejaVuSans-1b" transform="translate(127.25 0)"/>
     <use xlink:href="#DejaVuSans-13" transform="translate(190.875 0)"/>
     <use xlink:href="#DejaVuSans-3" transform="translate(254.5 0)"/>
     <use xlink:href="#DejaVuSans-50" transform="translate(286.28125 0)"/>
    </g>
   </g>
   <g id="text_20">
    <!-- 3603 m -->
    <g transform="translate(598.802503 49.920479) scale(0.09 -0.09)">
     <use xlink:href="#DejaVuSans-16"/>
     <use xlink:href="#DejaVuSans-19" transform="translate(63.625 0)"/>
     <use xlink:href="#DejaVuSans-13" transform="translate(127.25 0)"/>
     <use xlink:href="#DejaVuSans-16" transform="translate(190.875 0)"/>
     <use xlink:href="#DejaVuSans-3" transform="translate(254.5 0)"/>
     <use xlink:href="#DejaVuSans-50" transform="translate(286.28125 0)"/>
    </g>
   </g>
   <g id="text_21">
    <!-- validez broadcast (~3 h) -->
    <g style="fill: #808080" transform="translate(203.630961 284.629568) scale(0.08 -0.08)">
     <defs>
      <path id="DejaVuSans-59" d="M 191 3500 
L 800 3500 
L 1894 563 
L 2988 3500 
L 3597 3500 
L 2284 0 
L 1503 0 
L 191 3500 
z
" transform="scale(0.015625)"/>
      <path id="DejaVuSans-5d" d="M 353 3500 
L 3084 3500 
L 3084 2975 
L 922 459 
L 3084 459 
L 3084 0 
L 275 0 
L 275 525 
L 2438 3041 
L 353 3041 
L 353 3500 
z
" transform="scale(0.015625)"/>
      <path id="DejaVuSans-45" d="M 3116 1747 
Q 3116 2381 2855 2742 
Q 2594 3103 2138 3103 
Q 1681 3103 1420 2742 
Q 1159 2381 1159 1747 
Q 1159 1113 1420 752 
Q 1681 391 2138 391 
Q 2594 391 2855 752 
Q 3116 1113 3116 1747 
z
M 1159 2969 
Q 1341 3281 1617 3432 
Q 1894 3584 2278 3584 
Q 2916 3584 3314 3078 
Q 3713 2572 3713 1747 
Q 3713 922 3314 415 
Q 2916 -91 2278 -91 
Q 1894 -91 1617 61 
Q 1341 213 1159 525 
L 1159 0 
L 581 0 
L 581 4863 
L 1159 4863 
L 1159 2969 
z
" transform="scale(0.015625)"/>
      <path id="DejaVuSans-46" d="M 3122 3366 
L 3122 2828 
Q 2878 2963 2633 3030 
Q 2388 3097 2138 3097 
Q 1578 3097 1268 2742 
Q 959 2388 959 1747 
Q 959 1106 1268 751 
Q 1578 397 2138 397 
Q 2388 397 2633 464 
Q 2878 531 3122 666 
L 3122 134 
Q 2881 22 2623 -34 
Q 2366 -91 2075 -91 
Q 1284 -91 818 406 
Q 353 903 353 1747 
Q 353 2603 823 3093 
Q 1294 3584 2113 3584 
Q 2378 3584 2631 3529 
Q 2884 3475 3122 3366 
z
" transform="scale(0.015625)"/>
      <path id="DejaVuSans-61" d="M 4684 2553 
L 4684 1997 
Q 4356 1750 4076 1644 
Q 3797 1538 3494 1538 
Q 3150 1538 2694 1722 
Q 2659 1734 2644 1741 
Q 2622 1750 2575 1766 
Q 2091 1959 1797 1959 
Q 1522 1959 1253 1839 
Q 984 1719 678 1459 
L 678 2016 
Q 1006 2263 1286 2370 
Q 1566 2478 1869 2478 
Q 2213 2478 2672 2291 
Q 2703 2278 2719 2272 
Q 2744 2263 2788 2247 
Q 3272 2053 3566 2053 
Q 3834 2053 4098 2172 
Q 4363 2291 4684 2553 
z
" transform="scale(0.015625)"/>
     </defs>
     <use xlink:href="#DejaVuSans-59"/>
     <use xlink:href="#DejaVuSans-44" transform="translate(59.1875 0)"/>
     <use xlink:href="#DejaVuSans-4f" transform="translate(120.46875 0)"/>
     <use xlink:href="#DejaVuSans-4c" transform="translate(148.25 0)"/>
     <use xlink:href="#DejaVuSans-47" transform="translate(176.03125 0)"/>
     <use xlink:href="#DejaVuSans-48" transform="translate(239.515625 0)"/>
     <use xlink:href="#DejaVuSans-5d" transform="translate(301.046875 0)"/>
     <use xlink:href="#DejaVuSans-3" transform="translate(353.53125 0)"/>
     <use xlink:href="#DejaVuSans-45" transform="translate(385.3125 0)"/>
     <use xlink:href="#DejaVuSans-55" transform="translate(448.796875 0)"/>
     <use xlink:href="#DejaVuSans-52" transform="translate(487.703125 0)"/>
     <use xlink:href="#DejaVuSans-44" transform="translate(548.890625 0)"/>
     <use xlink:href="#DejaVuSans-47" transform="translate(610.171875 0)"/>
     <use xlink:href="#DejaVuSans-46" transform="translate(673.65625 0)"/>
     <use xlink:href="#DejaVuSans-44" transform="translate(728.640625 0)"/>
     <use xlink:href="#DejaVuSans-56" transform="translate(789.921875 0)"/>
     <use xlink:href="#DejaVuSans-57" transform="translate(842.015625 0)"/>
     <use xlink:href="#DejaVuSans-3" transform="translate(881.21875 0)"/>
     <use xlink:href="#DejaVuSans-b" transform="translate(913 0)"/>
     <use xlink:href="#DejaVuSans-61" transform="translate(952.015625 0)"/>
     <use xlink:href="#DejaVuSans-16" transform="translate(1035.8125 0)"/>
     <use xlink:href="#DejaVuSans-3" transform="translate(1099.4375 0)"/>
     <use xlink:href="#DejaVuSans-4b" transform="translate(1131.21875 0)"/>
     <use xlink:href="#DejaVuSans-c" transform="translate(1194.59375 0)"/>
    </g>
   </g>
   <g id="text_22">
    <!-- Por qué la broadcast se re-emite cada ~3 h: -->
    <g transform="translate(200.769808 22.563047) scale(0.12 -0.12)">
     <defs>
      <path id="DejaVuSans-33" d="M 1259 4147 
L 1259 2394 
L 2053 2394 
Q 2494 2394 2734 2622 
Q 2975 2850 2975 3272 
Q 2975 3691 2734 3919 
Q 2494 4147 2053 4147 
L 1259 4147 
z
M 628 4666 
L 2053 4666 
Q 2838 4666 3239 4311 
Q 3641 3956 3641 3272 
Q 3641 2581 3239 2228 
Q 2838 1875 2053 1875 
L 1259 1875 
L 1259 0 
L 628 0 
L 628 4666 
z
" transform="scale(0.015625)"/>
      <path id="DejaVuSans-54" d="M 947 1747 
Q 947 1113 1208 752 
Q 1469 391 1925 391 
Q 2381 391 2643 752 
Q 2906 1113 2906 1747 
Q 2906 2381 2643 2742 
Q 2381 3103 1925 3103 
Q 1469 3103 1208 2742 
Q 947 2381 947 1747 
z
M 2906 525 
Q 2725 213 2448 61 
Q 2172 -91 1784 -91 
Q 1150 -91 751 415 
Q 353 922 353 1747 
Q 353 2572 751 3078 
Q 1150 3584 1784 3584 
Q 2172 3584 2448 3432 
Q 2725 3281 2906 2969 
L 2906 3500 
L 3481 3500 
L 3481 -1331 
L 2906 -1331 
L 2906 525 
z
" transform="scale(0.015625)"/>
      <path id="DejaVuSans-ab" d="M 3597 1894 
L 3597 1613 
L 953 1613 
Q 991 1019 1311 708 
Q 1631 397 2203 397 
Q 2534 397 2845 478 
Q 3156 559 3463 722 
L 3463 178 
Q 3153 47 2828 -22 
Q 2503 -91 2169 -91 
Q 1331 -91 842 396 
Q 353 884 353 1716 
Q 353 2575 817 3079 
Q 1281 3584 2069 3584 
Q 2775 3584 3186 3129 
Q 3597 2675 3597 1894 
z
M 3022 2063 
Q 3016 2534 2758 2815 
Q 2500 3097 2075 3097 
Q 1594 3097 1305 2825 
Q 1016 2553 972 2059 
L 3022 2063 
z
M 2468 5119 
L 3090 5119 
L 2072 3944 
L 1593 3944 
L 2468 5119 
z
" transform="scale(0.015625)"/>
      <path id="DejaVuSans-10" d="M 313 2009 
L 1997 2009 
L 1997 1497 
L 313 1497 
L 313 2009 
z
" transform="scale(0.015625)"/>
      <path id="DejaVuSans-1d" d="M 750 794 
L 1409 794 
L 1409 0 
L 750 0 
L 750 794 
z
M 750 3309 
L 1409 3309 
L 1409 2516 
L 750 2516 
L 750 3309 
z
" transform="scale(0.015625)"/>
     </defs>
     <use xlink:href="#DejaVuSans-33"/>
     <use xlink:href="#DejaVuSans-52" transform="translate(56.734375 0)"/>
     <use xlink:href="#DejaVuSans-55" transform="translate(117.921875 0)"/>
     <use xlink:href="#DejaVuSans-3" transform="translate(159.03125 0)"/>
     <use xlink:href="#DejaVuSans-54" transform="translate(190.8125 0)"/>
     <use xlink:href="#DejaVuSans-58" transform="translate(254.296875 0)"/>
     <use xlink:href="#DejaVuSans-ab" transform="translate(317.671875 0)"/>
     <use xlink:href="#DejaVuSans-3" transform="translate(379.203125 0)"/>
     <use xlink:href="#DejaVuSans-4f" transform="translate(410.984375 0)"/>
     <use xlink:href="#DejaVuSans-44" transform="translate(438.765625 0)"/>
     <use xlink:href="#DejaVuSans-3" transform="translate(500.046875 0)"/>
     <use xlink:href="#DejaVuSans-45" transform="translate(531.828125 0)"/>
     <use xlink:href="#DejaVuSans-55" transform="translate(595.3125 0)"/>
     <use xlink:href="#DejaVuSans-52" transform="translate(634.21875 0)"/>
     <use xlink:href="#DejaVuSans-44" transform="translate(695.40625 0)"/>
     <use xlink:href="#DejaVuSans-47" transform="translate(756.6875 0)"/>
     <use xlink:href="#DejaVuSans-46" transform="translate(820.171875 0)"/>
     <use xlink:href="#DejaVuSans-44" transform="translate(875.15625 0)"/>
     <use xlink:href="#DejaVuSans-56" transform="translate(936.4375 0)"/>
     <use xlink:href="#DejaVuSans-57" transform="translate(988.53125 0)"/>
     <use xlink:href="#DejaVuSans-3" transform="translate(1027.734375 0)"/>
     <use xlink:href="#DejaVuSans-56" transform="translate(1059.515625 0)"/>
     <use xlink:href="#DejaVuSans-48" transform="translate(1111.609375 0)"/>
     <use xlink:href="#DejaVuSans-3" transform="translate(1173.140625 0)"/>
     <use xlink:href="#DejaVuSans-55" transform="translate(1204.921875 0)"/>
     <use xlink:href="#DejaVuSans-48" transform="translate(1243.828125 0)"/>
     <use xlink:href="#DejaVuSans-10" transform="translate(1305.359375 0)"/>
     <use xlink:href="#DejaVuSans-48" transform="translate(1341.4375 0)"/>
     <use xlink:href="#DejaVuSans-50" transform="translate(1402.96875 0)"/>
     <use xlink:href="#DejaVuSans-4c" transform="translate(1500.375 0)"/>
     <use xlink:href="#DejaVuSans-57" transform="translate(1528.15625 0)"/>
     <use xlink:href="#DejaVuSans-48" transform="translate(1567.359375 0)"/>
     <use xlink:href="#DejaVuSans-3" transform="translate(1628.890625 0)"/>
     <use xlink:href="#DejaVuSans-46" transform="translate(1660.671875 0)"/>
     <use xlink:href="#DejaVuSans-44" transform="translate(1715.65625 0)"/>
     <use xlink:href="#DejaVuSans-47" transform="translate(1776.9375 0)"/>
     <use xlink:href="#DejaVuSans-44" transform="translate(1840.421875 0)"/>
     <use xlink:href="#DejaVuSans-3" transform="translate(1901.703125 0)"/>
     <use xlink:href="#DejaVuSans-61" transform="translate(1933.484375 0)"/>
     <use xlink:href="#DejaVuSans-16" transform="translate(2017.28125 0)"/>
     <use xlink:href="#DejaVuSans-3" transform="translate(2080.90625 0)"/>
     <use xlink:href="#DejaVuSans-4b" transform="translate(2112.6875 0)"/>
     <use xlink:href="#DejaVuSans-1d" transform="translate(2176.0625 0)"/>
    </g>
    <!-- la elipse de dos cuerpos acumula kilómetros en medio día -->
    <g transform="translate(158.625433 37.446328) scale(0.12 -0.12)">
     <defs>
      <path id="DejaVuSans-b5" d="M 1959 3097 
Q 1497 3097 1228 2736 
Q 959 2375 959 1747 
Q 959 1119 1226 758 
Q 1494 397 1959 397 
Q 2419 397 2687 759 
Q 2956 1122 2956 1747 
Q 2956 2369 2687 2733 
Q 2419 3097 1959 3097 
z
M 1959 3584 
Q 2709 3584 3137 3096 
Q 3566 2609 3566 1747 
Q 3566 888 3137 398 
Q 2709 -91 1959 -91 
Q 1206 -91 779 398 
Q 353 888 353 1747 
Q 353 2609 779 3096 
Q 1206 3584 1959 3584 
z
M 2393 5119 
L 3015 5119 
L 1997 3944 
L 1518 3944 
L 2393 5119 
z
" transform="scale(0.015625)"/>
      <path id="DejaVuSans-af" d="M 1325 5119 
L 1947 5119 
L 929 3944 
L 450 3944 
L 1325 5119 
z
M 603 3500 
L 1178 3500 
L 1178 0 
L 603 0 
L 603 3500 
z
M 891 3584 
L 891 3584 
z
" transform="scale(0.015625)"/>
     </defs>
     <use xlink:href="#DejaVuSans-4f"/>
     <use xlink:href="#DejaVuSans-44" transform="translate(27.78125 0)"/>
     <use xlink:href="#DejaVuSans-3" transform="translate(89.0625 0)"/>
     <use xlink:href="#DejaVuSans-48" transform="translate(120.84375 0)"/>
     <use xlink:href="#DejaVuSans-4f" transform="translate(182.375 0)"/>
     <use xlink:href="#DejaVuSans-4c" transform="translate(210.15625 0)"/>
     <use xlink:href="#DejaVuSans-53" transform="translate(237.9375 0)"/>
     <use xlink:href="#DejaVuSans-56" transform="translate(301.421875 0)"/>
     <use xlink:href="#DejaVuSans-48" transform="translate(353.515625 0)"/>
     <use xlink:href="#DejaVuSans-3" transform="translate(415.046875 0)"/>
     <use xlink:href="#DejaVuSans-47" transform="translate(446.828125 0)"/>
     <use xlink:href="#DejaVuSans-48" transform="translate(510.3125 0)"/>
     <use xlink:href="#DejaVuSans-3" transform="translate(571.84375 0)"/>
     <use xlink:href="#DejaVuSans-47" transform="translate(603.625 0)"/>
     <use xlink:href="#DejaVuSans-52" transform="translate(667.109375 0)"/>
     <use xlink:href="#DejaVuSans-56" transform="translate(728.296875 0)"/>
     <use xlink:href="#DejaVuSans-3" transform="translate(780.390625 0)"/>
     <use xlink:href="#DejaVuSans-46" transform="translate(812.171875 0)"/>
     <use xlink:href="#DejaVuSans-58" transform="translate(867.15625 0)"/>
     <use xlink:href="#DejaVuSans-48" transform="translate(930.53125 0)"/>
     <use xlink:href="#DejaVuSans-55" transform="translate(992.0625 0)"/>
     <use xlink:href="#DejaVuSans-53" transform="translate(1033.171875 0)"/>
     <use xlink:href="#DejaVuSans-52" transform="translate(1096.65625 0)"/>
     <use xlink:href="#DejaVuSans-56" transform="translate(1157.84375 0)"/>
     <use xlink:href="#DejaVuSans-3" transform="translate(1209.9375 0)"/>
     <use xlink:href="#DejaVuSans-44" transform="translate(1241.71875 0)"/>
     <use xlink:href="#DejaVuSans-46" transform="translate(1303 0)"/>
     <use xlink:href="#DejaVuSans-58" transform="translate(1357.984375 0)"/>
     <use xlink:href="#DejaVuSans-50" transform="translate(1421.359375 0)"/>
     <use xlink:href="#DejaVuSans-58" transform="translate(1518.765625 0)"/>
     <use xlink:href="#DejaVuSans-4f" transform="translate(1582.140625 0)"/>
     <use xlink:href="#DejaVuSans-44" transform="translate(1609.921875 0)"/>
     <use xlink:href="#DejaVuSans-3" transform="translate(1671.203125 0)"/>
     <use xlink:href="#DejaVuSans-4e" transform="translate(1702.984375 0)"/>
     <use xlink:href="#DejaVuSans-4c" transform="translate(1760.890625 0)"/>
     <use xlink:href="#DejaVuSans-4f" transform="translate(1788.671875 0)"/>
     <use xlink:href="#DejaVuSans-b5" transform="translate(1816.453125 0)"/>
     <use xlink:href="#DejaVuSans-50" transform="translate(1877.640625 0)"/>
     <use xlink:href="#DejaVuSans-48" transform="translate(1975.046875 0)"/>
     <use xlink:href="#DejaVuSans-57" transform="translate(2036.578125 0)"/>
     <use xlink:href="#DejaVuSans-55" transform="translate(2075.78125 0)"/>
     <use xlink:href="#DejaVuSans-52" transform="translate(2114.6875 0)"/>
     <use xlink:href="#DejaVuSans-56" transform="translate(2175.875 0)"/>
     <use xlink:href="#DejaVuSans-3" transform="translate(2227.96875 0)"/>
     <use xlink:href="#DejaVuSans-48" transform="translate(2259.75 0)"/>
     <use xlink:href="#DejaVuSans-51" transform="translate(2321.28125 0)"/>
     <use xlink:href="#DejaVuSans-3" transform="translate(2384.65625 0)"/>
     <use xlink:href="#DejaVuSans-50" transform="translate(2416.4375 0)"/>
     <use xlink:href="#DejaVuSans-48" transform="translate(2513.84375 0)"/>
     <use xlink:href="#DejaVuSans-47" transform="translate(2575.375 0)"/>
     <use xlink:href="#DejaVuSans-4c" transform="translate(2638.859375 0)"/>
     <use xlink:href="#DejaVuSans-52" transform="translate(2666.640625 0)"/>
     <use xlink:href="#DejaVuSans-3" transform="translate(2727.828125 0)"/>
     <use xlink:href="#DejaVuSans-47" transform="translate(2759.609375 0)"/>
     <use xlink:href="#DejaVuSans-af" transform="translate(2823.09375 0)"/>
     <use xlink:href="#DejaVuSans-44" transform="translate(2850.875 0)"/>
    </g>
   </g>
  </g>
 </g>
 <defs>
  <clipPath id="pb7e8fc3f71">
   <rect x="47.962344" y="43.446328" width="570.784929" height="274.431328"/>
  </clipPath>
 </defs>
</svg>
