<?xml version="1.0" encoding="utf-8" standalone="no"?>
<!DOCTYPE svg PUBLIC "-//W3C//DTD SVG 1.1//EN"
  "http://www.w3.org/Graphics/SVG/1.1/DTD/svg11.dtd">
<svg xmlns:xlink="http://www.w3.org/1999/xlink" width="684pt" height="280.8pt" viewBox="0 0 684 280.8" xmlns="http://www.w3.org/2000/svg" version="1.1">
 <metadata>
  <rdf:RDF xmlns:dc="http://purl.org/dc/elements/1.1/" xmlns:cc="http://creativecommons.org/ns#" xmlns:rdf="http://www.w3.org/1999/02/22-rdf-syntax-ns#">
   <cc:Work>
    <dc:type rdf:resource="http://purl.org/dc/dcmitype/StillImage"/>
    <dc:date>2026-07-04T16:48:03.281693</dc:date>
    <dc:format>image/svg+xml</dc:format>
    <dc:creator>
     <cc:Agent>
      <dc:title>Matplotlib v3.11.0, https://matplotlib.org/</dc:title>
     </cc:Agent>
    </dc:creator>
   </cc:Work>
  </rdf:RDF>
 </metadata>
 <defs>
  <style type="text/css">*{stroke-linejoin: round; stroke-linecap: butt}</style>
 </defs>
 <g id="figure_1">
  <g id="patch_1">
   <path d="M 0 280.8 
L 684 280.8 
L 684 0 
L 0 0 
z
" style="fill: #ffffff"/>
  </g>
  <g id="axes_1">
   <g id="patch_2">
    <path d="M 71.002344 238.677656 
L 342.647777 238.677656 
L 342.647777 26.16 
L 71.002344 26.16 
z
" style="fill: #ffffff"/>
   </g>
   <g id="matplotlib.axis_1">
    <g id="xtick_1">
     <g id="line2d_1">
      <path d="M 83.349863 238.677656 
L 83.349863 26.16 
" clip-path="url(#p3ce903f718)" style="fill: none; stroke: #b0b0b0; stroke-opacity: 0.3; stroke-width: 0.8; stroke-linecap: square"/>
     </g>
     <g id="line2d_2">
      <defs>
       <path id="m4aba9fac1f" d="M 0 0 
L 0 3.5 
" style="stroke: #000000; stroke-width: 0.8"/>
      </defs>
      <g>
       <use xlink:href="#m4aba9fac1f" x="83.349863" y="238.677656" style="stroke: #000000; stroke-width: 0.8"/>
      </g>
     </g>
     <g id="text_1">
      <!-- 0 -->
      <g transform="translate(80.168613 253.275313) scale(0.1 -0.1)">
       <defs>
        <path id="DejaVuSans-13" d="M 2034 4250 
Q 1547 4250 1301 3770 
Q 1056 3291 1056 2328 
Q 1056 1369 1301 889 
Q 1547 409 2034 409 
Q 2525 409 2770 889 
Q 3016 1369 3016 2328 
Q 3016 3291 2770 3770 
Q 2525 4250 2034 4250 
z
M 2034 4750 
Q 2819 4750 3233 4129 
Q 3647 3509 3647 2328 
Q 3647 1150 3233 529 
Q 2819 -91 2034 -91 
Q 1250 -91 836 529 
Q 422 1150 422 2328 
Q 422 3509 836 4129 
Q 1250 4750 2034 4750 
z
" transform="scale(0.015625)"/>
       </defs>
       <use xlink:href="#DejaVuSans-13"/>
      </g>
     </g>
    </g>
    <g id="xtick_2">
     <g id="line2d_3">
      <path d="M 114.249562 238.677656 
L 114.249562 26.16 
" clip-path="url(#p3ce903f718)" style="fill: none; stroke: #b0b0b0; stroke-opacity: 0.3; stroke-width: 0.8; stroke-linecap: square"/>
     </g>
     <g id="line2d_4">
      <g>
       <use xlink:href="#m4aba9fac1f" x="114.249562" y="238.677656" style="stroke: #000000; stroke-width: 0.8"/>
      </g>
     </g>
     <g id="text_2">
      <!-- 500 -->
      <g transform="translate(104.705812 253.275313) scale(0.1 -0.1)">
       <defs>
        <path id="DejaVuSans-18" d="M 691 4666 
L 3169 4666 
L 3169 4134 
L 1269 4134 
L 1269 2991 
Q 1406 3038 1543 3061 
Q 1681 3084 1819 3084 
Q 2600 3084 3056 2656 
Q 3513 2228 3513 1497 
Q 3513 744 3044 326 
Q 2575 -91 1722 -91 
Q 1428 -91 1123 -41 
Q 819 9 494 109 
L 494 744 
Q 775 591 1075 516 
Q 1375 441 1709 441 
Q 2250 441 2565 725 
Q 2881 1009 2881 1497 
Q 2881 1984 2565 2268 
Q 2250 2553 1709 2553 
Q 1456 2553 1204 2497 
Q 953 2441 691 2322 
L 691 4666 
z
" transform="scale(0.015625)"/>
       </defs>
       <use xlink:href="#DejaVuSans-18"/>
       <use xlink:href="#DejaVuSans-13" transform="translate(63.625 0)"/>
       <use xlink:href="#DejaVuSans-13" transform="translate(127.25 0)"/>
      </g>
     </g>
    </g>
    <g id="xtick_3">
     <g id="line2d_5">
      <path d="M 145.149261 238.677656 
L 145.149261 26.16 
" clip-path="url(#p3ce903f718)" style="fill: none; stroke: #b0b0b0; stroke-opacity: 0.3; stroke-width: 0.8; stroke-linecap: square"/>
     </g>
     <g id="line2d_6">
      <g>
       <use xlink:href="#m4aba9fac1f" x="145.149261" y="238.677656" style="stroke: #000000; stroke-width: 0.8"/>
      </g>
     </g>
     <g id="text_3">
      <!-- 1000 -->
      <g transform="translate(132.424261 253.275313) scale(0.1 -0.1)">
       <defs>
        <path id="DejaVuSans-14" d="M 794 531 
L 1825 531 
L 1825 4091 
L 703 3866 
L 703 4441 
L 1819 4666 
L 2450 4666 
L 2450 531 
L 3481 531 
L 3481 0 
L 794 0 
L 794 531 
z
" transform="scale(0.015625)"/>
       </defs>
       <use xlink:href="#DejaVuSans-14"/>
       <use xlink:href="#DejaVuSans-13" transform="translate(63.625 0)"/>
       <use xlink:href="#DejaVuSans-13" transform="translate(127.25 0)"/>
       <use xlink:href="#DejaVuSans-13" transform="translate(190.875 0)"/>
      </g>
     </g>
    </g>
    <g id="xtick_4">
     <g id="line2d_7">
      <path d="M 176.04896 238.677656 
L 176.04896 26.16 
" clip-path="url(#p3ce903f718)" style="fill: none; stroke: #b0b0b0; stroke-opacity: 0.3; stroke-width: 0.8; stroke-linecap: square"/>
     </g>
     <g id="line2d_8">
      <g>
       <use xlink:href="#m4aba9fac1f" x="176.04896" y="238.677656" style="stroke: #000000; stroke-width: 0.8"/>
      </g>
     </g>
     <g id="text_4">
      <!-- 1500 -->
      <g transform="translate(163.32396 253.275313) scale(0.1 -0.1)">
       <use xlink:href="#DejaVuSans-14"/>
       <use xlink:href="#DejaVuSans-18" transform="translate(63.625 0)"/>
       <use xlink:href="#DejaVuSans-13" transform="translate(127.25 0)"/>
       <use xlink:href="#DejaVuSans-13" transform="translate(190.875 0)"/>
      </g>
     </g>
    </g>
    <g id="xtick_5">
     <g id="line2d_9">
      <path d="M 206.948659 238.677656 
L 206.948659 26.16 
" clip-path="url(#p3ce903f718)" style="fill: none; stroke: #b0b0b0; stroke-opacity: 0.3; stroke-width: 0.8; stroke-linecap: square"/>
     </g>
     <g id="line2d_10">
      <g>
       <use xlink:href="#m4aba9fac1f" x="206.948659" y="238.677656" style="stroke: #000000; stroke-width: 0.8"/>
      </g>
     </g>
     <g id="text_5">
      <!-- 2000 -->
      <g transform="translate(194.223659 253.275313) scale(0.1 -0.1)">
       <defs>
        <path id="DejaVuSans-15" d="M 1228 531 
L 3431 531 
L 3431 0 
L 469 0 
L 469 531 
Q 828 903 1448 1529 
Q 2069 2156 2228 2338 
Q 2531 2678 2651 2914 
Q 2772 3150 2772 3378 
Q 2772 3750 2511 3984 
Q 2250 4219 1831 4219 
Q 1534 4219 1204 4116 
Q 875 4013 500 3803 
L 500 4441 
Q 881 4594 1212 4672 
Q 1544 4750 1819 4750 
Q 2544 4750 2975 4387 
Q 3406 4025 3406 3419 
Q 3406 3131 3298 2873 
Q 3191 2616 2906 2266 
Q 2828 2175 2409 1742 
Q 1991 1309 1228 531 
z
" transform="scale(0.015625)"/>
       </defs>
       <use xlink:href="#DejaVuSans-15"/>
       <use xlink:href="#DejaVuSans-13" transform="translate(63.625 0)"/>
       <use xlink:href="#DejaVuSans-13" transform="translate(127.25 0)"/>
       <use xlink:href="#DejaVuSans-13" transform="translate(190.875 0)"/>
      </g>
     </g>
    </g>
    <g id="xtick_6">
     <g id="line2d_11">
      <path d="M 237.848358 238.677656 
L 237.848358 26.16 
" clip-path="url(#p3ce903f718)" style="fill: none; stroke: #b0b0b0; stroke-opacity: 0.3; stroke-width: 0.8; stroke-linecap: square"/>
     </g>
     <g id="line2d_12">
      <g>
       <use xlink:href="#m4aba9fac1f" x="237.848358" y="238.677656" style="stroke: #000000; stroke-width: 0.8"/>
      </g>
     </g>
     <g id="text_6">
      <!-- 2500 -->
      <g transform="translate(225.123358 253.275313) scale(0.1 -0.1)">
       <use xlink:href="#DejaVuSans-15"/>
       <use xlink:href="#DejaVuSans-18" transform="translate(63.625 0)"/>
       <use xlink:href="#DejaVuSans-13" transform="translate(127.25 0)"/>
       <use xlink:href="#DejaVuSans-13" transform="translate(190.875 0)"/>
      </g>
     </g>
    </g>
    <g id="xtick_7">
     <g id="line2d_13">
      <path d="M 268.748057 238.677656 
L 268.748057 26.16 
" clip-path="url(#p3ce903f718)" style="fill: none; stroke: #b0b0b0; stroke-opacity: 0.3; stroke-width: 0.8; stroke-linecap: square"/>
     </g>
     <g id="line2d_14">
      <g>
       <use xlink:href="#m4aba9fac1f" x="268.748057" y="238.677656" style="stroke: #000000; stroke-width: 0.8"/>
      </g>
     </g>
     <g id="text_7">
      <!-- 3000 -->
      <g transform="translate(256.023057 253.275313) scale(0.1 -0.1)">
       <defs>
        <path id="DejaVuSans-16" d="M 2597 2516 
Q 3050 2419 3304 2112 
Q 3559 1806 3559 1356 
Q 3559 666 3084 287 
Q 2609 -91 1734 -91 
Q 1441 -91 1130 -33 
Q 819 25 488 141 
L 488 750 
Q 750 597 1062 519 
Q 1375 441 1716 441 
Q 2309 441 2620 675 
Q 2931 909 2931 1356 
Q 2931 1769 2642 2001 
Q 2353 2234 1838 2234 
L 1294 2234 
L 1294 2753 
L 1863 2753 
Q 2328 2753 2575 2939 
Q 2822 3125 2822 3475 
Q 2822 3834 2567 4026 
Q 2313 4219 1838 4219 
Q 1578 4219 1281 4162 
Q 984 4106 628 3988 
L 628 4550 
Q 988 4650 1302 4700 
Q 1616 4750 1894 4750 
Q 2613 4750 3031 4423 
Q 3450 4097 3450 3541 
Q 3450 3153 3228 2886 
Q 3006 2619 2597 2516 
z
" transform="scale(0.015625)"/>
       </defs>
       <use xlink:href="#DejaVuSans-16"/>
       <use xlink:href="#DejaVuSans-13" transform="translate(63.625 0)"/>
       <use xlink:href="#DejaVuSans-13" transform="translate(127.25 0)"/>
       <use xlink:href="#DejaVuSans-13" transform="translate(190.875 0)"/>
      </g>
     </g>
    </g>
    <g id="xtick_8">
     <g id="line2d_15">
      <path d="M 299.647756 238.677656 
L 299.647756 26.16 
" clip-path="url(#p3ce903f718)" style="fill: none; stroke: #b0b0b0; stroke-opacity: 0.3; stroke-width: 0.8; stroke-linecap: square"/>
     </g>
     <g id="line2d_16">
      <g>
       <use xlink:href="#m4aba9fac1f" x="299.647756" y="238.677656" style="stroke: #000000; stroke-width: 0.8"/>
      </g>
     </g>
     <g id="text_8">
      <!-- 3500 -->
      <g transform="translate(286.922756 253.275313) scale(0.1 -0.1)">
       <use xlink:href="#DejaVuSans-16"/>
       <use xlink:href="#DejaVuSans-18" transform="translate(63.625 0)"/>
       <use xlink:href="#DejaVuSans-13" transform="translate(127.25 0)"/>
       <use xlink:href="#DejaVuSans-13" transform="translate(190.875 0)"/>
      </g>
     </g>
    </g>
    <g id="xtick_9">
     <g id="line2d_17">
      <path d="M 330.547455 238.677656 
L 330.547455 26.16 
" clip-path="url(#p3ce903f718)" style="fill: none; stroke: #b0b0b0; stroke-opacity: 0.3; stroke-width: 0.8; stroke-linecap: square"/>
     </g>
     <g id="line2d_18">
      <g>
       <use xlink:href="#m4aba9fac1f" x="330.547455" y="238.677656" style="stroke: #000000; stroke-width: 0.8"/>
      </g>
     </g>
     <g id="text_9">
      <!-- 4000 -->
      <g transform="translate(317.822455 253.275313) scale(0.1 -0.1)">
       <defs>
        <path id="DejaVuSans-17" d="M 2419 4116 
L 825 1625 
L 2419 1625 
L 2419 4116 
z
M 2253 4666 
L 3047 4666 
L 3047 1625 
L 3713 1625 
L 3713 1100 
L 3047 1100 
L 3047 0 
L 2419 0 
L 2419 1100 
L 313 1100 
L 313 1709 
L 2253 4666 
z
" transform="scale(0.015625)"/>
       </defs>
       <use xlink:href="#DejaVuSans-17"/>
       <use xlink:href="#DejaVuSans-13" transform="translate(63.625 0)"/>
       <use xlink:href="#DejaVuSans-13" transform="translate(127.25 0)"/>
       <use xlink:href="#DejaVuSans-13" transform="translate(190.875 0)"/>
      </g>
     </g>
    </g>
    <g id="text_10">
     <!-- desfase de código (chips) -->
     <g transform="translate(142.853185 267.676094) scale(0.1 -0.1)">
      <defs>
       <path id="DejaVuSans-47" d="M 2906 2969 
L 2906 4863 
L 3481 4863 
L 3481 0 
L 2906 0 
L 2906 525 
Q 2725 213 2448 61 
Q 2172 -91 1784 -91 
Q 1150 -91 751 415 
Q 353 922 353 1747 
Q 353 2572 751 3078 
Q 1150 3584 1784 3584 
Q 2172 3584 2448 3432 
Q 2725 3281 2906 2969 
z
M 947 1747 
Q 947 1113 1208 752 
Q 1469 391 1925 391 
Q 2381 391 2643 752 
Q 2906 1113 2906 1747 
Q 2906 2381 2643 2742 
Q 2381 3103 1925 3103 
Q 1469 3103 1208 2742 
Q 947 2381 947 1747 
z
" transform="scale(0.015625)"/>
       <path id="DejaVuSans-48" d="M 3597 1894 
L 3597 1613 
L 953 1613 
Q 991 1019 1311 708 
Q 1631 397 2203 397 
Q 2534 397 2845 478 
Q 3156 559 3463 722 
L 3463 178 
Q 3153 47 2828 -22 
Q 2503 -91 2169 -91 
Q 1331 -91 842 396 
Q 353 884 353 1716 
Q 353 2575 817 3079 
Q 1281 3584 2069 3584 
Q 2775 3584 3186 3129 
Q 3597 2675 3597 1894 
z
M 3022 2063 
Q 3016 2534 2758 2815 
Q 2500 3097 2075 3097 
Q 1594 3097 1305 2825 
Q 1016 2553 972 2059 
L 3022 2063 
z
" transform="scale(0.015625)"/>
       <path id="DejaVuSans-56" d="M 2834 3397 
L 2834 2853 
Q 2591 2978 2328 3040 
Q 2066 3103 1784 3103 
Q 1356 3103 1142 2972 
Q 928 2841 928 2578 
Q 928 2378 1081 2264 
Q 1234 2150 1697 2047 
L 1894 2003 
Q 2506 1872 2764 1633 
Q 3022 1394 3022 966 
Q 3022 478 2636 193 
Q 2250 -91 1575 -91 
Q 1294 -91 989 -36 
Q 684 19 347 128 
L 347 722 
Q 666 556 975 473 
Q 1284 391 1588 391 
Q 1994 391 2212 530 
Q 2431 669 2431 922 
Q 2431 1156 2273 1281 
Q 2116 1406 1581 1522 
L 1381 1569 
Q 847 1681 609 1914 
Q 372 2147 372 2553 
Q 372 3047 722 3315 
Q 1072 3584 1716 3584 
Q 2034 3584 2315 3537 
Q 2597 3491 2834 3397 
z
" transform="scale(0.015625)"/>
       <path id="DejaVuSans-49" d="M 2375 4863 
L 2375 4384 
L 1825 4384 
Q 1516 4384 1395 4259 
Q 1275 4134 1275 3809 
L 1275 3500 
L 2222 3500 
L 2222 3053 
L 1275 3053 
L 1275 0 
L 697 0 
L 697 3053 
L 147 3053 
L 147 3500 
L 697 3500 
L 697 3744 
Q 697 4328 969 4595 
Q 1241 4863 1831 4863 
L 2375 4863 
z
" transform="scale(0.015625)"/>
       <path id="DejaVuSans-44" d="M 2194 1759 
Q 1497 1759 1228 1600 
Q 959 1441 959 1056 
Q 959 750 1161 570 
Q 1363 391 1709 391 
Q 2188 391 2477 730 
Q 2766 1069 2766 1631 
L 2766 1759 
L 2194 1759 
z
M 3341 1997 
L 3341 0 
L 2766 0 
L 2766 531 
Q 2569 213 2275 61 
Q 1981 -91 1556 -91 
Q 1019 -91 701 211 
Q 384 513 384 1019 
Q 384 1609 779 1909 
Q 1175 2209 1959 2209 
L 2766 2209 
L 2766 2266 
Q 2766 2663 2505 2880 
Q 2244 3097 1772 3097 
Q 1472 3097 1187 3025 
Q 903 2953 641 2809 
L 641 3341 
Q 956 3463 1253 3523 
Q 1550 3584 1831 3584 
Q 2591 3584 2966 3190 
Q 3341 2797 3341 1997 
z
" transform="scale(0.015625)"/>
       <path id="DejaVuSans-3" transform="scale(0.015625)"/>
       <path id="DejaVuSans-46" d="M 3122 3366 
L 3122 2828 
Q 2878 2963 2633 3030 
Q 2388 3097 2138 3097 
Q 1578 3097 1268 2742 
Q 959 2388 959 1747 
Q 959 1106 1268 751 
Q 1578 397 2138 397 
Q 2388 397 2633 464 
Q 2878 531 3122 666 
L 3122 134 
Q 2881 22 2623 -34 
Q 2366 -91 2075 -91 
Q 1284 -91 818 406 
Q 353 903 353 1747 
Q 353 2603 823 3093 
Q 1294 3584 2113 3584 
Q 2378 3584 2631 3529 
Q 2884 3475 3122 3366 
z
" transform="scale(0.015625)"/>
       <path id="DejaVuSans-b5" d="M 1959 3097 
Q 1497 3097 1228 2736 
Q 959 2375 959 1747 
Q 959 1119 1226 758 
Q 1494 397 1959 397 
Q 2419 397 2687 759 
Q 2956 1122 2956 1747 
Q 2956 2369 2687 2733 
Q 2419 3097 1959 3097 
z
M 1959 3584 
Q 2709 3584 3137 3096 
Q 3566 2609 3566 1747 
Q 3566 888 3137 398 
Q 2709 -91 1959 -91 
Q 1206 -91 779 398 
Q 353 888 353 1747 
Q 353 2609 779 3096 
Q 1206 3584 1959 3584 
z
M 2393 5119 
L 3015 5119 
L 1997 3944 
L 1518 3944 
L 2393 5119 
z
" transform="scale(0.015625)"/>
       <path id="DejaVuSans-4c" d="M 603 3500 
L 1178 3500 
L 1178 0 
L 603 0 
L 603 3500 
z
M 603 4863 
L 1178 4863 
L 1178 4134 
L 603 4134 
L 603 4863 
z
" transform="scale(0.015625)"/>
       <path id="DejaVuSans-4a" d="M 2906 1791 
Q 2906 2416 2648 2759 
Q 2391 3103 1925 3103 
Q 1463 3103 1205 2759 
Q 947 2416 947 1791 
Q 947 1169 1205 825 
Q 1463 481 1925 481 
Q 2391 481 2648 825 
Q 2906 1169 2906 1791 
z
M 3481 434 
Q 3481 -459 3084 -895 
Q 2688 -1331 1869 -1331 
Q 1566 -1331 1297 -1286 
Q 1028 -1241 775 -1147 
L 775 -588 
Q 1028 -725 1275 -790 
Q 1522 -856 1778 -856 
Q 2344 -856 2625 -561 
Q 2906 -266 2906 331 
L 2906 616 
Q 2728 306 2450 153 
Q 2172 0 1784 0 
Q 1141 0 747 490 
Q 353 981 353 1791 
Q 353 2603 747 3093 
Q 1141 3584 1784 3584 
Q 2172 3584 2450 3431 
Q 2728 3278 2906 2969 
L 2906 3500 
L 3481 3500 
L 3481 434 
z
" transform="scale(0.015625)"/>
       <path id="DejaVuSans-52" d="M 1959 3097 
Q 1497 3097 1228 2736 
Q 959 2375 959 1747 
Q 959 1119 1226 758 
Q 1494 397 1959 397 
Q 2419 397 2687 759 
Q 2956 1122 2956 1747 
Q 2956 2369 2687 2733 
Q 2419 3097 1959 3097 
z
M 1959 3584 
Q 2709 3584 3137 3096 
Q 3566 2609 3566 1747 
Q 3566 888 3137 398 
Q 2709 -91 1959 -91 
Q 1206 -91 779 398 
Q 353 888 353 1747 
Q 353 2609 779 3096 
Q 1206 3584 1959 3584 
z
" transform="scale(0.015625)"/>
       <path id="DejaVuSans-b" d="M 1984 4856 
Q 1566 4138 1362 3434 
Q 1159 2731 1159 2009 
Q 1159 1288 1364 580 
Q 1569 -128 1984 -844 
L 1484 -844 
Q 1016 -109 783 600 
Q 550 1309 550 2009 
Q 550 2706 781 3412 
Q 1013 4119 1484 4856 
L 1984 4856 
z
" transform="scale(0.015625)"/>
       <path id="DejaVuSans-4b" d="M 3513 2113 
L 3513 0 
L 2938 0 
L 2938 2094 
Q 2938 2591 2744 2837 
Q 2550 3084 2163 3084 
Q 1697 3084 1428 2787 
Q 1159 2491 1159 1978 
L 1159 0 
L 581 0 
L 581 4863 
L 1159 4863 
L 1159 2956 
Q 1366 3272 1645 3428 
Q 1925 3584 2291 3584 
Q 2894 3584 3203 3211 
Q 3513 2838 3513 2113 
z
" transform="scale(0.015625)"/>
       <path id="DejaVuSans-53" d="M 1159 525 
L 1159 -1331 
L 581 -1331 
L 581 3500 
L 1159 3500 
L 1159 2969 
Q 1341 3281 1617 3432 
Q 1894 3584 2278 3584 
Q 2916 3584 3314 3078 
Q 3713 2572 3713 1747 
Q 3713 922 3314 415 
Q 2916 -91 2278 -91 
Q 1894 -91 1617 61 
Q 1341 213 1159 525 
z
M 3116 1747 
Q 3116 2381 2855 2742 
Q 2594 3103 2138 3103 
Q 1681 3103 1420 2742 
Q 1159 2381 1159 1747 
Q 1159 1113 1420 752 
Q 1681 391 2138 391 
Q 2594 391 2855 752 
Q 3116 1113 3116 1747 
z
" transform="scale(0.015625)"/>
       <path id="DejaVuSans-c" d="M 513 4856 
L 1013 4856 
Q 1481 4119 1714 3412 
Q 1947 2706 1947 2009 
Q 1947 1309 1714 600 
Q 1481 -109 1013 -844 
L 513 -844 
Q 928 -128 1133 580 
Q 1338 1288 1338 2009 
Q 1338 2731 1133 3434 
Q 928 4138 513 4856 
z
" transform="scale(0.015625)"/>
      </defs>
      <use xlink:href="#DejaVuSans-47"/>
      <use xlink:href="#DejaVuSans-48" transform="translate(63.484375 0)"/>
      <use xlink:href="#DejaVuSans-56" transform="translate(125.015625 0)"/>
      <use xlink:href="#DejaVuSans-49" transform="translate(177.109375 0)"/>
      <use xlink:href="#DejaVuSans-44" transform="translate(212.3125 0)"/>
      <use xlink:href="#DejaVuSans-56" transform="translate(273.59375 0)"/>
      <use xlink:href="#DejaVuSans-48" transform="translate(325.6875 0)"/>
      <use xlink:href="#DejaVuSans-3" transform="translate(387.21875 0)"/>
      <use xlink:href="#DejaVuSans-47" transform="translate(419 0)"/>
      <use xlink:href="#DejaVuSans-48" transform="translate(482.484375 0)"/>
      <use xlink:href="#DejaVuSans-3" transform="translate(544.015625 0)"/>
      <use xlink:href="#DejaVuSans-46" transform="translate(575.796875 0)"/>
      <use xlink:href="#DejaVuSans-b5" transform="translate(630.78125 0)"/>
      <use xlink:href="#DejaVuSans-47" transform="translate(691.96875 0)"/>
      <use xlink:href="#DejaVuSans-4c" transform="translate(755.453125 0)"/>
      <use xlink:href="#DejaVuSans-4a" transform="translate(783.234375 0)"/>
      <use xlink:href="#DejaVuSans-52" transform="translate(846.71875 0)"/>
      <use xlink:href="#DejaVuSans-3" transform="translate(907.90625 0)"/>
      <use xlink:href="#DejaVuSans-b" transform="translate(939.6875 0)"/>
      <use xlink:href="#DejaVuSans-46" transform="translate(978.703125 0)"/>
      <use xlink:href="#DejaVuSans-4b" transform="translate(1033.6875 0)"/>
      <use xlink:href="#DejaVuSans-4c" transform="translate(1097.0625 0)"/>
      <use xlink:href="#DejaVuSans-53" transform="translate(1124.84375 0)"/>
      <use xlink:href="#DejaVuSans-56" transform="translate(1188.328125 0)"/>
      <use xlink:href="#DejaVuSans-c" transform="translate(1240.421875 0)"/>
     </g>
    </g>
   </g>
   <g id="matplotlib.axis_2">
    <g id="ytick_1">
     <g id="line2d_19">
      <path d="M 71.002344 229.018311 
L 342.647777 229.018311 
" clip-path="url(#p3ce903f718)" style="fill: none; stroke: #b0b0b0; stroke-opacity: 0.3; stroke-width: 0.8; stroke-linecap: square"/>
     </g>
     <g id="line2d_20">
      <defs>
       <path id="m2ec8488641" d="M 0 0 
L -3.5 0 
" style="stroke: #000000; stroke-width: 0.8"/>
      </defs>
      <g>
       <use xlink:href="#m2ec8488641" x="71.002344" y="229.018311" style="stroke: #000000; stroke-width: 0.8"/>
      </g>
     </g>
     <g id="text_11">
      <!-- 0 -->
      <g transform="translate(57.639844 232.817139) scale(0.1 -0.1)">
       <use xlink:href="#DejaVuSans-13"/>
      </g>
     </g>
    </g>
    <g id="ytick_2">
     <g id="line2d_21">
      <path d="M 71.002344 201.58977 
L 342.647777 201.58977 
" clip-path="url(#p3ce903f718)" style="fill: none; stroke: #b0b0b0; stroke-opacity: 0.3; stroke-width: 0.8; stroke-linecap: square"/>
     </g>
     <g id="line2d_22">
      <g>
       <use xlink:href="#m2ec8488641" x="71.002344" y="201.58977" style="stroke: #000000; stroke-width: 0.8"/>
      </g>
     </g>
     <g id="text_12">
      <!-- 20000 -->
      <g transform="translate(32.189844 205.388598) scale(0.1 -0.1)">
       <use xlink:href="#DejaVuSans-15"/>
       <use xlink:href="#DejaVuSans-13" transform="translate(63.625 0)"/>
       <use xlink:href="#DejaVuSans-13" transform="translate(127.25 0)"/>
       <use xlink:href="#DejaVuSans-13" transform="translate(190.875 0)"/>
       <use xlink:href="#DejaVuSans-13" transform="translate(254.5 0)"/>
      </g>
     </g>
    </g>
    <g id="ytick_3">
     <g id="line2d_23">
      <path d="M 71.002344 174.161228 
L 342.647777 174.161228 
" clip-path="url(#p3ce903f718)" style="fill: none; stroke: #b0b0b0; stroke-opacity: 0.3; stroke-width: 0.8; stroke-linecap: square"/>
     </g>
     <g id="line2d_24">
      <g>
       <use xlink:href="#m2ec8488641" x="71.002344" y="174.161228" style="stroke: #000000; stroke-width: 0.8"/>
      </g>
     </g>
     <g id="text_13">
      <!-- 40000 -->
      <g transform="translate(32.189844 177.960056) scale(0.1 -0.1)">
       <use xlink:href="#DejaVuSans-17"/>
       <use xlink:href="#DejaVuSans-13" transform="translate(63.625 0)"/>
       <use xlink:href="#DejaVuSans-13" transform="translate(127.25 0)"/>
       <use xlink:href="#DejaVuSans-13" transform="translate(190.875 0)"/>
       <use xlink:href="#DejaVuSans-13" transform="translate(254.5 0)"/>
      </g>
     </g>
    </g>
    <g id="ytick_4">
     <g id="line2d_25">
      <path d="M 71.002344 146.732687 
L 342.647777 146.732687 
" clip-path="url(#p3ce903f718)" style="fill: none; stroke: #b0b0b0; stroke-opacity: 0.3; stroke-width: 0.8; stroke-linecap: square"/>
     </g>
     <g id="line2d_26">
      <g>
       <use xlink:href="#m2ec8488641" x="71.002344" y="146.732687" style="stroke: #000000; stroke-width: 0.8"/>
      </g>
     </g>
     <g id="text_14">
      <!-- 60000 -->
      <g transform="translate(32.189844 150.531515) scale(0.1 -0.1)">
       <defs>
        <path id="DejaVuSans-19" d="M 2113 2584 
Q 1688 2584 1439 2293 
Q 1191 2003 1191 1497 
Q 1191 994 1439 701 
Q 1688 409 2113 409 
Q 2538 409 2786 701 
Q 3034 994 3034 1497 
Q 3034 2003 2786 2293 
Q 2538 2584 2113 2584 
z
M 3366 4563 
L 3366 3988 
Q 3128 4100 2886 4159 
Q 2644 4219 2406 4219 
Q 1781 4219 1451 3797 
Q 1122 3375 1075 2522 
Q 1259 2794 1537 2939 
Q 1816 3084 2150 3084 
Q 2853 3084 3261 2657 
Q 3669 2231 3669 1497 
Q 3669 778 3244 343 
Q 2819 -91 2113 -91 
Q 1303 -91 875 529 
Q 447 1150 447 2328 
Q 447 3434 972 4092 
Q 1497 4750 2381 4750 
Q 2619 4750 2861 4703 
Q 3103 4656 3366 4563 
z
" transform="scale(0.015625)"/>
       </defs>
       <use xlink:href="#DejaVuSans-19"/>
       <use xlink:href="#DejaVuSans-13" transform="translate(63.625 0)"/>
       <use xlink:href="#DejaVuSans-13" transform="translate(127.25 0)"/>
       <use xlink:href="#DejaVuSans-13" transform="translate(190.875 0)"/>
       <use xlink:href="#DejaVuSans-13" transform="translate(254.5 0)"/>
      </g>
     </g>
    </g>
    <g id="ytick_5">
     <g id="line2d_27">
      <path d="M 71.002344 119.304145 
L 342.647777 119.304145 
" clip-path="url(#p3ce903f718)" style="fill: none; stroke: #b0b0b0; stroke-opacity: 0.3; stroke-width: 0.8; stroke-linecap: square"/>
     </g>
     <g id="line2d_28">
      <g>
       <use xlink:href="#m2ec8488641" x="71.002344" y="119.304145" style="stroke: #000000; stroke-width: 0.8"/>
      </g>
     </g>
     <g id="text_15">
      <!-- 80000 -->
      <g transform="translate(32.189844 123.102973) scale(0.1 -0.1)">
       <defs>
        <path id="DejaVuSans-1b" d="M 2034 2216 
Q 1584 2216 1326 1975 
Q 1069 1734 1069 1313 
Q 1069 891 1326 650 
Q 1584 409 2034 409 
Q 2484 409 2743 651 
Q 3003 894 3003 1313 
Q 3003 1734 2745 1975 
Q 2488 2216 2034 2216 
z
M 1403 2484 
Q 997 2584 770 2862 
Q 544 3141 544 3541 
Q 544 4100 942 4425 
Q 1341 4750 2034 4750 
Q 2731 4750 3128 4425 
Q 3525 4100 3525 3541 
Q 3525 3141 3298 2862 
Q 3072 2584 2669 2484 
Q 3125 2378 3379 2068 
Q 3634 1759 3634 1313 
Q 3634 634 3220 271 
Q 2806 -91 2034 -91 
Q 1263 -91 848 271 
Q 434 634 434 1313 
Q 434 1759 690 2068 
Q 947 2378 1403 2484 
z
M 1172 3481 
Q 1172 3119 1398 2916 
Q 1625 2713 2034 2713 
Q 2441 2713 2670 2916 
Q 2900 3119 2900 3481 
Q 2900 3844 2670 4047 
Q 2441 4250 2034 4250 
Q 1625 4250 1398 4047 
Q 1172 3844 1172 3481 
z
" transform="scale(0.015625)"/>
       </defs>
       <use xlink:href="#DejaVuSans-1b"/>
       <use xlink:href="#DejaVuSans-13" transform="translate(63.625 0)"/>
       <use xlink:href="#DejaVuSans-13" transform="translate(127.25 0)"/>
       <use xlink:href="#DejaVuSans-13" transform="translate(190.875 0)"/>
       <use xlink:href="#DejaVuSans-13" transform="translate(254.5 0)"/>
      </g>
     </g>
    </g>
    <g id="ytick_6">
     <g id="line2d_29">
      <path d="M 71.002344 91.875604 
L 342.647777 91.875604 
" clip-path="url(#p3ce903f718)" style="fill: none; stroke: #b0b0b0; stroke-opacity: 0.3; stroke-width: 0.8; stroke-linecap: square"/>
     </g>
     <g id="line2d_30">
      <g>
       <use xlink:href="#m2ec8488641" x="71.002344" y="91.875604" style="stroke: #000000; stroke-width: 0.8"/>
      </g>
     </g>
     <g id="text_16">
      <!-- 100000 -->
      <g transform="translate(25.827344 95.674432) scale(0.1 -0.1)">
       <use xlink:href="#DejaVuSans-14"/>
       <use xlink:href="#DejaVuSans-13" transform="translate(63.625 0)"/>
       <use xlink:href="#DejaVuSans-13" transform="translate(127.25 0)"/>
       <use xlink:href="#DejaVuSans-13" transform="translate(190.875 0)"/>
       <use xlink:href="#DejaVuSans-13" transform="translate(254.5 0)"/>
       <use xlink:href="#DejaVuSans-13" transform="translate(318.125 0)"/>
      </g>
     </g>
    </g>
    <g id="ytick_7">
     <g id="line2d_31">
      <path d="M 71.002344 64.447062 
L 342.647777 64.447062 
" clip-path="url(#p3ce903f718)" style="fill: none; stroke: #b0b0b0; stroke-opacity: 0.3; stroke-width: 0.8; stroke-linecap: square"/>
     </g>
     <g id="line2d_32">
      <g>
       <use xlink:href="#m2ec8488641" x="71.002344" y="64.447062" style="stroke: #000000; stroke-width: 0.8"/>
      </g>
     </g>
     <g id="text_17">
      <!-- 120000 -->
      <g transform="translate(25.827344 68.24589) scale(0.1 -0.1)">
       <use xlink:href="#DejaVuSans-14"/>
       <use xlink:href="#DejaVuSans-15" transform="translate(63.625 0)"/>
       <use xlink:href="#DejaVuSans-13" transform="translate(127.25 0)"/>
       <use xlink:href="#DejaVuSans-13" transform="translate(190.875 0)"/>
       <use xlink:href="#DejaVuSans-13" transform="translate(254.5 0)"/>
       <use xlink:href="#DejaVuSans-13" transform="translate(318.125 0)"/>
      </g>
     </g>
    </g>
    <g id="ytick_8">
     <g id="line2d_33">
      <path d="M 71.002344 37.018521 
L 342.647777 37.018521 
" clip-path="url(#p3ce903f718)" style="fill: none; stroke: #b0b0b0; stroke-opacity: 0.3; stroke-width: 0.8; stroke-linecap: square"/>
     </g>
     <g id="line2d_34">
      <g>
       <use xlink:href="#m2ec8488641" x="71.002344" y="37.018521" style="stroke: #000000; stroke-width: 0.8"/>
      </g>
     </g>
     <g id="text_18">
      <!-- 140000 -->
      <g transform="translate(25.827344 40.817349) scale(0.1 -0.1)">
       <use xlink:href="#DejaVuSans-14"/>
       <use xlink:href="#DejaVuSans-17" transform="translate(63.625 0)"/>
       <use xlink:href="#DejaVuSans-13" transform="translate(127.25 0)"/>
       <use xlink:href="#DejaVuSans-13" transform="translate(190.875 0)"/>
       <use xlink:href="#DejaVuSans-13" transform="translate(254.5 0)"/>
       <use xlink:href="#DejaVuSans-13" transform="translate(318.125 0)"/>
      </g>
     </g>
    </g>
    <g id="text_19">
     <!-- |correlación|² -->
     <g transform="translate(19.425 165.410234) rotate(-90) scale(0.1 -0.1)">
      <defs>
       <path id="DejaVuSans-5f" d="M 1344 4891 
L 1344 -1509 
L 813 -1509 
L 813 4891 
L 1344 4891 
z
" transform="scale(0.015625)"/>
       <path id="DejaVuSans-55" d="M 2631 2963 
Q 2534 3019 2420 3045 
Q 2306 3072 2169 3072 
Q 1681 3072 1420 2755 
Q 1159 2438 1159 1844 
L 1159 0 
L 581 0 
L 581 3500 
L 1159 3500 
L 1159 2956 
Q 1341 3275 1631 3429 
Q 1922 3584 2338 3584 
Q 2397 3584 2469 3576 
Q 2541 3569 2628 3553 
L 2631 2963 
z
" transform="scale(0.015625)"/>
       <path id="DejaVuSans-4f" d="M 603 4863 
L 1178 4863 
L 1178 0 
L 603 0 
L 603 4863 
z
" transform="scale(0.015625)"/>
       <path id="DejaVuSans-51" d="M 3513 2113 
L 3513 0 
L 2938 0 
L 2938 2094 
Q 2938 2591 2744 2837 
Q 2550 3084 2163 3084 
Q 1697 3084 1428 2787 
Q 1159 2491 1159 1978 
L 1159 0 
L 581 0 
L 581 3500 
L 1159 3500 
L 1159 2956 
Q 1366 3272 1645 3428 
Q 1925 3584 2291 3584 
Q 2894 3584 3203 3211 
Q 3513 2838 3513 2113 
z
" transform="scale(0.015625)"/>
       <path id="DejaVuSans-74" d="M 838 2444 
L 2163 2444 
L 2163 2088 
L 294 2088 
L 294 2431 
Q 400 2528 597 2703 
Q 1672 3656 1672 3950 
Q 1672 4156 1509 4282 
Q 1347 4409 1081 4409 
Q 919 4409 728 4354 
Q 538 4300 313 4191 
L 313 4575 
Q 553 4663 761 4706 
Q 969 4750 1147 4750 
Q 1600 4750 1872 4544 
Q 2144 4338 2144 4000 
Q 2144 3566 1109 2678 
Q 934 2528 838 2444 
z
" transform="scale(0.015625)"/>
      </defs>
      <use xlink:href="#DejaVuSans-5f"/>
      <use xlink:href="#DejaVuSans-46" transform="translate(33.6875 0)"/>
      <use xlink:href="#DejaVuSans-52" transform="translate(88.671875 0)"/>
      <use xlink:href="#DejaVuSans-55" transform="translate(149.859375 0)"/>
      <use xlink:href="#DejaVuSans-55" transform="translate(189.21875 0)"/>
      <use xlink:href="#DejaVuSans-48" transform="translate(228.125 0)"/>
      <use xlink:href="#DejaVuSans-4f" transform="translate(289.65625 0)"/>
      <use xlink:href="#DejaVuSans-44" transform="translate(317.4375 0)"/>
      <use xlink:href="#DejaVuSans-46" transform="translate(378.71875 0)"/>
      <use xlink:href="#DejaVuSans-4c" transform="translate(433.703125 0)"/>
      <use xlink:href="#DejaVuSans-b5" transform="translate(461.484375 0)"/>
      <use xlink:href="#DejaVuSans-51" transform="translate(522.671875 0)"/>
      <use xlink:href="#DejaVuSans-5f" transform="translate(586.046875 0)"/>
      <use xlink:href="#DejaVuSans-74" transform="translate(619.734375 0)"/>
     </g>
    </g>
   </g>
   <g id="line2d_35">
    <path d="M 83.349863 228.977717 
L 83.597061 228.172004 
L 83.844259 229.005146 
L 84.585851 229.014471 
L 84.833049 228.917237 
L 85.080247 228.198335 
L 85.327444 229.007614 
L 85.821839 228.842494 
L 86.069037 228.509375 
L 86.316235 229.00926 
L 86.563432 228.418038 
L 86.81063 229.016254 
L 87.057827 228.613603 
L 87.305025 228.998837 
L 87.552223 229.01694 
L 87.79942 228.522266 
L 88.046618 228.978677 
L 88.293815 228.922723 
L 88.541013 229.005831 
L 88.78821 228.307089 
L 89.035408 228.944529 
L 90.024198 229.015706 
L 90.271396 227.999615 
L 90.518594 229.001991 
L 91.260186 229.011454 
L 91.507384 227.269879 
L 91.754582 229.014334 
L 92.001779 227.577764 
L 92.248977 228.988826 
L 93.484965 229.013374 
L 94.473755 228.975386 
L 94.720953 228.241398 
L 94.96815 228.595638 
L 95.215348 228.626357 
L 95.462545 228.985946 
L 95.956941 228.554769 
L 96.204138 229.007477 
L 97.192929 229.005009 
L 97.440126 228.573832 
L 97.687324 228.842357 
L 97.934521 228.214792 
L 98.181719 228.923271 
L 98.428917 229.004734 
L 98.923312 228.990197 
L 99.912102 229.001717 
L 100.1593 227.996598 
L 100.406497 228.998974 
L 100.900892 228.911889 
L 101.14809 228.306678 
L 101.395288 228.958929 
L 101.889683 228.905169 
L 102.13688 229.010357 
L 102.384078 228.937397 
L 102.878473 229.001854 
L 103.372868 228.982106 
L 103.620066 228.847843 
L 103.867264 228.152118 
L 104.114461 228.015935 
L 104.361659 228.987729 
L 104.856054 228.927934 
L 105.103252 228.044598 
L 105.350449 229.011454 
L 105.597647 228.846472 
L 105.844844 228.445466 
L 106.092042 229.010357 
L 106.339239 228.84606 
L 106.586437 228.255798 
L 106.833635 228.978677 
L 107.080832 228.621009 
L 107.32803 228.672712 
L 107.575227 229.005009 
L 107.822425 228.394998 
L 108.31682 229.000483 
L 110.541599 229.002266 
L 110.788796 228.422426 
L 111.035994 228.943569 
L 111.283191 227.999204 
L 111.530389 228.957009 
L 111.777586 229.001717 
L 112.024784 228.077375 
L 112.271982 229.004049 
L 112.766377 228.932049 
L 113.260772 229.012551 
L 113.50797 227.817216 
L 113.755167 229.015569 
L 115.238353 228.96222 
L 115.48555 210.075475 
L 115.732748 35.819893 
L 115.979946 229.00638 
L 116.968736 228.981009 
L 117.463131 228.995546 
L 117.957526 228.55806 
L 118.204724 229.012277 
L 118.946317 229.003774 
L 119.193514 228.447661 
L 119.440712 228.905169 
L 119.687909 229.006106 
L 119.935107 228.471798 
L 120.182305 228.83358 
L 120.429502 228.423935 
L 120.6767 228.962906 
L 121.66549 229.015843 
L 123.148676 229.012963 
L 123.395873 227.389056 
L 123.643071 228.86622 
L 123.890268 228.953854 
L 124.137466 227.517422 
L 124.384664 229.006106 
L 124.631861 228.925466 
L 124.879059 228.220689 
L 125.126256 229.015431 
L 125.373454 228.982791 
L 125.620652 228.093832 
L 125.867849 229.005009 
L 126.115047 228.822472 
L 126.362244 227.985215 
L 126.609442 229.01406 
L 126.85664 229.015157 
L 127.103837 228.839614 
L 127.351035 228.900506 
L 127.598232 228.045695 
L 127.84543 228.973466 
L 129.823011 228.966746 
L 130.070208 228.633489 
L 130.317406 228.930403 
L 130.811801 228.981831 
L 131.058999 228.411729 
L 131.306196 228.860186 
L 131.553394 229.003637 
L 131.800591 228.863477 
L 132.047789 229.001306 
L 133.036579 228.96126 
L 133.283777 227.937627 
L 133.530975 228.837146 
L 133.778172 227.95669 
L 134.02537 228.991431 
L 134.519765 229.01022 
L 135.261358 229.000209 
L 135.508555 228.057215 
L 135.755753 229.010769 
L 136.00295 229.017626 
L 136.250148 227.714358 
L 136.497346 228.92094 
L 136.744543 228.351935 
L 136.991741 229.000894 
L 138.969322 229.000757 
L 139.463717 228.678197 
L 139.710914 228.753763 
L 139.958112 228.541603 
L 140.20531 229.011043 
L 140.699705 229.015431 
L 140.946902 228.565329 
L 141.441297 229.010769 
L 142.18289 229.011591 
L 142.430088 228.299684 
L 142.677285 228.882266 
L 142.924483 229.015294 
L 143.418878 227.731501 
L 143.666076 228.991157 
L 144.160471 229.014883 
L 144.407669 227.582427 
L 144.654866 227.225445 
L 144.902064 229.004186 
L 145.149261 229.010083 
L 145.396459 227.92981 
L 145.643657 228.933694 
L 146.138052 228.972369 
L 146.385249 228.260186 
L 146.632447 229.0131 
L 147.621237 228.93246 
L 147.868435 228.330404 
L 148.115632 228.961809 
L 148.857225 228.998837 
L 149.35162 228.979226 
L 149.598818 228.902151 
L 149.846016 228.534883 
L 150.093213 228.717832 
L 150.340411 228.526792 
L 150.587608 228.768574 
L 150.834806 227.72341 
L 151.082004 227.769764 
L 151.329201 228.000987 
L 151.576399 228.791066 
L 151.823596 228.982654 
L 153.801177 228.985123 
L 154.048375 228.047615 
L 154.295572 228.797374 
L 154.54277 228.991431 
L 155.53156 228.982791 
L 155.778758 227.435136 
L 156.025955 228.007158 
L 156.273153 228.96894 
L 156.767548 229.005694 
L 157.014746 228.929443 
L 157.261943 228.991569 
L 157.509141 227.857947 
L 157.756339 228.98718 
L 159.239524 229.010083 
L 159.981117 229.002814 
L 160.228314 228.806289 
L 161.7115 228.990471 
L 161.958698 228.593992 
L 162.205895 228.585763 
L 162.453093 229.010494 
L 162.70029 228.070518 
L 162.947488 228.867866 
L 163.194686 229.010631 
L 163.441883 228.976071 
L 163.689081 228.060232 
L 163.936278 228.783797 
L 164.183476 228.639386 
L 164.430673 228.963729 
L 164.677871 228.205192 
L 164.925069 228.976483 
L 165.172266 228.991157 
L 165.419464 228.882266 
L 165.666661 229.007477 
L 165.913859 228.033901 
L 166.161057 228.926289 
L 166.655452 229.017626 
L 166.902649 228.94974 
L 167.149847 229.00446 
L 167.397045 228.025398 
L 167.644242 228.905717 
L 168.633033 228.95646 
L 168.88023 228.336301 
L 169.127428 228.987866 
L 169.374625 227.99509 
L 169.621823 228.114404 
L 169.86902 229.014334 
L 170.363416 228.922723 
L 170.610613 228.534472 
L 170.857811 228.99198 
L 171.352206 228.980871 
L 171.846601 228.538449 
L 172.340996 228.700415 
L 172.835392 228.621832 
L 173.082589 228.985397 
L 173.329787 228.810677 
L 173.576984 227.408667 
L 173.824182 228.673946 
L 174.07138 229.000483 
L 174.318577 228.061604 
L 174.565775 228.802449 
L 174.812972 228.966197 
L 175.06017 228.478106 
L 175.307368 229.009946 
L 175.801763 228.990197 
L 176.04896 227.771684 
L 176.296158 228.225764 
L 176.543355 229.012689 
L 176.790553 227.708736 
L 177.037751 228.088758 
L 177.284948 229.00254 
L 177.532146 227.52565 
L 177.779343 228.950151 
L 178.026541 228.969763 
L 178.273739 227.921444 
L 178.520936 227.827227 
L 178.768134 228.853877 
L 179.015331 229.016254 
L 179.509727 228.977991 
L 180.004122 228.943431 
L 180.251319 227.39317 
L 180.498517 227.278793 
L 180.992912 229.004323 
L 181.487307 228.988551 
L 181.981702 228.522815 
L 182.2289 229.00926 
L 183.464888 229.01598 
L 183.712086 228.499363 
L 184.206481 229.01598 
L 184.700876 229.012003 
L 184.948074 228.100827 
L 185.195271 228.913123 
L 185.689666 229.003089 
L 186.184062 228.958791 
L 186.431259 227.535799 
L 186.678457 229.015294 
L 187.420049 229.017763 
L 187.667247 227.458587 
L 187.914445 228.961809 
L 188.161642 228.991569 
L 188.40884 227.828873 
L 188.656037 229.013511 
L 189.150433 228.998014 
L 189.39763 227.881673 
L 189.644828 228.981969 
L 191.128013 229.009809 
L 191.375211 228.79326 
L 191.622409 228.104118 
L 191.869606 228.891317 
L 192.116804 227.893604 
L 192.364001 228.866494 
L 192.611199 228.08437 
L 192.858397 228.92574 
L 193.105594 228.999523 
L 193.352792 228.716186 
L 193.599989 229.017351 
L 193.847187 228.737443 
L 194.094384 228.7539 
L 194.341582 228.486472 
L 194.58878 229.011729 
L 195.824768 228.974151 
L 196.813558 228.982243 
L 197.555151 229.00254 
L 199.038336 228.999797 
L 199.532731 229.013786 
L 200.027127 228.960026 
L 200.274324 227.888804 
L 200.521522 229.004323 
L 201.263115 228.957009 
L 201.510312 228.022381 
L 201.75751 229.0083 
L 202.004707 229.01502 
L 202.251905 228.689032 
L 202.499103 228.552163 
L 202.7463 228.984986 
L 202.993498 229.017077 
L 203.240695 228.920529 
L 203.735091 229.001991 
L 204.229486 228.624026 
L 204.476683 229.008711 
L 205.712671 229.009123 
L 205.959869 228.480163 
L 206.207066 226.913445 
L 206.454264 228.99486 
L 207.443054 228.988277 
L 208.92624 228.996506 
L 209.173438 227.367113 
L 209.420635 228.954951 
L 209.667833 227.428553 
L 209.91503 227.510702 
L 210.162228 228.969214 
L 210.409426 228.945489 
L 210.656623 227.694336 
L 210.903821 228.985534 
L 212.139809 229.01502 
L 212.387006 228.888163 
L 212.634204 228.439432 
L 212.881401 228.998837 
L 213.622994 229.013923 
L 214.117389 228.600712 
L 214.364587 229.016803 
L 214.611785 228.536666 
L 214.858982 228.524323 
L 215.10618 228.977031 
L 215.353377 228.745123 
L 216.09497 228.639797 
L 216.342168 228.993077 
L 218.072551 229.009534 
L 218.319748 228.933831 
L 218.566946 227.983844 
L 218.814144 228.917923 
L 219.061341 228.255798 
L 219.308539 228.89502 
L 219.555736 227.53717 
L 219.802934 227.711341 
L 220.050132 229.010906 
L 221.28612 228.8739 
L 222.027712 228.971271 
L 223.2637 228.871294 
L 223.510898 228.238518 
L 223.758095 228.989786 
L 224.005293 228.936849 
L 224.252491 227.48725 
L 224.499688 228.864574 
L 224.746886 228.626083 
L 224.994083 228.888437 
L 225.241281 228.225627 
L 225.488479 229.014746 
L 227.218862 228.967157 
L 227.466059 228.584803 
L 227.713257 228.874037 
L 228.207652 228.983614 
L 228.702047 228.998563 
L 228.949245 228.915454 
L 229.44364 228.990609 
L 229.690838 229.006929 
L 229.938035 228.037878 
L 230.185233 228.856483 
L 230.43243 228.987043 
L 230.679628 228.961809 
L 230.926826 227.334747 
L 231.174023 228.994174 
L 231.421221 227.455982 
L 231.668418 229.00062 
L 231.915616 229.007066 
L 232.162814 228.217124 
L 232.410011 229.013511 
L 232.657209 228.890083 
L 232.904406 228.957146 
L 233.151604 228.06133 
L 233.398802 228.971409 
L 233.645999 228.379226 
L 233.893197 228.991294 
L 234.140394 229.005831 
L 234.387592 228.796552 
L 234.634789 228.391843 
L 234.881987 228.998289 
L 235.62358 228.976894 
L 235.870777 228.790243 
L 236.117975 228.440118 
L 236.365173 228.985809 
L 236.61237 228.707135 
L 236.859568 228.693146 
L 237.106765 229.01502 
L 238.342753 228.999797 
L 238.589951 227.956278 
L 238.837149 228.863752 
L 239.084346 228.348095 
L 239.331544 227.384805 
L 239.578741 228.944117 
L 239.825939 228.266221 
L 240.073136 228.967843 
L 240.814729 228.964003 
L 241.309124 229.000209 
L 241.556322 228.876232 
L 241.80352 228.025672 
L 242.050717 229.017626 
L 242.297915 228.989786 
L 242.545112 228.079432 
L 242.79231 228.999934 
L 243.7811 228.963591 
L 244.028298 228.179958 
L 244.275496 229.011043 
L 244.522693 228.987454 
L 244.769891 228.802586 
L 245.017088 228.188872 
L 245.264286 228.971683 
L 245.511484 228.377443 
L 245.758681 228.997603 
L 246.005879 229.014334 
L 246.253076 228.8403 
L 246.500274 228.361261 
L 246.747471 229.005283 
L 246.994669 228.681077 
L 247.736262 228.681215 
L 247.983459 228.998014 
L 248.230657 228.957557 
L 248.477855 228.178312 
L 248.725052 228.811089 
L 248.97225 229.007066 
L 250.702633 228.994311 
L 250.949831 228.251135 
L 251.197028 228.991843 
L 252.433016 229.016528 
L 252.680214 228.950014 
L 253.174609 228.993351 
L 253.421806 227.897718 
L 253.669004 228.993489 
L 254.163399 227.376987 
L 254.657794 229.011591 
L 254.904992 228.941237 
L 255.15219 228.244415 
L 255.399387 229.004323 
L 258.118561 229.012963 
L 258.365758 229.009534 
L 258.612956 228.451089 
L 258.860153 229.01022 
L 259.107351 228.657626 
L 259.354549 228.105627 
L 259.601746 228.949877 
L 259.848944 228.193672 
L 260.096141 228.926974 
L 260.343339 228.877466 
L 260.837734 229.011043 
L 261.332129 228.922174 
L 261.579327 228.866906 
L 262.32092 228.994174 
L 262.568117 227.619181 
L 262.815315 229.005831 
L 263.062513 227.948187 
L 263.30971 228.957557 
L 263.556908 228.957009 
L 263.804105 227.963821 
L 264.051303 229.017077 
L 264.2985 229.006243 
L 264.545698 227.694884 
L 264.792896 228.995546 
L 265.534488 228.99966 
L 265.781686 228.937946 
L 266.028884 227.927478 
L 266.276081 229.014197 
L 266.770476 229.011729 
L 267.512069 228.99582 
L 268.006464 228.627729 
L 268.253662 228.865809 
L 268.50086 228.82974 
L 268.748057 229.004871 
L 269.242452 228.486335 
L 269.48965 228.853603 
L 269.736847 229.014197 
L 270.231243 229.009397 
L 271.961626 229.00542 
L 272.208823 228.457809 
L 272.456021 226.787822 
L 272.703219 229.007751 
L 273.197614 228.943157 
L 273.692009 229.010906 
L 274.186404 228.969214 
L 274.433602 227.801307 
L 274.680799 228.992117 
L 275.916787 228.99582 
L 276.163985 227.756187 
L 276.411182 229.012689 
L 276.905578 228.925329 
L 277.152775 228.170907 
L 277.399973 229.013374 
L 278.141566 228.94206 
L 278.388763 228.426266 
L 278.635961 229.013374 
L 280.860739 229.014746 
L 281.107937 228.88062 
L 281.355134 229.012689 
L 282.343925 228.948369 
L 282.83832 228.964689 
L 284.074308 228.99486 
L 284.321505 227.047022 
L 284.568703 229.003363 
L 284.815901 227.353536 
L 285.063098 227.96533 
L 285.310296 228.971409 
L 285.557493 228.976483 
L 285.804691 228.845786 
L 286.051889 228.359204 
L 286.299086 227.364782 
L 286.546284 227.874815 
L 286.793481 228.992117 
L 287.040679 228.020735 
L 287.287876 229.008986 
L 288.771062 228.998289 
L 289.265457 228.68766 
L 289.512655 229.002266 
L 289.759852 228.999111 
L 290.00705 228.689032 
L 290.254248 228.789283 
L 290.501445 229.017077 
L 290.748643 228.681352 
L 290.99584 228.682723 
L 291.243038 229.01406 
L 291.737433 229.016666 
L 291.984631 228.546952 
L 292.231828 228.690129 
L 292.479026 228.965237 
L 293.220619 228.997054 
L 293.467816 227.935981 
L 293.715014 228.926563 
L 294.209409 229.005283 
L 294.456607 228.975523 
L 294.703804 227.71285 
L 294.951002 229.013374 
L 295.198199 229.013511 
L 295.445397 228.838106 
L 296.434187 229.011729 
L 296.681385 227.616576 
L 296.928583 228.836049 
L 297.422978 229.005969 
L 297.670175 228.952346 
L 297.917373 227.793353 
L 298.164571 227.710107 
L 298.411768 228.196827 
L 298.658966 229.004597 
L 298.906163 228.902014 
L 299.153361 228.98718 
L 299.647756 229.011729 
L 299.894954 228.60222 
L 300.142151 227.814336 
L 300.389349 228.862654 
L 300.636546 228.996917 
L 300.883744 228.742243 
L 301.378139 228.577535 
L 301.625337 228.968117 
L 302.119732 228.451089 
L 302.36693 228.977031 
L 302.614127 228.829329 
L 302.861325 229.000757 
L 303.108522 229.005969 
L 303.35572 228.566015 
L 303.850115 229.005557 
L 304.097313 228.062975 
L 304.34451 228.970723 
L 304.591708 229.003363 
L 304.838905 227.630427 
L 305.086103 226.943479 
L 305.333301 228.99582 
L 305.580498 228.950837 
L 305.827696 227.928027 
L 306.074893 229.009397 
L 306.322091 227.752621 
L 306.569289 229.006106 
L 306.816486 227.871524 
L 307.063684 228.97278 
L 307.805277 229.006791 
L 308.052474 228.088072 
L 308.299672 229.003226 
L 308.794067 228.859912 
L 309.041265 227.776621 
L 309.53566 228.973054 
L 309.782857 228.132369 
L 310.030055 228.995957 
L 311.018845 228.880346 
L 311.266043 228.406106 
L 311.51324 229.014883 
L 312.254833 229.003226 
L 312.502031 228.375935 
L 312.749228 228.895706 
L 312.996426 229.017351 
L 313.490821 228.98622 
L 313.738019 228.193809 
L 313.985216 228.941511 
L 314.232414 228.219181 
L 314.479612 228.657077 
L 314.726809 228.606609 
L 314.974007 228.903797 
L 315.468402 229.005009 
L 315.7156 227.967524 
L 315.962797 228.935889 
L 316.209995 228.991157 
L 316.457192 228.036507 
L 316.70439 229.005969 
L 317.445983 228.995271 
L 317.69318 227.784576 
L 317.940378 228.971683 
L 318.187575 227.368073 
L 318.434773 228.999523 
L 320.165156 229.002129 
L 320.659551 228.980323 
L 321.153947 228.642815 
L 321.401144 229.012414 
L 321.895539 228.989786 
L 322.142737 228.965237 
L 322.389934 228.588232 
L 322.637132 227.661833 
L 322.88433 228.616758 
L 323.131527 229.000757 
L 323.625922 229.016666 
L 323.87312 228.893374 
L 324.120318 228.905991 
L 324.367515 227.896347 
L 324.614713 228.957146 
L 324.86191 229.015157 
L 325.356306 229.008849 
L 326.097898 228.979089 
L 326.345096 229.014197 
L 326.592294 228.930129 
L 326.839491 229.015843 
L 327.086689 227.875638 
L 327.333886 227.712164 
L 327.581084 227.908553 
L 327.828282 227.734656 
L 328.075479 229.005009 
L 328.322677 227.46421 
L 328.569874 229.014746 
L 328.817072 228.199295 
L 329.064269 228.916826 
L 329.805862 228.994449 
L 330.300257 228.998426 
L 330.300257 228.998426 
" clip-path="url(#p3ce903f718)" style="fill: none; stroke: #1f77b4; stroke-width: 0.8; stroke-linecap: square"/>
   </g>
   <g id="line2d_36">
    <path d="M 115.670949 238.677656 
L 115.670949 26.16 
" clip-path="url(#p3ce903f718)" style="fill: none; stroke-dasharray: 1,1.65; stroke-dashoffset: 0; stroke: #d62728"/>
   </g>
   <g id="patch_3">
    <path d="M 71.002344 238.677656 
L 71.002344 26.16 
" style="fill: none; stroke: #000000; stroke-width: 0.8; stroke-linejoin: miter; stroke-linecap: square"/>
   </g>
   <g id="patch_4">
    <path d="M 342.647777 238.677656 
L 342.647777 26.16 
" style="fill: none; stroke: #000000; stroke-width: 0.8; stroke-linejoin: miter; stroke-linecap: square"/>
   </g>
   <g id="patch_5">
    <path d="M 71.002344 238.677656 
L 342.647777 238.677656 
" style="fill: none; stroke: #000000; stroke-width: 0.8; stroke-linejoin: miter; stroke-linecap: square"/>
   </g>
   <g id="patch_6">
    <path d="M 71.002344 26.16 
L 342.647777 26.16 
" style="fill: none; stroke: #000000; stroke-width: 0.8; stroke-linejoin: miter; stroke-linecap: square"/>
   </g>
   <g id="text_20">
    <!-- corte en +1750 Hz: un pico, el resto ruido -->
    <g transform="translate(80.705998 20.16) scale(0.12 -0.12)">
     <defs>
      <path id="DejaVuSans-57" d="M 1172 4494 
L 1172 3500 
L 2356 3500 
L 2356 3053 
L 1172 3053 
L 1172 1153 
Q 1172 725 1289 603 
Q 1406 481 1766 481 
L 2356 481 
L 2356 0 
L 1766 0 
Q 1100 0 847 248 
Q 594 497 594 1153 
L 594 3053 
L 172 3053 
L 172 3500 
L 594 3500 
L 594 4494 
L 1172 4494 
z
" transform="scale(0.015625)"/>
      <path id="DejaVuSans-e" d="M 2944 4013 
L 2944 2272 
L 4684 2272 
L 4684 1741 
L 2944 1741 
L 2944 0 
L 2419 0 
L 2419 1741 
L 678 1741 
L 678 2272 
L 2419 2272 
L 2419 4013 
L 2944 4013 
z
" transform="scale(0.015625)"/>
      <path id="DejaVuSans-1a" d="M 525 4666 
L 3525 4666 
L 3525 4397 
L 1831 0 
L 1172 0 
L 2766 4134 
L 525 4134 
L 525 4666 
z
" transform="scale(0.015625)"/>
      <path id="DejaVuSans-2b" d="M 628 4666 
L 1259 4666 
L 1259 2753 
L 3553 2753 
L 3553 4666 
L 4184 4666 
L 4184 0 
L 3553 0 
L 3553 2222 
L 1259 2222 
L 1259 0 
L 628 0 
L 628 4666 
z
" transform="scale(0.015625)"/>
      <path id="DejaVuSans-5d" d="M 353 3500 
L 3084 3500 
L 3084 2975 
L 922 459 
L 3084 459 
L 3084 0 
L 275 0 
L 275 525 
L 2438 3041 
L 353 3041 
L 353 3500 
z
" transform="scale(0.015625)"/>
      <path id="DejaVuSans-1d" d="M 750 794 
L 1409 794 
L 1409 0 
L 750 0 
L 750 794 
z
M 750 3309 
L 1409 3309 
L 1409 2516 
L 750 2516 
L 750 3309 
z
" transform="scale(0.015625)"/>
      <path id="DejaVuSans-58" d="M 544 1381 
L 544 3500 
L 1119 3500 
L 1119 1403 
Q 1119 906 1312 657 
Q 1506 409 1894 409 
Q 2359 409 2629 706 
Q 2900 1003 2900 1516 
L 2900 3500 
L 3475 3500 
L 3475 0 
L 2900 0 
L 2900 538 
Q 2691 219 2414 64 
Q 2138 -91 1772 -91 
Q 1169 -91 856 284 
Q 544 659 544 1381 
z
M 1991 3584 
L 1991 3584 
z
" transform="scale(0.015625)"/>
      <path id="DejaVuSans-f" d="M 750 794 
L 1409 794 
L 1409 256 
L 897 -744 
L 494 -744 
L 750 256 
L 750 794 
z
" transform="scale(0.015625)"/>
     </defs>
     <use xlink:href="#DejaVuSans-46"/>
     <use xlink:href="#DejaVuSans-52" transform="translate(54.984375 0)"/>
     <use xlink:href="#DejaVuSans-55" transform="translate(116.171875 0)"/>
     <use xlink:href="#DejaVuSans-57" transform="translate(157.28125 0)"/>
     <use xlink:href="#DejaVuSans-48" transform="translate(196.484375 0)"/>
     <use xlink:href="#DejaVuSans-3" transform="translate(258.015625 0)"/>
     <use xlink:href="#DejaVuSans-48" transform="translate(289.796875 0)"/>
     <use xlink:href="#DejaVuSans-51" transform="translate(351.328125 0)"/>
     <use xlink:href="#DejaVuSans-3" transform="translate(414.703125 0)"/>
     <use xlink:href="#DejaVuSans-e" transform="translate(446.484375 0)"/>
     <use xlink:href="#DejaVuSans-14" transform="translate(530.28125 0)"/>
     <use xlink:href="#DejaVuSans-1a" transform="translate(593.90625 0)"/>
     <use xlink:href="#DejaVuSans-18" transform="translate(657.53125 0)"/>
     <use xlink:href="#DejaVuSans-13" transform="translate(721.15625 0)"/>
     <use xlink:href="#DejaVuSans-3" transform="translate(784.78125 0)"/>
     <use xlink:href="#DejaVuSans-2b" transform="translate(816.5625 0)"/>
     <use xlink:href="#DejaVuSans-5d" transform="translate(891.765625 0)"/>
     <use xlink:href="#DejaVuSans-1d" transform="translate(944.25 0)"/>
     <use xlink:href="#DejaVuSans-3" transform="translate(977.9375 0)"/>
     <use xlink:href="#DejaVuSans-58" transform="translate(1009.71875 0)"/>
     <use xlink:href="#DejaVuSans-51" transform="translate(1073.09375 0)"/>
     <use xlink:href="#DejaVuSans-3" transform="translate(1136.46875 0)"/>
     <use xlink:href="#DejaVuSans-53" transform="translate(1168.25 0)"/>
     <use xlink:href="#DejaVuSans-4c" transform="translate(1231.734375 0)"/>
     <use xlink:href="#DejaVuSans-46" transform="translate(1259.515625 0)"/>
     <use xlink:href="#DejaVuSans-52" transform="translate(1314.5 0)"/>
     <use xlink:href="#DejaVuSans-f" transform="translate(1375.6875 0)"/>
     <use xlink:href="#DejaVuSans-3" transform="translate(1407.46875 0)"/>
     <use xlink:href="#DejaVuSans-48" transform="translate(1439.25 0)"/>
     <use xlink:href="#DejaVuSans-4f" transform="translate(1500.78125 0)"/>
     <use xlink:href="#DejaVuSans-3" transform="translate(1528.5625 0)"/>
     <use xlink:href="#DejaVuSans-55" transform="translate(1560.34375 0)"/>
     <use xlink:href="#DejaVuSans-48" transform="translate(1599.25 0)"/>
     <use xlink:href="#DejaVuSans-56" transform="translate(1660.78125 0)"/>
     <use xlink:href="#DejaVuSans-57" transform="translate(1712.875 0)"/>
     <use xlink:href="#DejaVuSans-52" transform="translate(1752.078125 0)"/>
     <use xlink:href="#DejaVuSans-3" transform="translate(1813.265625 0)"/>
     <use xlink:href="#DejaVuSans-55" transform="translate(1845.046875 0)"/>
     <use xlink:href="#DejaVuSans-58" transform="translate(1886.15625 0)"/>
     <use xlink:href="#DejaVuSans-4c" transform="translate(1949.53125 0)"/>
     <use xlink:href="#DejaVuSans-47" transform="translate(1977.3125 0)"/>
     <use xlink:href="#DejaVuSans-52" transform="translate(2040.796875 0)"/>
    </g>
   </g>
  </g>
  <g id="axes_2">
   <g id="patch_7">
    <path d="M 401.554567 238.677656 
L 673.2 238.677656 
L 673.2 26.16 
L 401.554567 26.16 
z
" style="fill: #ffffff"/>
   </g>
   <g id="matplotlib.axis_3">
    <g id="xtick_10">
     <g id="line2d_37">
      <path d="M 433.39817 238.677656 
L 433.39817 26.16 
" clip-path="url(#p31384c04de)" style="fill: none; stroke: #b0b0b0; stroke-opacity: 0.3; stroke-width: 0.8; stroke-linecap: square"/>
     </g>
     <g id="line2d_38">
      <g>
       <use xlink:href="#m4aba9fac1f" x="433.39817" y="238.677656" style="stroke: #000000; stroke-width: 0.8"/>
      </g>
     </g>
     <g id="text_21">
      <!-- 490 -->
      <g transform="translate(423.85442 253.275313) scale(0.1 -0.1)">
       <defs>
        <path id="DejaVuSans-1c" d="M 703 97 
L 703 672 
Q 941 559 1184 500 
Q 1428 441 1663 441 
Q 2288 441 2617 861 
Q 2947 1281 2994 2138 
Q 2813 1869 2534 1725 
Q 2256 1581 1919 1581 
Q 1219 1581 811 2004 
Q 403 2428 403 3163 
Q 403 3881 828 4315 
Q 1253 4750 1959 4750 
Q 2769 4750 3195 4129 
Q 3622 3509 3622 2328 
Q 3622 1225 3098 567 
Q 2575 -91 1691 -91 
Q 1453 -91 1209 -44 
Q 966 3 703 97 
z
M 1959 2075 
Q 2384 2075 2632 2365 
Q 2881 2656 2881 3163 
Q 2881 3666 2632 3958 
Q 2384 4250 1959 4250 
Q 1534 4250 1286 3958 
Q 1038 3666 1038 3163 
Q 1038 2656 1286 2365 
Q 1534 2075 1959 2075 
z
" transform="scale(0.015625)"/>
       </defs>
       <use xlink:href="#DejaVuSans-17"/>
       <use xlink:href="#DejaVuSans-1c" transform="translate(63.625 0)"/>
       <use xlink:href="#DejaVuSans-13" transform="translate(127.25 0)"/>
      </g>
     </g>
    </g>
    <g id="xtick_11">
     <g id="line2d_39">
      <path d="M 465.891643 238.677656 
L 465.891643 26.16 
" clip-path="url(#p31384c04de)" style="fill: none; stroke: #b0b0b0; stroke-opacity: 0.3; stroke-width: 0.8; stroke-linecap: square"/>
     </g>
     <g id="line2d_40">
      <g>
       <use xlink:href="#m4aba9fac1f" x="465.891643" y="238.677656" style="stroke: #000000; stroke-width: 0.8"/>
      </g>
     </g>
     <g id="text_22">
      <!-- 500 -->
      <g transform="translate(456.347893 253.275313) scale(0.1 -0.1)">
       <use xlink:href="#DejaVuSans-18"/>
       <use xlink:href="#DejaVuSans-13" transform="translate(63.625 0)"/>
       <use xlink:href="#DejaVuSans-13" transform="translate(127.25 0)"/>
      </g>
     </g>
    </g>
    <g id="xtick_12">
     <g id="line2d_41">
      <path d="M 498.385116 238.677656 
L 498.385116 26.16 
" clip-path="url(#p31384c04de)" style="fill: none; stroke: #b0b0b0; stroke-opacity: 0.3; stroke-width: 0.8; stroke-linecap: square"/>
     </g>
     <g id="line2d_42">
      <g>
       <use xlink:href="#m4aba9fac1f" x="498.385116" y="238.677656" style="stroke: #000000; stroke-width: 0.8"/>
      </g>
     </g>
     <g id="text_23">
      <!-- 510 -->
      <g transform="translate(488.841366 253.275313) scale(0.1 -0.1)">
       <use xlink:href="#DejaVuSans-18"/>
       <use xlink:href="#DejaVuSans-14" transform="translate(63.625 0)"/>
       <use xlink:href="#DejaVuSans-13" transform="translate(127.25 0)"/>
      </g>
     </g>
    </g>
    <g id="xtick_13">
     <g id="line2d_43">
      <path d="M 530.878589 238.677656 
L 530.878589 26.16 
" clip-path="url(#p31384c04de)" style="fill: none; stroke: #b0b0b0; stroke-opacity: 0.3; stroke-width: 0.8; stroke-linecap: square"/>
     </g>
     <g id="line2d_44">
      <g>
       <use xlink:href="#m4aba9fac1f" x="530.878589" y="238.677656" style="stroke: #000000; stroke-width: 0.8"/>
      </g>
     </g>
     <g id="text_24">
      <!-- 520 -->
      <g transform="translate(521.334839 253.275313) scale(0.1 -0.1)">
       <use xlink:href="#DejaVuSans-18"/>
       <use xlink:href="#DejaVuSans-15" transform="translate(63.625 0)"/>
       <use xlink:href="#DejaVuSans-13" transform="translate(127.25 0)"/>
      </g>
     </g>
    </g>
    <g id="xtick_14">
     <g id="line2d_45">
      <path d="M 563.372062 238.677656 
L 563.372062 26.16 
" clip-path="url(#p31384c04de)" style="fill: none; stroke: #b0b0b0; stroke-opacity: 0.3; stroke-width: 0.8; stroke-linecap: square"/>
     </g>
     <g id="line2d_46">
      <g>
       <use xlink:href="#m4aba9fac1f" x="563.372062" y="238.677656" style="stroke: #000000; stroke-width: 0.8"/>
      </g>
     </g>
     <g id="text_25">
      <!-- 530 -->
      <g transform="translate(553.828312 253.275313) scale(0.1 -0.1)">
       <use xlink:href="#DejaVuSans-18"/>
       <use xlink:href="#DejaVuSans-16" transform="translate(63.625 0)"/>
       <use xlink:href="#DejaVuSans-13" transform="translate(127.25 0)"/>
      </g>
     </g>
    </g>
    <g id="xtick_15">
     <g id="line2d_47">
      <path d="M 595.865535 238.677656 
L 595.865535 26.16 
" clip-path="url(#p31384c04de)" style="fill: none; stroke: #b0b0b0; stroke-opacity: 0.3; stroke-width: 0.8; stroke-linecap: square"/>
     </g>
     <g id="line2d_48">
      <g>
       <use xlink:href="#m4aba9fac1f" x="595.865535" y="238.677656" style="stroke: #000000; stroke-width: 0.8"/>
      </g>
     </g>
     <g id="text_26">
      <!-- 540 -->
      <g transform="translate(586.321785 253.275313) scale(0.1 -0.1)">
       <use xlink:href="#DejaVuSans-18"/>
       <use xlink:href="#DejaVuSans-17" transform="translate(63.625 0)"/>
       <use xlink:href="#DejaVuSans-13" transform="translate(127.25 0)"/>
      </g>
     </g>
    </g>
    <g id="xtick_16">
     <g id="line2d_49">
      <path d="M 628.359007 238.677656 
L 628.359007 26.16 
" clip-path="url(#p31384c04de)" style="fill: none; stroke: #b0b0b0; stroke-opacity: 0.3; stroke-width: 0.8; stroke-linecap: square"/>
     </g>
     <g id="line2d_50">
      <g>
       <use xlink:href="#m4aba9fac1f" x="628.359007" y="238.677656" style="stroke: #000000; stroke-width: 0.8"/>
      </g>
     </g>
     <g id="text_27">
      <!-- 550 -->
      <g transform="translate(618.815257 253.275313) scale(0.1 -0.1)">
       <use xlink:href="#DejaVuSans-18"/>
       <use xlink:href="#DejaVuSans-18" transform="translate(63.625 0)"/>
       <use xlink:href="#DejaVuSans-13" transform="translate(127.25 0)"/>
      </g>
     </g>
    </g>
    <g id="xtick_17">
     <g id="line2d_51">
      <path d="M 660.85248 238.677656 
L 660.85248 26.16 
" clip-path="url(#p31384c04de)" style="fill: none; stroke: #b0b0b0; stroke-opacity: 0.3; stroke-width: 0.8; stroke-linecap: square"/>
     </g>
     <g id="line2d_52">
      <g>
       <use xlink:href="#m4aba9fac1f" x="660.85248" y="238.677656" style="stroke: #000000; stroke-width: 0.8"/>
      </g>
     </g>
     <g id="text_28">
      <!-- 560 -->
      <g transform="translate(651.30873 253.275313) scale(0.1 -0.1)">
       <use xlink:href="#DejaVuSans-18"/>
       <use xlink:href="#DejaVuSans-19" transform="translate(63.625 0)"/>
       <use xlink:href="#DejaVuSans-13" transform="translate(127.25 0)"/>
      </g>
     </g>
    </g>
    <g id="text_29">
     <!-- desfase de código (chips) -->
     <g transform="translate(473.405408 267.676094) scale(0.1 -0.1)">
      <use xlink:href="#DejaVuSans-47"/>
      <use xlink:href="#DejaVuSans-48" transform="translate(63.484375 0)"/>
      <use xlink:href="#DejaVuSans-56" transform="translate(125.015625 0)"/>
      <use xlink:href="#DejaVuSans-49" transform="translate(177.109375 0)"/>
      <use xlink:href="#DejaVuSans-44" transform="translate(212.3125 0)"/>
      <use xlink:href="#DejaVuSans-56" transform="translate(273.59375 0)"/>
      <use xlink:href="#DejaVuSans-48" transform="translate(325.6875 0)"/>
      <use xlink:href="#DejaVuSans-3" transform="translate(387.21875 0)"/>
      <use xlink:href="#DejaVuSans-47" transform="translate(419 0)"/>
      <use xlink:href="#DejaVuSans-48" transform="translate(482.484375 0)"/>
      <use xlink:href="#DejaVuSans-3" transform="translate(544.015625 0)"/>
      <use xlink:href="#DejaVuSans-46" transform="translate(575.796875 0)"/>
      <use xlink:href="#DejaVuSans-b5" transform="translate(630.78125 0)"/>
      <use xlink:href="#DejaVuSans-47" transform="translate(691.96875 0)"/>
      <use xlink:href="#DejaVuSans-4c" transform="translate(755.453125 0)"/>
      <use xlink:href="#DejaVuSans-4a" transform="translate(783.234375 0)"/>
      <use xlink:href="#DejaVuSans-52" transform="translate(846.71875 0)"/>
      <use xlink:href="#DejaVuSans-3" transform="translate(907.90625 0)"/>
      <use xlink:href="#DejaVuSans-b" transform="translate(939.6875 0)"/>
      <use xlink:href="#DejaVuSans-46" transform="translate(978.703125 0)"/>
      <use xlink:href="#DejaVuSans-4b" transform="translate(1033.6875 0)"/>
      <use xlink:href="#DejaVuSans-4c" transform="translate(1097.0625 0)"/>
      <use xlink:href="#DejaVuSans-53" transform="translate(1124.84375 0)"/>
      <use xlink:href="#DejaVuSans-56" transform="translate(1188.328125 0)"/>
      <use xlink:href="#DejaVuSans-c" transform="translate(1240.421875 0)"/>
     </g>
    </g>
   </g>
   <g id="matplotlib.axis_4">
    <g id="ytick_9">
     <g id="line2d_53">
      <path d="M 401.554567 229.020506 
L 673.2 229.020506 
" clip-path="url(#p31384c04de)" style="fill: none; stroke: #b0b0b0; stroke-opacity: 0.3; stroke-width: 0.8; stroke-linecap: square"/>
     </g>
     <g id="line2d_54">
      <g>
       <use xlink:href="#m2ec8488641" x="401.554567" y="229.020506" style="stroke: #000000; stroke-width: 0.8"/>
      </g>
     </g>
     <g id="text_30">
      <!-- 0 -->
      <g transform="translate(388.192067 232.819334) scale(0.1 -0.1)">
       <use xlink:href="#DejaVuSans-13"/>
      </g>
     </g>
    </g>
    <g id="ytick_10">
     <g id="line2d_55">
      <path d="M 401.554567 201.591653 
L 673.2 201.591653 
" clip-path="url(#p31384c04de)" style="fill: none; stroke: #b0b0b0; stroke-opacity: 0.3; stroke-width: 0.8; stroke-linecap: square"/>
     </g>
     <g id="line2d_56">
      <g>
       <use xlink:href="#m2ec8488641" x="401.554567" y="201.591653" style="stroke: #000000; stroke-width: 0.8"/>
      </g>
     </g>
     <g id="text_31">
      <!-- 20000 -->
      <g transform="translate(362.742067 205.390481) scale(0.1 -0.1)">
       <use xlink:href="#DejaVuSans-15"/>
       <use xlink:href="#DejaVuSans-13" transform="translate(63.625 0)"/>
       <use xlink:href="#DejaVuSans-13" transform="translate(127.25 0)"/>
       <use xlink:href="#DejaVuSans-13" transform="translate(190.875 0)"/>
       <use xlink:href="#DejaVuSans-13" transform="translate(254.5 0)"/>
      </g>
     </g>
    </g>
    <g id="ytick_11">
     <g id="line2d_57">
      <path d="M 401.554567 174.1628 
L 673.2 174.1628 
" clip-path="url(#p31384c04de)" style="fill: none; stroke: #b0b0b0; stroke-opacity: 0.3; stroke-width: 0.8; stroke-linecap: square"/>
     </g>
     <g id="line2d_58">
      <g>
       <use xlink:href="#m2ec8488641" x="401.554567" y="174.1628" style="stroke: #000000; stroke-width: 0.8"/>
      </g>
     </g>
     <g id="text_32">
      <!-- 40000 -->
      <g transform="translate(362.742067 177.961628) scale(0.1 -0.1)">
       <use xlink:href="#DejaVuSans-17"/>
       <use xlink:href="#DejaVuSans-13" transform="translate(63.625 0)"/>
       <use xlink:href="#DejaVuSans-13" transform="translate(127.25 0)"/>
       <use xlink:href="#DejaVuSans-13" transform="translate(190.875 0)"/>
       <use xlink:href="#DejaVuSans-13" transform="translate(254.5 0)"/>
      </g>
     </g>
    </g>
    <g id="ytick_12">
     <g id="line2d_59">
      <path d="M 401.554567 146.733947 
L 673.2 146.733947 
" clip-path="url(#p31384c04de)" style="fill: none; stroke: #b0b0b0; stroke-opacity: 0.3; stroke-width: 0.8; stroke-linecap: square"/>
     </g>
     <g id="line2d_60">
      <g>
       <use xlink:href="#m2ec8488641" x="401.554567" y="146.733947" style="stroke: #000000; stroke-width: 0.8"/>
      </g>
     </g>
     <g id="text_33">
      <!-- 60000 -->
      <g transform="translate(362.742067 150.532775) scale(0.1 -0.1)">
       <use xlink:href="#DejaVuSans-19"/>
       <use xlink:href="#DejaVuSans-13" transform="translate(63.625 0)"/>
       <use xlink:href="#DejaVuSans-13" transform="translate(127.25 0)"/>
       <use xlink:href="#DejaVuSans-13" transform="translate(190.875 0)"/>
       <use xlink:href="#DejaVuSans-13" transform="translate(254.5 0)"/>
      </g>
     </g>
    </g>
    <g id="ytick_13">
     <g id="line2d_61">
      <path d="M 401.554567 119.305093 
L 673.2 119.305093 
" clip-path="url(#p31384c04de)" style="fill: none; stroke: #b0b0b0; stroke-opacity: 0.3; stroke-width: 0.8; stroke-linecap: square"/>
     </g>
     <g id="line2d_62">
      <g>
       <use xlink:href="#m2ec8488641" x="401.554567" y="119.305093" style="stroke: #000000; stroke-width: 0.8"/>
      </g>
     </g>
     <g id="text_34">
      <!-- 80000 -->
      <g transform="translate(362.742067 123.103922) scale(0.1 -0.1)">
       <use xlink:href="#DejaVuSans-1b"/>
       <use xlink:href="#DejaVuSans-13" transform="translate(63.625 0)"/>
       <use xlink:href="#DejaVuSans-13" transform="translate(127.25 0)"/>
       <use xlink:href="#DejaVuSans-13" transform="translate(190.875 0)"/>
       <use xlink:href="#DejaVuSans-13" transform="translate(254.5 0)"/>
      </g>
     </g>
    </g>
    <g id="ytick_14">
     <g id="line2d_63">
      <path d="M 401.554567 91.87624 
L 673.2 91.87624 
" clip-path="url(#p31384c04de)" style="fill: none; stroke: #b0b0b0; stroke-opacity: 0.3; stroke-width: 0.8; stroke-linecap: square"/>
     </g>
     <g id="line2d_64">
      <g>
       <use xlink:href="#m2ec8488641" x="401.554567" y="91.87624" style="stroke: #000000; stroke-width: 0.8"/>
      </g>
     </g>
     <g id="text_35">
      <!-- 100000 -->
      <g transform="translate(356.379567 95.675069) scale(0.1 -0.1)">
       <use xlink:href="#DejaVuSans-14"/>
       <use xlink:href="#DejaVuSans-13" transform="translate(63.625 0)"/>
       <use xlink:href="#DejaVuSans-13" transform="translate(127.25 0)"/>
       <use xlink:href="#DejaVuSans-13" transform="translate(190.875 0)"/>
       <use xlink:href="#DejaVuSans-13" transform="translate(254.5 0)"/>
       <use xlink:href="#DejaVuSans-13" transform="translate(318.125 0)"/>
      </g>
     </g>
    </g>
    <g id="ytick_15">
     <g id="line2d_65">
      <path d="M 401.554567 64.447387 
L 673.2 64.447387 
" clip-path="url(#p31384c04de)" style="fill: none; stroke: #b0b0b0; stroke-opacity: 0.3; stroke-width: 0.8; stroke-linecap: square"/>
     </g>
     <g id="line2d_66">
      <g>
       <use xlink:href="#m2ec8488641" x="401.554567" y="64.447387" style="stroke: #000000; stroke-width: 0.8"/>
      </g>
     </g>
     <g id="text_36">
      <!-- 120000 -->
      <g transform="translate(356.379567 68.246216) scale(0.1 -0.1)">
       <use xlink:href="#DejaVuSans-14"/>
       <use xlink:href="#DejaVuSans-15" transform="translate(63.625 0)"/>
       <use xlink:href="#DejaVuSans-13" transform="translate(127.25 0)"/>
       <use xlink:href="#DejaVuSans-13" transform="translate(190.875 0)"/>
       <use xlink:href="#DejaVuSans-13" transform="translate(254.5 0)"/>
       <use xlink:href="#DejaVuSans-13" transform="translate(318.125 0)"/>
      </g>
     </g>
    </g>
    <g id="ytick_16">
     <g id="line2d_67">
      <path d="M 401.554567 37.018534 
L 673.2 37.018534 
" clip-path="url(#p31384c04de)" style="fill: none; stroke: #b0b0b0; stroke-opacity: 0.3; stroke-width: 0.8; stroke-linecap: square"/>
     </g>
     <g id="line2d_68">
      <g>
       <use xlink:href="#m2ec8488641" x="401.554567" y="37.018534" style="stroke: #000000; stroke-width: 0.8"/>
      </g>
     </g>
     <g id="text_37">
      <!-- 140000 -->
      <g transform="translate(356.379567 40.817362) scale(0.1 -0.1)">
       <use xlink:href="#DejaVuSans-14"/>
       <use xlink:href="#DejaVuSans-17" transform="translate(63.625 0)"/>
       <use xlink:href="#DejaVuSans-13" transform="translate(127.25 0)"/>
       <use xlink:href="#DejaVuSans-13" transform="translate(190.875 0)"/>
       <use xlink:href="#DejaVuSans-13" transform="translate(254.5 0)"/>
       <use xlink:href="#DejaVuSans-13" transform="translate(318.125 0)"/>
      </g>
     </g>
    </g>
   </g>
   <g id="line2d_69">
    <path d="M 413.902086 229.014746 
L 426.899475 227.819396 
L 439.896865 229.017763 
L 452.894254 229.003225 
L 465.891643 228.944116 
L 478.889032 228.97758 
L 491.886421 229.008711 
L 504.88381 229.002814 
L 517.8812 228.964414 
L 530.878589 210.077454 
L 543.875978 35.819893 
L 556.873367 229.008574 
L 569.870756 228.975248 
L 582.868145 229.00638 
L 595.865535 228.981008 
L 608.862924 228.983202 
L 621.860313 228.995545 
L 634.857702 228.99774 
L 647.855091 228.718651 
L 660.85248 228.56025 
" clip-path="url(#p31384c04de)" style="fill: none; stroke: #1f77b4; stroke-width: 0.8; stroke-linecap: square"/>
    <defs>
     <path id="md1e083f89f" d="M 0 1.5 
C 0.397805 1.5 0.77937 1.341951 1.06066 1.06066 
C 1.341951 0.77937 1.5 0.397805 1.5 0 
C 1.5 -0.397805 1.341951 -0.77937 1.06066 -1.06066 
C 0.77937 -1.341951 0.397805 -1.5 0 -1.5 
C -0.397805 -1.5 -0.77937 -1.341951 -1.06066 -1.06066 
C -1.341951 -0.77937 -1.5 -0.397805 -1.5 0 
C -1.5 0.397805 -1.341951 0.77937 -1.06066 1.06066 
C -0.77937 1.341951 -0.397805 1.5 0 1.5 
z
" style="stroke: #1f77b4"/>
    </defs>
    <g clip-path="url(#p31384c04de)">
     <use xlink:href="#md1e083f89f" x="413.902086" y="229.014746" style="fill: #1f77b4; stroke: #1f77b4"/>
     <use xlink:href="#md1e083f89f" x="426.899475" y="227.819396" style="fill: #1f77b4; stroke: #1f77b4"/>
     <use xlink:href="#md1e083f89f" x="439.896865" y="229.017763" style="fill: #1f77b4; stroke: #1f77b4"/>
     <use xlink:href="#md1e083f89f" x="452.894254" y="229.003225" style="fill: #1f77b4; stroke: #1f77b4"/>
     <use xlink:href="#md1e083f89f" x="465.891643" y="228.944116" style="fill: #1f77b4; stroke: #1f77b4"/>
     <use xlink:href="#md1e083f89f" x="478.889032" y="228.97758" style="fill: #1f77b4; stroke: #1f77b4"/>
     <use xlink:href="#md1e083f89f" x="491.886421" y="229.008711" style="fill: #1f77b4; stroke: #1f77b4"/>
     <use xlink:href="#md1e083f89f" x="504.88381" y="229.002814" style="fill: #1f77b4; stroke: #1f77b4"/>
     <use xlink:href="#md1e083f89f" x="517.8812" y="228.964414" style="fill: #1f77b4; stroke: #1f77b4"/>
     <use xlink:href="#md1e083f89f" x="530.878589" y="210.077454" style="fill: #1f77b4; stroke: #1f77b4"/>
     <use xlink:href="#md1e083f89f" x="543.875978" y="35.819893" style="fill: #1f77b4; stroke: #1f77b4"/>
     <use xlink:href="#md1e083f89f" x="556.873367" y="229.008574" style="fill: #1f77b4; stroke: #1f77b4"/>
     <use xlink:href="#md1e083f89f" x="569.870756" y="228.975248" style="fill: #1f77b4; stroke: #1f77b4"/>
     <use xlink:href="#md1e083f89f" x="582.868145" y="229.00638" style="fill: #1f77b4; stroke: #1f77b4"/>
     <use xlink:href="#md1e083f89f" x="595.865535" y="228.981008" style="fill: #1f77b4; stroke: #1f77b4"/>
     <use xlink:href="#md1e083f89f" x="608.862924" y="228.983202" style="fill: #1f77b4; stroke: #1f77b4"/>
     <use xlink:href="#md1e083f89f" x="621.860313" y="228.995545" style="fill: #1f77b4; stroke: #1f77b4"/>
     <use xlink:href="#md1e083f89f" x="634.857702" y="228.99774" style="fill: #1f77b4; stroke: #1f77b4"/>
     <use xlink:href="#md1e083f89f" x="647.855091" y="228.718651" style="fill: #1f77b4; stroke: #1f77b4"/>
     <use xlink:href="#md1e083f89f" x="660.85248" y="228.56025" style="fill: #1f77b4; stroke: #1f77b4"/>
    </g>
   </g>
   <g id="line2d_70">
    <path d="M 540.626631 238.677656 
L 540.626631 26.16 
" clip-path="url(#p31384c04de)" style="fill: none; stroke-dasharray: 1,1.65; stroke-dashoffset: 0; stroke: #d62728"/>
   </g>
   <g id="patch_8">
    <path d="M 401.554567 238.677656 
L 401.554567 26.16 
" style="fill: none; stroke: #000000; stroke-width: 0.8; stroke-linejoin: miter; stroke-linecap: square"/>
   </g>
   <g id="patch_9">
    <path d="M 673.2 238.677656 
L 673.2 26.16 
" style="fill: none; stroke: #000000; stroke-width: 0.8; stroke-linejoin: miter; stroke-linecap: square"/>
   </g>
   <g id="patch_10">
    <path d="M 401.554567 238.677656 
L 673.2 238.677656 
" style="fill: none; stroke: #000000; stroke-width: 0.8; stroke-linejoin: miter; stroke-linecap: square"/>
   </g>
   <g id="patch_11">
    <path d="M 401.554567 26.16 
L 673.2 26.16 
" style="fill: none; stroke: #000000; stroke-width: 0.8; stroke-linejoin: miter; stroke-linecap: square"/>
   </g>
   <g id="text_38">
    <!-- zoom: base de ±1 chip (por eso ~300 m sin afinar) -->
    <g transform="translate(383.285096 20.16) scale(0.12 -0.12)">
     <defs>
      <path id="DejaVuSans-50" d="M 3328 2828 
Q 3544 3216 3844 3400 
Q 4144 3584 4550 3584 
Q 5097 3584 5394 3201 
Q 5691 2819 5691 2113 
L 5691 0 
L 5113 0 
L 5113 2094 
Q 5113 2597 4934 2840 
Q 4756 3084 4391 3084 
Q 3944 3084 3684 2787 
Q 3425 2491 3425 1978 
L 3425 0 
L 2847 0 
L 2847 2094 
Q 2847 2600 2669 2842 
Q 2491 3084 2119 3084 
Q 1678 3084 1418 2786 
Q 1159 2488 1159 1978 
L 1159 0 
L 581 0 
L 581 3500 
L 1159 3500 
L 1159 2956 
Q 1356 3278 1631 3431 
Q 1906 3584 2284 3584 
Q 2666 3584 2933 3390 
Q 3200 3197 3328 2828 
z
" transform="scale(0.015625)"/>
      <path id="DejaVuSans-45" d="M 3116 1747 
Q 3116 2381 2855 2742 
Q 2594 3103 2138 3103 
Q 1681 3103 1420 2742 
Q 1159 2381 1159 1747 
Q 1159 1113 1420 752 
Q 1681 391 2138 391 
Q 2594 391 2855 752 
Q 3116 1113 3116 1747 
z
M 1159 2969 
Q 1341 3281 1617 3432 
Q 1894 3584 2278 3584 
Q 2916 3584 3314 3078 
Q 3713 2572 3713 1747 
Q 3713 922 3314 415 
Q 2916 -91 2278 -91 
Q 1894 -91 1617 61 
Q 1341 213 1159 525 
L 1159 0 
L 581 0 
L 581 4863 
L 1159 4863 
L 1159 2969 
z
" transform="scale(0.015625)"/>
      <path id="DejaVuSans-73" d="M 2944 4013 
L 2944 2803 
L 4684 2803 
L 4684 2272 
L 2944 2272 
L 2944 1063 
L 2419 1063 
L 2419 2272 
L 678 2272 
L 678 2803 
L 2419 2803 
L 2419 4013 
L 2944 4013 
z
M 678 531 
L 4684 531 
L 4684 0 
L 678 0 
L 678 531 
z
" transform="scale(0.015625)"/>
      <path id="DejaVuSans-61" d="M 4684 2553 
L 4684 1997 
Q 4356 1750 4076 1644 
Q 3797 1538 3494 1538 
Q 3150 1538 2694 1722 
Q 2659 1734 2644 1741 
Q 2622 1750 2575 1766 
Q 2091 1959 1797 1959 
Q 1522 1959 1253 1839 
Q 984 1719 678 1459 
L 678 2016 
Q 1006 2263 1286 2370 
Q 1566 2478 1869 2478 
Q 2213 2478 2672 2291 
Q 2703 2278 2719 2272 
Q 2744 2263 2788 2247 
Q 3272 2053 3566 2053 
Q 3834 2053 4098 2172 
Q 4363 2291 4684 2553 
z
" transform="scale(0.015625)"/>
      <path id="DejaVuSans-13af" d="M 3431 3500 
L 3431 0 
L 2853 0 
L 2853 3053 
L 1275 3053 
L 1275 0 
L 697 0 
L 697 3053 
L 147 3053 
L 147 3500 
L 697 3500 
L 697 3744 
Q 697 4316 967 4589 
Q 1238 4863 1797 4863 
L 2375 4863 
L 2375 4384 
L 1825 4384 
Q 1516 4384 1395 4259 
Q 1275 4134 1275 3809 
L 1275 3500 
L 3431 3500 
z
M 2853 4856 
L 3431 4856 
L 3431 4128 
L 2853 4128 
L 2853 4856 
z
" transform="scale(0.015625)"/>
     </defs>
     <use xlink:href="#DejaVuSans-5d"/>
     <use xlink:href="#DejaVuSans-52" transform="translate(52.484375 0)"/>
     <use xlink:href="#DejaVuSans-52" transform="translate(113.671875 0)"/>
     <use xlink:href="#DejaVuSans-50" transform="translate(174.859375 0)"/>
     <use xlink:href="#DejaVuSans-1d" transform="translate(272.265625 0)"/>
     <use xlink:href="#DejaVuSans-3" transform="translate(305.953125 0)"/>
     <use xlink:href="#DejaVuSans-45" transform="translate(337.734375 0)"/>
     <use xlink:href="#DejaVuSans-44" transform="translate(401.21875 0)"/>
     <use xlink:href="#DejaVuSans-56" transform="translate(462.5 0)"/>
     <use xlink:href="#DejaVuSans-48" transform="translate(514.59375 0)"/>
     <use xlink:href="#DejaVuSans-3" transform="translate(576.125 0)"/>
     <use xlink:href="#DejaVuSans-47" transform="translate(607.90625 0)"/>
     <use xlink:href="#DejaVuSans-48" transform="translate(671.390625 0)"/>
     <use xlink:href="#DejaVuSans-3" transform="translate(732.921875 0)"/>
     <use xlink:href="#DejaVuSans-73" transform="translate(764.703125 0)"/>
     <use xlink:href="#DejaVuSans-14" transform="translate(848.5 0)"/>
     <use xlink:href="#DejaVuSans-3" transform="translate(912.125 0)"/>
     <use xlink:href="#DejaVuSans-46" transform="translate(943.90625 0)"/>
     <use xlink:href="#DejaVuSans-4b" transform="translate(998.890625 0)"/>
     <use xlink:href="#DejaVuSans-4c" transform="translate(1062.265625 0)"/>
     <use xlink:href="#DejaVuSans-53" transform="translate(1090.046875 0)"/>
     <use xlink:href="#DejaVuSans-3" transform="translate(1153.53125 0)"/>
     <use xlink:href="#DejaVuSans-b" transform="translate(1185.3125 0)"/>
     <use xlink:href="#DejaVuSans-53" transform="translate(1224.328125 0)"/>
     <use xlink:href="#DejaVuSans-52" transform="translate(1287.8125 0)"/>
     <use xlink:href="#DejaVuSans-55" transform="translate(1349 0)"/>
     <use xlink:href="#DejaVuSans-3" transform="translate(1390.109375 0)"/>
     <use xlink:href="#DejaVuSans-48" transform="translate(1421.890625 0)"/>
     <use xlink:href="#DejaVuSans-56" transform="translate(1483.421875 0)"/>
     <use xlink:href="#DejaVuSans-52" transform="translate(1535.515625 0)"/>
     <use xlink:href="#DejaVuSans-3" transform="translate(1596.703125 0)"/>
     <use xlink:href="#DejaVuSans-61" transform="translate(1628.484375 0)"/>
     <use xlink:href="#DejaVuSans-16" transform="translate(1712.28125 0)"/>
     <use xlink:href="#DejaVuSans-13" transform="translate(1775.90625 0)"/>
     <use xlink:href="#DejaVuSans-13" transform="translate(1839.53125 0)"/>
     <use xlink:href="#DejaVuSans-3" transform="translate(1903.15625 0)"/>
     <use xlink:href="#DejaVuSans-50" transform="translate(1934.9375 0)"/>
     <use xlink:href="#DejaVuSans-3" transform="translate(2032.34375 0)"/>
     <use xlink:href="#DejaVuSans-56" transform="translate(2064.125 0)"/>
     <use xlink:href="#DejaVuSans-4c" transform="translate(2116.21875 0)"/>
     <use xlink:href="#DejaVuSans-51" transform="translate(2144 0)"/>
     <use xlink:href="#DejaVuSans-3" transform="translate(2207.375 0)"/>
     <use xlink:href="#DejaVuSans-44" transform="translate(2239.15625 0)"/>
     <use xlink:href="#DejaVuSans-13af" transform="translate(2300.4375 0)"/>
     <use xlink:href="#DejaVuSans-51" transform="translate(2363.421875 0)"/>
     <use xlink:href="#DejaVuSans-44" transform="translate(2426.796875 0)"/>
     <use xlink:href="#DejaVuSans-55" transform="translate(2488.078125 0)"/>
     <use xlink:href="#DejaVuSans-c" transform="translate(2529.1875 0)"/>
    </g>
   </g>
  </g>
 </g>
 <defs>
  <clipPath id="p3ce903f718">
   <rect x="71.002344" y="26.16" width="271.645433" height="212.517656"/>
  </clipPath>
  <clipPath id="p31384c04de">
   <rect x="401.554567" y="26.16" width="271.645433" height="212.517656"/>
  </clipPath>
 </defs>
</svg>
