<?xml version="1.0" encoding="utf-8" standalone="no"?>
<!DOCTYPE svg PUBLIC "-//W3C//DTD SVG 1.1//EN"
  "http://www.w3.org/Graphics/SVG/1.1/DTD/svg11.dtd">
<svg xmlns:xlink="http://www.w3.org/1999/xlink" width="684pt" height="280.8pt" viewBox="0 0 684 280.8" xmlns="http://www.w3.org/2000/svg" version="1.1">
 <metadata>
  <rdf:RDF xmlns:dc="http://purl.org/dc/elements/1.1/" xmlns:cc="http://creativecommons.org/ns#" xmlns:rdf="http://www.w3.org/1999/02/22-rdf-syntax-ns#">
   <cc:Work>
    <dc:type rdf:resource="http://purl.org/dc/dcmitype/StillImage"/>
    <dc:date>2026-07-04T05:38:03.366111</dc:date>
    <dc:format>image/svg+xml</dc:format>
    <dc:creator>
     <cc:Agent>
      <dc:title>Matplotlib v3.11.0, https://matplotlib.org/</dc:title>
     </cc:Agent>
    </dc:creator>
   </cc:Work>
  </rdf:RDF>
 </metadata>
 <defs>
  <style type="text/css">*{stroke-linejoin: round; stroke-linecap: butt}</style>
 </defs>
 <g id="figure_1">
  <g id="patch_1">
   <path d="M 0 280.8 
L 684 280.8 
L 684 0 
L 0 0 
z
" style="fill: #ffffff"/>
  </g>
  <g id="axes_1">
   <g id="patch_2">
    <path d="M 58.042344 238.677656 
L 343.524239 238.677656 
L 343.524239 26.16 
L 58.042344 26.16 
z
" style="fill: #ffffff"/>
   </g>
   <g id="matplotlib.axis_1">
    <g id="xtick_1">
     <g id="line2d_1">
      <path d="M 71.018794 238.677656 
L 71.018794 26.16 
" clip-path="url(#p3c88a3acec)" style="fill: none; stroke: #b0b0b0; stroke-opacity: 0.3; stroke-width: 0.8; stroke-linecap: square"/>
     </g>
     <g id="line2d_2">
      <defs>
       <path id="m2ad41f39db" d="M 0 0 
L 0 3.5 
" style="stroke: #000000; stroke-width: 0.8"/>
      </defs>
      <g>
       <use xlink:href="#m2ad41f39db" x="71.018794" y="238.677656" style="stroke: #000000; stroke-width: 0.8"/>
      </g>
     </g>
     <g id="text_1">
      <!-- 0 -->
      <g transform="translate(67.837544 253.275313) scale(0.1 -0.1)">
       <defs>
        <path id="DejaVuSans-13" d="M 2034 4250 
Q 1547 4250 1301 3770 
Q 1056 3291 1056 2328 
Q 1056 1369 1301 889 
Q 1547 409 2034 409 
Q 2525 409 2770 889 
Q 3016 1369 3016 2328 
Q 3016 3291 2770 3770 
Q 2525 4250 2034 4250 
z
M 2034 4750 
Q 2819 4750 3233 4129 
Q 3647 3509 3647 2328 
Q 3647 1150 3233 529 
Q 2819 -91 2034 -91 
Q 1250 -91 836 529 
Q 422 1150 422 2328 
Q 422 3509 836 4129 
Q 1250 4750 2034 4750 
z
" transform="scale(0.015625)"/>
       </defs>
       <use xlink:href="#DejaVuSans-13"/>
      </g>
     </g>
    </g>
    <g id="xtick_2">
     <g id="line2d_3">
      <path d="M 121.807247 238.677656 
L 121.807247 26.16 
" clip-path="url(#p3c88a3acec)" style="fill: none; stroke: #b0b0b0; stroke-opacity: 0.3; stroke-width: 0.8; stroke-linecap: square"/>
     </g>
     <g id="line2d_4">
      <g>
       <use xlink:href="#m2ad41f39db" x="121.807247" y="238.677656" style="stroke: #000000; stroke-width: 0.8"/>
      </g>
     </g>
     <g id="text_2">
      <!-- 200 -->
      <g transform="translate(112.263497 253.275313) scale(0.1 -0.1)">
       <defs>
        <path id="DejaVuSans-15" d="M 1228 531 
L 3431 531 
L 3431 0 
L 469 0 
L 469 531 
Q 828 903 1448 1529 
Q 2069 2156 2228 2338 
Q 2531 2678 2651 2914 
Q 2772 3150 2772 3378 
Q 2772 3750 2511 3984 
Q 2250 4219 1831 4219 
Q 1534 4219 1204 4116 
Q 875 4013 500 3803 
L 500 4441 
Q 881 4594 1212 4672 
Q 1544 4750 1819 4750 
Q 2544 4750 2975 4387 
Q 3406 4025 3406 3419 
Q 3406 3131 3298 2873 
Q 3191 2616 2906 2266 
Q 2828 2175 2409 1742 
Q 1991 1309 1228 531 
z
" transform="scale(0.015625)"/>
       </defs>
       <use xlink:href="#DejaVuSans-15"/>
       <use xlink:href="#DejaVuSans-13" transform="translate(63.625 0)"/>
       <use xlink:href="#DejaVuSans-13" transform="translate(127.25 0)"/>
      </g>
     </g>
    </g>
    <g id="xtick_3">
     <g id="line2d_5">
      <path d="M 172.5957 238.677656 
L 172.5957 26.16 
" clip-path="url(#p3c88a3acec)" style="fill: none; stroke: #b0b0b0; stroke-opacity: 0.3; stroke-width: 0.8; stroke-linecap: square"/>
     </g>
     <g id="line2d_6">
      <g>
       <use xlink:href="#m2ad41f39db" x="172.5957" y="238.677656" style="stroke: #000000; stroke-width: 0.8"/>
      </g>
     </g>
     <g id="text_3">
      <!-- 400 -->
      <g transform="translate(163.05195 253.275313) scale(0.1 -0.1)">
       <defs>
        <path id="DejaVuSans-17" d="M 2419 4116 
L 825 1625 
L 2419 1625 
L 2419 4116 
z
M 2253 4666 
L 3047 4666 
L 3047 1625 
L 3713 1625 
L 3713 1100 
L 3047 1100 
L 3047 0 
L 2419 0 
L 2419 1100 
L 313 1100 
L 313 1709 
L 2253 4666 
z
" transform="scale(0.015625)"/>
       </defs>
       <use xlink:href="#DejaVuSans-17"/>
       <use xlink:href="#DejaVuSans-13" transform="translate(63.625 0)"/>
       <use xlink:href="#DejaVuSans-13" transform="translate(127.25 0)"/>
      </g>
     </g>
    </g>
    <g id="xtick_4">
     <g id="line2d_7">
      <path d="M 223.384153 238.677656 
L 223.384153 26.16 
" clip-path="url(#p3c88a3acec)" style="fill: none; stroke: #b0b0b0; stroke-opacity: 0.3; stroke-width: 0.8; stroke-linecap: square"/>
     </g>
     <g id="line2d_8">
      <g>
       <use xlink:href="#m2ad41f39db" x="223.384153" y="238.677656" style="stroke: #000000; stroke-width: 0.8"/>
      </g>
     </g>
     <g id="text_4">
      <!-- 600 -->
      <g transform="translate(213.840403 253.275313) scale(0.1 -0.1)">
       <defs>
        <path id="DejaVuSans-19" d="M 2113 2584 
Q 1688 2584 1439 2293 
Q 1191 2003 1191 1497 
Q 1191 994 1439 701 
Q 1688 409 2113 409 
Q 2538 409 2786 701 
Q 3034 994 3034 1497 
Q 3034 2003 2786 2293 
Q 2538 2584 2113 2584 
z
M 3366 4563 
L 3366 3988 
Q 3128 4100 2886 4159 
Q 2644 4219 2406 4219 
Q 1781 4219 1451 3797 
Q 1122 3375 1075 2522 
Q 1259 2794 1537 2939 
Q 1816 3084 2150 3084 
Q 2853 3084 3261 2657 
Q 3669 2231 3669 1497 
Q 3669 778 3244 343 
Q 2819 -91 2113 -91 
Q 1303 -91 875 529 
Q 447 1150 447 2328 
Q 447 3434 972 4092 
Q 1497 4750 2381 4750 
Q 2619 4750 2861 4703 
Q 3103 4656 3366 4563 
z
" transform="scale(0.015625)"/>
       </defs>
       <use xlink:href="#DejaVuSans-19"/>
       <use xlink:href="#DejaVuSans-13" transform="translate(63.625 0)"/>
       <use xlink:href="#DejaVuSans-13" transform="translate(127.25 0)"/>
      </g>
     </g>
    </g>
    <g id="xtick_5">
     <g id="line2d_9">
      <path d="M 274.172606 238.677656 
L 274.172606 26.16 
" clip-path="url(#p3c88a3acec)" style="fill: none; stroke: #b0b0b0; stroke-opacity: 0.3; stroke-width: 0.8; stroke-linecap: square"/>
     </g>
     <g id="line2d_10">
      <g>
       <use xlink:href="#m2ad41f39db" x="274.172606" y="238.677656" style="stroke: #000000; stroke-width: 0.8"/>
      </g>
     </g>
     <g id="text_5">
      <!-- 800 -->
      <g transform="translate(264.628856 253.275313) scale(0.1 -0.1)">
       <defs>
        <path id="DejaVuSans-1b" d="M 2034 2216 
Q 1584 2216 1326 1975 
Q 1069 1734 1069 1313 
Q 1069 891 1326 650 
Q 1584 409 2034 409 
Q 2484 409 2743 651 
Q 3003 894 3003 1313 
Q 3003 1734 2745 1975 
Q 2488 2216 2034 2216 
z
M 1403 2484 
Q 997 2584 770 2862 
Q 544 3141 544 3541 
Q 544 4100 942 4425 
Q 1341 4750 2034 4750 
Q 2731 4750 3128 4425 
Q 3525 4100 3525 3541 
Q 3525 3141 3298 2862 
Q 3072 2584 2669 2484 
Q 3125 2378 3379 2068 
Q 3634 1759 3634 1313 
Q 3634 634 3220 271 
Q 2806 -91 2034 -91 
Q 1263 -91 848 271 
Q 434 634 434 1313 
Q 434 1759 690 2068 
Q 947 2378 1403 2484 
z
M 1172 3481 
Q 1172 3119 1398 2916 
Q 1625 2713 2034 2713 
Q 2441 2713 2670 2916 
Q 2900 3119 2900 3481 
Q 2900 3844 2670 4047 
Q 2441 4250 2034 4250 
Q 1625 4250 1398 4047 
Q 1172 3844 1172 3481 
z
" transform="scale(0.015625)"/>
       </defs>
       <use xlink:href="#DejaVuSans-1b"/>
       <use xlink:href="#DejaVuSans-13" transform="translate(63.625 0)"/>
       <use xlink:href="#DejaVuSans-13" transform="translate(127.25 0)"/>
      </g>
     </g>
    </g>
    <g id="xtick_6">
     <g id="line2d_11">
      <path d="M 324.961059 238.677656 
L 324.961059 26.16 
" clip-path="url(#p3c88a3acec)" style="fill: none; stroke: #b0b0b0; stroke-opacity: 0.3; stroke-width: 0.8; stroke-linecap: square"/>
     </g>
     <g id="line2d_12">
      <g>
       <use xlink:href="#m2ad41f39db" x="324.961059" y="238.677656" style="stroke: #000000; stroke-width: 0.8"/>
      </g>
     </g>
     <g id="text_6">
      <!-- 1000 -->
      <g transform="translate(312.236059 253.275313) scale(0.1 -0.1)">
       <defs>
        <path id="DejaVuSans-14" d="M 794 531 
L 1825 531 
L 1825 4091 
L 703 3866 
L 703 4441 
L 1819 4666 
L 2450 4666 
L 2450 531 
L 3481 531 
L 3481 0 
L 794 0 
L 794 531 
z
" transform="scale(0.015625)"/>
       </defs>
       <use xlink:href="#DejaVuSans-14"/>
       <use xlink:href="#DejaVuSans-13" transform="translate(63.625 0)"/>
       <use xlink:href="#DejaVuSans-13" transform="translate(127.25 0)"/>
       <use xlink:href="#DejaVuSans-13" transform="translate(190.875 0)"/>
      </g>
     </g>
    </g>
    <g id="text_7">
     <!-- desfase (chips) -->
     <g transform="translate(162.845791 267.276094) scale(0.1 -0.1)">
      <defs>
       <path id="DejaVuSans-47" d="M 2906 2969 
L 2906 4863 
L 3481 4863 
L 3481 0 
L 2906 0 
L 2906 525 
Q 2725 213 2448 61 
Q 2172 -91 1784 -91 
Q 1150 -91 751 415 
Q 353 922 353 1747 
Q 353 2572 751 3078 
Q 1150 3584 1784 3584 
Q 2172 3584 2448 3432 
Q 2725 3281 2906 2969 
z
M 947 1747 
Q 947 1113 1208 752 
Q 1469 391 1925 391 
Q 2381 391 2643 752 
Q 2906 1113 2906 1747 
Q 2906 2381 2643 2742 
Q 2381 3103 1925 3103 
Q 1469 3103 1208 2742 
Q 947 2381 947 1747 
z
" transform="scale(0.015625)"/>
       <path id="DejaVuSans-48" d="M 3597 1894 
L 3597 1613 
L 953 1613 
Q 991 1019 1311 708 
Q 1631 397 2203 397 
Q 2534 397 2845 478 
Q 3156 559 3463 722 
L 3463 178 
Q 3153 47 2828 -22 
Q 2503 -91 2169 -91 
Q 1331 -91 842 396 
Q 353 884 353 1716 
Q 353 2575 817 3079 
Q 1281 3584 2069 3584 
Q 2775 3584 3186 3129 
Q 3597 2675 3597 1894 
z
M 3022 2063 
Q 3016 2534 2758 2815 
Q 2500 3097 2075 3097 
Q 1594 3097 1305 2825 
Q 1016 2553 972 2059 
L 3022 2063 
z
" transform="scale(0.015625)"/>
       <path id="DejaVuSans-56" d="M 2834 3397 
L 2834 2853 
Q 2591 2978 2328 3040 
Q 2066 3103 1784 3103 
Q 1356 3103 1142 2972 
Q 928 2841 928 2578 
Q 928 2378 1081 2264 
Q 1234 2150 1697 2047 
L 1894 2003 
Q 2506 1872 2764 1633 
Q 3022 1394 3022 966 
Q 3022 478 2636 193 
Q 2250 -91 1575 -91 
Q 1294 -91 989 -36 
Q 684 19 347 128 
L 347 722 
Q 666 556 975 473 
Q 1284 391 1588 391 
Q 1994 391 2212 530 
Q 2431 669 2431 922 
Q 2431 1156 2273 1281 
Q 2116 1406 1581 1522 
L 1381 1569 
Q 847 1681 609 1914 
Q 372 2147 372 2553 
Q 372 3047 722 3315 
Q 1072 3584 1716 3584 
Q 2034 3584 2315 3537 
Q 2597 3491 2834 3397 
z
" transform="scale(0.015625)"/>
       <path id="DejaVuSans-49" d="M 2375 4863 
L 2375 4384 
L 1825 4384 
Q 1516 4384 1395 4259 
Q 1275 4134 1275 3809 
L 1275 3500 
L 2222 3500 
L 2222 3053 
L 1275 3053 
L 1275 0 
L 697 0 
L 697 3053 
L 147 3053 
L 147 3500 
L 697 3500 
L 697 3744 
Q 697 4328 969 4595 
Q 1241 4863 1831 4863 
L 2375 4863 
z
" transform="scale(0.015625)"/>
       <path id="DejaVuSans-44" d="M 2194 1759 
Q 1497 1759 1228 1600 
Q 959 1441 959 1056 
Q 959 750 1161 570 
Q 1363 391 1709 391 
Q 2188 391 2477 730 
Q 2766 1069 2766 1631 
L 2766 1759 
L 2194 1759 
z
M 3341 1997 
L 3341 0 
L 2766 0 
L 2766 531 
Q 2569 213 2275 61 
Q 1981 -91 1556 -91 
Q 1019 -91 701 211 
Q 384 513 384 1019 
Q 384 1609 779 1909 
Q 1175 2209 1959 2209 
L 2766 2209 
L 2766 2266 
Q 2766 2663 2505 2880 
Q 2244 3097 1772 3097 
Q 1472 3097 1187 3025 
Q 903 2953 641 2809 
L 641 3341 
Q 956 3463 1253 3523 
Q 1550 3584 1831 3584 
Q 2591 3584 2966 3190 
Q 3341 2797 3341 1997 
z
" transform="scale(0.015625)"/>
       <path id="DejaVuSans-3" transform="scale(0.015625)"/>
       <path id="DejaVuSans-b" d="M 1984 4856 
Q 1566 4138 1362 3434 
Q 1159 2731 1159 2009 
Q 1159 1288 1364 580 
Q 1569 -128 1984 -844 
L 1484 -844 
Q 1016 -109 783 600 
Q 550 1309 550 2009 
Q 550 2706 781 3412 
Q 1013 4119 1484 4856 
L 1984 4856 
z
" transform="scale(0.015625)"/>
       <path id="DejaVuSans-46" d="M 3122 3366 
L 3122 2828 
Q 2878 2963 2633 3030 
Q 2388 3097 2138 3097 
Q 1578 3097 1268 2742 
Q 959 2388 959 1747 
Q 959 1106 1268 751 
Q 1578 397 2138 397 
Q 2388 397 2633 464 
Q 2878 531 3122 666 
L 3122 134 
Q 2881 22 2623 -34 
Q 2366 -91 2075 -91 
Q 1284 -91 818 406 
Q 353 903 353 1747 
Q 353 2603 823 3093 
Q 1294 3584 2113 3584 
Q 2378 3584 2631 3529 
Q 2884 3475 3122 3366 
z
" transform="scale(0.015625)"/>
       <path id="DejaVuSans-4b" d="M 3513 2113 
L 3513 0 
L 2938 0 
L 2938 2094 
Q 2938 2591 2744 2837 
Q 2550 3084 2163 3084 
Q 1697 3084 1428 2787 
Q 1159 2491 1159 1978 
L 1159 0 
L 581 0 
L 581 4863 
L 1159 4863 
L 1159 2956 
Q 1366 3272 1645 3428 
Q 1925 3584 2291 3584 
Q 2894 3584 3203 3211 
Q 3513 2838 3513 2113 
z
" transform="scale(0.015625)"/>
       <path id="DejaVuSans-4c" d="M 603 3500 
L 1178 3500 
L 1178 0 
L 603 0 
L 603 3500 
z
M 603 4863 
L 1178 4863 
L 1178 4134 
L 603 4134 
L 603 4863 
z
" transform="scale(0.015625)"/>
       <path id="DejaVuSans-53" d="M 1159 525 
L 1159 -1331 
L 581 -1331 
L 581 3500 
L 1159 3500 
L 1159 2969 
Q 1341 3281 1617 3432 
Q 1894 3584 2278 3584 
Q 2916 3584 3314 3078 
Q 3713 2572 3713 1747 
Q 3713 922 3314 415 
Q 2916 -91 2278 -91 
Q 1894 -91 1617 61 
Q 1341 213 1159 525 
z
M 3116 1747 
Q 3116 2381 2855 2742 
Q 2594 3103 2138 3103 
Q 1681 3103 1420 2742 
Q 1159 2381 1159 1747 
Q 1159 1113 1420 752 
Q 1681 391 2138 391 
Q 2594 391 2855 752 
Q 3116 1113 3116 1747 
z
" transform="scale(0.015625)"/>
       <path id="DejaVuSans-c" d="M 513 4856 
L 1013 4856 
Q 1481 4119 1714 3412 
Q 1947 2706 1947 2009 
Q 1947 1309 1714 600 
Q 1481 -109 1013 -844 
L 513 -844 
Q 928 -128 1133 580 
Q 1338 1288 1338 2009 
Q 1338 2731 1133 3434 
Q 928 4138 513 4856 
z
" transform="scale(0.015625)"/>
      </defs>
      <use xlink:href="#DejaVuSans-47"/>
      <use xlink:href="#DejaVuSans-48" transform="translate(63.484375 0)"/>
      <use xlink:href="#DejaVuSans-56" transform="translate(125.015625 0)"/>
      <use xlink:href="#DejaVuSans-49" transform="translate(177.109375 0)"/>
      <use xlink:href="#DejaVuSans-44" transform="translate(212.3125 0)"/>
      <use xlink:href="#DejaVuSans-56" transform="translate(273.59375 0)"/>
      <use xlink:href="#DejaVuSans-48" transform="translate(325.6875 0)"/>
      <use xlink:href="#DejaVuSans-3" transform="translate(387.21875 0)"/>
      <use xlink:href="#DejaVuSans-b" transform="translate(419 0)"/>
      <use xlink:href="#DejaVuSans-46" transform="translate(458.015625 0)"/>
      <use xlink:href="#DejaVuSans-4b" transform="translate(513 0)"/>
      <use xlink:href="#DejaVuSans-4c" transform="translate(576.375 0)"/>
      <use xlink:href="#DejaVuSans-53" transform="translate(604.15625 0)"/>
      <use xlink:href="#DejaVuSans-56" transform="translate(667.640625 0)"/>
      <use xlink:href="#DejaVuSans-c" transform="translate(719.734375 0)"/>
     </g>
    </g>
   </g>
   <g id="matplotlib.axis_2">
    <g id="ytick_1">
     <g id="line2d_13">
      <path d="M 58.042344 217.475611 
L 343.524239 217.475611 
" clip-path="url(#p3c88a3acec)" style="fill: none; stroke: #b0b0b0; stroke-opacity: 0.3; stroke-width: 0.8; stroke-linecap: square"/>
     </g>
     <g id="line2d_14">
      <defs>
       <path id="m33f9cea279" d="M 0 0 
L -3.5 0 
" style="stroke: #000000; stroke-width: 0.8"/>
      </defs>
      <g>
       <use xlink:href="#m33f9cea279" x="58.042344" y="217.475611" style="stroke: #000000; stroke-width: 0.8"/>
      </g>
     </g>
     <g id="text_8">
      <!-- 0 -->
      <g transform="translate(44.679844 221.274439) scale(0.1 -0.1)">
       <use xlink:href="#DejaVuSans-13"/>
      </g>
     </g>
    </g>
    <g id="ytick_2">
     <g id="line2d_15">
      <path d="M 58.042344 181.961296 
L 343.524239 181.961296 
" clip-path="url(#p3c88a3acec)" style="fill: none; stroke: #b0b0b0; stroke-opacity: 0.3; stroke-width: 0.8; stroke-linecap: square"/>
     </g>
     <g id="line2d_16">
      <g>
       <use xlink:href="#m33f9cea279" x="58.042344" y="181.961296" style="stroke: #000000; stroke-width: 0.8"/>
      </g>
     </g>
     <g id="text_9">
      <!-- 200 -->
      <g transform="translate(31.954844 185.760125) scale(0.1 -0.1)">
       <use xlink:href="#DejaVuSans-15"/>
       <use xlink:href="#DejaVuSans-13" transform="translate(63.625 0)"/>
       <use xlink:href="#DejaVuSans-13" transform="translate(127.25 0)"/>
      </g>
     </g>
    </g>
    <g id="ytick_3">
     <g id="line2d_17">
      <path d="M 58.042344 146.446982 
L 343.524239 146.446982 
" clip-path="url(#p3c88a3acec)" style="fill: none; stroke: #b0b0b0; stroke-opacity: 0.3; stroke-width: 0.8; stroke-linecap: square"/>
     </g>
     <g id="line2d_18">
      <g>
       <use xlink:href="#m33f9cea279" x="58.042344" y="146.446982" style="stroke: #000000; stroke-width: 0.8"/>
      </g>
     </g>
     <g id="text_10">
      <!-- 400 -->
      <g transform="translate(31.954844 150.24581) scale(0.1 -0.1)">
       <use xlink:href="#DejaVuSans-17"/>
       <use xlink:href="#DejaVuSans-13" transform="translate(63.625 0)"/>
       <use xlink:href="#DejaVuSans-13" transform="translate(127.25 0)"/>
      </g>
     </g>
    </g>
    <g id="ytick_4">
     <g id="line2d_19">
      <path d="M 58.042344 110.932668 
L 343.524239 110.932668 
" clip-path="url(#p3c88a3acec)" style="fill: none; stroke: #b0b0b0; stroke-opacity: 0.3; stroke-width: 0.8; stroke-linecap: square"/>
     </g>
     <g id="line2d_20">
      <g>
       <use xlink:href="#m33f9cea279" x="58.042344" y="110.932668" style="stroke: #000000; stroke-width: 0.8"/>
      </g>
     </g>
     <g id="text_11">
      <!-- 600 -->
      <g transform="translate(31.954844 114.731496) scale(0.1 -0.1)">
       <use xlink:href="#DejaVuSans-19"/>
       <use xlink:href="#DejaVuSans-13" transform="translate(63.625 0)"/>
       <use xlink:href="#DejaVuSans-13" transform="translate(127.25 0)"/>
      </g>
     </g>
    </g>
    <g id="ytick_5">
     <g id="line2d_21">
      <path d="M 58.042344 75.418354 
L 343.524239 75.418354 
" clip-path="url(#p3c88a3acec)" style="fill: none; stroke: #b0b0b0; stroke-opacity: 0.3; stroke-width: 0.8; stroke-linecap: square"/>
     </g>
     <g id="line2d_22">
      <g>
       <use xlink:href="#m33f9cea279" x="58.042344" y="75.418354" style="stroke: #000000; stroke-width: 0.8"/>
      </g>
     </g>
     <g id="text_12">
      <!-- 800 -->
      <g transform="translate(31.954844 79.217182) scale(0.1 -0.1)">
       <use xlink:href="#DejaVuSans-1b"/>
       <use xlink:href="#DejaVuSans-13" transform="translate(63.625 0)"/>
       <use xlink:href="#DejaVuSans-13" transform="translate(127.25 0)"/>
      </g>
     </g>
    </g>
    <g id="ytick_6">
     <g id="line2d_23">
      <path d="M 58.042344 39.90404 
L 343.524239 39.90404 
" clip-path="url(#p3c88a3acec)" style="fill: none; stroke: #b0b0b0; stroke-opacity: 0.3; stroke-width: 0.8; stroke-linecap: square"/>
     </g>
     <g id="line2d_24">
      <g>
       <use xlink:href="#m33f9cea279" x="58.042344" y="39.90404" style="stroke: #000000; stroke-width: 0.8"/>
      </g>
     </g>
     <g id="text_13">
      <!-- 1000 -->
      <g transform="translate(25.592344 43.702868) scale(0.1 -0.1)">
       <use xlink:href="#DejaVuSans-14"/>
       <use xlink:href="#DejaVuSans-13" transform="translate(63.625 0)"/>
       <use xlink:href="#DejaVuSans-13" transform="translate(127.25 0)"/>
       <use xlink:href="#DejaVuSans-13" transform="translate(190.875 0)"/>
      </g>
     </g>
    </g>
    <g id="text_14">
     <!-- autocorrelación -->
     <g transform="translate(19.19 171.289141) rotate(-90) scale(0.1 -0.1)">
      <defs>
       <path id="DejaVuSans-58" d="M 544 1381 
L 544 3500 
L 1119 3500 
L 1119 1403 
Q 1119 906 1312 657 
Q 1506 409 1894 409 
Q 2359 409 2629 706 
Q 2900 1003 2900 1516 
L 2900 3500 
L 3475 3500 
L 3475 0 
L 2900 0 
L 2900 538 
Q 2691 219 2414 64 
Q 2138 -91 1772 -91 
Q 1169 -91 856 284 
Q 544 659 544 1381 
z
M 1991 3584 
L 1991 3584 
z
" transform="scale(0.015625)"/>
       <path id="DejaVuSans-57" d="M 1172 4494 
L 1172 3500 
L 2356 3500 
L 2356 3053 
L 1172 3053 
L 1172 1153 
Q 1172 725 1289 603 
Q 1406 481 1766 481 
L 2356 481 
L 2356 0 
L 1766 0 
Q 1100 0 847 248 
Q 594 497 594 1153 
L 594 3053 
L 172 3053 
L 172 3500 
L 594 3500 
L 594 4494 
L 1172 4494 
z
" transform="scale(0.015625)"/>
       <path id="DejaVuSans-52" d="M 1959 3097 
Q 1497 3097 1228 2736 
Q 959 2375 959 1747 
Q 959 1119 1226 758 
Q 1494 397 1959 397 
Q 2419 397 2687 759 
Q 2956 1122 2956 1747 
Q 2956 2369 2687 2733 
Q 2419 3097 1959 3097 
z
M 1959 3584 
Q 2709 3584 3137 3096 
Q 3566 2609 3566 1747 
Q 3566 888 3137 398 
Q 2709 -91 1959 -91 
Q 1206 -91 779 398 
Q 353 888 353 1747 
Q 353 2609 779 3096 
Q 1206 3584 1959 3584 
z
" transform="scale(0.015625)"/>
       <path id="DejaVuSans-55" d="M 2631 2963 
Q 2534 3019 2420 3045 
Q 2306 3072 2169 3072 
Q 1681 3072 1420 2755 
Q 1159 2438 1159 1844 
L 1159 0 
L 581 0 
L 581 3500 
L 1159 3500 
L 1159 2956 
Q 1341 3275 1631 3429 
Q 1922 3584 2338 3584 
Q 2397 3584 2469 3576 
Q 2541 3569 2628 3553 
L 2631 2963 
z
" transform="scale(0.015625)"/>
       <path id="DejaVuSans-4f" d="M 603 4863 
L 1178 4863 
L 1178 0 
L 603 0 
L 603 4863 
z
" transform="scale(0.015625)"/>
       <path id="DejaVuSans-b5" d="M 1959 3097 
Q 1497 3097 1228 2736 
Q 959 2375 959 1747 
Q 959 1119 1226 758 
Q 1494 397 1959 397 
Q 2419 397 2687 759 
Q 2956 1122 2956 1747 
Q 2956 2369 2687 2733 
Q 2419 3097 1959 3097 
z
M 1959 3584 
Q 2709 3584 3137 3096 
Q 3566 2609 3566 1747 
Q 3566 888 3137 398 
Q 2709 -91 1959 -91 
Q 1206 -91 779 398 
Q 353 888 353 1747 
Q 353 2609 779 3096 
Q 1206 3584 1959 3584 
z
M 2393 5119 
L 3015 5119 
L 1997 3944 
L 1518 3944 
L 2393 5119 
z
" transform="scale(0.015625)"/>
       <path id="DejaVuSans-51" d="M 3513 2113 
L 3513 0 
L 2938 0 
L 2938 2094 
Q 2938 2591 2744 2837 
Q 2550 3084 2163 3084 
Q 1697 3084 1428 2787 
Q 1159 2491 1159 1978 
L 1159 0 
L 581 0 
L 581 3500 
L 1159 3500 
L 1159 2956 
Q 1366 3272 1645 3428 
Q 1925 3584 2291 3584 
Q 2894 3584 3203 3211 
Q 3513 2838 3513 2113 
z
" transform="scale(0.015625)"/>
      </defs>
      <use xlink:href="#DejaVuSans-44"/>
      <use xlink:href="#DejaVuSans-58" transform="translate(61.28125 0)"/>
      <use xlink:href="#DejaVuSans-57" transform="translate(124.65625 0)"/>
      <use xlink:href="#DejaVuSans-52" transform="translate(163.859375 0)"/>
      <use xlink:href="#DejaVuSans-46" transform="translate(225.046875 0)"/>
      <use xlink:href="#DejaVuSans-52" transform="translate(280.03125 0)"/>
      <use xlink:href="#DejaVuSans-55" transform="translate(341.21875 0)"/>
      <use xlink:href="#DejaVuSans-55" transform="translate(380.578125 0)"/>
      <use xlink:href="#DejaVuSans-48" transform="translate(419.484375 0)"/>
      <use xlink:href="#DejaVuSans-4f" transform="translate(481.015625 0)"/>
      <use xlink:href="#DejaVuSans-44" transform="translate(508.796875 0)"/>
      <use xlink:href="#DejaVuSans-46" transform="translate(570.078125 0)"/>
      <use xlink:href="#DejaVuSans-4c" transform="translate(625.0625 0)"/>
      <use xlink:href="#DejaVuSans-b5" transform="translate(652.84375 0)"/>
      <use xlink:href="#DejaVuSans-51" transform="translate(714.03125 0)"/>
     </g>
    </g>
   </g>
   <g id="line2d_25">
    <path d="M 71.018794 35.819893 
L 71.272736 217.653182 
L 73.050332 217.653182 
L 73.304274 206.288602 
L 73.558216 217.653182 
L 74.573985 217.653182 
L 74.827928 206.288602 
L 75.08187 217.653182 
L 75.335812 217.653182 
L 75.589754 229.017763 
L 76.097639 206.288602 
L 76.351581 217.653182 
L 78.891004 217.653182 
L 79.144946 229.017763 
L 79.398888 217.653182 
L 79.652831 217.653182 
L 79.906773 229.017763 
L 80.160715 217.653182 
L 80.414657 217.653182 
L 80.6686 229.017763 
L 80.922542 217.653182 
L 81.176484 217.653182 
L 81.430426 229.017763 
L 81.684369 217.653182 
L 81.938311 217.653182 
L 82.192253 229.017763 
L 82.446195 217.653182 
L 82.95408 217.653182 
L 83.208022 229.017763 
L 83.461965 206.288602 
L 83.715907 217.653182 
L 86.001387 217.653182 
L 86.255329 229.017763 
L 86.509272 217.653182 
L 87.017156 217.653182 
L 87.271099 206.288602 
L 87.525041 217.653182 
L 89.302637 217.653182 
L 89.556579 206.288602 
L 90.064463 229.017763 
L 90.318406 217.653182 
L 91.588117 217.653182 
L 91.842059 229.017763 
L 92.096002 217.653182 
L 92.349944 217.653182 
L 92.603886 229.017763 
L 92.857828 217.653182 
L 93.111771 229.017763 
L 93.365713 217.653182 
L 95.651193 217.653182 
L 95.905136 206.288602 
L 96.41302 229.017763 
L 96.666962 217.653182 
L 97.428789 217.653182 
L 97.682731 229.017763 
L 97.936674 217.653182 
L 98.952443 217.653182 
L 99.206385 229.017763 
L 99.460327 217.653182 
L 99.71427 217.653182 
L 99.968212 206.288602 
L 100.222154 229.017763 
L 100.476096 217.653182 
L 100.983981 217.653182 
L 101.237923 206.288602 
L 101.491865 229.017763 
L 101.745808 217.653182 
L 101.99975 217.653182 
L 102.253692 206.288602 
L 102.507635 217.653182 
L 103.015519 217.653182 
L 103.269461 206.288602 
L 103.523404 217.653182 
L 104.539173 217.653182 
L 104.793115 206.288602 
L 105.047057 217.653182 
L 106.570711 217.653182 
L 106.824653 206.288602 
L 107.332538 229.017763 
L 107.840422 206.288602 
L 108.602249 206.288602 
L 108.856191 217.653182 
L 111.141672 217.653182 
L 111.395614 229.017763 
L 111.649556 217.653182 
L 112.919267 217.653182 
L 113.17321 206.288602 
L 113.427152 206.288602 
L 113.681094 217.653182 
L 114.696863 217.653182 
L 114.950806 229.017763 
L 115.204748 217.653182 
L 117.74417 217.653182 
L 117.998113 229.017763 
L 118.505997 206.288602 
L 118.75994 217.653182 
L 119.521766 217.653182 
L 119.775709 229.017763 
L 120.029651 217.653182 
L 120.283593 217.653182 
L 120.537535 206.288602 
L 120.791478 217.653182 
L 121.299362 217.653182 
L 121.553304 229.017763 
L 121.807247 206.288602 
L 122.061189 229.017763 
L 122.569074 206.288602 
L 122.823016 217.653182 
L 123.584843 217.653182 
L 123.838785 229.017763 
L 124.092727 217.653182 
L 125.108496 217.653182 
L 125.362438 229.017763 
L 125.616381 217.653182 
L 126.63215 217.653182 
L 126.886092 206.288602 
L 127.393977 229.017763 
L 127.647919 229.017763 
L 127.901861 217.653182 
L 128.409746 217.653182 
L 128.663688 229.017763 
L 128.91763 217.653182 
L 129.679457 217.653182 
L 129.933399 229.017763 
L 130.187341 217.653182 
L 130.441284 229.017763 
L 130.695226 217.653182 
L 130.949168 229.017763 
L 131.203111 217.653182 
L 131.457053 217.653182 
L 131.710995 206.288602 
L 131.964937 206.288602 
L 132.21888 217.653182 
L 132.472822 217.653182 
L 132.726764 206.288602 
L 132.980706 217.653182 
L 133.234649 217.653182 
L 133.488591 206.288602 
L 133.742533 217.653182 
L 134.250418 217.653182 
L 134.50436 206.288602 
L 134.758302 229.017763 
L 135.012245 217.653182 
L 135.266187 229.017763 
L 135.520129 206.288602 
L 136.028014 229.017763 
L 136.281956 217.653182 
L 136.535898 217.653182 
L 136.78984 206.288602 
L 137.043783 206.288602 
L 137.297725 217.653182 
L 138.567436 217.653182 
L 138.821379 206.288602 
L 139.329263 206.288602 
L 139.583205 217.653182 
L 140.345032 217.653182 
L 140.598974 206.288602 
L 140.852917 217.653182 
L 142.37657 217.653182 
L 142.630513 229.017763 
L 142.884455 217.653182 
L 143.646282 217.653182 
L 143.900224 229.017763 
L 144.154166 217.653182 
L 145.169935 217.653182 
L 145.423877 206.288602 
L 145.67782 217.653182 
L 146.439646 217.653182 
L 146.693589 229.017763 
L 146.947531 217.653182 
L 147.201473 217.653182 
L 147.455416 206.288602 
L 147.709358 217.653182 
L 148.217242 217.653182 
L 148.471185 229.017763 
L 148.725127 217.653182 
L 150.502723 217.653182 
L 150.756665 206.288602 
L 151.010607 217.653182 
L 151.26455 206.288602 
L 151.518492 206.288602 
L 151.772434 229.017763 
L 152.026376 217.653182 
L 152.534261 217.653182 
L 152.788203 229.017763 
L 153.042145 206.288602 
L 153.55003 229.017763 
L 153.803972 217.653182 
L 159.644644 217.653182 
L 159.898587 229.017763 
L 160.152529 217.653182 
L 160.914356 217.653182 
L 161.168298 229.017763 
L 161.42224 217.653182 
L 161.930125 217.653182 
L 162.184067 229.017763 
L 162.438009 217.653182 
L 163.707721 217.653182 
L 163.961663 206.288602 
L 164.215605 217.653182 
L 165.739259 217.653182 
L 165.993201 229.017763 
L 166.247143 229.017763 
L 166.501085 217.653182 
L 169.040508 217.653182 
L 169.29445 206.288602 
L 169.802335 229.017763 
L 170.056277 206.288602 
L 170.310219 217.653182 
L 170.564162 217.653182 
L 170.818104 206.288602 
L 171.072046 217.653182 
L 172.5957 217.653182 
L 172.849642 229.017763 
L 173.103584 217.653182 
L 174.119353 217.653182 
L 174.373296 206.288602 
L 174.627238 217.653182 
L 174.88118 217.653182 
L 175.135123 206.288602 
L 175.389065 217.653182 
L 175.643007 217.653182 
L 175.896949 206.288602 
L 176.150892 217.653182 
L 176.404834 206.288602 
L 176.658776 217.653182 
L 178.944257 217.653182 
L 179.198199 206.288602 
L 179.706083 229.017763 
L 180.213968 206.288602 
L 180.46791 229.017763 
L 180.721852 217.653182 
L 184.023102 217.653182 
L 184.277044 206.288602 
L 184.530986 217.653182 
L 184.784929 217.653182 
L 185.038871 206.288602 
L 185.292813 206.288602 
L 185.546755 229.017763 
L 185.800698 217.653182 
L 186.05464 229.017763 
L 186.308582 217.653182 
L 188.34012 217.653182 
L 188.594063 206.288602 
L 188.848005 217.653182 
L 190.879543 217.653182 
L 191.133485 229.017763 
L 191.387428 217.653182 
L 191.895312 217.653182 
L 192.149254 229.017763 
L 192.657139 206.288602 
L 192.911081 217.653182 
L 193.165023 217.653182 
L 193.418966 229.017763 
L 193.672908 217.653182 
L 194.180792 217.653182 
L 194.434735 229.017763 
L 194.942619 206.288602 
L 195.196562 217.653182 
L 195.704446 217.653182 
L 195.958388 229.017763 
L 196.212331 217.653182 
L 197.2281 217.653182 
L 197.482042 229.017763 
L 197.735984 217.653182 
L 197.989926 217.653182 
L 198.243869 229.017763 
L 198.497811 217.653182 
L 200.021465 217.653182 
L 200.275407 206.288602 
L 200.529349 217.653182 
L 200.783291 206.288602 
L 201.037234 206.288602 
L 201.291176 217.653182 
L 201.545118 206.288602 
L 201.79906 217.653182 
L 203.322714 217.653182 
L 203.576656 229.017763 
L 203.830599 217.653182 
L 204.084541 217.653182 
L 204.338483 229.017763 
L 204.592425 217.653182 
L 205.608194 217.653182 
L 205.862137 229.017763 
L 206.116079 217.653182 
L 206.623964 217.653182 
L 206.877906 206.288602 
L 207.38579 229.017763 
L 207.639733 217.653182 
L 208.147617 217.653182 
L 208.401559 229.017763 
L 208.655502 217.653182 
L 208.909444 217.653182 
L 209.163386 206.288602 
L 209.671271 229.017763 
L 209.925213 217.653182 
L 210.433097 217.653182 
L 210.68704 229.017763 
L 210.940982 217.653182 
L 212.97252 217.653182 
L 213.226462 206.288602 
L 213.480405 217.653182 
L 215.511943 217.653182 
L 215.765885 229.017763 
L 216.019827 217.653182 
L 216.27377 229.017763 
L 216.527712 206.288602 
L 216.781654 206.288602 
L 217.035596 217.653182 
L 217.289539 217.653182 
L 217.543481 206.288602 
L 217.797423 217.653182 
L 221.098673 217.653182 
L 221.352615 229.017763 
L 221.606557 206.288602 
L 222.114442 229.017763 
L 222.622326 206.288602 
L 222.876269 217.653182 
L 225.161749 217.653182 
L 225.415691 206.288602 
L 225.669633 217.653182 
L 225.923576 206.288602 
L 226.177518 217.653182 
L 226.43146 217.653182 
L 226.685403 206.288602 
L 226.939345 217.653182 
L 227.193287 217.653182 
L 227.447229 206.288602 
L 227.701172 217.653182 
L 228.716941 217.653182 
L 228.970883 229.017763 
L 229.224825 217.653182 
L 230.748479 217.653182 
L 231.002421 206.288602 
L 231.256363 217.653182 
L 231.510306 217.653182 
L 231.764248 206.288602 
L 232.01819 229.017763 
L 232.526075 206.288602 
L 232.780017 217.653182 
L 235.31944 217.653182 
L 235.573382 229.017763 
L 235.827324 229.017763 
L 236.081266 217.653182 
L 237.60492 217.653182 
L 237.858862 206.288602 
L 238.112804 217.653182 
L 239.382516 217.653182 
L 239.636458 229.017763 
L 239.8904 217.653182 
L 240.398285 217.653182 
L 240.652227 229.017763 
L 240.906169 217.653182 
L 241.667996 217.653182 
L 241.921938 229.017763 
L 242.175881 217.653182 
L 248.016553 217.653182 
L 248.270495 229.017763 
L 248.77838 206.288602 
L 249.032322 229.017763 
L 249.286264 217.653182 
L 249.794149 217.653182 
L 250.048091 229.017763 
L 250.302033 206.288602 
L 250.555975 206.288602 
L 250.809918 217.653182 
L 251.06386 206.288602 
L 251.317802 217.653182 
L 253.095398 217.653182 
L 253.34934 229.017763 
L 253.603283 217.653182 
L 254.111167 217.653182 
L 254.365109 206.288602 
L 254.619052 217.653182 
L 254.872994 217.653182 
L 255.126936 229.017763 
L 255.380879 217.653182 
L 256.142705 217.653182 
L 256.396648 206.288602 
L 256.65059 217.653182 
L 257.666359 217.653182 
L 257.920301 229.017763 
L 258.174243 217.653182 
L 258.93607 217.653182 
L 259.190013 229.017763 
L 259.443955 217.653182 
L 260.967608 217.653182 
L 261.221551 206.288602 
L 261.475493 217.653182 
L 262.23732 217.653182 
L 262.491262 206.288602 
L 262.999147 206.288602 
L 263.253089 217.653182 
L 264.5228 217.653182 
L 264.776742 206.288602 
L 265.030685 206.288602 
L 265.284627 217.653182 
L 265.538569 217.653182 
L 265.792511 229.017763 
L 266.300396 206.288602 
L 266.554338 229.017763 
L 266.808281 217.653182 
L 267.062223 229.017763 
L 267.316165 206.288602 
L 267.570107 217.653182 
L 268.077992 217.653182 
L 268.331934 206.288602 
L 268.585876 217.653182 
L 268.839819 217.653182 
L 269.093761 206.288602 
L 269.347703 217.653182 
L 269.601645 217.653182 
L 269.855588 206.288602 
L 270.10953 206.288602 
L 270.363472 217.653182 
L 270.617414 217.653182 
L 270.871357 229.017763 
L 271.125299 217.653182 
L 271.379241 229.017763 
L 271.633184 217.653182 
L 271.887126 229.017763 
L 272.141068 217.653182 
L 272.902895 217.653182 
L 273.156837 229.017763 
L 273.410779 217.653182 
L 273.918664 217.653182 
L 274.172606 229.017763 
L 274.426548 229.017763 
L 274.934433 206.288602 
L 275.188375 217.653182 
L 276.204144 217.653182 
L 276.458087 229.017763 
L 276.712029 217.653182 
L 277.727798 217.653182 
L 277.98174 229.017763 
L 278.235682 217.653182 
L 278.997509 217.653182 
L 279.251452 206.288602 
L 279.759336 229.017763 
L 280.013278 206.288602 
L 280.267221 229.017763 
L 280.521163 217.653182 
L 281.029047 217.653182 
L 281.28299 206.288602 
L 281.536932 217.653182 
L 281.790874 217.653182 
L 282.044816 229.017763 
L 282.298759 217.653182 
L 283.060586 217.653182 
L 283.314528 206.288602 
L 283.822412 229.017763 
L 284.076355 217.653182 
L 286.615777 217.653182 
L 286.86972 229.017763 
L 287.123662 217.653182 
L 288.139431 217.653182 
L 288.393373 206.288602 
L 288.647315 206.288602 
L 288.901258 217.653182 
L 290.170969 217.653182 
L 290.424911 229.017763 
L 290.678854 217.653182 
L 292.964334 217.653182 
L 293.218276 206.288602 
L 293.980103 206.288602 
L 294.487987 229.017763 
L 294.995872 206.288602 
L 295.249814 217.653182 
L 296.773468 217.653182 
L 297.02741 206.288602 
L 297.281352 217.653182 
L 298.297121 217.653182 
L 298.551064 206.288602 
L 298.805006 217.653182 
L 299.312891 217.653182 
L 299.566833 206.288602 
L 299.820775 217.653182 
L 300.074717 217.653182 
L 300.32866 229.017763 
L 300.582602 206.288602 
L 300.836544 217.653182 
L 301.344429 217.653182 
L 301.598371 229.017763 
L 301.852313 206.288602 
L 302.106255 217.653182 
L 302.360198 217.653182 
L 302.61414 229.017763 
L 302.868082 217.653182 
L 303.883851 217.653182 
L 304.137794 229.017763 
L 304.391736 217.653182 
L 305.153563 217.653182 
L 305.407505 229.017763 
L 305.915389 206.288602 
L 306.169332 217.653182 
L 308.454812 217.653182 
L 308.708754 229.017763 
L 308.962697 217.653182 
L 309.216639 229.017763 
L 309.470581 217.653182 
L 309.724523 217.653182 
L 309.978466 229.017763 
L 310.232408 217.653182 
L 311.502119 217.653182 
L 311.756062 229.017763 
L 312.263946 206.288602 
L 312.517888 217.653182 
L 314.295484 217.653182 
L 314.549426 206.288602 
L 314.803369 217.653182 
L 315.311253 217.653182 
L 315.565196 229.017763 
L 315.819138 217.653182 
L 318.104618 217.653182 
L 318.35856 206.288602 
L 318.612503 229.017763 
L 318.866445 217.653182 
L 319.37433 217.653182 
L 319.628272 229.017763 
L 319.882214 217.653182 
L 320.136156 217.653182 
L 320.390099 229.017763 
L 320.644041 217.653182 
L 320.897983 217.653182 
L 321.151925 229.017763 
L 321.405868 217.653182 
L 321.65981 217.653182 
L 321.913752 229.017763 
L 322.167694 217.653182 
L 322.421637 217.653182 
L 322.675579 229.017763 
L 322.929521 217.653182 
L 325.468944 217.653182 
L 325.722886 206.288602 
L 326.230771 229.017763 
L 326.484713 217.653182 
L 326.738655 217.653182 
L 326.992598 206.288602 
L 327.24654 217.653182 
L 328.262309 217.653182 
L 328.516251 206.288602 
L 328.770193 217.653182 
L 330.547789 217.653182 
L 330.547789 217.653182 
" clip-path="url(#p3c88a3acec)" style="fill: none; stroke: #1f77b4; stroke-width: 0.7; stroke-linecap: square"/>
   </g>
   <g id="patch_3">
    <path d="M 58.042344 238.677656 
L 58.042344 26.16 
" style="fill: none; stroke: #000000; stroke-width: 0.8; stroke-linejoin: miter; stroke-linecap: square"/>
   </g>
   <g id="patch_4">
    <path d="M 343.524239 238.677656 
L 343.524239 26.16 
" style="fill: none; stroke: #000000; stroke-width: 0.8; stroke-linejoin: miter; stroke-linecap: square"/>
   </g>
   <g id="patch_5">
    <path d="M 58.042344 238.677656 
L 343.524239 238.677656 
" style="fill: none; stroke: #000000; stroke-width: 0.8; stroke-linejoin: miter; stroke-linecap: square"/>
   </g>
   <g id="patch_6">
    <path d="M 58.042344 26.16 
L 343.524239 26.16 
" style="fill: none; stroke: #000000; stroke-width: 0.8; stroke-linejoin: miter; stroke-linecap: square"/>
   </g>
   <g id="patch_7">
    <path d="M 107.878524 47.459629 
Q 90.400298 41.940275 73.988212 36.75759 
" style="fill: none; stroke: #000000; stroke-linecap: round"/>
    <path d="M 77.200294 39.869267 
L 73.988212 36.75759 
L 78.404803 36.054931 
" style="fill: none; stroke: #000000; stroke-linecap: round"/>
   </g>
   <g id="text_15">
    <!-- pico = 1023 -->
    <g transform="translate(101.491865 57.661197) scale(0.1 -0.1)">
     <defs>
      <path id="DejaVuSans-20" d="M 678 2906 
L 4684 2906 
L 4684 2381 
L 678 2381 
L 678 2906 
z
M 678 1631 
L 4684 1631 
L 4684 1100 
L 678 1100 
L 678 1631 
z
" transform="scale(0.015625)"/>
      <path id="DejaVuSans-16" d="M 2597 2516 
Q 3050 2419 3304 2112 
Q 3559 1806 3559 1356 
Q 3559 666 3084 287 
Q 2609 -91 1734 -91 
Q 1441 -91 1130 -33 
Q 819 25 488 141 
L 488 750 
Q 750 597 1062 519 
Q 1375 441 1716 441 
Q 2309 441 2620 675 
Q 2931 909 2931 1356 
Q 2931 1769 2642 2001 
Q 2353 2234 1838 2234 
L 1294 2234 
L 1294 2753 
L 1863 2753 
Q 2328 2753 2575 2939 
Q 2822 3125 2822 3475 
Q 2822 3834 2567 4026 
Q 2313 4219 1838 4219 
Q 1578 4219 1281 4162 
Q 984 4106 628 3988 
L 628 4550 
Q 988 4650 1302 4700 
Q 1616 4750 1894 4750 
Q 2613 4750 3031 4423 
Q 3450 4097 3450 3541 
Q 3450 3153 3228 2886 
Q 3006 2619 2597 2516 
z
" transform="scale(0.015625)"/>
     </defs>
     <use xlink:href="#DejaVuSans-53"/>
     <use xlink:href="#DejaVuSans-4c" transform="translate(63.484375 0)"/>
     <use xlink:href="#DejaVuSans-46" transform="translate(91.265625 0)"/>
     <use xlink:href="#DejaVuSans-52" transform="translate(146.25 0)"/>
     <use xlink:href="#DejaVuSans-3" transform="translate(207.4375 0)"/>
     <use xlink:href="#DejaVuSans-20" transform="translate(239.21875 0)"/>
     <use xlink:href="#DejaVuSans-3" transform="translate(323.015625 0)"/>
     <use xlink:href="#DejaVuSans-14" transform="translate(354.796875 0)"/>
     <use xlink:href="#DejaVuSans-13" transform="translate(418.421875 0)"/>
     <use xlink:href="#DejaVuSans-15" transform="translate(482.046875 0)"/>
     <use xlink:href="#DejaVuSans-16" transform="translate(545.671875 0)"/>
    </g>
   </g>
   <g id="text_16">
    <!-- PRN1: el pico que hace posible el GPS -->
    <g transform="translate(86.866729 20.16) scale(0.12 -0.12)">
     <defs>
      <path id="DejaVuSans-33" d="M 1259 4147 
L 1259 2394 
L 2053 2394 
Q 2494 2394 2734 2622 
Q 2975 2850 2975 3272 
Q 2975 3691 2734 3919 
Q 2494 4147 2053 4147 
L 1259 4147 
z
M 628 4666 
L 2053 4666 
Q 2838 4666 3239 4311 
Q 3641 3956 3641 3272 
Q 3641 2581 3239 2228 
Q 2838 1875 2053 1875 
L 1259 1875 
L 1259 0 
L 628 0 
L 628 4666 
z
" transform="scale(0.015625)"/>
      <path id="DejaVuSans-35" d="M 2841 2188 
Q 3044 2119 3236 1894 
Q 3428 1669 3622 1275 
L 4263 0 
L 3584 0 
L 2988 1197 
Q 2756 1666 2539 1819 
Q 2322 1972 1947 1972 
L 1259 1972 
L 1259 0 
L 628 0 
L 628 4666 
L 2053 4666 
Q 2853 4666 3247 4331 
Q 3641 3997 3641 3322 
Q 3641 2881 3436 2590 
Q 3231 2300 2841 2188 
z
M 1259 4147 
L 1259 2491 
L 2053 2491 
Q 2509 2491 2742 2702 
Q 2975 2913 2975 3322 
Q 2975 3731 2742 3939 
Q 2509 4147 2053 4147 
L 1259 4147 
z
" transform="scale(0.015625)"/>
      <path id="DejaVuSans-31" d="M 628 4666 
L 1478 4666 
L 3547 763 
L 3547 4666 
L 4159 4666 
L 4159 0 
L 3309 0 
L 1241 3903 
L 1241 0 
L 628 0 
L 628 4666 
z
" transform="scale(0.015625)"/>
      <path id="DejaVuSans-1d" d="M 750 794 
L 1409 794 
L 1409 0 
L 750 0 
L 750 794 
z
M 750 3309 
L 1409 3309 
L 1409 2516 
L 750 2516 
L 750 3309 
z
" transform="scale(0.015625)"/>
      <path id="DejaVuSans-54" d="M 947 1747 
Q 947 1113 1208 752 
Q 1469 391 1925 391 
Q 2381 391 2643 752 
Q 2906 1113 2906 1747 
Q 2906 2381 2643 2742 
Q 2381 3103 1925 3103 
Q 1469 3103 1208 2742 
Q 947 2381 947 1747 
z
M 2906 525 
Q 2725 213 2448 61 
Q 2172 -91 1784 -91 
Q 1150 -91 751 415 
Q 353 922 353 1747 
Q 353 2572 751 3078 
Q 1150 3584 1784 3584 
Q 2172 3584 2448 3432 
Q 2725 3281 2906 2969 
L 2906 3500 
L 3481 3500 
L 3481 -1331 
L 2906 -1331 
L 2906 525 
z
" transform="scale(0.015625)"/>
      <path id="DejaVuSans-45" d="M 3116 1747 
Q 3116 2381 2855 2742 
Q 2594 3103 2138 3103 
Q 1681 3103 1420 2742 
Q 1159 2381 1159 1747 
Q 1159 1113 1420 752 
Q 1681 391 2138 391 
Q 2594 391 2855 752 
Q 3116 1113 3116 1747 
z
M 1159 2969 
Q 1341 3281 1617 3432 
Q 1894 3584 2278 3584 
Q 2916 3584 3314 3078 
Q 3713 2572 3713 1747 
Q 3713 922 3314 415 
Q 2916 -91 2278 -91 
Q 1894 -91 1617 61 
Q 1341 213 1159 525 
L 1159 0 
L 581 0 
L 581 4863 
L 1159 4863 
L 1159 2969 
z
" transform="scale(0.015625)"/>
      <path id="DejaVuSans-2a" d="M 3809 666 
L 3809 1919 
L 2778 1919 
L 2778 2438 
L 4434 2438 
L 4434 434 
Q 4069 175 3628 42 
Q 3188 -91 2688 -91 
Q 1594 -91 976 548 
Q 359 1188 359 2328 
Q 359 3472 976 4111 
Q 1594 4750 2688 4750 
Q 3144 4750 3555 4637 
Q 3966 4525 4313 4306 
L 4313 3634 
Q 3963 3931 3569 4081 
Q 3175 4231 2741 4231 
Q 1884 4231 1454 3753 
Q 1025 3275 1025 2328 
Q 1025 1384 1454 906 
Q 1884 428 2741 428 
Q 3075 428 3337 486 
Q 3600 544 3809 666 
z
" transform="scale(0.015625)"/>
      <path id="DejaVuSans-36" d="M 3425 4513 
L 3425 3897 
Q 3066 4069 2747 4153 
Q 2428 4238 2131 4238 
Q 1616 4238 1336 4038 
Q 1056 3838 1056 3469 
Q 1056 3159 1242 3001 
Q 1428 2844 1947 2747 
L 2328 2669 
Q 3034 2534 3370 2195 
Q 3706 1856 3706 1288 
Q 3706 609 3251 259 
Q 2797 -91 1919 -91 
Q 1588 -91 1214 -16 
Q 841 59 441 206 
L 441 856 
Q 825 641 1194 531 
Q 1563 422 1919 422 
Q 2459 422 2753 634 
Q 3047 847 3047 1241 
Q 3047 1584 2836 1778 
Q 2625 1972 2144 2069 
L 1759 2144 
Q 1053 2284 737 2584 
Q 422 2884 422 3419 
Q 422 4038 858 4394 
Q 1294 4750 2059 4750 
Q 2388 4750 2728 4690 
Q 3069 4631 3425 4513 
z
" transform="scale(0.015625)"/>
     </defs>
     <use xlink:href="#DejaVuSans-33"/>
     <use xlink:href="#DejaVuSans-35" transform="translate(60.296875 0)"/>
     <use xlink:href="#DejaVuSans-31" transform="translate(129.78125 0)"/>
     <use xlink:href="#DejaVuSans-14" transform="translate(204.59375 0)"/>
     <use xlink:href="#DejaVuSans-1d" transform="translate(268.21875 0)"/>
     <use xlink:href="#DejaVuSans-3" transform="translate(301.90625 0)"/>
     <use xlink:href="#DejaVuSans-48" transform="translate(333.6875 0)"/>
     <use xlink:href="#DejaVuSans-4f" transform="translate(395.21875 0)"/>
     <use xlink:href="#DejaVuSans-3" transform="translate(423 0)"/>
     <use xlink:href="#DejaVuSans-53" transform="translate(454.78125 0)"/>
     <use xlink:href="#DejaVuSans-4c" transform="translate(518.265625 0)"/>
     <use xlink:href="#DejaVuSans-46" transform="translate(546.046875 0)"/>
     <use xlink:href="#DejaVuSans-52" transform="translate(601.03125 0)"/>
     <use xlink:href="#DejaVuSans-3" transform="translate(662.21875 0)"/>
     <use xlink:href="#DejaVuSans-54" transform="translate(694 0)"/>
     <use xlink:href="#DejaVuSans-58" transform="translate(757.484375 0)"/>
     <use xlink:href="#DejaVuSans-48" transform="translate(820.859375 0)"/>
     <use xlink:href="#DejaVuSans-3" transform="translate(882.390625 0)"/>
     <use xlink:href="#DejaVuSans-4b" transform="translate(914.171875 0)"/>
     <use xlink:href="#DejaVuSans-44" transform="translate(977.546875 0)"/>
     <use xlink:href="#DejaVuSans-46" transform="translate(1038.828125 0)"/>
     <use xlink:href="#DejaVuSans-48" transform="translate(1093.8125 0)"/>
     <use xlink:href="#DejaVuSans-3" transform="translate(1155.34375 0)"/>
     <use xlink:href="#DejaVuSans-53" transform="translate(1187.125 0)"/>
     <use xlink:href="#DejaVuSans-52" transform="translate(1250.609375 0)"/>
     <use xlink:href="#DejaVuSans-56" transform="translate(1311.796875 0)"/>
     <use xlink:href="#DejaVuSans-4c" transform="translate(1363.890625 0)"/>
     <use xlink:href="#DejaVuSans-45" transform="translate(1391.671875 0)"/>
     <use xlink:href="#DejaVuSans-4f" transform="translate(1455.15625 0)"/>
     <use xlink:href="#DejaVuSans-48" transform="translate(1482.9375 0)"/>
     <use xlink:href="#DejaVuSans-3" transform="translate(1544.46875 0)"/>
     <use xlink:href="#DejaVuSans-48" transform="translate(1576.25 0)"/>
     <use xlink:href="#DejaVuSans-4f" transform="translate(1637.78125 0)"/>
     <use xlink:href="#DejaVuSans-3" transform="translate(1665.5625 0)"/>
     <use xlink:href="#DejaVuSans-2a" transform="translate(1697.34375 0)"/>
     <use xlink:href="#DejaVuSans-33" transform="translate(1774.828125 0)"/>
     <use xlink:href="#DejaVuSans-36" transform="translate(1835.125 0)"/>
    </g>
   </g>
  </g>
  <g id="axes_2">
   <g id="patch_8">
    <path d="M 382.924239 238.677656 
L 668.406134 238.677656 
L 668.406134 26.16 
L 382.924239 26.16 
z
" style="fill: #ffffff"/>
   </g>
   <g id="matplotlib.axis_3">
    <g id="xtick_7">
     <g id="line2d_26">
      <path d="M 395.900689 238.677656 
L 395.900689 26.16 
" clip-path="url(#p7bb24d6f36)" style="fill: none; stroke: #b0b0b0; stroke-opacity: 0.3; stroke-width: 0.8; stroke-linecap: square"/>
     </g>
     <g id="line2d_27">
      <g>
       <use xlink:href="#m2ad41f39db" x="395.900689" y="238.677656" style="stroke: #000000; stroke-width: 0.8"/>
      </g>
     </g>
     <g id="text_17">
      <!-- 0 -->
      <g transform="translate(392.719439 253.275313) scale(0.1 -0.1)">
       <use xlink:href="#DejaVuSans-13"/>
      </g>
     </g>
    </g>
    <g id="xtick_8">
     <g id="line2d_28">
      <path d="M 446.689142 238.677656 
L 446.689142 26.16 
" clip-path="url(#p7bb24d6f36)" style="fill: none; stroke: #b0b0b0; stroke-opacity: 0.3; stroke-width: 0.8; stroke-linecap: square"/>
     </g>
     <g id="line2d_29">
      <g>
       <use xlink:href="#m2ad41f39db" x="446.689142" y="238.677656" style="stroke: #000000; stroke-width: 0.8"/>
      </g>
     </g>
     <g id="text_18">
      <!-- 200 -->
      <g transform="translate(437.145392 253.275313) scale(0.1 -0.1)">
       <use xlink:href="#DejaVuSans-15"/>
       <use xlink:href="#DejaVuSans-13" transform="translate(63.625 0)"/>
       <use xlink:href="#DejaVuSans-13" transform="translate(127.25 0)"/>
      </g>
     </g>
    </g>
    <g id="xtick_9">
     <g id="line2d_30">
      <path d="M 497.477595 238.677656 
L 497.477595 26.16 
" clip-path="url(#p7bb24d6f36)" style="fill: none; stroke: #b0b0b0; stroke-opacity: 0.3; stroke-width: 0.8; stroke-linecap: square"/>
     </g>
     <g id="line2d_31">
      <g>
       <use xlink:href="#m2ad41f39db" x="497.477595" y="238.677656" style="stroke: #000000; stroke-width: 0.8"/>
      </g>
     </g>
     <g id="text_19">
      <!-- 400 -->
      <g transform="translate(487.933845 253.275313) scale(0.1 -0.1)">
       <use xlink:href="#DejaVuSans-17"/>
       <use xlink:href="#DejaVuSans-13" transform="translate(63.625 0)"/>
       <use xlink:href="#DejaVuSans-13" transform="translate(127.25 0)"/>
      </g>
     </g>
    </g>
    <g id="xtick_10">
     <g id="line2d_32">
      <path d="M 548.266048 238.677656 
L 548.266048 26.16 
" clip-path="url(#p7bb24d6f36)" style="fill: none; stroke: #b0b0b0; stroke-opacity: 0.3; stroke-width: 0.8; stroke-linecap: square"/>
     </g>
     <g id="line2d_33">
      <g>
       <use xlink:href="#m2ad41f39db" x="548.266048" y="238.677656" style="stroke: #000000; stroke-width: 0.8"/>
      </g>
     </g>
     <g id="text_20">
      <!-- 600 -->
      <g transform="translate(538.722298 253.275313) scale(0.1 -0.1)">
       <use xlink:href="#DejaVuSans-19"/>
       <use xlink:href="#DejaVuSans-13" transform="translate(63.625 0)"/>
       <use xlink:href="#DejaVuSans-13" transform="translate(127.25 0)"/>
      </g>
     </g>
    </g>
    <g id="xtick_11">
     <g id="line2d_34">
      <path d="M 599.054501 238.677656 
L 599.054501 26.16 
" clip-path="url(#p7bb24d6f36)" style="fill: none; stroke: #b0b0b0; stroke-opacity: 0.3; stroke-width: 0.8; stroke-linecap: square"/>
     </g>
     <g id="line2d_35">
      <g>
       <use xlink:href="#m2ad41f39db" x="599.054501" y="238.677656" style="stroke: #000000; stroke-width: 0.8"/>
      </g>
     </g>
     <g id="text_21">
      <!-- 800 -->
      <g transform="translate(589.510751 253.275313) scale(0.1 -0.1)">
       <use xlink:href="#DejaVuSans-1b"/>
       <use xlink:href="#DejaVuSans-13" transform="translate(63.625 0)"/>
       <use xlink:href="#DejaVuSans-13" transform="translate(127.25 0)"/>
      </g>
     </g>
    </g>
    <g id="xtick_12">
     <g id="line2d_36">
      <path d="M 649.842955 238.677656 
L 649.842955 26.16 
" clip-path="url(#p7bb24d6f36)" style="fill: none; stroke: #b0b0b0; stroke-opacity: 0.3; stroke-width: 0.8; stroke-linecap: square"/>
     </g>
     <g id="line2d_37">
      <g>
       <use xlink:href="#m2ad41f39db" x="649.842955" y="238.677656" style="stroke: #000000; stroke-width: 0.8"/>
      </g>
     </g>
     <g id="text_22">
      <!-- 1000 -->
      <g transform="translate(637.117955 253.275313) scale(0.1 -0.1)">
       <use xlink:href="#DejaVuSans-14"/>
       <use xlink:href="#DejaVuSans-13" transform="translate(63.625 0)"/>
       <use xlink:href="#DejaVuSans-13" transform="translate(127.25 0)"/>
       <use xlink:href="#DejaVuSans-13" transform="translate(190.875 0)"/>
      </g>
     </g>
    </g>
    <g id="text_23">
     <!-- desfase (chips) -->
     <g transform="translate(487.727687 267.276094) scale(0.1 -0.1)">
      <use xlink:href="#DejaVuSans-47"/>
      <use xlink:href="#DejaVuSans-48" transform="translate(63.484375 0)"/>
      <use xlink:href="#DejaVuSans-56" transform="translate(125.015625 0)"/>
      <use xlink:href="#DejaVuSans-49" transform="translate(177.109375 0)"/>
      <use xlink:href="#DejaVuSans-44" transform="translate(212.3125 0)"/>
      <use xlink:href="#DejaVuSans-56" transform="translate(273.59375 0)"/>
      <use xlink:href="#DejaVuSans-48" transform="translate(325.6875 0)"/>
      <use xlink:href="#DejaVuSans-3" transform="translate(387.21875 0)"/>
      <use xlink:href="#DejaVuSans-b" transform="translate(419 0)"/>
      <use xlink:href="#DejaVuSans-46" transform="translate(458.015625 0)"/>
      <use xlink:href="#DejaVuSans-4b" transform="translate(513 0)"/>
      <use xlink:href="#DejaVuSans-4c" transform="translate(576.375 0)"/>
      <use xlink:href="#DejaVuSans-53" transform="translate(604.15625 0)"/>
      <use xlink:href="#DejaVuSans-56" transform="translate(667.640625 0)"/>
      <use xlink:href="#DejaVuSans-c" transform="translate(719.734375 0)"/>
     </g>
    </g>
   </g>
   <g id="matplotlib.axis_4">
    <g id="ytick_7">
     <g id="line2d_38">
      <path d="M 382.924239 226.87112 
L 668.406134 226.87112 
" clip-path="url(#p7bb24d6f36)" style="fill: none; stroke: #b0b0b0; stroke-opacity: 0.3; stroke-width: 0.8; stroke-linecap: square"/>
     </g>
     <g id="line2d_39">
      <g>
       <use xlink:href="#m33f9cea279" x="382.924239" y="226.87112" style="stroke: #000000; stroke-width: 0.8"/>
      </g>
     </g>
     <g id="text_24">
      <!-- −80 -->
      <g transform="translate(354.819552 230.669948) scale(0.1 -0.1)">
       <defs>
        <path id="DejaVuSans-c9c" d="M 678 2272 
L 4684 2272 
L 4684 1741 
L 678 1741 
L 678 2272 
z
" transform="scale(0.015625)"/>
       </defs>
       <use xlink:href="#DejaVuSans-c9c"/>
       <use xlink:href="#DejaVuSans-1b" transform="translate(83.796875 0)"/>
       <use xlink:href="#DejaVuSans-13" transform="translate(147.421875 0)"/>
      </g>
     </g>
    </g>
    <g id="ytick_8">
     <g id="line2d_40">
      <path d="M 382.924239 203.258047 
L 668.406134 203.258047 
" clip-path="url(#p7bb24d6f36)" style="fill: none; stroke: #b0b0b0; stroke-opacity: 0.3; stroke-width: 0.8; stroke-linecap: square"/>
     </g>
     <g id="line2d_41">
      <g>
       <use xlink:href="#m33f9cea279" x="382.924239" y="203.258047" style="stroke: #000000; stroke-width: 0.8"/>
      </g>
     </g>
     <g id="text_25">
      <!-- −60 -->
      <g transform="translate(354.819552 207.056875) scale(0.1 -0.1)">
       <use xlink:href="#DejaVuSans-c9c"/>
       <use xlink:href="#DejaVuSans-19" transform="translate(83.796875 0)"/>
       <use xlink:href="#DejaVuSans-13" transform="translate(147.421875 0)"/>
      </g>
     </g>
    </g>
    <g id="ytick_9">
     <g id="line2d_42">
      <path d="M 382.924239 179.644974 
L 668.406134 179.644974 
" clip-path="url(#p7bb24d6f36)" style="fill: none; stroke: #b0b0b0; stroke-opacity: 0.3; stroke-width: 0.8; stroke-linecap: square"/>
     </g>
     <g id="line2d_43">
      <g>
       <use xlink:href="#m33f9cea279" x="382.924239" y="179.644974" style="stroke: #000000; stroke-width: 0.8"/>
      </g>
     </g>
     <g id="text_26">
      <!-- −40 -->
      <g transform="translate(354.819552 183.443802) scale(0.1 -0.1)">
       <use xlink:href="#DejaVuSans-c9c"/>
       <use xlink:href="#DejaVuSans-17" transform="translate(83.796875 0)"/>
       <use xlink:href="#DejaVuSans-13" transform="translate(147.421875 0)"/>
      </g>
     </g>
    </g>
    <g id="ytick_10">
     <g id="line2d_44">
      <path d="M 382.924239 156.031901 
L 668.406134 156.031901 
" clip-path="url(#p7bb24d6f36)" style="fill: none; stroke: #b0b0b0; stroke-opacity: 0.3; stroke-width: 0.8; stroke-linecap: square"/>
     </g>
     <g id="line2d_45">
      <g>
       <use xlink:href="#m33f9cea279" x="382.924239" y="156.031901" style="stroke: #000000; stroke-width: 0.8"/>
      </g>
     </g>
     <g id="text_27">
      <!-- −20 -->
      <g transform="translate(354.819552 159.830729) scale(0.1 -0.1)">
       <use xlink:href="#DejaVuSans-c9c"/>
       <use xlink:href="#DejaVuSans-15" transform="translate(83.796875 0)"/>
       <use xlink:href="#DejaVuSans-13" transform="translate(147.421875 0)"/>
      </g>
     </g>
    </g>
    <g id="ytick_11">
     <g id="line2d_46">
      <path d="M 382.924239 132.418828 
L 668.406134 132.418828 
" clip-path="url(#p7bb24d6f36)" style="fill: none; stroke: #b0b0b0; stroke-opacity: 0.3; stroke-width: 0.8; stroke-linecap: square"/>
     </g>
     <g id="line2d_47">
      <g>
       <use xlink:href="#m33f9cea279" x="382.924239" y="132.418828" style="stroke: #000000; stroke-width: 0.8"/>
      </g>
     </g>
     <g id="text_28">
      <!-- 0 -->
      <g transform="translate(369.561739 136.217656) scale(0.1 -0.1)">
       <use xlink:href="#DejaVuSans-13"/>
      </g>
     </g>
    </g>
    <g id="ytick_12">
     <g id="line2d_48">
      <path d="M 382.924239 108.805755 
L 668.406134 108.805755 
" clip-path="url(#p7bb24d6f36)" style="fill: none; stroke: #b0b0b0; stroke-opacity: 0.3; stroke-width: 0.8; stroke-linecap: square"/>
     </g>
     <g id="line2d_49">
      <g>
       <use xlink:href="#m33f9cea279" x="382.924239" y="108.805755" style="stroke: #000000; stroke-width: 0.8"/>
      </g>
     </g>
     <g id="text_29">
      <!-- 20 -->
      <g transform="translate(363.199239 112.604583) scale(0.1 -0.1)">
       <use xlink:href="#DejaVuSans-15"/>
       <use xlink:href="#DejaVuSans-13" transform="translate(63.625 0)"/>
      </g>
     </g>
    </g>
    <g id="ytick_13">
     <g id="line2d_50">
      <path d="M 382.924239 85.192682 
L 668.406134 85.192682 
" clip-path="url(#p7bb24d6f36)" style="fill: none; stroke: #b0b0b0; stroke-opacity: 0.3; stroke-width: 0.8; stroke-linecap: square"/>
     </g>
     <g id="line2d_51">
      <g>
       <use xlink:href="#m33f9cea279" x="382.924239" y="85.192682" style="stroke: #000000; stroke-width: 0.8"/>
      </g>
     </g>
     <g id="text_30">
      <!-- 40 -->
      <g transform="translate(363.199239 88.99151) scale(0.1 -0.1)">
       <use xlink:href="#DejaVuSans-17"/>
       <use xlink:href="#DejaVuSans-13" transform="translate(63.625 0)"/>
      </g>
     </g>
    </g>
    <g id="ytick_14">
     <g id="line2d_52">
      <path d="M 382.924239 61.579609 
L 668.406134 61.579609 
" clip-path="url(#p7bb24d6f36)" style="fill: none; stroke: #b0b0b0; stroke-opacity: 0.3; stroke-width: 0.8; stroke-linecap: square"/>
     </g>
     <g id="line2d_53">
      <g>
       <use xlink:href="#m33f9cea279" x="382.924239" y="61.579609" style="stroke: #000000; stroke-width: 0.8"/>
      </g>
     </g>
     <g id="text_31">
      <!-- 60 -->
      <g transform="translate(363.199239 65.378437) scale(0.1 -0.1)">
       <use xlink:href="#DejaVuSans-19"/>
       <use xlink:href="#DejaVuSans-13" transform="translate(63.625 0)"/>
      </g>
     </g>
    </g>
    <g id="ytick_15">
     <g id="line2d_54">
      <path d="M 382.924239 37.966536 
L 668.406134 37.966536 
" clip-path="url(#p7bb24d6f36)" style="fill: none; stroke: #b0b0b0; stroke-opacity: 0.3; stroke-width: 0.8; stroke-linecap: square"/>
     </g>
     <g id="line2d_55">
      <g>
       <use xlink:href="#m33f9cea279" x="382.924239" y="37.966536" style="stroke: #000000; stroke-width: 0.8"/>
      </g>
     </g>
     <g id="text_32">
      <!-- 80 -->
      <g transform="translate(363.199239 41.765365) scale(0.1 -0.1)">
       <use xlink:href="#DejaVuSans-1b"/>
       <use xlink:href="#DejaVuSans-13" transform="translate(63.625 0)"/>
      </g>
     </g>
    </g>
   </g>
   <g id="line2d_56">
    <path d="M 396.126359 -1 
L 396.154631 133.599482 
L 397.932227 133.599482 
L 398.186169 58.037648 
L 398.440111 133.599482 
L 399.455881 133.599482 
L 399.709823 58.037648 
L 399.963765 133.599482 
L 400.217707 133.599482 
L 400.47165 209.161315 
L 400.979534 58.037648 
L 401.233476 133.599482 
L 403.772899 133.599482 
L 404.026841 209.161315 
L 404.280784 133.599482 
L 404.534726 133.599482 
L 404.788668 209.161315 
L 405.04261 133.599482 
L 405.296553 133.599482 
L 405.550495 209.161315 
L 405.804437 133.599482 
L 406.058379 133.599482 
L 406.312322 209.161315 
L 406.566264 133.599482 
L 406.820206 133.599482 
L 407.074149 209.161315 
L 407.328091 133.599482 
L 407.835975 133.599482 
L 408.089918 209.161315 
L 408.34386 58.037648 
L 408.597802 133.599482 
L 410.883282 133.599482 
L 411.137225 209.161315 
L 411.391167 133.599482 
L 411.899052 133.599482 
L 412.152994 58.037648 
L 412.406936 133.599482 
L 414.184532 133.599482 
L 414.438474 58.037648 
L 414.946359 209.161315 
L 415.200301 133.599482 
L 416.470012 133.599482 
L 416.723955 209.161315 
L 416.977897 133.599482 
L 417.231839 133.599482 
L 417.485781 209.161315 
L 417.739724 133.599482 
L 417.993666 209.161315 
L 418.247608 133.599482 
L 420.533089 133.599482 
L 420.787031 58.037648 
L 421.294915 209.161315 
L 421.548858 133.599482 
L 422.310684 133.599482 
L 422.564627 209.161315 
L 422.818569 133.599482 
L 423.834338 133.599482 
L 424.08828 209.161315 
L 424.342223 133.599482 
L 424.596165 133.599482 
L 424.850107 58.037648 
L 425.104049 209.161315 
L 425.357992 133.599482 
L 425.865876 133.599482 
L 426.119818 58.037648 
L 426.373761 209.161315 
L 426.627703 133.599482 
L 426.881645 133.599482 
L 427.135588 58.037648 
L 427.38953 133.599482 
L 427.897414 133.599482 
L 428.151357 58.037648 
L 428.405299 133.599482 
L 429.421068 133.599482 
L 429.67501 58.037648 
L 429.928952 133.599482 
L 431.452606 133.599482 
L 431.706548 58.037648 
L 432.214433 209.161315 
L 432.722317 58.037648 
L 433.484144 58.037648 
L 433.738086 133.599482 
L 436.023567 133.599482 
L 436.277509 209.161315 
L 436.531451 133.599482 
L 437.801163 133.599482 
L 438.055105 58.037648 
L 438.309047 58.037648 
L 438.562989 133.599482 
L 439.578759 133.599482 
L 439.832701 209.161315 
L 440.086643 133.599482 
L 442.626066 133.599482 
L 442.880008 209.161315 
L 443.387893 58.037648 
L 443.641835 133.599482 
L 444.403662 133.599482 
L 444.657604 209.161315 
L 444.911546 133.599482 
L 445.165488 133.599482 
L 445.419431 58.037648 
L 445.673373 133.599482 
L 446.181257 133.599482 
L 446.4352 209.161315 
L 446.689142 58.037648 
L 446.943084 209.161315 
L 447.450969 58.037648 
L 447.704911 133.599482 
L 448.466738 133.599482 
L 448.72068 209.161315 
L 448.974622 133.599482 
L 449.990391 133.599482 
L 450.244334 209.161315 
L 450.498276 133.599482 
L 451.514045 133.599482 
L 451.767987 58.037648 
L 452.275872 209.161315 
L 452.529814 209.161315 
L 452.783756 133.599482 
L 453.291641 133.599482 
L 453.545583 209.161315 
L 453.799525 133.599482 
L 454.561352 133.599482 
L 454.815294 209.161315 
L 455.069237 133.599482 
L 455.323179 209.161315 
L 455.577121 133.599482 
L 455.831064 209.161315 
L 456.085006 133.599482 
L 456.338948 133.599482 
L 456.59289 58.037648 
L 456.846833 58.037648 
L 457.100775 133.599482 
L 457.354717 133.599482 
L 457.608659 58.037648 
L 457.862602 133.599482 
L 458.116544 133.599482 
L 458.370486 58.037648 
L 458.624428 133.599482 
L 459.132313 133.599482 
L 459.386255 58.037648 
L 459.640198 209.161315 
L 459.89414 133.599482 
L 460.148082 209.161315 
L 460.402024 58.037648 
L 460.909909 209.161315 
L 461.163851 133.599482 
L 461.417793 133.599482 
L 461.671736 58.037648 
L 461.925678 58.037648 
L 462.17962 133.599482 
L 463.449332 133.599482 
L 463.703274 58.037648 
L 464.211158 58.037648 
L 464.465101 133.599482 
L 465.226927 133.599482 
L 465.48087 58.037648 
L 465.734812 133.599482 
L 467.258466 133.599482 
L 467.512408 209.161315 
L 467.76635 133.599482 
L 468.528177 133.599482 
L 468.782119 209.161315 
L 469.036061 133.599482 
L 470.05183 133.599482 
L 470.305773 58.037648 
L 470.559715 133.599482 
L 471.321542 133.599482 
L 471.575484 209.161315 
L 471.829426 133.599482 
L 472.083369 133.599482 
L 472.337311 58.037648 
L 472.591253 133.599482 
L 473.099138 133.599482 
L 473.35308 209.161315 
L 473.607022 133.599482 
L 475.384618 133.599482 
L 475.63856 58.037648 
L 475.892503 133.599482 
L 476.146445 58.037648 
L 476.400387 58.037648 
L 476.654329 209.161315 
L 476.908272 133.599482 
L 477.416156 133.599482 
L 477.670098 209.161315 
L 477.924041 58.037648 
L 478.431925 209.161315 
L 478.685867 133.599482 
L 484.52654 133.599482 
L 484.780482 209.161315 
L 485.034424 133.599482 
L 485.796251 133.599482 
L 486.050193 209.161315 
L 486.304135 133.599482 
L 486.81202 133.599482 
L 487.065962 209.161315 
L 487.319905 133.599482 
L 488.589616 133.599482 
L 488.843558 58.037648 
L 489.0975 133.599482 
L 490.621154 133.599482 
L 490.875096 209.161315 
L 491.129039 209.161315 
L 491.382981 133.599482 
L 493.922403 133.599482 
L 494.176346 58.037648 
L 494.68423 209.161315 
L 494.938172 58.037648 
L 495.192115 133.599482 
L 495.446057 133.599482 
L 495.699999 58.037648 
L 495.953942 133.599482 
L 497.477595 133.599482 
L 497.731537 209.161315 
L 497.98548 133.599482 
L 499.001249 133.599482 
L 499.255191 58.037648 
L 499.509133 133.599482 
L 499.763076 133.599482 
L 500.017018 58.037648 
L 500.27096 133.599482 
L 500.524902 133.599482 
L 500.778845 58.037648 
L 501.032787 133.599482 
L 501.286729 58.037648 
L 501.540671 133.599482 
L 503.826152 133.599482 
L 504.080094 58.037648 
L 504.587979 209.161315 
L 505.095863 58.037648 
L 505.349805 209.161315 
L 505.603748 133.599482 
L 508.904997 133.599482 
L 509.158939 58.037648 
L 509.412882 133.599482 
L 509.666824 133.599482 
L 509.920766 58.037648 
L 510.174708 58.037648 
L 510.428651 209.161315 
L 510.682593 133.599482 
L 510.936535 209.161315 
L 511.190478 133.599482 
L 513.222016 133.599482 
L 513.475958 58.037648 
L 513.7299 133.599482 
L 515.761438 133.599482 
L 516.015381 209.161315 
L 516.269323 133.599482 
L 516.777207 133.599482 
L 517.03115 209.161315 
L 517.539034 58.037648 
L 517.792976 133.599482 
L 518.046919 133.599482 
L 518.300861 209.161315 
L 518.554803 133.599482 
L 519.062688 133.599482 
L 519.31663 209.161315 
L 519.824515 58.037648 
L 520.078457 133.599482 
L 520.586341 133.599482 
L 520.840284 209.161315 
L 521.094226 133.599482 
L 522.109995 133.599482 
L 522.363937 209.161315 
L 522.617879 133.599482 
L 522.871822 133.599482 
L 523.125764 209.161315 
L 523.379706 133.599482 
L 524.90336 133.599482 
L 525.157302 58.037648 
L 525.411244 133.599482 
L 525.665187 58.037648 
L 525.919129 58.037648 
L 526.173071 133.599482 
L 526.427013 58.037648 
L 526.680956 133.599482 
L 528.204609 133.599482 
L 528.458552 209.161315 
L 528.712494 133.599482 
L 528.966436 133.599482 
L 529.220378 209.161315 
L 529.474321 133.599482 
L 530.49009 133.599482 
L 530.744032 209.161315 
L 530.997974 133.599482 
L 531.505859 133.599482 
L 531.759801 58.037648 
L 532.267686 209.161315 
L 532.521628 133.599482 
L 533.029512 133.599482 
L 533.283455 209.161315 
L 533.537397 133.599482 
L 533.791339 133.599482 
L 534.045281 58.037648 
L 534.553166 209.161315 
L 534.807108 133.599482 
L 535.314993 133.599482 
L 535.568935 209.161315 
L 535.822877 133.599482 
L 537.854415 133.599482 
L 538.108358 58.037648 
L 538.3623 133.599482 
L 540.393838 133.599482 
L 540.64778 209.161315 
L 540.901723 133.599482 
L 541.155665 209.161315 
L 541.409607 58.037648 
L 541.663549 58.037648 
L 541.917492 133.599482 
L 542.171434 133.599482 
L 542.425376 58.037648 
L 542.679318 133.599482 
L 545.980568 133.599482 
L 546.23451 209.161315 
L 546.488452 58.037648 
L 546.996337 209.161315 
L 547.504222 58.037648 
L 547.758164 133.599482 
L 550.043644 133.599482 
L 550.297586 58.037648 
L 550.551529 133.599482 
L 550.805471 58.037648 
L 551.059413 133.599482 
L 551.313356 133.599482 
L 551.567298 58.037648 
L 551.82124 133.599482 
L 552.075182 133.599482 
L 552.329125 58.037648 
L 552.583067 133.599482 
L 553.598836 133.599482 
L 553.852778 209.161315 
L 554.10672 133.599482 
L 555.630374 133.599482 
L 555.884316 58.037648 
L 556.138259 133.599482 
L 556.392201 133.599482 
L 556.646143 58.037648 
L 556.900085 209.161315 
L 557.40797 58.037648 
L 557.661912 133.599482 
L 560.201335 133.599482 
L 560.455277 209.161315 
L 560.709219 209.161315 
L 560.963162 133.599482 
L 562.486815 133.599482 
L 562.740757 58.037648 
L 562.9947 133.599482 
L 564.264411 133.599482 
L 564.518353 209.161315 
L 564.772296 133.599482 
L 565.28018 133.599482 
L 565.534122 209.161315 
L 565.788065 133.599482 
L 566.549891 133.599482 
L 566.803834 209.161315 
L 567.057776 133.599482 
L 572.898448 133.599482 
L 573.15239 209.161315 
L 573.660275 58.037648 
L 573.914217 209.161315 
L 574.168159 133.599482 
L 574.676044 133.599482 
L 574.929986 209.161315 
L 575.183929 58.037648 
L 575.437871 58.037648 
L 575.691813 133.599482 
L 575.945755 58.037648 
L 576.199698 133.599482 
L 577.977293 133.599482 
L 578.231236 209.161315 
L 578.485178 133.599482 
L 578.993062 133.599482 
L 579.247005 58.037648 
L 579.500947 133.599482 
L 579.754889 133.599482 
L 580.008832 209.161315 
L 580.262774 133.599482 
L 581.024601 133.599482 
L 581.278543 58.037648 
L 581.532485 133.599482 
L 582.548254 133.599482 
L 582.802196 209.161315 
L 583.056139 133.599482 
L 583.817966 133.599482 
L 584.071908 209.161315 
L 584.32585 133.599482 
L 585.849504 133.599482 
L 586.103446 58.037648 
L 586.357388 133.599482 
L 587.119215 133.599482 
L 587.373157 58.037648 
L 587.881042 58.037648 
L 588.134984 133.599482 
L 589.404695 133.599482 
L 589.658638 58.037648 
L 589.91258 58.037648 
L 590.166522 133.599482 
L 590.420464 133.599482 
L 590.674407 209.161315 
L 591.182291 58.037648 
L 591.436234 209.161315 
L 591.690176 133.599482 
L 591.944118 209.161315 
L 592.19806 58.037648 
L 592.452003 133.599482 
L 592.959887 133.599482 
L 593.213829 58.037648 
L 593.467772 133.599482 
L 593.721714 133.599482 
L 593.975656 58.037648 
L 594.229598 133.599482 
L 594.483541 133.599482 
L 594.737483 58.037648 
L 594.991425 58.037648 
L 595.245368 133.599482 
L 595.49931 133.599482 
L 595.753252 209.161315 
L 596.007194 133.599482 
L 596.261137 209.161315 
L 596.515079 133.599482 
L 596.769021 209.161315 
L 597.022963 133.599482 
L 597.78479 133.599482 
L 598.038732 209.161315 
L 598.292675 133.599482 
L 598.800559 133.599482 
L 599.054501 209.161315 
L 599.308444 209.161315 
L 599.816328 58.037648 
L 600.070271 133.599482 
L 601.08604 133.599482 
L 601.339982 209.161315 
L 601.593924 133.599482 
L 602.609693 133.599482 
L 602.863635 209.161315 
L 603.117578 133.599482 
L 603.879405 133.599482 
L 604.133347 58.037648 
L 604.641231 209.161315 
L 604.895174 58.037648 
L 605.149116 209.161315 
L 605.403058 133.599482 
L 605.910943 133.599482 
L 606.164885 58.037648 
L 606.418827 133.599482 
L 606.672769 133.599482 
L 606.926712 209.161315 
L 607.180654 133.599482 
L 607.942481 133.599482 
L 608.196423 58.037648 
L 608.704308 209.161315 
L 608.95825 133.599482 
L 611.497673 133.599482 
L 611.751615 209.161315 
L 612.005557 133.599482 
L 613.021326 133.599482 
L 613.275268 58.037648 
L 613.529211 58.037648 
L 613.783153 133.599482 
L 615.052864 133.599482 
L 615.306807 209.161315 
L 615.560749 133.599482 
L 617.846229 133.599482 
L 618.100171 58.037648 
L 618.861998 58.037648 
L 619.369883 209.161315 
L 619.877767 58.037648 
L 620.13171 133.599482 
L 621.655363 133.599482 
L 621.909305 58.037648 
L 622.163248 133.599482 
L 623.179017 133.599482 
L 623.432959 58.037648 
L 623.686901 133.599482 
L 624.194786 133.599482 
L 624.448728 58.037648 
L 624.70267 133.599482 
L 624.956613 133.599482 
L 625.210555 209.161315 
L 625.464497 58.037648 
L 625.718439 133.599482 
L 626.226324 133.599482 
L 626.480266 209.161315 
L 626.734208 58.037648 
L 626.988151 133.599482 
L 627.242093 133.599482 
L 627.496035 209.161315 
L 627.749978 133.599482 
L 628.765747 133.599482 
L 629.019689 209.161315 
L 629.273631 133.599482 
L 630.035458 133.599482 
L 630.2894 209.161315 
L 630.797285 58.037648 
L 631.051227 133.599482 
L 633.336707 133.599482 
L 633.59065 209.161315 
L 633.844592 133.599482 
L 634.098534 209.161315 
L 634.352476 133.599482 
L 634.606419 133.599482 
L 634.860361 209.161315 
L 635.114303 133.599482 
L 636.384015 133.599482 
L 636.637957 209.161315 
L 637.145841 58.037648 
L 637.399784 133.599482 
L 639.17738 133.599482 
L 639.431322 58.037648 
L 639.685264 133.599482 
L 640.193149 133.599482 
L 640.447091 209.161315 
L 640.701033 133.599482 
L 642.986513 133.599482 
L 643.240456 58.037648 
L 643.494398 209.161315 
L 643.74834 133.599482 
L 644.256225 133.599482 
L 644.510167 209.161315 
L 644.764109 133.599482 
L 645.018052 133.599482 
L 645.271994 209.161315 
L 645.525936 133.599482 
L 645.779878 133.599482 
L 646.033821 209.161315 
L 646.287763 133.599482 
L 646.541705 133.599482 
L 646.795647 209.161315 
L 647.04959 133.599482 
L 647.303532 133.599482 
L 647.557474 209.161315 
L 647.811417 133.599482 
L 650.350839 133.599482 
L 650.604781 58.037648 
L 651.112666 209.161315 
L 651.366608 133.599482 
L 651.620551 133.599482 
L 651.874493 58.037648 
L 652.128435 133.599482 
L 653.144204 133.599482 
L 653.398146 58.037648 
L 653.652089 133.599482 
L 655.429685 133.599482 
L 655.429685 133.599482 
" clip-path="url(#p7bb24d6f36)" style="fill: none; stroke: #1f77b4; stroke-width: 0.7; stroke-linecap: square"/>
   </g>
   <g id="line2d_57">
    <path d="M 382.924239 209.161315 
L 668.406134 209.161315 
" clip-path="url(#p7bb24d6f36)" style="fill: none; stroke-dasharray: 0.9,1.485; stroke-dashoffset: 0; stroke: #d62728; stroke-width: 0.9"/>
   </g>
   <g id="line2d_58">
    <path d="M 382.924239 133.599482 
L 668.406134 133.599482 
" clip-path="url(#p7bb24d6f36)" style="fill: none; stroke-dasharray: 0.9,1.485; stroke-dashoffset: 0; stroke: #d62728; stroke-width: 0.9"/>
   </g>
   <g id="line2d_59">
    <path d="M 382.924239 58.037648 
L 668.406134 58.037648 
" clip-path="url(#p7bb24d6f36)" style="fill: none; stroke-dasharray: 0.9,1.485; stroke-dashoffset: 0; stroke: #d62728; stroke-width: 0.9"/>
   </g>
   <g id="patch_9">
    <path d="M 382.924239 238.677656 
L 382.924239 26.16 
" style="fill: none; stroke: #000000; stroke-width: 0.8; stroke-linejoin: miter; stroke-linecap: square"/>
   </g>
   <g id="patch_10">
    <path d="M 668.406134 238.677656 
L 668.406134 26.16 
" style="fill: none; stroke: #000000; stroke-width: 0.8; stroke-linejoin: miter; stroke-linecap: square"/>
   </g>
   <g id="patch_11">
    <path d="M 382.924239 238.677656 
L 668.406134 238.677656 
" style="fill: none; stroke: #000000; stroke-width: 0.8; stroke-linejoin: miter; stroke-linecap: square"/>
   </g>
   <g id="patch_12">
    <path d="M 382.924239 26.16 
L 668.406134 26.16 
" style="fill: none; stroke: #000000; stroke-width: 0.8; stroke-linejoin: miter; stroke-linecap: square"/>
   </g>
   <g id="text_33">
    <!-- -65 -->
    <g style="fill: #d62728" transform="translate(658.730934 211.23944) scale(0.08 -0.08)">
     <defs>
      <path id="DejaVuSans-10" d="M 313 2009 
L 1997 2009 
L 1997 1497 
L 313 1497 
L 313 2009 
z
" transform="scale(0.015625)"/>
      <path id="DejaVuSans-18" d="M 691 4666 
L 3169 4666 
L 3169 4134 
L 1269 4134 
L 1269 2991 
Q 1406 3038 1543 3061 
Q 1681 3084 1819 3084 
Q 2600 3084 3056 2656 
Q 3513 2228 3513 1497 
Q 3513 744 3044 326 
Q 2575 -91 1722 -91 
Q 1428 -91 1123 -41 
Q 819 9 494 109 
L 494 744 
Q 775 591 1075 516 
Q 1375 441 1709 441 
Q 2250 441 2565 725 
Q 2881 1009 2881 1497 
Q 2881 1984 2565 2268 
Q 2250 2553 1709 2553 
Q 1456 2553 1204 2497 
Q 953 2441 691 2322 
L 691 4666 
z
" transform="scale(0.015625)"/>
     </defs>
     <use xlink:href="#DejaVuSans-10"/>
     <use xlink:href="#DejaVuSans-19" transform="translate(36.078125 0)"/>
     <use xlink:href="#DejaVuSans-18" transform="translate(99.703125 0)"/>
    </g>
   </g>
   <g id="text_34">
    <!-- -1 -->
    <g style="fill: #d62728" transform="translate(658.730934 135.677607) scale(0.08 -0.08)">
     <use xlink:href="#DejaVuSans-10"/>
     <use xlink:href="#DejaVuSans-14" transform="translate(36.078125 0)"/>
    </g>
   </g>
   <g id="text_35">
    <!-- 63 -->
    <g style="fill: #d62728" transform="translate(658.730934 60.115773) scale(0.08 -0.08)">
     <use xlink:href="#DejaVuSans-19"/>
     <use xlink:href="#DejaVuSans-16" transform="translate(63.625 0)"/>
    </g>
   </g>
   <g id="text_36">
    <!-- zoom: el piso toma solo tres valores -->
    <g transform="translate(417.333312 20.16) scale(0.12 -0.12)">
     <defs>
      <path id="DejaVuSans-5d" d="M 353 3500 
L 3084 3500 
L 3084 2975 
L 922 459 
L 3084 459 
L 3084 0 
L 275 0 
L 275 525 
L 2438 3041 
L 353 3041 
L 353 3500 
z
" transform="scale(0.015625)"/>
      <path id="DejaVuSans-50" d="M 3328 2828 
Q 3544 3216 3844 3400 
Q 4144 3584 4550 3584 
Q 5097 3584 5394 3201 
Q 5691 2819 5691 2113 
L 5691 0 
L 5113 0 
L 5113 2094 
Q 5113 2597 4934 2840 
Q 4756 3084 4391 3084 
Q 3944 3084 3684 2787 
Q 3425 2491 3425 1978 
L 3425 0 
L 2847 0 
L 2847 2094 
Q 2847 2600 2669 2842 
Q 2491 3084 2119 3084 
Q 1678 3084 1418 2786 
Q 1159 2488 1159 1978 
L 1159 0 
L 581 0 
L 581 3500 
L 1159 3500 
L 1159 2956 
Q 1356 3278 1631 3431 
Q 1906 3584 2284 3584 
Q 2666 3584 2933 3390 
Q 3200 3197 3328 2828 
z
" transform="scale(0.015625)"/>
      <path id="DejaVuSans-59" d="M 191 3500 
L 800 3500 
L 1894 563 
L 2988 3500 
L 3597 3500 
L 2284 0 
L 1503 0 
L 191 3500 
z
" transform="scale(0.015625)"/>
     </defs>
     <use xlink:href="#DejaVuSans-5d"/>
     <use xlink:href="#DejaVuSans-52" transform="translate(52.484375 0)"/>
     <use xlink:href="#DejaVuSans-52" transform="translate(113.671875 0)"/>
     <use xlink:href="#DejaVuSans-50" transform="translate(174.859375 0)"/>
     <use xlink:href="#DejaVuSans-1d" transform="translate(272.265625 0)"/>
     <use xlink:href="#DejaVuSans-3" transform="translate(305.953125 0)"/>
     <use xlink:href="#DejaVuSans-48" transform="translate(337.734375 0)"/>
     <use xlink:href="#DejaVuSans-4f" transform="translate(399.265625 0)"/>
     <use xlink:href="#DejaVuSans-3" transform="translate(427.046875 0)"/>
     <use xlink:href="#DejaVuSans-53" transform="translate(458.828125 0)"/>
     <use xlink:href="#DejaVuSans-4c" transform="translate(522.3125 0)"/>
     <use xlink:href="#DejaVuSans-56" transform="translate(550.09375 0)"/>
     <use xlink:href="#DejaVuSans-52" transform="translate(602.1875 0)"/>
     <use xlink:href="#DejaVuSans-3" transform="translate(663.375 0)"/>
     <use xlink:href="#DejaVuSans-57" transform="translate(695.15625 0)"/>
     <use xlink:href="#DejaVuSans-52" transform="translate(734.359375 0)"/>
     <use xlink:href="#DejaVuSans-50" transform="translate(795.546875 0)"/>
     <use xlink:href="#DejaVuSans-44" transform="translate(892.953125 0)"/>
     <use xlink:href="#DejaVuSans-3" transform="translate(954.234375 0)"/>
     <use xlink:href="#DejaVuSans-56" transform="translate(986.015625 0)"/>
     <use xlink:href="#DejaVuSans-52" transform="translate(1038.109375 0)"/>
     <use xlink:href="#DejaVuSans-4f" transform="translate(1099.296875 0)"/>
     <use xlink:href="#DejaVuSans-52" transform="translate(1127.078125 0)"/>
     <use xlink:href="#DejaVuSans-3" transform="translate(1188.265625 0)"/>
     <use xlink:href="#DejaVuSans-57" transform="translate(1220.046875 0)"/>
     <use xlink:href="#DejaVuSans-55" transform="translate(1259.25 0)"/>
     <use xlink:href="#DejaVuSans-48" transform="translate(1298.15625 0)"/>
     <use xlink:href="#DejaVuSans-56" transform="translate(1359.6875 0)"/>
     <use xlink:href="#DejaVuSans-3" transform="translate(1411.78125 0)"/>
     <use xlink:href="#DejaVuSans-59" transform="translate(1443.5625 0)"/>
     <use xlink:href="#DejaVuSans-44" transform="translate(1502.75 0)"/>
     <use xlink:href="#DejaVuSans-4f" transform="translate(1564.03125 0)"/>
     <use xlink:href="#DejaVuSans-52" transform="translate(1591.8125 0)"/>
     <use xlink:href="#DejaVuSans-55" transform="translate(1653 0)"/>
     <use xlink:href="#DejaVuSans-48" transform="translate(1691.90625 0)"/>
     <use xlink:href="#DejaVuSans-56" transform="translate(1753.4375 0)"/>
    </g>
   </g>
  </g>
 </g>
 <defs>
  <clipPath id="p3c88a3acec">
   <rect x="58.042344" y="26.16" width="285.481895" height="212.517656"/>
  </clipPath>
  <clipPath id="p7bb24d6f36">
   <rect x="382.924239" y="26.16" width="285.481895" height="212.517656"/>
  </clipPath>
 </defs>
</svg>
