<?xml version="1.0" encoding="utf-8" standalone="no"?>
<!DOCTYPE svg PUBLIC "-//W3C//DTD SVG 1.1//EN"
  "http://www.w3.org/Graphics/SVG/1.1/DTD/svg11.dtd">
<svg xmlns:xlink="http://www.w3.org/1999/xlink" width="684pt" height="280.8pt" viewBox="0 0 684 280.8" xmlns="http://www.w3.org/2000/svg" version="1.1">
 <metadata>
  <rdf:RDF xmlns:dc="http://purl.org/dc/elements/1.1/" xmlns:cc="http://creativecommons.org/ns#" xmlns:rdf="http://www.w3.org/1999/02/22-rdf-syntax-ns#">
   <cc:Work>
    <dc:type rdf:resource="http://purl.org/dc/dcmitype/StillImage"/>
    <dc:date>2026-07-04T05:38:03.501320</dc:date>
    <dc:format>image/svg+xml</dc:format>
    <dc:creator>
     <cc:Agent>
      <dc:title>Matplotlib v3.11.0, https://matplotlib.org/</dc:title>
     </cc:Agent>
    </dc:creator>
   </cc:Work>
  </rdf:RDF>
 </metadata>
 <defs>
  <style type="text/css">*{stroke-linejoin: round; stroke-linecap: butt}</style>
 </defs>
 <g id="figure_1">
  <g id="patch_1">
   <path d="M 0 280.8 
L 684 280.8 
L 684 0 
L 0 0 
z
" style="fill: #ffffff"/>
  </g>
  <g id="axes_1">
   <g id="patch_2">
    <path d="M 53.722344 238.677656 
L 438.439168 238.677656 
L 438.439168 26.88 
L 53.722344 26.88 
z
" style="fill: #ffffff"/>
   </g>
   <g id="matplotlib.axis_1">
    <g id="xtick_1">
     <g id="line2d_1">
      <path d="M 71.209472 238.677656 
L 71.209472 26.88 
" clip-path="url(#p105a5e7109)" style="fill: none; stroke: #b0b0b0; stroke-opacity: 0.3; stroke-width: 0.8; stroke-linecap: square"/>
     </g>
     <g id="line2d_2">
      <defs>
       <path id="mb577e42ab4" d="M 0 0 
L 0 3.5 
" style="stroke: #000000; stroke-width: 0.8"/>
      </defs>
      <g>
       <use xlink:href="#mb577e42ab4" x="71.209472" y="238.677656" style="stroke: #000000; stroke-width: 0.8"/>
      </g>
     </g>
     <g id="text_1">
      <!-- 0 -->
      <g transform="translate(68.028222 253.275313) scale(0.1 -0.1)">
       <defs>
        <path id="DejaVuSans-13" d="M 2034 4250 
Q 1547 4250 1301 3770 
Q 1056 3291 1056 2328 
Q 1056 1369 1301 889 
Q 1547 409 2034 409 
Q 2525 409 2770 889 
Q 3016 1369 3016 2328 
Q 3016 3291 2770 3770 
Q 2525 4250 2034 4250 
z
M 2034 4750 
Q 2819 4750 3233 4129 
Q 3647 3509 3647 2328 
Q 3647 1150 3233 529 
Q 2819 -91 2034 -91 
Q 1250 -91 836 529 
Q 422 1150 422 2328 
Q 422 3509 836 4129 
Q 1250 4750 2034 4750 
z
" transform="scale(0.015625)"/>
       </defs>
       <use xlink:href="#DejaVuSans-13"/>
      </g>
     </g>
    </g>
    <g id="xtick_2">
     <g id="line2d_3">
      <path d="M 139.652245 238.677656 
L 139.652245 26.88 
" clip-path="url(#p105a5e7109)" style="fill: none; stroke: #b0b0b0; stroke-opacity: 0.3; stroke-width: 0.8; stroke-linecap: square"/>
     </g>
     <g id="line2d_4">
      <g>
       <use xlink:href="#mb577e42ab4" x="139.652245" y="238.677656" style="stroke: #000000; stroke-width: 0.8"/>
      </g>
     </g>
     <g id="text_2">
      <!-- 200 -->
      <g transform="translate(130.108495 253.275313) scale(0.1 -0.1)">
       <defs>
        <path id="DejaVuSans-15" d="M 1228 531 
L 3431 531 
L 3431 0 
L 469 0 
L 469 531 
Q 828 903 1448 1529 
Q 2069 2156 2228 2338 
Q 2531 2678 2651 2914 
Q 2772 3150 2772 3378 
Q 2772 3750 2511 3984 
Q 2250 4219 1831 4219 
Q 1534 4219 1204 4116 
Q 875 4013 500 3803 
L 500 4441 
Q 881 4594 1212 4672 
Q 1544 4750 1819 4750 
Q 2544 4750 2975 4387 
Q 3406 4025 3406 3419 
Q 3406 3131 3298 2873 
Q 3191 2616 2906 2266 
Q 2828 2175 2409 1742 
Q 1991 1309 1228 531 
z
" transform="scale(0.015625)"/>
       </defs>
       <use xlink:href="#DejaVuSans-15"/>
       <use xlink:href="#DejaVuSans-13" transform="translate(63.625 0)"/>
       <use xlink:href="#DejaVuSans-13" transform="translate(127.25 0)"/>
      </g>
     </g>
    </g>
    <g id="xtick_3">
     <g id="line2d_5">
      <path d="M 208.095017 238.677656 
L 208.095017 26.88 
" clip-path="url(#p105a5e7109)" style="fill: none; stroke: #b0b0b0; stroke-opacity: 0.3; stroke-width: 0.8; stroke-linecap: square"/>
     </g>
     <g id="line2d_6">
      <g>
       <use xlink:href="#mb577e42ab4" x="208.095017" y="238.677656" style="stroke: #000000; stroke-width: 0.8"/>
      </g>
     </g>
     <g id="text_3">
      <!-- 400 -->
      <g transform="translate(198.551267 253.275313) scale(0.1 -0.1)">
       <defs>
        <path id="DejaVuSans-17" d="M 2419 4116 
L 825 1625 
L 2419 1625 
L 2419 4116 
z
M 2253 4666 
L 3047 4666 
L 3047 1625 
L 3713 1625 
L 3713 1100 
L 3047 1100 
L 3047 0 
L 2419 0 
L 2419 1100 
L 313 1100 
L 313 1709 
L 2253 4666 
z
" transform="scale(0.015625)"/>
       </defs>
       <use xlink:href="#DejaVuSans-17"/>
       <use xlink:href="#DejaVuSans-13" transform="translate(63.625 0)"/>
       <use xlink:href="#DejaVuSans-13" transform="translate(127.25 0)"/>
      </g>
     </g>
    </g>
    <g id="xtick_4">
     <g id="line2d_7">
      <path d="M 276.53779 238.677656 
L 276.53779 26.88 
" clip-path="url(#p105a5e7109)" style="fill: none; stroke: #b0b0b0; stroke-opacity: 0.3; stroke-width: 0.8; stroke-linecap: square"/>
     </g>
     <g id="line2d_8">
      <g>
       <use xlink:href="#mb577e42ab4" x="276.53779" y="238.677656" style="stroke: #000000; stroke-width: 0.8"/>
      </g>
     </g>
     <g id="text_4">
      <!-- 600 -->
      <g transform="translate(266.99404 253.275313) scale(0.1 -0.1)">
       <defs>
        <path id="DejaVuSans-19" d="M 2113 2584 
Q 1688 2584 1439 2293 
Q 1191 2003 1191 1497 
Q 1191 994 1439 701 
Q 1688 409 2113 409 
Q 2538 409 2786 701 
Q 3034 994 3034 1497 
Q 3034 2003 2786 2293 
Q 2538 2584 2113 2584 
z
M 3366 4563 
L 3366 3988 
Q 3128 4100 2886 4159 
Q 2644 4219 2406 4219 
Q 1781 4219 1451 3797 
Q 1122 3375 1075 2522 
Q 1259 2794 1537 2939 
Q 1816 3084 2150 3084 
Q 2853 3084 3261 2657 
Q 3669 2231 3669 1497 
Q 3669 778 3244 343 
Q 2819 -91 2113 -91 
Q 1303 -91 875 529 
Q 447 1150 447 2328 
Q 447 3434 972 4092 
Q 1497 4750 2381 4750 
Q 2619 4750 2861 4703 
Q 3103 4656 3366 4563 
z
" transform="scale(0.015625)"/>
       </defs>
       <use xlink:href="#DejaVuSans-19"/>
       <use xlink:href="#DejaVuSans-13" transform="translate(63.625 0)"/>
       <use xlink:href="#DejaVuSans-13" transform="translate(127.25 0)"/>
      </g>
     </g>
    </g>
    <g id="xtick_5">
     <g id="line2d_9">
      <path d="M 344.980562 238.677656 
L 344.980562 26.88 
" clip-path="url(#p105a5e7109)" style="fill: none; stroke: #b0b0b0; stroke-opacity: 0.3; stroke-width: 0.8; stroke-linecap: square"/>
     </g>
     <g id="line2d_10">
      <g>
       <use xlink:href="#mb577e42ab4" x="344.980562" y="238.677656" style="stroke: #000000; stroke-width: 0.8"/>
      </g>
     </g>
     <g id="text_5">
      <!-- 800 -->
      <g transform="translate(335.436812 253.275313) scale(0.1 -0.1)">
       <defs>
        <path id="DejaVuSans-1b" d="M 2034 2216 
Q 1584 2216 1326 1975 
Q 1069 1734 1069 1313 
Q 1069 891 1326 650 
Q 1584 409 2034 409 
Q 2484 409 2743 651 
Q 3003 894 3003 1313 
Q 3003 1734 2745 1975 
Q 2488 2216 2034 2216 
z
M 1403 2484 
Q 997 2584 770 2862 
Q 544 3141 544 3541 
Q 544 4100 942 4425 
Q 1341 4750 2034 4750 
Q 2731 4750 3128 4425 
Q 3525 4100 3525 3541 
Q 3525 3141 3298 2862 
Q 3072 2584 2669 2484 
Q 3125 2378 3379 2068 
Q 3634 1759 3634 1313 
Q 3634 634 3220 271 
Q 2806 -91 2034 -91 
Q 1263 -91 848 271 
Q 434 634 434 1313 
Q 434 1759 690 2068 
Q 947 2378 1403 2484 
z
M 1172 3481 
Q 1172 3119 1398 2916 
Q 1625 2713 2034 2713 
Q 2441 2713 2670 2916 
Q 2900 3119 2900 3481 
Q 2900 3844 2670 4047 
Q 2441 4250 2034 4250 
Q 1625 4250 1398 4047 
Q 1172 3844 1172 3481 
z
" transform="scale(0.015625)"/>
       </defs>
       <use xlink:href="#DejaVuSans-1b"/>
       <use xlink:href="#DejaVuSans-13" transform="translate(63.625 0)"/>
       <use xlink:href="#DejaVuSans-13" transform="translate(127.25 0)"/>
      </g>
     </g>
    </g>
    <g id="xtick_6">
     <g id="line2d_11">
      <path d="M 413.423335 238.677656 
L 413.423335 26.88 
" clip-path="url(#p105a5e7109)" style="fill: none; stroke: #b0b0b0; stroke-opacity: 0.3; stroke-width: 0.8; stroke-linecap: square"/>
     </g>
     <g id="line2d_12">
      <g>
       <use xlink:href="#mb577e42ab4" x="413.423335" y="238.677656" style="stroke: #000000; stroke-width: 0.8"/>
      </g>
     </g>
     <g id="text_6">
      <!-- 1000 -->
      <g transform="translate(400.698335 253.275313) scale(0.1 -0.1)">
       <defs>
        <path id="DejaVuSans-14" d="M 794 531 
L 1825 531 
L 1825 4091 
L 703 3866 
L 703 4441 
L 1819 4666 
L 2450 4666 
L 2450 531 
L 3481 531 
L 3481 0 
L 794 0 
L 794 531 
z
" transform="scale(0.015625)"/>
       </defs>
       <use xlink:href="#DejaVuSans-14"/>
       <use xlink:href="#DejaVuSans-13" transform="translate(63.625 0)"/>
       <use xlink:href="#DejaVuSans-13" transform="translate(127.25 0)"/>
       <use xlink:href="#DejaVuSans-13" transform="translate(190.875 0)"/>
      </g>
     </g>
    </g>
    <g id="text_7">
     <!-- desfase (chips) -->
     <g transform="translate(208.143256 267.276094) scale(0.1 -0.1)">
      <defs>
       <path id="DejaVuSans-47" d="M 2906 2969 
L 2906 4863 
L 3481 4863 
L 3481 0 
L 2906 0 
L 2906 525 
Q 2725 213 2448 61 
Q 2172 -91 1784 -91 
Q 1150 -91 751 415 
Q 353 922 353 1747 
Q 353 2572 751 3078 
Q 1150 3584 1784 3584 
Q 2172 3584 2448 3432 
Q 2725 3281 2906 2969 
z
M 947 1747 
Q 947 1113 1208 752 
Q 1469 391 1925 391 
Q 2381 391 2643 752 
Q 2906 1113 2906 1747 
Q 2906 2381 2643 2742 
Q 2381 3103 1925 3103 
Q 1469 3103 1208 2742 
Q 947 2381 947 1747 
z
" transform="scale(0.015625)"/>
       <path id="DejaVuSans-48" d="M 3597 1894 
L 3597 1613 
L 953 1613 
Q 991 1019 1311 708 
Q 1631 397 2203 397 
Q 2534 397 2845 478 
Q 3156 559 3463 722 
L 3463 178 
Q 3153 47 2828 -22 
Q 2503 -91 2169 -91 
Q 1331 -91 842 396 
Q 353 884 353 1716 
Q 353 2575 817 3079 
Q 1281 3584 2069 3584 
Q 2775 3584 3186 3129 
Q 3597 2675 3597 1894 
z
M 3022 2063 
Q 3016 2534 2758 2815 
Q 2500 3097 2075 3097 
Q 1594 3097 1305 2825 
Q 1016 2553 972 2059 
L 3022 2063 
z
" transform="scale(0.015625)"/>
       <path id="DejaVuSans-56" d="M 2834 3397 
L 2834 2853 
Q 2591 2978 2328 3040 
Q 2066 3103 1784 3103 
Q 1356 3103 1142 2972 
Q 928 2841 928 2578 
Q 928 2378 1081 2264 
Q 1234 2150 1697 2047 
L 1894 2003 
Q 2506 1872 2764 1633 
Q 3022 1394 3022 966 
Q 3022 478 2636 193 
Q 2250 -91 1575 -91 
Q 1294 -91 989 -36 
Q 684 19 347 128 
L 347 722 
Q 666 556 975 473 
Q 1284 391 1588 391 
Q 1994 391 2212 530 
Q 2431 669 2431 922 
Q 2431 1156 2273 1281 
Q 2116 1406 1581 1522 
L 1381 1569 
Q 847 1681 609 1914 
Q 372 2147 372 2553 
Q 372 3047 722 3315 
Q 1072 3584 1716 3584 
Q 2034 3584 2315 3537 
Q 2597 3491 2834 3397 
z
" transform="scale(0.015625)"/>
       <path id="DejaVuSans-49" d="M 2375 4863 
L 2375 4384 
L 1825 4384 
Q 1516 4384 1395 4259 
Q 1275 4134 1275 3809 
L 1275 3500 
L 2222 3500 
L 2222 3053 
L 1275 3053 
L 1275 0 
L 697 0 
L 697 3053 
L 147 3053 
L 147 3500 
L 697 3500 
L 697 3744 
Q 697 4328 969 4595 
Q 1241 4863 1831 4863 
L 2375 4863 
z
" transform="scale(0.015625)"/>
       <path id="DejaVuSans-44" d="M 2194 1759 
Q 1497 1759 1228 1600 
Q 959 1441 959 1056 
Q 959 750 1161 570 
Q 1363 391 1709 391 
Q 2188 391 2477 730 
Q 2766 1069 2766 1631 
L 2766 1759 
L 2194 1759 
z
M 3341 1997 
L 3341 0 
L 2766 0 
L 2766 531 
Q 2569 213 2275 61 
Q 1981 -91 1556 -91 
Q 1019 -91 701 211 
Q 384 513 384 1019 
Q 384 1609 779 1909 
Q 1175 2209 1959 2209 
L 2766 2209 
L 2766 2266 
Q 2766 2663 2505 2880 
Q 2244 3097 1772 3097 
Q 1472 3097 1187 3025 
Q 903 2953 641 2809 
L 641 3341 
Q 956 3463 1253 3523 
Q 1550 3584 1831 3584 
Q 2591 3584 2966 3190 
Q 3341 2797 3341 1997 
z
" transform="scale(0.015625)"/>
       <path id="DejaVuSans-3" transform="scale(0.015625)"/>
       <path id="DejaVuSans-b" d="M 1984 4856 
Q 1566 4138 1362 3434 
Q 1159 2731 1159 2009 
Q 1159 1288 1364 580 
Q 1569 -128 1984 -844 
L 1484 -844 
Q 1016 -109 783 600 
Q 550 1309 550 2009 
Q 550 2706 781 3412 
Q 1013 4119 1484 4856 
L 1984 4856 
z
" transform="scale(0.015625)"/>
       <path id="DejaVuSans-46" d="M 3122 3366 
L 3122 2828 
Q 2878 2963 2633 3030 
Q 2388 3097 2138 3097 
Q 1578 3097 1268 2742 
Q 959 2388 959 1747 
Q 959 1106 1268 751 
Q 1578 397 2138 397 
Q 2388 397 2633 464 
Q 2878 531 3122 666 
L 3122 134 
Q 2881 22 2623 -34 
Q 2366 -91 2075 -91 
Q 1284 -91 818 406 
Q 353 903 353 1747 
Q 353 2603 823 3093 
Q 1294 3584 2113 3584 
Q 2378 3584 2631 3529 
Q 2884 3475 3122 3366 
z
" transform="scale(0.015625)"/>
       <path id="DejaVuSans-4b" d="M 3513 2113 
L 3513 0 
L 2938 0 
L 2938 2094 
Q 2938 2591 2744 2837 
Q 2550 3084 2163 3084 
Q 1697 3084 1428 2787 
Q 1159 2491 1159 1978 
L 1159 0 
L 581 0 
L 581 4863 
L 1159 4863 
L 1159 2956 
Q 1366 3272 1645 3428 
Q 1925 3584 2291 3584 
Q 2894 3584 3203 3211 
Q 3513 2838 3513 2113 
z
" transform="scale(0.015625)"/>
       <path id="DejaVuSans-4c" d="M 603 3500 
L 1178 3500 
L 1178 0 
L 603 0 
L 603 3500 
z
M 603 4863 
L 1178 4863 
L 1178 4134 
L 603 4134 
L 603 4863 
z
" transform="scale(0.015625)"/>
       <path id="DejaVuSans-53" d="M 1159 525 
L 1159 -1331 
L 581 -1331 
L 581 3500 
L 1159 3500 
L 1159 2969 
Q 1341 3281 1617 3432 
Q 1894 3584 2278 3584 
Q 2916 3584 3314 3078 
Q 3713 2572 3713 1747 
Q 3713 922 3314 415 
Q 2916 -91 2278 -91 
Q 1894 -91 1617 61 
Q 1341 213 1159 525 
z
M 3116 1747 
Q 3116 2381 2855 2742 
Q 2594 3103 2138 3103 
Q 1681 3103 1420 2742 
Q 1159 2381 1159 1747 
Q 1159 1113 1420 752 
Q 1681 391 2138 391 
Q 2594 391 2855 752 
Q 3116 1113 3116 1747 
z
" transform="scale(0.015625)"/>
       <path id="DejaVuSans-c" d="M 513 4856 
L 1013 4856 
Q 1481 4119 1714 3412 
Q 1947 2706 1947 2009 
Q 1947 1309 1714 600 
Q 1481 -109 1013 -844 
L 513 -844 
Q 928 -128 1133 580 
Q 1338 1288 1338 2009 
Q 1338 2731 1133 3434 
Q 928 4138 513 4856 
z
" transform="scale(0.015625)"/>
      </defs>
      <use xlink:href="#DejaVuSans-47"/>
      <use xlink:href="#DejaVuSans-48" transform="translate(63.484375 0)"/>
      <use xlink:href="#DejaVuSans-56" transform="translate(125.015625 0)"/>
      <use xlink:href="#DejaVuSans-49" transform="translate(177.109375 0)"/>
      <use xlink:href="#DejaVuSans-44" transform="translate(212.3125 0)"/>
      <use xlink:href="#DejaVuSans-56" transform="translate(273.59375 0)"/>
      <use xlink:href="#DejaVuSans-48" transform="translate(325.6875 0)"/>
      <use xlink:href="#DejaVuSans-3" transform="translate(387.21875 0)"/>
      <use xlink:href="#DejaVuSans-b" transform="translate(419 0)"/>
      <use xlink:href="#DejaVuSans-46" transform="translate(458.015625 0)"/>
      <use xlink:href="#DejaVuSans-4b" transform="translate(513 0)"/>
      <use xlink:href="#DejaVuSans-4c" transform="translate(576.375 0)"/>
      <use xlink:href="#DejaVuSans-53" transform="translate(604.15625 0)"/>
      <use xlink:href="#DejaVuSans-56" transform="translate(667.640625 0)"/>
      <use xlink:href="#DejaVuSans-c" transform="translate(719.734375 0)"/>
     </g>
    </g>
   </g>
   <g id="matplotlib.axis_2">
    <g id="ytick_1">
     <g id="line2d_13">
      <path d="M 53.722344 226.91112 
L 438.439168 226.91112 
" clip-path="url(#p105a5e7109)" style="fill: none; stroke: #b0b0b0; stroke-opacity: 0.3; stroke-width: 0.8; stroke-linecap: square"/>
     </g>
     <g id="line2d_14">
      <defs>
       <path id="m56228adfaa" d="M 0 0 
L -3.5 0 
" style="stroke: #000000; stroke-width: 0.8"/>
      </defs>
      <g>
       <use xlink:href="#m56228adfaa" x="53.722344" y="226.91112" style="stroke: #000000; stroke-width: 0.8"/>
      </g>
     </g>
     <g id="text_8">
      <!-- −80 -->
      <g transform="translate(25.617656 230.709948) scale(0.1 -0.1)">
       <defs>
        <path id="DejaVuSans-c9c" d="M 678 2272 
L 4684 2272 
L 4684 1741 
L 678 1741 
L 678 2272 
z
" transform="scale(0.015625)"/>
       </defs>
       <use xlink:href="#DejaVuSans-c9c"/>
       <use xlink:href="#DejaVuSans-1b" transform="translate(83.796875 0)"/>
       <use xlink:href="#DejaVuSans-13" transform="translate(147.421875 0)"/>
      </g>
     </g>
    </g>
    <g id="ytick_2">
     <g id="line2d_15">
      <path d="M 53.722344 203.378047 
L 438.439168 203.378047 
" clip-path="url(#p105a5e7109)" style="fill: none; stroke: #b0b0b0; stroke-opacity: 0.3; stroke-width: 0.8; stroke-linecap: square"/>
     </g>
     <g id="line2d_16">
      <g>
       <use xlink:href="#m56228adfaa" x="53.722344" y="203.378047" style="stroke: #000000; stroke-width: 0.8"/>
      </g>
     </g>
     <g id="text_9">
      <!-- −60 -->
      <g transform="translate(25.617656 207.176875) scale(0.1 -0.1)">
       <use xlink:href="#DejaVuSans-c9c"/>
       <use xlink:href="#DejaVuSans-19" transform="translate(83.796875 0)"/>
       <use xlink:href="#DejaVuSans-13" transform="translate(147.421875 0)"/>
      </g>
     </g>
    </g>
    <g id="ytick_3">
     <g id="line2d_17">
      <path d="M 53.722344 179.844974 
L 438.439168 179.844974 
" clip-path="url(#p105a5e7109)" style="fill: none; stroke: #b0b0b0; stroke-opacity: 0.3; stroke-width: 0.8; stroke-linecap: square"/>
     </g>
     <g id="line2d_18">
      <g>
       <use xlink:href="#m56228adfaa" x="53.722344" y="179.844974" style="stroke: #000000; stroke-width: 0.8"/>
      </g>
     </g>
     <g id="text_10">
      <!-- −40 -->
      <g transform="translate(25.617656 183.643802) scale(0.1 -0.1)">
       <use xlink:href="#DejaVuSans-c9c"/>
       <use xlink:href="#DejaVuSans-17" transform="translate(83.796875 0)"/>
       <use xlink:href="#DejaVuSans-13" transform="translate(147.421875 0)"/>
      </g>
     </g>
    </g>
    <g id="ytick_4">
     <g id="line2d_19">
      <path d="M 53.722344 156.311901 
L 438.439168 156.311901 
" clip-path="url(#p105a5e7109)" style="fill: none; stroke: #b0b0b0; stroke-opacity: 0.3; stroke-width: 0.8; stroke-linecap: square"/>
     </g>
     <g id="line2d_20">
      <g>
       <use xlink:href="#m56228adfaa" x="53.722344" y="156.311901" style="stroke: #000000; stroke-width: 0.8"/>
      </g>
     </g>
     <g id="text_11">
      <!-- −20 -->
      <g transform="translate(25.617656 160.110729) scale(0.1 -0.1)">
       <use xlink:href="#DejaVuSans-c9c"/>
       <use xlink:href="#DejaVuSans-15" transform="translate(83.796875 0)"/>
       <use xlink:href="#DejaVuSans-13" transform="translate(147.421875 0)"/>
      </g>
     </g>
    </g>
    <g id="ytick_5">
     <g id="line2d_21">
      <path d="M 53.722344 132.778828 
L 438.439168 132.778828 
" clip-path="url(#p105a5e7109)" style="fill: none; stroke: #b0b0b0; stroke-opacity: 0.3; stroke-width: 0.8; stroke-linecap: square"/>
     </g>
     <g id="line2d_22">
      <g>
       <use xlink:href="#m56228adfaa" x="53.722344" y="132.778828" style="stroke: #000000; stroke-width: 0.8"/>
      </g>
     </g>
     <g id="text_12">
      <!-- 0 -->
      <g transform="translate(40.359844 136.577656) scale(0.1 -0.1)">
       <use xlink:href="#DejaVuSans-13"/>
      </g>
     </g>
    </g>
    <g id="ytick_6">
     <g id="line2d_23">
      <path d="M 53.722344 109.245755 
L 438.439168 109.245755 
" clip-path="url(#p105a5e7109)" style="fill: none; stroke: #b0b0b0; stroke-opacity: 0.3; stroke-width: 0.8; stroke-linecap: square"/>
     </g>
     <g id="line2d_24">
      <g>
       <use xlink:href="#m56228adfaa" x="53.722344" y="109.245755" style="stroke: #000000; stroke-width: 0.8"/>
      </g>
     </g>
     <g id="text_13">
      <!-- 20 -->
      <g transform="translate(33.997344 113.044583) scale(0.1 -0.1)">
       <use xlink:href="#DejaVuSans-15"/>
       <use xlink:href="#DejaVuSans-13" transform="translate(63.625 0)"/>
      </g>
     </g>
    </g>
    <g id="ytick_7">
     <g id="line2d_25">
      <path d="M 53.722344 85.712682 
L 438.439168 85.712682 
" clip-path="url(#p105a5e7109)" style="fill: none; stroke: #b0b0b0; stroke-opacity: 0.3; stroke-width: 0.8; stroke-linecap: square"/>
     </g>
     <g id="line2d_26">
      <g>
       <use xlink:href="#m56228adfaa" x="53.722344" y="85.712682" style="stroke: #000000; stroke-width: 0.8"/>
      </g>
     </g>
     <g id="text_14">
      <!-- 40 -->
      <g transform="translate(33.997344 89.51151) scale(0.1 -0.1)">
       <use xlink:href="#DejaVuSans-17"/>
       <use xlink:href="#DejaVuSans-13" transform="translate(63.625 0)"/>
      </g>
     </g>
    </g>
    <g id="ytick_8">
     <g id="line2d_27">
      <path d="M 53.722344 62.179609 
L 438.439168 62.179609 
" clip-path="url(#p105a5e7109)" style="fill: none; stroke: #b0b0b0; stroke-opacity: 0.3; stroke-width: 0.8; stroke-linecap: square"/>
     </g>
     <g id="line2d_28">
      <g>
       <use xlink:href="#m56228adfaa" x="53.722344" y="62.179609" style="stroke: #000000; stroke-width: 0.8"/>
      </g>
     </g>
     <g id="text_15">
      <!-- 60 -->
      <g transform="translate(33.997344 65.978437) scale(0.1 -0.1)">
       <use xlink:href="#DejaVuSans-19"/>
       <use xlink:href="#DejaVuSans-13" transform="translate(63.625 0)"/>
      </g>
     </g>
    </g>
    <g id="ytick_9">
     <g id="line2d_29">
      <path d="M 53.722344 38.646536 
L 438.439168 38.646536 
" clip-path="url(#p105a5e7109)" style="fill: none; stroke: #b0b0b0; stroke-opacity: 0.3; stroke-width: 0.8; stroke-linecap: square"/>
     </g>
     <g id="line2d_30">
      <g>
       <use xlink:href="#m56228adfaa" x="53.722344" y="38.646536" style="stroke: #000000; stroke-width: 0.8"/>
      </g>
     </g>
     <g id="text_16">
      <!-- 80 -->
      <g transform="translate(33.997344 42.445365) scale(0.1 -0.1)">
       <use xlink:href="#DejaVuSans-1b"/>
       <use xlink:href="#DejaVuSans-13" transform="translate(63.625 0)"/>
      </g>
     </g>
    </g>
    <g id="text_17">
     <!-- correlación PRN1 × PRN2 -->
     <g transform="translate(19.215313 196.175703) rotate(-90) scale(0.1 -0.1)">
      <defs>
       <path id="DejaVuSans-52" d="M 1959 3097 
Q 1497 3097 1228 2736 
Q 959 2375 959 1747 
Q 959 1119 1226 758 
Q 1494 397 1959 397 
Q 2419 397 2687 759 
Q 2956 1122 2956 1747 
Q 2956 2369 2687 2733 
Q 2419 3097 1959 3097 
z
M 1959 3584 
Q 2709 3584 3137 3096 
Q 3566 2609 3566 1747 
Q 3566 888 3137 398 
Q 2709 -91 1959 -91 
Q 1206 -91 779 398 
Q 353 888 353 1747 
Q 353 2609 779 3096 
Q 1206 3584 1959 3584 
z
" transform="scale(0.015625)"/>
       <path id="DejaVuSans-55" d="M 2631 2963 
Q 2534 3019 2420 3045 
Q 2306 3072 2169 3072 
Q 1681 3072 1420 2755 
Q 1159 2438 1159 1844 
L 1159 0 
L 581 0 
L 581 3500 
L 1159 3500 
L 1159 2956 
Q 1341 3275 1631 3429 
Q 1922 3584 2338 3584 
Q 2397 3584 2469 3576 
Q 2541 3569 2628 3553 
L 2631 2963 
z
" transform="scale(0.015625)"/>
       <path id="DejaVuSans-4f" d="M 603 4863 
L 1178 4863 
L 1178 0 
L 603 0 
L 603 4863 
z
" transform="scale(0.015625)"/>
       <path id="DejaVuSans-b5" d="M 1959 3097 
Q 1497 3097 1228 2736 
Q 959 2375 959 1747 
Q 959 1119 1226 758 
Q 1494 397 1959 397 
Q 2419 397 2687 759 
Q 2956 1122 2956 1747 
Q 2956 2369 2687 2733 
Q 2419 3097 1959 3097 
z
M 1959 3584 
Q 2709 3584 3137 3096 
Q 3566 2609 3566 1747 
Q 3566 888 3137 398 
Q 2709 -91 1959 -91 
Q 1206 -91 779 398 
Q 353 888 353 1747 
Q 353 2609 779 3096 
Q 1206 3584 1959 3584 
z
M 2393 5119 
L 3015 5119 
L 1997 3944 
L 1518 3944 
L 2393 5119 
z
" transform="scale(0.015625)"/>
       <path id="DejaVuSans-51" d="M 3513 2113 
L 3513 0 
L 2938 0 
L 2938 2094 
Q 2938 2591 2744 2837 
Q 2550 3084 2163 3084 
Q 1697 3084 1428 2787 
Q 1159 2491 1159 1978 
L 1159 0 
L 581 0 
L 581 3500 
L 1159 3500 
L 1159 2956 
Q 1366 3272 1645 3428 
Q 1925 3584 2291 3584 
Q 2894 3584 3203 3211 
Q 3513 2838 3513 2113 
z
" transform="scale(0.015625)"/>
       <path id="DejaVuSans-33" d="M 1259 4147 
L 1259 2394 
L 2053 2394 
Q 2494 2394 2734 2622 
Q 2975 2850 2975 3272 
Q 2975 3691 2734 3919 
Q 2494 4147 2053 4147 
L 1259 4147 
z
M 628 4666 
L 2053 4666 
Q 2838 4666 3239 4311 
Q 3641 3956 3641 3272 
Q 3641 2581 3239 2228 
Q 2838 1875 2053 1875 
L 1259 1875 
L 1259 0 
L 628 0 
L 628 4666 
z
" transform="scale(0.015625)"/>
       <path id="DejaVuSans-35" d="M 2841 2188 
Q 3044 2119 3236 1894 
Q 3428 1669 3622 1275 
L 4263 0 
L 3584 0 
L 2988 1197 
Q 2756 1666 2539 1819 
Q 2322 1972 1947 1972 
L 1259 1972 
L 1259 0 
L 628 0 
L 628 4666 
L 2053 4666 
Q 2853 4666 3247 4331 
Q 3641 3997 3641 3322 
Q 3641 2881 3436 2590 
Q 3231 2300 2841 2188 
z
M 1259 4147 
L 1259 2491 
L 2053 2491 
Q 2509 2491 2742 2702 
Q 2975 2913 2975 3322 
Q 2975 3731 2742 3939 
Q 2509 4147 2053 4147 
L 1259 4147 
z
" transform="scale(0.015625)"/>
       <path id="DejaVuSans-31" d="M 628 4666 
L 1478 4666 
L 3547 763 
L 3547 4666 
L 4159 4666 
L 4159 0 
L 3309 0 
L 1241 3903 
L 1241 0 
L 628 0 
L 628 4666 
z
" transform="scale(0.015625)"/>
       <path id="DejaVuSans-99" d="M 4488 3438 
L 3059 2003 
L 4488 575 
L 4116 197 
L 2681 1631 
L 1247 197 
L 878 575 
L 2303 2003 
L 878 3438 
L 1247 3816 
L 2681 2381 
L 4116 3816 
L 4488 3438 
z
" transform="scale(0.015625)"/>
      </defs>
      <use xlink:href="#DejaVuSans-46"/>
      <use xlink:href="#DejaVuSans-52" transform="translate(54.984375 0)"/>
      <use xlink:href="#DejaVuSans-55" transform="translate(116.171875 0)"/>
      <use xlink:href="#DejaVuSans-55" transform="translate(155.53125 0)"/>
      <use xlink:href="#DejaVuSans-48" transform="translate(194.4375 0)"/>
      <use xlink:href="#DejaVuSans-4f" transform="translate(255.96875 0)"/>
      <use xlink:href="#DejaVuSans-44" transform="translate(283.75 0)"/>
      <use xlink:href="#DejaVuSans-46" transform="translate(345.03125 0)"/>
      <use xlink:href="#DejaVuSans-4c" transform="translate(400.015625 0)"/>
      <use xlink:href="#DejaVuSans-b5" transform="translate(427.796875 0)"/>
      <use xlink:href="#DejaVuSans-51" transform="translate(488.984375 0)"/>
      <use xlink:href="#DejaVuSans-3" transform="translate(552.359375 0)"/>
      <use xlink:href="#DejaVuSans-33" transform="translate(584.140625 0)"/>
      <use xlink:href="#DejaVuSans-35" transform="translate(644.4375 0)"/>
      <use xlink:href="#DejaVuSans-31" transform="translate(713.921875 0)"/>
      <use xlink:href="#DejaVuSans-14" transform="translate(788.734375 0)"/>
      <use xlink:href="#DejaVuSans-3" transform="translate(852.359375 0)"/>
      <use xlink:href="#DejaVuSans-99" transform="translate(884.140625 0)"/>
      <use xlink:href="#DejaVuSans-3" transform="translate(967.9375 0)"/>
      <use xlink:href="#DejaVuSans-33" transform="translate(999.71875 0)"/>
      <use xlink:href="#DejaVuSans-35" transform="translate(1060.015625 0)"/>
      <use xlink:href="#DejaVuSans-31" transform="translate(1129.5 0)"/>
      <use xlink:href="#DejaVuSans-15" transform="translate(1204.3125 0)"/>
     </g>
    </g>
   </g>
   <g id="line2d_31">
    <path d="M 71.209472 133.955482 
L 74.631611 133.955482 
L 74.973825 58.649648 
L 75.316038 133.955482 
L 75.658252 58.649648 
L 76.000466 133.955482 
L 76.34268 133.955482 
L 76.684894 209.261315 
L 77.027108 133.955482 
L 78.738177 133.955482 
L 79.080391 209.261315 
L 79.764819 58.649648 
L 80.107033 133.955482 
L 80.449246 58.649648 
L 80.79146 133.955482 
L 81.133674 133.955482 
L 81.475888 58.649648 
L 81.818102 133.955482 
L 82.160316 58.649648 
L 82.50253 58.649648 
L 82.844743 133.955482 
L 83.529171 133.955482 
L 83.871385 58.649648 
L 84.213599 133.955482 
L 86.95131 133.955482 
L 87.293524 58.649648 
L 87.635738 133.955482 
L 88.320165 133.955482 
L 88.662379 209.261315 
L 89.004593 58.649648 
L 89.346807 58.649648 
L 89.689021 209.261315 
L 90.031235 133.955482 
L 93.795587 133.955482 
L 94.137801 209.261315 
L 94.480015 58.649648 
L 94.822229 133.955482 
L 95.506656 133.955482 
L 95.84887 209.261315 
L 96.191084 133.955482 
L 96.533298 133.955482 
L 96.875512 209.261315 
L 97.217726 133.955482 
L 98.586581 133.955482 
L 98.928795 209.261315 
L 99.613223 58.649648 
L 100.29765 209.261315 
L 100.639864 133.955482 
L 100.982078 209.261315 
L 101.324292 133.955482 
L 101.666506 133.955482 
L 102.00872 209.261315 
L 102.350934 133.955482 
L 102.693148 133.955482 
L 103.035361 58.649648 
L 103.377575 209.261315 
L 103.719789 133.955482 
L 104.062003 209.261315 
L 104.404217 133.955482 
L 104.746431 209.261315 
L 105.088645 133.955482 
L 106.4575 133.955482 
L 106.799714 209.261315 
L 107.141928 209.261315 
L 107.826355 58.649648 
L 108.168569 58.649648 
L 108.510783 133.955482 
L 108.852997 58.649648 
L 109.195211 133.955482 
L 110.221853 133.955482 
L 110.564066 209.261315 
L 110.90628 133.955482 
L 112.959563 133.955482 
L 113.301777 58.649648 
L 113.643991 209.261315 
L 113.986205 133.955482 
L 114.328419 133.955482 
L 114.670633 58.649648 
L 115.012847 133.955482 
L 115.35506 58.649648 
L 115.697274 133.955482 
L 116.039488 133.955482 
L 116.381702 58.649648 
L 117.06613 58.649648 
L 117.408344 133.955482 
L 117.750557 58.649648 
L 118.092771 209.261315 
L 118.777199 58.649648 
L 119.119413 209.261315 
L 119.461627 133.955482 
L 121.172696 133.955482 
L 121.51491 209.261315 
L 121.857124 133.955482 
L 122.199338 133.955482 
L 122.541552 58.649648 
L 122.883765 133.955482 
L 125.621476 133.955482 
L 125.96369 209.261315 
L 126.305904 133.955482 
L 126.648118 209.261315 
L 126.990332 58.649648 
L 127.332546 133.955482 
L 128.701401 133.955482 
L 129.043615 209.261315 
L 129.385829 133.955482 
L 129.728043 133.955482 
L 130.070257 58.649648 
L 130.41247 133.955482 
L 132.12354 133.955482 
L 132.465754 58.649648 
L 132.807967 133.955482 
L 133.492395 133.955482 
L 133.834609 209.261315 
L 134.176823 133.955482 
L 135.203464 133.955482 
L 135.545678 209.261315 
L 135.887892 209.261315 
L 136.230106 133.955482 
L 137.598962 133.955482 
L 137.941175 209.261315 
L 138.283389 133.955482 
L 139.652245 133.955482 
L 139.994459 58.649648 
L 140.336672 133.955482 
L 141.705528 133.955482 
L 142.047742 58.649648 
L 142.389956 133.955482 
L 143.416597 133.955482 
L 143.758811 209.261315 
L 144.101025 58.649648 
L 144.443239 133.955482 
L 144.785453 133.955482 
L 145.127667 58.649648 
L 145.46988 209.261315 
L 145.812094 133.955482 
L 146.496522 133.955482 
L 146.838736 209.261315 
L 147.18095 133.955482 
L 147.523164 209.261315 
L 147.865377 133.955482 
L 151.287516 133.955482 
L 151.62973 58.649648 
L 151.971944 58.649648 
L 152.656371 209.261315 
L 152.998585 133.955482 
L 154.709655 133.955482 
L 155.051869 209.261315 
L 155.394082 133.955482 
L 156.420724 133.955482 
L 156.762938 58.649648 
L 157.105152 133.955482 
L 157.447366 58.649648 
L 158.131793 209.261315 
L 158.474007 133.955482 
L 162.23836 133.955482 
L 162.580574 58.649648 
L 162.922787 133.955482 
L 163.949429 133.955482 
L 164.291643 58.649648 
L 164.633857 133.955482 
L 164.976071 58.649648 
L 165.318284 133.955482 
L 166.344926 133.955482 
L 166.68714 209.261315 
L 167.029354 58.649648 
L 167.371568 133.955482 
L 168.398209 133.955482 
L 168.740423 209.261315 
L 169.082637 133.955482 
L 170.109278 133.955482 
L 170.451492 209.261315 
L 170.793706 133.955482 
L 172.846989 133.955482 
L 173.189203 58.649648 
L 173.531417 133.955482 
L 174.558059 133.955482 
L 174.900273 58.649648 
L 175.242486 209.261315 
L 175.5847 209.261315 
L 175.926914 133.955482 
L 176.269128 209.261315 
L 176.611342 133.955482 
L 177.980197 133.955482 
L 178.322411 58.649648 
L 179.006839 209.261315 
L 179.349053 133.955482 
L 180.033481 133.955482 
L 180.375694 209.261315 
L 180.717908 58.649648 
L 181.060122 133.955482 
L 181.74455 133.955482 
L 182.086764 209.261315 
L 182.428978 133.955482 
L 182.771191 133.955482 
L 183.113405 209.261315 
L 183.455619 58.649648 
L 183.797833 133.955482 
L 184.140047 133.955482 
L 184.482261 209.261315 
L 184.824475 133.955482 
L 185.508902 133.955482 
L 185.851116 209.261315 
L 186.19333 133.955482 
L 186.877758 133.955482 
L 187.219972 209.261315 
L 187.562186 133.955482 
L 188.588827 133.955482 
L 188.931041 209.261315 
L 189.273255 133.955482 
L 192.35318 133.955482 
L 192.695393 209.261315 
L 193.037607 133.955482 
L 193.379821 209.261315 
L 193.722035 133.955482 
L 199.539671 133.955482 
L 199.881885 58.649648 
L 200.224098 133.955482 
L 200.566312 133.955482 
L 200.908526 58.649648 
L 201.25074 133.955482 
L 203.988451 133.955482 
L 204.330665 209.261315 
L 205.015093 58.649648 
L 205.69952 209.261315 
L 206.041734 133.955482 
L 206.383948 209.261315 
L 206.726162 58.649648 
L 207.068376 133.955482 
L 207.41059 58.649648 
L 207.752803 58.649648 
L 208.095017 133.955482 
L 208.437231 133.955482 
L 208.779445 209.261315 
L 209.121659 133.955482 
L 212.201584 133.955482 
L 212.543797 58.649648 
L 212.886011 133.955482 
L 213.228225 133.955482 
L 213.570439 209.261315 
L 213.912653 133.955482 
L 214.254867 133.955482 
L 214.597081 209.261315 
L 214.939295 133.955482 
L 215.281508 209.261315 
L 215.623722 133.955482 
L 215.965936 133.955482 
L 216.30815 58.649648 
L 216.650364 133.955482 
L 217.334792 133.955482 
L 217.677005 209.261315 
L 218.019219 133.955482 
L 219.045861 133.955482 
L 219.388075 209.261315 
L 219.730289 133.955482 
L 221.441358 133.955482 
L 221.783572 58.649648 
L 222.125786 133.955482 
L 222.810213 133.955482 
L 223.152427 58.649648 
L 223.494641 133.955482 
L 223.836855 58.649648 
L 224.179069 133.955482 
L 224.521283 133.955482 
L 224.863497 58.649648 
L 225.20571 133.955482 
L 226.574566 133.955482 
L 226.91678 58.649648 
L 227.258994 133.955482 
L 227.943421 133.955482 
L 228.285635 58.649648 
L 228.627849 133.955482 
L 228.970063 133.955482 
L 229.312277 58.649648 
L 229.654491 133.955482 
L 230.338918 133.955482 
L 230.681132 209.261315 
L 231.023346 133.955482 
L 231.36556 209.261315 
L 232.049988 58.649648 
L 232.392202 133.955482 
L 232.734415 133.955482 
L 233.076629 209.261315 
L 233.418843 58.649648 
L 234.445485 58.649648 
L 234.787699 133.955482 
L 236.156554 133.955482 
L 236.498768 209.261315 
L 236.840982 209.261315 
L 237.183196 133.955482 
L 237.867623 133.955482 
L 238.209837 209.261315 
L 238.552051 133.955482 
L 240.947548 133.955482 
L 241.289762 209.261315 
L 241.631976 133.955482 
L 243.000831 133.955482 
L 243.343045 209.261315 
L 243.685259 133.955482 
L 246.765184 133.955482 
L 247.107398 209.261315 
L 247.449611 133.955482 
L 249.160681 133.955482 
L 249.502895 58.649648 
L 249.845109 133.955482 
L 250.87175 133.955482 
L 251.213964 58.649648 
L 251.898392 209.261315 
L 252.240606 133.955482 
L 252.582819 209.261315 
L 253.267247 58.649648 
L 253.609461 133.955482 
L 255.32053 133.955482 
L 255.662744 209.261315 
L 256.004958 133.955482 
L 256.689386 133.955482 
L 257.0316 58.649648 
L 257.373814 133.955482 
L 260.453738 133.955482 
L 260.795952 209.261315 
L 261.138166 209.261315 
L 261.48038 133.955482 
L 261.822594 133.955482 
L 262.164808 58.649648 
L 262.507021 133.955482 
L 262.849235 133.955482 
L 263.191449 209.261315 
L 263.533663 133.955482 
L 263.875877 133.955482 
L 264.218091 209.261315 
L 264.560305 133.955482 
L 265.586946 133.955482 
L 265.92916 209.261315 
L 266.613588 58.649648 
L 266.955802 133.955482 
L 267.298016 58.649648 
L 267.640229 209.261315 
L 267.982443 133.955482 
L 271.404582 133.955482 
L 271.746796 58.649648 
L 272.08901 133.955482 
L 274.142293 133.955482 
L 274.484507 58.649648 
L 274.826721 133.955482 
L 276.195576 133.955482 
L 276.53779 209.261315 
L 276.880004 58.649648 
L 277.222218 133.955482 
L 279.617715 133.955482 
L 279.959928 209.261315 
L 280.302142 133.955482 
L 281.328784 133.955482 
L 281.670998 58.649648 
L 282.013212 133.955482 
L 282.355426 133.955482 
L 282.697639 58.649648 
L 283.039853 133.955482 
L 283.382067 58.649648 
L 283.724281 133.955482 
L 284.066495 58.649648 
L 284.408709 133.955482 
L 284.750923 133.955482 
L 285.093136 209.261315 
L 285.43535 58.649648 
L 285.777564 133.955482 
L 286.119778 133.955482 
L 286.461992 58.649648 
L 286.804206 133.955482 
L 287.488633 133.955482 
L 287.830847 209.261315 
L 288.173061 133.955482 
L 288.515275 209.261315 
L 288.857489 133.955482 
L 289.541917 133.955482 
L 289.88413 58.649648 
L 290.226344 133.955482 
L 290.568558 133.955482 
L 290.910772 58.649648 
L 291.252986 133.955482 
L 291.5952 133.955482 
L 291.937414 58.649648 
L 292.279628 133.955482 
L 292.964055 133.955482 
L 293.306269 209.261315 
L 293.648483 133.955482 
L 296.04398 133.955482 
L 296.386194 209.261315 
L 296.728408 133.955482 
L 297.070622 133.955482 
L 297.412835 209.261315 
L 297.755049 133.955482 
L 298.439477 133.955482 
L 298.781691 58.649648 
L 299.123905 133.955482 
L 299.808333 133.955482 
L 300.150546 209.261315 
L 300.49276 133.955482 
L 302.546043 133.955482 
L 302.888257 209.261315 
L 303.572685 58.649648 
L 303.914899 133.955482 
L 304.257113 58.649648 
L 304.599327 133.955482 
L 305.625968 133.955482 
L 305.968182 209.261315 
L 306.310396 58.649648 
L 306.65261 133.955482 
L 306.994824 58.649648 
L 307.337037 133.955482 
L 308.363679 133.955482 
L 308.705893 209.261315 
L 309.048107 209.261315 
L 309.390321 133.955482 
L 309.732535 209.261315 
L 310.074748 133.955482 
L 311.10139 133.955482 
L 311.443604 209.261315 
L 311.785818 133.955482 
L 314.181315 133.955482 
L 314.523529 209.261315 
L 314.865742 133.955482 
L 315.55017 133.955482 
L 315.892384 58.649648 
L 316.234598 58.649648 
L 316.576812 133.955482 
L 317.26124 133.955482 
L 317.603453 58.649648 
L 317.945667 133.955482 
L 318.287881 133.955482 
L 318.630095 209.261315 
L 318.972309 58.649648 
L 319.314523 133.955482 
L 322.736661 133.955482 
L 323.078875 58.649648 
L 323.421089 133.955482 
L 325.132158 133.955482 
L 325.474372 58.649648 
L 325.816586 133.955482 
L 326.1588 133.955482 
L 326.501014 58.649648 
L 326.843228 133.955482 
L 328.212083 133.955482 
L 328.554297 58.649648 
L 328.896511 133.955482 
L 329.238725 133.955482 
L 329.580939 58.649648 
L 329.923152 209.261315 
L 330.265366 209.261315 
L 330.60758 133.955482 
L 330.949794 133.955482 
L 331.292008 58.649648 
L 331.634222 133.955482 
L 331.976436 58.649648 
L 332.318649 133.955482 
L 333.345291 133.955482 
L 333.687505 58.649648 
L 334.029719 133.955482 
L 334.371933 58.649648 
L 334.714147 133.955482 
L 335.05636 133.955482 
L 335.398574 209.261315 
L 335.740788 133.955482 
L 336.083002 209.261315 
L 336.425216 133.955482 
L 336.76743 133.955482 
L 337.109644 58.649648 
L 337.451857 58.649648 
L 337.794071 133.955482 
L 339.847354 133.955482 
L 340.189568 58.649648 
L 340.531782 133.955482 
L 340.873996 58.649648 
L 341.21621 133.955482 
L 341.900638 133.955482 
L 342.242852 58.649648 
L 342.585065 133.955482 
L 344.296135 133.955482 
L 344.638349 209.261315 
L 344.980562 209.261315 
L 345.322776 133.955482 
L 347.033846 133.955482 
L 347.376059 209.261315 
L 347.718273 133.955482 
L 348.060487 133.955482 
L 348.402701 58.649648 
L 348.744915 133.955482 
L 350.11377 133.955482 
L 350.455984 58.649648 
L 350.798198 133.955482 
L 351.140412 133.955482 
L 351.482626 209.261315 
L 351.82484 133.955482 
L 352.851481 133.955482 
L 353.193695 209.261315 
L 353.535909 133.955482 
L 356.958048 133.955482 
L 357.300261 209.261315 
L 357.642475 133.955482 
L 359.011331 133.955482 
L 359.353545 58.649648 
L 359.695759 133.955482 
L 360.037972 133.955482 
L 360.380186 58.649648 
L 360.7224 133.955482 
L 362.433469 133.955482 
L 362.775683 209.261315 
L 363.117897 133.955482 
L 364.144539 133.955482 
L 364.486753 58.649648 
L 364.828966 133.955482 
L 365.513394 133.955482 
L 365.855608 58.649648 
L 366.197822 133.955482 
L 369.277747 133.955482 
L 369.619961 58.649648 
L 369.962174 133.955482 
L 370.304388 133.955482 
L 370.646602 209.261315 
L 370.988816 58.649648 
L 371.33103 133.955482 
L 373.384313 133.955482 
L 373.726527 58.649648 
L 374.068741 58.649648 
L 374.410955 133.955482 
L 374.753168 58.649648 
L 375.095382 58.649648 
L 375.437596 133.955482 
L 376.464238 133.955482 
L 376.806452 58.649648 
L 377.148666 58.649648 
L 377.490879 209.261315 
L 377.833093 58.649648 
L 378.175307 209.261315 
L 378.517521 209.261315 
L 378.859735 133.955482 
L 379.201949 133.955482 
L 379.544163 58.649648 
L 379.886376 133.955482 
L 381.255232 133.955482 
L 381.597446 58.649648 
L 381.93966 133.955482 
L 383.308515 133.955482 
L 383.650729 58.649648 
L 383.992943 133.955482 
L 386.38844 133.955482 
L 386.730654 58.649648 
L 387.072868 209.261315 
L 387.415081 133.955482 
L 389.810578 133.955482 
L 390.152792 209.261315 
L 390.495006 58.649648 
L 390.83722 209.261315 
L 391.179434 133.955482 
L 391.521648 133.955482 
L 391.863862 209.261315 
L 392.206075 133.955482 
L 392.548289 133.955482 
L 392.890503 209.261315 
L 393.232717 133.955482 
L 393.917145 133.955482 
L 394.259359 209.261315 
L 394.601573 209.261315 
L 394.943786 133.955482 
L 396.312642 133.955482 
L 396.654856 209.261315 
L 396.99707 209.261315 
L 397.339283 133.955482 
L 397.681497 209.261315 
L 398.023711 58.649648 
L 398.365925 58.649648 
L 398.708139 133.955482 
L 399.050353 58.649648 
L 399.392567 133.955482 
L 399.73478 133.955482 
L 400.076994 209.261315 
L 400.419208 133.955482 
L 400.761422 209.261315 
L 401.103636 133.955482 
L 402.130278 133.955482 
L 402.472491 209.261315 
L 402.814705 133.955482 
L 404.525775 133.955482 
L 404.867988 58.649648 
L 405.552416 209.261315 
L 405.89463 133.955482 
L 406.236844 133.955482 
L 406.579058 58.649648 
L 406.921272 133.955482 
L 407.263485 58.649648 
L 407.947913 58.649648 
L 408.290127 133.955482 
L 410.001196 133.955482 
L 410.34341 58.649648 
L 410.685624 133.955482 
L 411.370052 133.955482 
L 411.712266 58.649648 
L 412.05448 133.955482 
L 412.396693 58.649648 
L 412.738907 133.955482 
L 413.423335 133.955482 
L 413.765549 209.261315 
L 414.107763 133.955482 
L 415.134404 133.955482 
L 415.476618 58.649648 
L 415.818832 133.955482 
L 416.161046 58.649648 
L 416.50326 58.649648 
L 416.845474 133.955482 
L 417.187687 58.649648 
L 417.872115 209.261315 
L 418.214329 133.955482 
L 418.556543 209.261315 
L 418.898757 133.955482 
L 419.240971 133.955482 
L 419.583185 209.261315 
L 419.925398 133.955482 
L 420.267612 133.955482 
L 420.609826 58.649648 
L 420.95204 133.955482 
L 420.95204 133.955482 
" clip-path="url(#p105a5e7109)" style="fill: none; stroke: #ff7f0e; stroke-width: 0.7; stroke-linecap: square"/>
   </g>
   <g id="patch_3">
    <path d="M 53.722344 238.677656 
L 53.722344 26.88 
" style="fill: none; stroke: #000000; stroke-width: 0.8; stroke-linejoin: miter; stroke-linecap: square"/>
   </g>
   <g id="patch_4">
    <path d="M 438.439168 238.677656 
L 438.439168 26.88 
" style="fill: none; stroke: #000000; stroke-width: 0.8; stroke-linejoin: miter; stroke-linecap: square"/>
   </g>
   <g id="patch_5">
    <path d="M 53.722344 238.677656 
L 438.439168 238.677656 
" style="fill: none; stroke: #000000; stroke-width: 0.8; stroke-linejoin: miter; stroke-linecap: square"/>
   </g>
   <g id="patch_6">
    <path d="M 53.722344 26.88 
L 438.439168 26.88 
" style="fill: none; stroke: #000000; stroke-width: 0.8; stroke-linejoin: miter; stroke-linecap: square"/>
   </g>
   <g id="text_18">
    <!-- otro satélite parece ruido: nunca supera |65| -->
    <g transform="translate(111.812006 20.88) scale(0.12 -0.12)">
     <defs>
      <path id="DejaVuSans-57" d="M 1172 4494 
L 1172 3500 
L 2356 3500 
L 2356 3053 
L 1172 3053 
L 1172 1153 
Q 1172 725 1289 603 
Q 1406 481 1766 481 
L 2356 481 
L 2356 0 
L 1766 0 
Q 1100 0 847 248 
Q 594 497 594 1153 
L 594 3053 
L 172 3053 
L 172 3500 
L 594 3500 
L 594 4494 
L 1172 4494 
z
" transform="scale(0.015625)"/>
      <path id="DejaVuSans-ab" d="M 3597 1894 
L 3597 1613 
L 953 1613 
Q 991 1019 1311 708 
Q 1631 397 2203 397 
Q 2534 397 2845 478 
Q 3156 559 3463 722 
L 3463 178 
Q 3153 47 2828 -22 
Q 2503 -91 2169 -91 
Q 1331 -91 842 396 
Q 353 884 353 1716 
Q 353 2575 817 3079 
Q 1281 3584 2069 3584 
Q 2775 3584 3186 3129 
Q 3597 2675 3597 1894 
z
M 3022 2063 
Q 3016 2534 2758 2815 
Q 2500 3097 2075 3097 
Q 1594 3097 1305 2825 
Q 1016 2553 972 2059 
L 3022 2063 
z
M 2468 5119 
L 3090 5119 
L 2072 3944 
L 1593 3944 
L 2468 5119 
z
" transform="scale(0.015625)"/>
      <path id="DejaVuSans-58" d="M 544 1381 
L 544 3500 
L 1119 3500 
L 1119 1403 
Q 1119 906 1312 657 
Q 1506 409 1894 409 
Q 2359 409 2629 706 
Q 2900 1003 2900 1516 
L 2900 3500 
L 3475 3500 
L 3475 0 
L 2900 0 
L 2900 538 
Q 2691 219 2414 64 
Q 2138 -91 1772 -91 
Q 1169 -91 856 284 
Q 544 659 544 1381 
z
M 1991 3584 
L 1991 3584 
z
" transform="scale(0.015625)"/>
      <path id="DejaVuSans-1d" d="M 750 794 
L 1409 794 
L 1409 0 
L 750 0 
L 750 794 
z
M 750 3309 
L 1409 3309 
L 1409 2516 
L 750 2516 
L 750 3309 
z
" transform="scale(0.015625)"/>
      <path id="DejaVuSans-5f" d="M 1344 4891 
L 1344 -1509 
L 813 -1509 
L 813 4891 
L 1344 4891 
z
" transform="scale(0.015625)"/>
      <path id="DejaVuSans-18" d="M 691 4666 
L 3169 4666 
L 3169 4134 
L 1269 4134 
L 1269 2991 
Q 1406 3038 1543 3061 
Q 1681 3084 1819 3084 
Q 2600 3084 3056 2656 
Q 3513 2228 3513 1497 
Q 3513 744 3044 326 
Q 2575 -91 1722 -91 
Q 1428 -91 1123 -41 
Q 819 9 494 109 
L 494 744 
Q 775 591 1075 516 
Q 1375 441 1709 441 
Q 2250 441 2565 725 
Q 2881 1009 2881 1497 
Q 2881 1984 2565 2268 
Q 2250 2553 1709 2553 
Q 1456 2553 1204 2497 
Q 953 2441 691 2322 
L 691 4666 
z
" transform="scale(0.015625)"/>
     </defs>
     <use xlink:href="#DejaVuSans-52"/>
     <use xlink:href="#DejaVuSans-57" transform="translate(61.1875 0)"/>
     <use xlink:href="#DejaVuSans-55" transform="translate(100.390625 0)"/>
     <use xlink:href="#DejaVuSans-52" transform="translate(139.296875 0)"/>
     <use xlink:href="#DejaVuSans-3" transform="translate(200.484375 0)"/>
     <use xlink:href="#DejaVuSans-56" transform="translate(232.265625 0)"/>
     <use xlink:href="#DejaVuSans-44" transform="translate(284.359375 0)"/>
     <use xlink:href="#DejaVuSans-57" transform="translate(345.640625 0)"/>
     <use xlink:href="#DejaVuSans-ab" transform="translate(384.84375 0)"/>
     <use xlink:href="#DejaVuSans-4f" transform="translate(446.375 0)"/>
     <use xlink:href="#DejaVuSans-4c" transform="translate(474.15625 0)"/>
     <use xlink:href="#DejaVuSans-57" transform="translate(501.9375 0)"/>
     <use xlink:href="#DejaVuSans-48" transform="translate(541.140625 0)"/>
     <use xlink:href="#DejaVuSans-3" transform="translate(602.671875 0)"/>
     <use xlink:href="#DejaVuSans-53" transform="translate(634.453125 0)"/>
     <use xlink:href="#DejaVuSans-44" transform="translate(697.9375 0)"/>
     <use xlink:href="#DejaVuSans-55" transform="translate(759.21875 0)"/>
     <use xlink:href="#DejaVuSans-48" transform="translate(798.125 0)"/>
     <use xlink:href="#DejaVuSans-46" transform="translate(859.65625 0)"/>
     <use xlink:href="#DejaVuSans-48" transform="translate(914.640625 0)"/>
     <use xlink:href="#DejaVuSans-3" transform="translate(976.171875 0)"/>
     <use xlink:href="#DejaVuSans-55" transform="translate(1007.953125 0)"/>
     <use xlink:href="#DejaVuSans-58" transform="translate(1049.0625 0)"/>
     <use xlink:href="#DejaVuSans-4c" transform="translate(1112.4375 0)"/>
     <use xlink:href="#DejaVuSans-47" transform="translate(1140.21875 0)"/>
     <use xlink:href="#DejaVuSans-52" transform="translate(1203.703125 0)"/>
     <use xlink:href="#DejaVuSans-1d" transform="translate(1264.890625 0)"/>
     <use xlink:href="#DejaVuSans-3" transform="translate(1298.578125 0)"/>
     <use xlink:href="#DejaVuSans-51" transform="translate(1330.359375 0)"/>
     <use xlink:href="#DejaVuSans-58" transform="translate(1393.734375 0)"/>
     <use xlink:href="#DejaVuSans-51" transform="translate(1457.109375 0)"/>
     <use xlink:href="#DejaVuSans-46" transform="translate(1520.484375 0)"/>
     <use xlink:href="#DejaVuSans-44" transform="translate(1575.46875 0)"/>
     <use xlink:href="#DejaVuSans-3" transform="translate(1636.75 0)"/>
     <use xlink:href="#DejaVuSans-56" transform="translate(1668.53125 0)"/>
     <use xlink:href="#DejaVuSans-58" transform="translate(1720.625 0)"/>
     <use xlink:href="#DejaVuSans-53" transform="translate(1784 0)"/>
     <use xlink:href="#DejaVuSans-48" transform="translate(1847.484375 0)"/>
     <use xlink:href="#DejaVuSans-55" transform="translate(1909.015625 0)"/>
     <use xlink:href="#DejaVuSans-44" transform="translate(1950.125 0)"/>
     <use xlink:href="#DejaVuSans-3" transform="translate(2011.40625 0)"/>
     <use xlink:href="#DejaVuSans-5f" transform="translate(2043.1875 0)"/>
     <use xlink:href="#DejaVuSans-19" transform="translate(2076.875 0)"/>
     <use xlink:href="#DejaVuSans-18" transform="translate(2140.5 0)"/>
     <use xlink:href="#DejaVuSans-5f" transform="translate(2204.125 0)"/>
    </g>
   </g>
  </g>
  <g id="axes_2">
   <g id="patch_7">
    <path d="M 490.001512 238.677656 
L 673.2 238.677656 
L 673.2 26.88 
L 490.001512 26.88 
z
" style="fill: #ffffff"/>
   </g>
   <g id="patch_8">
    <path d="M 498.328716 238.677656 
L 545.912739 238.677656 
L 545.912739 204.297972 
L 498.328716 204.297972 
z
" clip-path="url(#pfa8a45d2a5)" style="fill: #ff7f0e"/>
   </g>
   <g id="patch_9">
    <path d="M 557.808745 238.677656 
L 605.392767 238.677656 
L 605.392767 36.965603 
L 557.808745 36.965603 
z
" clip-path="url(#pfa8a45d2a5)" style="fill: #ff7f0e"/>
   </g>
   <g id="patch_10">
    <path d="M 617.288773 238.677656 
L 664.872796 238.677656 
L 664.872796 200.000511 
L 617.288773 200.000511 
z
" clip-path="url(#pfa8a45d2a5)" style="fill: #ff7f0e"/>
   </g>
   <g id="matplotlib.axis_3">
    <g id="xtick_7">
     <g id="line2d_32">
      <g>
       <use xlink:href="#mb577e42ab4" x="522.120728" y="238.677656" style="stroke: #000000; stroke-width: 0.8"/>
      </g>
     </g>
     <g id="text_19">
      <!-- -65 -->
      <g transform="translate(513.954321 253.275313) scale(0.1 -0.1)">
       <defs>
        <path id="DejaVuSans-10" d="M 313 2009 
L 1997 2009 
L 1997 1497 
L 313 1497 
L 313 2009 
z
" transform="scale(0.015625)"/>
       </defs>
       <use xlink:href="#DejaVuSans-10"/>
       <use xlink:href="#DejaVuSans-19" transform="translate(36.078125 0)"/>
       <use xlink:href="#DejaVuSans-18" transform="translate(99.703125 0)"/>
      </g>
     </g>
    </g>
    <g id="xtick_8">
     <g id="line2d_33">
      <g>
       <use xlink:href="#mb577e42ab4" x="581.600756" y="238.677656" style="stroke: #000000; stroke-width: 0.8"/>
      </g>
     </g>
     <g id="text_20">
      <!-- -1 -->
      <g transform="translate(576.6156 253.275313) scale(0.1 -0.1)">
       <use xlink:href="#DejaVuSans-10"/>
       <use xlink:href="#DejaVuSans-14" transform="translate(36.078125 0)"/>
      </g>
     </g>
    </g>
    <g id="xtick_9">
     <g id="line2d_34">
      <g>
       <use xlink:href="#mb577e42ab4" x="641.080785" y="238.677656" style="stroke: #000000; stroke-width: 0.8"/>
      </g>
     </g>
     <g id="text_21">
      <!-- 63 -->
      <g transform="translate(634.718285 253.275313) scale(0.1 -0.1)">
       <defs>
        <path id="DejaVuSans-16" d="M 2597 2516 
Q 3050 2419 3304 2112 
Q 3559 1806 3559 1356 
Q 3559 666 3084 287 
Q 2609 -91 1734 -91 
Q 1441 -91 1130 -33 
Q 819 25 488 141 
L 488 750 
Q 750 597 1062 519 
Q 1375 441 1716 441 
Q 2309 441 2620 675 
Q 2931 909 2931 1356 
Q 2931 1769 2642 2001 
Q 2353 2234 1838 2234 
L 1294 2234 
L 1294 2753 
L 1863 2753 
Q 2328 2753 2575 2939 
Q 2822 3125 2822 3475 
Q 2822 3834 2567 4026 
Q 2313 4219 1838 4219 
Q 1578 4219 1281 4162 
Q 984 4106 628 3988 
L 628 4550 
Q 988 4650 1302 4700 
Q 1616 4750 1894 4750 
Q 2613 4750 3031 4423 
Q 3450 4097 3450 3541 
Q 3450 3153 3228 2886 
Q 3006 2619 2597 2516 
z
" transform="scale(0.015625)"/>
       </defs>
       <use xlink:href="#DejaVuSans-19"/>
       <use xlink:href="#DejaVuSans-16" transform="translate(63.625 0)"/>
      </g>
     </g>
    </g>
    <g id="text_22">
     <!-- valor -->
     <g transform="translate(569.073412 267.276094) scale(0.1 -0.1)">
      <defs>
       <path id="DejaVuSans-59" d="M 191 3500 
L 800 3500 
L 1894 563 
L 2988 3500 
L 3597 3500 
L 2284 0 
L 1503 0 
L 191 3500 
z
" transform="scale(0.015625)"/>
      </defs>
      <use xlink:href="#DejaVuSans-59"/>
      <use xlink:href="#DejaVuSans-44" transform="translate(59.1875 0)"/>
      <use xlink:href="#DejaVuSans-4f" transform="translate(120.46875 0)"/>
      <use xlink:href="#DejaVuSans-52" transform="translate(148.25 0)"/>
      <use xlink:href="#DejaVuSans-55" transform="translate(209.4375 0)"/>
     </g>
    </g>
   </g>
   <g id="matplotlib.axis_4">
    <g id="ytick_10">
     <g id="line2d_35">
      <g>
       <use xlink:href="#m56228adfaa" x="490.001512" y="238.677656" style="stroke: #000000; stroke-width: 0.8"/>
      </g>
     </g>
     <g id="text_23">
      <!-- 0 -->
      <g transform="translate(476.639012 242.476484) scale(0.1 -0.1)">
       <use xlink:href="#DejaVuSans-13"/>
      </g>
     </g>
    </g>
    <g id="ytick_11">
     <g id="line2d_36">
      <g>
       <use xlink:href="#m56228adfaa" x="490.001512" y="211.818528" style="stroke: #000000; stroke-width: 0.8"/>
      </g>
     </g>
     <g id="text_24">
      <!-- 100 -->
      <g transform="translate(463.914012 215.617356) scale(0.1 -0.1)">
       <use xlink:href="#DejaVuSans-14"/>
       <use xlink:href="#DejaVuSans-13" transform="translate(63.625 0)"/>
       <use xlink:href="#DejaVuSans-13" transform="translate(127.25 0)"/>
      </g>
     </g>
    </g>
    <g id="ytick_12">
     <g id="line2d_37">
      <g>
       <use xlink:href="#m56228adfaa" x="490.001512" y="184.9594" style="stroke: #000000; stroke-width: 0.8"/>
      </g>
     </g>
     <g id="text_25">
      <!-- 200 -->
      <g transform="translate(463.914012 188.758228) scale(0.1 -0.1)">
       <use xlink:href="#DejaVuSans-15"/>
       <use xlink:href="#DejaVuSans-13" transform="translate(63.625 0)"/>
       <use xlink:href="#DejaVuSans-13" transform="translate(127.25 0)"/>
      </g>
     </g>
    </g>
    <g id="ytick_13">
     <g id="line2d_38">
      <g>
       <use xlink:href="#m56228adfaa" x="490.001512" y="158.100271" style="stroke: #000000; stroke-width: 0.8"/>
      </g>
     </g>
     <g id="text_26">
      <!-- 300 -->
      <g transform="translate(463.914012 161.899099) scale(0.1 -0.1)">
       <use xlink:href="#DejaVuSans-16"/>
       <use xlink:href="#DejaVuSans-13" transform="translate(63.625 0)"/>
       <use xlink:href="#DejaVuSans-13" transform="translate(127.25 0)"/>
      </g>
     </g>
    </g>
    <g id="ytick_14">
     <g id="line2d_39">
      <g>
       <use xlink:href="#m56228adfaa" x="490.001512" y="131.241143" style="stroke: #000000; stroke-width: 0.8"/>
      </g>
     </g>
     <g id="text_27">
      <!-- 400 -->
      <g transform="translate(463.914012 135.039971) scale(0.1 -0.1)">
       <use xlink:href="#DejaVuSans-17"/>
       <use xlink:href="#DejaVuSans-13" transform="translate(63.625 0)"/>
       <use xlink:href="#DejaVuSans-13" transform="translate(127.25 0)"/>
      </g>
     </g>
    </g>
    <g id="ytick_15">
     <g id="line2d_40">
      <g>
       <use xlink:href="#m56228adfaa" x="490.001512" y="104.382015" style="stroke: #000000; stroke-width: 0.8"/>
      </g>
     </g>
     <g id="text_28">
      <!-- 500 -->
      <g transform="translate(463.914012 108.180843) scale(0.1 -0.1)">
       <use xlink:href="#DejaVuSans-18"/>
       <use xlink:href="#DejaVuSans-13" transform="translate(63.625 0)"/>
       <use xlink:href="#DejaVuSans-13" transform="translate(127.25 0)"/>
      </g>
     </g>
    </g>
    <g id="ytick_16">
     <g id="line2d_41">
      <g>
       <use xlink:href="#m56228adfaa" x="490.001512" y="77.522886" style="stroke: #000000; stroke-width: 0.8"/>
      </g>
     </g>
     <g id="text_29">
      <!-- 600 -->
      <g transform="translate(463.914012 81.321715) scale(0.1 -0.1)">
       <use xlink:href="#DejaVuSans-19"/>
       <use xlink:href="#DejaVuSans-13" transform="translate(63.625 0)"/>
       <use xlink:href="#DejaVuSans-13" transform="translate(127.25 0)"/>
      </g>
     </g>
    </g>
    <g id="ytick_17">
     <g id="line2d_42">
      <g>
       <use xlink:href="#m56228adfaa" x="490.001512" y="50.663758" style="stroke: #000000; stroke-width: 0.8"/>
      </g>
     </g>
     <g id="text_30">
      <!-- 700 -->
      <g transform="translate(463.914012 54.462586) scale(0.1 -0.1)">
       <defs>
        <path id="DejaVuSans-1a" d="M 525 4666 
L 3525 4666 
L 3525 4397 
L 1831 0 
L 1172 0 
L 2766 4134 
L 525 4134 
L 525 4666 
z
" transform="scale(0.015625)"/>
       </defs>
       <use xlink:href="#DejaVuSans-1a"/>
       <use xlink:href="#DejaVuSans-13" transform="translate(63.625 0)"/>
       <use xlink:href="#DejaVuSans-13" transform="translate(127.25 0)"/>
      </g>
     </g>
    </g>
    <g id="text_31">
     <!-- cantidad de desfases -->
     <g transform="translate(457.511668 185.917109) rotate(-90) scale(0.1 -0.1)">
      <use xlink:href="#DejaVuSans-46"/>
      <use xlink:href="#DejaVuSans-44" transform="translate(54.984375 0)"/>
      <use xlink:href="#DejaVuSans-51" transform="translate(116.265625 0)"/>
      <use xlink:href="#DejaVuSans-57" transform="translate(179.640625 0)"/>
      <use xlink:href="#DejaVuSans-4c" transform="translate(218.84375 0)"/>
      <use xlink:href="#DejaVuSans-47" transform="translate(246.625 0)"/>
      <use xlink:href="#DejaVuSans-44" transform="translate(310.109375 0)"/>
      <use xlink:href="#DejaVuSans-47" transform="translate(371.390625 0)"/>
      <use xlink:href="#DejaVuSans-3" transform="translate(434.875 0)"/>
      <use xlink:href="#DejaVuSans-47" transform="translate(466.65625 0)"/>
      <use xlink:href="#DejaVuSans-48" transform="translate(530.140625 0)"/>
      <use xlink:href="#DejaVuSans-3" transform="translate(591.671875 0)"/>
      <use xlink:href="#DejaVuSans-47" transform="translate(623.453125 0)"/>
      <use xlink:href="#DejaVuSans-48" transform="translate(686.9375 0)"/>
      <use xlink:href="#DejaVuSans-56" transform="translate(748.46875 0)"/>
      <use xlink:href="#DejaVuSans-49" transform="translate(800.5625 0)"/>
      <use xlink:href="#DejaVuSans-44" transform="translate(835.765625 0)"/>
      <use xlink:href="#DejaVuSans-56" transform="translate(897.046875 0)"/>
      <use xlink:href="#DejaVuSans-48" transform="translate(949.140625 0)"/>
      <use xlink:href="#DejaVuSans-56" transform="translate(1010.671875 0)"/>
     </g>
    </g>
   </g>
   <g id="patch_11">
    <path d="M 490.001512 238.677656 
L 490.001512 26.88 
" style="fill: none; stroke: #000000; stroke-width: 0.8; stroke-linejoin: miter; stroke-linecap: square"/>
   </g>
   <g id="patch_12">
    <path d="M 673.2 238.677656 
L 673.2 26.88 
" style="fill: none; stroke: #000000; stroke-width: 0.8; stroke-linejoin: miter; stroke-linecap: square"/>
   </g>
   <g id="patch_13">
    <path d="M 490.001512 238.677656 
L 673.2 238.677656 
" style="fill: none; stroke: #000000; stroke-width: 0.8; stroke-linejoin: miter; stroke-linecap: square"/>
   </g>
   <g id="patch_14">
    <path d="M 490.001512 26.88 
L 673.2 26.88 
" style="fill: none; stroke: #000000; stroke-width: 0.8; stroke-linejoin: miter; stroke-linecap: square"/>
   </g>
   <g id="text_32">
    <!-- 128 -->
    <g transform="translate(513.531353 202.135863) scale(0.09 -0.09)">
     <use xlink:href="#DejaVuSans-14"/>
     <use xlink:href="#DejaVuSans-15" transform="translate(63.625 0)"/>
     <use xlink:href="#DejaVuSans-1b" transform="translate(127.25 0)"/>
    </g>
   </g>
   <g id="text_33">
    <!-- 751 -->
    <g transform="translate(573.011381 34.803493) scale(0.09 -0.09)">
     <use xlink:href="#DejaVuSans-1a"/>
     <use xlink:href="#DejaVuSans-18" transform="translate(63.625 0)"/>
     <use xlink:href="#DejaVuSans-14" transform="translate(127.25 0)"/>
    </g>
   </g>
   <g id="text_34">
    <!-- 144 -->
    <g transform="translate(632.49141 197.838402) scale(0.09 -0.09)">
     <use xlink:href="#DejaVuSans-14"/>
     <use xlink:href="#DejaVuSans-17" transform="translate(63.625 0)"/>
     <use xlink:href="#DejaVuSans-17" transform="translate(127.25 0)"/>
    </g>
   </g>
   <g id="text_35">
    <!-- familia Gold: tres valores -->
    <g transform="translate(506.529506 20.88) scale(0.12 -0.12)">
     <defs>
      <path id="DejaVuSans-50" d="M 3328 2828 
Q 3544 3216 3844 3400 
Q 4144 3584 4550 3584 
Q 5097 3584 5394 3201 
Q 5691 2819 5691 2113 
L 5691 0 
L 5113 0 
L 5113 2094 
Q 5113 2597 4934 2840 
Q 4756 3084 4391 3084 
Q 3944 3084 3684 2787 
Q 3425 2491 3425 1978 
L 3425 0 
L 2847 0 
L 2847 2094 
Q 2847 2600 2669 2842 
Q 2491 3084 2119 3084 
Q 1678 3084 1418 2786 
Q 1159 2488 1159 1978 
L 1159 0 
L 581 0 
L 581 3500 
L 1159 3500 
L 1159 2956 
Q 1356 3278 1631 3431 
Q 1906 3584 2284 3584 
Q 2666 3584 2933 3390 
Q 3200 3197 3328 2828 
z
" transform="scale(0.015625)"/>
      <path id="DejaVuSans-2a" d="M 3809 666 
L 3809 1919 
L 2778 1919 
L 2778 2438 
L 4434 2438 
L 4434 434 
Q 4069 175 3628 42 
Q 3188 -91 2688 -91 
Q 1594 -91 976 548 
Q 359 1188 359 2328 
Q 359 3472 976 4111 
Q 1594 4750 2688 4750 
Q 3144 4750 3555 4637 
Q 3966 4525 4313 4306 
L 4313 3634 
Q 3963 3931 3569 4081 
Q 3175 4231 2741 4231 
Q 1884 4231 1454 3753 
Q 1025 3275 1025 2328 
Q 1025 1384 1454 906 
Q 1884 428 2741 428 
Q 3075 428 3337 486 
Q 3600 544 3809 666 
z
" transform="scale(0.015625)"/>
     </defs>
     <use xlink:href="#DejaVuSans-49"/>
     <use xlink:href="#DejaVuSans-44" transform="translate(35.203125 0)"/>
     <use xlink:href="#DejaVuSans-50" transform="translate(96.484375 0)"/>
     <use xlink:href="#DejaVuSans-4c" transform="translate(193.890625 0)"/>
     <use xlink:href="#DejaVuSans-4f" transform="translate(221.671875 0)"/>
     <use xlink:href="#DejaVuSans-4c" transform="translate(249.453125 0)"/>
     <use xlink:href="#DejaVuSans-44" transform="translate(277.234375 0)"/>
     <use xlink:href="#DejaVuSans-3" transform="translate(338.515625 0)"/>
     <use xlink:href="#DejaVuSans-2a" transform="translate(370.296875 0)"/>
     <use xlink:href="#DejaVuSans-52" transform="translate(447.78125 0)"/>
     <use xlink:href="#DejaVuSans-4f" transform="translate(508.96875 0)"/>
     <use xlink:href="#DejaVuSans-47" transform="translate(536.75 0)"/>
     <use xlink:href="#DejaVuSans-1d" transform="translate(600.234375 0)"/>
     <use xlink:href="#DejaVuSans-3" transform="translate(633.921875 0)"/>
     <use xlink:href="#DejaVuSans-57" transform="translate(665.703125 0)"/>
     <use xlink:href="#DejaVuSans-55" transform="translate(704.90625 0)"/>
     <use xlink:href="#DejaVuSans-48" transform="translate(743.8125 0)"/>
     <use xlink:href="#DejaVuSans-56" transform="translate(805.34375 0)"/>
     <use xlink:href="#DejaVuSans-3" transform="translate(857.4375 0)"/>
     <use xlink:href="#DejaVuSans-59" transform="translate(889.21875 0)"/>
     <use xlink:href="#DejaVuSans-44" transform="translate(948.40625 0)"/>
     <use xlink:href="#DejaVuSans-4f" transform="translate(1009.6875 0)"/>
     <use xlink:href="#DejaVuSans-52" transform="translate(1037.46875 0)"/>
     <use xlink:href="#DejaVuSans-55" transform="translate(1098.65625 0)"/>
     <use xlink:href="#DejaVuSans-48" transform="translate(1137.5625 0)"/>
     <use xlink:href="#DejaVuSans-56" transform="translate(1199.09375 0)"/>
    </g>
   </g>
  </g>
 </g>
 <defs>
  <clipPath id="p105a5e7109">
   <rect x="53.722344" y="26.88" width="384.716825" height="211.797656"/>
  </clipPath>
  <clipPath id="pfa8a45d2a5">
   <rect x="490.001512" y="26.88" width="183.198488" height="211.797656"/>
  </clipPath>
 </defs>
</svg>
