<?xml version="1.0" encoding="utf-8" standalone="no"?>
<!DOCTYPE svg PUBLIC "-//W3C//DTD SVG 1.1//EN"
  "http://www.w3.org/Graphics/SVG/1.1/DTD/svg11.dtd">
<svg xmlns:xlink="http://www.w3.org/1999/xlink" width="648pt" height="324pt" viewBox="0 0 648 324" xmlns="http://www.w3.org/2000/svg" version="1.1">
 <metadata>
  <rdf:RDF xmlns:dc="http://purl.org/dc/elements/1.1/" xmlns:cc="http://creativecommons.org/ns#" xmlns:rdf="http://www.w3.org/1999/02/22-rdf-syntax-ns#">
   <cc:Work>
    <dc:type rdf:resource="http://purl.org/dc/dcmitype/StillImage"/>
    <dc:date>2026-07-05T01:44:36.439396</dc:date>
    <dc:format>image/svg+xml</dc:format>
    <dc:creator>
     <cc:Agent>
      <dc:title>Matplotlib v3.11.0, https://matplotlib.org/</dc:title>
     </cc:Agent>
    </dc:creator>
   </cc:Work>
  </rdf:RDF>
 </metadata>
 <defs>
  <style type="text/css">*{stroke-linejoin: round; stroke-linecap: butt}</style>
 </defs>
 <g id="figure_1">
  <g id="patch_1">
   <path d="M 0 324 
L 648 324 
L 648 0 
L 0 0 
z
" style="fill: #ffffff"/>
  </g>
  <g id="axes_1">
   <g id="patch_2">
    <path d="M 45.082344 281.877656 
L 637.2 281.877656 
L 637.2 43.446328 
L 45.082344 43.446328 
z
" style="fill: #ffffff"/>
   </g>
   <g id="matplotlib.axis_1">
    <g id="xtick_1">
     <g id="line2d_1">
      <path d="M 71.996783 281.877656 
L 71.996783 43.446328 
" clip-path="url(#p7b67aed259)" style="fill: none; stroke: #b0b0b0; stroke-opacity: 0.3; stroke-width: 0.8; stroke-linecap: square"/>
     </g>
     <g id="line2d_2">
      <defs>
       <path id="mccdbc27550" d="M 0 0 
L 0 3.5 
" style="stroke: #000000; stroke-width: 0.8"/>
      </defs>
      <g>
       <use xlink:href="#mccdbc27550" x="71.996783" y="281.877656" style="stroke: #000000; stroke-width: 0.8"/>
      </g>
     </g>
     <g id="text_1">
      <!-- 12.0 -->
      <g transform="translate(60.86397 296.475312) scale(0.1 -0.1)">
       <defs>
        <path id="DejaVuSans-14" d="M 794 531 
L 1825 531 
L 1825 4091 
L 703 3866 
L 703 4441 
L 1819 4666 
L 2450 4666 
L 2450 531 
L 3481 531 
L 3481 0 
L 794 0 
L 794 531 
z
" transform="scale(0.015625)"/>
        <path id="DejaVuSans-15" d="M 1228 531 
L 3431 531 
L 3431 0 
L 469 0 
L 469 531 
Q 828 903 1448 1529 
Q 2069 2156 2228 2338 
Q 2531 2678 2651 2914 
Q 2772 3150 2772 3378 
Q 2772 3750 2511 3984 
Q 2250 4219 1831 4219 
Q 1534 4219 1204 4116 
Q 875 4013 500 3803 
L 500 4441 
Q 881 4594 1212 4672 
Q 1544 4750 1819 4750 
Q 2544 4750 2975 4387 
Q 3406 4025 3406 3419 
Q 3406 3131 3298 2873 
Q 3191 2616 2906 2266 
Q 2828 2175 2409 1742 
Q 1991 1309 1228 531 
z
" transform="scale(0.015625)"/>
        <path id="DejaVuSans-11" d="M 684 794 
L 1344 794 
L 1344 0 
L 684 0 
L 684 794 
z
" transform="scale(0.015625)"/>
        <path id="DejaVuSans-13" d="M 2034 4250 
Q 1547 4250 1301 3770 
Q 1056 3291 1056 2328 
Q 1056 1369 1301 889 
Q 1547 409 2034 409 
Q 2525 409 2770 889 
Q 3016 1369 3016 2328 
Q 3016 3291 2770 3770 
Q 2525 4250 2034 4250 
z
M 2034 4750 
Q 2819 4750 3233 4129 
Q 3647 3509 3647 2328 
Q 3647 1150 3233 529 
Q 2819 -91 2034 -91 
Q 1250 -91 836 529 
Q 422 1150 422 2328 
Q 422 3509 836 4129 
Q 1250 4750 2034 4750 
z
" transform="scale(0.015625)"/>
       </defs>
       <use xlink:href="#DejaVuSans-14"/>
       <use xlink:href="#DejaVuSans-15" transform="translate(63.625 0)"/>
       <use xlink:href="#DejaVuSans-11" transform="translate(127.25 0)"/>
       <use xlink:href="#DejaVuSans-13" transform="translate(159.03125 0)"/>
      </g>
     </g>
    </g>
    <g id="xtick_2">
     <g id="line2d_3">
      <path d="M 179.654538 281.877656 
L 179.654538 43.446328 
" clip-path="url(#p7b67aed259)" style="fill: none; stroke: #b0b0b0; stroke-opacity: 0.3; stroke-width: 0.8; stroke-linecap: square"/>
     </g>
     <g id="line2d_4">
      <g>
       <use xlink:href="#mccdbc27550" x="179.654538" y="281.877656" style="stroke: #000000; stroke-width: 0.8"/>
      </g>
     </g>
     <g id="text_2">
      <!-- 12.2 -->
      <g transform="translate(168.521726 296.475312) scale(0.1 -0.1)">
       <use xlink:href="#DejaVuSans-14"/>
       <use xlink:href="#DejaVuSans-15" transform="translate(63.625 0)"/>
       <use xlink:href="#DejaVuSans-11" transform="translate(127.25 0)"/>
       <use xlink:href="#DejaVuSans-15" transform="translate(159.03125 0)"/>
      </g>
     </g>
    </g>
    <g id="xtick_3">
     <g id="line2d_5">
      <path d="M 287.312294 281.877656 
L 287.312294 43.446328 
" clip-path="url(#p7b67aed259)" style="fill: none; stroke: #b0b0b0; stroke-opacity: 0.3; stroke-width: 0.8; stroke-linecap: square"/>
     </g>
     <g id="line2d_6">
      <g>
       <use xlink:href="#mccdbc27550" x="287.312294" y="281.877656" style="stroke: #000000; stroke-width: 0.8"/>
      </g>
     </g>
     <g id="text_3">
      <!-- 12.4 -->
      <g transform="translate(276.179482 296.475312) scale(0.1 -0.1)">
       <defs>
        <path id="DejaVuSans-17" d="M 2419 4116 
L 825 1625 
L 2419 1625 
L 2419 4116 
z
M 2253 4666 
L 3047 4666 
L 3047 1625 
L 3713 1625 
L 3713 1100 
L 3047 1100 
L 3047 0 
L 2419 0 
L 2419 1100 
L 313 1100 
L 313 1709 
L 2253 4666 
z
" transform="scale(0.015625)"/>
       </defs>
       <use xlink:href="#DejaVuSans-14"/>
       <use xlink:href="#DejaVuSans-15" transform="translate(63.625 0)"/>
       <use xlink:href="#DejaVuSans-11" transform="translate(127.25 0)"/>
       <use xlink:href="#DejaVuSans-17" transform="translate(159.03125 0)"/>
      </g>
     </g>
    </g>
    <g id="xtick_4">
     <g id="line2d_7">
      <path d="M 394.97005 281.877656 
L 394.97005 43.446328 
" clip-path="url(#p7b67aed259)" style="fill: none; stroke: #b0b0b0; stroke-opacity: 0.3; stroke-width: 0.8; stroke-linecap: square"/>
     </g>
     <g id="line2d_8">
      <g>
       <use xlink:href="#mccdbc27550" x="394.97005" y="281.877656" style="stroke: #000000; stroke-width: 0.8"/>
      </g>
     </g>
     <g id="text_4">
      <!-- 12.6 -->
      <g transform="translate(383.837237 296.475312) scale(0.1 -0.1)">
       <defs>
        <path id="DejaVuSans-19" d="M 2113 2584 
Q 1688 2584 1439 2293 
Q 1191 2003 1191 1497 
Q 1191 994 1439 701 
Q 1688 409 2113 409 
Q 2538 409 2786 701 
Q 3034 994 3034 1497 
Q 3034 2003 2786 2293 
Q 2538 2584 2113 2584 
z
M 3366 4563 
L 3366 3988 
Q 3128 4100 2886 4159 
Q 2644 4219 2406 4219 
Q 1781 4219 1451 3797 
Q 1122 3375 1075 2522 
Q 1259 2794 1537 2939 
Q 1816 3084 2150 3084 
Q 2853 3084 3261 2657 
Q 3669 2231 3669 1497 
Q 3669 778 3244 343 
Q 2819 -91 2113 -91 
Q 1303 -91 875 529 
Q 447 1150 447 2328 
Q 447 3434 972 4092 
Q 1497 4750 2381 4750 
Q 2619 4750 2861 4703 
Q 3103 4656 3366 4563 
z
" transform="scale(0.015625)"/>
       </defs>
       <use xlink:href="#DejaVuSans-14"/>
       <use xlink:href="#DejaVuSans-15" transform="translate(63.625 0)"/>
       <use xlink:href="#DejaVuSans-11" transform="translate(127.25 0)"/>
       <use xlink:href="#DejaVuSans-19" transform="translate(159.03125 0)"/>
      </g>
     </g>
    </g>
    <g id="xtick_5">
     <g id="line2d_9">
      <path d="M 502.627805 281.877656 
L 502.627805 43.446328 
" clip-path="url(#p7b67aed259)" style="fill: none; stroke: #b0b0b0; stroke-opacity: 0.3; stroke-width: 0.8; stroke-linecap: square"/>
     </g>
     <g id="line2d_10">
      <g>
       <use xlink:href="#mccdbc27550" x="502.627805" y="281.877656" style="stroke: #000000; stroke-width: 0.8"/>
      </g>
     </g>
     <g id="text_5">
      <!-- 12.8 -->
      <g transform="translate(491.494993 296.475312) scale(0.1 -0.1)">
       <defs>
        <path id="DejaVuSans-1b" d="M 2034 2216 
Q 1584 2216 1326 1975 
Q 1069 1734 1069 1313 
Q 1069 891 1326 650 
Q 1584 409 2034 409 
Q 2484 409 2743 651 
Q 3003 894 3003 1313 
Q 3003 1734 2745 1975 
Q 2488 2216 2034 2216 
z
M 1403 2484 
Q 997 2584 770 2862 
Q 544 3141 544 3541 
Q 544 4100 942 4425 
Q 1341 4750 2034 4750 
Q 2731 4750 3128 4425 
Q 3525 4100 3525 3541 
Q 3525 3141 3298 2862 
Q 3072 2584 2669 2484 
Q 3125 2378 3379 2068 
Q 3634 1759 3634 1313 
Q 3634 634 3220 271 
Q 2806 -91 2034 -91 
Q 1263 -91 848 271 
Q 434 634 434 1313 
Q 434 1759 690 2068 
Q 947 2378 1403 2484 
z
M 1172 3481 
Q 1172 3119 1398 2916 
Q 1625 2713 2034 2713 
Q 2441 2713 2670 2916 
Q 2900 3119 2900 3481 
Q 2900 3844 2670 4047 
Q 2441 4250 2034 4250 
Q 1625 4250 1398 4047 
Q 1172 3844 1172 3481 
z
" transform="scale(0.015625)"/>
       </defs>
       <use xlink:href="#DejaVuSans-14"/>
       <use xlink:href="#DejaVuSans-15" transform="translate(63.625 0)"/>
       <use xlink:href="#DejaVuSans-11" transform="translate(127.25 0)"/>
       <use xlink:href="#DejaVuSans-1b" transform="translate(159.03125 0)"/>
      </g>
     </g>
    </g>
    <g id="xtick_6">
     <g id="line2d_11">
      <path d="M 610.285561 281.877656 
L 610.285561 43.446328 
" clip-path="url(#p7b67aed259)" style="fill: none; stroke: #b0b0b0; stroke-opacity: 0.3; stroke-width: 0.8; stroke-linecap: square"/>
     </g>
     <g id="line2d_12">
      <g>
       <use xlink:href="#mccdbc27550" x="610.285561" y="281.877656" style="stroke: #000000; stroke-width: 0.8"/>
      </g>
     </g>
     <g id="text_6">
      <!-- 13.0 -->
      <g transform="translate(599.152749 296.475312) scale(0.1 -0.1)">
       <defs>
        <path id="DejaVuSans-16" d="M 2597 2516 
Q 3050 2419 3304 2112 
Q 3559 1806 3559 1356 
Q 3559 666 3084 287 
Q 2609 -91 1734 -91 
Q 1441 -91 1130 -33 
Q 819 25 488 141 
L 488 750 
Q 750 597 1062 519 
Q 1375 441 1716 441 
Q 2309 441 2620 675 
Q 2931 909 2931 1356 
Q 2931 1769 2642 2001 
Q 2353 2234 1838 2234 
L 1294 2234 
L 1294 2753 
L 1863 2753 
Q 2328 2753 2575 2939 
Q 2822 3125 2822 3475 
Q 2822 3834 2567 4026 
Q 2313 4219 1838 4219 
Q 1578 4219 1281 4162 
Q 984 4106 628 3988 
L 628 4550 
Q 988 4650 1302 4700 
Q 1616 4750 1894 4750 
Q 2613 4750 3031 4423 
Q 3450 4097 3450 3541 
Q 3450 3153 3228 2886 
Q 3006 2619 2597 2516 
z
" transform="scale(0.015625)"/>
       </defs>
       <use xlink:href="#DejaVuSans-14"/>
       <use xlink:href="#DejaVuSans-16" transform="translate(63.625 0)"/>
       <use xlink:href="#DejaVuSans-11" transform="translate(127.25 0)"/>
       <use xlink:href="#DejaVuSans-13" transform="translate(159.03125 0)"/>
      </g>
     </g>
    </g>
    <g id="text_7">
     <!-- hora UTC (≈ hora local + 4) -->
     <g transform="translate(271.886484 310.476094) scale(0.1 -0.1)">
      <defs>
       <path id="DejaVuSans-4b" d="M 3513 2113 
L 3513 0 
L 2938 0 
L 2938 2094 
Q 2938 2591 2744 2837 
Q 2550 3084 2163 3084 
Q 1697 3084 1428 2787 
Q 1159 2491 1159 1978 
L 1159 0 
L 581 0 
L 581 4863 
L 1159 4863 
L 1159 2956 
Q 1366 3272 1645 3428 
Q 1925 3584 2291 3584 
Q 2894 3584 3203 3211 
Q 3513 2838 3513 2113 
z
" transform="scale(0.015625)"/>
       <path id="DejaVuSans-52" d="M 1959 3097 
Q 1497 3097 1228 2736 
Q 959 2375 959 1747 
Q 959 1119 1226 758 
Q 1494 397 1959 397 
Q 2419 397 2687 759 
Q 2956 1122 2956 1747 
Q 2956 2369 2687 2733 
Q 2419 3097 1959 3097 
z
M 1959 3584 
Q 2709 3584 3137 3096 
Q 3566 2609 3566 1747 
Q 3566 888 3137 398 
Q 2709 -91 1959 -91 
Q 1206 -91 779 398 
Q 353 888 353 1747 
Q 353 2609 779 3096 
Q 1206 3584 1959 3584 
z
" transform="scale(0.015625)"/>
       <path id="DejaVuSans-55" d="M 2631 2963 
Q 2534 3019 2420 3045 
Q 2306 3072 2169 3072 
Q 1681 3072 1420 2755 
Q 1159 2438 1159 1844 
L 1159 0 
L 581 0 
L 581 3500 
L 1159 3500 
L 1159 2956 
Q 1341 3275 1631 3429 
Q 1922 3584 2338 3584 
Q 2397 3584 2469 3576 
Q 2541 3569 2628 3553 
L 2631 2963 
z
" transform="scale(0.015625)"/>
       <path id="DejaVuSans-44" d="M 2194 1759 
Q 1497 1759 1228 1600 
Q 959 1441 959 1056 
Q 959 750 1161 570 
Q 1363 391 1709 391 
Q 2188 391 2477 730 
Q 2766 1069 2766 1631 
L 2766 1759 
L 2194 1759 
z
M 3341 1997 
L 3341 0 
L 2766 0 
L 2766 531 
Q 2569 213 2275 61 
Q 1981 -91 1556 -91 
Q 1019 -91 701 211 
Q 384 513 384 1019 
Q 384 1609 779 1909 
Q 1175 2209 1959 2209 
L 2766 2209 
L 2766 2266 
Q 2766 2663 2505 2880 
Q 2244 3097 1772 3097 
Q 1472 3097 1187 3025 
Q 903 2953 641 2809 
L 641 3341 
Q 956 3463 1253 3523 
Q 1550 3584 1831 3584 
Q 2591 3584 2966 3190 
Q 3341 2797 3341 1997 
z
" transform="scale(0.015625)"/>
       <path id="DejaVuSans-3" transform="scale(0.015625)"/>
       <path id="DejaVuSans-38" d="M 556 4666 
L 1191 4666 
L 1191 1831 
Q 1191 1081 1462 751 
Q 1734 422 2344 422 
Q 2950 422 3222 751 
Q 3494 1081 3494 1831 
L 3494 4666 
L 4128 4666 
L 4128 1753 
Q 4128 841 3676 375 
Q 3225 -91 2344 -91 
Q 1459 -91 1007 375 
Q 556 841 556 1753 
L 556 4666 
z
" transform="scale(0.015625)"/>
       <path id="DejaVuSans-37" d="M -19 4666 
L 3928 4666 
L 3928 4134 
L 2272 4134 
L 2272 0 
L 1638 0 
L 1638 4134 
L -19 4134 
L -19 4666 
z
" transform="scale(0.015625)"/>
       <path id="DejaVuSans-26" d="M 4122 4306 
L 4122 3641 
Q 3803 3938 3442 4084 
Q 3081 4231 2675 4231 
Q 1875 4231 1450 3742 
Q 1025 3253 1025 2328 
Q 1025 1406 1450 917 
Q 1875 428 2675 428 
Q 3081 428 3442 575 
Q 3803 722 4122 1019 
L 4122 359 
Q 3791 134 3420 21 
Q 3050 -91 2638 -91 
Q 1578 -91 968 557 
Q 359 1206 359 2328 
Q 359 3453 968 4101 
Q 1578 4750 2638 4750 
Q 3056 4750 3426 4639 
Q 3797 4528 4122 4306 
z
" transform="scale(0.015625)"/>
       <path id="DejaVuSans-b" d="M 1984 4856 
Q 1566 4138 1362 3434 
Q 1159 2731 1159 2009 
Q 1159 1288 1364 580 
Q 1569 -128 1984 -844 
L 1484 -844 
Q 1016 -109 783 600 
Q 550 1309 550 2009 
Q 550 2706 781 3412 
Q 1013 4119 1484 4856 
L 1984 4856 
z
" transform="scale(0.015625)"/>
       <path id="DejaVuSans-cd2" d="M 4684 1947 
L 4684 1388 
Q 4356 1144 4076 1036 
Q 3797 928 3494 928 
Q 3150 928 2694 1113 
Q 2663 1125 2641 1134 
Q 2622 1141 2575 1159 
Q 2091 1350 1797 1350 
Q 1522 1350 1253 1231 
Q 984 1113 678 850 
L 678 1409 
Q 1006 1653 1286 1761 
Q 1566 1869 1869 1869 
Q 2213 1869 2672 1684 
Q 2706 1669 2722 1663 
Q 2741 1656 2788 1638 
Q 3272 1447 3566 1447 
Q 3834 1447 4098 1564 
Q 4363 1681 4684 1947 
z
M 4684 3163 
L 4684 2606 
Q 4356 2359 4076 2251 
Q 3797 2144 3494 2144 
Q 3150 2144 2694 2328 
Q 2663 2341 2641 2350 
Q 2622 2356 2575 2375 
Q 2091 2566 1797 2566 
Q 1522 2566 1253 2447 
Q 984 2328 678 2069 
L 678 2625 
Q 1006 2869 1286 2976 
Q 1566 3084 1869 3084 
Q 2213 3084 2672 2900 
Q 2703 2888 2719 2881 
Q 2741 2872 2788 2853 
Q 3272 2663 3566 2663 
Q 3834 2663 4098 2780 
Q 4363 2897 4684 3163 
z
" transform="scale(0.015625)"/>
       <path id="DejaVuSans-4f" d="M 603 4863 
L 1178 4863 
L 1178 0 
L 603 0 
L 603 4863 
z
" transform="scale(0.015625)"/>
       <path id="DejaVuSans-46" d="M 3122 3366 
L 3122 2828 
Q 2878 2963 2633 3030 
Q 2388 3097 2138 3097 
Q 1578 3097 1268 2742 
Q 959 2388 959 1747 
Q 959 1106 1268 751 
Q 1578 397 2138 397 
Q 2388 397 2633 464 
Q 2878 531 3122 666 
L 3122 134 
Q 2881 22 2623 -34 
Q 2366 -91 2075 -91 
Q 1284 -91 818 406 
Q 353 903 353 1747 
Q 353 2603 823 3093 
Q 1294 3584 2113 3584 
Q 2378 3584 2631 3529 
Q 2884 3475 3122 3366 
z
" transform="scale(0.015625)"/>
       <path id="DejaVuSans-e" d="M 2944 4013 
L 2944 2272 
L 4684 2272 
L 4684 1741 
L 2944 1741 
L 2944 0 
L 2419 0 
L 2419 1741 
L 678 1741 
L 678 2272 
L 2419 2272 
L 2419 4013 
L 2944 4013 
z
" transform="scale(0.015625)"/>
       <path id="DejaVuSans-c" d="M 513 4856 
L 1013 4856 
Q 1481 4119 1714 3412 
Q 1947 2706 1947 2009 
Q 1947 1309 1714 600 
Q 1481 -109 1013 -844 
L 513 -844 
Q 928 -128 1133 580 
Q 1338 1288 1338 2009 
Q 1338 2731 1133 3434 
Q 928 4138 513 4856 
z
" transform="scale(0.015625)"/>
      </defs>
      <use xlink:href="#DejaVuSans-4b"/>
      <use xlink:href="#DejaVuSans-52" transform="translate(63.375 0)"/>
      <use xlink:href="#DejaVuSans-55" transform="translate(124.5625 0)"/>
      <use xlink:href="#DejaVuSans-44" transform="translate(165.671875 0)"/>
      <use xlink:href="#DejaVuSans-3" transform="translate(226.953125 0)"/>
      <use xlink:href="#DejaVuSans-38" transform="translate(258.734375 0)"/>
      <use xlink:href="#DejaVuSans-37" transform="translate(331.921875 0)"/>
      <use xlink:href="#DejaVuSans-26" transform="translate(387.140625 0)"/>
      <use xlink:href="#DejaVuSans-3" transform="translate(456.96875 0)"/>
      <use xlink:href="#DejaVuSans-b" transform="translate(488.75 0)"/>
      <use xlink:href="#DejaVuSans-cd2" transform="translate(527.765625 0)"/>
      <use xlink:href="#DejaVuSans-3" transform="translate(611.5625 0)"/>
      <use xlink:href="#DejaVuSans-4b" transform="translate(643.34375 0)"/>
      <use xlink:href="#DejaVuSans-52" transform="translate(706.71875 0)"/>
      <use xlink:href="#DejaVuSans-55" transform="translate(767.90625 0)"/>
      <use xlink:href="#DejaVuSans-44" transform="translate(809.015625 0)"/>
      <use xlink:href="#DejaVuSans-3" transform="translate(870.296875 0)"/>
      <use xlink:href="#DejaVuSans-4f" transform="translate(902.078125 0)"/>
      <use xlink:href="#DejaVuSans-52" transform="translate(929.859375 0)"/>
      <use xlink:href="#DejaVuSans-46" transform="translate(991.046875 0)"/>
      <use xlink:href="#DejaVuSans-44" transform="translate(1046.03125 0)"/>
      <use xlink:href="#DejaVuSans-4f" transform="translate(1107.3125 0)"/>
      <use xlink:href="#DejaVuSans-3" transform="translate(1135.09375 0)"/>
      <use xlink:href="#DejaVuSans-e" transform="translate(1166.875 0)"/>
      <use xlink:href="#DejaVuSans-3" transform="translate(1250.671875 0)"/>
      <use xlink:href="#DejaVuSans-17" transform="translate(1282.453125 0)"/>
      <use xlink:href="#DejaVuSans-c" transform="translate(1346.078125 0)"/>
     </g>
    </g>
   </g>
   <g id="matplotlib.axis_2">
    <g id="ytick_1">
     <g id="line2d_13">
      <path d="M 45.082344 269.932627 
L 637.2 269.932627 
" clip-path="url(#p7b67aed259)" style="fill: none; stroke: #b0b0b0; stroke-opacity: 0.3; stroke-width: 0.8; stroke-linecap: square"/>
     </g>
     <g id="line2d_14">
      <defs>
       <path id="m82258a77fe" d="M 0 0 
L -3.5 0 
" style="stroke: #000000; stroke-width: 0.8"/>
      </defs>
      <g>
       <use xlink:href="#m82258a77fe" x="45.082344" y="269.932627" style="stroke: #000000; stroke-width: 0.8"/>
      </g>
     </g>
     <g id="text_8">
      <!-- 2 -->
      <g transform="translate(31.719844 273.731455) scale(0.1 -0.1)">
       <use xlink:href="#DejaVuSans-15"/>
      </g>
     </g>
    </g>
    <g id="ytick_2">
     <g id="line2d_15">
      <path d="M 45.082344 234.170587 
L 637.2 234.170587 
" clip-path="url(#p7b67aed259)" style="fill: none; stroke: #b0b0b0; stroke-opacity: 0.3; stroke-width: 0.8; stroke-linecap: square"/>
     </g>
     <g id="line2d_16">
      <g>
       <use xlink:href="#m82258a77fe" x="45.082344" y="234.170587" style="stroke: #000000; stroke-width: 0.8"/>
      </g>
     </g>
     <g id="text_9">
      <!-- 4 -->
      <g transform="translate(31.719844 237.969416) scale(0.1 -0.1)">
       <use xlink:href="#DejaVuSans-17"/>
      </g>
     </g>
    </g>
    <g id="ytick_3">
     <g id="line2d_17">
      <path d="M 45.082344 198.408548 
L 637.2 198.408548 
" clip-path="url(#p7b67aed259)" style="fill: none; stroke: #b0b0b0; stroke-opacity: 0.3; stroke-width: 0.8; stroke-linecap: square"/>
     </g>
     <g id="line2d_18">
      <g>
       <use xlink:href="#m82258a77fe" x="45.082344" y="198.408548" style="stroke: #000000; stroke-width: 0.8"/>
      </g>
     </g>
     <g id="text_10">
      <!-- 6 -->
      <g transform="translate(31.719844 202.207376) scale(0.1 -0.1)">
       <use xlink:href="#DejaVuSans-19"/>
      </g>
     </g>
    </g>
    <g id="ytick_4">
     <g id="line2d_19">
      <path d="M 45.082344 162.646508 
L 637.2 162.646508 
" clip-path="url(#p7b67aed259)" style="fill: none; stroke: #b0b0b0; stroke-opacity: 0.3; stroke-width: 0.8; stroke-linecap: square"/>
     </g>
     <g id="line2d_20">
      <g>
       <use xlink:href="#m82258a77fe" x="45.082344" y="162.646508" style="stroke: #000000; stroke-width: 0.8"/>
      </g>
     </g>
     <g id="text_11">
      <!-- 8 -->
      <g transform="translate(31.719844 166.445336) scale(0.1 -0.1)">
       <use xlink:href="#DejaVuSans-1b"/>
      </g>
     </g>
    </g>
    <g id="ytick_5">
     <g id="line2d_21">
      <path d="M 45.082344 126.884468 
L 637.2 126.884468 
" clip-path="url(#p7b67aed259)" style="fill: none; stroke: #b0b0b0; stroke-opacity: 0.3; stroke-width: 0.8; stroke-linecap: square"/>
     </g>
     <g id="line2d_22">
      <g>
       <use xlink:href="#m82258a77fe" x="45.082344" y="126.884468" style="stroke: #000000; stroke-width: 0.8"/>
      </g>
     </g>
     <g id="text_12">
      <!-- 10 -->
      <g transform="translate(25.357344 130.683296) scale(0.1 -0.1)">
       <use xlink:href="#DejaVuSans-14"/>
       <use xlink:href="#DejaVuSans-13" transform="translate(63.625 0)"/>
      </g>
     </g>
    </g>
    <g id="ytick_6">
     <g id="line2d_23">
      <path d="M 45.082344 91.122428 
L 637.2 91.122428 
" clip-path="url(#p7b67aed259)" style="fill: none; stroke: #b0b0b0; stroke-opacity: 0.3; stroke-width: 0.8; stroke-linecap: square"/>
     </g>
     <g id="line2d_24">
      <g>
       <use xlink:href="#m82258a77fe" x="45.082344" y="91.122428" style="stroke: #000000; stroke-width: 0.8"/>
      </g>
     </g>
     <g id="text_13">
      <!-- 12 -->
      <g transform="translate(25.357344 94.921256) scale(0.1 -0.1)">
       <use xlink:href="#DejaVuSans-14"/>
       <use xlink:href="#DejaVuSans-15" transform="translate(63.625 0)"/>
      </g>
     </g>
    </g>
    <g id="ytick_7">
     <g id="line2d_25">
      <path d="M 45.082344 55.360388 
L 637.2 55.360388 
" clip-path="url(#p7b67aed259)" style="fill: none; stroke: #b0b0b0; stroke-opacity: 0.3; stroke-width: 0.8; stroke-linecap: square"/>
     </g>
     <g id="line2d_26">
      <g>
       <use xlink:href="#m82258a77fe" x="45.082344" y="55.360388" style="stroke: #000000; stroke-width: 0.8"/>
      </g>
     </g>
     <g id="text_14">
      <!-- 14 -->
      <g transform="translate(25.357344 59.159217) scale(0.1 -0.1)">
       <use xlink:href="#DejaVuSans-14"/>
       <use xlink:href="#DejaVuSans-17" transform="translate(63.625 0)"/>
      </g>
     </g>
    </g>
    <g id="text_15">
     <!-- retardo iono medido en E1 (m) -->
     <g transform="translate(18.955 239.633086) rotate(-90) scale(0.1 -0.1)">
      <defs>
       <path id="DejaVuSans-48" d="M 3597 1894 
L 3597 1613 
L 953 1613 
Q 991 1019 1311 708 
Q 1631 397 2203 397 
Q 2534 397 2845 478 
Q 3156 559 3463 722 
L 3463 178 
Q 3153 47 2828 -22 
Q 2503 -91 2169 -91 
Q 1331 -91 842 396 
Q 353 884 353 1716 
Q 353 2575 817 3079 
Q 1281 3584 2069 3584 
Q 2775 3584 3186 3129 
Q 3597 2675 3597 1894 
z
M 3022 2063 
Q 3016 2534 2758 2815 
Q 2500 3097 2075 3097 
Q 1594 3097 1305 2825 
Q 1016 2553 972 2059 
L 3022 2063 
z
" transform="scale(0.015625)"/>
       <path id="DejaVuSans-57" d="M 1172 4494 
L 1172 3500 
L 2356 3500 
L 2356 3053 
L 1172 3053 
L 1172 1153 
Q 1172 725 1289 603 
Q 1406 481 1766 481 
L 2356 481 
L 2356 0 
L 1766 0 
Q 1100 0 847 248 
Q 594 497 594 1153 
L 594 3053 
L 172 3053 
L 172 3500 
L 594 3500 
L 594 4494 
L 1172 4494 
z
" transform="scale(0.015625)"/>
       <path id="DejaVuSans-47" d="M 2906 2969 
L 2906 4863 
L 3481 4863 
L 3481 0 
L 2906 0 
L 2906 525 
Q 2725 213 2448 61 
Q 2172 -91 1784 -91 
Q 1150 -91 751 415 
Q 353 922 353 1747 
Q 353 2572 751 3078 
Q 1150 3584 1784 3584 
Q 2172 3584 2448 3432 
Q 2725 3281 2906 2969 
z
M 947 1747 
Q 947 1113 1208 752 
Q 1469 391 1925 391 
Q 2381 391 2643 752 
Q 2906 1113 2906 1747 
Q 2906 2381 2643 2742 
Q 2381 3103 1925 3103 
Q 1469 3103 1208 2742 
Q 947 2381 947 1747 
z
" transform="scale(0.015625)"/>
       <path id="DejaVuSans-4c" d="M 603 3500 
L 1178 3500 
L 1178 0 
L 603 0 
L 603 3500 
z
M 603 4863 
L 1178 4863 
L 1178 4134 
L 603 4134 
L 603 4863 
z
" transform="scale(0.015625)"/>
       <path id="DejaVuSans-51" d="M 3513 2113 
L 3513 0 
L 2938 0 
L 2938 2094 
Q 2938 2591 2744 2837 
Q 2550 3084 2163 3084 
Q 1697 3084 1428 2787 
Q 1159 2491 1159 1978 
L 1159 0 
L 581 0 
L 581 3500 
L 1159 3500 
L 1159 2956 
Q 1366 3272 1645 3428 
Q 1925 3584 2291 3584 
Q 2894 3584 3203 3211 
Q 3513 2838 3513 2113 
z
" transform="scale(0.015625)"/>
       <path id="DejaVuSans-50" d="M 3328 2828 
Q 3544 3216 3844 3400 
Q 4144 3584 4550 3584 
Q 5097 3584 5394 3201 
Q 5691 2819 5691 2113 
L 5691 0 
L 5113 0 
L 5113 2094 
Q 5113 2597 4934 2840 
Q 4756 3084 4391 3084 
Q 3944 3084 3684 2787 
Q 3425 2491 3425 1978 
L 3425 0 
L 2847 0 
L 2847 2094 
Q 2847 2600 2669 2842 
Q 2491 3084 2119 3084 
Q 1678 3084 1418 2786 
Q 1159 2488 1159 1978 
L 1159 0 
L 581 0 
L 581 3500 
L 1159 3500 
L 1159 2956 
Q 1356 3278 1631 3431 
Q 1906 3584 2284 3584 
Q 2666 3584 2933 3390 
Q 3200 3197 3328 2828 
z
" transform="scale(0.015625)"/>
       <path id="DejaVuSans-28" d="M 628 4666 
L 3578 4666 
L 3578 4134 
L 1259 4134 
L 1259 2753 
L 3481 2753 
L 3481 2222 
L 1259 2222 
L 1259 531 
L 3634 531 
L 3634 0 
L 628 0 
L 628 4666 
z
" transform="scale(0.015625)"/>
      </defs>
      <use xlink:href="#DejaVuSans-55"/>
      <use xlink:href="#DejaVuSans-48" transform="translate(38.90625 0)"/>
      <use xlink:href="#DejaVuSans-57" transform="translate(100.4375 0)"/>
      <use xlink:href="#DejaVuSans-44" transform="translate(139.640625 0)"/>
      <use xlink:href="#DejaVuSans-55" transform="translate(200.921875 0)"/>
      <use xlink:href="#DejaVuSans-47" transform="translate(240.28125 0)"/>
      <use xlink:href="#DejaVuSans-52" transform="translate(303.765625 0)"/>
      <use xlink:href="#DejaVuSans-3" transform="translate(364.953125 0)"/>
      <use xlink:href="#DejaVuSans-4c" transform="translate(396.734375 0)"/>
      <use xlink:href="#DejaVuSans-52" transform="translate(424.515625 0)"/>
      <use xlink:href="#DejaVuSans-51" transform="translate(485.703125 0)"/>
      <use xlink:href="#DejaVuSans-52" transform="translate(549.078125 0)"/>
      <use xlink:href="#DejaVuSans-3" transform="translate(610.265625 0)"/>
      <use xlink:href="#DejaVuSans-50" transform="translate(642.046875 0)"/>
      <use xlink:href="#DejaVuSans-48" transform="translate(739.453125 0)"/>
      <use xlink:href="#DejaVuSans-47" transform="translate(800.984375 0)"/>
      <use xlink:href="#DejaVuSans-4c" transform="translate(864.46875 0)"/>
      <use xlink:href="#DejaVuSans-47" transform="translate(892.25 0)"/>
      <use xlink:href="#DejaVuSans-52" transform="translate(955.734375 0)"/>
      <use xlink:href="#DejaVuSans-3" transform="translate(1016.921875 0)"/>
      <use xlink:href="#DejaVuSans-48" transform="translate(1048.703125 0)"/>
      <use xlink:href="#DejaVuSans-51" transform="translate(1110.234375 0)"/>
      <use xlink:href="#DejaVuSans-3" transform="translate(1173.609375 0)"/>
      <use xlink:href="#DejaVuSans-28" transform="translate(1205.390625 0)"/>
      <use xlink:href="#DejaVuSans-14" transform="translate(1268.578125 0)"/>
      <use xlink:href="#DejaVuSans-3" transform="translate(1332.203125 0)"/>
      <use xlink:href="#DejaVuSans-b" transform="translate(1363.984375 0)"/>
      <use xlink:href="#DejaVuSans-50" transform="translate(1403 0)"/>
      <use xlink:href="#DejaVuSans-c" transform="translate(1500.40625 0)"/>
     </g>
    </g>
   </g>
   <g id="line2d_27">
    <path d="M 71.996783 262.879696 
L 76.482522 248.228117 
L 80.968262 261.076425 
L 85.454002 257.244473 
L 89.939742 252.510886 
L 94.425482 248.904343 
L 98.911222 260.174789 
L 103.396961 261.752651 
L 107.882701 262.428878 
L 112.368441 262.203469 
L 116.854181 244.396165 
L 121.339921 252.060068 
L 125.825661 248.228117 
L 130.3114 262.879696 
L 134.79714 248.002708 
L 139.28288 253.412522 
L 143.76862 254.990384 
L 148.25436 257.469882 
L 152.740099 255.666611 
L 157.225839 254.314157 
L 161.711579 248.453526 
L 166.197319 254.314157 
L 170.683059 253.863339 
L 175.168799 248.228117 
L 179.654538 246.650254 
L 184.140278 250.707615 
L 188.626018 258.371518 
L 193.111758 261.752651 
L 197.597498 258.822335 
L 202.083237 250.031388 
L 206.568977 250.482206 
L 211.054717 244.621574 
L 215.540457 252.285477 
L 220.026197 248.904343 
L 224.511937 247.326481 
L 228.997676 248.453526 
L 233.483416 230.195404 
L 237.969156 244.621574 
L 242.454896 251.834659 
L 246.940636 251.60925 
L 251.426375 252.736295 
L 255.912115 248.228117 
L 260.397855 266.711647 
L 264.883595 260.851016 
L 269.369335 250.933024 
L 273.855075 254.764975 
L 278.340814 255.666611 
L 282.826554 249.355161 
L 287.312294 260.851016 
L 291.798034 250.256797 
L 296.283774 234.027355 
L 300.769513 245.072392 
L 305.255253 255.215793 
L 309.740993 237.633898 
L 314.226733 248.678934 
L 318.712473 239.21176 
L 323.198213 244.846983 
L 327.683952 238.760942 
L 332.169692 251.383841 
L 336.655432 237.859307 
L 341.141172 240.789623 
L 345.626912 237.859307 
L 350.112652 247.101072 
L 354.598391 239.887987 
L 359.084131 243.49453 
L 363.569871 241.916667 
L 368.055611 227.265088 
L 372.541351 239.21176 
L 377.02709 235.379809 
L 381.51283 231.322448 
L 385.99857 239.437169 
L 390.48431 229.293768 
L 394.97005 253.187113 
L 399.45579 234.027355 
L 403.941529 258.822335 
L 408.427269 248.678934 
L 412.913009 252.736295 
L 417.398749 250.256797 
L 421.884489 228.392133 
L 426.370228 250.933024 
L 430.855968 243.945347 
L 435.341708 245.072392 
L 439.827448 247.777299 
L 444.313188 234.478173 
L 448.798928 236.056036 
L 453.284667 236.506853 
L 457.770407 251.834659 
L 462.256147 246.875663 
L 466.741887 248.002708 
L 471.227627 251.383841 
L 475.713366 240.338805 
L 480.199106 244.621574 
L 484.684846 247.777299 
L 489.170586 229.969995 
L 493.656326 238.535534 
L 498.142066 235.379809 
L 502.627805 236.506853 
L 507.113545 235.379809 
L 511.599285 231.322448 
L 516.085025 237.859307 
L 520.570765 235.1544 
L 525.056504 239.21176 
L 529.542244 227.715906 
L 534.027984 245.072392 
L 538.513724 229.519177 
L 542.999464 242.142076 
L 547.485204 233.351129 
L 551.970943 220.277412 
L 556.456683 222.080683 
L 560.942423 223.883954 
L 565.428163 239.437169 
L 569.913903 222.75691 
L 574.399643 221.629865 
L 578.885382 229.068359 
L 583.371122 238.760942 
L 587.856862 238.084716 
L 592.342602 234.027355 
L 596.828342 234.027355 
L 601.314081 236.056036 
L 605.799821 227.039679 
L 610.285561 233.12572 
" clip-path="url(#p7b67aed259)" style="fill: none; stroke: #1f77b4; stroke-width: 1.1; stroke-linecap: square"/>
   </g>
   <g id="line2d_28">
    <path d="M 71.996783 241.285892 
L 76.482522 243.314573 
L 80.968262 217.617957 
L 85.454002 249.175204 
L 89.939742 238.806394 
L 94.425482 248.949795 
L 98.911222 255.486654 
L 103.396961 248.04816 
L 107.882701 248.273569 
L 112.368441 248.949795 
L 116.854181 224.605633 
L 121.339921 223.027771 
L 125.825661 243.990799 
L 130.3114 237.67935 
L 134.79714 240.158848 
L 139.28288 220.548273 
L 143.76862 266.080873 
L 148.25436 239.031803 
L 152.740099 247.371933 
L 157.225839 230.466265 
L 161.711579 242.187528 
L 166.197319 235.65067 
L 170.683059 232.720354 
L 175.168799 233.171172 
L 179.654538 255.712063 
L 184.140278 226.859722 
L 188.626018 212.433552 
L 193.111758 230.015447 
L 197.597498 257.289925 
L 202.083237 244.441617 
L 206.568977 248.724386 
L 211.054717 249.400613 
L 215.540457 229.113811 
L 220.026197 250.753067 
L 224.511937 248.724386 
L 228.997676 230.691674 
L 233.483416 233.396581 
L 237.969156 236.101487 
L 242.454896 258.191561 
L 246.940636 271.039869 
L 251.426375 249.175204 
L 255.912115 218.519592 
L 260.397855 223.478588 
L 264.883595 249.851431 
L 269.369335 232.945763 
L 273.855075 255.035836 
L 278.340814 234.072807 
L 282.826554 242.187528 
L 287.312294 239.482621 
L 291.798034 250.527658 
L 296.283774 237.67935 
L 300.769513 236.552305 
L 305.255253 238.580985 
L 309.740993 229.790038 
L 314.226733 235.876079 
L 318.712473 252.556338 
L 323.198213 239.031803 
L 327.683952 250.527658 
L 332.169692 244.216208 
L 336.655432 270.81446 
L 341.141172 234.072807 
L 345.626912 225.958086 
L 350.112652 226.634313 
L 354.598391 214.687641 
L 359.084131 237.67935 
L 363.569871 248.04816 
L 368.055611 238.806394 
L 372.541351 238.130168 
L 377.02709 253.457974 
L 381.51283 248.273569 
L 385.99857 236.777714 
L 390.48431 232.494945 
L 394.97005 236.552305 
L 399.45579 226.859722 
L 403.941529 244.216208 
L 408.427269 218.97041 
L 412.913009 242.187528 
L 417.398749 220.097455 
L 421.884489 233.847398 
L 426.370228 241.962119 
L 430.855968 240.158848 
L 435.341708 241.511301 
L 439.827448 234.523625 
L 444.313188 232.044127 
L 448.798928 241.285892 
L 453.284667 236.552305 
L 457.770407 247.371933 
L 462.256147 248.273569 
L 466.741887 240.158848 
L 471.227627 241.060484 
L 475.713366 234.974443 
L 480.199106 252.330929 
L 484.684846 237.67935 
L 489.170586 238.806394 
L 493.656326 244.216208 
L 498.142066 236.552305 
L 502.627805 239.933439 
L 507.113545 231.818718 
L 511.599285 239.031803 
L 516.085025 253.457974 
L 520.570765 224.380224 
L 525.056504 234.974443 
L 529.542244 243.990799 
L 534.027984 243.314573 
L 538.513724 239.70803 
L 542.999464 237.67935 
L 547.485204 246.921115 
L 551.970943 239.257212 
L 556.456683 235.65067 
L 560.942423 228.212176 
L 565.428163 247.371933 
L 569.913903 232.720354 
L 574.399643 232.269536 
L 578.885382 249.626022 
L 583.371122 239.257212 
L 587.856862 234.749034 
L 592.342602 240.835075 
L 596.828342 248.724386 
L 601.314081 235.876079 
L 605.799821 249.851431 
L 610.285561 248.724386 
" clip-path="url(#p7b67aed259)" style="fill: none; stroke: #ff7f0e; stroke-width: 1.1; stroke-linecap: square"/>
   </g>
   <g id="line2d_29">
    <path d="M 71.996783 222.205751 
L 76.482522 237.082739 
L 80.968262 244.521233 
L 85.454002 226.939338 
L 89.939742 238.209784 
L 94.425482 237.533557 
L 98.911222 223.783613 
L 103.396961 225.136067 
L 107.882701 226.713929 
L 112.368441 212.06235 
L 116.854181 230.545881 
L 121.339921 206.201718 
L 125.825661 229.193427 
L 130.3114 230.320472 
L 134.79714 216.795937 
L 139.28288 242.943371 
L 143.76862 242.267144 
L 148.25436 230.545881 
L 152.740099 213.189394 
L 157.225839 236.631921 
L 161.711579 224.009022 
L 166.197319 236.406512 
L 170.683059 215.894301 
L 175.168799 238.660601 
L 179.654538 237.308148 
L 184.140278 227.164747 
L 188.626018 228.291792 
L 193.111758 219.500844 
L 197.597498 220.627888 
L 202.083237 211.611532 
L 206.568977 237.758966 
L 211.054717 223.107387 
L 215.540457 232.574561 
L 220.026197 232.123743 
L 224.511937 203.496811 
L 228.997676 228.066383 
L 233.483416 235.279468 
L 237.969156 247.902367 
L 242.454896 245.873686 
L 246.940636 253.537589 
L 251.426375 245.873686 
L 255.912115 231.447516 
L 260.397855 242.041735 
L 264.883595 243.619597 
L 269.369335 233.927014 
L 273.855075 238.209784 
L 278.340814 247.676958 
L 282.826554 251.734318 
L 287.312294 234.603241 
L 291.798034 234.603241 
L 296.283774 213.865621 
L 300.769513 237.984375 
L 305.255253 233.476196 
L 309.740993 226.48852 
L 314.226733 222.881978 
L 318.712473 230.095063 
L 323.198213 237.758966 
L 327.683952 244.295824 
L 332.169692 251.959727 
L 336.655432 236.181103 
L 341.141172 245.648278 
L 345.626912 248.353184 
L 350.112652 232.79997 
L 354.598391 235.730286 
L 359.084131 240.013055 
L 363.569871 238.209784 
L 368.055611 233.025379 
L 372.541351 240.238464 
L 377.02709 250.381865 
L 381.51283 251.508909 
L 385.99857 246.324504 
L 390.48431 212.513168 
L 394.97005 221.754933 
L 399.45579 239.336828 
L 403.941529 235.054059 
L 408.427269 250.156456 
L 412.913009 224.910658 
L 417.398749 237.533557 
L 421.884489 239.562237 
L 426.370228 234.377832 
L 430.855968 221.980342 
L 435.341708 236.631921 
L 439.827448 221.980342 
L 444.313188 228.5172 
L 448.798928 228.291792 
L 453.284667 241.590917 
L 457.770407 236.631921 
L 462.256147 219.050026 
L 466.741887 247.676958 
L 471.227627 237.758966 
L 475.713366 237.533557 
L 480.199106 232.349152 
L 484.684846 248.804002 
L 489.170586 224.009022 
L 493.656326 230.545881 
L 498.142066 237.533557 
L 502.627805 236.181103 
L 507.113545 217.697573 
L 511.599285 230.996698 
L 516.085025 235.279468 
L 520.570765 229.193427 
L 525.056504 240.689282 
L 529.542244 237.308148 
L 534.027984 236.181103 
L 538.513724 244.972051 
L 542.999464 233.927014 
L 547.485204 235.955694 
L 551.970943 236.181103 
L 556.456683 240.91469 
L 560.942423 227.840974 
L 565.428163 238.435192 
L 569.913903 226.939338 
L 574.399643 236.181103 
L 578.885382 242.943371 
L 583.371122 247.22614 
L 587.856862 237.533557 
L 592.342602 255.340861 
L 596.828342 239.336828 
L 601.314081 241.816326 
L 605.799821 231.898334 
L 610.285561 236.181103 
" clip-path="url(#p7b67aed259)" style="fill: none; stroke: #2ca02c; stroke-width: 1.1; stroke-linecap: square"/>
   </g>
   <g id="line2d_30">
    <path d="M 71.996783 159.307945 
L 76.482522 219.041306 
L 80.968262 191.090601 
L 85.454002 153.898131 
" clip-path="url(#p7b67aed259)" style="fill: none; stroke: #d62728; stroke-width: 1.1; stroke-linecap: square"/>
   </g>
   <g id="line2d_31">
    <path d="M 71.996783 257.907978 
L 76.482522 255.653889 
L 80.968262 254.076026 
L 85.454002 258.358796 
L 89.939742 259.711249 
L 94.425482 258.358796 
L 98.911222 257.45716 
L 103.396961 256.555524 
L 107.882701 255.653889 
L 112.368441 253.625209 
L 116.854181 250.920302 
L 121.339921 257.006342 
L 125.825661 250.920302 
L 130.3114 257.682569 
L 134.79714 251.821937 
L 139.28288 251.37112 
L 143.76862 256.780933 
L 148.25436 261.739929 
L 152.740099 257.682569 
L 157.225839 263.76861 
L 161.711579 262.416156 
L 166.197319 251.596528 
L 170.683059 254.526844 
L 175.168799 256.104707 
L 179.654538 253.3998 
L 184.140278 253.174391 
L 188.626018 250.694893 
L 193.111758 256.555524 
L 197.597498 258.584205 
L 202.083237 257.907978 
L 206.568977 249.793257 
L 211.054717 259.936658 
L 215.540457 254.301435 
L 220.026197 251.145711 
L 224.511937 257.907978 
L 228.997676 255.203071 
L 233.483416 249.793257 
L 237.969156 257.006342 
L 242.454896 250.920302 
L 246.940636 256.555524 
L 251.426375 254.301435 
L 255.912115 256.555524 
L 260.397855 252.498164 
L 264.883595 249.567848 
L 269.369335 243.932625 
L 273.855075 253.625209 
L 278.340814 256.780933 
L 282.826554 256.555524 
L 287.312294 260.838294 
L 291.798034 255.203071 
L 296.283774 256.104707 
L 300.769513 257.006342 
L 305.255253 254.752253 
L 309.740993 259.936658 
L 314.226733 247.539168 
L 318.712473 256.780933 
L 323.198213 255.653889 
L 327.683952 248.891622 
L 332.169692 257.907978 
L 336.655432 257.907978 
L 341.141172 254.977662 
L 345.626912 255.653889 
L 350.112652 254.076026 
L 354.598391 257.45716 
L 359.084131 262.416156 
L 363.569871 256.555524 
L 368.055611 250.920302 
L 372.541351 256.555524 
L 377.02709 247.539168 
L 381.51283 252.948982 
L 385.99857 253.850618 
L 390.48431 252.047346 
L 394.97005 263.76861 
L 399.45579 256.780933 
L 403.941529 250.920302 
L 408.427269 258.358796 
L 412.913009 255.653889 
L 417.398749 248.440804 
L 421.884489 255.879298 
L 426.370228 253.850618 
L 430.855968 254.301435 
L 435.341708 250.018666 
L 439.827448 253.850618 
L 444.313188 252.948982 
L 448.798928 253.625209 
L 453.284667 248.891622 
L 457.770407 248.215395 
L 462.256147 255.879298 
L 466.741887 250.018666 
L 471.227627 254.977662 
L 475.713366 251.145711 
L 480.199106 257.682569 
L 484.684846 247.764577 
L 489.170586 256.330116 
L 493.656326 250.469484 
L 498.142066 258.133387 
L 502.627805 258.133387 
L 507.113545 250.018666 
L 511.599285 250.018666 
L 516.085025 248.215395 
L 520.570765 251.145711 
L 525.056504 254.526844 
L 529.542244 257.45716 
L 534.027984 255.653889 
L 538.513724 254.301435 
L 542.999464 251.821937 
L 547.485204 250.018666 
L 551.970943 253.3998 
L 556.456683 250.920302 
L 560.942423 247.989986 
L 565.428163 253.850618 
L 569.913903 250.244075 
L 574.399643 252.272755 
L 578.885382 256.780933 
L 583.371122 250.469484 
L 587.856862 260.838294 
L 592.342602 255.203071 
L 596.828342 246.862941 
L 601.314081 249.567848 
L 605.799821 259.711249 
L 610.285561 254.977662 
" clip-path="url(#p7b67aed259)" style="fill: none; stroke: #9467bd; stroke-width: 1.1; stroke-linecap: square"/>
   </g>
   <g id="line2d_32">
    <path d="M 71.996783 261.242943 
L 76.482522 263.271623 
L 80.968262 260.115898 
L 85.454002 259.214263 
L 89.939742 263.271623 
L 94.425482 263.046214 
L 98.911222 264.398667 
L 103.396961 264.624076 
L 107.882701 264.173259 
L 112.368441 266.201939 
L 116.854181 258.763445 
L 121.339921 264.173259 
L 125.825661 256.734765 
L 130.3114 254.931493 
L 134.79714 265.525712 
L 139.28288 265.525712 
L 143.76862 266.652757 
L 148.25436 265.074894 
L 152.740099 261.242943 
L 157.225839 264.173259 
L 161.711579 264.173259 
L 166.197319 259.890489 
L 170.683059 263.046214 
L 175.168799 253.353631 
L 179.654538 256.509356 
L 184.140278 262.595396 
L 188.626018 261.242943 
L 193.111758 262.369987 
L 197.597498 258.312627 
L 202.083237 258.087218 
L 206.568977 263.046214 
L 211.054717 256.283947 
L 215.540457 256.058538 
L 220.026197 258.312627 
L 224.511937 260.792125 
L 228.997676 261.693761 
L 233.483416 259.214263 
L 237.969156 260.341307 
L 242.454896 265.074894 
L 246.940636 259.439671 
L 251.426375 267.554392 
L 255.912115 261.919169 
L 260.397855 261.919169 
L 264.883595 257.6364 
L 269.369335 256.283947 
L 273.855075 253.353631 
L 278.340814 260.115898 
L 282.826554 261.017534 
L 287.312294 259.214263 
L 291.798034 262.595396 
L 296.283774 265.525712 
L 300.769513 262.820805 
L 305.255253 263.94785 
L 309.740993 258.763445 
L 314.226733 258.087218 
L 318.712473 263.497032 
L 323.198213 257.6364 
L 327.683952 263.497032 
L 332.169692 258.988854 
L 336.655432 260.341307 
L 341.141172 255.382311 
L 345.626912 259.66508 
L 350.112652 255.156902 
L 354.598391 253.804449 
L 359.084131 260.341307 
L 363.569871 260.115898 
L 368.055611 262.595396 
L 372.541351 261.468352 
L 377.02709 260.566716 
L 381.51283 257.185582 
L 385.99857 254.029858 
L 390.48431 256.734765 
L 394.97005 257.861809 
L 399.45579 265.751121 
L 403.941529 258.312627 
L 408.427269 257.861809 
L 412.913009 259.214263 
L 417.398749 260.115898 
L 421.884489 257.6364 
L 426.370228 262.595396 
L 430.855968 257.185582 
L 435.341708 259.214263 
L 439.827448 254.029858 
L 444.313188 260.792125 
L 448.798928 255.60772 
L 453.284667 262.820805 
L 457.770407 260.792125 
L 462.256147 261.693761 
L 466.741887 261.017534 
L 471.227627 255.382311 
L 475.713366 262.144578 
L 480.199106 255.156902 
L 484.684846 261.242943 
L 489.170586 257.410991 
L 493.656326 257.410991 
L 498.142066 258.312627 
L 502.627805 261.242943 
L 507.113545 257.185582 
L 511.599285 254.706084 
L 516.085025 258.763445 
L 520.570765 255.833129 
L 525.056504 257.185582 
L 529.542244 262.369987 
L 534.027984 260.566716 
L 538.513724 254.029858 
L 542.999464 258.988854 
L 547.485204 254.931493 
L 551.970943 253.128222 
L 556.456683 256.283947 
L 560.942423 254.706084 
L 565.428163 256.058538 
L 569.913903 258.312627 
L 574.399643 258.312627 
L 578.885382 258.988854 
L 583.371122 257.861809 
L 587.856862 253.57904 
L 592.342602 257.185582 
L 596.828342 257.410991 
L 601.314081 258.538036 
L 605.799821 256.734765 
L 610.285561 260.566716 
" clip-path="url(#p7b67aed259)" style="fill: none; stroke: #8c564b; stroke-width: 1.1; stroke-linecap: square"/>
   </g>
   <g id="line2d_33">
    <path d="M 71.996783 248.995964 
L 76.482522 239.979608 
L 80.968262 246.291057 
L 85.454002 243.360742 
L 89.939742 243.58615 
L 94.425482 234.569794 
L 98.911222 244.713195 
L 103.396961 253.278734 
L 107.882701 248.094329 
L 112.368441 253.729551 
L 116.854181 238.852563 
L 121.339921 245.164013 
L 125.825661 241.106652 
L 130.3114 238.401745 
L 134.79714 239.979608 
L 139.28288 250.348418 
L 143.76862 234.569794 
L 148.25436 252.827916 
L 152.740099 249.446782 
L 157.225839 251.250053 
L 161.711579 242.233697 
L 166.197319 249.672191 
L 170.683059 248.545146 
L 175.168799 245.164013 
L 179.654538 237.274701 
L 184.140278 248.995964 
L 188.626018 245.840239 
L 193.111758 236.373065 
L 197.597498 224.200984 
L 202.083237 253.053325 
L 206.568977 244.262377 
L 211.054717 251.92628 
L 215.540457 254.856596 
L 220.026197 255.758232 
L 224.511937 256.659867 
L 228.997676 241.782879 
L 233.483416 251.700871 
L 237.969156 235.47143 
L 242.454896 238.176336 
L 246.940636 253.729551 
L 251.426375 228.934571 
L 255.912115 243.811559 
L 260.397855 239.52879 
L 264.883595 245.164013 
L 269.369335 231.864887 
L 273.855075 234.118976 
L 278.340814 222.172304 
L 282.826554 231.414069 
L 287.312294 237.950928 
L 291.798034 238.852563 
L 296.283774 242.233697 
L 300.769513 240.881243 
L 305.255253 235.47143 
L 309.740993 228.258344 
L 314.226733 226.905891 
L 318.712473 232.766523 
L 323.198213 239.52879 
L 327.683952 241.332061 
L 332.169692 242.233697 
L 336.655432 229.836207 
L 341.141172 242.008288 
L 345.626912 245.164013 
L 350.112652 230.737842 
L 354.598391 225.10262 
L 359.084131 223.299348 
L 363.569871 231.414069 
L 368.055611 236.373065 
L 372.541351 233.668158 
L 377.02709 243.811559 
L 381.51283 244.713195 
L 385.99857 244.938604 
L 390.48431 233.668158 
L 394.97005 237.725519 
L 399.45579 237.50011 
L 403.941529 233.21734 
L 408.427269 229.836207 
L 412.913009 234.344385 
L 417.398749 222.623122 
L 421.884489 216.76249 
L 426.370228 213.606765 
L 430.855968 224.426393 
L 435.341708 233.21734 
L 439.827448 227.1313 
L 444.313188 222.623122 
L 448.798928 233.21734 
L 453.284667 240.205017 
L 457.770407 235.696839 
L 462.256147 235.020612 
L 466.741887 231.18866 
L 471.227627 233.21734 
L 475.713366 236.823883 
L 480.199106 231.639478 
L 484.684846 237.049292 
L 489.170586 216.086263 
L 493.656326 224.651802 
L 498.142066 216.987899 
L 502.627805 218.340352 
L 507.113545 204.365 
L 511.599285 202.561729 
L 516.085025 213.381356 
L 520.570765 221.496077 
L 525.056504 239.303381 
L 529.542244 233.893567 
L 534.027984 220.143624 
L 538.513724 202.33632 
L 542.999464 216.76249 
L 547.485204 226.004255 
L 551.970943 236.373065 
L 556.456683 227.807527 
L 560.942423 223.299348 
L 565.428163 225.10262 
L 569.913903 229.15998 
L 574.399643 246.967284 
L 578.885382 253.504142 
L 583.371122 233.893567 
L 587.856862 208.42236 
L 592.342602 222.397713 
L 596.828342 223.299348 
L 601.314081 220.143624 
L 605.799821 205.942862 
L 610.285561 203.237955 
" clip-path="url(#p7b67aed259)" style="fill: none; stroke: #e377c2; stroke-width: 1.1; stroke-linecap: square"/>
   </g>
   <g id="line2d_34">
    <path d="M 71.996783 241.148103 
L 76.482522 228.750613 
L 80.968262 224.918661 
L 85.454002 233.033382 
L 89.939742 231.230111 
L 94.425482 242.951374 
L 98.911222 222.664572 
L 103.396961 228.299795 
L 107.882701 221.762936 
L 112.368441 235.287471 
L 116.854181 226.947341 
L 121.339921 241.59892 
L 125.825661 210.492491 
L 130.3114 233.4842 
L 134.79714 243.85301 
L 139.28288 232.357155 
L 143.76862 244.754645 
L 148.25436 230.328475 
L 152.740099 247.234143 
L 157.225839 227.623568 
L 161.711579 239.119422 
L 166.197319 222.213754 
L 170.683059 224.467843 
L 175.168799 221.762936 
L 179.654538 228.976022 
L 184.140278 217.480167 
L 188.626018 213.422807 
L 193.111758 206.209722 
L 197.597498 226.045706 
L 202.083237 216.127714 
L 206.568977 218.381803 
L 211.054717 217.029349 
L 215.540457 222.439163 
L 220.026197 208.012993 
L 224.511937 229.20143 
L 228.997676 208.68922 
L 233.483416 228.074386 
L 237.969156 209.365446 
L 242.454896 218.156394 
L 246.940636 237.090742 
L 251.426375 205.533495 
L 255.912115 197.418774 
L 260.397855 201.476134 
L 264.883595 218.381803 
L 269.369335 228.299795 
L 273.855075 201.476134 
L 278.340814 206.660539 
L 282.826554 222.889981 
L 287.312294 235.062062 
L 291.798034 230.779293 
L 296.283774 248.361188 
L 300.769513 218.381803 
L 305.255253 203.730224 
L 309.740993 220.635892 
L 314.226733 202.828588 
L 318.712473 199.898272 
L 323.198213 211.168718 
L 327.683952 212.971989 
L 332.169692 206.660539 
L 336.655432 208.68922 
L 341.141172 208.914628 
L 345.626912 220.861301 
L 350.112652 232.582564 
L 354.598391 212.971989 
L 359.084131 211.844944 
L 363.569871 191.558142 
L 368.055611 227.398159 
L 372.541351 197.644183 
L 377.02709 238.443196 
L 381.51283 165.1853 
L 385.99857 187.500782 
L 390.48431 178.033608 
L 394.97005 201.476134 
L 399.45579 163.832846 
L 403.941529 213.422807 
L 408.427269 179.160652 
L 412.913009 223.11539 
L 417.398749 201.701543 
L 421.884489 169.24266 
L 426.370228 218.832621 
L 430.855968 236.189107 
L 435.341708 216.80394 
L 439.827448 196.742547 
L 444.313188 222.664572 
L 448.798928 230.328475 
L 453.284667 193.586823 
L 457.770407 215.676896 
L 462.256147 209.140037 
L 466.741887 142.869818 
L 471.227627 179.160652 
L 475.713366 241.148103 
M 484.684846 186.148329 
L 489.170586 113.792068 
L 493.656326 54.284116 
" clip-path="url(#p7b67aed259)" style="fill: none; stroke: #7f7f7f; stroke-width: 1.1; stroke-linecap: square"/>
   </g>
   <g id="patch_3">
    <path d="M 45.082344 281.877656 
L 45.082344 43.446328 
" style="fill: none; stroke: #000000; stroke-width: 0.8; stroke-linejoin: miter; stroke-linecap: square"/>
   </g>
   <g id="patch_4">
    <path d="M 637.2 281.877656 
L 637.2 43.446328 
" style="fill: none; stroke: #000000; stroke-width: 0.8; stroke-linejoin: miter; stroke-linecap: square"/>
   </g>
   <g id="patch_5">
    <path d="M 45.082344 281.877656 
L 637.2 281.877656 
" style="fill: none; stroke: #000000; stroke-width: 0.8; stroke-linejoin: miter; stroke-linecap: square"/>
   </g>
   <g id="patch_6">
    <path d="M 45.082344 43.446328 
L 637.2 43.446328 
" style="fill: none; stroke: #000000; stroke-width: 0.8; stroke-linejoin: miter; stroke-linecap: square"/>
   </g>
   <g id="text_16">
    <!-- I$_1$(t) por la divergencia de código, 12:00–13:00 UTC: -->
    <g transform="translate(184.961172 22.563047) scale(0.12 -0.12)">
     <defs>
      <path id="DejaVuSans-2c" d="M 628 4666 
L 1259 4666 
L 1259 0 
L 628 0 
L 628 4666 
z
" transform="scale(0.015625)"/>
      <path id="DejaVuSans-53" d="M 1159 525 
L 1159 -1331 
L 581 -1331 
L 581 3500 
L 1159 3500 
L 1159 2969 
Q 1341 3281 1617 3432 
Q 1894 3584 2278 3584 
Q 2916 3584 3314 3078 
Q 3713 2572 3713 1747 
Q 3713 922 3314 415 
Q 2916 -91 2278 -91 
Q 1894 -91 1617 61 
Q 1341 213 1159 525 
z
M 3116 1747 
Q 3116 2381 2855 2742 
Q 2594 3103 2138 3103 
Q 1681 3103 1420 2742 
Q 1159 2381 1159 1747 
Q 1159 1113 1420 752 
Q 1681 391 2138 391 
Q 2594 391 2855 752 
Q 3116 1113 3116 1747 
z
" transform="scale(0.015625)"/>
      <path id="DejaVuSans-59" d="M 191 3500 
L 800 3500 
L 1894 563 
L 2988 3500 
L 3597 3500 
L 2284 0 
L 1503 0 
L 191 3500 
z
" transform="scale(0.015625)"/>
      <path id="DejaVuSans-4a" d="M 2906 1791 
Q 2906 2416 2648 2759 
Q 2391 3103 1925 3103 
Q 1463 3103 1205 2759 
Q 947 2416 947 1791 
Q 947 1169 1205 825 
Q 1463 481 1925 481 
Q 2391 481 2648 825 
Q 2906 1169 2906 1791 
z
M 3481 434 
Q 3481 -459 3084 -895 
Q 2688 -1331 1869 -1331 
Q 1566 -1331 1297 -1286 
Q 1028 -1241 775 -1147 
L 775 -588 
Q 1028 -725 1275 -790 
Q 1522 -856 1778 -856 
Q 2344 -856 2625 -561 
Q 2906 -266 2906 331 
L 2906 616 
Q 2728 306 2450 153 
Q 2172 0 1784 0 
Q 1141 0 747 490 
Q 353 981 353 1791 
Q 353 2603 747 3093 
Q 1141 3584 1784 3584 
Q 2172 3584 2450 3431 
Q 2728 3278 2906 2969 
L 2906 3500 
L 3481 3500 
L 3481 434 
z
" transform="scale(0.015625)"/>
      <path id="DejaVuSans-b5" d="M 1959 3097 
Q 1497 3097 1228 2736 
Q 959 2375 959 1747 
Q 959 1119 1226 758 
Q 1494 397 1959 397 
Q 2419 397 2687 759 
Q 2956 1122 2956 1747 
Q 2956 2369 2687 2733 
Q 2419 3097 1959 3097 
z
M 1959 3584 
Q 2709 3584 3137 3096 
Q 3566 2609 3566 1747 
Q 3566 888 3137 398 
Q 2709 -91 1959 -91 
Q 1206 -91 779 398 
Q 353 888 353 1747 
Q 353 2609 779 3096 
Q 1206 3584 1959 3584 
z
M 2393 5119 
L 3015 5119 
L 1997 3944 
L 1518 3944 
L 2393 5119 
z
" transform="scale(0.015625)"/>
      <path id="DejaVuSans-f" d="M 750 794 
L 1409 794 
L 1409 256 
L 897 -744 
L 494 -744 
L 750 256 
L 750 794 
z
" transform="scale(0.015625)"/>
      <path id="DejaVuSans-1d" d="M 750 794 
L 1409 794 
L 1409 0 
L 750 0 
L 750 794 
z
M 750 3309 
L 1409 3309 
L 1409 2516 
L 750 2516 
L 750 3309 
z
" transform="scale(0.015625)"/>
      <path id="DejaVuSansDisplay-3" d="M 313 1978 
L 2888 1978 
L 2888 1528 
L 313 1528 
L 313 1978 
z
" transform="scale(0.015625)"/>
     </defs>
     <use xlink:href="#DejaVuSans-2c" transform="translate(0 0.015625)"/>
     <use xlink:href="#DejaVuSans-14" transform="translate(30.449219 -14.984326) scale(0.7)"/>
     <use xlink:href="#DejaVuSans-b" transform="translate(77.719727 0.015625)"/>
     <use xlink:href="#DejaVuSans-57" transform="translate(116.733398 0.015625)"/>
     <use xlink:href="#DejaVuSans-c" transform="translate(155.942383 0.015625)"/>
     <use xlink:href="#DejaVuSans-3" transform="translate(194.956055 0.015625)"/>
     <use xlink:href="#DejaVuSans-53" transform="translate(226.743164 0.015625)"/>
     <use xlink:href="#DejaVuSans-52" transform="translate(290.219727 0.015625)"/>
     <use xlink:href="#DejaVuSans-55" transform="translate(351.401367 0.015625)"/>
     <use xlink:href="#DejaVuSans-3" transform="translate(392.514648 0.015625)"/>
     <use xlink:href="#DejaVuSans-4f" transform="translate(424.301758 0.015625)"/>
     <use xlink:href="#DejaVuSans-44" transform="translate(452.084961 0.015625)"/>
     <use xlink:href="#DejaVuSans-3" transform="translate(513.364258 0.015625)"/>
     <use xlink:href="#DejaVuSans-47" transform="translate(545.151367 0.015625)"/>
     <use xlink:href="#DejaVuSans-4c" transform="translate(608.62793 0.015625)"/>
     <use xlink:href="#DejaVuSans-59" transform="translate(636.411133 0.015625)"/>
     <use xlink:href="#DejaVuSans-48" transform="translate(695.59082 0.015625)"/>
     <use xlink:href="#DejaVuSans-55" transform="translate(757.114258 0.015625)"/>
     <use xlink:href="#DejaVuSans-4a" transform="translate(796.227539 0.015625)"/>
     <use xlink:href="#DejaVuSans-48" transform="translate(859.704102 0.015625)"/>
     <use xlink:href="#DejaVuSans-51" transform="translate(921.227539 0.015625)"/>
     <use xlink:href="#DejaVuSans-46" transform="translate(984.606445 0.015625)"/>
     <use xlink:href="#DejaVuSans-4c" transform="translate(1039.586914 0.015625)"/>
     <use xlink:href="#DejaVuSans-44" transform="translate(1067.370117 0.015625)"/>
     <use xlink:href="#DejaVuSans-3" transform="translate(1128.649414 0.015625)"/>
     <use xlink:href="#DejaVuSans-47" transform="translate(1160.436523 0.015625)"/>
     <use xlink:href="#DejaVuSans-48" transform="translate(1223.913086 0.015625)"/>
     <use xlink:href="#DejaVuSans-3" transform="translate(1285.436523 0.015625)"/>
     <use xlink:href="#DejaVuSans-46" transform="translate(1317.223633 0.015625)"/>
     <use xlink:href="#DejaVuSans-b5" transform="translate(1372.204102 0.015625)"/>
     <use xlink:href="#DejaVuSans-47" transform="translate(1433.385742 0.015625)"/>
     <use xlink:href="#DejaVuSans-4c" transform="translate(1496.862305 0.015625)"/>
     <use xlink:href="#DejaVuSans-4a" transform="translate(1524.645508 0.015625)"/>
     <use xlink:href="#DejaVuSans-52" transform="translate(1588.12207 0.015625)"/>
     <use xlink:href="#DejaVuSans-f" transform="translate(1649.303711 0.015625)"/>
     <use xlink:href="#DejaVuSans-3" transform="translate(1681.09082 0.015625)"/>
     <use xlink:href="#DejaVuSans-14" transform="translate(1712.87793 0.015625)"/>
     <use xlink:href="#DejaVuSans-15" transform="translate(1776.500977 0.015625)"/>
     <use xlink:href="#DejaVuSans-1d" transform="translate(1840.124023 0.015625)"/>
     <use xlink:href="#DejaVuSans-13" transform="translate(1873.81543 0.015625)"/>
     <use xlink:href="#DejaVuSans-13" transform="translate(1937.438477 0.015625)"/>
     <use xlink:href="#DejaVuSansDisplay-3" transform="translate(2001.061523 0.015625)"/>
     <use xlink:href="#DejaVuSans-14" transform="translate(2051.061523 0.015625)"/>
     <use xlink:href="#DejaVuSans-16" transform="translate(2114.68457 0.015625)"/>
     <use xlink:href="#DejaVuSans-1d" transform="translate(2178.307617 0.015625)"/>
     <use xlink:href="#DejaVuSans-13" transform="translate(2211.999023 0.015625)"/>
     <use xlink:href="#DejaVuSans-13" transform="translate(2275.62207 0.015625)"/>
     <use xlink:href="#DejaVuSans-3" transform="translate(2339.245117 0.015625)"/>
     <use xlink:href="#DejaVuSans-38" transform="translate(2371.032227 0.015625)"/>
     <use xlink:href="#DejaVuSans-37" transform="translate(2444.225586 0.015625)"/>
     <use xlink:href="#DejaVuSans-26" transform="translate(2499.30957 0.015625)"/>
     <use xlink:href="#DejaVuSans-1d" transform="translate(2569.133789 0.015625)"/>
    </g>
    <!-- tendencias suaves (la iono) + ruido ~1 m (el código) — E33 se dispara al caer al horizonte -->
    <g transform="translate(68.323047 37.446328) scale(0.12 -0.12)">
     <defs>
      <path id="DejaVuSans-56" d="M 2834 3397 
L 2834 2853 
Q 2591 2978 2328 3040 
Q 2066 3103 1784 3103 
Q 1356 3103 1142 2972 
Q 928 2841 928 2578 
Q 928 2378 1081 2264 
Q 1234 2150 1697 2047 
L 1894 2003 
Q 2506 1872 2764 1633 
Q 3022 1394 3022 966 
Q 3022 478 2636 193 
Q 2250 -91 1575 -91 
Q 1294 -91 989 -36 
Q 684 19 347 128 
L 347 722 
Q 666 556 975 473 
Q 1284 391 1588 391 
Q 1994 391 2212 530 
Q 2431 669 2431 922 
Q 2431 1156 2273 1281 
Q 2116 1406 1581 1522 
L 1381 1569 
Q 847 1681 609 1914 
Q 372 2147 372 2553 
Q 372 3047 722 3315 
Q 1072 3584 1716 3584 
Q 2034 3584 2315 3537 
Q 2597 3491 2834 3397 
z
" transform="scale(0.015625)"/>
      <path id="DejaVuSans-58" d="M 544 1381 
L 544 3500 
L 1119 3500 
L 1119 1403 
Q 1119 906 1312 657 
Q 1506 409 1894 409 
Q 2359 409 2629 706 
Q 2900 1003 2900 1516 
L 2900 3500 
L 3475 3500 
L 3475 0 
L 2900 0 
L 2900 538 
Q 2691 219 2414 64 
Q 2138 -91 1772 -91 
Q 1169 -91 856 284 
Q 544 659 544 1381 
z
M 1991 3584 
L 1991 3584 
z
" transform="scale(0.015625)"/>
      <path id="DejaVuSans-61" d="M 4684 2553 
L 4684 1997 
Q 4356 1750 4076 1644 
Q 3797 1538 3494 1538 
Q 3150 1538 2694 1722 
Q 2659 1734 2644 1741 
Q 2622 1750 2575 1766 
Q 2091 1959 1797 1959 
Q 1522 1959 1253 1839 
Q 984 1719 678 1459 
L 678 2016 
Q 1006 2263 1286 2370 
Q 1566 2478 1869 2478 
Q 2213 2478 2672 2291 
Q 2703 2278 2719 2272 
Q 2744 2263 2788 2247 
Q 3272 2053 3566 2053 
Q 3834 2053 4098 2172 
Q 4363 2291 4684 2553 
z
" transform="scale(0.015625)"/>
      <path id="DejaVuSans-af6" d="M 313 1978 
L 6088 1978 
L 6088 1528 
L 313 1528 
L 313 1978 
z
" transform="scale(0.015625)"/>
      <path id="DejaVuSans-5d" d="M 353 3500 
L 3084 3500 
L 3084 2975 
L 922 459 
L 3084 459 
L 3084 0 
L 275 0 
L 275 525 
L 2438 3041 
L 353 3041 
L 353 3500 
z
" transform="scale(0.015625)"/>
     </defs>
     <use xlink:href="#DejaVuSans-57"/>
     <use xlink:href="#DejaVuSans-48" transform="translate(39.203125 0)"/>
     <use xlink:href="#DejaVuSans-51" transform="translate(100.734375 0)"/>
     <use xlink:href="#DejaVuSans-47" transform="translate(164.109375 0)"/>
     <use xlink:href="#DejaVuSans-48" transform="translate(227.59375 0)"/>
     <use xlink:href="#DejaVuSans-51" transform="translate(289.125 0)"/>
     <use xlink:href="#DejaVuSans-46" transform="translate(352.5 0)"/>
     <use xlink:href="#DejaVuSans-4c" transform="translate(407.484375 0)"/>
     <use xlink:href="#DejaVuSans-44" transform="translate(435.265625 0)"/>
     <use xlink:href="#DejaVuSans-56" transform="translate(496.546875 0)"/>
     <use xlink:href="#DejaVuSans-3" transform="translate(548.640625 0)"/>
     <use xlink:href="#DejaVuSans-56" transform="translate(580.421875 0)"/>
     <use xlink:href="#DejaVuSans-58" transform="translate(632.515625 0)"/>
     <use xlink:href="#DejaVuSans-44" transform="translate(695.890625 0)"/>
     <use xlink:href="#DejaVuSans-59" transform="translate(757.171875 0)"/>
     <use xlink:href="#DejaVuSans-48" transform="translate(816.359375 0)"/>
     <use xlink:href="#DejaVuSans-56" transform="translate(877.890625 0)"/>
     <use xlink:href="#DejaVuSans-3" transform="translate(929.984375 0)"/>
     <use xlink:href="#DejaVuSans-b" transform="translate(961.765625 0)"/>
     <use xlink:href="#DejaVuSans-4f" transform="translate(1000.78125 0)"/>
     <use xlink:href="#DejaVuSans-44" transform="translate(1028.5625 0)"/>
     <use xlink:href="#DejaVuSans-3" transform="translate(1089.84375 0)"/>
     <use xlink:href="#DejaVuSans-4c" transform="translate(1121.625 0)"/>
     <use xlink:href="#DejaVuSans-52" transform="translate(1149.40625 0)"/>
     <use xlink:href="#DejaVuSans-51" transform="translate(1210.59375 0)"/>
     <use xlink:href="#DejaVuSans-52" transform="translate(1273.96875 0)"/>
     <use xlink:href="#DejaVuSans-c" transform="translate(1335.15625 0)"/>
     <use xlink:href="#DejaVuSans-3" transform="translate(1374.171875 0)"/>
     <use xlink:href="#DejaVuSans-e" transform="translate(1405.953125 0)"/>
     <use xlink:href="#DejaVuSans-3" transform="translate(1489.75 0)"/>
     <use xlink:href="#DejaVuSans-55" transform="translate(1521.53125 0)"/>
     <use xlink:href="#DejaVuSans-58" transform="translate(1562.640625 0)"/>
     <use xlink:href="#DejaVuSans-4c" transform="translate(1626.015625 0)"/>
     <use xlink:href="#DejaVuSans-47" transform="translate(1653.796875 0)"/>
     <use xlink:href="#DejaVuSans-52" transform="translate(1717.28125 0)"/>
     <use xlink:href="#DejaVuSans-3" transform="translate(1778.46875 0)"/>
     <use xlink:href="#DejaVuSans-61" transform="translate(1810.25 0)"/>
     <use xlink:href="#DejaVuSans-14" transform="translate(1894.046875 0)"/>
     <use xlink:href="#DejaVuSans-3" transform="translate(1957.671875 0)"/>
     <use xlink:href="#DejaVuSans-50" transform="translate(1989.453125 0)"/>
     <use xlink:href="#DejaVuSans-3" transform="translate(2086.859375 0)"/>
     <use xlink:href="#DejaVuSans-b" transform="translate(2118.640625 0)"/>
     <use xlink:href="#DejaVuSans-48" transform="translate(2157.65625 0)"/>
     <use xlink:href="#DejaVuSans-4f" transform="translate(2219.1875 0)"/>
     <use xlink:href="#DejaVuSans-3" transform="translate(2246.96875 0)"/>
     <use xlink:href="#DejaVuSans-46" transform="translate(2278.75 0)"/>
     <use xlink:href="#DejaVuSans-b5" transform="translate(2333.734375 0)"/>
     <use xlink:href="#DejaVuSans-47" transform="translate(2394.921875 0)"/>
     <use xlink:href="#DejaVuSans-4c" transform="translate(2458.40625 0)"/>
     <use xlink:href="#DejaVuSans-4a" transform="translate(2486.1875 0)"/>
     <use xlink:href="#DejaVuSans-52" transform="translate(2549.671875 0)"/>
     <use xlink:href="#DejaVuSans-c" transform="translate(2610.859375 0)"/>
     <use xlink:href="#DejaVuSans-3" transform="translate(2649.875 0)"/>
     <use xlink:href="#DejaVuSans-af6" transform="translate(2681.65625 0)"/>
     <use xlink:href="#DejaVuSans-3" transform="translate(2781.65625 0)"/>
     <use xlink:href="#DejaVuSans-28" transform="translate(2813.4375 0)"/>
     <use xlink:href="#DejaVuSans-16" transform="translate(2876.625 0)"/>
     <use xlink:href="#DejaVuSans-16" transform="translate(2940.25 0)"/>
     <use xlink:href="#DejaVuSans-3" transform="translate(3003.875 0)"/>
     <use xlink:href="#DejaVuSans-56" transform="translate(3035.65625 0)"/>
     <use xlink:href="#DejaVuSans-48" transform="translate(3087.75 0)"/>
     <use xlink:href="#DejaVuSans-3" transform="translate(3149.28125 0)"/>
     <use xlink:href="#DejaVuSans-47" transform="translate(3181.0625 0)"/>
     <use xlink:href="#DejaVuSans-4c" transform="translate(3244.546875 0)"/>
     <use xlink:href="#DejaVuSans-56" transform="translate(3272.328125 0)"/>
     <use xlink:href="#DejaVuSans-53" transform="translate(3324.421875 0)"/>
     <use xlink:href="#DejaVuSans-44" transform="translate(3387.90625 0)"/>
     <use xlink:href="#DejaVuSans-55" transform="translate(3449.1875 0)"/>
     <use xlink:href="#DejaVuSans-44" transform="translate(3490.296875 0)"/>
     <use xlink:href="#DejaVuSans-3" transform="translate(3551.578125 0)"/>
     <use xlink:href="#DejaVuSans-44" transform="translate(3583.359375 0)"/>
     <use xlink:href="#DejaVuSans-4f" transform="translate(3644.640625 0)"/>
     <use xlink:href="#DejaVuSans-3" transform="translate(3672.421875 0)"/>
     <use xlink:href="#DejaVuSans-46" transform="translate(3704.203125 0)"/>
     <use xlink:href="#DejaVuSans-44" transform="translate(3759.1875 0)"/>
     <use xlink:href="#DejaVuSans-48" transform="translate(3820.46875 0)"/>
     <use xlink:href="#DejaVuSans-55" transform="translate(3882 0)"/>
     <use xlink:href="#DejaVuSans-3" transform="translate(3923.109375 0)"/>
     <use xlink:href="#DejaVuSans-44" transform="translate(3954.890625 0)"/>
     <use xlink:href="#DejaVuSans-4f" transform="translate(4016.171875 0)"/>
     <use xlink:href="#DejaVuSans-3" transform="translate(4043.953125 0)"/>
     <use xlink:href="#DejaVuSans-4b" transform="translate(4075.734375 0)"/>
     <use xlink:href="#DejaVuSans-52" transform="translate(4139.109375 0)"/>
     <use xlink:href="#DejaVuSans-55" transform="translate(4200.296875 0)"/>
     <use xlink:href="#DejaVuSans-4c" transform="translate(4241.40625 0)"/>
     <use xlink:href="#DejaVuSans-5d" transform="translate(4269.1875 0)"/>
     <use xlink:href="#DejaVuSans-52" transform="translate(4321.671875 0)"/>
     <use xlink:href="#DejaVuSans-51" transform="translate(4382.859375 0)"/>
     <use xlink:href="#DejaVuSans-57" transform="translate(4446.234375 0)"/>
     <use xlink:href="#DejaVuSans-48" transform="translate(4485.4375 0)"/>
    </g>
   </g>
   <g id="legend_1">
    <g id="patch_7">
     <path d="M 49.982344 70.047422 
L 226.504844 70.047422 
Q 227.904844 70.047422 227.904844 68.647422 
L 227.904844 48.346328 
Q 227.904844 46.946328 226.504844 46.946328 
L 49.982344 46.946328 
Q 48.582344 46.946328 48.582344 48.346328 
L 48.582344 68.647422 
Q 48.582344 70.047422 49.982344 70.047422 
z
" style="fill: #ffffff; opacity: 0.8; stroke: #cccccc; stroke-linejoin: miter"/>
    </g>
    <g id="line2d_35">
     <path d="M 51.382344 52.615234 
L 58.382344 52.615234 
L 65.382344 52.615234 
" style="fill: none; stroke: #1f77b4; stroke-width: 1.1; stroke-linecap: square"/>
    </g>
    <g id="text_17">
     <!-- E07 -->
     <g transform="translate(70.982344 55.065234) scale(0.07 -0.07)">
      <defs>
       <path id="DejaVuSans-1a" d="M 525 4666 
L 3525 4666 
L 3525 4397 
L 1831 0 
L 1172 0 
L 2766 4134 
L 525 4134 
L 525 4666 
z
" transform="scale(0.015625)"/>
      </defs>
      <use xlink:href="#DejaVuSans-28"/>
      <use xlink:href="#DejaVuSans-13" transform="translate(63.1875 0)"/>
      <use xlink:href="#DejaVuSans-1a" transform="translate(126.8125 0)"/>
     </g>
    </g>
    <g id="line2d_36">
     <path d="M 51.382344 63.115781 
L 58.382344 63.115781 
L 65.382344 63.115781 
" style="fill: none; stroke: #ff7f0e; stroke-width: 1.1; stroke-linecap: square"/>
    </g>
    <g id="text_18">
     <!-- E19 -->
     <g transform="translate(70.982344 65.565781) scale(0.07 -0.07)">
      <defs>
       <path id="DejaVuSans-1c" d="M 703 97 
L 703 672 
Q 941 559 1184 500 
Q 1428 441 1663 441 
Q 2288 441 2617 861 
Q 2947 1281 2994 2138 
Q 2813 1869 2534 1725 
Q 2256 1581 1919 1581 
Q 1219 1581 811 2004 
Q 403 2428 403 3163 
Q 403 3881 828 4315 
Q 1253 4750 1959 4750 
Q 2769 4750 3195 4129 
Q 3622 3509 3622 2328 
Q 3622 1225 3098 567 
Q 2575 -91 1691 -91 
Q 1453 -91 1209 -44 
Q 966 3 703 97 
z
M 1959 2075 
Q 2384 2075 2632 2365 
Q 2881 2656 2881 3163 
Q 2881 3666 2632 3958 
Q 2384 4250 1959 4250 
Q 1534 4250 1286 3958 
Q 1038 3666 1038 3163 
Q 1038 2656 1286 2365 
Q 1534 2075 1959 2075 
z
" transform="scale(0.015625)"/>
      </defs>
      <use xlink:href="#DejaVuSans-28"/>
      <use xlink:href="#DejaVuSans-14" transform="translate(63.1875 0)"/>
      <use xlink:href="#DejaVuSans-1c" transform="translate(126.8125 0)"/>
     </g>
    </g>
    <g id="line2d_37">
     <path d="M 98.312969 52.615234 
L 105.312969 52.615234 
L 112.312969 52.615234 
" style="fill: none; stroke: #2ca02c; stroke-width: 1.1; stroke-linecap: square"/>
    </g>
    <g id="text_19">
     <!-- E21 -->
     <g transform="translate(117.912969 55.065234) scale(0.07 -0.07)">
      <use xlink:href="#DejaVuSans-28"/>
      <use xlink:href="#DejaVuSans-15" transform="translate(63.1875 0)"/>
      <use xlink:href="#DejaVuSans-14" transform="translate(126.8125 0)"/>
     </g>
    </g>
    <g id="line2d_38">
     <path d="M 98.312969 63.115781 
L 105.312969 63.115781 
L 112.312969 63.115781 
" style="fill: none; stroke: #d62728; stroke-width: 1.1; stroke-linecap: square"/>
    </g>
    <g id="text_20">
     <!-- E26 -->
     <g transform="translate(117.912969 65.565781) scale(0.07 -0.07)">
      <use xlink:href="#DejaVuSans-28"/>
      <use xlink:href="#DejaVuSans-15" transform="translate(63.1875 0)"/>
      <use xlink:href="#DejaVuSans-19" transform="translate(126.8125 0)"/>
     </g>
    </g>
    <g id="line2d_39">
     <path d="M 145.243594 52.615234 
L 152.243594 52.615234 
L 159.243594 52.615234 
" style="fill: none; stroke: #9467bd; stroke-width: 1.1; stroke-linecap: square"/>
    </g>
    <g id="text_21">
     <!-- E27 -->
     <g transform="translate(164.843594 55.065234) scale(0.07 -0.07)">
      <use xlink:href="#DejaVuSans-28"/>
      <use xlink:href="#DejaVuSans-15" transform="translate(63.1875 0)"/>
      <use xlink:href="#DejaVuSans-1a" transform="translate(126.8125 0)"/>
     </g>
    </g>
    <g id="line2d_40">
     <path d="M 145.243594 63.115781 
L 152.243594 63.115781 
L 159.243594 63.115781 
" style="fill: none; stroke: #8c564b; stroke-width: 1.1; stroke-linecap: square"/>
    </g>
    <g id="text_22">
     <!-- E29 -->
     <g transform="translate(164.843594 65.565781) scale(0.07 -0.07)">
      <use xlink:href="#DejaVuSans-28"/>
      <use xlink:href="#DejaVuSans-15" transform="translate(63.1875 0)"/>
      <use xlink:href="#DejaVuSans-1c" transform="translate(126.8125 0)"/>
     </g>
    </g>
    <g id="line2d_41">
     <path d="M 192.174219 52.615234 
L 199.174219 52.615234 
L 206.174219 52.615234 
" style="fill: none; stroke: #e377c2; stroke-width: 1.1; stroke-linecap: square"/>
    </g>
    <g id="text_23">
     <!-- E30 -->
     <g transform="translate(211.774219 55.065234) scale(0.07 -0.07)">
      <use xlink:href="#DejaVuSans-28"/>
      <use xlink:href="#DejaVuSans-16" transform="translate(63.1875 0)"/>
      <use xlink:href="#DejaVuSans-13" transform="translate(126.8125 0)"/>
     </g>
    </g>
    <g id="line2d_42">
     <path d="M 192.174219 63.115781 
L 199.174219 63.115781 
L 206.174219 63.115781 
" style="fill: none; stroke: #7f7f7f; stroke-width: 1.1; stroke-linecap: square"/>
    </g>
    <g id="text_24">
     <!-- E33 -->
     <g transform="translate(211.774219 65.565781) scale(0.07 -0.07)">
      <use xlink:href="#DejaVuSans-28"/>
      <use xlink:href="#DejaVuSans-16" transform="translate(63.1875 0)"/>
      <use xlink:href="#DejaVuSans-16" transform="translate(126.8125 0)"/>
     </g>
    </g>
   </g>
  </g>
 </g>
 <defs>
  <clipPath id="p7b67aed259">
   <rect x="45.082344" y="43.446328" width="592.117656" height="238.431328"/>
  </clipPath>
 </defs>
</svg>
