<?xml version="1.0" encoding="utf-8" standalone="no"?>
<!DOCTYPE svg PUBLIC "-//W3C//DTD SVG 1.1//EN"
  "http://www.w3.org/Graphics/SVG/1.1/DTD/svg11.dtd">
<svg xmlns:xlink="http://www.w3.org/1999/xlink" width="460.8pt" height="460.8pt" viewBox="0 0 460.8 460.8" xmlns="http://www.w3.org/2000/svg" version="1.1">
 <metadata>
  <rdf:RDF xmlns:dc="http://purl.org/dc/elements/1.1/" xmlns:cc="http://creativecommons.org/ns#" xmlns:rdf="http://www.w3.org/1999/02/22-rdf-syntax-ns#">
   <cc:Work>
    <dc:type rdf:resource="http://purl.org/dc/dcmitype/StillImage"/>
    <dc:date>2026-07-01T22:34:15.836955</dc:date>
    <dc:format>image/svg+xml</dc:format>
    <dc:creator>
     <cc:Agent>
      <dc:title>Matplotlib v3.11.0, https://matplotlib.org/</dc:title>
     </cc:Agent>
    </dc:creator>
   </cc:Work>
  </rdf:RDF>
 </metadata>
 <defs>
  <style type="text/css">*{stroke-linejoin: round; stroke-linecap: butt}</style>
 </defs>
 <g id="figure_1">
  <g id="patch_1">
   <path d="M 0 460.8 
L 460.8 460.8 
L 460.8 0 
L 0 0 
z
" style="fill: #ffffff"/>
  </g>
  <g id="axes_1">
   <g id="patch_2">
    <path d="M 66.463467 415.92 
L 445.802133 415.92 
L 445.802133 27.96 
L 66.463467 27.96 
z
" style="fill: #ffffff"/>
   </g>
   <g id="matplotlib.axis_1">
    <g id="xtick_1">
     <g id="line2d_1">
      <path d="M 83.706133 415.92 
L 83.706133 27.96 
" clip-path="url(#p685059640e)" style="fill: none; stroke: #b0b0b0; stroke-opacity: 0.3; stroke-width: 0.8; stroke-linecap: square"/>
     </g>
     <g id="line2d_2">
      <defs>
       <path id="m8dd161a5c5" d="M 0 0 
L 0 3.5 
" style="stroke: #000000; stroke-width: 0.8"/>
      </defs>
      <g>
       <use xlink:href="#m8dd161a5c5" x="83.706133" y="415.92" style="stroke: #000000; stroke-width: 0.8"/>
      </g>
     </g>
     <g id="text_1">
      <text style="font-size: 11px; font-family: 'DejaVu Sans', 'Bitstream Vera Sans', 'Computer Modern Sans Serif', 'Lucida Grande', 'Verdana', 'Geneva', 'Lucid', 'Arial', 'Helvetica', 'Avant Garde', sans-serif; text-anchor: middle" x="83.706133" y="431.277422" transform="rotate(-0 83.706133 431.277422)">−10.0</text>
     </g>
    </g>
    <g id="xtick_2">
     <g id="line2d_3">
      <path d="M 126.8128 415.92 
L 126.8128 27.96 
" clip-path="url(#p685059640e)" style="fill: none; stroke: #b0b0b0; stroke-opacity: 0.3; stroke-width: 0.8; stroke-linecap: square"/>
     </g>
     <g id="line2d_4">
      <g>
       <use xlink:href="#m8dd161a5c5" x="126.8128" y="415.92" style="stroke: #000000; stroke-width: 0.8"/>
      </g>
     </g>
     <g id="text_2">
      <text style="font-size: 11px; font-family: 'DejaVu Sans', 'Bitstream Vera Sans', 'Computer Modern Sans Serif', 'Lucida Grande', 'Verdana', 'Geneva', 'Lucid', 'Arial', 'Helvetica', 'Avant Garde', sans-serif; text-anchor: middle" x="126.8128" y="431.277422" transform="rotate(-0 126.8128 431.277422)">−7.5</text>
     </g>
    </g>
    <g id="xtick_3">
     <g id="line2d_5">
      <path d="M 169.919467 415.92 
L 169.919467 27.96 
" clip-path="url(#p685059640e)" style="fill: none; stroke: #b0b0b0; stroke-opacity: 0.3; stroke-width: 0.8; stroke-linecap: square"/>
     </g>
     <g id="line2d_6">
      <g>
       <use xlink:href="#m8dd161a5c5" x="169.919467" y="415.92" style="stroke: #000000; stroke-width: 0.8"/>
      </g>
     </g>
     <g id="text_3">
      <text style="font-size: 11px; font-family: 'DejaVu Sans', 'Bitstream Vera Sans', 'Computer Modern Sans Serif', 'Lucida Grande', 'Verdana', 'Geneva', 'Lucid', 'Arial', 'Helvetica', 'Avant Garde', sans-serif; text-anchor: middle" x="169.919467" y="431.277422" transform="rotate(-0 169.919467 431.277422)">−5.0</text>
     </g>
    </g>
    <g id="xtick_4">
     <g id="line2d_7">
      <path d="M 213.026133 415.92 
L 213.026133 27.96 
" clip-path="url(#p685059640e)" style="fill: none; stroke: #b0b0b0; stroke-opacity: 0.3; stroke-width: 0.8; stroke-linecap: square"/>
     </g>
     <g id="line2d_8">
      <g>
       <use xlink:href="#m8dd161a5c5" x="213.026133" y="415.92" style="stroke: #000000; stroke-width: 0.8"/>
      </g>
     </g>
     <g id="text_4">
      <text style="font-size: 11px; font-family: 'DejaVu Sans', 'Bitstream Vera Sans', 'Computer Modern Sans Serif', 'Lucida Grande', 'Verdana', 'Geneva', 'Lucid', 'Arial', 'Helvetica', 'Avant Garde', sans-serif; text-anchor: middle" x="213.026133" y="431.277422" transform="rotate(-0 213.026133 431.277422)">−2.5</text>
     </g>
    </g>
    <g id="xtick_5">
     <g id="line2d_9">
      <path d="M 256.1328 415.92 
L 256.1328 27.96 
" clip-path="url(#p685059640e)" style="fill: none; stroke: #b0b0b0; stroke-opacity: 0.3; stroke-width: 0.8; stroke-linecap: square"/>
     </g>
     <g id="line2d_10">
      <g>
       <use xlink:href="#m8dd161a5c5" x="256.1328" y="415.92" style="stroke: #000000; stroke-width: 0.8"/>
      </g>
     </g>
     <g id="text_5">
      <text style="font-size: 11px; font-family: 'DejaVu Sans', 'Bitstream Vera Sans', 'Computer Modern Sans Serif', 'Lucida Grande', 'Verdana', 'Geneva', 'Lucid', 'Arial', 'Helvetica', 'Avant Garde', sans-serif; text-anchor: middle" x="256.1328" y="431.277422" transform="rotate(-0 256.1328 431.277422)">0.0</text>
     </g>
    </g>
    <g id="xtick_6">
     <g id="line2d_11">
      <path d="M 299.239467 415.92 
L 299.239467 27.96 
" clip-path="url(#p685059640e)" style="fill: none; stroke: #b0b0b0; stroke-opacity: 0.3; stroke-width: 0.8; stroke-linecap: square"/>
     </g>
     <g id="line2d_12">
      <g>
       <use xlink:href="#m8dd161a5c5" x="299.239467" y="415.92" style="stroke: #000000; stroke-width: 0.8"/>
      </g>
     </g>
     <g id="text_6">
      <text style="font-size: 11px; font-family: 'DejaVu Sans', 'Bitstream Vera Sans', 'Computer Modern Sans Serif', 'Lucida Grande', 'Verdana', 'Geneva', 'Lucid', 'Arial', 'Helvetica', 'Avant Garde', sans-serif; text-anchor: middle" x="299.239467" y="431.277422" transform="rotate(-0 299.239467 431.277422)">2.5</text>
     </g>
    </g>
    <g id="xtick_7">
     <g id="line2d_13">
      <path d="M 342.346133 415.92 
L 342.346133 27.96 
" clip-path="url(#p685059640e)" style="fill: none; stroke: #b0b0b0; stroke-opacity: 0.3; stroke-width: 0.8; stroke-linecap: square"/>
     </g>
     <g id="line2d_14">
      <g>
       <use xlink:href="#m8dd161a5c5" x="342.346133" y="415.92" style="stroke: #000000; stroke-width: 0.8"/>
      </g>
     </g>
     <g id="text_7">
      <text style="font-size: 11px; font-family: 'DejaVu Sans', 'Bitstream Vera Sans', 'Computer Modern Sans Serif', 'Lucida Grande', 'Verdana', 'Geneva', 'Lucid', 'Arial', 'Helvetica', 'Avant Garde', sans-serif; text-anchor: middle" x="342.346133" y="431.277422" transform="rotate(-0 342.346133 431.277422)">5.0</text>
     </g>
    </g>
    <g id="xtick_8">
     <g id="line2d_15">
      <path d="M 385.4528 415.92 
L 385.4528 27.96 
" clip-path="url(#p685059640e)" style="fill: none; stroke: #b0b0b0; stroke-opacity: 0.3; stroke-width: 0.8; stroke-linecap: square"/>
     </g>
     <g id="line2d_16">
      <g>
       <use xlink:href="#m8dd161a5c5" x="385.4528" y="415.92" style="stroke: #000000; stroke-width: 0.8"/>
      </g>
     </g>
     <g id="text_8">
      <text style="font-size: 11px; font-family: 'DejaVu Sans', 'Bitstream Vera Sans', 'Computer Modern Sans Serif', 'Lucida Grande', 'Verdana', 'Geneva', 'Lucid', 'Arial', 'Helvetica', 'Avant Garde', sans-serif; text-anchor: middle" x="385.4528" y="431.277422" transform="rotate(-0 385.4528 431.277422)">7.5</text>
     </g>
    </g>
    <g id="xtick_9">
     <g id="line2d_17">
      <path d="M 428.559467 415.92 
L 428.559467 27.96 
" clip-path="url(#p685059640e)" style="fill: none; stroke: #b0b0b0; stroke-opacity: 0.3; stroke-width: 0.8; stroke-linecap: square"/>
     </g>
     <g id="line2d_18">
      <g>
       <use xlink:href="#m8dd161a5c5" x="428.559467" y="415.92" style="stroke: #000000; stroke-width: 0.8"/>
      </g>
     </g>
     <g id="text_9">
      <text style="font-size: 11px; font-family: 'DejaVu Sans', 'Bitstream Vera Sans', 'Computer Modern Sans Serif', 'Lucida Grande', 'Verdana', 'Geneva', 'Lucid', 'Arial', 'Helvetica', 'Avant Garde', sans-serif; text-anchor: middle" x="428.559467" y="431.277422" transform="rotate(-0 428.559467 431.277422)">10.0</text>
     </g>
    </g>
    <g id="text_10">
     <text style="font-size: 11px; font-family: 'DejaVu Sans', 'Bitstream Vera Sans', 'Computer Modern Sans Serif', 'Lucida Grande', 'Verdana', 'Geneva', 'Lucid', 'Arial', 'Helvetica', 'Avant Garde', sans-serif; text-anchor: middle" x="256.1328" y="446.277422" transform="rotate(-0 256.1328 446.277422)">x</text>
    </g>
   </g>
   <g id="matplotlib.axis_2">
    <g id="ytick_1">
     <g id="line2d_19">
      <path d="M 66.463467 390.056 
L 445.802133 390.056 
" clip-path="url(#p685059640e)" style="fill: none; stroke: #b0b0b0; stroke-opacity: 0.3; stroke-width: 0.8; stroke-linecap: square"/>
     </g>
     <g id="line2d_20">
      <defs>
       <path id="mc46073fc96" d="M 0 0 
L -3.5 0 
" style="stroke: #000000; stroke-width: 0.8"/>
      </defs>
      <g>
       <use xlink:href="#mc46073fc96" x="66.463467" y="390.056" style="stroke: #000000; stroke-width: 0.8"/>
      </g>
     </g>
     <g id="text_11">
      <text style="font-size: 11px; font-family: 'DejaVu Sans', 'Bitstream Vera Sans', 'Computer Modern Sans Serif', 'Lucida Grande', 'Verdana', 'Geneva', 'Lucid', 'Arial', 'Helvetica', 'Avant Garde', sans-serif; text-anchor: end" x="59.463467" y="394.234711" transform="rotate(-0 59.463467 394.234711)">−10.0</text>
     </g>
    </g>
    <g id="ytick_2">
     <g id="line2d_21">
      <path d="M 66.463467 346.949333 
L 445.802133 346.949333 
" clip-path="url(#p685059640e)" style="fill: none; stroke: #b0b0b0; stroke-opacity: 0.3; stroke-width: 0.8; stroke-linecap: square"/>
     </g>
     <g id="line2d_22">
      <g>
       <use xlink:href="#mc46073fc96" x="66.463467" y="346.949333" style="stroke: #000000; stroke-width: 0.8"/>
      </g>
     </g>
     <g id="text_12">
      <text style="font-size: 11px; font-family: 'DejaVu Sans', 'Bitstream Vera Sans', 'Computer Modern Sans Serif', 'Lucida Grande', 'Verdana', 'Geneva', 'Lucid', 'Arial', 'Helvetica', 'Avant Garde', sans-serif; text-anchor: end" x="59.463467" y="351.128044" transform="rotate(-0 59.463467 351.128044)">−7.5</text>
     </g>
    </g>
    <g id="ytick_3">
     <g id="line2d_23">
      <path d="M 66.463467 303.842667 
L 445.802133 303.842667 
" clip-path="url(#p685059640e)" style="fill: none; stroke: #b0b0b0; stroke-opacity: 0.3; stroke-width: 0.8; stroke-linecap: square"/>
     </g>
     <g id="line2d_24">
      <g>
       <use xlink:href="#mc46073fc96" x="66.463467" y="303.842667" style="stroke: #000000; stroke-width: 0.8"/>
      </g>
     </g>
     <g id="text_13">
      <text style="font-size: 11px; font-family: 'DejaVu Sans', 'Bitstream Vera Sans', 'Computer Modern Sans Serif', 'Lucida Grande', 'Verdana', 'Geneva', 'Lucid', 'Arial', 'Helvetica', 'Avant Garde', sans-serif; text-anchor: end" x="59.463467" y="308.021378" transform="rotate(-0 59.463467 308.021378)">−5.0</text>
     </g>
    </g>
    <g id="ytick_4">
     <g id="line2d_25">
      <path d="M 66.463467 260.736 
L 445.802133 260.736 
" clip-path="url(#p685059640e)" style="fill: none; stroke: #b0b0b0; stroke-opacity: 0.3; stroke-width: 0.8; stroke-linecap: square"/>
     </g>
     <g id="line2d_26">
      <g>
       <use xlink:href="#mc46073fc96" x="66.463467" y="260.736" style="stroke: #000000; stroke-width: 0.8"/>
      </g>
     </g>
     <g id="text_14">
      <text style="font-size: 11px; font-family: 'DejaVu Sans', 'Bitstream Vera Sans', 'Computer Modern Sans Serif', 'Lucida Grande', 'Verdana', 'Geneva', 'Lucid', 'Arial', 'Helvetica', 'Avant Garde', sans-serif; text-anchor: end" x="59.463467" y="264.914711" transform="rotate(-0 59.463467 264.914711)">−2.5</text>
     </g>
    </g>
    <g id="ytick_5">
     <g id="line2d_27">
      <path d="M 66.463467 217.629333 
L 445.802133 217.629333 
" clip-path="url(#p685059640e)" style="fill: none; stroke: #b0b0b0; stroke-opacity: 0.3; stroke-width: 0.8; stroke-linecap: square"/>
     </g>
     <g id="line2d_28">
      <g>
       <use xlink:href="#mc46073fc96" x="66.463467" y="217.629333" style="stroke: #000000; stroke-width: 0.8"/>
      </g>
     </g>
     <g id="text_15">
      <text style="font-size: 11px; font-family: 'DejaVu Sans', 'Bitstream Vera Sans', 'Computer Modern Sans Serif', 'Lucida Grande', 'Verdana', 'Geneva', 'Lucid', 'Arial', 'Helvetica', 'Avant Garde', sans-serif; text-anchor: end" x="59.463467" y="221.808044" transform="rotate(-0 59.463467 221.808044)">0.0</text>
     </g>
    </g>
    <g id="ytick_6">
     <g id="line2d_29">
      <path d="M 66.463467 174.522667 
L 445.802133 174.522667 
" clip-path="url(#p685059640e)" style="fill: none; stroke: #b0b0b0; stroke-opacity: 0.3; stroke-width: 0.8; stroke-linecap: square"/>
     </g>
     <g id="line2d_30">
      <g>
       <use xlink:href="#mc46073fc96" x="66.463467" y="174.522667" style="stroke: #000000; stroke-width: 0.8"/>
      </g>
     </g>
     <g id="text_16">
      <text style="font-size: 11px; font-family: 'DejaVu Sans', 'Bitstream Vera Sans', 'Computer Modern Sans Serif', 'Lucida Grande', 'Verdana', 'Geneva', 'Lucid', 'Arial', 'Helvetica', 'Avant Garde', sans-serif; text-anchor: end" x="59.463467" y="178.701378" transform="rotate(-0 59.463467 178.701378)">2.5</text>
     </g>
    </g>
    <g id="ytick_7">
     <g id="line2d_31">
      <path d="M 66.463467 131.416 
L 445.802133 131.416 
" clip-path="url(#p685059640e)" style="fill: none; stroke: #b0b0b0; stroke-opacity: 0.3; stroke-width: 0.8; stroke-linecap: square"/>
     </g>
     <g id="line2d_32">
      <g>
       <use xlink:href="#mc46073fc96" x="66.463467" y="131.416" style="stroke: #000000; stroke-width: 0.8"/>
      </g>
     </g>
     <g id="text_17">
      <text style="font-size: 11px; font-family: 'DejaVu Sans', 'Bitstream Vera Sans', 'Computer Modern Sans Serif', 'Lucida Grande', 'Verdana', 'Geneva', 'Lucid', 'Arial', 'Helvetica', 'Avant Garde', sans-serif; text-anchor: end" x="59.463467" y="135.594711" transform="rotate(-0 59.463467 135.594711)">5.0</text>
     </g>
    </g>
    <g id="ytick_8">
     <g id="line2d_33">
      <path d="M 66.463467 88.309333 
L 445.802133 88.309333 
" clip-path="url(#p685059640e)" style="fill: none; stroke: #b0b0b0; stroke-opacity: 0.3; stroke-width: 0.8; stroke-linecap: square"/>
     </g>
     <g id="line2d_34">
      <g>
       <use xlink:href="#mc46073fc96" x="66.463467" y="88.309333" style="stroke: #000000; stroke-width: 0.8"/>
      </g>
     </g>
     <g id="text_18">
      <text style="font-size: 11px; font-family: 'DejaVu Sans', 'Bitstream Vera Sans', 'Computer Modern Sans Serif', 'Lucida Grande', 'Verdana', 'Geneva', 'Lucid', 'Arial', 'Helvetica', 'Avant Garde', sans-serif; text-anchor: end" x="59.463467" y="92.488044" transform="rotate(-0 59.463467 92.488044)">7.5</text>
     </g>
    </g>
    <g id="ytick_9">
     <g id="line2d_35">
      <path d="M 66.463467 45.202667 
L 445.802133 45.202667 
" clip-path="url(#p685059640e)" style="fill: none; stroke: #b0b0b0; stroke-opacity: 0.3; stroke-width: 0.8; stroke-linecap: square"/>
     </g>
     <g id="line2d_36">
      <g>
       <use xlink:href="#mc46073fc96" x="66.463467" y="45.202667" style="stroke: #000000; stroke-width: 0.8"/>
      </g>
     </g>
     <g id="text_19">
      <text style="font-size: 11px; font-family: 'DejaVu Sans', 'Bitstream Vera Sans', 'Computer Modern Sans Serif', 'Lucida Grande', 'Verdana', 'Geneva', 'Lucid', 'Arial', 'Helvetica', 'Avant Garde', sans-serif; text-anchor: end" x="59.463467" y="49.381378" transform="rotate(-0 59.463467 49.381378)">10.0</text>
     </g>
    </g>
    <g id="text_20">
     <text style="font-size: 11px; font-family: 'DejaVu Sans', 'Bitstream Vera Sans', 'Computer Modern Sans Serif', 'Lucida Grande', 'Verdana', 'Geneva', 'Lucid', 'Arial', 'Helvetica', 'Avant Garde', sans-serif; text-anchor: middle" x="19.111045" y="221.94" transform="rotate(-90 19.111045 221.94)">y</text>
    </g>
   </g>
   <g id="line2d_37">
    <path d="M 394.074133 148.658667 
L 393.977946 144.587292 
L 393.689597 140.525001 
L 393.20973 136.480861 
L 392.539417 132.463893 
L 391.680152 128.483063 
L 390.633854 124.547252 
L 389.402857 120.665243 
L 387.989908 116.845699 
L 386.398159 113.097141 
L 384.631163 109.427935 
L 382.692862 105.846269 
L 380.587581 102.360133 
L 378.320018 98.977308 
L 375.895234 95.705341 
L 373.318638 92.551534 
L 370.59598 89.522924 
L 367.733335 86.626269 
L 364.737091 83.868032 
L 361.613934 81.254368 
L 358.370833 78.79111 
L 355.015024 76.483754 
L 351.553995 74.337448 
L 347.99547 72.356982 
L 344.347389 70.546775 
L 340.617892 68.910866 
L 336.815301 67.452905 
L 332.948101 66.176146 
L 329.024922 65.083438 
L 325.054517 64.177219 
L 321.045747 63.459512 
L 317.007555 62.931916 
L 312.948954 62.595611 
L 308.878999 62.451346 
L 304.806772 62.499443 
L 300.741359 62.739796 
L 296.691833 63.171866 
L 292.66723 63.794692 
L 288.676529 64.606882 
L 284.728635 65.606624 
L 280.832359 66.791688 
L 276.996393 68.159429 
L 273.229298 69.706796 
L 269.53948 71.430335 
L 265.935171 73.3262 
L 262.424415 75.390162 
L 259.015046 77.617614 
L 255.71467 80.003587 
L 252.530652 82.542756 
L 249.470098 85.229456 
L 246.539836 88.057691 
L 243.746406 91.02115 
L 241.096039 94.113222 
L 238.594651 97.327005 
L 236.247823 100.65533 
L 234.060791 104.090768 
L 232.038436 107.625655 
L 230.185271 111.252103 
L 228.505429 114.96202 
L 227.002661 118.747127 
L 225.680319 122.598978 
L 224.541354 126.508978 
L 223.588306 130.468404 
L 222.823304 134.468418 
L 222.248054 138.500097 
L 221.863839 142.554444 
L 221.671517 146.622411 
L 221.671517 150.694922 
L 221.863839 154.76289 
L 222.248054 158.817236 
L 222.823304 162.848915 
L 223.588306 166.84893 
L 224.541354 170.808355 
L 225.680319 174.718356 
L 227.002661 178.570207 
L 228.505429 182.355314 
L 230.185271 186.06523 
L 232.038436 189.691678 
L 234.060791 193.226565 
L 236.247823 196.662004 
L 238.594651 199.990328 
L 241.096039 203.204112 
L 243.746406 206.296183 
L 246.539836 209.259642 
L 249.470098 212.087877 
L 252.530652 214.774577 
L 255.71467 217.313746 
L 259.015046 219.699719 
L 262.424415 221.927171 
L 265.935171 223.991133 
L 269.53948 225.886999 
L 273.229298 227.610538 
L 276.996393 229.157904 
L 280.832359 230.525645 
L 284.728635 231.710709 
L 288.676529 232.710452 
L 292.66723 233.522642 
L 296.691833 234.145467 
L 300.741359 234.577538 
L 304.806772 234.81789 
L 308.878999 234.865987 
L 312.948954 234.721722 
L 317.007555 234.385417 
L 321.045747 233.857822 
L 325.054517 233.140114 
L 329.024922 232.233895 
L 332.948101 231.141187 
L 336.815301 229.864428 
L 340.617892 228.406468 
L 344.347389 226.770559 
L 347.99547 224.960351 
L 351.553995 222.979885 
L 355.015024 220.833579 
L 358.370833 218.526223 
L 361.613934 216.062965 
L 364.737091 213.449301 
L 367.733335 210.691065 
L 370.59598 207.794409 
L 373.318638 204.765799 
L 375.895234 201.611992 
L 378.320018 198.340025 
L 380.587581 194.9572 
L 382.692862 191.471065 
L 384.631163 187.889398 
L 386.398159 184.220192 
L 387.989908 180.471635 
L 389.402857 176.65209 
L 390.633854 172.770081 
L 391.680152 168.834271 
L 392.539417 164.85344 
L 393.20973 160.836473 
L 393.689597 156.792332 
L 393.977946 152.730042 
L 394.074133 148.658667 
L 394.074133 148.658667 
" clip-path="url(#p685059640e)" style="fill: none; stroke: #1f77b4; stroke-width: 1.6; stroke-linecap: square"/>
   </g>
   <g id="line2d_38">
    <path d="M 411.3168 148.658667 
L 411.201375 143.773017 
L 410.855356 138.898268 
L 410.279516 134.045299 
L 409.47514 129.224939 
L 408.444023 124.447942 
L 407.188465 119.724969 
L 405.711269 115.066558 
L 404.015729 110.483105 
L 402.105631 105.984836 
L 399.985235 101.581789 
L 397.659274 97.283789 
L 395.132937 93.100427 
L 392.411862 89.041036 
L 389.502121 85.114676 
L 386.410205 81.330108 
L 383.143016 77.695775 
L 379.707842 74.219789 
L 376.112349 70.909905 
L 372.364561 67.773509 
L 368.472839 64.817599 
L 364.445869 62.048771 
L 360.292635 59.473204 
L 356.022404 57.096645 
L 351.644707 54.924396 
L 347.169311 52.961305 
L 342.606201 51.211753 
L 337.965562 49.679642 
L 333.257747 48.368393 
L 328.493261 47.28093 
L 323.682736 46.419681 
L 318.836906 45.786566 
L 313.966585 45.383 
L 309.082639 45.209882 
L 304.195966 45.267599 
L 299.317471 45.556021 
L 294.45804 46.074506 
L 289.628515 46.821897 
L 284.839674 47.796525 
L 280.102202 48.996215 
L 275.42667 50.418292 
L 270.823512 52.059582 
L 266.302998 53.916421 
L 261.875216 55.984668 
L 257.550046 58.259707 
L 253.337138 60.736461 
L 249.245895 63.409404 
L 245.285444 66.272571 
L 241.464623 69.319574 
L 237.791958 72.543614 
L 234.275644 75.937496 
L 230.923527 79.493647 
L 227.743087 83.204133 
L 224.741421 87.060673 
L 221.925228 91.054662 
L 219.30079 95.177189 
L 216.873964 99.419053 
L 214.650165 103.770791 
L 212.634355 108.22269 
L 210.831033 112.764819 
L 209.244223 117.38704 
L 207.877464 122.079041 
L 206.733808 126.830351 
L 205.815805 131.630369 
L 205.125505 136.468383 
L 204.664447 141.333599 
L 204.43366 146.21516 
L 204.43366 151.102173 
L 204.664447 155.983734 
L 205.125505 160.84895 
L 205.815805 165.686965 
L 206.733808 170.486982 
L 207.877464 175.238293 
L 209.244223 179.930293 
L 210.831033 184.552515 
L 212.634355 189.094643 
L 214.650165 193.546543 
L 216.873964 197.89828 
L 219.30079 202.140145 
L 221.925228 206.262671 
L 224.741421 210.256661 
L 227.743087 214.113201 
L 230.923527 217.823686 
L 234.275644 221.379838 
L 237.791958 224.77372 
L 241.464623 227.997759 
L 245.285444 231.044762 
L 249.245895 233.907929 
L 253.337138 236.580872 
L 257.550046 239.057626 
L 261.875216 241.332665 
L 266.302998 243.400912 
L 270.823512 245.257752 
L 275.42667 246.899041 
L 280.102202 248.321118 
L 284.839674 249.520809 
L 289.628515 250.495437 
L 294.45804 251.242827 
L 299.317471 251.761312 
L 304.195966 252.049735 
L 309.082639 252.107451 
L 313.966585 251.934333 
L 318.836906 251.530767 
L 323.682736 250.897653 
L 328.493261 250.036403 
L 333.257747 248.948941 
L 337.965562 247.637691 
L 342.606201 246.10558 
L 347.169311 244.356028 
L 351.644707 242.392937 
L 356.022404 240.220688 
L 360.292635 237.844129 
L 364.445869 235.268562 
L 368.472839 232.499734 
L 372.364561 229.543825 
L 376.112349 226.407428 
L 379.707842 223.097544 
L 383.143016 219.621558 
L 386.410205 215.987226 
L 389.502121 212.202657 
L 392.411862 208.276297 
L 395.132937 204.216907 
L 397.659274 200.033544 
L 399.985235 195.735544 
L 402.105631 191.332497 
L 404.015729 186.834228 
L 405.711269 182.250775 
L 407.188465 177.592364 
L 408.444023 172.869391 
L 409.47514 168.092395 
L 410.279516 163.272034 
L 410.855356 158.419065 
L 411.201375 153.544317 
L 411.3168 148.658667 
L 411.3168 148.658667 
" clip-path="url(#p685059640e)" style="fill: none; stroke-dasharray: 5.18,2.24; stroke-dashoffset: 0; stroke: #d62728; stroke-width: 1.4"/>
   </g>
   <g id="line2d_39">
    <defs>
     <path id="mb6018a63a8" d="M 0 -5 
L -5 5 
L 5 5 
z
" style="stroke: #000000; stroke-linejoin: miter"/>
    </defs>
    <g clip-path="url(#p685059640e)">
     <use xlink:href="#mb6018a63a8" x="307.8608" y="148.658667" style="stroke: #000000; stroke-linejoin: miter"/>
    </g>
   </g>
   <g id="line2d_40">
    <path d="M 273.375467 165.901333 
L 273.279279 161.829958 
L 272.99093 157.767668 
L 272.511064 153.723527 
L 271.84075 149.70656 
L 270.981486 145.725729 
L 269.935188 141.789919 
L 268.70419 137.90791 
L 267.291241 134.088365 
L 265.699492 130.339808 
L 263.932496 126.670602 
L 261.994195 123.088935 
L 259.888914 119.6028 
L 257.621352 116.219975 
L 255.196567 112.948008 
L 252.619971 109.794201 
L 249.897313 106.765591 
L 247.034668 103.868935 
L 244.038424 101.110699 
L 240.915267 98.497035 
L 237.672166 96.033777 
L 234.316357 93.726421 
L 230.855329 91.580115 
L 227.296804 89.599649 
L 223.648723 87.789441 
L 219.919225 86.153532 
L 216.116635 84.695572 
L 212.249435 83.418813 
L 208.326255 82.326105 
L 204.355851 81.419886 
L 200.34708 80.702178 
L 196.308889 80.174583 
L 192.250287 79.838278 
L 188.180332 79.694013 
L 184.108105 79.74211 
L 180.042693 79.982462 
L 175.993167 80.414533 
L 171.968563 81.037358 
L 167.977862 81.849548 
L 164.029969 82.849291 
L 160.133692 84.034355 
L 156.297727 85.402096 
L 152.530632 86.949462 
L 148.840813 88.673001 
L 145.236505 90.568867 
L 141.725749 92.632829 
L 138.316379 94.860281 
L 135.016003 97.246254 
L 131.831986 99.785423 
L 128.771431 102.472123 
L 125.84117 105.300358 
L 123.047739 108.263817 
L 120.397373 111.355888 
L 117.895985 114.569672 
L 115.549156 117.897996 
L 113.362125 121.333435 
L 111.33977 124.868322 
L 109.486604 128.49477 
L 107.806763 132.204686 
L 106.303994 135.989793 
L 104.981652 139.841644 
L 103.842687 143.751645 
L 102.88964 147.71107 
L 102.124637 151.711085 
L 101.549387 155.742764 
L 101.165172 159.79711 
L 100.97285 163.865078 
L 100.97285 167.937589 
L 101.165172 172.005556 
L 101.549387 176.059903 
L 102.124637 180.091582 
L 102.88964 184.091596 
L 103.842687 188.051022 
L 104.981652 191.961022 
L 106.303994 195.812873 
L 107.806763 199.59798 
L 109.486604 203.307897 
L 111.33977 206.934345 
L 113.362125 210.469232 
L 115.549156 213.90467 
L 117.895985 217.232995 
L 120.397373 220.446778 
L 123.047739 223.53885 
L 125.84117 226.502309 
L 128.771431 229.330544 
L 131.831986 232.017244 
L 135.016003 234.556413 
L 138.316379 236.942386 
L 141.725749 239.169838 
L 145.236505 241.2338 
L 148.840813 243.129665 
L 152.530632 244.853204 
L 156.297727 246.400571 
L 160.133692 247.768312 
L 164.029969 248.953376 
L 167.977862 249.953118 
L 171.968563 250.765308 
L 175.993167 251.388134 
L 180.042693 251.820204 
L 184.108105 252.060557 
L 188.180332 252.108654 
L 192.250287 251.964389 
L 196.308889 251.628084 
L 200.34708 251.100488 
L 204.355851 250.382781 
L 208.326255 249.476562 
L 212.249435 248.383854 
L 216.116635 247.107095 
L 219.919225 245.649134 
L 223.648723 244.013225 
L 227.296804 242.203018 
L 230.855329 240.222552 
L 234.316357 238.076246 
L 237.672166 235.76889 
L 240.915267 233.305632 
L 244.038424 230.691968 
L 247.034668 227.933731 
L 249.897313 225.037076 
L 252.619971 222.008466 
L 255.196567 218.854659 
L 257.621352 215.582692 
L 259.888914 212.199867 
L 261.994195 208.713731 
L 263.932496 205.132065 
L 265.699492 201.462859 
L 267.291241 197.714301 
L 268.70419 193.894757 
L 269.935188 190.012748 
L 270.981486 186.076937 
L 271.84075 182.096107 
L 272.511064 178.079139 
L 272.99093 174.034999 
L 273.279279 169.972708 
L 273.375467 165.901333 
L 273.375467 165.901333 
" clip-path="url(#p685059640e)" style="fill: none; stroke: #1f77b4; stroke-width: 1.6; stroke-linecap: square"/>
   </g>
   <g id="line2d_41">
    <path d="M 290.618133 165.901333 
L 290.502708 161.015683 
L 290.156689 156.140935 
L 289.58085 151.287966 
L 288.776474 146.467605 
L 287.745356 141.690609 
L 286.489799 136.967636 
L 285.012602 132.309225 
L 283.317063 127.725772 
L 281.406964 123.227503 
L 279.286568 118.824456 
L 276.960607 114.526456 
L 274.43427 110.343093 
L 271.713195 106.283703 
L 268.803454 102.357343 
L 265.711539 98.572774 
L 262.444349 94.938442 
L 259.009175 91.462456 
L 255.413683 88.152572 
L 251.665894 85.016175 
L 247.774173 82.060266 
L 243.747202 79.291438 
L 239.593968 76.715871 
L 235.323738 74.339312 
L 230.94604 72.167063 
L 226.470644 70.203972 
L 221.907535 68.45442 
L 217.266895 66.922309 
L 212.55908 65.611059 
L 207.794594 64.523597 
L 202.984069 63.662347 
L 198.13824 63.029233 
L 193.267918 62.625667 
L 188.383972 62.452549 
L 183.497299 62.510265 
L 178.618805 62.798688 
L 173.759373 63.317173 
L 168.929849 64.064563 
L 164.141008 65.039191 
L 159.403536 66.238882 
L 154.728004 67.660959 
L 150.124845 69.302248 
L 145.604331 71.159088 
L 141.176549 73.227335 
L 136.851379 75.502374 
L 132.638472 77.979128 
L 128.547228 80.652071 
L 124.586777 83.515238 
L 120.765956 86.562241 
L 117.093291 89.78628 
L 113.576977 93.180162 
L 110.22486 96.736314 
L 107.044421 100.446799 
L 104.042755 104.303339 
L 101.226561 108.297329 
L 98.602123 112.419855 
L 96.175297 116.66172 
L 93.951498 121.013457 
L 91.935689 125.465357 
L 90.132367 130.007485 
L 88.545556 134.629707 
L 87.178798 139.321707 
L 86.035141 144.073018 
L 85.117138 148.873035 
L 84.426838 153.71105 
L 83.96578 158.576266 
L 83.734994 163.457827 
L 83.734994 168.34484 
L 83.96578 173.226401 
L 84.426838 178.091617 
L 85.117138 182.929631 
L 86.035141 187.729649 
L 87.178798 192.480959 
L 88.545556 197.17296 
L 90.132367 201.795181 
L 91.935689 206.33731 
L 93.951498 210.789209 
L 96.175297 215.140947 
L 98.602123 219.382811 
L 101.226561 223.505338 
L 104.042755 227.499327 
L 107.044421 231.355867 
L 110.22486 235.066353 
L 113.576977 238.622504 
L 117.093291 242.016386 
L 120.765956 245.240426 
L 124.586777 248.287429 
L 128.547228 251.150596 
L 132.638472 253.823539 
L 136.851379 256.300293 
L 141.176549 258.575332 
L 145.604331 260.643579 
L 150.124845 262.500418 
L 154.728004 264.141708 
L 159.403536 265.563785 
L 164.141008 266.763475 
L 168.929849 267.738103 
L 173.759373 268.485494 
L 178.618805 269.003979 
L 183.497299 269.292401 
L 188.383972 269.350118 
L 193.267918 269.177 
L 198.13824 268.773434 
L 202.984069 268.140319 
L 207.794594 267.27907 
L 212.55908 266.191607 
L 217.266895 264.880358 
L 221.907535 263.348247 
L 226.470644 261.598695 
L 230.94604 259.635604 
L 235.323738 257.463355 
L 239.593968 255.086796 
L 243.747202 252.511229 
L 247.774173 249.742401 
L 251.665894 246.786491 
L 255.413683 243.650095 
L 259.009175 240.340211 
L 262.444349 236.864225 
L 265.711539 233.229892 
L 268.803454 229.445324 
L 271.713195 225.518964 
L 274.43427 221.459573 
L 276.960607 217.276211 
L 279.286568 212.978211 
L 281.406964 208.575164 
L 283.317063 204.076895 
L 285.012602 199.493442 
L 286.489799 194.835031 
L 287.745356 190.112058 
L 288.776474 185.335061 
L 289.58085 180.514701 
L 290.156689 175.661732 
L 290.502708 170.786983 
L 290.618133 165.901333 
L 290.618133 165.901333 
" clip-path="url(#p685059640e)" style="fill: none; stroke-dasharray: 5.18,2.24; stroke-dashoffset: 0; stroke: #d62728; stroke-width: 1.4"/>
   </g>
   <g id="line2d_42">
    <g clip-path="url(#p685059640e)">
     <use xlink:href="#mb6018a63a8" x="187.162133" y="165.901333" style="stroke: #000000; stroke-linejoin: miter"/>
    </g>
   </g>
   <g id="line2d_43">
    <path d="M 342.346133 303.842667 
L 342.249946 299.771292 
L 341.961597 295.709001 
L 341.48173 291.664861 
L 340.811417 287.647893 
L 339.952152 283.667063 
L 338.905854 279.731252 
L 337.674857 275.849243 
L 336.261908 272.029699 
L 334.670159 268.281141 
L 332.903163 264.611935 
L 330.964862 261.030269 
L 328.859581 257.544133 
L 326.592018 254.161308 
L 324.167234 250.889341 
L 321.590638 247.735534 
L 318.86798 244.706924 
L 316.005335 241.810269 
L 313.009091 239.052032 
L 309.885934 236.438368 
L 306.642833 233.97511 
L 303.287024 231.667754 
L 299.825995 229.521448 
L 296.26747 227.540982 
L 292.619389 225.730775 
L 288.889892 224.094866 
L 285.087301 222.636905 
L 281.220101 221.360146 
L 277.296922 220.267438 
L 273.326517 219.361219 
L 269.317747 218.643512 
L 265.279555 218.115916 
L 261.220954 217.779611 
L 257.150999 217.635346 
L 253.078772 217.683443 
L 249.013359 217.923796 
L 244.963833 218.355866 
L 240.93923 218.978692 
L 236.948529 219.790882 
L 233.000635 220.790624 
L 229.104359 221.975688 
L 225.268393 223.343429 
L 221.501298 224.890796 
L 217.81148 226.614335 
L 214.207171 228.5102 
L 210.696415 230.574162 
L 207.287046 232.801614 
L 203.98667 235.187587 
L 200.802652 237.726756 
L 197.742098 240.413456 
L 194.811836 243.241691 
L 192.018406 246.20515 
L 189.368039 249.297222 
L 186.866651 252.511005 
L 184.519823 255.83933 
L 182.332791 259.274768 
L 180.310436 262.809655 
L 178.457271 266.436103 
L 176.777429 270.14602 
L 175.274661 273.931127 
L 173.952319 277.782978 
L 172.813354 281.692978 
L 171.860306 285.652404 
L 171.095304 289.652418 
L 170.520054 293.684097 
L 170.135839 297.738444 
L 169.943517 301.806411 
L 169.943517 305.878922 
L 170.135839 309.94689 
L 170.520054 314.001236 
L 171.095304 318.032915 
L 171.860306 322.03293 
L 172.813354 325.992355 
L 173.952319 329.902356 
L 175.274661 333.754207 
L 176.777429 337.539314 
L 178.457271 341.24923 
L 180.310436 344.875678 
L 182.332791 348.410565 
L 184.519823 351.846004 
L 186.866651 355.174328 
L 189.368039 358.388112 
L 192.018406 361.480183 
L 194.811836 364.443642 
L 197.742098 367.271877 
L 200.802652 369.958577 
L 203.98667 372.497746 
L 207.287046 374.883719 
L 210.696415 377.111171 
L 214.207171 379.175133 
L 217.81148 381.070999 
L 221.501298 382.794538 
L 225.268393 384.341904 
L 229.104359 385.709645 
L 233.000635 386.894709 
L 236.948529 387.894452 
L 240.93923 388.706642 
L 244.963833 389.329467 
L 249.013359 389.761538 
L 253.078772 390.00189 
L 257.150999 390.049987 
L 261.220954 389.905722 
L 265.279555 389.569417 
L 269.317747 389.041822 
L 273.326517 388.324114 
L 277.296922 387.417895 
L 281.220101 386.325187 
L 285.087301 385.048428 
L 288.889892 383.590468 
L 292.619389 381.954559 
L 296.26747 380.144351 
L 299.825995 378.163885 
L 303.287024 376.017579 
L 306.642833 373.710223 
L 309.885934 371.246965 
L 313.009091 368.633301 
L 316.005335 365.875065 
L 318.86798 362.978409 
L 321.590638 359.949799 
L 324.167234 356.795992 
L 326.592018 353.524025 
L 328.859581 350.1412 
L 330.964862 346.655065 
L 332.903163 343.073398 
L 334.670159 339.404192 
L 336.261908 335.655635 
L 337.674857 331.83609 
L 338.905854 327.954081 
L 339.952152 324.018271 
L 340.811417 320.03744 
L 341.48173 316.020473 
L 341.961597 311.976332 
L 342.249946 307.914042 
L 342.346133 303.842667 
L 342.346133 303.842667 
" clip-path="url(#p685059640e)" style="fill: none; stroke: #1f77b4; stroke-width: 1.6; stroke-linecap: square"/>
   </g>
   <g id="line2d_44">
    <path d="M 359.5888 303.842667 
L 359.473375 298.957017 
L 359.127356 294.082268 
L 358.551516 289.229299 
L 357.74714 284.408939 
L 356.716023 279.631942 
L 355.460465 274.908969 
L 353.983269 270.250558 
L 352.287729 265.667105 
L 350.377631 261.168836 
L 348.257235 256.765789 
L 345.931274 252.467789 
L 343.404937 248.284427 
L 340.683862 244.225036 
L 337.774121 240.298676 
L 334.682205 236.514108 
L 331.415016 232.879775 
L 327.979842 229.403789 
L 324.384349 226.093905 
L 320.636561 222.957509 
L 316.744839 220.001599 
L 312.717869 217.232771 
L 308.564635 214.657204 
L 304.294404 212.280645 
L 299.916707 210.108396 
L 295.441311 208.145305 
L 290.878201 206.395753 
L 286.237562 204.863642 
L 281.529747 203.552393 
L 276.765261 202.46493 
L 271.954736 201.603681 
L 267.108906 200.970566 
L 262.238585 200.567 
L 257.354639 200.393882 
L 252.467966 200.451599 
L 247.589471 200.740021 
L 242.73004 201.258506 
L 237.900515 202.005897 
L 233.111674 202.980525 
L 228.374202 204.180215 
L 223.69867 205.602292 
L 219.095512 207.243582 
L 214.574998 209.100421 
L 210.147216 211.168668 
L 205.822046 213.443707 
L 201.609138 215.920461 
L 197.517895 218.593404 
L 193.557444 221.456571 
L 189.736623 224.503574 
L 186.063958 227.727614 
L 182.547644 231.121496 
L 179.195527 234.677647 
L 176.015087 238.388133 
L 173.013421 242.244673 
L 170.197228 246.238662 
L 167.57279 250.361189 
L 165.145964 254.603053 
L 162.922165 258.954791 
L 160.906355 263.40669 
L 159.103033 267.948819 
L 157.516223 272.57104 
L 156.149464 277.263041 
L 155.005808 282.014351 
L 154.087805 286.814369 
L 153.397505 291.652383 
L 152.936447 296.517599 
L 152.70566 301.39916 
L 152.70566 306.286173 
L 152.936447 311.167734 
L 153.397505 316.03295 
L 154.087805 320.870965 
L 155.005808 325.670982 
L 156.149464 330.422293 
L 157.516223 335.114293 
L 159.103033 339.736515 
L 160.906355 344.278643 
L 162.922165 348.730543 
L 165.145964 353.08228 
L 167.57279 357.324145 
L 170.197228 361.446671 
L 173.013421 365.440661 
L 176.015087 369.297201 
L 179.195527 373.007686 
L 182.547644 376.563838 
L 186.063958 379.95772 
L 189.736623 383.181759 
L 193.557444 386.228762 
L 197.517895 389.091929 
L 201.609138 391.764872 
L 205.822046 394.241626 
L 210.147216 396.516665 
L 214.574998 398.584912 
L 219.095512 400.441752 
L 223.69867 402.083041 
L 228.374202 403.505118 
L 233.111674 404.704809 
L 237.900515 405.679437 
L 242.73004 406.426827 
L 247.589471 406.945312 
L 252.467966 407.233735 
L 257.354639 407.291451 
L 262.238585 407.118333 
L 267.108906 406.714767 
L 271.954736 406.081653 
L 276.765261 405.220403 
L 281.529747 404.132941 
L 286.237562 402.821691 
L 290.878201 401.28958 
L 295.441311 399.540028 
L 299.916707 397.576937 
L 304.294404 395.404688 
L 308.564635 393.028129 
L 312.717869 390.452562 
L 316.744839 387.683734 
L 320.636561 384.727825 
L 324.384349 381.591428 
L 327.979842 378.281544 
L 331.415016 374.805558 
L 334.682205 371.171226 
L 337.774121 367.386657 
L 340.683862 363.460297 
L 343.404937 359.400907 
L 345.931274 355.217544 
L 348.257235 350.919544 
L 350.377631 346.516497 
L 352.287729 342.018228 
L 353.983269 337.434775 
L 355.460465 332.776364 
L 356.716023 328.053391 
L 357.74714 323.276395 
L 358.551516 318.456034 
L 359.127356 313.603065 
L 359.473375 308.728317 
L 359.5888 303.842667 
L 359.5888 303.842667 
" clip-path="url(#p685059640e)" style="fill: none; stroke-dasharray: 5.18,2.24; stroke-dashoffset: 0; stroke: #d62728; stroke-width: 1.4"/>
   </g>
   <g id="line2d_45">
    <g clip-path="url(#p685059640e)">
     <use xlink:href="#mb6018a63a8" x="256.1328" y="303.842667" style="stroke: #000000; stroke-linejoin: miter"/>
    </g>
   </g>
   <g id="patch_3">
    <path d="M 66.463467 415.92 
L 66.463467 27.96 
" style="fill: none; stroke: #000000; stroke-width: 0.8; stroke-linejoin: miter; stroke-linecap: square"/>
   </g>
   <g id="patch_4">
    <path d="M 445.802133 415.92 
L 445.802133 27.96 
" style="fill: none; stroke: #000000; stroke-width: 0.8; stroke-linejoin: miter; stroke-linecap: square"/>
   </g>
   <g id="patch_5">
    <path d="M 66.463467 415.92 
L 445.802133 415.92 
" style="fill: none; stroke: #000000; stroke-width: 0.8; stroke-linejoin: miter; stroke-linecap: square"/>
   </g>
   <g id="patch_6">
    <path d="M 66.463467 27.96 
L 445.802133 27.96 
" style="fill: none; stroke: #000000; stroke-width: 0.8; stroke-linejoin: miter; stroke-linecap: square"/>
   </g>
   <g id="text_21">
    <!-- $S_1$ -->
    <g transform="translate(315.8608 140.658667)">
     <text>
      <tspan x="0" y="-0.828125" style="font-style: oblique; font-size: 11px; font-family: 'DejaVu Sans'">S</tspan>
      <tspan x="6.982422" y="0.82187" style="font-size: 7.7px; font-family: 'DejaVu Sans'">1</tspan>
     </text>
    </g>
   </g>
   <g id="text_22">
    <!-- $S_2$ -->
    <g transform="translate(195.162133 157.901333)">
     <text>
      <tspan x="0" y="-0.828125" style="font-style: oblique; font-size: 11px; font-family: 'DejaVu Sans'">S</tspan>
      <tspan x="6.982422" y="0.82187" style="font-size: 7.7px; font-family: 'DejaVu Sans'">2</tspan>
     </text>
    </g>
   </g>
   <g id="text_23">
    <!-- $S_3$ -->
    <g transform="translate(264.1328 295.842667)">
     <text>
      <tspan x="0" y="-0.828125" style="font-style: oblique; font-size: 11px; font-family: 'DejaVu Sans'">S</tspan>
      <tspan x="6.982422" y="0.82187" style="font-size: 7.7px; font-family: 'DejaVu Sans'">3</tspan>
     </text>
    </g>
   </g>
   <g id="patch_7">
    <path d="M 171.153686 105.285698 
Q 210.003002 154.207278 248.017978 202.078202 
" style="fill: none; stroke: #000000; stroke-width: 1.2; stroke-linecap: round"/>
    <path d="M 247.18881 198.139614 
L 248.017978 202.078202 
L 244.369606 200.378383 
" style="fill: none; stroke: #000000; stroke-width: 1.2; stroke-linecap: round"/>
   </g>
   <g id="text_24">
    <text style="font-size: 9px; font-family: 'DejaVu Sans', 'Bitstream Vera Sans', 'Computer Modern Sans Serif', 'Lucida Grande', 'Verdana', 'Geneva', 'Lucid', 'Arial', 'Helvetica', 'Avant Garde', sans-serif" transform="translate(73.360533 65.526144)">las circunferencias medidas NO se</text>
    <text style="font-size: 9px; font-family: 'DejaVu Sans', 'Bitstream Vera Sans', 'Computer Modern Sans Serif', 'Lucida Grande', 'Verdana', 'Geneva', 'Lucid', 'Arial', 'Helvetica', 'Avant Garde', sans-serif" transform="translate(73.360533 76.688605)">cortan en un punto: todas están</text>
    <!-- infladas por el mismo $c\,\delta t_r$ -->
    <g transform="translate(73.360533 87.492472)">
     <text>
      <tspan x="0" y="-0.15625" style="font-size: 9px; font-family: 'DejaVu Sans'">i</tspan>
      <tspan x="2.500488" y="-0.15625" style="font-size: 9px; font-family: 'DejaVu Sans'">n</tspan>
      <tspan x="8.20459" y="-0.15625" style="font-size: 9px; font-family: 'DejaVu Sans'">f</tspan>
      <tspan x="11.373047" y="-0.15625" style="font-size: 9px; font-family: 'DejaVu Sans'">l</tspan>
      <tspan x="13.873535" y="-0.15625" style="font-size: 9px; font-family: 'DejaVu Sans'">a</tspan>
      <tspan x="19.388672" y="-0.15625" style="font-size: 9px; font-family: 'DejaVu Sans'">d</tspan>
      <tspan x="25.101562" y="-0.15625" style="font-size: 9px; font-family: 'DejaVu Sans'">a</tspan>
      <tspan x="30.616699" y="-0.15625" style="font-size: 9px; font-family: 'DejaVu Sans'">s</tspan>
      <tspan x="35.305664" y="-0.15625" style="font-size: 9px; font-family: 'DejaVu Sans'"> </tspan>
      <tspan x="38.166504" y="-0.15625" style="font-size: 9px; font-family: 'DejaVu Sans'">p</tspan>
      <tspan x="43.879395" y="-0.15625" style="font-size: 9px; font-family: 'DejaVu Sans'">o</tspan>
      <tspan x="49.385742" y="-0.15625" style="font-size: 9px; font-family: 'DejaVu Sans'">r</tspan>
      <tspan x="53.085938" y="-0.15625" style="font-size: 9px; font-family: 'DejaVu Sans'"> </tspan>
      <tspan x="55.946777" y="-0.15625" style="font-size: 9px; font-family: 'DejaVu Sans'">e</tspan>
      <tspan x="61.483887" y="-0.15625" style="font-size: 9px; font-family: 'DejaVu Sans'">l</tspan>
      <tspan x="63.984375" y="-0.15625" style="font-size: 9px; font-family: 'DejaVu Sans'"> </tspan>
      <tspan x="66.845215" y="-0.15625" style="font-size: 9px; font-family: 'DejaVu Sans'">m</tspan>
      <tspan x="75.612305" y="-0.15625" style="font-size: 9px; font-family: 'DejaVu Sans'">i</tspan>
      <tspan x="78.112793" y="-0.15625" style="font-size: 9px; font-family: 'DejaVu Sans'">s</tspan>
      <tspan x="82.801758" y="-0.15625" style="font-size: 9px; font-family: 'DejaVu Sans'">m</tspan>
      <tspan x="91.568848" y="-0.15625" style="font-size: 9px; font-family: 'DejaVu Sans'">o</tspan>
      <tspan x="97.075195" y="-0.15625" style="font-size: 9px; font-family: 'DejaVu Sans'"> </tspan>
      <tspan x="99.936035" y="-0.15625" style="font-style: oblique; font-size: 9px; font-family: 'DejaVu Sans'">c</tspan>
      <tspan x="106.345488" y="-0.15625" style="font-style: oblique; font-size: 9px; font-family: 'DejaVu Sans'">δ</tspan>
      <tspan x="111.851836" y="-0.15625" style="font-style: oblique; font-size: 9px; font-family: 'DejaVu Sans'">t</tspan>
      <tspan x="115.380644" y="1.193746" style="font-style: oblique; font-size: 6.3px; font-family: 'DejaVu Sans'">r</tspan>
     </text>
    </g>
    <text style="font-size: 9px; font-family: 'DejaVu Sans', 'Bitstream Vera Sans', 'Computer Modern Sans Serif', 'Lucida Grande', 'Verdana', 'Geneva', 'Lucid', 'Arial', 'Helvetica', 'Avant Garde', sans-serif" transform="translate(73.360533 98.654933)">(la 4ª incógnita)</text>
   </g>
   <g id="text_25">
    <text style="font-size: 13.2px; font-family: 'DejaVu Sans', 'Bitstream Vera Sans', 'Computer Modern Sans Serif', 'Lucida Grande', 'Verdana', 'Geneva', 'Lucid', 'Arial', 'Helvetica', 'Avant Garde', sans-serif; text-anchor: middle" x="256.1328" y="21.96" transform="rotate(-0 256.1328 21.96)">El sesgo de reloj del receptor rompe la trilateración pura</text>
   </g>
   <g id="line2d_46">
    <defs>
     <path id="m5eb7d10a24" d="M 0 -8 
L -1.796112 -2.472136 
L -7.608452 -2.472136 
L -2.90617 0.944272 
L -4.702282 6.472136 
L -0 3.055728 
L 4.702282 6.472136 
L 2.90617 0.944272 
L 7.608452 -2.472136 
L 1.796112 -2.472136 
z
" style="stroke: #2ca02c; stroke-linejoin: bevel"/>
    </defs>
    <g clip-path="url(#p685059640e)">
     <use xlink:href="#m5eb7d10a24" x="256.1328" y="217.629333" style="fill: #2ca02c; stroke: #2ca02c; stroke-linejoin: bevel"/>
    </g>
   </g>
   <g id="legend_1">
    <g id="patch_8">
     <path d="M 72.763467 411.42 
L 235.452529 411.42 
Q 237.252529 411.42 237.252529 409.62 
L 237.252529 369.655078 
Q 237.252529 367.855078 235.452529 367.855078 
L 72.763467 367.855078 
Q 70.963467 367.855078 70.963467 369.655078 
L 70.963467 409.62 
Q 70.963467 411.42 72.763467 411.42 
z
" style="fill: #ffffff; opacity: 0.8; stroke: #cccccc; stroke-linejoin: miter"/>
    </g>
    <g id="line2d_47">
     <path d="M 74.563467 375.145078 
L 83.563467 375.145078 
L 92.563467 375.145078 
" style="fill: none; stroke: #1f77b4; stroke-width: 1.6; stroke-linecap: square"/>
    </g>
    <g id="text_26">
     <!-- rango verdadero $\rho_i$ -->
     <g transform="translate(99.763467 378.295078)">
      <text>
       <tspan x="0" y="-0.15625" style="font-size: 9px; font-family: 'DejaVu Sans'">r</tspan>
       <tspan x="3.700195" y="-0.15625" style="font-size: 9px; font-family: 'DejaVu Sans'">a</tspan>
       <tspan x="9.215332" y="-0.15625" style="font-size: 9px; font-family: 'DejaVu Sans'">n</tspan>
       <tspan x="14.919434" y="-0.15625" style="font-size: 9px; font-family: 'DejaVu Sans'">g</tspan>
       <tspan x="20.632324" y="-0.15625" style="font-size: 9px; font-family: 'DejaVu Sans'">o</tspan>
       <tspan x="26.138672" y="-0.15625" style="font-size: 9px; font-family: 'DejaVu Sans'"> </tspan>
       <tspan x="28.999512" y="-0.15625" style="font-size: 9px; font-family: 'DejaVu Sans'">v</tspan>
       <tspan x="34.325684" y="-0.15625" style="font-size: 9px; font-family: 'DejaVu Sans'">e</tspan>
       <tspan x="39.862793" y="-0.15625" style="font-size: 9px; font-family: 'DejaVu Sans'">r</tspan>
       <tspan x="43.562988" y="-0.15625" style="font-size: 9px; font-family: 'DejaVu Sans'">d</tspan>
       <tspan x="49.275879" y="-0.15625" style="font-size: 9px; font-family: 'DejaVu Sans'">a</tspan>
       <tspan x="54.791016" y="-0.15625" style="font-size: 9px; font-family: 'DejaVu Sans'">d</tspan>
       <tspan x="60.503906" y="-0.15625" style="font-size: 9px; font-family: 'DejaVu Sans'">e</tspan>
       <tspan x="66.041016" y="-0.15625" style="font-size: 9px; font-family: 'DejaVu Sans'">r</tspan>
       <tspan x="69.741211" y="-0.15625" style="font-size: 9px; font-family: 'DejaVu Sans'">o</tspan>
       <tspan x="75.247559" y="-0.15625" style="font-size: 9px; font-family: 'DejaVu Sans'"> </tspan>
       <tspan x="78.108398" y="-0.15625" style="font-style: oblique; font-size: 9px; font-family: 'DejaVu Sans'">ρ</tspan>
       <tspan x="83.821289" y="1.193746" style="font-style: oblique; font-size: 6.3px; font-family: 'DejaVu Sans'">i</tspan>
      </text>
     </g>
    </g>
    <g id="line2d_48">
     <path d="M 74.563467 388.647188 
L 83.563467 388.647188 
L 92.563467 388.647188 
" style="fill: none; stroke-dasharray: 5.18,2.24; stroke-dashoffset: 0; stroke: #d62728; stroke-width: 1.4"/>
    </g>
    <g id="text_27">
     <!-- pseudodistancia $P_i = \rho_i + c\,\delta t_r$ -->
     <g transform="translate(99.763467 391.797188)">
      <text>
       <tspan x="0" y="-0.15625" style="font-size: 9px; font-family: 'DejaVu Sans'">p</tspan>
       <tspan x="5.712891" y="-0.15625" style="font-size: 9px; font-family: 'DejaVu Sans'">s</tspan>
       <tspan x="10.401855" y="-0.15625" style="font-size: 9px; font-family: 'DejaVu Sans'">e</tspan>
       <tspan x="15.938965" y="-0.15625" style="font-size: 9px; font-family: 'DejaVu Sans'">u</tspan>
       <tspan x="21.643066" y="-0.15625" style="font-size: 9px; font-family: 'DejaVu Sans'">d</tspan>
       <tspan x="27.355957" y="-0.15625" style="font-size: 9px; font-family: 'DejaVu Sans'">o</tspan>
       <tspan x="32.862305" y="-0.15625" style="font-size: 9px; font-family: 'DejaVu Sans'">d</tspan>
       <tspan x="38.575195" y="-0.15625" style="font-size: 9px; font-family: 'DejaVu Sans'">i</tspan>
       <tspan x="41.075684" y="-0.15625" style="font-size: 9px; font-family: 'DejaVu Sans'">s</tspan>
       <tspan x="45.764648" y="-0.15625" style="font-size: 9px; font-family: 'DejaVu Sans'">t</tspan>
       <tspan x="49.293457" y="-0.15625" style="font-size: 9px; font-family: 'DejaVu Sans'">a</tspan>
       <tspan x="54.808594" y="-0.15625" style="font-size: 9px; font-family: 'DejaVu Sans'">n</tspan>
       <tspan x="60.512695" y="-0.15625" style="font-size: 9px; font-family: 'DejaVu Sans'">c</tspan>
       <tspan x="65.460938" y="-0.15625" style="font-size: 9px; font-family: 'DejaVu Sans'">i</tspan>
       <tspan x="67.961426" y="-0.15625" style="font-size: 9px; font-family: 'DejaVu Sans'">a</tspan>
       <tspan x="73.476562" y="-0.15625" style="font-size: 9px; font-family: 'DejaVu Sans'"> </tspan>
       <tspan x="85.514502" y="-0.15625" style="font-size: 9px; font-family: 'DejaVu Sans'">=</tspan>
       <tspan x="104.27168" y="-0.15625" style="font-size: 9px; font-family: 'DejaVu Sans'">+</tspan>
       <tspan x="76.337402" y="-0.15625" style="font-style: oblique; font-size: 9px; font-family: 'DejaVu Sans'">P</tspan>
       <tspan x="94.808936" y="-0.15625" style="font-style: oblique; font-size: 9px; font-family: 'DejaVu Sans'">ρ</tspan>
       <tspan x="113.566113" y="-0.15625" style="font-style: oblique; font-size: 9px; font-family: 'DejaVu Sans'">c</tspan>
       <tspan x="119.975566" y="-0.15625" style="font-style: oblique; font-size: 9px; font-family: 'DejaVu Sans'">δ</tspan>
       <tspan x="125.481914" y="-0.15625" style="font-style: oblique; font-size: 9px; font-family: 'DejaVu Sans'">t</tspan>
       <tspan x="81.764648" y="1.193746" style="font-style: oblique; font-size: 6.3px; font-family: 'DejaVu Sans'">i</tspan>
       <tspan x="100.521826" y="1.193746" style="font-style: oblique; font-size: 6.3px; font-family: 'DejaVu Sans'">i</tspan>
       <tspan x="129.010723" y="1.193746" style="font-style: oblique; font-size: 6.3px; font-family: 'DejaVu Sans'">r</tspan>
      </text>
     </g>
    </g>
    <g id="line2d_49">
     <g>
      <use xlink:href="#m5eb7d10a24" x="83.563467" y="402.507891" style="fill: #2ca02c; stroke: #2ca02c; stroke-linejoin: bevel"/>
     </g>
    </g>
    <g id="text_28">
     <text style="font-size: 9px; font-family: 'DejaVu Sans', 'Bitstream Vera Sans', 'Computer Modern Sans Serif', 'Lucida Grande', 'Verdana', 'Geneva', 'Lucid', 'Arial', 'Helvetica', 'Avant Garde', sans-serif; text-anchor: start" x="99.763467" y="405.657891" transform="rotate(-0 99.763467 405.657891)">receptor (posición verdadera)</text>
    </g>
   </g>
  </g>
 </g>
 <defs>
  <clipPath id="p685059640e">
   <rect x="66.463467" y="27.96" width="379.338667" height="387.96"/>
  </clipPath>
 </defs>
</svg>
