<?xml version="1.0" encoding="utf-8" standalone="no"?>
<!DOCTYPE svg PUBLIC "-//W3C//DTD SVG 1.1//EN"
  "http://www.w3.org/Graphics/SVG/1.1/DTD/svg11.dtd">
<svg xmlns:xlink="http://www.w3.org/1999/xlink" width="684pt" height="302.4pt" viewBox="0 0 684 302.4" xmlns="http://www.w3.org/2000/svg" version="1.1">
 <metadata>
  <rdf:RDF xmlns:dc="http://purl.org/dc/elements/1.1/" xmlns:cc="http://creativecommons.org/ns#" xmlns:rdf="http://www.w3.org/1999/02/22-rdf-syntax-ns#">
   <cc:Work>
    <dc:type rdf:resource="http://purl.org/dc/dcmitype/StillImage"/>
    <dc:date>2026-07-02T21:57:04.652601</dc:date>
    <dc:format>image/svg+xml</dc:format>
    <dc:creator>
     <cc:Agent>
      <dc:title>Matplotlib v3.11.0, https://matplotlib.org/</dc:title>
     </cc:Agent>
    </dc:creator>
   </cc:Work>
  </rdf:RDF>
 </metadata>
 <defs>
  <style type="text/css">*{stroke-linejoin: round; stroke-linecap: butt}</style>
 </defs>
 <g id="figure_1">
  <g id="patch_1">
   <path d="M 0 302.4 
L 684 302.4 
L 684 0 
L 0 0 
z
" style="fill: #ffffff"/>
  </g>
  <g id="axes_1">
   <g id="patch_2">
    <path d="M 47.962344 267.505696 
L 673.2 267.505696 
L 673.2 26.88 
L 47.962344 26.88 
z
" style="fill: #ffffff"/>
   </g>
   <g id="patch_3">
    <path d="M 76.382237 267.505696 
L 91.64124 267.505696 
L 91.64124 189.116939 
L 76.382237 189.116939 
z
" clip-path="url(#pea9637c251)" style="fill: #1f77b4"/>
   </g>
   <g id="patch_4">
    <path d="M 95.455991 267.505696 
L 110.714994 267.505696 
L 110.714994 161.298947 
L 95.455991 161.298947 
z
" clip-path="url(#pea9637c251)" style="fill: #1f77b4"/>
   </g>
   <g id="patch_5">
    <path d="M 114.529745 267.505696 
L 129.788748 267.505696 
L 129.788748 160.229578 
L 114.529745 160.229578 
z
" clip-path="url(#pea9637c251)" style="fill: #1f77b4"/>
   </g>
   <g id="patch_6">
    <path d="M 133.603499 267.505696 
L 148.862502 267.505696 
L 148.862502 152.130609 
L 133.603499 152.130609 
z
" clip-path="url(#pea9637c251)" style="fill: #1f77b4"/>
   </g>
   <g id="patch_7">
    <path d="M 152.677253 267.505696 
L 167.936256 267.505696 
L 167.936256 183.81137 
L 152.677253 183.81137 
z
" clip-path="url(#pea9637c251)" style="fill: #1f77b4"/>
   </g>
   <g id="patch_8">
    <path d="M 171.751007 267.505696 
L 187.01001 267.505696 
L 187.01001 131.281941 
L 171.751007 131.281941 
z
" clip-path="url(#pea9637c251)" style="fill: #1f77b4"/>
   </g>
   <g id="patch_9">
    <path d="M 190.824761 267.505696 
L 206.083764 267.505696 
L 206.083764 174.081988 
L 190.824761 174.081988 
z
" clip-path="url(#pea9637c251)" style="fill: #1f77b4"/>
   </g>
   <g id="patch_10">
    <path d="M 209.898515 267.505696 
L 225.157518 267.505696 
L 225.157518 152.112544 
L 209.898515 152.112544 
z
" clip-path="url(#pea9637c251)" style="fill: #1f77b4"/>
   </g>
   <g id="patch_11">
    <path d="M 228.972269 267.505696 
L 244.231272 267.505696 
L 244.231272 149.492168 
L 228.972269 149.492168 
z
" clip-path="url(#pea9637c251)" style="fill: #1f77b4"/>
   </g>
   <g id="patch_12">
    <path d="M 248.046023 267.505696 
L 263.305026 267.505696 
L 263.305026 160.44145 
L 248.046023 160.44145 
z
" clip-path="url(#pea9637c251)" style="fill: #1f77b4"/>
   </g>
   <g id="patch_13">
    <path d="M 267.119777 267.505696 
L 282.37878 267.505696 
L 282.37878 103.691059 
L 267.119777 103.691059 
z
" clip-path="url(#pea9637c251)" style="fill: #1f77b4"/>
   </g>
   <g id="patch_14">
    <path d="M 286.193531 267.505696 
L 301.452534 267.505696 
L 301.452534 144.134922 
L 286.193531 144.134922 
z
" clip-path="url(#pea9637c251)" style="fill: #1f77b4"/>
   </g>
   <g id="patch_15">
    <path d="M 305.267285 267.505696 
L 320.526288 267.505696 
L 320.526288 187.807255 
L 305.267285 187.807255 
z
" clip-path="url(#pea9637c251)" style="fill: #1f77b4"/>
   </g>
   <g id="patch_16">
    <path d="M 324.341039 267.505696 
L 339.600042 267.505696 
L 339.600042 174.395078 
L 324.341039 174.395078 
z
" clip-path="url(#pea9637c251)" style="fill: #1f77b4"/>
   </g>
   <g id="patch_17">
    <path d="M 343.414793 267.505696 
L 358.673796 267.505696 
L 358.673796 134.79129 
L 343.414793 134.79129 
z
" clip-path="url(#pea9637c251)" style="fill: #1f77b4"/>
   </g>
   <g id="patch_18">
    <path d="M 362.488547 267.505696 
L 377.74755 267.505696 
L 377.74755 38.338366 
L 362.488547 38.338366 
z
" clip-path="url(#pea9637c251)" style="fill: #d62728"/>
   </g>
   <g id="patch_19">
    <path d="M 381.562301 267.505696 
L 396.821304 267.505696 
L 396.821304 177.539863 
L 381.562301 177.539863 
z
" clip-path="url(#pea9637c251)" style="fill: #1f77b4"/>
   </g>
   <g id="patch_20">
    <path d="M 400.636055 267.505696 
L 415.895058 267.505696 
L 415.895058 178.89561 
L 400.636055 178.89561 
z
" clip-path="url(#pea9637c251)" style="fill: #1f77b4"/>
   </g>
   <g id="patch_21">
    <path d="M 419.709809 267.505696 
L 434.968812 267.505696 
L 434.968812 149.505851 
L 419.709809 149.505851 
z
" clip-path="url(#pea9637c251)" style="fill: #1f77b4"/>
   </g>
   <g id="patch_22">
    <path d="M 438.783563 267.505696 
L 454.042566 267.505696 
L 454.042566 202.14081 
L 438.783563 202.14081 
z
" clip-path="url(#pea9637c251)" style="fill: #1f77b4"/>
   </g>
   <g id="patch_23">
    <path d="M 457.857317 267.505696 
L 473.11632 267.505696 
L 473.11632 140.622328 
L 457.857317 140.622328 
z
" clip-path="url(#pea9637c251)" style="fill: #1f77b4"/>
   </g>
   <g id="patch_24">
    <path d="M 476.931071 267.505696 
L 492.190075 267.505696 
L 492.190075 186.032658 
L 476.931071 186.032658 
z
" clip-path="url(#pea9637c251)" style="fill: #1f77b4"/>
   </g>
   <g id="patch_25">
    <path d="M 496.004825 267.505696 
L 511.263829 267.505696 
L 511.263829 150.390722 
L 496.004825 150.390722 
z
" clip-path="url(#pea9637c251)" style="fill: #1f77b4"/>
   </g>
   <g id="patch_26">
    <path d="M 515.078579 267.505696 
L 530.337583 267.505696 
L 530.337583 136.134673 
L 515.078579 136.134673 
z
" clip-path="url(#pea9637c251)" style="fill: #1f77b4"/>
   </g>
   <g id="patch_27">
    <path d="M 534.152333 267.505696 
L 549.411337 267.505696 
L 549.411337 153.724042 
L 534.152333 153.724042 
z
" clip-path="url(#pea9637c251)" style="fill: #1f77b4"/>
   </g>
   <g id="patch_28">
    <path d="M 553.226087 267.505696 
L 568.485091 267.505696 
L 568.485091 115.713784 
L 553.226087 115.713784 
z
" clip-path="url(#pea9637c251)" style="fill: #1f77b4"/>
   </g>
   <g id="patch_29">
    <path d="M 572.299841 267.505696 
L 587.558845 267.505696 
L 587.558845 174.820176 
L 572.299841 174.820176 
z
" clip-path="url(#pea9637c251)" style="fill: #1f77b4"/>
   </g>
   <g id="patch_30">
    <path d="M 591.373595 267.505696 
L 606.632599 267.505696 
L 606.632599 151.674928 
L 591.373595 151.674928 
z
" clip-path="url(#pea9637c251)" style="fill: #1f77b4"/>
   </g>
   <g id="patch_31">
    <path d="M 610.447349 267.505696 
L 625.706353 267.505696 
L 625.706353 142.263338 
L 610.447349 142.263338 
z
" clip-path="url(#pea9637c251)" style="fill: #1f77b4"/>
   </g>
   <g id="patch_32">
    <path d="M 629.521103 267.505696 
L 644.780107 267.505696 
L 644.780107 115.169597 
L 629.521103 115.169597 
z
" clip-path="url(#pea9637c251)" style="fill: #1f77b4"/>
   </g>
   <g id="matplotlib.axis_1">
    <g id="xtick_1">
     <g id="line2d_1">
      <defs>
       <path id="m9dd138dc78" d="M 0 0 
L 0 3.5 
" style="stroke: #000000; stroke-width: 0.8"/>
      </defs>
      <g>
       <use xlink:href="#m9dd138dc78" x="84.011739" y="267.505696" style="stroke: #000000; stroke-width: 0.8"/>
      </g>
     </g>
     <g id="text_1">
      <!-- E02 -->
      <g transform="translate(82.002698 290.738655) rotate(-60) scale(0.08 -0.08)">
       <defs>
        <path id="DejaVuSans-28" d="M 628 4666 
L 3578 4666 
L 3578 4134 
L 1259 4134 
L 1259 2753 
L 3481 2753 
L 3481 2222 
L 1259 2222 
L 1259 531 
L 3634 531 
L 3634 0 
L 628 0 
L 628 4666 
z
" transform="scale(0.015625)"/>
        <path id="DejaVuSans-13" d="M 2034 4250 
Q 1547 4250 1301 3770 
Q 1056 3291 1056 2328 
Q 1056 1369 1301 889 
Q 1547 409 2034 409 
Q 2525 409 2770 889 
Q 3016 1369 3016 2328 
Q 3016 3291 2770 3770 
Q 2525 4250 2034 4250 
z
M 2034 4750 
Q 2819 4750 3233 4129 
Q 3647 3509 3647 2328 
Q 3647 1150 3233 529 
Q 2819 -91 2034 -91 
Q 1250 -91 836 529 
Q 422 1150 422 2328 
Q 422 3509 836 4129 
Q 1250 4750 2034 4750 
z
" transform="scale(0.015625)"/>
        <path id="DejaVuSans-15" d="M 1228 531 
L 3431 531 
L 3431 0 
L 469 0 
L 469 531 
Q 828 903 1448 1529 
Q 2069 2156 2228 2338 
Q 2531 2678 2651 2914 
Q 2772 3150 2772 3378 
Q 2772 3750 2511 3984 
Q 2250 4219 1831 4219 
Q 1534 4219 1204 4116 
Q 875 4013 500 3803 
L 500 4441 
Q 881 4594 1212 4672 
Q 1544 4750 1819 4750 
Q 2544 4750 2975 4387 
Q 3406 4025 3406 3419 
Q 3406 3131 3298 2873 
Q 3191 2616 2906 2266 
Q 2828 2175 2409 1742 
Q 1991 1309 1228 531 
z
" transform="scale(0.015625)"/>
       </defs>
       <use xlink:href="#DejaVuSans-28"/>
       <use xlink:href="#DejaVuSans-13" transform="translate(63.1875 0)"/>
       <use xlink:href="#DejaVuSans-15" transform="translate(126.8125 0)"/>
      </g>
     </g>
    </g>
    <g id="xtick_2">
     <g id="line2d_2">
      <g>
       <use xlink:href="#m9dd138dc78" x="103.085493" y="267.505696" style="stroke: #000000; stroke-width: 0.8"/>
      </g>
     </g>
     <g id="text_2">
      <!-- E03 -->
      <g transform="translate(101.076452 290.738655) rotate(-60) scale(0.08 -0.08)">
       <defs>
        <path id="DejaVuSans-16" d="M 2597 2516 
Q 3050 2419 3304 2112 
Q 3559 1806 3559 1356 
Q 3559 666 3084 287 
Q 2609 -91 1734 -91 
Q 1441 -91 1130 -33 
Q 819 25 488 141 
L 488 750 
Q 750 597 1062 519 
Q 1375 441 1716 441 
Q 2309 441 2620 675 
Q 2931 909 2931 1356 
Q 2931 1769 2642 2001 
Q 2353 2234 1838 2234 
L 1294 2234 
L 1294 2753 
L 1863 2753 
Q 2328 2753 2575 2939 
Q 2822 3125 2822 3475 
Q 2822 3834 2567 4026 
Q 2313 4219 1838 4219 
Q 1578 4219 1281 4162 
Q 984 4106 628 3988 
L 628 4550 
Q 988 4650 1302 4700 
Q 1616 4750 1894 4750 
Q 2613 4750 3031 4423 
Q 3450 4097 3450 3541 
Q 3450 3153 3228 2886 
Q 3006 2619 2597 2516 
z
" transform="scale(0.015625)"/>
       </defs>
       <use xlink:href="#DejaVuSans-28"/>
       <use xlink:href="#DejaVuSans-13" transform="translate(63.1875 0)"/>
       <use xlink:href="#DejaVuSans-16" transform="translate(126.8125 0)"/>
      </g>
     </g>
    </g>
    <g id="xtick_3">
     <g id="line2d_3">
      <g>
       <use xlink:href="#m9dd138dc78" x="122.159247" y="267.505696" style="stroke: #000000; stroke-width: 0.8"/>
      </g>
     </g>
     <g id="text_3">
      <!-- E04 -->
      <g transform="translate(120.150206 290.738655) rotate(-60) scale(0.08 -0.08)">
       <defs>
        <path id="DejaVuSans-17" d="M 2419 4116 
L 825 1625 
L 2419 1625 
L 2419 4116 
z
M 2253 4666 
L 3047 4666 
L 3047 1625 
L 3713 1625 
L 3713 1100 
L 3047 1100 
L 3047 0 
L 2419 0 
L 2419 1100 
L 313 1100 
L 313 1709 
L 2253 4666 
z
" transform="scale(0.015625)"/>
       </defs>
       <use xlink:href="#DejaVuSans-28"/>
       <use xlink:href="#DejaVuSans-13" transform="translate(63.1875 0)"/>
       <use xlink:href="#DejaVuSans-17" transform="translate(126.8125 0)"/>
      </g>
     </g>
    </g>
    <g id="xtick_4">
     <g id="line2d_4">
      <g>
       <use xlink:href="#m9dd138dc78" x="141.233001" y="267.505696" style="stroke: #000000; stroke-width: 0.8"/>
      </g>
     </g>
     <g id="text_4">
      <!-- E05 -->
      <g transform="translate(139.22396 290.738655) rotate(-60) scale(0.08 -0.08)">
       <defs>
        <path id="DejaVuSans-18" d="M 691 4666 
L 3169 4666 
L 3169 4134 
L 1269 4134 
L 1269 2991 
Q 1406 3038 1543 3061 
Q 1681 3084 1819 3084 
Q 2600 3084 3056 2656 
Q 3513 2228 3513 1497 
Q 3513 744 3044 326 
Q 2575 -91 1722 -91 
Q 1428 -91 1123 -41 
Q 819 9 494 109 
L 494 744 
Q 775 591 1075 516 
Q 1375 441 1709 441 
Q 2250 441 2565 725 
Q 2881 1009 2881 1497 
Q 2881 1984 2565 2268 
Q 2250 2553 1709 2553 
Q 1456 2553 1204 2497 
Q 953 2441 691 2322 
L 691 4666 
z
" transform="scale(0.015625)"/>
       </defs>
       <use xlink:href="#DejaVuSans-28"/>
       <use xlink:href="#DejaVuSans-13" transform="translate(63.1875 0)"/>
       <use xlink:href="#DejaVuSans-18" transform="translate(126.8125 0)"/>
      </g>
     </g>
    </g>
    <g id="xtick_5">
     <g id="line2d_5">
      <g>
       <use xlink:href="#m9dd138dc78" x="160.306755" y="267.505696" style="stroke: #000000; stroke-width: 0.8"/>
      </g>
     </g>
     <g id="text_5">
      <!-- E06 -->
      <g transform="translate(158.297714 290.738655) rotate(-60) scale(0.08 -0.08)">
       <defs>
        <path id="DejaVuSans-19" d="M 2113 2584 
Q 1688 2584 1439 2293 
Q 1191 2003 1191 1497 
Q 1191 994 1439 701 
Q 1688 409 2113 409 
Q 2538 409 2786 701 
Q 3034 994 3034 1497 
Q 3034 2003 2786 2293 
Q 2538 2584 2113 2584 
z
M 3366 4563 
L 3366 3988 
Q 3128 4100 2886 4159 
Q 2644 4219 2406 4219 
Q 1781 4219 1451 3797 
Q 1122 3375 1075 2522 
Q 1259 2794 1537 2939 
Q 1816 3084 2150 3084 
Q 2853 3084 3261 2657 
Q 3669 2231 3669 1497 
Q 3669 778 3244 343 
Q 2819 -91 2113 -91 
Q 1303 -91 875 529 
Q 447 1150 447 2328 
Q 447 3434 972 4092 
Q 1497 4750 2381 4750 
Q 2619 4750 2861 4703 
Q 3103 4656 3366 4563 
z
" transform="scale(0.015625)"/>
       </defs>
       <use xlink:href="#DejaVuSans-28"/>
       <use xlink:href="#DejaVuSans-13" transform="translate(63.1875 0)"/>
       <use xlink:href="#DejaVuSans-19" transform="translate(126.8125 0)"/>
      </g>
     </g>
    </g>
    <g id="xtick_6">
     <g id="line2d_6">
      <g>
       <use xlink:href="#m9dd138dc78" x="179.380509" y="267.505696" style="stroke: #000000; stroke-width: 0.8"/>
      </g>
     </g>
     <g id="text_6">
      <!-- E07 -->
      <g transform="translate(177.371468 290.738655) rotate(-60) scale(0.08 -0.08)">
       <defs>
        <path id="DejaVuSans-1a" d="M 525 4666 
L 3525 4666 
L 3525 4397 
L 1831 0 
L 1172 0 
L 2766 4134 
L 525 4134 
L 525 4666 
z
" transform="scale(0.015625)"/>
       </defs>
       <use xlink:href="#DejaVuSans-28"/>
       <use xlink:href="#DejaVuSans-13" transform="translate(63.1875 0)"/>
       <use xlink:href="#DejaVuSans-1a" transform="translate(126.8125 0)"/>
      </g>
     </g>
    </g>
    <g id="xtick_7">
     <g id="line2d_7">
      <g>
       <use xlink:href="#m9dd138dc78" x="198.454263" y="267.505696" style="stroke: #000000; stroke-width: 0.8"/>
      </g>
     </g>
     <g id="text_7">
      <!-- E08 -->
      <g transform="translate(196.445222 290.738655) rotate(-60) scale(0.08 -0.08)">
       <defs>
        <path id="DejaVuSans-1b" d="M 2034 2216 
Q 1584 2216 1326 1975 
Q 1069 1734 1069 1313 
Q 1069 891 1326 650 
Q 1584 409 2034 409 
Q 2484 409 2743 651 
Q 3003 894 3003 1313 
Q 3003 1734 2745 1975 
Q 2488 2216 2034 2216 
z
M 1403 2484 
Q 997 2584 770 2862 
Q 544 3141 544 3541 
Q 544 4100 942 4425 
Q 1341 4750 2034 4750 
Q 2731 4750 3128 4425 
Q 3525 4100 3525 3541 
Q 3525 3141 3298 2862 
Q 3072 2584 2669 2484 
Q 3125 2378 3379 2068 
Q 3634 1759 3634 1313 
Q 3634 634 3220 271 
Q 2806 -91 2034 -91 
Q 1263 -91 848 271 
Q 434 634 434 1313 
Q 434 1759 690 2068 
Q 947 2378 1403 2484 
z
M 1172 3481 
Q 1172 3119 1398 2916 
Q 1625 2713 2034 2713 
Q 2441 2713 2670 2916 
Q 2900 3119 2900 3481 
Q 2900 3844 2670 4047 
Q 2441 4250 2034 4250 
Q 1625 4250 1398 4047 
Q 1172 3844 1172 3481 
z
" transform="scale(0.015625)"/>
       </defs>
       <use xlink:href="#DejaVuSans-28"/>
       <use xlink:href="#DejaVuSans-13" transform="translate(63.1875 0)"/>
       <use xlink:href="#DejaVuSans-1b" transform="translate(126.8125 0)"/>
      </g>
     </g>
    </g>
    <g id="xtick_8">
     <g id="line2d_8">
      <g>
       <use xlink:href="#m9dd138dc78" x="217.528017" y="267.505696" style="stroke: #000000; stroke-width: 0.8"/>
      </g>
     </g>
     <g id="text_8">
      <!-- E09 -->
      <g transform="translate(215.518976 290.738655) rotate(-60) scale(0.08 -0.08)">
       <defs>
        <path id="DejaVuSans-1c" d="M 703 97 
L 703 672 
Q 941 559 1184 500 
Q 1428 441 1663 441 
Q 2288 441 2617 861 
Q 2947 1281 2994 2138 
Q 2813 1869 2534 1725 
Q 2256 1581 1919 1581 
Q 1219 1581 811 2004 
Q 403 2428 403 3163 
Q 403 3881 828 4315 
Q 1253 4750 1959 4750 
Q 2769 4750 3195 4129 
Q 3622 3509 3622 2328 
Q 3622 1225 3098 567 
Q 2575 -91 1691 -91 
Q 1453 -91 1209 -44 
Q 966 3 703 97 
z
M 1959 2075 
Q 2384 2075 2632 2365 
Q 2881 2656 2881 3163 
Q 2881 3666 2632 3958 
Q 2384 4250 1959 4250 
Q 1534 4250 1286 3958 
Q 1038 3666 1038 3163 
Q 1038 2656 1286 2365 
Q 1534 2075 1959 2075 
z
" transform="scale(0.015625)"/>
       </defs>
       <use xlink:href="#DejaVuSans-28"/>
       <use xlink:href="#DejaVuSans-13" transform="translate(63.1875 0)"/>
       <use xlink:href="#DejaVuSans-1c" transform="translate(126.8125 0)"/>
      </g>
     </g>
    </g>
    <g id="xtick_9">
     <g id="line2d_9">
      <g>
       <use xlink:href="#m9dd138dc78" x="236.601771" y="267.505696" style="stroke: #000000; stroke-width: 0.8"/>
      </g>
     </g>
     <g id="text_9">
      <!-- E10 -->
      <g transform="translate(234.59273 290.738655) rotate(-60) scale(0.08 -0.08)">
       <defs>
        <path id="DejaVuSans-14" d="M 794 531 
L 1825 531 
L 1825 4091 
L 703 3866 
L 703 4441 
L 1819 4666 
L 2450 4666 
L 2450 531 
L 3481 531 
L 3481 0 
L 794 0 
L 794 531 
z
" transform="scale(0.015625)"/>
       </defs>
       <use xlink:href="#DejaVuSans-28"/>
       <use xlink:href="#DejaVuSans-14" transform="translate(63.1875 0)"/>
       <use xlink:href="#DejaVuSans-13" transform="translate(126.8125 0)"/>
      </g>
     </g>
    </g>
    <g id="xtick_10">
     <g id="line2d_10">
      <g>
       <use xlink:href="#m9dd138dc78" x="255.675525" y="267.505696" style="stroke: #000000; stroke-width: 0.8"/>
      </g>
     </g>
     <g id="text_10">
      <!-- E11 -->
      <g transform="translate(253.666484 290.738655) rotate(-60) scale(0.08 -0.08)">
       <use xlink:href="#DejaVuSans-28"/>
       <use xlink:href="#DejaVuSans-14" transform="translate(63.1875 0)"/>
       <use xlink:href="#DejaVuSans-14" transform="translate(126.8125 0)"/>
      </g>
     </g>
    </g>
    <g id="xtick_11">
     <g id="line2d_11">
      <g>
       <use xlink:href="#m9dd138dc78" x="274.749279" y="267.505696" style="stroke: #000000; stroke-width: 0.8"/>
      </g>
     </g>
     <g id="text_11">
      <!-- E12 -->
      <g transform="translate(272.740238 290.738655) rotate(-60) scale(0.08 -0.08)">
       <use xlink:href="#DejaVuSans-28"/>
       <use xlink:href="#DejaVuSans-14" transform="translate(63.1875 0)"/>
       <use xlink:href="#DejaVuSans-15" transform="translate(126.8125 0)"/>
      </g>
     </g>
    </g>
    <g id="xtick_12">
     <g id="line2d_12">
      <g>
       <use xlink:href="#m9dd138dc78" x="293.823033" y="267.505696" style="stroke: #000000; stroke-width: 0.8"/>
      </g>
     </g>
     <g id="text_12">
      <!-- E13 -->
      <g transform="translate(291.813992 290.738655) rotate(-60) scale(0.08 -0.08)">
       <use xlink:href="#DejaVuSans-28"/>
       <use xlink:href="#DejaVuSans-14" transform="translate(63.1875 0)"/>
       <use xlink:href="#DejaVuSans-16" transform="translate(126.8125 0)"/>
      </g>
     </g>
    </g>
    <g id="xtick_13">
     <g id="line2d_13">
      <g>
       <use xlink:href="#m9dd138dc78" x="312.896787" y="267.505696" style="stroke: #000000; stroke-width: 0.8"/>
      </g>
     </g>
     <g id="text_13">
      <!-- E14 -->
      <g transform="translate(310.887746 290.738655) rotate(-60) scale(0.08 -0.08)">
       <use xlink:href="#DejaVuSans-28"/>
       <use xlink:href="#DejaVuSans-14" transform="translate(63.1875 0)"/>
       <use xlink:href="#DejaVuSans-17" transform="translate(126.8125 0)"/>
      </g>
     </g>
    </g>
    <g id="xtick_14">
     <g id="line2d_14">
      <g>
       <use xlink:href="#m9dd138dc78" x="331.970541" y="267.505696" style="stroke: #000000; stroke-width: 0.8"/>
      </g>
     </g>
     <g id="text_14">
      <!-- E15 -->
      <g transform="translate(329.9615 290.738655) rotate(-60) scale(0.08 -0.08)">
       <use xlink:href="#DejaVuSans-28"/>
       <use xlink:href="#DejaVuSans-14" transform="translate(63.1875 0)"/>
       <use xlink:href="#DejaVuSans-18" transform="translate(126.8125 0)"/>
      </g>
     </g>
    </g>
    <g id="xtick_15">
     <g id="line2d_15">
      <g>
       <use xlink:href="#m9dd138dc78" x="351.044295" y="267.505696" style="stroke: #000000; stroke-width: 0.8"/>
      </g>
     </g>
     <g id="text_15">
      <!-- E16 -->
      <g transform="translate(349.035254 290.738655) rotate(-60) scale(0.08 -0.08)">
       <use xlink:href="#DejaVuSans-28"/>
       <use xlink:href="#DejaVuSans-14" transform="translate(63.1875 0)"/>
       <use xlink:href="#DejaVuSans-19" transform="translate(126.8125 0)"/>
      </g>
     </g>
    </g>
    <g id="xtick_16">
     <g id="line2d_16">
      <g>
       <use xlink:href="#m9dd138dc78" x="370.118049" y="267.505696" style="stroke: #000000; stroke-width: 0.8"/>
      </g>
     </g>
     <g id="text_16">
      <!-- E18 -->
      <g transform="translate(368.109008 290.738655) rotate(-60) scale(0.08 -0.08)">
       <use xlink:href="#DejaVuSans-28"/>
       <use xlink:href="#DejaVuSans-14" transform="translate(63.1875 0)"/>
       <use xlink:href="#DejaVuSans-1b" transform="translate(126.8125 0)"/>
      </g>
     </g>
    </g>
    <g id="xtick_17">
     <g id="line2d_17">
      <g>
       <use xlink:href="#m9dd138dc78" x="389.191803" y="267.505696" style="stroke: #000000; stroke-width: 0.8"/>
      </g>
     </g>
     <g id="text_17">
      <!-- E19 -->
      <g transform="translate(387.182762 290.738655) rotate(-60) scale(0.08 -0.08)">
       <use xlink:href="#DejaVuSans-28"/>
       <use xlink:href="#DejaVuSans-14" transform="translate(63.1875 0)"/>
       <use xlink:href="#DejaVuSans-1c" transform="translate(126.8125 0)"/>
      </g>
     </g>
    </g>
    <g id="xtick_18">
     <g id="line2d_18">
      <g>
       <use xlink:href="#m9dd138dc78" x="408.265557" y="267.505696" style="stroke: #000000; stroke-width: 0.8"/>
      </g>
     </g>
     <g id="text_18">
      <!-- E21 -->
      <g transform="translate(406.256516 290.738655) rotate(-60) scale(0.08 -0.08)">
       <use xlink:href="#DejaVuSans-28"/>
       <use xlink:href="#DejaVuSans-15" transform="translate(63.1875 0)"/>
       <use xlink:href="#DejaVuSans-14" transform="translate(126.8125 0)"/>
      </g>
     </g>
    </g>
    <g id="xtick_19">
     <g id="line2d_19">
      <g>
       <use xlink:href="#m9dd138dc78" x="427.339311" y="267.505696" style="stroke: #000000; stroke-width: 0.8"/>
      </g>
     </g>
     <g id="text_19">
      <!-- E23 -->
      <g transform="translate(425.33027 290.738655) rotate(-60) scale(0.08 -0.08)">
       <use xlink:href="#DejaVuSans-28"/>
       <use xlink:href="#DejaVuSans-15" transform="translate(63.1875 0)"/>
       <use xlink:href="#DejaVuSans-16" transform="translate(126.8125 0)"/>
      </g>
     </g>
    </g>
    <g id="xtick_20">
     <g id="line2d_20">
      <g>
       <use xlink:href="#m9dd138dc78" x="446.413065" y="267.505696" style="stroke: #000000; stroke-width: 0.8"/>
      </g>
     </g>
     <g id="text_20">
      <!-- E25 -->
      <g transform="translate(444.404024 290.738655) rotate(-60) scale(0.08 -0.08)">
       <use xlink:href="#DejaVuSans-28"/>
       <use xlink:href="#DejaVuSans-15" transform="translate(63.1875 0)"/>
       <use xlink:href="#DejaVuSans-18" transform="translate(126.8125 0)"/>
      </g>
     </g>
    </g>
    <g id="xtick_21">
     <g id="line2d_21">
      <g>
       <use xlink:href="#m9dd138dc78" x="465.486819" y="267.505696" style="stroke: #000000; stroke-width: 0.8"/>
      </g>
     </g>
     <g id="text_21">
      <!-- E26 -->
      <g transform="translate(463.477778 290.738655) rotate(-60) scale(0.08 -0.08)">
       <use xlink:href="#DejaVuSans-28"/>
       <use xlink:href="#DejaVuSans-15" transform="translate(63.1875 0)"/>
       <use xlink:href="#DejaVuSans-19" transform="translate(126.8125 0)"/>
      </g>
     </g>
    </g>
    <g id="xtick_22">
     <g id="line2d_22">
      <g>
       <use xlink:href="#m9dd138dc78" x="484.560573" y="267.505696" style="stroke: #000000; stroke-width: 0.8"/>
      </g>
     </g>
     <g id="text_22">
      <!-- E27 -->
      <g transform="translate(482.551532 290.738655) rotate(-60) scale(0.08 -0.08)">
       <use xlink:href="#DejaVuSans-28"/>
       <use xlink:href="#DejaVuSans-15" transform="translate(63.1875 0)"/>
       <use xlink:href="#DejaVuSans-1a" transform="translate(126.8125 0)"/>
      </g>
     </g>
    </g>
    <g id="xtick_23">
     <g id="line2d_23">
      <g>
       <use xlink:href="#m9dd138dc78" x="503.634327" y="267.505696" style="stroke: #000000; stroke-width: 0.8"/>
      </g>
     </g>
     <g id="text_23">
      <!-- E28 -->
      <g transform="translate(501.625286 290.738655) rotate(-60) scale(0.08 -0.08)">
       <use xlink:href="#DejaVuSans-28"/>
       <use xlink:href="#DejaVuSans-15" transform="translate(63.1875 0)"/>
       <use xlink:href="#DejaVuSans-1b" transform="translate(126.8125 0)"/>
      </g>
     </g>
    </g>
    <g id="xtick_24">
     <g id="line2d_24">
      <g>
       <use xlink:href="#m9dd138dc78" x="522.708081" y="267.505696" style="stroke: #000000; stroke-width: 0.8"/>
      </g>
     </g>
     <g id="text_24">
      <!-- E29 -->
      <g transform="translate(520.69904 290.738655) rotate(-60) scale(0.08 -0.08)">
       <use xlink:href="#DejaVuSans-28"/>
       <use xlink:href="#DejaVuSans-15" transform="translate(63.1875 0)"/>
       <use xlink:href="#DejaVuSans-1c" transform="translate(126.8125 0)"/>
      </g>
     </g>
    </g>
    <g id="xtick_25">
     <g id="line2d_25">
      <g>
       <use xlink:href="#m9dd138dc78" x="541.781835" y="267.505696" style="stroke: #000000; stroke-width: 0.8"/>
      </g>
     </g>
     <g id="text_25">
      <!-- E30 -->
      <g transform="translate(539.772794 290.738655) rotate(-60) scale(0.08 -0.08)">
       <use xlink:href="#DejaVuSans-28"/>
       <use xlink:href="#DejaVuSans-16" transform="translate(63.1875 0)"/>
       <use xlink:href="#DejaVuSans-13" transform="translate(126.8125 0)"/>
      </g>
     </g>
    </g>
    <g id="xtick_26">
     <g id="line2d_26">
      <g>
       <use xlink:href="#m9dd138dc78" x="560.855589" y="267.505696" style="stroke: #000000; stroke-width: 0.8"/>
      </g>
     </g>
     <g id="text_26">
      <!-- E31 -->
      <g transform="translate(558.846548 290.738655) rotate(-60) scale(0.08 -0.08)">
       <use xlink:href="#DejaVuSans-28"/>
       <use xlink:href="#DejaVuSans-16" transform="translate(63.1875 0)"/>
       <use xlink:href="#DejaVuSans-14" transform="translate(126.8125 0)"/>
      </g>
     </g>
    </g>
    <g id="xtick_27">
     <g id="line2d_27">
      <g>
       <use xlink:href="#m9dd138dc78" x="579.929343" y="267.505696" style="stroke: #000000; stroke-width: 0.8"/>
      </g>
     </g>
     <g id="text_27">
      <!-- E32 -->
      <g transform="translate(577.920302 290.738655) rotate(-60) scale(0.08 -0.08)">
       <use xlink:href="#DejaVuSans-28"/>
       <use xlink:href="#DejaVuSans-16" transform="translate(63.1875 0)"/>
       <use xlink:href="#DejaVuSans-15" transform="translate(126.8125 0)"/>
      </g>
     </g>
    </g>
    <g id="xtick_28">
     <g id="line2d_28">
      <g>
       <use xlink:href="#m9dd138dc78" x="599.003097" y="267.505696" style="stroke: #000000; stroke-width: 0.8"/>
      </g>
     </g>
     <g id="text_28">
      <!-- E33 -->
      <g transform="translate(596.994056 290.738655) rotate(-60) scale(0.08 -0.08)">
       <use xlink:href="#DejaVuSans-28"/>
       <use xlink:href="#DejaVuSans-16" transform="translate(63.1875 0)"/>
       <use xlink:href="#DejaVuSans-16" transform="translate(126.8125 0)"/>
      </g>
     </g>
    </g>
    <g id="xtick_29">
     <g id="line2d_29">
      <g>
       <use xlink:href="#m9dd138dc78" x="618.076851" y="267.505696" style="stroke: #000000; stroke-width: 0.8"/>
      </g>
     </g>
     <g id="text_29">
      <!-- E34 -->
      <g transform="translate(616.06781 290.738655) rotate(-60) scale(0.08 -0.08)">
       <use xlink:href="#DejaVuSans-28"/>
       <use xlink:href="#DejaVuSans-16" transform="translate(63.1875 0)"/>
       <use xlink:href="#DejaVuSans-17" transform="translate(126.8125 0)"/>
      </g>
     </g>
    </g>
    <g id="xtick_30">
     <g id="line2d_30">
      <g>
       <use xlink:href="#m9dd138dc78" x="637.150605" y="267.505696" style="stroke: #000000; stroke-width: 0.8"/>
      </g>
     </g>
     <g id="text_30">
      <!-- E36 -->
      <g transform="translate(635.141564 290.738655) rotate(-60) scale(0.08 -0.08)">
       <use xlink:href="#DejaVuSans-28"/>
       <use xlink:href="#DejaVuSans-16" transform="translate(63.1875 0)"/>
       <use xlink:href="#DejaVuSans-19" transform="translate(126.8125 0)"/>
      </g>
     </g>
    </g>
   </g>
   <g id="matplotlib.axis_2">
    <g id="ytick_1">
     <g id="line2d_31">
      <path d="M 47.962344 267.505696 
L 673.2 267.505696 
" clip-path="url(#pea9637c251)" style="fill: none; stroke: #b0b0b0; stroke-opacity: 0.3; stroke-width: 0.8; stroke-linecap: square"/>
     </g>
     <g id="line2d_32">
      <defs>
       <path id="mf124891edf" d="M 0 0 
L -3.5 0 
" style="stroke: #000000; stroke-width: 0.8"/>
      </defs>
      <g>
       <use xlink:href="#mf124891edf" x="47.962344" y="267.505696" style="stroke: #000000; stroke-width: 0.8"/>
      </g>
     </g>
     <g id="text_31">
      <!-- 0.0 -->
      <g transform="translate(25.059219 271.304524) scale(0.1 -0.1)">
       <defs>
        <path id="DejaVuSans-11" d="M 684 794 
L 1344 794 
L 1344 0 
L 684 0 
L 684 794 
z
" transform="scale(0.015625)"/>
       </defs>
       <use xlink:href="#DejaVuSans-13"/>
       <use xlink:href="#DejaVuSans-11" transform="translate(63.625 0)"/>
       <use xlink:href="#DejaVuSans-13" transform="translate(95.40625 0)"/>
      </g>
     </g>
    </g>
    <g id="ytick_2">
     <g id="line2d_33">
      <path d="M 47.962344 217.837925 
L 673.2 217.837925 
" clip-path="url(#pea9637c251)" style="fill: none; stroke: #b0b0b0; stroke-opacity: 0.3; stroke-width: 0.8; stroke-linecap: square"/>
     </g>
     <g id="line2d_34">
      <g>
       <use xlink:href="#mf124891edf" x="47.962344" y="217.837925" style="stroke: #000000; stroke-width: 0.8"/>
      </g>
     </g>
     <g id="text_32">
      <!-- 0.5 -->
      <g transform="translate(25.059219 221.636753) scale(0.1 -0.1)">
       <use xlink:href="#DejaVuSans-13"/>
       <use xlink:href="#DejaVuSans-11" transform="translate(63.625 0)"/>
       <use xlink:href="#DejaVuSans-18" transform="translate(95.40625 0)"/>
      </g>
     </g>
    </g>
    <g id="ytick_3">
     <g id="line2d_35">
      <path d="M 47.962344 168.170154 
L 673.2 168.170154 
" clip-path="url(#pea9637c251)" style="fill: none; stroke: #b0b0b0; stroke-opacity: 0.3; stroke-width: 0.8; stroke-linecap: square"/>
     </g>
     <g id="line2d_36">
      <g>
       <use xlink:href="#mf124891edf" x="47.962344" y="168.170154" style="stroke: #000000; stroke-width: 0.8"/>
      </g>
     </g>
     <g id="text_33">
      <!-- 1.0 -->
      <g transform="translate(25.059219 171.968982) scale(0.1 -0.1)">
       <use xlink:href="#DejaVuSans-14"/>
       <use xlink:href="#DejaVuSans-11" transform="translate(63.625 0)"/>
       <use xlink:href="#DejaVuSans-13" transform="translate(95.40625 0)"/>
      </g>
     </g>
    </g>
    <g id="ytick_4">
     <g id="line2d_37">
      <path d="M 47.962344 118.502382 
L 673.2 118.502382 
" clip-path="url(#pea9637c251)" style="fill: none; stroke: #b0b0b0; stroke-opacity: 0.3; stroke-width: 0.8; stroke-linecap: square"/>
     </g>
     <g id="line2d_38">
      <g>
       <use xlink:href="#mf124891edf" x="47.962344" y="118.502382" style="stroke: #000000; stroke-width: 0.8"/>
      </g>
     </g>
     <g id="text_34">
      <!-- 1.5 -->
      <g transform="translate(25.059219 122.301211) scale(0.1 -0.1)">
       <use xlink:href="#DejaVuSans-14"/>
       <use xlink:href="#DejaVuSans-11" transform="translate(63.625 0)"/>
       <use xlink:href="#DejaVuSans-18" transform="translate(95.40625 0)"/>
      </g>
     </g>
    </g>
    <g id="ytick_5">
     <g id="line2d_39">
      <path d="M 47.962344 68.834611 
L 673.2 68.834611 
" clip-path="url(#pea9637c251)" style="fill: none; stroke: #b0b0b0; stroke-opacity: 0.3; stroke-width: 0.8; stroke-linecap: square"/>
     </g>
     <g id="line2d_40">
      <g>
       <use xlink:href="#mf124891edf" x="47.962344" y="68.834611" style="stroke: #000000; stroke-width: 0.8"/>
      </g>
     </g>
     <g id="text_35">
      <!-- 2.0 -->
      <g transform="translate(25.059219 72.633439) scale(0.1 -0.1)">
       <use xlink:href="#DejaVuSans-15"/>
       <use xlink:href="#DejaVuSans-11" transform="translate(63.625 0)"/>
       <use xlink:href="#DejaVuSans-13" transform="translate(95.40625 0)"/>
      </g>
     </g>
    </g>
    <g id="text_36">
     <!-- RMS 3D vs SP3, ±1 h (m) -->
     <g transform="translate(18.656875 210.556129) rotate(-90) scale(0.1 -0.1)">
      <defs>
       <path id="DejaVuSans-35" d="M 2841 2188 
Q 3044 2119 3236 1894 
Q 3428 1669 3622 1275 
L 4263 0 
L 3584 0 
L 2988 1197 
Q 2756 1666 2539 1819 
Q 2322 1972 1947 1972 
L 1259 1972 
L 1259 0 
L 628 0 
L 628 4666 
L 2053 4666 
Q 2853 4666 3247 4331 
Q 3641 3997 3641 3322 
Q 3641 2881 3436 2590 
Q 3231 2300 2841 2188 
z
M 1259 4147 
L 1259 2491 
L 2053 2491 
Q 2509 2491 2742 2702 
Q 2975 2913 2975 3322 
Q 2975 3731 2742 3939 
Q 2509 4147 2053 4147 
L 1259 4147 
z
" transform="scale(0.015625)"/>
       <path id="DejaVuSans-30" d="M 628 4666 
L 1569 4666 
L 2759 1491 
L 3956 4666 
L 4897 4666 
L 4897 0 
L 4281 0 
L 4281 4097 
L 3078 897 
L 2444 897 
L 1241 4097 
L 1241 0 
L 628 0 
L 628 4666 
z
" transform="scale(0.015625)"/>
       <path id="DejaVuSans-36" d="M 3425 4513 
L 3425 3897 
Q 3066 4069 2747 4153 
Q 2428 4238 2131 4238 
Q 1616 4238 1336 4038 
Q 1056 3838 1056 3469 
Q 1056 3159 1242 3001 
Q 1428 2844 1947 2747 
L 2328 2669 
Q 3034 2534 3370 2195 
Q 3706 1856 3706 1288 
Q 3706 609 3251 259 
Q 2797 -91 1919 -91 
Q 1588 -91 1214 -16 
Q 841 59 441 206 
L 441 856 
Q 825 641 1194 531 
Q 1563 422 1919 422 
Q 2459 422 2753 634 
Q 3047 847 3047 1241 
Q 3047 1584 2836 1778 
Q 2625 1972 2144 2069 
L 1759 2144 
Q 1053 2284 737 2584 
Q 422 2884 422 3419 
Q 422 4038 858 4394 
Q 1294 4750 2059 4750 
Q 2388 4750 2728 4690 
Q 3069 4631 3425 4513 
z
" transform="scale(0.015625)"/>
       <path id="DejaVuSans-3" transform="scale(0.015625)"/>
       <path id="DejaVuSans-27" d="M 1259 4147 
L 1259 519 
L 2022 519 
Q 2988 519 3436 956 
Q 3884 1394 3884 2338 
Q 3884 3275 3436 3711 
Q 2988 4147 2022 4147 
L 1259 4147 
z
M 628 4666 
L 1925 4666 
Q 3281 4666 3915 4102 
Q 4550 3538 4550 2338 
Q 4550 1131 3912 565 
Q 3275 0 1925 0 
L 628 0 
L 628 4666 
z
" transform="scale(0.015625)"/>
       <path id="DejaVuSans-59" d="M 191 3500 
L 800 3500 
L 1894 563 
L 2988 3500 
L 3597 3500 
L 2284 0 
L 1503 0 
L 191 3500 
z
" transform="scale(0.015625)"/>
       <path id="DejaVuSans-56" d="M 2834 3397 
L 2834 2853 
Q 2591 2978 2328 3040 
Q 2066 3103 1784 3103 
Q 1356 3103 1142 2972 
Q 928 2841 928 2578 
Q 928 2378 1081 2264 
Q 1234 2150 1697 2047 
L 1894 2003 
Q 2506 1872 2764 1633 
Q 3022 1394 3022 966 
Q 3022 478 2636 193 
Q 2250 -91 1575 -91 
Q 1294 -91 989 -36 
Q 684 19 347 128 
L 347 722 
Q 666 556 975 473 
Q 1284 391 1588 391 
Q 1994 391 2212 530 
Q 2431 669 2431 922 
Q 2431 1156 2273 1281 
Q 2116 1406 1581 1522 
L 1381 1569 
Q 847 1681 609 1914 
Q 372 2147 372 2553 
Q 372 3047 722 3315 
Q 1072 3584 1716 3584 
Q 2034 3584 2315 3537 
Q 2597 3491 2834 3397 
z
" transform="scale(0.015625)"/>
       <path id="DejaVuSans-33" d="M 1259 4147 
L 1259 2394 
L 2053 2394 
Q 2494 2394 2734 2622 
Q 2975 2850 2975 3272 
Q 2975 3691 2734 3919 
Q 2494 4147 2053 4147 
L 1259 4147 
z
M 628 4666 
L 2053 4666 
Q 2838 4666 3239 4311 
Q 3641 3956 3641 3272 
Q 3641 2581 3239 2228 
Q 2838 1875 2053 1875 
L 1259 1875 
L 1259 0 
L 628 0 
L 628 4666 
z
" transform="scale(0.015625)"/>
       <path id="DejaVuSans-f" d="M 750 794 
L 1409 794 
L 1409 256 
L 897 -744 
L 494 -744 
L 750 256 
L 750 794 
z
" transform="scale(0.015625)"/>
       <path id="DejaVuSans-73" d="M 2944 4013 
L 2944 2803 
L 4684 2803 
L 4684 2272 
L 2944 2272 
L 2944 1063 
L 2419 1063 
L 2419 2272 
L 678 2272 
L 678 2803 
L 2419 2803 
L 2419 4013 
L 2944 4013 
z
M 678 531 
L 4684 531 
L 4684 0 
L 678 0 
L 678 531 
z
" transform="scale(0.015625)"/>
       <path id="DejaVuSans-4b" d="M 3513 2113 
L 3513 0 
L 2938 0 
L 2938 2094 
Q 2938 2591 2744 2837 
Q 2550 3084 2163 3084 
Q 1697 3084 1428 2787 
Q 1159 2491 1159 1978 
L 1159 0 
L 581 0 
L 581 4863 
L 1159 4863 
L 1159 2956 
Q 1366 3272 1645 3428 
Q 1925 3584 2291 3584 
Q 2894 3584 3203 3211 
Q 3513 2838 3513 2113 
z
" transform="scale(0.015625)"/>
       <path id="DejaVuSans-b" d="M 1984 4856 
Q 1566 4138 1362 3434 
Q 1159 2731 1159 2009 
Q 1159 1288 1364 580 
Q 1569 -128 1984 -844 
L 1484 -844 
Q 1016 -109 783 600 
Q 550 1309 550 2009 
Q 550 2706 781 3412 
Q 1013 4119 1484 4856 
L 1984 4856 
z
" transform="scale(0.015625)"/>
       <path id="DejaVuSans-50" d="M 3328 2828 
Q 3544 3216 3844 3400 
Q 4144 3584 4550 3584 
Q 5097 3584 5394 3201 
Q 5691 2819 5691 2113 
L 5691 0 
L 5113 0 
L 5113 2094 
Q 5113 2597 4934 2840 
Q 4756 3084 4391 3084 
Q 3944 3084 3684 2787 
Q 3425 2491 3425 1978 
L 3425 0 
L 2847 0 
L 2847 2094 
Q 2847 2600 2669 2842 
Q 2491 3084 2119 3084 
Q 1678 3084 1418 2786 
Q 1159 2488 1159 1978 
L 1159 0 
L 581 0 
L 581 3500 
L 1159 3500 
L 1159 2956 
Q 1356 3278 1631 3431 
Q 1906 3584 2284 3584 
Q 2666 3584 2933 3390 
Q 3200 3197 3328 2828 
z
" transform="scale(0.015625)"/>
       <path id="DejaVuSans-c" d="M 513 4856 
L 1013 4856 
Q 1481 4119 1714 3412 
Q 1947 2706 1947 2009 
Q 1947 1309 1714 600 
Q 1481 -109 1013 -844 
L 513 -844 
Q 928 -128 1133 580 
Q 1338 1288 1338 2009 
Q 1338 2731 1133 3434 
Q 928 4138 513 4856 
z
" transform="scale(0.015625)"/>
      </defs>
      <use xlink:href="#DejaVuSans-35"/>
      <use xlink:href="#DejaVuSans-30" transform="translate(69.484375 0)"/>
      <use xlink:href="#DejaVuSans-36" transform="translate(155.765625 0)"/>
      <use xlink:href="#DejaVuSans-3" transform="translate(219.25 0)"/>
      <use xlink:href="#DejaVuSans-16" transform="translate(251.03125 0)"/>
      <use xlink:href="#DejaVuSans-27" transform="translate(314.65625 0)"/>
      <use xlink:href="#DejaVuSans-3" transform="translate(391.65625 0)"/>
      <use xlink:href="#DejaVuSans-59" transform="translate(423.4375 0)"/>
      <use xlink:href="#DejaVuSans-56" transform="translate(482.625 0)"/>
      <use xlink:href="#DejaVuSans-3" transform="translate(534.71875 0)"/>
      <use xlink:href="#DejaVuSans-36" transform="translate(566.5 0)"/>
      <use xlink:href="#DejaVuSans-33" transform="translate(629.984375 0)"/>
      <use xlink:href="#DejaVuSans-16" transform="translate(690.28125 0)"/>
      <use xlink:href="#DejaVuSans-f" transform="translate(753.90625 0)"/>
      <use xlink:href="#DejaVuSans-3" transform="translate(785.6875 0)"/>
      <use xlink:href="#DejaVuSans-73" transform="translate(817.46875 0)"/>
      <use xlink:href="#DejaVuSans-14" transform="translate(901.265625 0)"/>
      <use xlink:href="#DejaVuSans-3" transform="translate(964.890625 0)"/>
      <use xlink:href="#DejaVuSans-4b" transform="translate(996.671875 0)"/>
      <use xlink:href="#DejaVuSans-3" transform="translate(1060.046875 0)"/>
      <use xlink:href="#DejaVuSans-b" transform="translate(1091.828125 0)"/>
      <use xlink:href="#DejaVuSans-50" transform="translate(1130.84375 0)"/>
      <use xlink:href="#DejaVuSans-c" transform="translate(1228.25 0)"/>
     </g>
    </g>
   </g>
   <g id="line2d_41">
    <path d="M 47.962344 152.121576 
L 673.2 152.121576 
" clip-path="url(#pea9637c251)" style="fill: none; stroke-dasharray: 3.7,1.6; stroke-dashoffset: 0; stroke: #000000"/>
   </g>
   <g id="patch_33">
    <path d="M 47.962344 267.505696 
L 47.962344 26.88 
" style="fill: none; stroke: #000000; stroke-width: 0.8; stroke-linejoin: miter; stroke-linecap: square"/>
   </g>
   <g id="patch_34">
    <path d="M 673.2 267.505696 
L 673.2 26.88 
" style="fill: none; stroke: #000000; stroke-width: 0.8; stroke-linejoin: miter; stroke-linecap: square"/>
   </g>
   <g id="patch_35">
    <path d="M 47.962344 267.505696 
L 673.2 267.505696 
" style="fill: none; stroke: #000000; stroke-width: 0.8; stroke-linejoin: miter; stroke-linecap: square"/>
   </g>
   <g id="patch_36">
    <path d="M 47.962344 26.88 
L 673.2 26.88 
" style="fill: none; stroke: #000000; stroke-width: 0.8; stroke-linejoin: miter; stroke-linecap: square"/>
   </g>
   <g id="text_37">
    <!-- Los 30 Galileo activos: broadcast metro-nivel en toda la constelación -->
    <g transform="translate(153.317734 20.88) scale(0.12 -0.12)">
     <defs>
      <path id="DejaVuSans-2f" d="M 628 4666 
L 1259 4666 
L 1259 531 
L 3531 531 
L 3531 0 
L 628 0 
L 628 4666 
z
" transform="scale(0.015625)"/>
      <path id="DejaVuSans-52" d="M 1959 3097 
Q 1497 3097 1228 2736 
Q 959 2375 959 1747 
Q 959 1119 1226 758 
Q 1494 397 1959 397 
Q 2419 397 2687 759 
Q 2956 1122 2956 1747 
Q 2956 2369 2687 2733 
Q 2419 3097 1959 3097 
z
M 1959 3584 
Q 2709 3584 3137 3096 
Q 3566 2609 3566 1747 
Q 3566 888 3137 398 
Q 2709 -91 1959 -91 
Q 1206 -91 779 398 
Q 353 888 353 1747 
Q 353 2609 779 3096 
Q 1206 3584 1959 3584 
z
" transform="scale(0.015625)"/>
      <path id="DejaVuSans-2a" d="M 3809 666 
L 3809 1919 
L 2778 1919 
L 2778 2438 
L 4434 2438 
L 4434 434 
Q 4069 175 3628 42 
Q 3188 -91 2688 -91 
Q 1594 -91 976 548 
Q 359 1188 359 2328 
Q 359 3472 976 4111 
Q 1594 4750 2688 4750 
Q 3144 4750 3555 4637 
Q 3966 4525 4313 4306 
L 4313 3634 
Q 3963 3931 3569 4081 
Q 3175 4231 2741 4231 
Q 1884 4231 1454 3753 
Q 1025 3275 1025 2328 
Q 1025 1384 1454 906 
Q 1884 428 2741 428 
Q 3075 428 3337 486 
Q 3600 544 3809 666 
z
" transform="scale(0.015625)"/>
      <path id="DejaVuSans-44" d="M 2194 1759 
Q 1497 1759 1228 1600 
Q 959 1441 959 1056 
Q 959 750 1161 570 
Q 1363 391 1709 391 
Q 2188 391 2477 730 
Q 2766 1069 2766 1631 
L 2766 1759 
L 2194 1759 
z
M 3341 1997 
L 3341 0 
L 2766 0 
L 2766 531 
Q 2569 213 2275 61 
Q 1981 -91 1556 -91 
Q 1019 -91 701 211 
Q 384 513 384 1019 
Q 384 1609 779 1909 
Q 1175 2209 1959 2209 
L 2766 2209 
L 2766 2266 
Q 2766 2663 2505 2880 
Q 2244 3097 1772 3097 
Q 1472 3097 1187 3025 
Q 903 2953 641 2809 
L 641 3341 
Q 956 3463 1253 3523 
Q 1550 3584 1831 3584 
Q 2591 3584 2966 3190 
Q 3341 2797 3341 1997 
z
" transform="scale(0.015625)"/>
      <path id="DejaVuSans-4f" d="M 603 4863 
L 1178 4863 
L 1178 0 
L 603 0 
L 603 4863 
z
" transform="scale(0.015625)"/>
      <path id="DejaVuSans-4c" d="M 603 3500 
L 1178 3500 
L 1178 0 
L 603 0 
L 603 3500 
z
M 603 4863 
L 1178 4863 
L 1178 4134 
L 603 4134 
L 603 4863 
z
" transform="scale(0.015625)"/>
      <path id="DejaVuSans-48" d="M 3597 1894 
L 3597 1613 
L 953 1613 
Q 991 1019 1311 708 
Q 1631 397 2203 397 
Q 2534 397 2845 478 
Q 3156 559 3463 722 
L 3463 178 
Q 3153 47 2828 -22 
Q 2503 -91 2169 -91 
Q 1331 -91 842 396 
Q 353 884 353 1716 
Q 353 2575 817 3079 
Q 1281 3584 2069 3584 
Q 2775 3584 3186 3129 
Q 3597 2675 3597 1894 
z
M 3022 2063 
Q 3016 2534 2758 2815 
Q 2500 3097 2075 3097 
Q 1594 3097 1305 2825 
Q 1016 2553 972 2059 
L 3022 2063 
z
" transform="scale(0.015625)"/>
      <path id="DejaVuSans-46" d="M 3122 3366 
L 3122 2828 
Q 2878 2963 2633 3030 
Q 2388 3097 2138 3097 
Q 1578 3097 1268 2742 
Q 959 2388 959 1747 
Q 959 1106 1268 751 
Q 1578 397 2138 397 
Q 2388 397 2633 464 
Q 2878 531 3122 666 
L 3122 134 
Q 2881 22 2623 -34 
Q 2366 -91 2075 -91 
Q 1284 -91 818 406 
Q 353 903 353 1747 
Q 353 2603 823 3093 
Q 1294 3584 2113 3584 
Q 2378 3584 2631 3529 
Q 2884 3475 3122 3366 
z
" transform="scale(0.015625)"/>
      <path id="DejaVuSans-57" d="M 1172 4494 
L 1172 3500 
L 2356 3500 
L 2356 3053 
L 1172 3053 
L 1172 1153 
Q 1172 725 1289 603 
Q 1406 481 1766 481 
L 2356 481 
L 2356 0 
L 1766 0 
Q 1100 0 847 248 
Q 594 497 594 1153 
L 594 3053 
L 172 3053 
L 172 3500 
L 594 3500 
L 594 4494 
L 1172 4494 
z
" transform="scale(0.015625)"/>
      <path id="DejaVuSans-1d" d="M 750 794 
L 1409 794 
L 1409 0 
L 750 0 
L 750 794 
z
M 750 3309 
L 1409 3309 
L 1409 2516 
L 750 2516 
L 750 3309 
z
" transform="scale(0.015625)"/>
      <path id="DejaVuSans-45" d="M 3116 1747 
Q 3116 2381 2855 2742 
Q 2594 3103 2138 3103 
Q 1681 3103 1420 2742 
Q 1159 2381 1159 1747 
Q 1159 1113 1420 752 
Q 1681 391 2138 391 
Q 2594 391 2855 752 
Q 3116 1113 3116 1747 
z
M 1159 2969 
Q 1341 3281 1617 3432 
Q 1894 3584 2278 3584 
Q 2916 3584 3314 3078 
Q 3713 2572 3713 1747 
Q 3713 922 3314 415 
Q 2916 -91 2278 -91 
Q 1894 -91 1617 61 
Q 1341 213 1159 525 
L 1159 0 
L 581 0 
L 581 4863 
L 1159 4863 
L 1159 2969 
z
" transform="scale(0.015625)"/>
      <path id="DejaVuSans-55" d="M 2631 2963 
Q 2534 3019 2420 3045 
Q 2306 3072 2169 3072 
Q 1681 3072 1420 2755 
Q 1159 2438 1159 1844 
L 1159 0 
L 581 0 
L 581 3500 
L 1159 3500 
L 1159 2956 
Q 1341 3275 1631 3429 
Q 1922 3584 2338 3584 
Q 2397 3584 2469 3576 
Q 2541 3569 2628 3553 
L 2631 2963 
z
" transform="scale(0.015625)"/>
      <path id="DejaVuSans-47" d="M 2906 2969 
L 2906 4863 
L 3481 4863 
L 3481 0 
L 2906 0 
L 2906 525 
Q 2725 213 2448 61 
Q 2172 -91 1784 -91 
Q 1150 -91 751 415 
Q 353 922 353 1747 
Q 353 2572 751 3078 
Q 1150 3584 1784 3584 
Q 2172 3584 2448 3432 
Q 2725 3281 2906 2969 
z
M 947 1747 
Q 947 1113 1208 752 
Q 1469 391 1925 391 
Q 2381 391 2643 752 
Q 2906 1113 2906 1747 
Q 2906 2381 2643 2742 
Q 2381 3103 1925 3103 
Q 1469 3103 1208 2742 
Q 947 2381 947 1747 
z
" transform="scale(0.015625)"/>
      <path id="DejaVuSans-10" d="M 313 2009 
L 1997 2009 
L 1997 1497 
L 313 1497 
L 313 2009 
z
" transform="scale(0.015625)"/>
      <path id="DejaVuSans-51" d="M 3513 2113 
L 3513 0 
L 2938 0 
L 2938 2094 
Q 2938 2591 2744 2837 
Q 2550 3084 2163 3084 
Q 1697 3084 1428 2787 
Q 1159 2491 1159 1978 
L 1159 0 
L 581 0 
L 581 3500 
L 1159 3500 
L 1159 2956 
Q 1366 3272 1645 3428 
Q 1925 3584 2291 3584 
Q 2894 3584 3203 3211 
Q 3513 2838 3513 2113 
z
" transform="scale(0.015625)"/>
      <path id="DejaVuSans-b5" d="M 1959 3097 
Q 1497 3097 1228 2736 
Q 959 2375 959 1747 
Q 959 1119 1226 758 
Q 1494 397 1959 397 
Q 2419 397 2687 759 
Q 2956 1122 2956 1747 
Q 2956 2369 2687 2733 
Q 2419 3097 1959 3097 
z
M 1959 3584 
Q 2709 3584 3137 3096 
Q 3566 2609 3566 1747 
Q 3566 888 3137 398 
Q 2709 -91 1959 -91 
Q 1206 -91 779 398 
Q 353 888 353 1747 
Q 353 2609 779 3096 
Q 1206 3584 1959 3584 
z
M 2393 5119 
L 3015 5119 
L 1997 3944 
L 1518 3944 
L 2393 5119 
z
" transform="scale(0.015625)"/>
     </defs>
     <use xlink:href="#DejaVuSans-2f"/>
     <use xlink:href="#DejaVuSans-52" transform="translate(53.96875 0)"/>
     <use xlink:href="#DejaVuSans-56" transform="translate(115.15625 0)"/>
     <use xlink:href="#DejaVuSans-3" transform="translate(167.25 0)"/>
     <use xlink:href="#DejaVuSans-16" transform="translate(199.03125 0)"/>
     <use xlink:href="#DejaVuSans-13" transform="translate(262.65625 0)"/>
     <use xlink:href="#DejaVuSans-3" transform="translate(326.28125 0)"/>
     <use xlink:href="#DejaVuSans-2a" transform="translate(358.0625 0)"/>
     <use xlink:href="#DejaVuSans-44" transform="translate(435.546875 0)"/>
     <use xlink:href="#DejaVuSans-4f" transform="translate(496.828125 0)"/>
     <use xlink:href="#DejaVuSans-4c" transform="translate(524.609375 0)"/>
     <use xlink:href="#DejaVuSans-4f" transform="translate(552.390625 0)"/>
     <use xlink:href="#DejaVuSans-48" transform="translate(580.171875 0)"/>
     <use xlink:href="#DejaVuSans-52" transform="translate(641.703125 0)"/>
     <use xlink:href="#DejaVuSans-3" transform="translate(702.890625 0)"/>
     <use xlink:href="#DejaVuSans-44" transform="translate(734.671875 0)"/>
     <use xlink:href="#DejaVuSans-46" transform="translate(795.953125 0)"/>
     <use xlink:href="#DejaVuSans-57" transform="translate(850.9375 0)"/>
     <use xlink:href="#DejaVuSans-4c" transform="translate(890.140625 0)"/>
     <use xlink:href="#DejaVuSans-59" transform="translate(917.921875 0)"/>
     <use xlink:href="#DejaVuSans-52" transform="translate(977.109375 0)"/>
     <use xlink:href="#DejaVuSans-56" transform="translate(1038.296875 0)"/>
     <use xlink:href="#DejaVuSans-1d" transform="translate(1090.390625 0)"/>
     <use xlink:href="#DejaVuSans-3" transform="translate(1124.078125 0)"/>
     <use xlink:href="#DejaVuSans-45" transform="translate(1155.859375 0)"/>
     <use xlink:href="#DejaVuSans-55" transform="translate(1219.34375 0)"/>
     <use xlink:href="#DejaVuSans-52" transform="translate(1258.25 0)"/>
     <use xlink:href="#DejaVuSans-44" transform="translate(1319.4375 0)"/>
     <use xlink:href="#DejaVuSans-47" transform="translate(1380.71875 0)"/>
     <use xlink:href="#DejaVuSans-46" transform="translate(1444.203125 0)"/>
     <use xlink:href="#DejaVuSans-44" transform="translate(1499.1875 0)"/>
     <use xlink:href="#DejaVuSans-56" transform="translate(1560.46875 0)"/>
     <use xlink:href="#DejaVuSans-57" transform="translate(1612.5625 0)"/>
     <use xlink:href="#DejaVuSans-3" transform="translate(1651.765625 0)"/>
     <use xlink:href="#DejaVuSans-50" transform="translate(1683.546875 0)"/>
     <use xlink:href="#DejaVuSans-48" transform="translate(1780.953125 0)"/>
     <use xlink:href="#DejaVuSans-57" transform="translate(1842.484375 0)"/>
     <use xlink:href="#DejaVuSans-55" transform="translate(1881.6875 0)"/>
     <use xlink:href="#DejaVuSans-52" transform="translate(1920.59375 0)"/>
     <use xlink:href="#DejaVuSans-10" transform="translate(1983.640625 0)"/>
     <use xlink:href="#DejaVuSans-51" transform="translate(2019.71875 0)"/>
     <use xlink:href="#DejaVuSans-4c" transform="translate(2083.09375 0)"/>
     <use xlink:href="#DejaVuSans-59" transform="translate(2110.875 0)"/>
     <use xlink:href="#DejaVuSans-48" transform="translate(2170.0625 0)"/>
     <use xlink:href="#DejaVuSans-4f" transform="translate(2231.59375 0)"/>
     <use xlink:href="#DejaVuSans-3" transform="translate(2259.375 0)"/>
     <use xlink:href="#DejaVuSans-48" transform="translate(2291.15625 0)"/>
     <use xlink:href="#DejaVuSans-51" transform="translate(2352.6875 0)"/>
     <use xlink:href="#DejaVuSans-3" transform="translate(2416.0625 0)"/>
     <use xlink:href="#DejaVuSans-57" transform="translate(2447.84375 0)"/>
     <use xlink:href="#DejaVuSans-52" transform="translate(2487.046875 0)"/>
     <use xlink:href="#DejaVuSans-47" transform="translate(2548.234375 0)"/>
     <use xlink:href="#DejaVuSans-44" transform="translate(2611.71875 0)"/>
     <use xlink:href="#DejaVuSans-3" transform="translate(2673 0)"/>
     <use xlink:href="#DejaVuSans-4f" transform="translate(2704.78125 0)"/>
     <use xlink:href="#DejaVuSans-44" transform="translate(2732.5625 0)"/>
     <use xlink:href="#DejaVuSans-3" transform="translate(2793.84375 0)"/>
     <use xlink:href="#DejaVuSans-46" transform="translate(2825.625 0)"/>
     <use xlink:href="#DejaVuSans-52" transform="translate(2880.609375 0)"/>
     <use xlink:href="#DejaVuSans-51" transform="translate(2941.796875 0)"/>
     <use xlink:href="#DejaVuSans-56" transform="translate(3005.171875 0)"/>
     <use xlink:href="#DejaVuSans-57" transform="translate(3057.265625 0)"/>
     <use xlink:href="#DejaVuSans-48" transform="translate(3096.46875 0)"/>
     <use xlink:href="#DejaVuSans-4f" transform="translate(3158 0)"/>
     <use xlink:href="#DejaVuSans-44" transform="translate(3185.78125 0)"/>
     <use xlink:href="#DejaVuSans-46" transform="translate(3247.0625 0)"/>
     <use xlink:href="#DejaVuSans-4c" transform="translate(3302.046875 0)"/>
     <use xlink:href="#DejaVuSans-b5" transform="translate(3329.828125 0)"/>
     <use xlink:href="#DejaVuSans-51" transform="translate(3391.015625 0)"/>
    </g>
   </g>
   <g id="legend_1">
    <g id="patch_37">
     <path d="M 564.321094 47.580703 
L 666.9 47.580703 
Q 668.7 47.580703 668.7 45.780703 
L 668.7 33.18 
Q 668.7 31.38 666.9 31.38 
L 564.321094 31.38 
Q 562.521094 31.38 562.521094 33.18 
L 562.521094 45.780703 
Q 562.521094 47.580703 564.321094 47.580703 
z
" style="fill: #ffffff; opacity: 0.8; stroke: #cccccc; stroke-linejoin: miter"/>
    </g>
    <g id="line2d_42">
     <path d="M 566.121094 38.668594 
L 575.121094 38.668594 
L 584.121094 38.668594 
" style="fill: none; stroke-dasharray: 3.7,1.6; stroke-dashoffset: 0; stroke: #000000"/>
    </g>
    <g id="text_38">
     <!-- mediana 1.16 m -->
     <g transform="translate(591.321094 41.818594) scale(0.09 -0.09)">
      <use xlink:href="#DejaVuSans-50"/>
      <use xlink:href="#DejaVuSans-48" transform="translate(97.40625 0)"/>
      <use xlink:href="#DejaVuSans-47" transform="translate(158.9375 0)"/>
      <use xlink:href="#DejaVuSans-4c" transform="translate(222.421875 0)"/>
      <use xlink:href="#DejaVuSans-44" transform="translate(250.203125 0)"/>
      <use xlink:href="#DejaVuSans-51" transform="translate(311.484375 0)"/>
      <use xlink:href="#DejaVuSans-44" transform="translate(374.859375 0)"/>
      <use xlink:href="#DejaVuSans-3" transform="translate(436.140625 0)"/>
      <use xlink:href="#DejaVuSans-14" transform="translate(467.921875 0)"/>
      <use xlink:href="#DejaVuSans-11" transform="translate(531.546875 0)"/>
      <use xlink:href="#DejaVuSans-14" transform="translate(563.328125 0)"/>
      <use xlink:href="#DejaVuSans-19" transform="translate(626.953125 0)"/>
      <use xlink:href="#DejaVuSans-3" transform="translate(690.578125 0)"/>
      <use xlink:href="#DejaVuSans-50" transform="translate(722.359375 0)"/>
     </g>
    </g>
   </g>
  </g>
 </g>
 <defs>
  <clipPath id="pea9637c251">
   <rect x="47.962344" y="26.88" width="625.237656" height="240.625696"/>
  </clipPath>
 </defs>
</svg>
