<?xml version="1.0" encoding="utf-8" standalone="no"?>
<!DOCTYPE svg PUBLIC "-//W3C//DTD SVG 1.1//EN"
  "http://www.w3.org/Graphics/SVG/1.1/DTD/svg11.dtd">
<svg xmlns:xlink="http://www.w3.org/1999/xlink" width="612pt" height="316.8pt" viewBox="0 0 612 316.8" xmlns="http://www.w3.org/2000/svg" version="1.1">
 <metadata>
  <rdf:RDF xmlns:dc="http://purl.org/dc/elements/1.1/" xmlns:cc="http://creativecommons.org/ns#" xmlns:rdf="http://www.w3.org/1999/02/22-rdf-syntax-ns#">
   <cc:Work>
    <dc:type rdf:resource="http://purl.org/dc/dcmitype/StillImage"/>
    <dc:date>2026-07-03T01:57:28.974598</dc:date>
    <dc:format>image/svg+xml</dc:format>
    <dc:creator>
     <cc:Agent>
      <dc:title>Matplotlib v3.11.0, https://matplotlib.org/</dc:title>
     </cc:Agent>
    </dc:creator>
   </cc:Work>
  </rdf:RDF>
 </metadata>
 <defs>
  <style type="text/css">*{stroke-linejoin: round; stroke-linecap: butt}</style>
 </defs>
 <g id="figure_1">
  <g id="patch_1">
   <path d="M 0 316.8 
L 612 316.8 
L 612 0 
L 0 0 
z
" style="fill: #ffffff"/>
  </g>
  <g id="axes_1">
   <g id="patch_2">
    <path d="M 47.242344 274.677656 
L 601.2 274.677656 
L 601.2 26.88 
L 47.242344 26.88 
z
" style="fill: #ffffff"/>
   </g>
   <g id="matplotlib.axis_1">
    <g id="xtick_1">
     <g id="line2d_1">
      <path d="M 72.422237 274.677656 
L 72.422237 26.88 
" clip-path="url(#p6bf005f29d)" style="fill: none; stroke: #b0b0b0; stroke-opacity: 0.3; stroke-width: 0.8; stroke-linecap: square"/>
     </g>
     <g id="line2d_2">
      <defs>
       <path id="m92bec912c7" d="M 0 0 
L 0 3.5 
" style="stroke: #000000; stroke-width: 0.8"/>
      </defs>
      <g>
       <use xlink:href="#m92bec912c7" x="72.422237" y="274.677656" style="stroke: #000000; stroke-width: 0.8"/>
      </g>
     </g>
     <g id="text_1">
      <!-- 0 -->
      <g transform="translate(69.240987 289.275313) scale(0.1 -0.1)">
       <defs>
        <path id="DejaVuSans-13" d="M 2034 4250 
Q 1547 4250 1301 3770 
Q 1056 3291 1056 2328 
Q 1056 1369 1301 889 
Q 1547 409 2034 409 
Q 2525 409 2770 889 
Q 3016 1369 3016 2328 
Q 3016 3291 2770 3770 
Q 2525 4250 2034 4250 
z
M 2034 4750 
Q 2819 4750 3233 4129 
Q 3647 3509 3647 2328 
Q 3647 1150 3233 529 
Q 2819 -91 2034 -91 
Q 1250 -91 836 529 
Q 422 1150 422 2328 
Q 422 3509 836 4129 
Q 1250 4750 2034 4750 
z
" transform="scale(0.015625)"/>
       </defs>
       <use xlink:href="#DejaVuSans-13"/>
      </g>
     </g>
    </g>
    <g id="xtick_2">
     <g id="line2d_3">
      <path d="M 156.355215 274.677656 
L 156.355215 26.88 
" clip-path="url(#p6bf005f29d)" style="fill: none; stroke: #b0b0b0; stroke-opacity: 0.3; stroke-width: 0.8; stroke-linecap: square"/>
     </g>
     <g id="line2d_4">
      <g>
       <use xlink:href="#m92bec912c7" x="156.355215" y="274.677656" style="stroke: #000000; stroke-width: 0.8"/>
      </g>
     </g>
     <g id="text_2">
      <!-- 10 -->
      <g transform="translate(149.992715 289.275313) scale(0.1 -0.1)">
       <defs>
        <path id="DejaVuSans-14" d="M 794 531 
L 1825 531 
L 1825 4091 
L 703 3866 
L 703 4441 
L 1819 4666 
L 2450 4666 
L 2450 531 
L 3481 531 
L 3481 0 
L 794 0 
L 794 531 
z
" transform="scale(0.015625)"/>
       </defs>
       <use xlink:href="#DejaVuSans-14"/>
       <use xlink:href="#DejaVuSans-13" transform="translate(63.625 0)"/>
      </g>
     </g>
    </g>
    <g id="xtick_3">
     <g id="line2d_5">
      <path d="M 240.288194 274.677656 
L 240.288194 26.88 
" clip-path="url(#p6bf005f29d)" style="fill: none; stroke: #b0b0b0; stroke-opacity: 0.3; stroke-width: 0.8; stroke-linecap: square"/>
     </g>
     <g id="line2d_6">
      <g>
       <use xlink:href="#m92bec912c7" x="240.288194" y="274.677656" style="stroke: #000000; stroke-width: 0.8"/>
      </g>
     </g>
     <g id="text_3">
      <!-- 20 -->
      <g transform="translate(233.925694 289.275313) scale(0.1 -0.1)">
       <defs>
        <path id="DejaVuSans-15" d="M 1228 531 
L 3431 531 
L 3431 0 
L 469 0 
L 469 531 
Q 828 903 1448 1529 
Q 2069 2156 2228 2338 
Q 2531 2678 2651 2914 
Q 2772 3150 2772 3378 
Q 2772 3750 2511 3984 
Q 2250 4219 1831 4219 
Q 1534 4219 1204 4116 
Q 875 4013 500 3803 
L 500 4441 
Q 881 4594 1212 4672 
Q 1544 4750 1819 4750 
Q 2544 4750 2975 4387 
Q 3406 4025 3406 3419 
Q 3406 3131 3298 2873 
Q 3191 2616 2906 2266 
Q 2828 2175 2409 1742 
Q 1991 1309 1228 531 
z
" transform="scale(0.015625)"/>
       </defs>
       <use xlink:href="#DejaVuSans-15"/>
       <use xlink:href="#DejaVuSans-13" transform="translate(63.625 0)"/>
      </g>
     </g>
    </g>
    <g id="xtick_4">
     <g id="line2d_7">
      <path d="M 324.221172 274.677656 
L 324.221172 26.88 
" clip-path="url(#p6bf005f29d)" style="fill: none; stroke: #b0b0b0; stroke-opacity: 0.3; stroke-width: 0.8; stroke-linecap: square"/>
     </g>
     <g id="line2d_8">
      <g>
       <use xlink:href="#m92bec912c7" x="324.221172" y="274.677656" style="stroke: #000000; stroke-width: 0.8"/>
      </g>
     </g>
     <g id="text_4">
      <!-- 30 -->
      <g transform="translate(317.858672 289.275313) scale(0.1 -0.1)">
       <defs>
        <path id="DejaVuSans-16" d="M 2597 2516 
Q 3050 2419 3304 2112 
Q 3559 1806 3559 1356 
Q 3559 666 3084 287 
Q 2609 -91 1734 -91 
Q 1441 -91 1130 -33 
Q 819 25 488 141 
L 488 750 
Q 750 597 1062 519 
Q 1375 441 1716 441 
Q 2309 441 2620 675 
Q 2931 909 2931 1356 
Q 2931 1769 2642 2001 
Q 2353 2234 1838 2234 
L 1294 2234 
L 1294 2753 
L 1863 2753 
Q 2328 2753 2575 2939 
Q 2822 3125 2822 3475 
Q 2822 3834 2567 4026 
Q 2313 4219 1838 4219 
Q 1578 4219 1281 4162 
Q 984 4106 628 3988 
L 628 4550 
Q 988 4650 1302 4700 
Q 1616 4750 1894 4750 
Q 2613 4750 3031 4423 
Q 3450 4097 3450 3541 
Q 3450 3153 3228 2886 
Q 3006 2619 2597 2516 
z
" transform="scale(0.015625)"/>
       </defs>
       <use xlink:href="#DejaVuSans-16"/>
       <use xlink:href="#DejaVuSans-13" transform="translate(63.625 0)"/>
      </g>
     </g>
    </g>
    <g id="xtick_5">
     <g id="line2d_9">
      <path d="M 408.15415 274.677656 
L 408.15415 26.88 
" clip-path="url(#p6bf005f29d)" style="fill: none; stroke: #b0b0b0; stroke-opacity: 0.3; stroke-width: 0.8; stroke-linecap: square"/>
     </g>
     <g id="line2d_10">
      <g>
       <use xlink:href="#m92bec912c7" x="408.15415" y="274.677656" style="stroke: #000000; stroke-width: 0.8"/>
      </g>
     </g>
     <g id="text_5">
      <!-- 40 -->
      <g transform="translate(401.79165 289.275313) scale(0.1 -0.1)">
       <defs>
        <path id="DejaVuSans-17" d="M 2419 4116 
L 825 1625 
L 2419 1625 
L 2419 4116 
z
M 2253 4666 
L 3047 4666 
L 3047 1625 
L 3713 1625 
L 3713 1100 
L 3047 1100 
L 3047 0 
L 2419 0 
L 2419 1100 
L 313 1100 
L 313 1709 
L 2253 4666 
z
" transform="scale(0.015625)"/>
       </defs>
       <use xlink:href="#DejaVuSans-17"/>
       <use xlink:href="#DejaVuSans-13" transform="translate(63.625 0)"/>
      </g>
     </g>
    </g>
    <g id="xtick_6">
     <g id="line2d_11">
      <path d="M 492.087128 274.677656 
L 492.087128 26.88 
" clip-path="url(#p6bf005f29d)" style="fill: none; stroke: #b0b0b0; stroke-opacity: 0.3; stroke-width: 0.8; stroke-linecap: square"/>
     </g>
     <g id="line2d_12">
      <g>
       <use xlink:href="#m92bec912c7" x="492.087128" y="274.677656" style="stroke: #000000; stroke-width: 0.8"/>
      </g>
     </g>
     <g id="text_6">
      <!-- 50 -->
      <g transform="translate(485.724628 289.275313) scale(0.1 -0.1)">
       <defs>
        <path id="DejaVuSans-18" d="M 691 4666 
L 3169 4666 
L 3169 4134 
L 1269 4134 
L 1269 2991 
Q 1406 3038 1543 3061 
Q 1681 3084 1819 3084 
Q 2600 3084 3056 2656 
Q 3513 2228 3513 1497 
Q 3513 744 3044 326 
Q 2575 -91 1722 -91 
Q 1428 -91 1123 -41 
Q 819 9 494 109 
L 494 744 
Q 775 591 1075 516 
Q 1375 441 1709 441 
Q 2250 441 2565 725 
Q 2881 1009 2881 1497 
Q 2881 1984 2565 2268 
Q 2250 2553 1709 2553 
Q 1456 2553 1204 2497 
Q 953 2441 691 2322 
L 691 4666 
z
" transform="scale(0.015625)"/>
       </defs>
       <use xlink:href="#DejaVuSans-18"/>
       <use xlink:href="#DejaVuSans-13" transform="translate(63.625 0)"/>
      </g>
     </g>
    </g>
    <g id="xtick_7">
     <g id="line2d_13">
      <path d="M 576.020107 274.677656 
L 576.020107 26.88 
" clip-path="url(#p6bf005f29d)" style="fill: none; stroke: #b0b0b0; stroke-opacity: 0.3; stroke-width: 0.8; stroke-linecap: square"/>
     </g>
     <g id="line2d_14">
      <g>
       <use xlink:href="#m92bec912c7" x="576.020107" y="274.677656" style="stroke: #000000; stroke-width: 0.8"/>
      </g>
     </g>
     <g id="text_7">
      <!-- 60 -->
      <g transform="translate(569.657607 289.275313) scale(0.1 -0.1)">
       <defs>
        <path id="DejaVuSans-19" d="M 2113 2584 
Q 1688 2584 1439 2293 
Q 1191 2003 1191 1497 
Q 1191 994 1439 701 
Q 1688 409 2113 409 
Q 2538 409 2786 701 
Q 3034 994 3034 1497 
Q 3034 2003 2786 2293 
Q 2538 2584 2113 2584 
z
M 3366 4563 
L 3366 3988 
Q 3128 4100 2886 4159 
Q 2644 4219 2406 4219 
Q 1781 4219 1451 3797 
Q 1122 3375 1075 2522 
Q 1259 2794 1537 2939 
Q 1816 3084 2150 3084 
Q 2853 3084 3261 2657 
Q 3669 2231 3669 1497 
Q 3669 778 3244 343 
Q 2819 -91 2113 -91 
Q 1303 -91 875 529 
Q 447 1150 447 2328 
Q 447 3434 972 4092 
Q 1497 4750 2381 4750 
Q 2619 4750 2861 4703 
Q 3103 4656 3366 4563 
z
" transform="scale(0.015625)"/>
       </defs>
       <use xlink:href="#DejaVuSans-19"/>
       <use xlink:href="#DejaVuSans-13" transform="translate(63.625 0)"/>
      </g>
     </g>
    </g>
    <g id="text_8">
     <!-- minutos desde las 12:00 UTC -->
     <g transform="translate(251.158672 303.276094) scale(0.1 -0.1)">
      <defs>
       <path id="DejaVuSans-50" d="M 3328 2828 
Q 3544 3216 3844 3400 
Q 4144 3584 4550 3584 
Q 5097 3584 5394 3201 
Q 5691 2819 5691 2113 
L 5691 0 
L 5113 0 
L 5113 2094 
Q 5113 2597 4934 2840 
Q 4756 3084 4391 3084 
Q 3944 3084 3684 2787 
Q 3425 2491 3425 1978 
L 3425 0 
L 2847 0 
L 2847 2094 
Q 2847 2600 2669 2842 
Q 2491 3084 2119 3084 
Q 1678 3084 1418 2786 
Q 1159 2488 1159 1978 
L 1159 0 
L 581 0 
L 581 3500 
L 1159 3500 
L 1159 2956 
Q 1356 3278 1631 3431 
Q 1906 3584 2284 3584 
Q 2666 3584 2933 3390 
Q 3200 3197 3328 2828 
z
" transform="scale(0.015625)"/>
       <path id="DejaVuSans-4c" d="M 603 3500 
L 1178 3500 
L 1178 0 
L 603 0 
L 603 3500 
z
M 603 4863 
L 1178 4863 
L 1178 4134 
L 603 4134 
L 603 4863 
z
" transform="scale(0.015625)"/>
       <path id="DejaVuSans-51" d="M 3513 2113 
L 3513 0 
L 2938 0 
L 2938 2094 
Q 2938 2591 2744 2837 
Q 2550 3084 2163 3084 
Q 1697 3084 1428 2787 
Q 1159 2491 1159 1978 
L 1159 0 
L 581 0 
L 581 3500 
L 1159 3500 
L 1159 2956 
Q 1366 3272 1645 3428 
Q 1925 3584 2291 3584 
Q 2894 3584 3203 3211 
Q 3513 2838 3513 2113 
z
" transform="scale(0.015625)"/>
       <path id="DejaVuSans-58" d="M 544 1381 
L 544 3500 
L 1119 3500 
L 1119 1403 
Q 1119 906 1312 657 
Q 1506 409 1894 409 
Q 2359 409 2629 706 
Q 2900 1003 2900 1516 
L 2900 3500 
L 3475 3500 
L 3475 0 
L 2900 0 
L 2900 538 
Q 2691 219 2414 64 
Q 2138 -91 1772 -91 
Q 1169 -91 856 284 
Q 544 659 544 1381 
z
M 1991 3584 
L 1991 3584 
z
" transform="scale(0.015625)"/>
       <path id="DejaVuSans-57" d="M 1172 4494 
L 1172 3500 
L 2356 3500 
L 2356 3053 
L 1172 3053 
L 1172 1153 
Q 1172 725 1289 603 
Q 1406 481 1766 481 
L 2356 481 
L 2356 0 
L 1766 0 
Q 1100 0 847 248 
Q 594 497 594 1153 
L 594 3053 
L 172 3053 
L 172 3500 
L 594 3500 
L 594 4494 
L 1172 4494 
z
" transform="scale(0.015625)"/>
       <path id="DejaVuSans-52" d="M 1959 3097 
Q 1497 3097 1228 2736 
Q 959 2375 959 1747 
Q 959 1119 1226 758 
Q 1494 397 1959 397 
Q 2419 397 2687 759 
Q 2956 1122 2956 1747 
Q 2956 2369 2687 2733 
Q 2419 3097 1959 3097 
z
M 1959 3584 
Q 2709 3584 3137 3096 
Q 3566 2609 3566 1747 
Q 3566 888 3137 398 
Q 2709 -91 1959 -91 
Q 1206 -91 779 398 
Q 353 888 353 1747 
Q 353 2609 779 3096 
Q 1206 3584 1959 3584 
z
" transform="scale(0.015625)"/>
       <path id="DejaVuSans-56" d="M 2834 3397 
L 2834 2853 
Q 2591 2978 2328 3040 
Q 2066 3103 1784 3103 
Q 1356 3103 1142 2972 
Q 928 2841 928 2578 
Q 928 2378 1081 2264 
Q 1234 2150 1697 2047 
L 1894 2003 
Q 2506 1872 2764 1633 
Q 3022 1394 3022 966 
Q 3022 478 2636 193 
Q 2250 -91 1575 -91 
Q 1294 -91 989 -36 
Q 684 19 347 128 
L 347 722 
Q 666 556 975 473 
Q 1284 391 1588 391 
Q 1994 391 2212 530 
Q 2431 669 2431 922 
Q 2431 1156 2273 1281 
Q 2116 1406 1581 1522 
L 1381 1569 
Q 847 1681 609 1914 
Q 372 2147 372 2553 
Q 372 3047 722 3315 
Q 1072 3584 1716 3584 
Q 2034 3584 2315 3537 
Q 2597 3491 2834 3397 
z
" transform="scale(0.015625)"/>
       <path id="DejaVuSans-3" transform="scale(0.015625)"/>
       <path id="DejaVuSans-47" d="M 2906 2969 
L 2906 4863 
L 3481 4863 
L 3481 0 
L 2906 0 
L 2906 525 
Q 2725 213 2448 61 
Q 2172 -91 1784 -91 
Q 1150 -91 751 415 
Q 353 922 353 1747 
Q 353 2572 751 3078 
Q 1150 3584 1784 3584 
Q 2172 3584 2448 3432 
Q 2725 3281 2906 2969 
z
M 947 1747 
Q 947 1113 1208 752 
Q 1469 391 1925 391 
Q 2381 391 2643 752 
Q 2906 1113 2906 1747 
Q 2906 2381 2643 2742 
Q 2381 3103 1925 3103 
Q 1469 3103 1208 2742 
Q 947 2381 947 1747 
z
" transform="scale(0.015625)"/>
       <path id="DejaVuSans-48" d="M 3597 1894 
L 3597 1613 
L 953 1613 
Q 991 1019 1311 708 
Q 1631 397 2203 397 
Q 2534 397 2845 478 
Q 3156 559 3463 722 
L 3463 178 
Q 3153 47 2828 -22 
Q 2503 -91 2169 -91 
Q 1331 -91 842 396 
Q 353 884 353 1716 
Q 353 2575 817 3079 
Q 1281 3584 2069 3584 
Q 2775 3584 3186 3129 
Q 3597 2675 3597 1894 
z
M 3022 2063 
Q 3016 2534 2758 2815 
Q 2500 3097 2075 3097 
Q 1594 3097 1305 2825 
Q 1016 2553 972 2059 
L 3022 2063 
z
" transform="scale(0.015625)"/>
       <path id="DejaVuSans-4f" d="M 603 4863 
L 1178 4863 
L 1178 0 
L 603 0 
L 603 4863 
z
" transform="scale(0.015625)"/>
       <path id="DejaVuSans-44" d="M 2194 1759 
Q 1497 1759 1228 1600 
Q 959 1441 959 1056 
Q 959 750 1161 570 
Q 1363 391 1709 391 
Q 2188 391 2477 730 
Q 2766 1069 2766 1631 
L 2766 1759 
L 2194 1759 
z
M 3341 1997 
L 3341 0 
L 2766 0 
L 2766 531 
Q 2569 213 2275 61 
Q 1981 -91 1556 -91 
Q 1019 -91 701 211 
Q 384 513 384 1019 
Q 384 1609 779 1909 
Q 1175 2209 1959 2209 
L 2766 2209 
L 2766 2266 
Q 2766 2663 2505 2880 
Q 2244 3097 1772 3097 
Q 1472 3097 1187 3025 
Q 903 2953 641 2809 
L 641 3341 
Q 956 3463 1253 3523 
Q 1550 3584 1831 3584 
Q 2591 3584 2966 3190 
Q 3341 2797 3341 1997 
z
" transform="scale(0.015625)"/>
       <path id="DejaVuSans-1d" d="M 750 794 
L 1409 794 
L 1409 0 
L 750 0 
L 750 794 
z
M 750 3309 
L 1409 3309 
L 1409 2516 
L 750 2516 
L 750 3309 
z
" transform="scale(0.015625)"/>
       <path id="DejaVuSans-38" d="M 556 4666 
L 1191 4666 
L 1191 1831 
Q 1191 1081 1462 751 
Q 1734 422 2344 422 
Q 2950 422 3222 751 
Q 3494 1081 3494 1831 
L 3494 4666 
L 4128 4666 
L 4128 1753 
Q 4128 841 3676 375 
Q 3225 -91 2344 -91 
Q 1459 -91 1007 375 
Q 556 841 556 1753 
L 556 4666 
z
" transform="scale(0.015625)"/>
       <path id="DejaVuSans-37" d="M -19 4666 
L 3928 4666 
L 3928 4134 
L 2272 4134 
L 2272 0 
L 1638 0 
L 1638 4134 
L -19 4134 
L -19 4666 
z
" transform="scale(0.015625)"/>
       <path id="DejaVuSans-26" d="M 4122 4306 
L 4122 3641 
Q 3803 3938 3442 4084 
Q 3081 4231 2675 4231 
Q 1875 4231 1450 3742 
Q 1025 3253 1025 2328 
Q 1025 1406 1450 917 
Q 1875 428 2675 428 
Q 3081 428 3442 575 
Q 3803 722 4122 1019 
L 4122 359 
Q 3791 134 3420 21 
Q 3050 -91 2638 -91 
Q 1578 -91 968 557 
Q 359 1206 359 2328 
Q 359 3453 968 4101 
Q 1578 4750 2638 4750 
Q 3056 4750 3426 4639 
Q 3797 4528 4122 4306 
z
" transform="scale(0.015625)"/>
      </defs>
      <use xlink:href="#DejaVuSans-50"/>
      <use xlink:href="#DejaVuSans-4c" transform="translate(97.40625 0)"/>
      <use xlink:href="#DejaVuSans-51" transform="translate(125.1875 0)"/>
      <use xlink:href="#DejaVuSans-58" transform="translate(188.5625 0)"/>
      <use xlink:href="#DejaVuSans-57" transform="translate(251.9375 0)"/>
      <use xlink:href="#DejaVuSans-52" transform="translate(291.140625 0)"/>
      <use xlink:href="#DejaVuSans-56" transform="translate(352.328125 0)"/>
      <use xlink:href="#DejaVuSans-3" transform="translate(404.421875 0)"/>
      <use xlink:href="#DejaVuSans-47" transform="translate(436.203125 0)"/>
      <use xlink:href="#DejaVuSans-48" transform="translate(499.6875 0)"/>
      <use xlink:href="#DejaVuSans-56" transform="translate(561.21875 0)"/>
      <use xlink:href="#DejaVuSans-47" transform="translate(613.3125 0)"/>
      <use xlink:href="#DejaVuSans-48" transform="translate(676.796875 0)"/>
      <use xlink:href="#DejaVuSans-3" transform="translate(738.328125 0)"/>
      <use xlink:href="#DejaVuSans-4f" transform="translate(770.109375 0)"/>
      <use xlink:href="#DejaVuSans-44" transform="translate(797.890625 0)"/>
      <use xlink:href="#DejaVuSans-56" transform="translate(859.171875 0)"/>
      <use xlink:href="#DejaVuSans-3" transform="translate(911.265625 0)"/>
      <use xlink:href="#DejaVuSans-14" transform="translate(943.046875 0)"/>
      <use xlink:href="#DejaVuSans-15" transform="translate(1006.671875 0)"/>
      <use xlink:href="#DejaVuSans-1d" transform="translate(1070.296875 0)"/>
      <use xlink:href="#DejaVuSans-13" transform="translate(1103.984375 0)"/>
      <use xlink:href="#DejaVuSans-13" transform="translate(1167.609375 0)"/>
      <use xlink:href="#DejaVuSans-3" transform="translate(1231.234375 0)"/>
      <use xlink:href="#DejaVuSans-38" transform="translate(1263.015625 0)"/>
      <use xlink:href="#DejaVuSans-37" transform="translate(1336.203125 0)"/>
      <use xlink:href="#DejaVuSans-26" transform="translate(1391.421875 0)"/>
     </g>
    </g>
   </g>
   <g id="matplotlib.axis_2">
    <g id="ytick_1">
     <g id="line2d_15">
      <path d="M 47.242344 253.525774 
L 601.2 253.525774 
" clip-path="url(#p6bf005f29d)" style="fill: none; stroke: #b0b0b0; stroke-opacity: 0.3; stroke-width: 0.8; stroke-linecap: square"/>
     </g>
     <g id="line2d_16">
      <defs>
       <path id="m756f1e8d79" d="M 0 0 
L -3.5 0 
" style="stroke: #000000; stroke-width: 0.8"/>
      </defs>
      <g>
       <use xlink:href="#m756f1e8d79" x="47.242344" y="253.525774" style="stroke: #000000; stroke-width: 0.8"/>
      </g>
     </g>
     <g id="text_9">
      <!-- −4 -->
      <g transform="translate(25.500156 257.324603) scale(0.1 -0.1)">
       <defs>
        <path id="DejaVuSans-c9c" d="M 678 2272 
L 4684 2272 
L 4684 1741 
L 678 1741 
L 678 2272 
z
" transform="scale(0.015625)"/>
       </defs>
       <use xlink:href="#DejaVuSans-c9c"/>
       <use xlink:href="#DejaVuSans-17" transform="translate(83.796875 0)"/>
      </g>
     </g>
    </g>
    <g id="ytick_2">
     <g id="line2d_17">
      <path d="M 47.242344 224.891577 
L 601.2 224.891577 
" clip-path="url(#p6bf005f29d)" style="fill: none; stroke: #b0b0b0; stroke-opacity: 0.3; stroke-width: 0.8; stroke-linecap: square"/>
     </g>
     <g id="line2d_18">
      <g>
       <use xlink:href="#m756f1e8d79" x="47.242344" y="224.891577" style="stroke: #000000; stroke-width: 0.8"/>
      </g>
     </g>
     <g id="text_10">
      <!-- −3 -->
      <g transform="translate(25.500156 228.690405) scale(0.1 -0.1)">
       <use xlink:href="#DejaVuSans-c9c"/>
       <use xlink:href="#DejaVuSans-16" transform="translate(83.796875 0)"/>
      </g>
     </g>
    </g>
    <g id="ytick_3">
     <g id="line2d_19">
      <path d="M 47.242344 196.257379 
L 601.2 196.257379 
" clip-path="url(#p6bf005f29d)" style="fill: none; stroke: #b0b0b0; stroke-opacity: 0.3; stroke-width: 0.8; stroke-linecap: square"/>
     </g>
     <g id="line2d_20">
      <g>
       <use xlink:href="#m756f1e8d79" x="47.242344" y="196.257379" style="stroke: #000000; stroke-width: 0.8"/>
      </g>
     </g>
     <g id="text_11">
      <!-- −2 -->
      <g transform="translate(25.500156 200.056207) scale(0.1 -0.1)">
       <use xlink:href="#DejaVuSans-c9c"/>
       <use xlink:href="#DejaVuSans-15" transform="translate(83.796875 0)"/>
      </g>
     </g>
    </g>
    <g id="ytick_4">
     <g id="line2d_21">
      <path d="M 47.242344 167.623182 
L 601.2 167.623182 
" clip-path="url(#p6bf005f29d)" style="fill: none; stroke: #b0b0b0; stroke-opacity: 0.3; stroke-width: 0.8; stroke-linecap: square"/>
     </g>
     <g id="line2d_22">
      <g>
       <use xlink:href="#m756f1e8d79" x="47.242344" y="167.623182" style="stroke: #000000; stroke-width: 0.8"/>
      </g>
     </g>
     <g id="text_12">
      <!-- −1 -->
      <g transform="translate(25.500156 171.42201) scale(0.1 -0.1)">
       <use xlink:href="#DejaVuSans-c9c"/>
       <use xlink:href="#DejaVuSans-14" transform="translate(83.796875 0)"/>
      </g>
     </g>
    </g>
    <g id="ytick_5">
     <g id="line2d_23">
      <path d="M 47.242344 138.988984 
L 601.2 138.988984 
" clip-path="url(#p6bf005f29d)" style="fill: none; stroke: #b0b0b0; stroke-opacity: 0.3; stroke-width: 0.8; stroke-linecap: square"/>
     </g>
     <g id="line2d_24">
      <g>
       <use xlink:href="#m756f1e8d79" x="47.242344" y="138.988984" style="stroke: #000000; stroke-width: 0.8"/>
      </g>
     </g>
     <g id="text_13">
      <!-- 0 -->
      <g transform="translate(33.879844 142.787812) scale(0.1 -0.1)">
       <use xlink:href="#DejaVuSans-13"/>
      </g>
     </g>
    </g>
    <g id="ytick_6">
     <g id="line2d_25">
      <path d="M 47.242344 110.354787 
L 601.2 110.354787 
" clip-path="url(#p6bf005f29d)" style="fill: none; stroke: #b0b0b0; stroke-opacity: 0.3; stroke-width: 0.8; stroke-linecap: square"/>
     </g>
     <g id="line2d_26">
      <g>
       <use xlink:href="#m756f1e8d79" x="47.242344" y="110.354787" style="stroke: #000000; stroke-width: 0.8"/>
      </g>
     </g>
     <g id="text_14">
      <!-- 1 -->
      <g transform="translate(33.879844 114.153615) scale(0.1 -0.1)">
       <use xlink:href="#DejaVuSans-14"/>
      </g>
     </g>
    </g>
    <g id="ytick_7">
     <g id="line2d_27">
      <path d="M 47.242344 81.720589 
L 601.2 81.720589 
" clip-path="url(#p6bf005f29d)" style="fill: none; stroke: #b0b0b0; stroke-opacity: 0.3; stroke-width: 0.8; stroke-linecap: square"/>
     </g>
     <g id="line2d_28">
      <g>
       <use xlink:href="#m756f1e8d79" x="47.242344" y="81.720589" style="stroke: #000000; stroke-width: 0.8"/>
      </g>
     </g>
     <g id="text_15">
      <!-- 2 -->
      <g transform="translate(33.879844 85.519417) scale(0.1 -0.1)">
       <use xlink:href="#DejaVuSans-15"/>
      </g>
     </g>
    </g>
    <g id="ytick_8">
     <g id="line2d_29">
      <path d="M 47.242344 53.086392 
L 601.2 53.086392 
" clip-path="url(#p6bf005f29d)" style="fill: none; stroke: #b0b0b0; stroke-opacity: 0.3; stroke-width: 0.8; stroke-linecap: square"/>
     </g>
     <g id="line2d_30">
      <g>
       <use xlink:href="#m756f1e8d79" x="47.242344" y="53.086392" style="stroke: #000000; stroke-width: 0.8"/>
      </g>
     </g>
     <g id="text_16">
      <!-- 3 -->
      <g transform="translate(33.879844 56.88522) scale(0.1 -0.1)">
       <use xlink:href="#DejaVuSans-16"/>
      </g>
     </g>
    </g>
    <g id="text_17">
     <!-- error vs coordenada oficial (m) -->
     <g transform="translate(19.097813 227.933516) rotate(-90) scale(0.1 -0.1)">
      <defs>
       <path id="DejaVuSans-55" d="M 2631 2963 
Q 2534 3019 2420 3045 
Q 2306 3072 2169 3072 
Q 1681 3072 1420 2755 
Q 1159 2438 1159 1844 
L 1159 0 
L 581 0 
L 581 3500 
L 1159 3500 
L 1159 2956 
Q 1341 3275 1631 3429 
Q 1922 3584 2338 3584 
Q 2397 3584 2469 3576 
Q 2541 3569 2628 3553 
L 2631 2963 
z
" transform="scale(0.015625)"/>
       <path id="DejaVuSans-59" d="M 191 3500 
L 800 3500 
L 1894 563 
L 2988 3500 
L 3597 3500 
L 2284 0 
L 1503 0 
L 191 3500 
z
" transform="scale(0.015625)"/>
       <path id="DejaVuSans-46" d="M 3122 3366 
L 3122 2828 
Q 2878 2963 2633 3030 
Q 2388 3097 2138 3097 
Q 1578 3097 1268 2742 
Q 959 2388 959 1747 
Q 959 1106 1268 751 
Q 1578 397 2138 397 
Q 2388 397 2633 464 
Q 2878 531 3122 666 
L 3122 134 
Q 2881 22 2623 -34 
Q 2366 -91 2075 -91 
Q 1284 -91 818 406 
Q 353 903 353 1747 
Q 353 2603 823 3093 
Q 1294 3584 2113 3584 
Q 2378 3584 2631 3529 
Q 2884 3475 3122 3366 
z
" transform="scale(0.015625)"/>
       <path id="DejaVuSans-13af" d="M 3431 3500 
L 3431 0 
L 2853 0 
L 2853 3053 
L 1275 3053 
L 1275 0 
L 697 0 
L 697 3053 
L 147 3053 
L 147 3500 
L 697 3500 
L 697 3744 
Q 697 4316 967 4589 
Q 1238 4863 1797 4863 
L 2375 4863 
L 2375 4384 
L 1825 4384 
Q 1516 4384 1395 4259 
Q 1275 4134 1275 3809 
L 1275 3500 
L 3431 3500 
z
M 2853 4856 
L 3431 4856 
L 3431 4128 
L 2853 4128 
L 2853 4856 
z
" transform="scale(0.015625)"/>
       <path id="DejaVuSans-b" d="M 1984 4856 
Q 1566 4138 1362 3434 
Q 1159 2731 1159 2009 
Q 1159 1288 1364 580 
Q 1569 -128 1984 -844 
L 1484 -844 
Q 1016 -109 783 600 
Q 550 1309 550 2009 
Q 550 2706 781 3412 
Q 1013 4119 1484 4856 
L 1984 4856 
z
" transform="scale(0.015625)"/>
       <path id="DejaVuSans-c" d="M 513 4856 
L 1013 4856 
Q 1481 4119 1714 3412 
Q 1947 2706 1947 2009 
Q 1947 1309 1714 600 
Q 1481 -109 1013 -844 
L 513 -844 
Q 928 -128 1133 580 
Q 1338 1288 1338 2009 
Q 1338 2731 1133 3434 
Q 928 4138 513 4856 
z
" transform="scale(0.015625)"/>
      </defs>
      <use xlink:href="#DejaVuSans-48"/>
      <use xlink:href="#DejaVuSans-55" transform="translate(61.53125 0)"/>
      <use xlink:href="#DejaVuSans-55" transform="translate(100.890625 0)"/>
      <use xlink:href="#DejaVuSans-52" transform="translate(139.796875 0)"/>
      <use xlink:href="#DejaVuSans-55" transform="translate(200.984375 0)"/>
      <use xlink:href="#DejaVuSans-3" transform="translate(242.09375 0)"/>
      <use xlink:href="#DejaVuSans-59" transform="translate(273.875 0)"/>
      <use xlink:href="#DejaVuSans-56" transform="translate(333.0625 0)"/>
      <use xlink:href="#DejaVuSans-3" transform="translate(385.15625 0)"/>
      <use xlink:href="#DejaVuSans-46" transform="translate(416.9375 0)"/>
      <use xlink:href="#DejaVuSans-52" transform="translate(471.921875 0)"/>
      <use xlink:href="#DejaVuSans-52" transform="translate(533.109375 0)"/>
      <use xlink:href="#DejaVuSans-55" transform="translate(594.296875 0)"/>
      <use xlink:href="#DejaVuSans-47" transform="translate(633.65625 0)"/>
      <use xlink:href="#DejaVuSans-48" transform="translate(697.140625 0)"/>
      <use xlink:href="#DejaVuSans-51" transform="translate(758.671875 0)"/>
      <use xlink:href="#DejaVuSans-44" transform="translate(822.046875 0)"/>
      <use xlink:href="#DejaVuSans-47" transform="translate(883.328125 0)"/>
      <use xlink:href="#DejaVuSans-44" transform="translate(946.8125 0)"/>
      <use xlink:href="#DejaVuSans-3" transform="translate(1008.09375 0)"/>
      <use xlink:href="#DejaVuSans-52" transform="translate(1039.875 0)"/>
      <use xlink:href="#DejaVuSans-13af" transform="translate(1101.0625 0)"/>
      <use xlink:href="#DejaVuSans-46" transform="translate(1164.046875 0)"/>
      <use xlink:href="#DejaVuSans-4c" transform="translate(1219.03125 0)"/>
      <use xlink:href="#DejaVuSans-44" transform="translate(1246.8125 0)"/>
      <use xlink:href="#DejaVuSans-4f" transform="translate(1308.09375 0)"/>
      <use xlink:href="#DejaVuSans-3" transform="translate(1335.875 0)"/>
      <use xlink:href="#DejaVuSans-b" transform="translate(1367.65625 0)"/>
      <use xlink:href="#DejaVuSans-50" transform="translate(1406.671875 0)"/>
      <use xlink:href="#DejaVuSans-c" transform="translate(1504.078125 0)"/>
     </g>
    </g>
   </g>
   <g id="line2d_31">
    <path d="M 72.422237 145.053868 
L 76.618886 127.984276 
L 80.815535 166.150664 
L 85.012184 136.606913 
L 89.208833 136.611621 
L 93.405482 110.216161 
L 97.602131 137.500486 
L 101.79878 144.921273 
L 105.995429 149.790182 
L 110.192077 145.103676 
L 114.388726 139.674796 
L 118.585375 143.883218 
L 122.782024 157.658107 
L 126.978673 152.047842 
L 131.175322 120.53056 
L 135.371971 156.62091 
L 139.56862 111.733819 
L 143.765269 152.544354 
L 147.961918 130.460577 
L 152.158567 156.445497 
L 156.355215 124.716635 
L 160.551864 158.606619 
L 164.748513 151.158777 
L 168.945162 161.111902 
L 173.141811 129.216504 
L 177.33846 169.365131 
L 181.535109 178.349276 
L 185.731758 164.890702 
L 189.928407 118.511228 
L 194.125056 151.38237 
L 198.321705 143.555701 
L 202.518353 150.16503 
L 206.715002 165.523146 
L 210.911651 157.182654 
L 215.1083 137.373907 
L 219.304949 155.152008 
L 223.501598 132.197894 
L 227.698247 151.921238 
L 231.894896 135.566742 
L 236.091545 133.465095 
L 240.288194 142.352128 
L 244.484843 169.973297 
L 248.681491 176.101484 
L 252.87814 159.124354 
L 257.074789 143.66694 
L 261.271438 152.546417 
L 265.468087 156.933276 
L 269.664736 139.20763 
L 273.861385 147.620475 
L 278.058034 133.987192 
L 282.254683 114.553032 
L 286.451332 146.398929 
L 290.647981 163.696784 
L 294.844629 136.497059 
L 299.041278 144.194824 
L 303.237927 138.123101 
L 307.434576 152.941071 
L 311.631225 140.756933 
L 315.827874 158.557606 
L 320.024523 116.137039 
L 324.221172 160.882159 
L 328.417821 150.521523 
L 332.61447 145.02046 
L 336.811119 157.444026 
L 341.007768 142.574545 
L 345.204416 150.001652 
L 349.401065 120.619793 
L 353.597714 155.656764 
L 357.794363 120.639777 
L 361.991012 164.908722 
L 366.187661 165.90696 
L 370.38431 152.90884 
L 374.580959 154.759164 
L 378.777608 171.453584 
L 382.974257 146.029553 
L 387.170906 182.689781 
L 391.367554 138.439359 
L 395.564203 165.211377 
L 399.760852 157.716227 
L 403.957501 123.606504 
L 408.15415 123.484631 
L 412.350799 137.472359 
L 416.547448 152.130344 
L 420.744097 122.817667 
L 424.940746 134.743764 
L 429.137395 156.366186 
L 433.334044 148.089568 
L 437.530692 137.189146 
L 441.727341 194.342497 
L 445.92399 170.481001 
L 450.120639 122.382153 
L 454.317288 157.494385 
L 458.513937 163.532669 
L 462.710586 164.229236 
L 466.907235 178.362738 
L 471.103884 135.218233 
L 475.300533 111.76329 
L 479.497182 149.286135 
L 483.69383 133.713037 
L 487.890479 134.646571 
L 492.087128 143.818441 
L 496.283777 202.003975 
L 500.480426 139.510676 
L 504.677075 157.710533 
L 508.873724 110.405738 
L 513.070373 159.63516 
L 517.267022 148.224115 
L 521.463671 159.120451 
L 525.66032 156.652954 
L 529.856969 178.185885 
L 534.053617 163.518751 
L 538.250266 180.663563 
L 542.446915 186.215114 
L 546.643564 170.647327 
L 550.840213 174.977858 
L 555.036862 169.91741 
L 559.233511 159.268487 
L 563.43016 138.901541 
L 567.626809 162.442219 
L 571.823458 134.273136 
L 576.020107 129.872544 
" clip-path="url(#p6bf005f29d)" style="fill: none; stroke: #1f77b4; stroke-width: 1.3; stroke-linecap: square"/>
   </g>
   <g id="line2d_32">
    <path d="M 72.422237 115.688762 
L 76.618886 180.523206 
L 80.815535 161.277867 
L 85.012184 112.644417 
L 89.208833 157.853764 
L 93.405482 160.859866 
L 97.602131 124.774091 
L 101.79878 121.321624 
L 105.995429 124.222782 
L 110.192077 113.153774 
L 114.388726 165.792265 
L 118.585375 143.119574 
L 122.782024 132.955858 
L 126.978673 154.37809 
L 131.175322 134.13905 
L 135.371971 178.120443 
L 139.56862 159.904555 
L 143.765269 157.89547 
L 147.961918 124.879941 
L 152.158567 175.713548 
L 156.355215 149.887185 
L 160.551864 153.500285 
L 164.748513 133.552301 
L 168.945162 173.668198 
L 173.141811 150.023491 
L 177.33846 141.937749 
L 181.535109 162.41914 
L 185.731758 145.16915 
L 189.928407 147.187047 
L 194.125056 107.776868 
L 198.321705 145.151457 
L 202.518353 122.950121 
L 206.715002 147.910695 
L 210.911651 121.172081 
L 215.1083 89.91097 
L 219.304949 146.587826 
L 223.501598 149.482876 
L 227.698247 178.176982 
L 231.894896 144.655262 
L 236.091545 145.83075 
L 240.288194 162.391284 
L 244.484843 150.343975 
L 248.681491 157.227833 
L 252.87814 141.157619 
L 257.074789 150.266552 
L 261.271438 135.250785 
L 265.468087 171.821701 
L 269.664736 169.629423 
L 273.861385 157.151037 
L 278.058034 127.718249 
L 282.254683 125.351292 
L 286.451332 152.736487 
L 290.647981 146.640821 
L 294.844629 161.9862 
L 299.041278 138.551881 
L 303.237927 123.256066 
L 307.434576 151.790781 
L 311.631225 143.70723 
L 315.827874 157.383622 
L 320.024523 124.365604 
L 324.221172 163.198993 
L 328.417821 179.702132 
L 332.61447 165.472453 
L 336.811119 185.225187 
L 341.007768 172.87299 
L 345.204416 150.055421 
L 349.401065 146.608912 
L 353.597714 152.884823 
L 357.794363 157.645459 
L 361.991012 138.964722 
L 366.187661 158.729137 
L 370.38431 118.221288 
L 374.580959 145.960644 
L 378.777608 143.323176 
L 382.974257 154.967988 
L 387.170906 183.455395 
L 391.367554 145.028859 
L 395.564203 174.108343 
L 399.760852 158.657158 
L 403.957501 169.70684 
L 408.15415 156.578636 
L 412.350799 149.901996 
L 416.547448 146.073184 
L 420.744097 163.868489 
L 424.940746 143.839194 
L 429.137395 146.204964 
L 433.334044 141.892797 
L 437.530692 129.21982 
L 441.727341 139.599351 
L 445.92399 148.863105 
L 450.120639 182.143462 
L 454.317288 135.573107 
L 458.513937 151.507005 
L 462.710586 124.757405 
L 466.907235 45.29403 
L 471.103884 145.870871 
L 475.300533 138.714146 
L 479.497182 129.423784 
L 483.69383 145.912979 
L 487.890479 143.681788 
L 492.087128 142.491285 
L 496.283777 142.083026 
L 500.480426 128.082121 
L 504.677075 147.55857 
L 508.873724 177.042231 
L 513.070373 142.532944 
L 517.267022 140.487178 
L 521.463671 120.966408 
L 525.66032 145.823694 
L 529.856969 137.214219 
L 534.053617 142.778508 
L 538.250266 120.069275 
L 542.446915 118.979229 
L 546.643564 119.74808 
L 550.840213 158.192642 
L 555.036862 171.691466 
L 559.233511 168.982052 
L 563.43016 144.375668 
L 567.626809 158.877606 
L 571.823458 139.857413 
L 576.020107 159.760556 
" clip-path="url(#p6bf005f29d)" style="fill: none; stroke: #ff7f0e; stroke-width: 1.3; stroke-linecap: square"/>
   </g>
   <g id="line2d_33">
    <path d="M 72.422237 189.242271 
L 76.618886 137.431572 
L 80.815535 182.299935 
L 85.012184 239.954638 
L 89.208833 174.793841 
L 93.405482 164.164412 
L 97.602131 149.964831 
L 101.79878 134.216616 
L 105.995429 136.478675 
L 110.192077 154.763071 
L 114.388726 170.696544 
L 118.585375 204.122153 
L 122.782024 95.882821 
L 126.978673 118.815032 
L 131.175322 161.807801 
L 135.371971 132.606932 
L 139.56862 115.619113 
L 143.765269 149.543818 
L 147.961918 135.615251 
L 152.158567 171.369443 
L 156.355215 168.635195 
L 160.551864 96.166329 
L 164.748513 160.484945 
L 168.945162 112.315916 
L 173.141811 88.232969 
L 177.33846 126.451813 
L 181.535109 154.644602 
L 185.731758 183.296125 
L 189.928407 182.124148 
L 194.125056 135.648583 
L 198.321705 135.201921 
L 202.518353 122.836194 
L 206.715002 113.400613 
L 210.911651 83.378402 
L 215.1083 138.833937 
L 219.304949 175.857062 
L 223.501598 101.520075 
L 227.698247 153.980695 
L 231.894896 117.798789 
L 236.091545 48.711959 
L 240.288194 197.658405 
L 244.484843 185.290415 
L 248.681491 159.851929 
L 252.87814 68.590037 
L 257.074789 115.626893 
L 261.271438 126.593485 
L 265.468087 195.671892 
L 269.664736 147.786309 
L 273.861385 134.270171 
L 278.058034 128.507043 
L 282.254683 144.999723 
L 286.451332 140.157396 
L 290.647981 161.04897 
L 294.844629 175.884366 
L 299.041278 167.034987 
L 303.237927 173.871908 
L 307.434576 117.964644 
L 311.631225 124.159336 
L 315.827874 101.95749 
L 320.024523 164.46491 
L 324.221172 113.671281 
L 328.417821 119.808553 
L 332.61447 115.57273 
L 336.811119 150.097434 
L 341.007768 175.866323 
L 345.204416 174.324669 
L 349.401065 145.231298 
L 353.597714 183.134515 
L 357.794363 87.473455 
L 361.991012 194.612477 
L 366.187661 149.993573 
L 370.38431 218.293907 
L 374.580959 159.053468 
L 378.777608 252.052231 
L 382.974257 110.83103 
L 387.170906 207.002596 
L 391.367554 111.088231 
L 395.564203 175.503199 
L 399.760852 263.414126 
L 403.957501 151.215906 
L 408.15415 98.970689 
L 412.350799 121.479658 
L 416.547448 136.188878 
L 420.744097 147.059447 
L 424.940746 117.011888 
L 429.137395 153.535761 
L 433.334044 107.399275 
L 437.530692 93.467177 
L 441.727341 238.588864 
L 445.92399 143.715789 
L 450.120639 38.14353 
L 454.317288 139.496559 
L 458.513937 106.271823 
L 462.710586 241.00955 
L 466.907235 209.094085 
L 471.103884 115.20863 
L 475.300533 50.779112 
L 479.497182 157.453661 
L 483.69383 161.936901 
L 487.890479 149.100899 
L 492.087128 80.825851 
L 496.283777 178.494745 
L 500.480426 83.116836 
L 504.677075 151.413735 
L 508.873724 134.080654 
L 513.070373 167.335082 
L 517.267022 125.241909 
L 521.463671 127.767443 
L 525.66032 140.166569 
L 529.856969 171.426453 
L 534.053617 136.443755 
L 538.250266 175.646881 
L 542.446915 125.64425 
L 546.643564 95.343742 
L 550.840213 121.088848 
L 555.036862 208.302997 
L 559.233511 131.599613 
L 563.43016 107.454695 
L 567.626809 121.423033 
L 571.823458 194.891359 
L 576.020107 197.18166 
" clip-path="url(#p6bf005f29d)" style="fill: none; stroke: #2ca02c; stroke-width: 1.3; stroke-linecap: square"/>
   </g>
   <g id="line2d_34">
    <path d="M 47.242344 138.988984 
L 601.2 138.988984 
" clip-path="url(#p6bf005f29d)" style="fill: none; stroke: #000000; stroke-width: 0.8; stroke-linecap: square"/>
   </g>
   <g id="patch_3">
    <path d="M 47.242344 274.677656 
L 47.242344 26.88 
" style="fill: none; stroke: #000000; stroke-width: 0.8; stroke-linejoin: miter; stroke-linecap: square"/>
   </g>
   <g id="patch_4">
    <path d="M 601.2 274.677656 
L 601.2 26.88 
" style="fill: none; stroke: #000000; stroke-width: 0.8; stroke-linejoin: miter; stroke-linecap: square"/>
   </g>
   <g id="patch_5">
    <path d="M 47.242344 274.677656 
L 601.2 274.677656 
" style="fill: none; stroke: #000000; stroke-width: 0.8; stroke-linejoin: miter; stroke-linecap: square"/>
   </g>
   <g id="patch_6">
    <path d="M 47.242344 26.88 
L 601.2 26.88 
" style="fill: none; stroke: #000000; stroke-width: 0.8; stroke-linejoin: miter; stroke-linecap: square"/>
   </g>
   <g id="text_18">
    <!-- Fix Galileo iono-free en LPGS: una hora, época por época -->
    <g transform="translate(153.235234 20.88) scale(0.12 -0.12)">
     <defs>
      <path id="DejaVuSans-29" d="M 628 4666 
L 3309 4666 
L 3309 4134 
L 1259 4134 
L 1259 2759 
L 3109 2759 
L 3109 2228 
L 1259 2228 
L 1259 0 
L 628 0 
L 628 4666 
z
" transform="scale(0.015625)"/>
      <path id="DejaVuSans-5b" d="M 3513 3500 
L 2247 1797 
L 3578 0 
L 2900 0 
L 1881 1375 
L 863 0 
L 184 0 
L 1544 1831 
L 300 3500 
L 978 3500 
L 1906 2253 
L 2834 3500 
L 3513 3500 
z
" transform="scale(0.015625)"/>
      <path id="DejaVuSans-2a" d="M 3809 666 
L 3809 1919 
L 2778 1919 
L 2778 2438 
L 4434 2438 
L 4434 434 
Q 4069 175 3628 42 
Q 3188 -91 2688 -91 
Q 1594 -91 976 548 
Q 359 1188 359 2328 
Q 359 3472 976 4111 
Q 1594 4750 2688 4750 
Q 3144 4750 3555 4637 
Q 3966 4525 4313 4306 
L 4313 3634 
Q 3963 3931 3569 4081 
Q 3175 4231 2741 4231 
Q 1884 4231 1454 3753 
Q 1025 3275 1025 2328 
Q 1025 1384 1454 906 
Q 1884 428 2741 428 
Q 3075 428 3337 486 
Q 3600 544 3809 666 
z
" transform="scale(0.015625)"/>
      <path id="DejaVuSans-10" d="M 313 2009 
L 1997 2009 
L 1997 1497 
L 313 1497 
L 313 2009 
z
" transform="scale(0.015625)"/>
      <path id="DejaVuSans-49" d="M 2375 4863 
L 2375 4384 
L 1825 4384 
Q 1516 4384 1395 4259 
Q 1275 4134 1275 3809 
L 1275 3500 
L 2222 3500 
L 2222 3053 
L 1275 3053 
L 1275 0 
L 697 0 
L 697 3053 
L 147 3053 
L 147 3500 
L 697 3500 
L 697 3744 
Q 697 4328 969 4595 
Q 1241 4863 1831 4863 
L 2375 4863 
z
" transform="scale(0.015625)"/>
      <path id="DejaVuSans-2f" d="M 628 4666 
L 1259 4666 
L 1259 531 
L 3531 531 
L 3531 0 
L 628 0 
L 628 4666 
z
" transform="scale(0.015625)"/>
      <path id="DejaVuSans-33" d="M 1259 4147 
L 1259 2394 
L 2053 2394 
Q 2494 2394 2734 2622 
Q 2975 2850 2975 3272 
Q 2975 3691 2734 3919 
Q 2494 4147 2053 4147 
L 1259 4147 
z
M 628 4666 
L 2053 4666 
Q 2838 4666 3239 4311 
Q 3641 3956 3641 3272 
Q 3641 2581 3239 2228 
Q 2838 1875 2053 1875 
L 1259 1875 
L 1259 0 
L 628 0 
L 628 4666 
z
" transform="scale(0.015625)"/>
      <path id="DejaVuSans-36" d="M 3425 4513 
L 3425 3897 
Q 3066 4069 2747 4153 
Q 2428 4238 2131 4238 
Q 1616 4238 1336 4038 
Q 1056 3838 1056 3469 
Q 1056 3159 1242 3001 
Q 1428 2844 1947 2747 
L 2328 2669 
Q 3034 2534 3370 2195 
Q 3706 1856 3706 1288 
Q 3706 609 3251 259 
Q 2797 -91 1919 -91 
Q 1588 -91 1214 -16 
Q 841 59 441 206 
L 441 856 
Q 825 641 1194 531 
Q 1563 422 1919 422 
Q 2459 422 2753 634 
Q 3047 847 3047 1241 
Q 3047 1584 2836 1778 
Q 2625 1972 2144 2069 
L 1759 2144 
Q 1053 2284 737 2584 
Q 422 2884 422 3419 
Q 422 4038 858 4394 
Q 1294 4750 2059 4750 
Q 2388 4750 2728 4690 
Q 3069 4631 3425 4513 
z
" transform="scale(0.015625)"/>
      <path id="DejaVuSans-4b" d="M 3513 2113 
L 3513 0 
L 2938 0 
L 2938 2094 
Q 2938 2591 2744 2837 
Q 2550 3084 2163 3084 
Q 1697 3084 1428 2787 
Q 1159 2491 1159 1978 
L 1159 0 
L 581 0 
L 581 4863 
L 1159 4863 
L 1159 2956 
Q 1366 3272 1645 3428 
Q 1925 3584 2291 3584 
Q 2894 3584 3203 3211 
Q 3513 2838 3513 2113 
z
" transform="scale(0.015625)"/>
      <path id="DejaVuSans-f" d="M 750 794 
L 1409 794 
L 1409 256 
L 897 -744 
L 494 -744 
L 750 256 
L 750 794 
z
" transform="scale(0.015625)"/>
      <path id="DejaVuSans-ab" d="M 3597 1894 
L 3597 1613 
L 953 1613 
Q 991 1019 1311 708 
Q 1631 397 2203 397 
Q 2534 397 2845 478 
Q 3156 559 3463 722 
L 3463 178 
Q 3153 47 2828 -22 
Q 2503 -91 2169 -91 
Q 1331 -91 842 396 
Q 353 884 353 1716 
Q 353 2575 817 3079 
Q 1281 3584 2069 3584 
Q 2775 3584 3186 3129 
Q 3597 2675 3597 1894 
z
M 3022 2063 
Q 3016 2534 2758 2815 
Q 2500 3097 2075 3097 
Q 1594 3097 1305 2825 
Q 1016 2553 972 2059 
L 3022 2063 
z
M 2468 5119 
L 3090 5119 
L 2072 3944 
L 1593 3944 
L 2468 5119 
z
" transform="scale(0.015625)"/>
      <path id="DejaVuSans-53" d="M 1159 525 
L 1159 -1331 
L 581 -1331 
L 581 3500 
L 1159 3500 
L 1159 2969 
Q 1341 3281 1617 3432 
Q 1894 3584 2278 3584 
Q 2916 3584 3314 3078 
Q 3713 2572 3713 1747 
Q 3713 922 3314 415 
Q 2916 -91 2278 -91 
Q 1894 -91 1617 61 
Q 1341 213 1159 525 
z
M 3116 1747 
Q 3116 2381 2855 2742 
Q 2594 3103 2138 3103 
Q 1681 3103 1420 2742 
Q 1159 2381 1159 1747 
Q 1159 1113 1420 752 
Q 1681 391 2138 391 
Q 2594 391 2855 752 
Q 3116 1113 3116 1747 
z
" transform="scale(0.015625)"/>
     </defs>
     <use xlink:href="#DejaVuSans-29"/>
     <use xlink:href="#DejaVuSans-4c" transform="translate(50.234375 0)"/>
     <use xlink:href="#DejaVuSans-5b" transform="translate(78.015625 0)"/>
     <use xlink:href="#DejaVuSans-3" transform="translate(137.203125 0)"/>
     <use xlink:href="#DejaVuSans-2a" transform="translate(168.984375 0)"/>
     <use xlink:href="#DejaVuSans-44" transform="translate(246.46875 0)"/>
     <use xlink:href="#DejaVuSans-4f" transform="translate(307.75 0)"/>
     <use xlink:href="#DejaVuSans-4c" transform="translate(335.53125 0)"/>
     <use xlink:href="#DejaVuSans-4f" transform="translate(363.3125 0)"/>
     <use xlink:href="#DejaVuSans-48" transform="translate(391.09375 0)"/>
     <use xlink:href="#DejaVuSans-52" transform="translate(452.625 0)"/>
     <use xlink:href="#DejaVuSans-3" transform="translate(513.8125 0)"/>
     <use xlink:href="#DejaVuSans-4c" transform="translate(545.59375 0)"/>
     <use xlink:href="#DejaVuSans-52" transform="translate(573.375 0)"/>
     <use xlink:href="#DejaVuSans-51" transform="translate(634.5625 0)"/>
     <use xlink:href="#DejaVuSans-52" transform="translate(697.9375 0)"/>
     <use xlink:href="#DejaVuSans-10" transform="translate(760.984375 0)"/>
     <use xlink:href="#DejaVuSans-49" transform="translate(797.0625 0)"/>
     <use xlink:href="#DejaVuSans-55" transform="translate(832.265625 0)"/>
     <use xlink:href="#DejaVuSans-48" transform="translate(871.171875 0)"/>
     <use xlink:href="#DejaVuSans-48" transform="translate(932.703125 0)"/>
     <use xlink:href="#DejaVuSans-3" transform="translate(994.234375 0)"/>
     <use xlink:href="#DejaVuSans-48" transform="translate(1026.015625 0)"/>
     <use xlink:href="#DejaVuSans-51" transform="translate(1087.546875 0)"/>
     <use xlink:href="#DejaVuSans-3" transform="translate(1150.921875 0)"/>
     <use xlink:href="#DejaVuSans-2f" transform="translate(1182.703125 0)"/>
     <use xlink:href="#DejaVuSans-33" transform="translate(1238.421875 0)"/>
     <use xlink:href="#DejaVuSans-2a" transform="translate(1298.71875 0)"/>
     <use xlink:href="#DejaVuSans-36" transform="translate(1376.203125 0)"/>
     <use xlink:href="#DejaVuSans-1d" transform="translate(1439.6875 0)"/>
     <use xlink:href="#DejaVuSans-3" transform="translate(1473.375 0)"/>
     <use xlink:href="#DejaVuSans-58" transform="translate(1505.15625 0)"/>
     <use xlink:href="#DejaVuSans-51" transform="translate(1568.53125 0)"/>
     <use xlink:href="#DejaVuSans-44" transform="translate(1631.90625 0)"/>
     <use xlink:href="#DejaVuSans-3" transform="translate(1693.1875 0)"/>
     <use xlink:href="#DejaVuSans-4b" transform="translate(1724.96875 0)"/>
     <use xlink:href="#DejaVuSans-52" transform="translate(1788.34375 0)"/>
     <use xlink:href="#DejaVuSans-55" transform="translate(1849.53125 0)"/>
     <use xlink:href="#DejaVuSans-44" transform="translate(1890.640625 0)"/>
     <use xlink:href="#DejaVuSans-f" transform="translate(1951.921875 0)"/>
     <use xlink:href="#DejaVuSans-3" transform="translate(1983.703125 0)"/>
     <use xlink:href="#DejaVuSans-ab" transform="translate(2015.484375 0)"/>
     <use xlink:href="#DejaVuSans-53" transform="translate(2077.015625 0)"/>
     <use xlink:href="#DejaVuSans-52" transform="translate(2140.5 0)"/>
     <use xlink:href="#DejaVuSans-46" transform="translate(2201.6875 0)"/>
     <use xlink:href="#DejaVuSans-44" transform="translate(2256.671875 0)"/>
     <use xlink:href="#DejaVuSans-3" transform="translate(2317.953125 0)"/>
     <use xlink:href="#DejaVuSans-53" transform="translate(2349.734375 0)"/>
     <use xlink:href="#DejaVuSans-52" transform="translate(2413.21875 0)"/>
     <use xlink:href="#DejaVuSans-55" transform="translate(2474.40625 0)"/>
     <use xlink:href="#DejaVuSans-3" transform="translate(2515.515625 0)"/>
     <use xlink:href="#DejaVuSans-ab" transform="translate(2547.296875 0)"/>
     <use xlink:href="#DejaVuSans-53" transform="translate(2608.828125 0)"/>
     <use xlink:href="#DejaVuSans-52" transform="translate(2672.3125 0)"/>
     <use xlink:href="#DejaVuSans-46" transform="translate(2733.5 0)"/>
     <use xlink:href="#DejaVuSans-44" transform="translate(2788.484375 0)"/>
    </g>
   </g>
   <g id="legend_1">
    <g id="patch_7">
     <path d="M 53.542344 74.582109 
L 180.172344 74.582109 
Q 181.972344 74.582109 181.972344 72.782109 
L 181.972344 33.18 
Q 181.972344 31.38 180.172344 31.38 
L 53.542344 31.38 
Q 51.742344 31.38 51.742344 33.18 
L 51.742344 72.782109 
Q 51.742344 74.582109 53.542344 74.582109 
z
" style="fill: #ffffff; opacity: 0.8; stroke: #cccccc; stroke-linejoin: miter"/>
    </g>
    <g id="line2d_35">
     <path d="M 55.342344 38.668594 
L 64.342344 38.668594 
L 73.342344 38.668594 
" style="fill: none; stroke: #1f77b4; stroke-width: 1.3; stroke-linecap: square"/>
    </g>
    <g id="text_19">
     <!-- Este (RMS 0.72 m) -->
     <g transform="translate(80.542344 41.818594) scale(0.09 -0.09)">
      <defs>
       <path id="DejaVuSans-28" d="M 628 4666 
L 3578 4666 
L 3578 4134 
L 1259 4134 
L 1259 2753 
L 3481 2753 
L 3481 2222 
L 1259 2222 
L 1259 531 
L 3634 531 
L 3634 0 
L 628 0 
L 628 4666 
z
" transform="scale(0.015625)"/>
       <path id="DejaVuSans-35" d="M 2841 2188 
Q 3044 2119 3236 1894 
Q 3428 1669 3622 1275 
L 4263 0 
L 3584 0 
L 2988 1197 
Q 2756 1666 2539 1819 
Q 2322 1972 1947 1972 
L 1259 1972 
L 1259 0 
L 628 0 
L 628 4666 
L 2053 4666 
Q 2853 4666 3247 4331 
Q 3641 3997 3641 3322 
Q 3641 2881 3436 2590 
Q 3231 2300 2841 2188 
z
M 1259 4147 
L 1259 2491 
L 2053 2491 
Q 2509 2491 2742 2702 
Q 2975 2913 2975 3322 
Q 2975 3731 2742 3939 
Q 2509 4147 2053 4147 
L 1259 4147 
z
" transform="scale(0.015625)"/>
       <path id="DejaVuSans-30" d="M 628 4666 
L 1569 4666 
L 2759 1491 
L 3956 4666 
L 4897 4666 
L 4897 0 
L 4281 0 
L 4281 4097 
L 3078 897 
L 2444 897 
L 1241 4097 
L 1241 0 
L 628 0 
L 628 4666 
z
" transform="scale(0.015625)"/>
       <path id="DejaVuSans-11" d="M 684 794 
L 1344 794 
L 1344 0 
L 684 0 
L 684 794 
z
" transform="scale(0.015625)"/>
       <path id="DejaVuSans-1a" d="M 525 4666 
L 3525 4666 
L 3525 4397 
L 1831 0 
L 1172 0 
L 2766 4134 
L 525 4134 
L 525 4666 
z
" transform="scale(0.015625)"/>
      </defs>
      <use xlink:href="#DejaVuSans-28"/>
      <use xlink:href="#DejaVuSans-56" transform="translate(63.1875 0)"/>
      <use xlink:href="#DejaVuSans-57" transform="translate(115.28125 0)"/>
      <use xlink:href="#DejaVuSans-48" transform="translate(154.484375 0)"/>
      <use xlink:href="#DejaVuSans-3" transform="translate(216.015625 0)"/>
      <use xlink:href="#DejaVuSans-b" transform="translate(247.796875 0)"/>
      <use xlink:href="#DejaVuSans-35" transform="translate(286.8125 0)"/>
      <use xlink:href="#DejaVuSans-30" transform="translate(356.296875 0)"/>
      <use xlink:href="#DejaVuSans-36" transform="translate(442.578125 0)"/>
      <use xlink:href="#DejaVuSans-3" transform="translate(506.0625 0)"/>
      <use xlink:href="#DejaVuSans-13" transform="translate(537.84375 0)"/>
      <use xlink:href="#DejaVuSans-11" transform="translate(601.46875 0)"/>
      <use xlink:href="#DejaVuSans-1a" transform="translate(633.25 0)"/>
      <use xlink:href="#DejaVuSans-15" transform="translate(696.875 0)"/>
      <use xlink:href="#DejaVuSans-3" transform="translate(760.5 0)"/>
      <use xlink:href="#DejaVuSans-50" transform="translate(792.28125 0)"/>
      <use xlink:href="#DejaVuSans-c" transform="translate(889.6875 0)"/>
     </g>
    </g>
    <g id="line2d_36">
     <path d="M 55.342344 52.169297 
L 64.342344 52.169297 
L 73.342344 52.169297 
" style="fill: none; stroke: #ff7f0e; stroke-width: 1.3; stroke-linecap: square"/>
    </g>
    <g id="text_20">
     <!-- Norte (RMS 0.75 m) -->
     <g transform="translate(80.542344 55.319297) scale(0.09 -0.09)">
      <defs>
       <path id="DejaVuSans-31" d="M 628 4666 
L 1478 4666 
L 3547 763 
L 3547 4666 
L 4159 4666 
L 4159 0 
L 3309 0 
L 1241 3903 
L 1241 0 
L 628 0 
L 628 4666 
z
" transform="scale(0.015625)"/>
      </defs>
      <use xlink:href="#DejaVuSans-31"/>
      <use xlink:href="#DejaVuSans-52" transform="translate(74.8125 0)"/>
      <use xlink:href="#DejaVuSans-55" transform="translate(136 0)"/>
      <use xlink:href="#DejaVuSans-57" transform="translate(177.109375 0)"/>
      <use xlink:href="#DejaVuSans-48" transform="translate(216.3125 0)"/>
      <use xlink:href="#DejaVuSans-3" transform="translate(277.84375 0)"/>
      <use xlink:href="#DejaVuSans-b" transform="translate(309.625 0)"/>
      <use xlink:href="#DejaVuSans-35" transform="translate(348.640625 0)"/>
      <use xlink:href="#DejaVuSans-30" transform="translate(418.125 0)"/>
      <use xlink:href="#DejaVuSans-36" transform="translate(504.40625 0)"/>
      <use xlink:href="#DejaVuSans-3" transform="translate(567.890625 0)"/>
      <use xlink:href="#DejaVuSans-13" transform="translate(599.671875 0)"/>
      <use xlink:href="#DejaVuSans-11" transform="translate(663.296875 0)"/>
      <use xlink:href="#DejaVuSans-1a" transform="translate(695.078125 0)"/>
      <use xlink:href="#DejaVuSans-18" transform="translate(758.703125 0)"/>
      <use xlink:href="#DejaVuSans-3" transform="translate(822.328125 0)"/>
      <use xlink:href="#DejaVuSans-50" transform="translate(854.109375 0)"/>
      <use xlink:href="#DejaVuSans-c" transform="translate(951.515625 0)"/>
     </g>
    </g>
    <g id="line2d_37">
     <path d="M 55.342344 65.67 
L 64.342344 65.67 
L 73.342344 65.67 
" style="fill: none; stroke: #2ca02c; stroke-width: 1.3; stroke-linecap: square"/>
    </g>
    <g id="text_21">
     <!-- Vertical (RMS 1.45 m) -->
     <g transform="translate(80.542344 68.82) scale(0.09 -0.09)">
      <defs>
       <path id="DejaVuSans-39" d="M 1831 0 
L 50 4666 
L 709 4666 
L 2188 738 
L 3669 4666 
L 4325 4666 
L 2547 0 
L 1831 0 
z
" transform="scale(0.015625)"/>
      </defs>
      <use xlink:href="#DejaVuSans-39"/>
      <use xlink:href="#DejaVuSans-48" transform="translate(60.640625 0)"/>
      <use xlink:href="#DejaVuSans-55" transform="translate(122.171875 0)"/>
      <use xlink:href="#DejaVuSans-57" transform="translate(163.28125 0)"/>
      <use xlink:href="#DejaVuSans-4c" transform="translate(202.484375 0)"/>
      <use xlink:href="#DejaVuSans-46" transform="translate(230.265625 0)"/>
      <use xlink:href="#DejaVuSans-44" transform="translate(285.25 0)"/>
      <use xlink:href="#DejaVuSans-4f" transform="translate(346.53125 0)"/>
      <use xlink:href="#DejaVuSans-3" transform="translate(374.3125 0)"/>
      <use xlink:href="#DejaVuSans-b" transform="translate(406.09375 0)"/>
      <use xlink:href="#DejaVuSans-35" transform="translate(445.109375 0)"/>
      <use xlink:href="#DejaVuSans-30" transform="translate(514.59375 0)"/>
      <use xlink:href="#DejaVuSans-36" transform="translate(600.875 0)"/>
      <use xlink:href="#DejaVuSans-3" transform="translate(664.359375 0)"/>
      <use xlink:href="#DejaVuSans-14" transform="translate(696.140625 0)"/>
      <use xlink:href="#DejaVuSans-11" transform="translate(759.765625 0)"/>
      <use xlink:href="#DejaVuSans-17" transform="translate(791.546875 0)"/>
      <use xlink:href="#DejaVuSans-18" transform="translate(855.171875 0)"/>
      <use xlink:href="#DejaVuSans-3" transform="translate(918.796875 0)"/>
      <use xlink:href="#DejaVuSans-50" transform="translate(950.578125 0)"/>
      <use xlink:href="#DejaVuSans-c" transform="translate(1047.984375 0)"/>
     </g>
    </g>
   </g>
  </g>
 </g>
 <defs>
  <clipPath id="p6bf005f29d">
   <rect x="47.242344" y="26.88" width="553.957656" height="247.797656"/>
  </clipPath>
 </defs>
</svg>
