<?xml version="1.0" encoding="utf-8" standalone="no"?>
<!DOCTYPE svg PUBLIC "-//W3C//DTD SVG 1.1//EN"
  "http://www.w3.org/Graphics/SVG/1.1/DTD/svg11.dtd">
<svg xmlns:xlink="http://www.w3.org/1999/xlink" width="792pt" height="302.4pt" viewBox="0 0 792 302.4" xmlns="http://www.w3.org/2000/svg" version="1.1">
 <metadata>
  <rdf:RDF xmlns:dc="http://purl.org/dc/elements/1.1/" xmlns:cc="http://creativecommons.org/ns#" xmlns:rdf="http://www.w3.org/1999/02/22-rdf-syntax-ns#">
   <cc:Work>
    <dc:type rdf:resource="http://purl.org/dc/dcmitype/StillImage"/>
    <dc:date>2026-07-04T22:43:04.511976</dc:date>
    <dc:format>image/svg+xml</dc:format>
    <dc:creator>
     <cc:Agent>
      <dc:title>Matplotlib v3.11.0, https://matplotlib.org/</dc:title>
     </cc:Agent>
    </dc:creator>
   </cc:Work>
  </rdf:RDF>
 </metadata>
 <defs>
  <style type="text/css">*{stroke-linejoin: round; stroke-linecap: butt}</style>
 </defs>
 <g id="figure_1">
  <g id="patch_1">
   <path d="M 0 302.4 
L 792 302.4 
L 792 0 
L 0 0 
z
" style="fill: #ffffff"/>
  </g>
  <g id="axes_1">
   <g id="patch_2">
    <path d="M 54.442344 251.074531 
L 387.460909 251.074531 
L 387.460909 42.006328 
L 54.442344 42.006328 
z
" style="fill: #ffffff"/>
   </g>
   <g id="matplotlib.axis_1">
    <g id="xtick_1">
     <g id="line2d_1">
      <path d="M 123.00499 251.074531 
L 123.00499 42.006328 
" clip-path="url(#p39e4e3d337)" style="fill: none; stroke: #b0b0b0; stroke-opacity: 0.3; stroke-width: 0.8; stroke-linecap: square"/>
     </g>
     <g id="line2d_2">
      <defs>
       <path id="m0cd7067af1" d="M 0 0 
L 0 3.5 
" style="stroke: #000000; stroke-width: 0.8"/>
      </defs>
      <g>
       <use xlink:href="#m0cd7067af1" x="123.00499" y="251.074531" style="stroke: #000000; stroke-width: 0.8"/>
      </g>
     </g>
     <g id="text_1">
      <!-- 20 -->
      <g transform="translate(116.64249 265.672188) scale(0.1 -0.1)">
       <defs>
        <path id="DejaVuSans-15" d="M 1228 531 
L 3431 531 
L 3431 0 
L 469 0 
L 469 531 
Q 828 903 1448 1529 
Q 2069 2156 2228 2338 
Q 2531 2678 2651 2914 
Q 2772 3150 2772 3378 
Q 2772 3750 2511 3984 
Q 2250 4219 1831 4219 
Q 1534 4219 1204 4116 
Q 875 4013 500 3803 
L 500 4441 
Q 881 4594 1212 4672 
Q 1544 4750 1819 4750 
Q 2544 4750 2975 4387 
Q 3406 4025 3406 3419 
Q 3406 3131 3298 2873 
Q 3191 2616 2906 2266 
Q 2828 2175 2409 1742 
Q 1991 1309 1228 531 
z
" transform="scale(0.015625)"/>
        <path id="DejaVuSans-13" d="M 2034 4250 
Q 1547 4250 1301 3770 
Q 1056 3291 1056 2328 
Q 1056 1369 1301 889 
Q 1547 409 2034 409 
Q 2525 409 2770 889 
Q 3016 1369 3016 2328 
Q 3016 3291 2770 3770 
Q 2525 4250 2034 4250 
z
M 2034 4750 
Q 2819 4750 3233 4129 
Q 3647 3509 3647 2328 
Q 3647 1150 3233 529 
Q 2819 -91 2034 -91 
Q 1250 -91 836 529 
Q 422 1150 422 2328 
Q 422 3509 836 4129 
Q 1250 4750 2034 4750 
z
" transform="scale(0.015625)"/>
       </defs>
       <use xlink:href="#DejaVuSans-15"/>
       <use xlink:href="#DejaVuSans-13" transform="translate(63.625 0)"/>
      </g>
     </g>
    </g>
    <g id="xtick_2">
     <g id="line2d_3">
      <path d="M 194.238907 251.074531 
L 194.238907 42.006328 
" clip-path="url(#p39e4e3d337)" style="fill: none; stroke: #b0b0b0; stroke-opacity: 0.3; stroke-width: 0.8; stroke-linecap: square"/>
     </g>
     <g id="line2d_4">
      <g>
       <use xlink:href="#m0cd7067af1" x="194.238907" y="251.074531" style="stroke: #000000; stroke-width: 0.8"/>
      </g>
     </g>
     <g id="text_2">
      <!-- 40 -->
      <g transform="translate(187.876407 265.672188) scale(0.1 -0.1)">
       <defs>
        <path id="DejaVuSans-17" d="M 2419 4116 
L 825 1625 
L 2419 1625 
L 2419 4116 
z
M 2253 4666 
L 3047 4666 
L 3047 1625 
L 3713 1625 
L 3713 1100 
L 3047 1100 
L 3047 0 
L 2419 0 
L 2419 1100 
L 313 1100 
L 313 1709 
L 2253 4666 
z
" transform="scale(0.015625)"/>
       </defs>
       <use xlink:href="#DejaVuSans-17"/>
       <use xlink:href="#DejaVuSans-13" transform="translate(63.625 0)"/>
      </g>
     </g>
    </g>
    <g id="xtick_3">
     <g id="line2d_5">
      <path d="M 265.472825 251.074531 
L 265.472825 42.006328 
" clip-path="url(#p39e4e3d337)" style="fill: none; stroke: #b0b0b0; stroke-opacity: 0.3; stroke-width: 0.8; stroke-linecap: square"/>
     </g>
     <g id="line2d_6">
      <g>
       <use xlink:href="#m0cd7067af1" x="265.472825" y="251.074531" style="stroke: #000000; stroke-width: 0.8"/>
      </g>
     </g>
     <g id="text_3">
      <!-- 60 -->
      <g transform="translate(259.110325 265.672188) scale(0.1 -0.1)">
       <defs>
        <path id="DejaVuSans-19" d="M 2113 2584 
Q 1688 2584 1439 2293 
Q 1191 2003 1191 1497 
Q 1191 994 1439 701 
Q 1688 409 2113 409 
Q 2538 409 2786 701 
Q 3034 994 3034 1497 
Q 3034 2003 2786 2293 
Q 2538 2584 2113 2584 
z
M 3366 4563 
L 3366 3988 
Q 3128 4100 2886 4159 
Q 2644 4219 2406 4219 
Q 1781 4219 1451 3797 
Q 1122 3375 1075 2522 
Q 1259 2794 1537 2939 
Q 1816 3084 2150 3084 
Q 2853 3084 3261 2657 
Q 3669 2231 3669 1497 
Q 3669 778 3244 343 
Q 2819 -91 2113 -91 
Q 1303 -91 875 529 
Q 447 1150 447 2328 
Q 447 3434 972 4092 
Q 1497 4750 2381 4750 
Q 2619 4750 2861 4703 
Q 3103 4656 3366 4563 
z
" transform="scale(0.015625)"/>
       </defs>
       <use xlink:href="#DejaVuSans-19"/>
       <use xlink:href="#DejaVuSans-13" transform="translate(63.625 0)"/>
      </g>
     </g>
    </g>
    <g id="xtick_4">
     <g id="line2d_7">
      <path d="M 336.706743 251.074531 
L 336.706743 42.006328 
" clip-path="url(#p39e4e3d337)" style="fill: none; stroke: #b0b0b0; stroke-opacity: 0.3; stroke-width: 0.8; stroke-linecap: square"/>
     </g>
     <g id="line2d_8">
      <g>
       <use xlink:href="#m0cd7067af1" x="336.706743" y="251.074531" style="stroke: #000000; stroke-width: 0.8"/>
      </g>
     </g>
     <g id="text_4">
      <!-- 80 -->
      <g transform="translate(330.344243 265.672188) scale(0.1 -0.1)">
       <defs>
        <path id="DejaVuSans-1b" d="M 2034 2216 
Q 1584 2216 1326 1975 
Q 1069 1734 1069 1313 
Q 1069 891 1326 650 
Q 1584 409 2034 409 
Q 2484 409 2743 651 
Q 3003 894 3003 1313 
Q 3003 1734 2745 1975 
Q 2488 2216 2034 2216 
z
M 1403 2484 
Q 997 2584 770 2862 
Q 544 3141 544 3541 
Q 544 4100 942 4425 
Q 1341 4750 2034 4750 
Q 2731 4750 3128 4425 
Q 3525 4100 3525 3541 
Q 3525 3141 3298 2862 
Q 3072 2584 2669 2484 
Q 3125 2378 3379 2068 
Q 3634 1759 3634 1313 
Q 3634 634 3220 271 
Q 2806 -91 2034 -91 
Q 1263 -91 848 271 
Q 434 634 434 1313 
Q 434 1759 690 2068 
Q 947 2378 1403 2484 
z
M 1172 3481 
Q 1172 3119 1398 2916 
Q 1625 2713 2034 2713 
Q 2441 2713 2670 2916 
Q 2900 3119 2900 3481 
Q 2900 3844 2670 4047 
Q 2441 4250 2034 4250 
Q 1625 4250 1398 4047 
Q 1172 3844 1172 3481 
z
" transform="scale(0.015625)"/>
       </defs>
       <use xlink:href="#DejaVuSans-1b"/>
       <use xlink:href="#DejaVuSans-13" transform="translate(63.625 0)"/>
      </g>
     </g>
    </g>
    <g id="text_5">
     <!-- elevacion (grados) -->
     <g transform="translate(174.396939 279.672969) scale(0.1 -0.1)">
      <defs>
       <path id="DejaVuSans-48" d="M 3597 1894 
L 3597 1613 
L 953 1613 
Q 991 1019 1311 708 
Q 1631 397 2203 397 
Q 2534 397 2845 478 
Q 3156 559 3463 722 
L 3463 178 
Q 3153 47 2828 -22 
Q 2503 -91 2169 -91 
Q 1331 -91 842 396 
Q 353 884 353 1716 
Q 353 2575 817 3079 
Q 1281 3584 2069 3584 
Q 2775 3584 3186 3129 
Q 3597 2675 3597 1894 
z
M 3022 2063 
Q 3016 2534 2758 2815 
Q 2500 3097 2075 3097 
Q 1594 3097 1305 2825 
Q 1016 2553 972 2059 
L 3022 2063 
z
" transform="scale(0.015625)"/>
       <path id="DejaVuSans-4f" d="M 603 4863 
L 1178 4863 
L 1178 0 
L 603 0 
L 603 4863 
z
" transform="scale(0.015625)"/>
       <path id="DejaVuSans-59" d="M 191 3500 
L 800 3500 
L 1894 563 
L 2988 3500 
L 3597 3500 
L 2284 0 
L 1503 0 
L 191 3500 
z
" transform="scale(0.015625)"/>
       <path id="DejaVuSans-44" d="M 2194 1759 
Q 1497 1759 1228 1600 
Q 959 1441 959 1056 
Q 959 750 1161 570 
Q 1363 391 1709 391 
Q 2188 391 2477 730 
Q 2766 1069 2766 1631 
L 2766 1759 
L 2194 1759 
z
M 3341 1997 
L 3341 0 
L 2766 0 
L 2766 531 
Q 2569 213 2275 61 
Q 1981 -91 1556 -91 
Q 1019 -91 701 211 
Q 384 513 384 1019 
Q 384 1609 779 1909 
Q 1175 2209 1959 2209 
L 2766 2209 
L 2766 2266 
Q 2766 2663 2505 2880 
Q 2244 3097 1772 3097 
Q 1472 3097 1187 3025 
Q 903 2953 641 2809 
L 641 3341 
Q 956 3463 1253 3523 
Q 1550 3584 1831 3584 
Q 2591 3584 2966 3190 
Q 3341 2797 3341 1997 
z
" transform="scale(0.015625)"/>
       <path id="DejaVuSans-46" d="M 3122 3366 
L 3122 2828 
Q 2878 2963 2633 3030 
Q 2388 3097 2138 3097 
Q 1578 3097 1268 2742 
Q 959 2388 959 1747 
Q 959 1106 1268 751 
Q 1578 397 2138 397 
Q 2388 397 2633 464 
Q 2878 531 3122 666 
L 3122 134 
Q 2881 22 2623 -34 
Q 2366 -91 2075 -91 
Q 1284 -91 818 406 
Q 353 903 353 1747 
Q 353 2603 823 3093 
Q 1294 3584 2113 3584 
Q 2378 3584 2631 3529 
Q 2884 3475 3122 3366 
z
" transform="scale(0.015625)"/>
       <path id="DejaVuSans-4c" d="M 603 3500 
L 1178 3500 
L 1178 0 
L 603 0 
L 603 3500 
z
M 603 4863 
L 1178 4863 
L 1178 4134 
L 603 4134 
L 603 4863 
z
" transform="scale(0.015625)"/>
       <path id="DejaVuSans-52" d="M 1959 3097 
Q 1497 3097 1228 2736 
Q 959 2375 959 1747 
Q 959 1119 1226 758 
Q 1494 397 1959 397 
Q 2419 397 2687 759 
Q 2956 1122 2956 1747 
Q 2956 2369 2687 2733 
Q 2419 3097 1959 3097 
z
M 1959 3584 
Q 2709 3584 3137 3096 
Q 3566 2609 3566 1747 
Q 3566 888 3137 398 
Q 2709 -91 1959 -91 
Q 1206 -91 779 398 
Q 353 888 353 1747 
Q 353 2609 779 3096 
Q 1206 3584 1959 3584 
z
" transform="scale(0.015625)"/>
       <path id="DejaVuSans-51" d="M 3513 2113 
L 3513 0 
L 2938 0 
L 2938 2094 
Q 2938 2591 2744 2837 
Q 2550 3084 2163 3084 
Q 1697 3084 1428 2787 
Q 1159 2491 1159 1978 
L 1159 0 
L 581 0 
L 581 3500 
L 1159 3500 
L 1159 2956 
Q 1366 3272 1645 3428 
Q 1925 3584 2291 3584 
Q 2894 3584 3203 3211 
Q 3513 2838 3513 2113 
z
" transform="scale(0.015625)"/>
       <path id="DejaVuSans-3" transform="scale(0.015625)"/>
       <path id="DejaVuSans-b" d="M 1984 4856 
Q 1566 4138 1362 3434 
Q 1159 2731 1159 2009 
Q 1159 1288 1364 580 
Q 1569 -128 1984 -844 
L 1484 -844 
Q 1016 -109 783 600 
Q 550 1309 550 2009 
Q 550 2706 781 3412 
Q 1013 4119 1484 4856 
L 1984 4856 
z
" transform="scale(0.015625)"/>
       <path id="DejaVuSans-4a" d="M 2906 1791 
Q 2906 2416 2648 2759 
Q 2391 3103 1925 3103 
Q 1463 3103 1205 2759 
Q 947 2416 947 1791 
Q 947 1169 1205 825 
Q 1463 481 1925 481 
Q 2391 481 2648 825 
Q 2906 1169 2906 1791 
z
M 3481 434 
Q 3481 -459 3084 -895 
Q 2688 -1331 1869 -1331 
Q 1566 -1331 1297 -1286 
Q 1028 -1241 775 -1147 
L 775 -588 
Q 1028 -725 1275 -790 
Q 1522 -856 1778 -856 
Q 2344 -856 2625 -561 
Q 2906 -266 2906 331 
L 2906 616 
Q 2728 306 2450 153 
Q 2172 0 1784 0 
Q 1141 0 747 490 
Q 353 981 353 1791 
Q 353 2603 747 3093 
Q 1141 3584 1784 3584 
Q 2172 3584 2450 3431 
Q 2728 3278 2906 2969 
L 2906 3500 
L 3481 3500 
L 3481 434 
z
" transform="scale(0.015625)"/>
       <path id="DejaVuSans-55" d="M 2631 2963 
Q 2534 3019 2420 3045 
Q 2306 3072 2169 3072 
Q 1681 3072 1420 2755 
Q 1159 2438 1159 1844 
L 1159 0 
L 581 0 
L 581 3500 
L 1159 3500 
L 1159 2956 
Q 1341 3275 1631 3429 
Q 1922 3584 2338 3584 
Q 2397 3584 2469 3576 
Q 2541 3569 2628 3553 
L 2631 2963 
z
" transform="scale(0.015625)"/>
       <path id="DejaVuSans-47" d="M 2906 2969 
L 2906 4863 
L 3481 4863 
L 3481 0 
L 2906 0 
L 2906 525 
Q 2725 213 2448 61 
Q 2172 -91 1784 -91 
Q 1150 -91 751 415 
Q 353 922 353 1747 
Q 353 2572 751 3078 
Q 1150 3584 1784 3584 
Q 2172 3584 2448 3432 
Q 2725 3281 2906 2969 
z
M 947 1747 
Q 947 1113 1208 752 
Q 1469 391 1925 391 
Q 2381 391 2643 752 
Q 2906 1113 2906 1747 
Q 2906 2381 2643 2742 
Q 2381 3103 1925 3103 
Q 1469 3103 1208 2742 
Q 947 2381 947 1747 
z
" transform="scale(0.015625)"/>
       <path id="DejaVuSans-56" d="M 2834 3397 
L 2834 2853 
Q 2591 2978 2328 3040 
Q 2066 3103 1784 3103 
Q 1356 3103 1142 2972 
Q 928 2841 928 2578 
Q 928 2378 1081 2264 
Q 1234 2150 1697 2047 
L 1894 2003 
Q 2506 1872 2764 1633 
Q 3022 1394 3022 966 
Q 3022 478 2636 193 
Q 2250 -91 1575 -91 
Q 1294 -91 989 -36 
Q 684 19 347 128 
L 347 722 
Q 666 556 975 473 
Q 1284 391 1588 391 
Q 1994 391 2212 530 
Q 2431 669 2431 922 
Q 2431 1156 2273 1281 
Q 2116 1406 1581 1522 
L 1381 1569 
Q 847 1681 609 1914 
Q 372 2147 372 2553 
Q 372 3047 722 3315 
Q 1072 3584 1716 3584 
Q 2034 3584 2315 3537 
Q 2597 3491 2834 3397 
z
" transform="scale(0.015625)"/>
       <path id="DejaVuSans-c" d="M 513 4856 
L 1013 4856 
Q 1481 4119 1714 3412 
Q 1947 2706 1947 2009 
Q 1947 1309 1714 600 
Q 1481 -109 1013 -844 
L 513 -844 
Q 928 -128 1133 580 
Q 1338 1288 1338 2009 
Q 1338 2731 1133 3434 
Q 928 4138 513 4856 
z
" transform="scale(0.015625)"/>
      </defs>
      <use xlink:href="#DejaVuSans-48"/>
      <use xlink:href="#DejaVuSans-4f" transform="translate(61.53125 0)"/>
      <use xlink:href="#DejaVuSans-48" transform="translate(89.3125 0)"/>
      <use xlink:href="#DejaVuSans-59" transform="translate(150.84375 0)"/>
      <use xlink:href="#DejaVuSans-44" transform="translate(210.03125 0)"/>
      <use xlink:href="#DejaVuSans-46" transform="translate(271.3125 0)"/>
      <use xlink:href="#DejaVuSans-4c" transform="translate(326.296875 0)"/>
      <use xlink:href="#DejaVuSans-52" transform="translate(354.078125 0)"/>
      <use xlink:href="#DejaVuSans-51" transform="translate(415.265625 0)"/>
      <use xlink:href="#DejaVuSans-3" transform="translate(478.640625 0)"/>
      <use xlink:href="#DejaVuSans-b" transform="translate(510.421875 0)"/>
      <use xlink:href="#DejaVuSans-4a" transform="translate(549.4375 0)"/>
      <use xlink:href="#DejaVuSans-55" transform="translate(612.921875 0)"/>
      <use xlink:href="#DejaVuSans-44" transform="translate(654.03125 0)"/>
      <use xlink:href="#DejaVuSans-47" transform="translate(715.3125 0)"/>
      <use xlink:href="#DejaVuSans-52" transform="translate(778.796875 0)"/>
      <use xlink:href="#DejaVuSans-56" transform="translate(839.984375 0)"/>
      <use xlink:href="#DejaVuSans-c" transform="translate(892.078125 0)"/>
     </g>
    </g>
   </g>
   <g id="matplotlib.axis_2">
    <g id="ytick_1">
     <g id="line2d_9">
      <path d="M 54.442344 241.611951 
L 387.460909 241.611951 
" clip-path="url(#p39e4e3d337)" style="fill: none; stroke: #b0b0b0; stroke-opacity: 0.3; stroke-width: 0.8; stroke-linecap: square"/>
     </g>
     <g id="line2d_10">
      <defs>
       <path id="m53677be3b6" d="M 0 0 
L -3.5 0 
" style="stroke: #000000; stroke-width: 0.8"/>
      </defs>
      <g>
       <use xlink:href="#m53677be3b6" x="54.442344" y="241.611951" style="stroke: #000000; stroke-width: 0.8"/>
      </g>
     </g>
     <g id="text_6">
      <!-- 1.00 -->
      <g transform="translate(25.176719 245.410779) scale(0.1 -0.1)">
       <defs>
        <path id="DejaVuSans-14" d="M 794 531 
L 1825 531 
L 1825 4091 
L 703 3866 
L 703 4441 
L 1819 4666 
L 2450 4666 
L 2450 531 
L 3481 531 
L 3481 0 
L 794 0 
L 794 531 
z
" transform="scale(0.015625)"/>
        <path id="DejaVuSans-11" d="M 684 794 
L 1344 794 
L 1344 0 
L 684 0 
L 684 794 
z
" transform="scale(0.015625)"/>
       </defs>
       <use xlink:href="#DejaVuSans-14"/>
       <use xlink:href="#DejaVuSans-11" transform="translate(63.625 0)"/>
       <use xlink:href="#DejaVuSans-13" transform="translate(95.40625 0)"/>
       <use xlink:href="#DejaVuSans-13" transform="translate(159.03125 0)"/>
      </g>
     </g>
    </g>
    <g id="ytick_2">
     <g id="line2d_11">
      <path d="M 54.442344 218.163177 
L 387.460909 218.163177 
" clip-path="url(#p39e4e3d337)" style="fill: none; stroke: #b0b0b0; stroke-opacity: 0.3; stroke-width: 0.8; stroke-linecap: square"/>
     </g>
     <g id="line2d_12">
      <g>
       <use xlink:href="#m53677be3b6" x="54.442344" y="218.163177" style="stroke: #000000; stroke-width: 0.8"/>
      </g>
     </g>
     <g id="text_7">
      <!-- 1.25 -->
      <g transform="translate(25.176719 221.962005) scale(0.1 -0.1)">
       <defs>
        <path id="DejaVuSans-18" d="M 691 4666 
L 3169 4666 
L 3169 4134 
L 1269 4134 
L 1269 2991 
Q 1406 3038 1543 3061 
Q 1681 3084 1819 3084 
Q 2600 3084 3056 2656 
Q 3513 2228 3513 1497 
Q 3513 744 3044 326 
Q 2575 -91 1722 -91 
Q 1428 -91 1123 -41 
Q 819 9 494 109 
L 494 744 
Q 775 591 1075 516 
Q 1375 441 1709 441 
Q 2250 441 2565 725 
Q 2881 1009 2881 1497 
Q 2881 1984 2565 2268 
Q 2250 2553 1709 2553 
Q 1456 2553 1204 2497 
Q 953 2441 691 2322 
L 691 4666 
z
" transform="scale(0.015625)"/>
       </defs>
       <use xlink:href="#DejaVuSans-14"/>
       <use xlink:href="#DejaVuSans-11" transform="translate(63.625 0)"/>
       <use xlink:href="#DejaVuSans-15" transform="translate(95.40625 0)"/>
       <use xlink:href="#DejaVuSans-18" transform="translate(159.03125 0)"/>
      </g>
     </g>
    </g>
    <g id="ytick_3">
     <g id="line2d_13">
      <path d="M 54.442344 194.714404 
L 387.460909 194.714404 
" clip-path="url(#p39e4e3d337)" style="fill: none; stroke: #b0b0b0; stroke-opacity: 0.3; stroke-width: 0.8; stroke-linecap: square"/>
     </g>
     <g id="line2d_14">
      <g>
       <use xlink:href="#m53677be3b6" x="54.442344" y="194.714404" style="stroke: #000000; stroke-width: 0.8"/>
      </g>
     </g>
     <g id="text_8">
      <!-- 1.50 -->
      <g transform="translate(25.176719 198.513232) scale(0.1 -0.1)">
       <use xlink:href="#DejaVuSans-14"/>
       <use xlink:href="#DejaVuSans-11" transform="translate(63.625 0)"/>
       <use xlink:href="#DejaVuSans-18" transform="translate(95.40625 0)"/>
       <use xlink:href="#DejaVuSans-13" transform="translate(159.03125 0)"/>
      </g>
     </g>
    </g>
    <g id="ytick_4">
     <g id="line2d_15">
      <path d="M 54.442344 171.26563 
L 387.460909 171.26563 
" clip-path="url(#p39e4e3d337)" style="fill: none; stroke: #b0b0b0; stroke-opacity: 0.3; stroke-width: 0.8; stroke-linecap: square"/>
     </g>
     <g id="line2d_16">
      <g>
       <use xlink:href="#m53677be3b6" x="54.442344" y="171.26563" style="stroke: #000000; stroke-width: 0.8"/>
      </g>
     </g>
     <g id="text_9">
      <!-- 1.75 -->
      <g transform="translate(25.176719 175.064459) scale(0.1 -0.1)">
       <defs>
        <path id="DejaVuSans-1a" d="M 525 4666 
L 3525 4666 
L 3525 4397 
L 1831 0 
L 1172 0 
L 2766 4134 
L 525 4134 
L 525 4666 
z
" transform="scale(0.015625)"/>
       </defs>
       <use xlink:href="#DejaVuSans-14"/>
       <use xlink:href="#DejaVuSans-11" transform="translate(63.625 0)"/>
       <use xlink:href="#DejaVuSans-1a" transform="translate(95.40625 0)"/>
       <use xlink:href="#DejaVuSans-18" transform="translate(159.03125 0)"/>
      </g>
     </g>
    </g>
    <g id="ytick_5">
     <g id="line2d_17">
      <path d="M 54.442344 147.816857 
L 387.460909 147.816857 
" clip-path="url(#p39e4e3d337)" style="fill: none; stroke: #b0b0b0; stroke-opacity: 0.3; stroke-width: 0.8; stroke-linecap: square"/>
     </g>
     <g id="line2d_18">
      <g>
       <use xlink:href="#m53677be3b6" x="54.442344" y="147.816857" style="stroke: #000000; stroke-width: 0.8"/>
      </g>
     </g>
     <g id="text_10">
      <!-- 2.00 -->
      <g transform="translate(25.176719 151.615685) scale(0.1 -0.1)">
       <use xlink:href="#DejaVuSans-15"/>
       <use xlink:href="#DejaVuSans-11" transform="translate(63.625 0)"/>
       <use xlink:href="#DejaVuSans-13" transform="translate(95.40625 0)"/>
       <use xlink:href="#DejaVuSans-13" transform="translate(159.03125 0)"/>
      </g>
     </g>
    </g>
    <g id="ytick_6">
     <g id="line2d_19">
      <path d="M 54.442344 124.368084 
L 387.460909 124.368084 
" clip-path="url(#p39e4e3d337)" style="fill: none; stroke: #b0b0b0; stroke-opacity: 0.3; stroke-width: 0.8; stroke-linecap: square"/>
     </g>
     <g id="line2d_20">
      <g>
       <use xlink:href="#m53677be3b6" x="54.442344" y="124.368084" style="stroke: #000000; stroke-width: 0.8"/>
      </g>
     </g>
     <g id="text_11">
      <!-- 2.25 -->
      <g transform="translate(25.176719 128.166912) scale(0.1 -0.1)">
       <use xlink:href="#DejaVuSans-15"/>
       <use xlink:href="#DejaVuSans-11" transform="translate(63.625 0)"/>
       <use xlink:href="#DejaVuSans-15" transform="translate(95.40625 0)"/>
       <use xlink:href="#DejaVuSans-18" transform="translate(159.03125 0)"/>
      </g>
     </g>
    </g>
    <g id="ytick_7">
     <g id="line2d_21">
      <path d="M 54.442344 100.91931 
L 387.460909 100.91931 
" clip-path="url(#p39e4e3d337)" style="fill: none; stroke: #b0b0b0; stroke-opacity: 0.3; stroke-width: 0.8; stroke-linecap: square"/>
     </g>
     <g id="line2d_22">
      <g>
       <use xlink:href="#m53677be3b6" x="54.442344" y="100.91931" style="stroke: #000000; stroke-width: 0.8"/>
      </g>
     </g>
     <g id="text_12">
      <!-- 2.50 -->
      <g transform="translate(25.176719 104.718139) scale(0.1 -0.1)">
       <use xlink:href="#DejaVuSans-15"/>
       <use xlink:href="#DejaVuSans-11" transform="translate(63.625 0)"/>
       <use xlink:href="#DejaVuSans-18" transform="translate(95.40625 0)"/>
       <use xlink:href="#DejaVuSans-13" transform="translate(159.03125 0)"/>
      </g>
     </g>
    </g>
    <g id="ytick_8">
     <g id="line2d_23">
      <path d="M 54.442344 77.470537 
L 387.460909 77.470537 
" clip-path="url(#p39e4e3d337)" style="fill: none; stroke: #b0b0b0; stroke-opacity: 0.3; stroke-width: 0.8; stroke-linecap: square"/>
     </g>
     <g id="line2d_24">
      <g>
       <use xlink:href="#m53677be3b6" x="54.442344" y="77.470537" style="stroke: #000000; stroke-width: 0.8"/>
      </g>
     </g>
     <g id="text_13">
      <!-- 2.75 -->
      <g transform="translate(25.176719 81.269365) scale(0.1 -0.1)">
       <use xlink:href="#DejaVuSans-15"/>
       <use xlink:href="#DejaVuSans-11" transform="translate(63.625 0)"/>
       <use xlink:href="#DejaVuSans-1a" transform="translate(95.40625 0)"/>
       <use xlink:href="#DejaVuSans-18" transform="translate(159.03125 0)"/>
      </g>
     </g>
    </g>
    <g id="ytick_9">
     <g id="line2d_25">
      <path d="M 54.442344 54.021764 
L 387.460909 54.021764 
" clip-path="url(#p39e4e3d337)" style="fill: none; stroke: #b0b0b0; stroke-opacity: 0.3; stroke-width: 0.8; stroke-linecap: square"/>
     </g>
     <g id="line2d_26">
      <g>
       <use xlink:href="#m53677be3b6" x="54.442344" y="54.021764" style="stroke: #000000; stroke-width: 0.8"/>
      </g>
     </g>
     <g id="text_14">
      <!-- 3.00 -->
      <g transform="translate(25.176719 57.820592) scale(0.1 -0.1)">
       <defs>
        <path id="DejaVuSans-16" d="M 2597 2516 
Q 3050 2419 3304 2112 
Q 3559 1806 3559 1356 
Q 3559 666 3084 287 
Q 2609 -91 1734 -91 
Q 1441 -91 1130 -33 
Q 819 25 488 141 
L 488 750 
Q 750 597 1062 519 
Q 1375 441 1716 441 
Q 2309 441 2620 675 
Q 2931 909 2931 1356 
Q 2931 1769 2642 2001 
Q 2353 2234 1838 2234 
L 1294 2234 
L 1294 2753 
L 1863 2753 
Q 2328 2753 2575 2939 
Q 2822 3125 2822 3475 
Q 2822 3834 2567 4026 
Q 2313 4219 1838 4219 
Q 1578 4219 1281 4162 
Q 984 4106 628 3988 
L 628 4550 
Q 988 4650 1302 4700 
Q 1616 4750 1894 4750 
Q 2613 4750 3031 4423 
Q 3450 4097 3450 3541 
Q 3450 3153 3228 2886 
Q 3006 2619 2597 2516 
z
" transform="scale(0.015625)"/>
       </defs>
       <use xlink:href="#DejaVuSans-16"/>
       <use xlink:href="#DejaVuSans-11" transform="translate(63.625 0)"/>
       <use xlink:href="#DejaVuSans-13" transform="translate(95.40625 0)"/>
       <use xlink:href="#DejaVuSans-13" transform="translate(159.03125 0)"/>
      </g>
     </g>
    </g>
    <g id="text_15">
     <!-- factor de oblicuidad F -->
     <g transform="translate(18.774375 200.813867) rotate(-90) scale(0.1 -0.1)">
      <defs>
       <path id="DejaVuSans-49" d="M 2375 4863 
L 2375 4384 
L 1825 4384 
Q 1516 4384 1395 4259 
Q 1275 4134 1275 3809 
L 1275 3500 
L 2222 3500 
L 2222 3053 
L 1275 3053 
L 1275 0 
L 697 0 
L 697 3053 
L 147 3053 
L 147 3500 
L 697 3500 
L 697 3744 
Q 697 4328 969 4595 
Q 1241 4863 1831 4863 
L 2375 4863 
z
" transform="scale(0.015625)"/>
       <path id="DejaVuSans-57" d="M 1172 4494 
L 1172 3500 
L 2356 3500 
L 2356 3053 
L 1172 3053 
L 1172 1153 
Q 1172 725 1289 603 
Q 1406 481 1766 481 
L 2356 481 
L 2356 0 
L 1766 0 
Q 1100 0 847 248 
Q 594 497 594 1153 
L 594 3053 
L 172 3053 
L 172 3500 
L 594 3500 
L 594 4494 
L 1172 4494 
z
" transform="scale(0.015625)"/>
       <path id="DejaVuSans-45" d="M 3116 1747 
Q 3116 2381 2855 2742 
Q 2594 3103 2138 3103 
Q 1681 3103 1420 2742 
Q 1159 2381 1159 1747 
Q 1159 1113 1420 752 
Q 1681 391 2138 391 
Q 2594 391 2855 752 
Q 3116 1113 3116 1747 
z
M 1159 2969 
Q 1341 3281 1617 3432 
Q 1894 3584 2278 3584 
Q 2916 3584 3314 3078 
Q 3713 2572 3713 1747 
Q 3713 922 3314 415 
Q 2916 -91 2278 -91 
Q 1894 -91 1617 61 
Q 1341 213 1159 525 
L 1159 0 
L 581 0 
L 581 4863 
L 1159 4863 
L 1159 2969 
z
" transform="scale(0.015625)"/>
       <path id="DejaVuSans-58" d="M 544 1381 
L 544 3500 
L 1119 3500 
L 1119 1403 
Q 1119 906 1312 657 
Q 1506 409 1894 409 
Q 2359 409 2629 706 
Q 2900 1003 2900 1516 
L 2900 3500 
L 3475 3500 
L 3475 0 
L 2900 0 
L 2900 538 
Q 2691 219 2414 64 
Q 2138 -91 1772 -91 
Q 1169 -91 856 284 
Q 544 659 544 1381 
z
M 1991 3584 
L 1991 3584 
z
" transform="scale(0.015625)"/>
       <path id="DejaVuSans-29" d="M 628 4666 
L 3309 4666 
L 3309 4134 
L 1259 4134 
L 1259 2759 
L 3109 2759 
L 3109 2228 
L 1259 2228 
L 1259 0 
L 628 0 
L 628 4666 
z
" transform="scale(0.015625)"/>
      </defs>
      <use xlink:href="#DejaVuSans-49"/>
      <use xlink:href="#DejaVuSans-44" transform="translate(35.203125 0)"/>
      <use xlink:href="#DejaVuSans-46" transform="translate(96.484375 0)"/>
      <use xlink:href="#DejaVuSans-57" transform="translate(151.46875 0)"/>
      <use xlink:href="#DejaVuSans-52" transform="translate(190.671875 0)"/>
      <use xlink:href="#DejaVuSans-55" transform="translate(251.859375 0)"/>
      <use xlink:href="#DejaVuSans-3" transform="translate(292.96875 0)"/>
      <use xlink:href="#DejaVuSans-47" transform="translate(324.75 0)"/>
      <use xlink:href="#DejaVuSans-48" transform="translate(388.234375 0)"/>
      <use xlink:href="#DejaVuSans-3" transform="translate(449.765625 0)"/>
      <use xlink:href="#DejaVuSans-52" transform="translate(481.546875 0)"/>
      <use xlink:href="#DejaVuSans-45" transform="translate(542.734375 0)"/>
      <use xlink:href="#DejaVuSans-4f" transform="translate(606.21875 0)"/>
      <use xlink:href="#DejaVuSans-4c" transform="translate(634 0)"/>
      <use xlink:href="#DejaVuSans-46" transform="translate(661.78125 0)"/>
      <use xlink:href="#DejaVuSans-58" transform="translate(716.765625 0)"/>
      <use xlink:href="#DejaVuSans-4c" transform="translate(780.140625 0)"/>
      <use xlink:href="#DejaVuSans-47" transform="translate(807.921875 0)"/>
      <use xlink:href="#DejaVuSans-44" transform="translate(871.40625 0)"/>
      <use xlink:href="#DejaVuSans-47" transform="translate(932.6875 0)"/>
      <use xlink:href="#DejaVuSans-3" transform="translate(996.171875 0)"/>
      <use xlink:href="#DejaVuSans-29" transform="translate(1027.953125 0)"/>
     </g>
    </g>
   </g>
   <g id="line2d_27">
    <path d="M 69.579551 51.509428 
L 75.664861 62.0857 
L 81.75017 72.262242 
L 87.83548 82.046753 
L 93.920789 91.446934 
L 100.006099 100.470486 
L 106.091409 109.125109 
L 112.176718 117.418503 
L 118.262028 125.358369 
L 124.347337 132.952407 
L 130.432647 140.208318 
L 136.517956 147.133801 
L 142.603266 153.736557 
L 148.688575 160.024287 
L 154.773885 166.004691 
L 160.859195 171.685469 
L 166.944504 177.074321 
L 173.029814 182.178949 
L 179.115123 187.007051 
L 185.200433 191.56633 
L 191.285742 195.864484 
L 197.371052 199.909215 
L 203.456361 203.708223 
L 209.541671 207.269208 
L 215.626981 210.599871 
L 221.71229 213.707911 
L 227.7976 216.60103 
L 233.882909 219.286927 
L 239.968219 221.773303 
L 247.574856 224.612428 
L 255.181493 227.166873 
L 262.78813 229.451678 
L 270.394767 231.481882 
L 278.001403 233.272526 
L 285.60804 234.838649 
L 293.214677 236.19529 
L 302.342642 237.567921 
L 311.470606 238.686545 
L 320.59857 239.577152 
L 331.247862 240.362675 
L 341.897154 240.914482 
L 354.067773 241.311878 
L 367.759719 241.535199 
L 372.323702 241.571431 
L 372.323702 241.571431 
" clip-path="url(#p39e4e3d337)" style="fill: none; stroke: #9467bd; stroke-width: 1.8; stroke-linecap: square"/>
   </g>
   <g id="line2d_28">
    <defs>
     <path id="m12ec6ab645" d="M 0 2.5 
C 0.663008 2.5 1.29895 2.236584 1.767767 1.767767 
C 2.236584 1.29895 2.5 0.663008 2.5 0 
C 2.5 -0.663008 2.236584 -1.29895 1.767767 -1.767767 
C 1.29895 -2.236584 0.663008 -2.5 0 -2.5 
C -0.663008 -2.5 -1.29895 -2.236584 -1.767767 -1.767767 
C -2.236584 -1.29895 -2.5 -0.663008 -2.5 0 
C -2.5 0.663008 -2.236584 1.29895 -1.767767 1.767767 
C -1.29895 2.236584 -0.663008 2.5 0 2.5 
z
" style="stroke: #d62728"/>
    </defs>
    <g clip-path="url(#p39e4e3d337)">
     <use xlink:href="#m12ec6ab645" x="372.323702" y="241.571431" style="fill: #d62728; stroke: #d62728"/>
    </g>
   </g>
   <g id="line2d_29">
    <g clip-path="url(#p39e4e3d337)">
     <use xlink:href="#m12ec6ab645" x="158.621948" y="169.631289" style="fill: #d62728; stroke: #d62728"/>
    </g>
   </g>
   <g id="line2d_30">
    <g clip-path="url(#p39e4e3d337)">
     <use xlink:href="#m12ec6ab645" x="105.19651" y="107.87521" style="fill: #d62728; stroke: #d62728"/>
    </g>
   </g>
   <g id="line2d_31">
    <g clip-path="url(#p39e4e3d337)">
     <use xlink:href="#m12ec6ab645" x="69.579551" y="51.509428" style="fill: #d62728; stroke: #d62728"/>
    </g>
   </g>
   <g id="patch_3">
    <path d="M 54.442344 251.074531 
L 54.442344 42.006328 
" style="fill: none; stroke: #000000; stroke-width: 0.8; stroke-linejoin: miter; stroke-linecap: square"/>
   </g>
   <g id="patch_4">
    <path d="M 387.460909 251.074531 
L 387.460909 42.006328 
" style="fill: none; stroke: #000000; stroke-width: 0.8; stroke-linejoin: miter; stroke-linecap: square"/>
   </g>
   <g id="patch_5">
    <path d="M 54.442344 251.074531 
L 387.460909 251.074531 
" style="fill: none; stroke: #000000; stroke-width: 0.8; stroke-linejoin: miter; stroke-linecap: square"/>
   </g>
   <g id="patch_6">
    <path d="M 54.442344 42.006328 
L 387.460909 42.006328 
" style="fill: none; stroke: #000000; stroke-width: 0.8; stroke-linejoin: miter; stroke-linecap: square"/>
   </g>
   <g id="text_16">
    <!-- F=1.00 -->
    <g transform="translate(378.323702 235.571431) scale(0.08 -0.08)">
     <defs>
      <path id="DejaVuSans-20" d="M 678 2906 
L 4684 2906 
L 4684 2381 
L 678 2381 
L 678 2906 
z
M 678 1631 
L 4684 1631 
L 4684 1100 
L 678 1100 
L 678 1631 
z
" transform="scale(0.015625)"/>
     </defs>
     <use xlink:href="#DejaVuSans-29"/>
     <use xlink:href="#DejaVuSans-20" transform="translate(57.515625 0)"/>
     <use xlink:href="#DejaVuSans-14" transform="translate(141.3125 0)"/>
     <use xlink:href="#DejaVuSans-11" transform="translate(204.9375 0)"/>
     <use xlink:href="#DejaVuSans-13" transform="translate(236.71875 0)"/>
     <use xlink:href="#DejaVuSans-13" transform="translate(300.34375 0)"/>
    </g>
   </g>
   <g id="text_17">
    <!-- F=1.77 -->
    <g transform="translate(164.621948 163.631289) scale(0.08 -0.08)">
     <use xlink:href="#DejaVuSans-29"/>
     <use xlink:href="#DejaVuSans-20" transform="translate(57.515625 0)"/>
     <use xlink:href="#DejaVuSans-14" transform="translate(141.3125 0)"/>
     <use xlink:href="#DejaVuSans-11" transform="translate(204.9375 0)"/>
     <use xlink:href="#DejaVuSans-1a" transform="translate(236.71875 0)"/>
     <use xlink:href="#DejaVuSans-1a" transform="translate(300.34375 0)"/>
    </g>
   </g>
   <g id="text_18">
    <!-- F=2.43 -->
    <g transform="translate(111.19651 101.87521) scale(0.08 -0.08)">
     <use xlink:href="#DejaVuSans-29"/>
     <use xlink:href="#DejaVuSans-20" transform="translate(57.515625 0)"/>
     <use xlink:href="#DejaVuSans-15" transform="translate(141.3125 0)"/>
     <use xlink:href="#DejaVuSans-11" transform="translate(204.9375 0)"/>
     <use xlink:href="#DejaVuSans-17" transform="translate(236.71875 0)"/>
     <use xlink:href="#DejaVuSans-16" transform="translate(300.34375 0)"/>
    </g>
   </g>
   <g id="text_19">
    <!-- F=3.03 -->
    <g transform="translate(75.579551 45.509428) scale(0.08 -0.08)">
     <use xlink:href="#DejaVuSans-29"/>
     <use xlink:href="#DejaVuSans-20" transform="translate(57.515625 0)"/>
     <use xlink:href="#DejaVuSans-16" transform="translate(141.3125 0)"/>
     <use xlink:href="#DejaVuSans-11" transform="translate(204.9375 0)"/>
     <use xlink:href="#DejaVuSans-13" transform="translate(236.71875 0)"/>
     <use xlink:href="#DejaVuSans-16" transform="translate(300.34375 0)"/>
    </g>
   </g>
   <g id="text_20">
    <!-- El rayo oblicuo atraviesa mas ionosfera: -->
    <g transform="translate(100.568189 21.603047) scale(0.12 -0.12)">
     <defs>
      <path id="DejaVuSans-28" d="M 628 4666 
L 3578 4666 
L 3578 4134 
L 1259 4134 
L 1259 2753 
L 3481 2753 
L 3481 2222 
L 1259 2222 
L 1259 531 
L 3634 531 
L 3634 0 
L 628 0 
L 628 4666 
z
" transform="scale(0.015625)"/>
      <path id="DejaVuSans-5c" d="M 2059 -325 
Q 1816 -950 1584 -1140 
Q 1353 -1331 966 -1331 
L 506 -1331 
L 506 -850 
L 844 -850 
Q 1081 -850 1212 -737 
Q 1344 -625 1503 -206 
L 1606 56 
L 191 3500 
L 800 3500 
L 1894 763 
L 2988 3500 
L 3597 3500 
L 2059 -325 
z
" transform="scale(0.015625)"/>
      <path id="DejaVuSans-50" d="M 3328 2828 
Q 3544 3216 3844 3400 
Q 4144 3584 4550 3584 
Q 5097 3584 5394 3201 
Q 5691 2819 5691 2113 
L 5691 0 
L 5113 0 
L 5113 2094 
Q 5113 2597 4934 2840 
Q 4756 3084 4391 3084 
Q 3944 3084 3684 2787 
Q 3425 2491 3425 1978 
L 3425 0 
L 2847 0 
L 2847 2094 
Q 2847 2600 2669 2842 
Q 2491 3084 2119 3084 
Q 1678 3084 1418 2786 
Q 1159 2488 1159 1978 
L 1159 0 
L 581 0 
L 581 3500 
L 1159 3500 
L 1159 2956 
Q 1356 3278 1631 3431 
Q 1906 3584 2284 3584 
Q 2666 3584 2933 3390 
Q 3200 3197 3328 2828 
z
" transform="scale(0.015625)"/>
      <path id="DejaVuSans-1d" d="M 750 794 
L 1409 794 
L 1409 0 
L 750 0 
L 750 794 
z
M 750 3309 
L 1409 3309 
L 1409 2516 
L 750 2516 
L 750 3309 
z
" transform="scale(0.015625)"/>
     </defs>
     <use xlink:href="#DejaVuSans-28"/>
     <use xlink:href="#DejaVuSans-4f" transform="translate(63.1875 0)"/>
     <use xlink:href="#DejaVuSans-3" transform="translate(90.96875 0)"/>
     <use xlink:href="#DejaVuSans-55" transform="translate(122.75 0)"/>
     <use xlink:href="#DejaVuSans-44" transform="translate(163.859375 0)"/>
     <use xlink:href="#DejaVuSans-5c" transform="translate(225.140625 0)"/>
     <use xlink:href="#DejaVuSans-52" transform="translate(284.328125 0)"/>
     <use xlink:href="#DejaVuSans-3" transform="translate(345.515625 0)"/>
     <use xlink:href="#DejaVuSans-52" transform="translate(377.296875 0)"/>
     <use xlink:href="#DejaVuSans-45" transform="translate(438.484375 0)"/>
     <use xlink:href="#DejaVuSans-4f" transform="translate(501.96875 0)"/>
     <use xlink:href="#DejaVuSans-4c" transform="translate(529.75 0)"/>
     <use xlink:href="#DejaVuSans-46" transform="translate(557.53125 0)"/>
     <use xlink:href="#DejaVuSans-58" transform="translate(612.515625 0)"/>
     <use xlink:href="#DejaVuSans-52" transform="translate(675.890625 0)"/>
     <use xlink:href="#DejaVuSans-3" transform="translate(737.078125 0)"/>
     <use xlink:href="#DejaVuSans-44" transform="translate(768.859375 0)"/>
     <use xlink:href="#DejaVuSans-57" transform="translate(830.140625 0)"/>
     <use xlink:href="#DejaVuSans-55" transform="translate(869.34375 0)"/>
     <use xlink:href="#DejaVuSans-44" transform="translate(910.453125 0)"/>
     <use xlink:href="#DejaVuSans-59" transform="translate(971.734375 0)"/>
     <use xlink:href="#DejaVuSans-4c" transform="translate(1030.921875 0)"/>
     <use xlink:href="#DejaVuSans-48" transform="translate(1058.703125 0)"/>
     <use xlink:href="#DejaVuSans-56" transform="translate(1120.234375 0)"/>
     <use xlink:href="#DejaVuSans-44" transform="translate(1172.328125 0)"/>
     <use xlink:href="#DejaVuSans-3" transform="translate(1233.609375 0)"/>
     <use xlink:href="#DejaVuSans-50" transform="translate(1265.390625 0)"/>
     <use xlink:href="#DejaVuSans-44" transform="translate(1362.796875 0)"/>
     <use xlink:href="#DejaVuSans-56" transform="translate(1424.078125 0)"/>
     <use xlink:href="#DejaVuSans-3" transform="translate(1476.171875 0)"/>
     <use xlink:href="#DejaVuSans-4c" transform="translate(1507.953125 0)"/>
     <use xlink:href="#DejaVuSans-52" transform="translate(1535.734375 0)"/>
     <use xlink:href="#DejaVuSans-51" transform="translate(1596.921875 0)"/>
     <use xlink:href="#DejaVuSans-52" transform="translate(1660.296875 0)"/>
     <use xlink:href="#DejaVuSans-56" transform="translate(1721.484375 0)"/>
     <use xlink:href="#DejaVuSans-49" transform="translate(1773.578125 0)"/>
     <use xlink:href="#DejaVuSans-48" transform="translate(1808.78125 0)"/>
     <use xlink:href="#DejaVuSans-55" transform="translate(1870.3125 0)"/>
     <use xlink:href="#DejaVuSans-44" transform="translate(1911.421875 0)"/>
     <use xlink:href="#DejaVuSans-1d" transform="translate(1972.703125 0)"/>
    </g>
    <!-- F(5 grados) ~ 3x el retardo cenital -->
    <g transform="translate(117.192876 36.006328) scale(0.12 -0.12)">
     <defs>
      <path id="DejaVuSans-61" d="M 4684 2553 
L 4684 1997 
Q 4356 1750 4076 1644 
Q 3797 1538 3494 1538 
Q 3150 1538 2694 1722 
Q 2659 1734 2644 1741 
Q 2622 1750 2575 1766 
Q 2091 1959 1797 1959 
Q 1522 1959 1253 1839 
Q 984 1719 678 1459 
L 678 2016 
Q 1006 2263 1286 2370 
Q 1566 2478 1869 2478 
Q 2213 2478 2672 2291 
Q 2703 2278 2719 2272 
Q 2744 2263 2788 2247 
Q 3272 2053 3566 2053 
Q 3834 2053 4098 2172 
Q 4363 2291 4684 2553 
z
" transform="scale(0.015625)"/>
      <path id="DejaVuSans-5b" d="M 3513 3500 
L 2247 1797 
L 3578 0 
L 2900 0 
L 1881 1375 
L 863 0 
L 184 0 
L 1544 1831 
L 300 3500 
L 978 3500 
L 1906 2253 
L 2834 3500 
L 3513 3500 
z
" transform="scale(0.015625)"/>
     </defs>
     <use xlink:href="#DejaVuSans-29"/>
     <use xlink:href="#DejaVuSans-b" transform="translate(57.515625 0)"/>
     <use xlink:href="#DejaVuSans-18" transform="translate(96.53125 0)"/>
     <use xlink:href="#DejaVuSans-3" transform="translate(160.15625 0)"/>
     <use xlink:href="#DejaVuSans-4a" transform="translate(191.9375 0)"/>
     <use xlink:href="#DejaVuSans-55" transform="translate(255.421875 0)"/>
     <use xlink:href="#DejaVuSans-44" transform="translate(296.53125 0)"/>
     <use xlink:href="#DejaVuSans-47" transform="translate(357.8125 0)"/>
     <use xlink:href="#DejaVuSans-52" transform="translate(421.296875 0)"/>
     <use xlink:href="#DejaVuSans-56" transform="translate(482.484375 0)"/>
     <use xlink:href="#DejaVuSans-c" transform="translate(534.578125 0)"/>
     <use xlink:href="#DejaVuSans-3" transform="translate(573.59375 0)"/>
     <use xlink:href="#DejaVuSans-61" transform="translate(605.375 0)"/>
     <use xlink:href="#DejaVuSans-3" transform="translate(689.171875 0)"/>
     <use xlink:href="#DejaVuSans-16" transform="translate(720.953125 0)"/>
     <use xlink:href="#DejaVuSans-5b" transform="translate(784.578125 0)"/>
     <use xlink:href="#DejaVuSans-3" transform="translate(843.765625 0)"/>
     <use xlink:href="#DejaVuSans-48" transform="translate(875.546875 0)"/>
     <use xlink:href="#DejaVuSans-4f" transform="translate(937.078125 0)"/>
     <use xlink:href="#DejaVuSans-3" transform="translate(964.859375 0)"/>
     <use xlink:href="#DejaVuSans-55" transform="translate(996.640625 0)"/>
     <use xlink:href="#DejaVuSans-48" transform="translate(1035.546875 0)"/>
     <use xlink:href="#DejaVuSans-57" transform="translate(1097.078125 0)"/>
     <use xlink:href="#DejaVuSans-44" transform="translate(1136.28125 0)"/>
     <use xlink:href="#DejaVuSans-55" transform="translate(1197.5625 0)"/>
     <use xlink:href="#DejaVuSans-47" transform="translate(1236.921875 0)"/>
     <use xlink:href="#DejaVuSans-52" transform="translate(1300.40625 0)"/>
     <use xlink:href="#DejaVuSans-3" transform="translate(1361.59375 0)"/>
     <use xlink:href="#DejaVuSans-46" transform="translate(1393.375 0)"/>
     <use xlink:href="#DejaVuSans-48" transform="translate(1448.359375 0)"/>
     <use xlink:href="#DejaVuSans-51" transform="translate(1509.890625 0)"/>
     <use xlink:href="#DejaVuSans-4c" transform="translate(1573.265625 0)"/>
     <use xlink:href="#DejaVuSans-57" transform="translate(1601.046875 0)"/>
     <use xlink:href="#DejaVuSans-44" transform="translate(1640.25 0)"/>
     <use xlink:href="#DejaVuSans-4f" transform="translate(1701.53125 0)"/>
    </g>
   </g>
  </g>
  <g id="axes_2">
   <g id="patch_7">
    <path d="M 448.181435 251.074531 
L 781.2 251.074531 
L 781.2 42.006328 
L 448.181435 42.006328 
z
" style="fill: #ffffff"/>
   </g>
   <g id="patch_8">
    <path d="M 463.318642 251.074531 
L 494.369324 251.074531 
L 494.369324 51.961957 
L 463.318642 51.961957 
z
" clip-path="url(#pa1a6343356)" style="fill: #2ca02c"/>
   </g>
   <g id="patch_9">
    <path d="M 502.131995 251.074531 
L 533.182677 251.074531 
L 533.182677 79.213567 
L 502.131995 79.213567 
z
" clip-path="url(#pa1a6343356)" style="fill: #2ca02c"/>
   </g>
   <g id="patch_10">
    <path d="M 540.945347 251.074531 
L 571.996029 251.074531 
L 571.996029 89.762578 
L 540.945347 89.762578 
z
" clip-path="url(#pa1a6343356)" style="fill: #2ca02c"/>
   </g>
   <g id="patch_11">
    <path d="M 579.7587 251.074531 
L 610.809382 251.074531 
L 610.809382 112.179225 
L 579.7587 112.179225 
z
" clip-path="url(#pa1a6343356)" style="fill: #2ca02c"/>
   </g>
   <g id="patch_12">
    <path d="M 618.572053 251.074531 
L 649.622735 251.074531 
L 649.622735 134.156331 
L 618.572053 134.156331 
z
" clip-path="url(#pa1a6343356)" style="fill: #2ca02c"/>
   </g>
   <g id="patch_13">
    <path d="M 657.385405 251.074531 
L 688.436087 251.074531 
L 688.436087 154.375268 
L 657.385405 154.375268 
z
" clip-path="url(#pa1a6343356)" style="fill: #2ca02c"/>
   </g>
   <g id="patch_14">
    <path d="M 696.198758 251.074531 
L 727.24944 251.074531 
L 727.24944 164.924278 
L 696.198758 164.924278 
z
" clip-path="url(#pa1a6343356)" style="fill: #2ca02c"/>
   </g>
   <g id="patch_15">
    <path d="M 735.01211 251.074531 
L 766.062792 251.074531 
L 766.062792 178.110542 
L 735.01211 178.110542 
z
" clip-path="url(#pa1a6343356)" style="fill: #2ca02c"/>
   </g>
   <g id="matplotlib.axis_3">
    <g id="xtick_5">
     <g id="line2d_32">
      <g>
       <use xlink:href="#m0cd7067af1" x="478.843983" y="251.074531" style="stroke: #000000; stroke-width: 0.8"/>
      </g>
     </g>
     <g id="text_21">
      <!-- E26 -->
      <g transform="translate(471.226483 264.953438) scale(0.08 -0.08)">
       <use xlink:href="#DejaVuSans-28"/>
       <use xlink:href="#DejaVuSans-15" transform="translate(63.1875 0)"/>
       <use xlink:href="#DejaVuSans-19" transform="translate(126.8125 0)"/>
      </g>
      <!-- 14 -->
      <g transform="translate(473.753983 274.555) scale(0.08 -0.08)">
       <use xlink:href="#DejaVuSans-14"/>
       <use xlink:href="#DejaVuSans-17" transform="translate(63.625 0)"/>
      </g>
     </g>
    </g>
    <g id="xtick_6">
     <g id="line2d_33">
      <g>
       <use xlink:href="#m0cd7067af1" x="517.657336" y="251.074531" style="stroke: #000000; stroke-width: 0.8"/>
      </g>
     </g>
     <g id="text_22">
      <!-- E21 -->
      <g transform="translate(510.039836 264.953438) scale(0.08 -0.08)">
       <use xlink:href="#DejaVuSans-28"/>
       <use xlink:href="#DejaVuSans-15" transform="translate(63.1875 0)"/>
       <use xlink:href="#DejaVuSans-14" transform="translate(126.8125 0)"/>
      </g>
      <!-- 19 -->
      <g transform="translate(512.567336 274.555) scale(0.08 -0.08)">
       <defs>
        <path id="DejaVuSans-1c" d="M 703 97 
L 703 672 
Q 941 559 1184 500 
Q 1428 441 1663 441 
Q 2288 441 2617 861 
Q 2947 1281 2994 2138 
Q 2813 1869 2534 1725 
Q 2256 1581 1919 1581 
Q 1219 1581 811 2004 
Q 403 2428 403 3163 
Q 403 3881 828 4315 
Q 1253 4750 1959 4750 
Q 2769 4750 3195 4129 
Q 3622 3509 3622 2328 
Q 3622 1225 3098 567 
Q 2575 -91 1691 -91 
Q 1453 -91 1209 -44 
Q 966 3 703 97 
z
M 1959 2075 
Q 2384 2075 2632 2365 
Q 2881 2656 2881 3163 
Q 2881 3666 2632 3958 
Q 2384 4250 1959 4250 
Q 1534 4250 1286 3958 
Q 1038 3666 1038 3163 
Q 1038 2656 1286 2365 
Q 1534 2075 1959 2075 
z
" transform="scale(0.015625)"/>
       </defs>
       <use xlink:href="#DejaVuSans-14"/>
       <use xlink:href="#DejaVuSans-1c" transform="translate(63.625 0)"/>
      </g>
     </g>
    </g>
    <g id="xtick_7">
     <g id="line2d_34">
      <g>
       <use xlink:href="#m0cd7067af1" x="556.470688" y="251.074531" style="stroke: #000000; stroke-width: 0.8"/>
      </g>
     </g>
     <g id="text_23">
      <!-- E19 -->
      <g transform="translate(548.853188 264.953438) scale(0.08 -0.08)">
       <use xlink:href="#DejaVuSans-28"/>
       <use xlink:href="#DejaVuSans-14" transform="translate(63.1875 0)"/>
       <use xlink:href="#DejaVuSans-1c" transform="translate(126.8125 0)"/>
      </g>
      <!-- 21 -->
      <g transform="translate(551.380688 274.555) scale(0.08 -0.08)">
       <use xlink:href="#DejaVuSans-15"/>
       <use xlink:href="#DejaVuSans-14" transform="translate(63.625 0)"/>
      </g>
     </g>
    </g>
    <g id="xtick_8">
     <g id="line2d_35">
      <g>
       <use xlink:href="#m0cd7067af1" x="595.284041" y="251.074531" style="stroke: #000000; stroke-width: 0.8"/>
      </g>
     </g>
     <g id="text_24">
      <!-- E33 -->
      <g transform="translate(587.666541 264.953438) scale(0.08 -0.08)">
       <use xlink:href="#DejaVuSans-28"/>
       <use xlink:href="#DejaVuSans-16" transform="translate(63.1875 0)"/>
       <use xlink:href="#DejaVuSans-16" transform="translate(126.8125 0)"/>
      </g>
      <!-- 27 -->
      <g transform="translate(590.194041 274.555) scale(0.08 -0.08)">
       <use xlink:href="#DejaVuSans-15"/>
       <use xlink:href="#DejaVuSans-1a" transform="translate(63.625 0)"/>
      </g>
     </g>
    </g>
    <g id="xtick_9">
     <g id="line2d_36">
      <g>
       <use xlink:href="#m0cd7067af1" x="634.097394" y="251.074531" style="stroke: #000000; stroke-width: 0.8"/>
      </g>
     </g>
     <g id="text_25">
      <!-- E30 -->
      <g transform="translate(626.479894 264.953438) scale(0.08 -0.08)">
       <use xlink:href="#DejaVuSans-28"/>
       <use xlink:href="#DejaVuSans-16" transform="translate(63.1875 0)"/>
       <use xlink:href="#DejaVuSans-13" transform="translate(126.8125 0)"/>
      </g>
      <!-- 34 -->
      <g transform="translate(629.007394 274.555) scale(0.08 -0.08)">
       <use xlink:href="#DejaVuSans-16"/>
       <use xlink:href="#DejaVuSans-17" transform="translate(63.625 0)"/>
      </g>
     </g>
    </g>
    <g id="xtick_10">
     <g id="line2d_37">
      <g>
       <use xlink:href="#m0cd7067af1" x="672.910746" y="251.074531" style="stroke: #000000; stroke-width: 0.8"/>
      </g>
     </g>
     <g id="text_26">
      <!-- E07 -->
      <g transform="translate(665.293246 264.953438) scale(0.08 -0.08)">
       <use xlink:href="#DejaVuSans-28"/>
       <use xlink:href="#DejaVuSans-13" transform="translate(63.1875 0)"/>
       <use xlink:href="#DejaVuSans-1a" transform="translate(126.8125 0)"/>
      </g>
      <!-- 44 -->
      <g transform="translate(667.820746 274.555) scale(0.08 -0.08)">
       <use xlink:href="#DejaVuSans-17"/>
       <use xlink:href="#DejaVuSans-17" transform="translate(63.625 0)"/>
      </g>
     </g>
    </g>
    <g id="xtick_11">
     <g id="line2d_38">
      <g>
       <use xlink:href="#m0cd7067af1" x="711.724099" y="251.074531" style="stroke: #000000; stroke-width: 0.8"/>
      </g>
     </g>
     <g id="text_27">
      <!-- E27 -->
      <g transform="translate(704.106599 264.953438) scale(0.08 -0.08)">
       <use xlink:href="#DejaVuSans-28"/>
       <use xlink:href="#DejaVuSans-15" transform="translate(63.1875 0)"/>
       <use xlink:href="#DejaVuSans-1a" transform="translate(126.8125 0)"/>
      </g>
      <!-- 50 -->
      <g transform="translate(706.634099 274.555) scale(0.08 -0.08)">
       <use xlink:href="#DejaVuSans-18"/>
       <use xlink:href="#DejaVuSans-13" transform="translate(63.625 0)"/>
      </g>
     </g>
    </g>
    <g id="xtick_12">
     <g id="line2d_39">
      <g>
       <use xlink:href="#m0cd7067af1" x="750.537451" y="251.074531" style="stroke: #000000; stroke-width: 0.8"/>
      </g>
     </g>
     <g id="text_28">
      <!-- E29 -->
      <g transform="translate(742.919951 264.953438) scale(0.08 -0.08)">
       <use xlink:href="#DejaVuSans-28"/>
       <use xlink:href="#DejaVuSans-15" transform="translate(63.1875 0)"/>
       <use xlink:href="#DejaVuSans-1c" transform="translate(126.8125 0)"/>
      </g>
      <!-- 62 -->
      <g transform="translate(745.447451 274.555) scale(0.08 -0.08)">
       <use xlink:href="#DejaVuSans-19"/>
       <use xlink:href="#DejaVuSans-15" transform="translate(63.625 0)"/>
      </g>
     </g>
    </g>
    <g id="text_29">
     <!-- satelite (elevacion en grados) -->
     <g transform="translate(540.19228 288.876094) scale(0.1 -0.1)">
      <use xlink:href="#DejaVuSans-56"/>
      <use xlink:href="#DejaVuSans-44" transform="translate(52.09375 0)"/>
      <use xlink:href="#DejaVuSans-57" transform="translate(113.375 0)"/>
      <use xlink:href="#DejaVuSans-48" transform="translate(152.578125 0)"/>
      <use xlink:href="#DejaVuSans-4f" transform="translate(214.109375 0)"/>
      <use xlink:href="#DejaVuSans-4c" transform="translate(241.890625 0)"/>
      <use xlink:href="#DejaVuSans-57" transform="translate(269.671875 0)"/>
      <use xlink:href="#DejaVuSans-48" transform="translate(308.875 0)"/>
      <use xlink:href="#DejaVuSans-3" transform="translate(370.40625 0)"/>
      <use xlink:href="#DejaVuSans-b" transform="translate(402.1875 0)"/>
      <use xlink:href="#DejaVuSans-48" transform="translate(441.203125 0)"/>
      <use xlink:href="#DejaVuSans-4f" transform="translate(502.734375 0)"/>
      <use xlink:href="#DejaVuSans-48" transform="translate(530.515625 0)"/>
      <use xlink:href="#DejaVuSans-59" transform="translate(592.046875 0)"/>
      <use xlink:href="#DejaVuSans-44" transform="translate(651.234375 0)"/>
      <use xlink:href="#DejaVuSans-46" transform="translate(712.515625 0)"/>
      <use xlink:href="#DejaVuSans-4c" transform="translate(767.5 0)"/>
      <use xlink:href="#DejaVuSans-52" transform="translate(795.28125 0)"/>
      <use xlink:href="#DejaVuSans-51" transform="translate(856.46875 0)"/>
      <use xlink:href="#DejaVuSans-3" transform="translate(919.84375 0)"/>
      <use xlink:href="#DejaVuSans-48" transform="translate(951.625 0)"/>
      <use xlink:href="#DejaVuSans-51" transform="translate(1013.15625 0)"/>
      <use xlink:href="#DejaVuSans-3" transform="translate(1076.53125 0)"/>
      <use xlink:href="#DejaVuSans-4a" transform="translate(1108.3125 0)"/>
      <use xlink:href="#DejaVuSans-55" transform="translate(1171.796875 0)"/>
      <use xlink:href="#DejaVuSans-44" transform="translate(1212.90625 0)"/>
      <use xlink:href="#DejaVuSans-47" transform="translate(1274.1875 0)"/>
      <use xlink:href="#DejaVuSans-52" transform="translate(1337.671875 0)"/>
      <use xlink:href="#DejaVuSans-56" transform="translate(1398.859375 0)"/>
      <use xlink:href="#DejaVuSans-c" transform="translate(1450.953125 0)"/>
     </g>
    </g>
   </g>
   <g id="matplotlib.axis_4">
    <g id="ytick_10">
     <g id="line2d_40">
      <path d="M 448.181435 251.074531 
L 781.2 251.074531 
" clip-path="url(#pa1a6343356)" style="fill: none; stroke: #b0b0b0; stroke-opacity: 0.3; stroke-width: 0.8; stroke-linecap: square"/>
     </g>
     <g id="line2d_41">
      <g>
       <use xlink:href="#m53677be3b6" x="448.181435" y="251.074531" style="stroke: #000000; stroke-width: 0.8"/>
      </g>
     </g>
     <g id="text_30">
      <!-- 0 -->
      <g transform="translate(434.818935 254.873359) scale(0.1 -0.1)">
       <use xlink:href="#DejaVuSans-13"/>
      </g>
     </g>
    </g>
    <g id="ytick_11">
     <g id="line2d_42">
      <path d="M 448.181435 207.120321 
L 781.2 207.120321 
" clip-path="url(#pa1a6343356)" style="fill: none; stroke: #b0b0b0; stroke-opacity: 0.3; stroke-width: 0.8; stroke-linecap: square"/>
     </g>
     <g id="line2d_43">
      <g>
       <use xlink:href="#m53677be3b6" x="448.181435" y="207.120321" style="stroke: #000000; stroke-width: 0.8"/>
      </g>
     </g>
     <g id="text_31">
      <!-- 1 -->
      <g transform="translate(434.818935 210.919149) scale(0.1 -0.1)">
       <use xlink:href="#DejaVuSans-14"/>
      </g>
     </g>
    </g>
    <g id="ytick_12">
     <g id="line2d_44">
      <path d="M 448.181435 163.16611 
L 781.2 163.16611 
" clip-path="url(#pa1a6343356)" style="fill: none; stroke: #b0b0b0; stroke-opacity: 0.3; stroke-width: 0.8; stroke-linecap: square"/>
     </g>
     <g id="line2d_45">
      <g>
       <use xlink:href="#m53677be3b6" x="448.181435" y="163.16611" style="stroke: #000000; stroke-width: 0.8"/>
      </g>
     </g>
     <g id="text_32">
      <!-- 2 -->
      <g transform="translate(434.818935 166.964938) scale(0.1 -0.1)">
       <use xlink:href="#DejaVuSans-15"/>
      </g>
     </g>
    </g>
    <g id="ytick_13">
     <g id="line2d_46">
      <path d="M 448.181435 119.211899 
L 781.2 119.211899 
" clip-path="url(#pa1a6343356)" style="fill: none; stroke: #b0b0b0; stroke-opacity: 0.3; stroke-width: 0.8; stroke-linecap: square"/>
     </g>
     <g id="line2d_47">
      <g>
       <use xlink:href="#m53677be3b6" x="448.181435" y="119.211899" style="stroke: #000000; stroke-width: 0.8"/>
      </g>
     </g>
     <g id="text_33">
      <!-- 3 -->
      <g transform="translate(434.818935 123.010727) scale(0.1 -0.1)">
       <use xlink:href="#DejaVuSans-16"/>
      </g>
     </g>
    </g>
    <g id="ytick_14">
     <g id="line2d_48">
      <path d="M 448.181435 75.257689 
L 781.2 75.257689 
" clip-path="url(#pa1a6343356)" style="fill: none; stroke: #b0b0b0; stroke-opacity: 0.3; stroke-width: 0.8; stroke-linecap: square"/>
     </g>
     <g id="line2d_49">
      <g>
       <use xlink:href="#m53677be3b6" x="448.181435" y="75.257689" style="stroke: #000000; stroke-width: 0.8"/>
      </g>
     </g>
     <g id="text_34">
      <!-- 4 -->
      <g transform="translate(434.818935 79.056517) scale(0.1 -0.1)">
       <use xlink:href="#DejaVuSans-17"/>
      </g>
     </g>
    </g>
    <g id="text_35">
     <!-- retardo iono estimado (m) -->
     <g transform="translate(428.416591 212.202148) rotate(-90) scale(0.1 -0.1)">
      <use xlink:href="#DejaVuSans-55"/>
      <use xlink:href="#DejaVuSans-48" transform="translate(38.90625 0)"/>
      <use xlink:href="#DejaVuSans-57" transform="translate(100.4375 0)"/>
      <use xlink:href="#DejaVuSans-44" transform="translate(139.640625 0)"/>
      <use xlink:href="#DejaVuSans-55" transform="translate(200.921875 0)"/>
      <use xlink:href="#DejaVuSans-47" transform="translate(240.28125 0)"/>
      <use xlink:href="#DejaVuSans-52" transform="translate(303.765625 0)"/>
      <use xlink:href="#DejaVuSans-3" transform="translate(364.953125 0)"/>
      <use xlink:href="#DejaVuSans-4c" transform="translate(396.734375 0)"/>
      <use xlink:href="#DejaVuSans-52" transform="translate(424.515625 0)"/>
      <use xlink:href="#DejaVuSans-51" transform="translate(485.703125 0)"/>
      <use xlink:href="#DejaVuSans-52" transform="translate(549.078125 0)"/>
      <use xlink:href="#DejaVuSans-3" transform="translate(610.265625 0)"/>
      <use xlink:href="#DejaVuSans-48" transform="translate(642.046875 0)"/>
      <use xlink:href="#DejaVuSans-56" transform="translate(703.578125 0)"/>
      <use xlink:href="#DejaVuSans-57" transform="translate(755.671875 0)"/>
      <use xlink:href="#DejaVuSans-4c" transform="translate(794.875 0)"/>
      <use xlink:href="#DejaVuSans-50" transform="translate(822.65625 0)"/>
      <use xlink:href="#DejaVuSans-44" transform="translate(920.0625 0)"/>
      <use xlink:href="#DejaVuSans-47" transform="translate(981.34375 0)"/>
      <use xlink:href="#DejaVuSans-52" transform="translate(1044.828125 0)"/>
      <use xlink:href="#DejaVuSans-3" transform="translate(1106.015625 0)"/>
      <use xlink:href="#DejaVuSans-b" transform="translate(1137.796875 0)"/>
      <use xlink:href="#DejaVuSans-50" transform="translate(1176.8125 0)"/>
      <use xlink:href="#DejaVuSans-c" transform="translate(1274.21875 0)"/>
     </g>
    </g>
   </g>
   <g id="patch_16">
    <path d="M 448.181435 251.074531 
L 448.181435 42.006328 
" style="fill: none; stroke: #000000; stroke-width: 0.8; stroke-linejoin: miter; stroke-linecap: square"/>
   </g>
   <g id="patch_17">
    <path d="M 781.2 251.074531 
L 781.2 42.006328 
" style="fill: none; stroke: #000000; stroke-width: 0.8; stroke-linejoin: miter; stroke-linecap: square"/>
   </g>
   <g id="patch_18">
    <path d="M 448.181435 251.074531 
L 781.2 251.074531 
" style="fill: none; stroke: #000000; stroke-width: 0.8; stroke-linejoin: miter; stroke-linecap: square"/>
   </g>
   <g id="patch_19">
    <path d="M 448.181435 42.006328 
L 781.2 42.006328 
" style="fill: none; stroke: #000000; stroke-width: 0.8; stroke-linejoin: miter; stroke-linecap: square"/>
   </g>
   <g id="text_36">
    <!-- 4.5 -->
    <g transform="translate(472.482733 50.040082) scale(0.08 -0.08)">
     <use xlink:href="#DejaVuSans-17"/>
     <use xlink:href="#DejaVuSans-11" transform="translate(63.625 0)"/>
     <use xlink:href="#DejaVuSans-18" transform="translate(95.40625 0)"/>
    </g>
   </g>
   <g id="text_37">
    <!-- 3.9 -->
    <g transform="translate(511.296086 77.291692) scale(0.08 -0.08)">
     <use xlink:href="#DejaVuSans-16"/>
     <use xlink:href="#DejaVuSans-11" transform="translate(63.625 0)"/>
     <use xlink:href="#DejaVuSans-1c" transform="translate(95.40625 0)"/>
    </g>
   </g>
   <g id="text_38">
    <!-- 3.7 -->
    <g transform="translate(550.109438 87.840703) scale(0.08 -0.08)">
     <use xlink:href="#DejaVuSans-16"/>
     <use xlink:href="#DejaVuSans-11" transform="translate(63.625 0)"/>
     <use xlink:href="#DejaVuSans-1a" transform="translate(95.40625 0)"/>
    </g>
   </g>
   <g id="text_39">
    <!-- 3.2 -->
    <g transform="translate(588.922791 110.25735) scale(0.08 -0.08)">
     <use xlink:href="#DejaVuSans-16"/>
     <use xlink:href="#DejaVuSans-11" transform="translate(63.625 0)"/>
     <use xlink:href="#DejaVuSans-15" transform="translate(95.40625 0)"/>
    </g>
   </g>
   <g id="text_40">
    <!-- 2.7 -->
    <g transform="translate(627.736144 132.234456) scale(0.08 -0.08)">
     <use xlink:href="#DejaVuSans-15"/>
     <use xlink:href="#DejaVuSans-11" transform="translate(63.625 0)"/>
     <use xlink:href="#DejaVuSans-1a" transform="translate(95.40625 0)"/>
    </g>
   </g>
   <g id="text_41">
    <!-- 2.2 -->
    <g transform="translate(666.549496 152.453393) scale(0.08 -0.08)">
     <use xlink:href="#DejaVuSans-15"/>
     <use xlink:href="#DejaVuSans-11" transform="translate(63.625 0)"/>
     <use xlink:href="#DejaVuSans-15" transform="translate(95.40625 0)"/>
    </g>
   </g>
   <g id="text_42">
    <!-- 2.0 -->
    <g transform="translate(705.362849 163.002403) scale(0.08 -0.08)">
     <use xlink:href="#DejaVuSans-15"/>
     <use xlink:href="#DejaVuSans-11" transform="translate(63.625 0)"/>
     <use xlink:href="#DejaVuSans-13" transform="translate(95.40625 0)"/>
    </g>
   </g>
   <g id="text_43">
    <!-- 1.7 -->
    <g transform="translate(744.176201 176.188667) scale(0.08 -0.08)">
     <use xlink:href="#DejaVuSans-14"/>
     <use xlink:href="#DejaVuSans-11" transform="translate(63.625 0)"/>
     <use xlink:href="#DejaVuSans-1a" transform="translate(95.40625 0)"/>
    </g>
   </g>
   <g id="text_44">
    <!-- Los 8 Galileo de la clase 1.5 (12:00 UTC): -->
    <g transform="translate(491.158217 21.603047) scale(0.12 -0.12)">
     <defs>
      <path id="DejaVuSans-2f" d="M 628 4666 
L 1259 4666 
L 1259 531 
L 3531 531 
L 3531 0 
L 628 0 
L 628 4666 
z
" transform="scale(0.015625)"/>
      <path id="DejaVuSans-2a" d="M 3809 666 
L 3809 1919 
L 2778 1919 
L 2778 2438 
L 4434 2438 
L 4434 434 
Q 4069 175 3628 42 
Q 3188 -91 2688 -91 
Q 1594 -91 976 548 
Q 359 1188 359 2328 
Q 359 3472 976 4111 
Q 1594 4750 2688 4750 
Q 3144 4750 3555 4637 
Q 3966 4525 4313 4306 
L 4313 3634 
Q 3963 3931 3569 4081 
Q 3175 4231 2741 4231 
Q 1884 4231 1454 3753 
Q 1025 3275 1025 2328 
Q 1025 1384 1454 906 
Q 1884 428 2741 428 
Q 3075 428 3337 486 
Q 3600 544 3809 666 
z
" transform="scale(0.015625)"/>
      <path id="DejaVuSans-38" d="M 556 4666 
L 1191 4666 
L 1191 1831 
Q 1191 1081 1462 751 
Q 1734 422 2344 422 
Q 2950 422 3222 751 
Q 3494 1081 3494 1831 
L 3494 4666 
L 4128 4666 
L 4128 1753 
Q 4128 841 3676 375 
Q 3225 -91 2344 -91 
Q 1459 -91 1007 375 
Q 556 841 556 1753 
L 556 4666 
z
" transform="scale(0.015625)"/>
      <path id="DejaVuSans-37" d="M -19 4666 
L 3928 4666 
L 3928 4134 
L 2272 4134 
L 2272 0 
L 1638 0 
L 1638 4134 
L -19 4134 
L -19 4666 
z
" transform="scale(0.015625)"/>
      <path id="DejaVuSans-26" d="M 4122 4306 
L 4122 3641 
Q 3803 3938 3442 4084 
Q 3081 4231 2675 4231 
Q 1875 4231 1450 3742 
Q 1025 3253 1025 2328 
Q 1025 1406 1450 917 
Q 1875 428 2675 428 
Q 3081 428 3442 575 
Q 3803 722 4122 1019 
L 4122 359 
Q 3791 134 3420 21 
Q 3050 -91 2638 -91 
Q 1578 -91 968 557 
Q 359 1206 359 2328 
Q 359 3453 968 4101 
Q 1578 4750 2638 4750 
Q 3056 4750 3426 4639 
Q 3797 4528 4122 4306 
z
" transform="scale(0.015625)"/>
     </defs>
     <use xlink:href="#DejaVuSans-2f"/>
     <use xlink:href="#DejaVuSans-52" transform="translate(53.96875 0)"/>
     <use xlink:href="#DejaVuSans-56" transform="translate(115.15625 0)"/>
     <use xlink:href="#DejaVuSans-3" transform="translate(167.25 0)"/>
     <use xlink:href="#DejaVuSans-1b" transform="translate(199.03125 0)"/>
     <use xlink:href="#DejaVuSans-3" transform="translate(262.65625 0)"/>
     <use xlink:href="#DejaVuSans-2a" transform="translate(294.4375 0)"/>
     <use xlink:href="#DejaVuSans-44" transform="translate(371.921875 0)"/>
     <use xlink:href="#DejaVuSans-4f" transform="translate(433.203125 0)"/>
     <use xlink:href="#DejaVuSans-4c" transform="translate(460.984375 0)"/>
     <use xlink:href="#DejaVuSans-4f" transform="translate(488.765625 0)"/>
     <use xlink:href="#DejaVuSans-48" transform="translate(516.546875 0)"/>
     <use xlink:href="#DejaVuSans-52" transform="translate(578.078125 0)"/>
     <use xlink:href="#DejaVuSans-3" transform="translate(639.265625 0)"/>
     <use xlink:href="#DejaVuSans-47" transform="translate(671.046875 0)"/>
     <use xlink:href="#DejaVuSans-48" transform="translate(734.53125 0)"/>
     <use xlink:href="#DejaVuSans-3" transform="translate(796.0625 0)"/>
     <use xlink:href="#DejaVuSans-4f" transform="translate(827.84375 0)"/>
     <use xlink:href="#DejaVuSans-44" transform="translate(855.625 0)"/>
     <use xlink:href="#DejaVuSans-3" transform="translate(916.90625 0)"/>
     <use xlink:href="#DejaVuSans-46" transform="translate(948.6875 0)"/>
     <use xlink:href="#DejaVuSans-4f" transform="translate(1003.671875 0)"/>
     <use xlink:href="#DejaVuSans-44" transform="translate(1031.453125 0)"/>
     <use xlink:href="#DejaVuSans-56" transform="translate(1092.734375 0)"/>
     <use xlink:href="#DejaVuSans-48" transform="translate(1144.828125 0)"/>
     <use xlink:href="#DejaVuSans-3" transform="translate(1206.359375 0)"/>
     <use xlink:href="#DejaVuSans-14" transform="translate(1238.140625 0)"/>
     <use xlink:href="#DejaVuSans-11" transform="translate(1301.765625 0)"/>
     <use xlink:href="#DejaVuSans-18" transform="translate(1333.546875 0)"/>
     <use xlink:href="#DejaVuSans-3" transform="translate(1397.171875 0)"/>
     <use xlink:href="#DejaVuSans-b" transform="translate(1428.953125 0)"/>
     <use xlink:href="#DejaVuSans-14" transform="translate(1467.96875 0)"/>
     <use xlink:href="#DejaVuSans-15" transform="translate(1531.59375 0)"/>
     <use xlink:href="#DejaVuSans-1d" transform="translate(1595.21875 0)"/>
     <use xlink:href="#DejaVuSans-13" transform="translate(1628.90625 0)"/>
     <use xlink:href="#DejaVuSans-13" transform="translate(1692.53125 0)"/>
     <use xlink:href="#DejaVuSans-3" transform="translate(1756.15625 0)"/>
     <use xlink:href="#DejaVuSans-38" transform="translate(1787.9375 0)"/>
     <use xlink:href="#DejaVuSans-37" transform="translate(1861.125 0)"/>
     <use xlink:href="#DejaVuSans-26" transform="translate(1916.34375 0)"/>
     <use xlink:href="#DejaVuSans-c" transform="translate(1986.171875 0)"/>
     <use xlink:href="#DejaVuSans-1d" transform="translate(2025.1875 0)"/>
    </g>
    <!-- lo que iono-free elimino por construccion -->
    <g transform="translate(491.380405 36.006328) scale(0.12 -0.12)">
     <defs>
      <path id="DejaVuSans-54" d="M 947 1747 
Q 947 1113 1208 752 
Q 1469 391 1925 391 
Q 2381 391 2643 752 
Q 2906 1113 2906 1747 
Q 2906 2381 2643 2742 
Q 2381 3103 1925 3103 
Q 1469 3103 1208 2742 
Q 947 2381 947 1747 
z
M 2906 525 
Q 2725 213 2448 61 
Q 2172 -91 1784 -91 
Q 1150 -91 751 415 
Q 353 922 353 1747 
Q 353 2572 751 3078 
Q 1150 3584 1784 3584 
Q 2172 3584 2448 3432 
Q 2725 3281 2906 2969 
L 2906 3500 
L 3481 3500 
L 3481 -1331 
L 2906 -1331 
L 2906 525 
z
" transform="scale(0.015625)"/>
      <path id="DejaVuSans-10" d="M 313 2009 
L 1997 2009 
L 1997 1497 
L 313 1497 
L 313 2009 
z
" transform="scale(0.015625)"/>
      <path id="DejaVuSans-53" d="M 1159 525 
L 1159 -1331 
L 581 -1331 
L 581 3500 
L 1159 3500 
L 1159 2969 
Q 1341 3281 1617 3432 
Q 1894 3584 2278 3584 
Q 2916 3584 3314 3078 
Q 3713 2572 3713 1747 
Q 3713 922 3314 415 
Q 2916 -91 2278 -91 
Q 1894 -91 1617 61 
Q 1341 213 1159 525 
z
M 3116 1747 
Q 3116 2381 2855 2742 
Q 2594 3103 2138 3103 
Q 1681 3103 1420 2742 
Q 1159 2381 1159 1747 
Q 1159 1113 1420 752 
Q 1681 391 2138 391 
Q 2594 391 2855 752 
Q 3116 1113 3116 1747 
z
" transform="scale(0.015625)"/>
     </defs>
     <use xlink:href="#DejaVuSans-4f"/>
     <use xlink:href="#DejaVuSans-52" transform="translate(27.78125 0)"/>
     <use xlink:href="#DejaVuSans-3" transform="translate(88.96875 0)"/>
     <use xlink:href="#DejaVuSans-54" transform="translate(120.75 0)"/>
     <use xlink:href="#DejaVuSans-58" transform="translate(184.234375 0)"/>
     <use xlink:href="#DejaVuSans-48" transform="translate(247.609375 0)"/>
     <use xlink:href="#DejaVuSans-3" transform="translate(309.140625 0)"/>
     <use xlink:href="#DejaVuSans-4c" transform="translate(340.921875 0)"/>
     <use xlink:href="#DejaVuSans-52" transform="translate(368.703125 0)"/>
     <use xlink:href="#DejaVuSans-51" transform="translate(429.890625 0)"/>
     <use xlink:href="#DejaVuSans-52" transform="translate(493.265625 0)"/>
     <use xlink:href="#DejaVuSans-10" transform="translate(556.3125 0)"/>
     <use xlink:href="#DejaVuSans-49" transform="translate(592.390625 0)"/>
     <use xlink:href="#DejaVuSans-55" transform="translate(627.59375 0)"/>
     <use xlink:href="#DejaVuSans-48" transform="translate(666.5 0)"/>
     <use xlink:href="#DejaVuSans-48" transform="translate(728.03125 0)"/>
     <use xlink:href="#DejaVuSans-3" transform="translate(789.5625 0)"/>
     <use xlink:href="#DejaVuSans-48" transform="translate(821.34375 0)"/>
     <use xlink:href="#DejaVuSans-4f" transform="translate(882.875 0)"/>
     <use xlink:href="#DejaVuSans-4c" transform="translate(910.65625 0)"/>
     <use xlink:href="#DejaVuSans-50" transform="translate(938.4375 0)"/>
     <use xlink:href="#DejaVuSans-4c" transform="translate(1035.84375 0)"/>
     <use xlink:href="#DejaVuSans-51" transform="translate(1063.625 0)"/>
     <use xlink:href="#DejaVuSans-52" transform="translate(1127 0)"/>
     <use xlink:href="#DejaVuSans-3" transform="translate(1188.1875 0)"/>
     <use xlink:href="#DejaVuSans-53" transform="translate(1219.96875 0)"/>
     <use xlink:href="#DejaVuSans-52" transform="translate(1283.453125 0)"/>
     <use xlink:href="#DejaVuSans-55" transform="translate(1344.640625 0)"/>
     <use xlink:href="#DejaVuSans-3" transform="translate(1385.75 0)"/>
     <use xlink:href="#DejaVuSans-46" transform="translate(1417.53125 0)"/>
     <use xlink:href="#DejaVuSans-52" transform="translate(1472.515625 0)"/>
     <use xlink:href="#DejaVuSans-51" transform="translate(1533.703125 0)"/>
     <use xlink:href="#DejaVuSans-56" transform="translate(1597.078125 0)"/>
     <use xlink:href="#DejaVuSans-57" transform="translate(1649.171875 0)"/>
     <use xlink:href="#DejaVuSans-55" transform="translate(1688.375 0)"/>
     <use xlink:href="#DejaVuSans-58" transform="translate(1729.484375 0)"/>
     <use xlink:href="#DejaVuSans-46" transform="translate(1792.859375 0)"/>
     <use xlink:href="#DejaVuSans-46" transform="translate(1847.84375 0)"/>
     <use xlink:href="#DejaVuSans-4c" transform="translate(1902.828125 0)"/>
     <use xlink:href="#DejaVuSans-52" transform="translate(1930.609375 0)"/>
     <use xlink:href="#DejaVuSans-51" transform="translate(1991.796875 0)"/>
    </g>
   </g>
  </g>
 </g>
 <defs>
  <clipPath id="p39e4e3d337">
   <rect x="54.442344" y="42.006328" width="333.018565" height="209.068203"/>
  </clipPath>
  <clipPath id="pa1a6343356">
   <rect x="448.181435" y="42.006328" width="333.018565" height="209.068203"/>
  </clipPath>
 </defs>
</svg>
