<?xml version="1.0" encoding="utf-8" standalone="no"?>
<!DOCTYPE svg PUBLIC "-//W3C//DTD SVG 1.1//EN"
  "http://www.w3.org/Graphics/SVG/1.1/DTD/svg11.dtd">
<svg xmlns:xlink="http://www.w3.org/1999/xlink" width="792pt" height="432pt" viewBox="0 0 792 432" xmlns="http://www.w3.org/2000/svg" version="1.1">
 <metadata>
  <rdf:RDF xmlns:dc="http://purl.org/dc/elements/1.1/" xmlns:cc="http://creativecommons.org/ns#" xmlns:rdf="http://www.w3.org/1999/02/22-rdf-syntax-ns#">
   <cc:Work>
    <dc:type rdf:resource="http://purl.org/dc/dcmitype/StillImage"/>
    <dc:date>2026-07-05T22:17:05.843431</dc:date>
    <dc:format>image/svg+xml</dc:format>
    <dc:creator>
     <cc:Agent>
      <dc:title>Matplotlib v3.11.0, https://matplotlib.org/</dc:title>
     </cc:Agent>
    </dc:creator>
   </cc:Work>
  </rdf:RDF>
 </metadata>
 <defs>
  <style type="text/css">*{stroke-linejoin: round; stroke-linecap: butt}</style>
 </defs>
 <g id="figure_1">
  <g id="patch_1">
   <path d="M 0 432 
L 792 432 
L 792 0 
L 0 0 
z
" style="fill: #ffffff"/>
  </g>
  <g id="axes_1">
   <g id="patch_2">
    <path d="M 60.202344 207.771648 
L 746.917656 207.771648 
L 746.917656 42.006328 
L 60.202344 42.006328 
z
" style="fill: #ffffff"/>
   </g>
   <g id="matplotlib.axis_1">
    <g id="xtick_1">
     <g id="line2d_1">
      <path d="M 91.416676 207.771648 
L 91.416676 42.006328 
" clip-path="url(#p3b77186b10)" style="fill: none; stroke: #b0b0b0; stroke-opacity: 0.3; stroke-width: 0.8; stroke-linecap: square"/>
     </g>
     <g id="line2d_2">
      <defs>
       <path id="m1a6b7f5a44" d="M 0 0 
L 0 3.5 
" style="stroke: #000000; stroke-width: 0.8"/>
      </defs>
      <g>
       <use xlink:href="#m1a6b7f5a44" x="91.416676" y="207.771648" style="stroke: #000000; stroke-width: 0.8"/>
      </g>
     </g>
    </g>
    <g id="xtick_2">
     <g id="line2d_3">
      <path d="M 230.147042 207.771648 
L 230.147042 42.006328 
" clip-path="url(#p3b77186b10)" style="fill: none; stroke: #b0b0b0; stroke-opacity: 0.3; stroke-width: 0.8; stroke-linecap: square"/>
     </g>
     <g id="line2d_4">
      <g>
       <use xlink:href="#m1a6b7f5a44" x="230.147042" y="207.771648" style="stroke: #000000; stroke-width: 0.8"/>
      </g>
     </g>
    </g>
    <g id="xtick_3">
     <g id="line2d_5">
      <path d="M 368.877408 207.771648 
L 368.877408 42.006328 
" clip-path="url(#p3b77186b10)" style="fill: none; stroke: #b0b0b0; stroke-opacity: 0.3; stroke-width: 0.8; stroke-linecap: square"/>
     </g>
     <g id="line2d_6">
      <g>
       <use xlink:href="#m1a6b7f5a44" x="368.877408" y="207.771648" style="stroke: #000000; stroke-width: 0.8"/>
      </g>
     </g>
    </g>
    <g id="xtick_4">
     <g id="line2d_7">
      <path d="M 507.607775 207.771648 
L 507.607775 42.006328 
" clip-path="url(#p3b77186b10)" style="fill: none; stroke: #b0b0b0; stroke-opacity: 0.3; stroke-width: 0.8; stroke-linecap: square"/>
     </g>
     <g id="line2d_8">
      <g>
       <use xlink:href="#m1a6b7f5a44" x="507.607775" y="207.771648" style="stroke: #000000; stroke-width: 0.8"/>
      </g>
     </g>
    </g>
    <g id="xtick_5">
     <g id="line2d_9">
      <path d="M 646.338141 207.771648 
L 646.338141 42.006328 
" clip-path="url(#p3b77186b10)" style="fill: none; stroke: #b0b0b0; stroke-opacity: 0.3; stroke-width: 0.8; stroke-linecap: square"/>
     </g>
     <g id="line2d_10">
      <g>
       <use xlink:href="#m1a6b7f5a44" x="646.338141" y="207.771648" style="stroke: #000000; stroke-width: 0.8"/>
      </g>
     </g>
    </g>
   </g>
   <g id="matplotlib.axis_2">
    <g id="ytick_1">
     <g id="line2d_11">
      <path d="M 60.202344 200.236861 
L 746.917656 200.236861 
" clip-path="url(#p3b77186b10)" style="fill: none; stroke: #b0b0b0; stroke-opacity: 0.3; stroke-width: 0.8; stroke-linecap: square"/>
     </g>
     <g id="line2d_12">
      <defs>
       <path id="m6cfe27720e" d="M 0 0 
L -3.5 0 
" style="stroke: #000000; stroke-width: 0.8"/>
      </defs>
      <g>
       <use xlink:href="#m6cfe27720e" x="60.202344" y="200.236861" style="stroke: #000000; stroke-width: 0.8"/>
      </g>
     </g>
     <g id="text_1">
      <!-- −100 -->
      <g transform="translate(25.735156 204.035689) scale(0.1 -0.1)">
       <defs>
        <path id="DejaVuSans-c9c" d="M 678 2272 
L 4684 2272 
L 4684 1741 
L 678 1741 
L 678 2272 
z
" transform="scale(0.015625)"/>
        <path id="DejaVuSans-14" d="M 794 531 
L 1825 531 
L 1825 4091 
L 703 3866 
L 703 4441 
L 1819 4666 
L 2450 4666 
L 2450 531 
L 3481 531 
L 3481 0 
L 794 0 
L 794 531 
z
" transform="scale(0.015625)"/>
        <path id="DejaVuSans-13" d="M 2034 4250 
Q 1547 4250 1301 3770 
Q 1056 3291 1056 2328 
Q 1056 1369 1301 889 
Q 1547 409 2034 409 
Q 2525 409 2770 889 
Q 3016 1369 3016 2328 
Q 3016 3291 2770 3770 
Q 2525 4250 2034 4250 
z
M 2034 4750 
Q 2819 4750 3233 4129 
Q 3647 3509 3647 2328 
Q 3647 1150 3233 529 
Q 2819 -91 2034 -91 
Q 1250 -91 836 529 
Q 422 1150 422 2328 
Q 422 3509 836 4129 
Q 1250 4750 2034 4750 
z
" transform="scale(0.015625)"/>
       </defs>
       <use xlink:href="#DejaVuSans-c9c"/>
       <use xlink:href="#DejaVuSans-14" transform="translate(83.796875 0)"/>
       <use xlink:href="#DejaVuSans-13" transform="translate(147.421875 0)"/>
       <use xlink:href="#DejaVuSans-13" transform="translate(211.046875 0)"/>
      </g>
     </g>
    </g>
    <g id="ytick_2">
     <g id="line2d_13">
      <path d="M 60.202344 162.562924 
L 746.917656 162.562924 
" clip-path="url(#p3b77186b10)" style="fill: none; stroke: #b0b0b0; stroke-opacity: 0.3; stroke-width: 0.8; stroke-linecap: square"/>
     </g>
     <g id="line2d_14">
      <g>
       <use xlink:href="#m6cfe27720e" x="60.202344" y="162.562924" style="stroke: #000000; stroke-width: 0.8"/>
      </g>
     </g>
     <g id="text_2">
      <!-- −50 -->
      <g transform="translate(32.097656 166.361752) scale(0.1 -0.1)">
       <defs>
        <path id="DejaVuSans-18" d="M 691 4666 
L 3169 4666 
L 3169 4134 
L 1269 4134 
L 1269 2991 
Q 1406 3038 1543 3061 
Q 1681 3084 1819 3084 
Q 2600 3084 3056 2656 
Q 3513 2228 3513 1497 
Q 3513 744 3044 326 
Q 2575 -91 1722 -91 
Q 1428 -91 1123 -41 
Q 819 9 494 109 
L 494 744 
Q 775 591 1075 516 
Q 1375 441 1709 441 
Q 2250 441 2565 725 
Q 2881 1009 2881 1497 
Q 2881 1984 2565 2268 
Q 2250 2553 1709 2553 
Q 1456 2553 1204 2497 
Q 953 2441 691 2322 
L 691 4666 
z
" transform="scale(0.015625)"/>
       </defs>
       <use xlink:href="#DejaVuSans-c9c"/>
       <use xlink:href="#DejaVuSans-18" transform="translate(83.796875 0)"/>
       <use xlink:href="#DejaVuSans-13" transform="translate(147.421875 0)"/>
      </g>
     </g>
    </g>
    <g id="ytick_3">
     <g id="line2d_15">
      <path d="M 60.202344 124.888988 
L 746.917656 124.888988 
" clip-path="url(#p3b77186b10)" style="fill: none; stroke: #b0b0b0; stroke-opacity: 0.3; stroke-width: 0.8; stroke-linecap: square"/>
     </g>
     <g id="line2d_16">
      <g>
       <use xlink:href="#m6cfe27720e" x="60.202344" y="124.888988" style="stroke: #000000; stroke-width: 0.8"/>
      </g>
     </g>
     <g id="text_3">
      <!-- 0 -->
      <g transform="translate(46.839844 128.687816) scale(0.1 -0.1)">
       <use xlink:href="#DejaVuSans-13"/>
      </g>
     </g>
    </g>
    <g id="ytick_4">
     <g id="line2d_17">
      <path d="M 60.202344 87.215052 
L 746.917656 87.215052 
" clip-path="url(#p3b77186b10)" style="fill: none; stroke: #b0b0b0; stroke-opacity: 0.3; stroke-width: 0.8; stroke-linecap: square"/>
     </g>
     <g id="line2d_18">
      <g>
       <use xlink:href="#m6cfe27720e" x="60.202344" y="87.215052" style="stroke: #000000; stroke-width: 0.8"/>
      </g>
     </g>
     <g id="text_4">
      <!-- 50 -->
      <g transform="translate(40.477344 91.01388) scale(0.1 -0.1)">
       <use xlink:href="#DejaVuSans-18"/>
       <use xlink:href="#DejaVuSans-13" transform="translate(63.625 0)"/>
      </g>
     </g>
    </g>
    <g id="ytick_5">
     <g id="line2d_19">
      <path d="M 60.202344 49.541115 
L 746.917656 49.541115 
" clip-path="url(#p3b77186b10)" style="fill: none; stroke: #b0b0b0; stroke-opacity: 0.3; stroke-width: 0.8; stroke-linecap: square"/>
     </g>
     <g id="line2d_20">
      <g>
       <use xlink:href="#m6cfe27720e" x="60.202344" y="49.541115" style="stroke: #000000; stroke-width: 0.8"/>
      </g>
     </g>
     <g id="text_5">
      <!-- 100 -->
      <g transform="translate(34.114844 53.339944) scale(0.1 -0.1)">
       <use xlink:href="#DejaVuSans-14"/>
       <use xlink:href="#DejaVuSans-13" transform="translate(63.625 0)"/>
       <use xlink:href="#DejaVuSans-13" transform="translate(127.25 0)"/>
      </g>
     </g>
    </g>
    <g id="text_6">
     <!-- MP1 (cm) -->
     <g transform="translate(19.332813 148.509301) rotate(-90) scale(0.1 -0.1)">
      <defs>
       <path id="DejaVuSans-30" d="M 628 4666 
L 1569 4666 
L 2759 1491 
L 3956 4666 
L 4897 4666 
L 4897 0 
L 4281 0 
L 4281 4097 
L 3078 897 
L 2444 897 
L 1241 4097 
L 1241 0 
L 628 0 
L 628 4666 
z
" transform="scale(0.015625)"/>
       <path id="DejaVuSans-33" d="M 1259 4147 
L 1259 2394 
L 2053 2394 
Q 2494 2394 2734 2622 
Q 2975 2850 2975 3272 
Q 2975 3691 2734 3919 
Q 2494 4147 2053 4147 
L 1259 4147 
z
M 628 4666 
L 2053 4666 
Q 2838 4666 3239 4311 
Q 3641 3956 3641 3272 
Q 3641 2581 3239 2228 
Q 2838 1875 2053 1875 
L 1259 1875 
L 1259 0 
L 628 0 
L 628 4666 
z
" transform="scale(0.015625)"/>
       <path id="DejaVuSans-3" transform="scale(0.015625)"/>
       <path id="DejaVuSans-b" d="M 1984 4856 
Q 1566 4138 1362 3434 
Q 1159 2731 1159 2009 
Q 1159 1288 1364 580 
Q 1569 -128 1984 -844 
L 1484 -844 
Q 1016 -109 783 600 
Q 550 1309 550 2009 
Q 550 2706 781 3412 
Q 1013 4119 1484 4856 
L 1984 4856 
z
" transform="scale(0.015625)"/>
       <path id="DejaVuSans-46" d="M 3122 3366 
L 3122 2828 
Q 2878 2963 2633 3030 
Q 2388 3097 2138 3097 
Q 1578 3097 1268 2742 
Q 959 2388 959 1747 
Q 959 1106 1268 751 
Q 1578 397 2138 397 
Q 2388 397 2633 464 
Q 2878 531 3122 666 
L 3122 134 
Q 2881 22 2623 -34 
Q 2366 -91 2075 -91 
Q 1284 -91 818 406 
Q 353 903 353 1747 
Q 353 2603 823 3093 
Q 1294 3584 2113 3584 
Q 2378 3584 2631 3529 
Q 2884 3475 3122 3366 
z
" transform="scale(0.015625)"/>
       <path id="DejaVuSans-50" d="M 3328 2828 
Q 3544 3216 3844 3400 
Q 4144 3584 4550 3584 
Q 5097 3584 5394 3201 
Q 5691 2819 5691 2113 
L 5691 0 
L 5113 0 
L 5113 2094 
Q 5113 2597 4934 2840 
Q 4756 3084 4391 3084 
Q 3944 3084 3684 2787 
Q 3425 2491 3425 1978 
L 3425 0 
L 2847 0 
L 2847 2094 
Q 2847 2600 2669 2842 
Q 2491 3084 2119 3084 
Q 1678 3084 1418 2786 
Q 1159 2488 1159 1978 
L 1159 0 
L 581 0 
L 581 3500 
L 1159 3500 
L 1159 2956 
Q 1356 3278 1631 3431 
Q 1906 3584 2284 3584 
Q 2666 3584 2933 3390 
Q 3200 3197 3328 2828 
z
" transform="scale(0.015625)"/>
       <path id="DejaVuSans-c" d="M 513 4856 
L 1013 4856 
Q 1481 4119 1714 3412 
Q 1947 2706 1947 2009 
Q 1947 1309 1714 600 
Q 1481 -109 1013 -844 
L 513 -844 
Q 928 -128 1133 580 
Q 1338 1288 1338 2009 
Q 1338 2731 1133 3434 
Q 928 4138 513 4856 
z
" transform="scale(0.015625)"/>
      </defs>
      <use xlink:href="#DejaVuSans-30"/>
      <use xlink:href="#DejaVuSans-33" transform="translate(86.28125 0)"/>
      <use xlink:href="#DejaVuSans-14" transform="translate(146.578125 0)"/>
      <use xlink:href="#DejaVuSans-3" transform="translate(210.203125 0)"/>
      <use xlink:href="#DejaVuSans-b" transform="translate(241.984375 0)"/>
      <use xlink:href="#DejaVuSans-46" transform="translate(281 0)"/>
      <use xlink:href="#DejaVuSans-50" transform="translate(335.984375 0)"/>
      <use xlink:href="#DejaVuSans-c" transform="translate(433.390625 0)"/>
     </g>
    </g>
   </g>
   <g id="line2d_21">
    <path d="M 91.416676 130.314035 
L 94.884935 113.511459 
L 98.353194 129.560556 
L 101.821454 124.81364 
L 105.289713 126.019206 
L 108.757972 122.025769 
L 112.226231 114.792373 
L 115.69449 120.368116 
L 119.162749 116.299331 
L 122.631009 118.710462 
L 126.099268 139.280432 
L 129.567527 124.662944 
L 133.035786 132.574471 
L 136.504045 134.081428 
L 139.972304 118.032332 
L 143.440563 121.875073 
L 146.908823 118.107679 
L 150.377082 121.27229 
L 153.845341 125.642467 
L 157.3136 115.922591 
L 160.781859 121.347638 
L 164.250118 133.177254 
L 167.718378 114.490982 
L 171.186637 138.300909 
L 174.654896 126.848033 
L 178.123155 129.485208 
L 181.591414 128.656382 
L 185.059673 129.635904 
L 188.527932 134.156776 
L 191.996192 130.464731 
L 195.464451 119.765333 
L 198.93271 134.458168 
L 202.400969 134.834907 
L 205.869228 123.532726 
L 209.337487 116.751418 
L 212.805747 123.382031 
L 216.274006 125.943858 
L 219.742265 125.039684 
L 223.210524 116.751418 
L 226.678783 136.567908 
L 230.147042 116.751418 
L 233.615301 113.963546 
L 237.083561 117.881636 
L 240.55182 139.431127 
L 244.020079 134.910255 
L 247.488338 145.383609 
L 250.956597 118.635115 
L 254.424856 118.861158 
L 257.893116 130.690774 
L 261.361375 112.531937 
L 264.829634 122.176465 
L 268.297893 123.984814 
L 271.766152 122.628552 
L 275.234411 129.108469 
L 278.70267 128.957773 
L 282.17093 118.559767 
L 285.639189 129.334512 
L 289.107448 114.415634 
L 292.575707 125.717815 
L 296.043966 117.655592 
L 299.512225 135.43769 
L 302.980485 123.457378 
L 306.448744 128.204294 
L 309.917003 143.349217 
L 313.385262 127.30012 
L 316.853521 118.635115 
L 320.32178 118.409071 
L 323.790039 125.793162 
L 327.258299 131.971688 
L 330.726558 125.265727 
L 334.194817 128.656382 
L 337.663076 125.943858 
L 341.131335 124.135509 
L 344.599594 103.113453 
L 348.067854 126.621989 
L 351.536113 132.800515 
L 358.472631 128.505686 
L 361.94089 130.314035 
L 365.409149 113.360763 
L 368.877408 128.807077 
L 372.345668 122.779248 
L 375.813927 131.368905 
L 379.282186 121.121594 
L 382.750445 127.827555 
L 386.218704 119.16255 
L 389.686963 116.826766 
L 393.155223 112.07985 
L 396.623482 119.840681 
L 400.091741 125.86851 
L 403.56 116.374678 
L 407.028259 132.047036 
L 410.496518 119.539289 
L 413.964777 132.348427 
L 417.433037 126.848033 
L 420.901296 126.546641 
L 424.369555 121.724377 
L 427.837814 121.573682 
L 431.306073 140.787389 
L 434.774332 125.717815 
L 438.242592 132.875863 
L 441.710851 124.135509 
L 445.17911 119.313245 
L 448.647369 129.40986 
L 452.115628 135.81443 
L 455.583887 124.210857 
L 459.052146 126.848033 
L 462.520406 130.992166 
L 465.988665 133.026558 
L 469.456924 130.238687 
L 472.925183 121.649029 
L 476.393442 126.471293 
L 479.861701 122.32716 
L 483.329961 114.18959 
L 486.79822 119.916028 
L 490.266479 129.485208 
L 493.734738 122.025769 
L 497.202997 128.35499 
L 500.671256 122.025769 
L 504.139515 128.053599 
L 507.607775 120.443464 
L 511.076034 131.745644 
L 514.544293 136.793952 
L 518.012552 132.122384 
L 521.480811 123.306683 
L 524.94907 116.751418 
L 528.41733 124.888988 
L 531.885589 116.600722 
L 535.353848 128.053599 
L 538.822107 114.792373 
L 542.290366 118.032332 
L 545.758625 132.499123 
L 552.695144 119.313245 
L 556.163403 128.957773 
L 559.631662 121.875073 
L 563.099921 130.615426 
L 566.56818 120.21742 
L 570.036439 123.231335 
L 573.504699 118.032332 
L 576.972958 130.540078 
L 580.441217 121.649029 
L 583.909476 124.361553 
L 587.377735 129.861948 
L 590.845994 119.237898 
L 594.314253 129.033121 
L 597.782513 132.499123 
L 601.250772 131.293557 
L 604.719031 119.087202 
L 608.18729 118.936506 
L 611.655549 121.799725 
L 615.123808 122.176465 
L 618.592068 119.388593 
L 622.060327 132.047036 
L 625.528586 127.827555 
L 628.996845 116.525374 
L 632.465104 124.361553 
L 635.933363 134.910255 
L 639.401622 131.745644 
L 642.869882 128.204294 
L 646.338141 116.902114 
L 649.8064 123.231335 
L 653.274659 127.224772 
L 656.742918 114.792373 
L 660.211177 127.450816 
L 663.679437 122.402508 
L 667.147696 130.087991 
L 670.615955 108.839891 
L 674.084214 116.223983 
L 677.552473 126.546641 
L 681.020732 127.752207 
L 684.488991 129.334512 
L 687.957251 141.917607 
L 691.42551 129.259165 
L 694.893769 118.107679 
L 698.362028 121.875073 
L 701.830287 118.635115 
L 705.298546 117.655592 
L 708.766806 125.717815 
L 712.235065 115.169112 
L 715.703324 120.142072 
L 715.703324 120.142072 
" clip-path="url(#p3b77186b10)" style="fill: none; stroke: #1f77b4; stroke-opacity: 0.5; stroke-width: 0.7; stroke-linecap: square"/>
   </g>
   <g id="line2d_22">
    <path d="M 91.416676 124.462017 
L 94.884935 124.549923 
L 98.353194 124.843779 
L 101.821454 123.186126 
L 105.289713 123.442309 
L 108.757972 121.603821 
L 112.226231 119.900959 
L 115.69449 118.43921 
L 119.162749 121.890143 
L 122.631009 123.864257 
L 126.099268 126.305528 
L 129.567527 129.861948 
L 133.035786 129.726321 
L 136.504045 126.24525 
L 139.972304 124.934197 
L 143.440563 122.673761 
L 146.908823 120.985968 
L 150.377082 120.56402 
L 153.845341 120.458533 
L 157.3136 123.472448 
L 160.781859 122.116186 
L 164.250118 124.647875 
L 167.718378 126.832963 
L 171.186637 128.460477 
L 174.654896 127.556303 
L 178.123155 130.585287 
L 181.591414 129.756461 
L 185.059673 130.4798 
L 188.527932 128.535825 
L 191.996192 129.696182 
L 195.464451 130.735983 
L 198.93271 128.611173 
L 202.400969 125.86851 
L 205.869228 126.59185 
L 209.337487 124.888988 
L 212.805747 122.929943 
L 216.274006 121.573682 
L 219.742265 125.53698 
L 223.210524 124.210857 
L 226.678783 121.814795 
L 230.147042 120.383185 
L 233.615301 124.919127 
L 237.083561 124.587597 
L 240.55182 130.314035 
L 244.020079 131.248348 
L 247.488338 131.444253 
L 250.956597 129.696182 
L 257.893116 120.57909 
L 261.361375 121.649029 
L 264.829634 122.402508 
L 268.297893 122.086047 
L 271.766152 125.371214 
L 275.234411 124.647875 
L 278.70267 125.717815 
L 282.17093 124.075231 
L 285.639189 123.3971 
L 289.107448 121.136664 
L 292.575707 124.512249 
L 296.043966 123.336822 
L 299.512225 126.094554 
L 302.980485 129.620834 
L 306.448744 131.54974 
L 309.917003 128.189225 
L 313.385262 127.179563 
L 316.853521 126.697337 
L 320.32178 124.421831 
L 323.790039 124.014953 
L 327.258299 126.019206 
L 330.726558 127.526164 
L 334.194817 127.194633 
L 337.663076 121.422986 
L 341.131335 121.694238 
L 344.599594 122.523065 
L 351.536113 124.346483 
L 355.004372 129.7866 
L 358.472631 127.134355 
L 361.94089 126.335667 
L 365.409149 124.753362 
L 368.877408 125.326006 
L 372.345668 123.487518 
L 375.813927 126.380876 
L 379.282186 124.45197 
L 382.750445 123.261474 
L 386.218704 119.403663 
L 389.686963 119.14748 
L 393.155223 118.755671 
L 396.623482 118.198097 
L 400.091741 121.242151 
L 403.56 122.734039 
L 407.028259 125.235588 
L 410.496518 125.431493 
L 413.964777 127.465885 
L 417.433037 125.401354 
L 420.901296 125.808232 
L 424.369555 127.496024 
L 427.837814 127.269981 
L 431.306073 128.535825 
L 434.774332 129.018051 
L 438.242592 128.565964 
L 441.710851 126.290458 
L 445.17911 128.309781 
L 448.647369 126.57678 
L 452.115628 127.119285 
L 455.583887 129.455069 
L 459.052146 130.178409 
L 462.520406 129.06326 
L 465.988665 128.550895 
L 469.456924 128.475547 
L 472.925183 126.742546 
L 476.393442 122.975152 
L 479.861701 120.91062 
L 483.329961 122.477856 
L 486.79822 121.588751 
L 490.266479 122.794317 
L 497.202997 125.989067 
L 500.671256 124.180718 
L 504.139515 126.124693 
L 507.607775 127.812485 
L 511.076034 129.831808 
L 514.544293 128.882425 
L 518.012552 128.144016 
L 521.480811 126.772685 
L 524.94907 122.734039 
L 528.41733 121.920282 
L 531.885589 120.21742 
L 535.353848 120.473603 
L 538.822107 121.99563 
L 542.290366 123.864257 
L 545.758625 122.116186 
L 549.226884 124.949266 
L 552.695144 125.717815 
L 556.163403 125.341075 
L 559.631662 124.195788 
L 563.099921 124.979405 
L 566.56818 122.794317 
L 570.036439 124.527318 
L 573.504699 122.734039 
L 576.972958 123.562865 
L 580.441217 124.888988 
L 583.909476 125.130101 
L 587.377735 124.82871 
L 590.845994 126.998728 
L 594.314253 128.385129 
L 597.782513 126.23018 
L 601.250772 126.169902 
L 604.719031 124.723223 
L 608.18729 122.658691 
L 611.655549 120.277698 
L 615.123808 122.869665 
L 618.592068 124.647875 
L 622.060327 123.593005 
L 625.528586 124.030022 
L 628.996845 127.134355 
L 632.465104 127.074076 
L 639.401622 127.224772 
L 642.869882 126.998728 
L 646.338141 125.461632 
L 649.8064 122.070978 
L 653.274659 121.920282 
L 656.742918 123.020361 
L 660.211177 124.391692 
L 663.679437 120.714716 
L 667.147696 121.001038 
L 670.615955 120.820203 
L 674.084214 121.890143 
L 677.552473 121.739447 
L 681.020732 128.35499 
L 684.488991 130.962027 
L 687.957251 129.274234 
L 691.42551 128.098807 
L 694.893769 125.958928 
L 698.362028 121.106525 
L 701.830287 120.398255 
L 705.298546 119.810541 
L 708.766806 119.463941 
L 712.235065 119.671148 
L 715.703324 120.343 
L 715.703324 120.343 
" clip-path="url(#p3b77186b10)" style="fill: none; stroke: #1f77b4; stroke-width: 1.8; stroke-linecap: square"/>
   </g>
   <g id="line2d_23">
    <path d="M 60.202344 124.888988 
L 746.917656 124.888988 
" clip-path="url(#p3b77186b10)" style="fill: none; stroke: #808080; stroke-width: 0.5; stroke-linecap: square"/>
   </g>
   <g id="patch_3">
    <path d="M 60.202344 207.771648 
L 60.202344 42.006328 
" style="fill: none; stroke: #000000; stroke-width: 0.8; stroke-linejoin: miter; stroke-linecap: square"/>
   </g>
   <g id="patch_4">
    <path d="M 746.917656 207.771648 
L 746.917656 42.006328 
" style="fill: none; stroke: #000000; stroke-width: 0.8; stroke-linejoin: miter; stroke-linecap: square"/>
   </g>
   <g id="patch_5">
    <path d="M 60.202344 207.771648 
L 746.917656 207.771648 
" style="fill: none; stroke: #000000; stroke-width: 0.8; stroke-linejoin: miter; stroke-linecap: square"/>
   </g>
   <g id="patch_6">
    <path d="M 60.202344 42.006328 
L 746.917656 42.006328 
" style="fill: none; stroke: #000000; stroke-width: 0.8; stroke-linejoin: miter; stroke-linecap: square"/>
   </g>
   <g id="text_7">
    <!-- El multipath vive cerca del horizonte: -->
    <g transform="translate(291.368438 21.603047) scale(0.12 -0.12)">
     <defs>
      <path id="DejaVuSans-28" d="M 628 4666 
L 3578 4666 
L 3578 4134 
L 1259 4134 
L 1259 2753 
L 3481 2753 
L 3481 2222 
L 1259 2222 
L 1259 531 
L 3634 531 
L 3634 0 
L 628 0 
L 628 4666 
z
" transform="scale(0.015625)"/>
      <path id="DejaVuSans-4f" d="M 603 4863 
L 1178 4863 
L 1178 0 
L 603 0 
L 603 4863 
z
" transform="scale(0.015625)"/>
      <path id="DejaVuSans-58" d="M 544 1381 
L 544 3500 
L 1119 3500 
L 1119 1403 
Q 1119 906 1312 657 
Q 1506 409 1894 409 
Q 2359 409 2629 706 
Q 2900 1003 2900 1516 
L 2900 3500 
L 3475 3500 
L 3475 0 
L 2900 0 
L 2900 538 
Q 2691 219 2414 64 
Q 2138 -91 1772 -91 
Q 1169 -91 856 284 
Q 544 659 544 1381 
z
M 1991 3584 
L 1991 3584 
z
" transform="scale(0.015625)"/>
      <path id="DejaVuSans-57" d="M 1172 4494 
L 1172 3500 
L 2356 3500 
L 2356 3053 
L 1172 3053 
L 1172 1153 
Q 1172 725 1289 603 
Q 1406 481 1766 481 
L 2356 481 
L 2356 0 
L 1766 0 
Q 1100 0 847 248 
Q 594 497 594 1153 
L 594 3053 
L 172 3053 
L 172 3500 
L 594 3500 
L 594 4494 
L 1172 4494 
z
" transform="scale(0.015625)"/>
      <path id="DejaVuSans-4c" d="M 603 3500 
L 1178 3500 
L 1178 0 
L 603 0 
L 603 3500 
z
M 603 4863 
L 1178 4863 
L 1178 4134 
L 603 4134 
L 603 4863 
z
" transform="scale(0.015625)"/>
      <path id="DejaVuSans-53" d="M 1159 525 
L 1159 -1331 
L 581 -1331 
L 581 3500 
L 1159 3500 
L 1159 2969 
Q 1341 3281 1617 3432 
Q 1894 3584 2278 3584 
Q 2916 3584 3314 3078 
Q 3713 2572 3713 1747 
Q 3713 922 3314 415 
Q 2916 -91 2278 -91 
Q 1894 -91 1617 61 
Q 1341 213 1159 525 
z
M 3116 1747 
Q 3116 2381 2855 2742 
Q 2594 3103 2138 3103 
Q 1681 3103 1420 2742 
Q 1159 2381 1159 1747 
Q 1159 1113 1420 752 
Q 1681 391 2138 391 
Q 2594 391 2855 752 
Q 3116 1113 3116 1747 
z
" transform="scale(0.015625)"/>
      <path id="DejaVuSans-44" d="M 2194 1759 
Q 1497 1759 1228 1600 
Q 959 1441 959 1056 
Q 959 750 1161 570 
Q 1363 391 1709 391 
Q 2188 391 2477 730 
Q 2766 1069 2766 1631 
L 2766 1759 
L 2194 1759 
z
M 3341 1997 
L 3341 0 
L 2766 0 
L 2766 531 
Q 2569 213 2275 61 
Q 1981 -91 1556 -91 
Q 1019 -91 701 211 
Q 384 513 384 1019 
Q 384 1609 779 1909 
Q 1175 2209 1959 2209 
L 2766 2209 
L 2766 2266 
Q 2766 2663 2505 2880 
Q 2244 3097 1772 3097 
Q 1472 3097 1187 3025 
Q 903 2953 641 2809 
L 641 3341 
Q 956 3463 1253 3523 
Q 1550 3584 1831 3584 
Q 2591 3584 2966 3190 
Q 3341 2797 3341 1997 
z
" transform="scale(0.015625)"/>
      <path id="DejaVuSans-4b" d="M 3513 2113 
L 3513 0 
L 2938 0 
L 2938 2094 
Q 2938 2591 2744 2837 
Q 2550 3084 2163 3084 
Q 1697 3084 1428 2787 
Q 1159 2491 1159 1978 
L 1159 0 
L 581 0 
L 581 4863 
L 1159 4863 
L 1159 2956 
Q 1366 3272 1645 3428 
Q 1925 3584 2291 3584 
Q 2894 3584 3203 3211 
Q 3513 2838 3513 2113 
z
" transform="scale(0.015625)"/>
      <path id="DejaVuSans-59" d="M 191 3500 
L 800 3500 
L 1894 563 
L 2988 3500 
L 3597 3500 
L 2284 0 
L 1503 0 
L 191 3500 
z
" transform="scale(0.015625)"/>
      <path id="DejaVuSans-48" d="M 3597 1894 
L 3597 1613 
L 953 1613 
Q 991 1019 1311 708 
Q 1631 397 2203 397 
Q 2534 397 2845 478 
Q 3156 559 3463 722 
L 3463 178 
Q 3153 47 2828 -22 
Q 2503 -91 2169 -91 
Q 1331 -91 842 396 
Q 353 884 353 1716 
Q 353 2575 817 3079 
Q 1281 3584 2069 3584 
Q 2775 3584 3186 3129 
Q 3597 2675 3597 1894 
z
M 3022 2063 
Q 3016 2534 2758 2815 
Q 2500 3097 2075 3097 
Q 1594 3097 1305 2825 
Q 1016 2553 972 2059 
L 3022 2063 
z
" transform="scale(0.015625)"/>
      <path id="DejaVuSans-55" d="M 2631 2963 
Q 2534 3019 2420 3045 
Q 2306 3072 2169 3072 
Q 1681 3072 1420 2755 
Q 1159 2438 1159 1844 
L 1159 0 
L 581 0 
L 581 3500 
L 1159 3500 
L 1159 2956 
Q 1341 3275 1631 3429 
Q 1922 3584 2338 3584 
Q 2397 3584 2469 3576 
Q 2541 3569 2628 3553 
L 2631 2963 
z
" transform="scale(0.015625)"/>
      <path id="DejaVuSans-47" d="M 2906 2969 
L 2906 4863 
L 3481 4863 
L 3481 0 
L 2906 0 
L 2906 525 
Q 2725 213 2448 61 
Q 2172 -91 1784 -91 
Q 1150 -91 751 415 
Q 353 922 353 1747 
Q 353 2572 751 3078 
Q 1150 3584 1784 3584 
Q 2172 3584 2448 3432 
Q 2725 3281 2906 2969 
z
M 947 1747 
Q 947 1113 1208 752 
Q 1469 391 1925 391 
Q 2381 391 2643 752 
Q 2906 1113 2906 1747 
Q 2906 2381 2643 2742 
Q 2381 3103 1925 3103 
Q 1469 3103 1208 2742 
Q 947 2381 947 1747 
z
" transform="scale(0.015625)"/>
      <path id="DejaVuSans-52" d="M 1959 3097 
Q 1497 3097 1228 2736 
Q 959 2375 959 1747 
Q 959 1119 1226 758 
Q 1494 397 1959 397 
Q 2419 397 2687 759 
Q 2956 1122 2956 1747 
Q 2956 2369 2687 2733 
Q 2419 3097 1959 3097 
z
M 1959 3584 
Q 2709 3584 3137 3096 
Q 3566 2609 3566 1747 
Q 3566 888 3137 398 
Q 2709 -91 1959 -91 
Q 1206 -91 779 398 
Q 353 888 353 1747 
Q 353 2609 779 3096 
Q 1206 3584 1959 3584 
z
" transform="scale(0.015625)"/>
      <path id="DejaVuSans-5d" d="M 353 3500 
L 3084 3500 
L 3084 2975 
L 922 459 
L 3084 459 
L 3084 0 
L 275 0 
L 275 525 
L 2438 3041 
L 353 3041 
L 353 3500 
z
" transform="scale(0.015625)"/>
      <path id="DejaVuSans-51" d="M 3513 2113 
L 3513 0 
L 2938 0 
L 2938 2094 
Q 2938 2591 2744 2837 
Q 2550 3084 2163 3084 
Q 1697 3084 1428 2787 
Q 1159 2491 1159 1978 
L 1159 0 
L 581 0 
L 581 3500 
L 1159 3500 
L 1159 2956 
Q 1366 3272 1645 3428 
Q 1925 3584 2291 3584 
Q 2894 3584 3203 3211 
Q 3513 2838 3513 2113 
z
" transform="scale(0.015625)"/>
      <path id="DejaVuSans-1d" d="M 750 794 
L 1409 794 
L 1409 0 
L 750 0 
L 750 794 
z
M 750 3309 
L 1409 3309 
L 1409 2516 
L 750 2516 
L 750 3309 
z
" transform="scale(0.015625)"/>
     </defs>
     <use xlink:href="#DejaVuSans-28"/>
     <use xlink:href="#DejaVuSans-4f" transform="translate(63.1875 0)"/>
     <use xlink:href="#DejaVuSans-3" transform="translate(90.96875 0)"/>
     <use xlink:href="#DejaVuSans-50" transform="translate(122.75 0)"/>
     <use xlink:href="#DejaVuSans-58" transform="translate(220.15625 0)"/>
     <use xlink:href="#DejaVuSans-4f" transform="translate(283.53125 0)"/>
     <use xlink:href="#DejaVuSans-57" transform="translate(311.3125 0)"/>
     <use xlink:href="#DejaVuSans-4c" transform="translate(350.515625 0)"/>
     <use xlink:href="#DejaVuSans-53" transform="translate(378.296875 0)"/>
     <use xlink:href="#DejaVuSans-44" transform="translate(441.78125 0)"/>
     <use xlink:href="#DejaVuSans-57" transform="translate(503.0625 0)"/>
     <use xlink:href="#DejaVuSans-4b" transform="translate(542.265625 0)"/>
     <use xlink:href="#DejaVuSans-3" transform="translate(605.640625 0)"/>
     <use xlink:href="#DejaVuSans-59" transform="translate(637.421875 0)"/>
     <use xlink:href="#DejaVuSans-4c" transform="translate(696.609375 0)"/>
     <use xlink:href="#DejaVuSans-59" transform="translate(724.390625 0)"/>
     <use xlink:href="#DejaVuSans-48" transform="translate(783.578125 0)"/>
     <use xlink:href="#DejaVuSans-3" transform="translate(845.109375 0)"/>
     <use xlink:href="#DejaVuSans-46" transform="translate(876.890625 0)"/>
     <use xlink:href="#DejaVuSans-48" transform="translate(931.875 0)"/>
     <use xlink:href="#DejaVuSans-55" transform="translate(993.40625 0)"/>
     <use xlink:href="#DejaVuSans-46" transform="translate(1032.3125 0)"/>
     <use xlink:href="#DejaVuSans-44" transform="translate(1087.296875 0)"/>
     <use xlink:href="#DejaVuSans-3" transform="translate(1148.578125 0)"/>
     <use xlink:href="#DejaVuSans-47" transform="translate(1180.359375 0)"/>
     <use xlink:href="#DejaVuSans-48" transform="translate(1243.84375 0)"/>
     <use xlink:href="#DejaVuSans-4f" transform="translate(1305.375 0)"/>
     <use xlink:href="#DejaVuSans-3" transform="translate(1333.15625 0)"/>
     <use xlink:href="#DejaVuSans-4b" transform="translate(1364.9375 0)"/>
     <use xlink:href="#DejaVuSans-52" transform="translate(1428.3125 0)"/>
     <use xlink:href="#DejaVuSans-55" transform="translate(1489.5 0)"/>
     <use xlink:href="#DejaVuSans-4c" transform="translate(1530.609375 0)"/>
     <use xlink:href="#DejaVuSans-5d" transform="translate(1558.390625 0)"/>
     <use xlink:href="#DejaVuSans-52" transform="translate(1610.875 0)"/>
     <use xlink:href="#DejaVuSans-51" transform="translate(1672.0625 0)"/>
     <use xlink:href="#DejaVuSans-57" transform="translate(1735.4375 0)"/>
     <use xlink:href="#DejaVuSans-48" transform="translate(1774.640625 0)"/>
     <use xlink:href="#DejaVuSans-1d" transform="translate(1836.171875 0)"/>
    </g>
    <!-- arriba todo es ruido (±20 cm); abajo aparecen las oscilaciones lentas del reflejo (±1 m) -->
    <g transform="translate(139.951875 36.006328) scale(0.12 -0.12)">
     <defs>
      <path id="DejaVuSans-45" d="M 3116 1747 
Q 3116 2381 2855 2742 
Q 2594 3103 2138 3103 
Q 1681 3103 1420 2742 
Q 1159 2381 1159 1747 
Q 1159 1113 1420 752 
Q 1681 391 2138 391 
Q 2594 391 2855 752 
Q 3116 1113 3116 1747 
z
M 1159 2969 
Q 1341 3281 1617 3432 
Q 1894 3584 2278 3584 
Q 2916 3584 3314 3078 
Q 3713 2572 3713 1747 
Q 3713 922 3314 415 
Q 2916 -91 2278 -91 
Q 1894 -91 1617 61 
Q 1341 213 1159 525 
L 1159 0 
L 581 0 
L 581 4863 
L 1159 4863 
L 1159 2969 
z
" transform="scale(0.015625)"/>
      <path id="DejaVuSans-56" d="M 2834 3397 
L 2834 2853 
Q 2591 2978 2328 3040 
Q 2066 3103 1784 3103 
Q 1356 3103 1142 2972 
Q 928 2841 928 2578 
Q 928 2378 1081 2264 
Q 1234 2150 1697 2047 
L 1894 2003 
Q 2506 1872 2764 1633 
Q 3022 1394 3022 966 
Q 3022 478 2636 193 
Q 2250 -91 1575 -91 
Q 1294 -91 989 -36 
Q 684 19 347 128 
L 347 722 
Q 666 556 975 473 
Q 1284 391 1588 391 
Q 1994 391 2212 530 
Q 2431 669 2431 922 
Q 2431 1156 2273 1281 
Q 2116 1406 1581 1522 
L 1381 1569 
Q 847 1681 609 1914 
Q 372 2147 372 2553 
Q 372 3047 722 3315 
Q 1072 3584 1716 3584 
Q 2034 3584 2315 3537 
Q 2597 3491 2834 3397 
z
" transform="scale(0.015625)"/>
      <path id="DejaVuSans-73" d="M 2944 4013 
L 2944 2803 
L 4684 2803 
L 4684 2272 
L 2944 2272 
L 2944 1063 
L 2419 1063 
L 2419 2272 
L 678 2272 
L 678 2803 
L 2419 2803 
L 2419 4013 
L 2944 4013 
z
M 678 531 
L 4684 531 
L 4684 0 
L 678 0 
L 678 531 
z
" transform="scale(0.015625)"/>
      <path id="DejaVuSans-15" d="M 1228 531 
L 3431 531 
L 3431 0 
L 469 0 
L 469 531 
Q 828 903 1448 1529 
Q 2069 2156 2228 2338 
Q 2531 2678 2651 2914 
Q 2772 3150 2772 3378 
Q 2772 3750 2511 3984 
Q 2250 4219 1831 4219 
Q 1534 4219 1204 4116 
Q 875 4013 500 3803 
L 500 4441 
Q 881 4594 1212 4672 
Q 1544 4750 1819 4750 
Q 2544 4750 2975 4387 
Q 3406 4025 3406 3419 
Q 3406 3131 3298 2873 
Q 3191 2616 2906 2266 
Q 2828 2175 2409 1742 
Q 1991 1309 1228 531 
z
" transform="scale(0.015625)"/>
      <path id="DejaVuSans-1e" d="M 750 3309 
L 1409 3309 
L 1409 2516 
L 750 2516 
L 750 3309 
z
M 750 794 
L 1409 794 
L 1409 256 
L 897 -744 
L 494 -744 
L 750 256 
L 750 794 
z
" transform="scale(0.015625)"/>
      <path id="DejaVuSans-4d" d="M 603 3500 
L 1178 3500 
L 1178 -63 
Q 1178 -731 923 -1031 
Q 669 -1331 103 -1331 
L -116 -1331 
L -116 -844 
L 38 -844 
Q 366 -844 484 -692 
Q 603 -541 603 -63 
L 603 3500 
z
M 603 4863 
L 1178 4863 
L 1178 4134 
L 603 4134 
L 603 4863 
z
" transform="scale(0.015625)"/>
      <path id="DejaVuSans-13b0" d="M 1831 4863 
L 3431 4863 
L 3431 0 
L 2853 0 
L 2853 4384 
L 1825 4384 
Q 1516 4384 1395 4259 
Q 1275 4134 1275 3809 
L 1275 3500 
L 2222 3500 
L 2222 3053 
L 1275 3053 
L 1275 0 
L 697 0 
L 697 3053 
L 147 3053 
L 147 3500 
L 697 3500 
L 697 3744 
Q 697 4328 969 4595 
Q 1241 4863 1831 4863 
z
" transform="scale(0.015625)"/>
     </defs>
     <use xlink:href="#DejaVuSans-44"/>
     <use xlink:href="#DejaVuSans-55" transform="translate(61.28125 0)"/>
     <use xlink:href="#DejaVuSans-55" transform="translate(100.640625 0)"/>
     <use xlink:href="#DejaVuSans-4c" transform="translate(141.75 0)"/>
     <use xlink:href="#DejaVuSans-45" transform="translate(169.53125 0)"/>
     <use xlink:href="#DejaVuSans-44" transform="translate(233.015625 0)"/>
     <use xlink:href="#DejaVuSans-3" transform="translate(294.296875 0)"/>
     <use xlink:href="#DejaVuSans-57" transform="translate(326.078125 0)"/>
     <use xlink:href="#DejaVuSans-52" transform="translate(365.28125 0)"/>
     <use xlink:href="#DejaVuSans-47" transform="translate(426.46875 0)"/>
     <use xlink:href="#DejaVuSans-52" transform="translate(489.953125 0)"/>
     <use xlink:href="#DejaVuSans-3" transform="translate(551.140625 0)"/>
     <use xlink:href="#DejaVuSans-48" transform="translate(582.921875 0)"/>
     <use xlink:href="#DejaVuSans-56" transform="translate(644.453125 0)"/>
     <use xlink:href="#DejaVuSans-3" transform="translate(696.546875 0)"/>
     <use xlink:href="#DejaVuSans-55" transform="translate(728.328125 0)"/>
     <use xlink:href="#DejaVuSans-58" transform="translate(769.4375 0)"/>
     <use xlink:href="#DejaVuSans-4c" transform="translate(832.8125 0)"/>
     <use xlink:href="#DejaVuSans-47" transform="translate(860.59375 0)"/>
     <use xlink:href="#DejaVuSans-52" transform="translate(924.078125 0)"/>
     <use xlink:href="#DejaVuSans-3" transform="translate(985.265625 0)"/>
     <use xlink:href="#DejaVuSans-b" transform="translate(1017.046875 0)"/>
     <use xlink:href="#DejaVuSans-73" transform="translate(1056.0625 0)"/>
     <use xlink:href="#DejaVuSans-15" transform="translate(1139.859375 0)"/>
     <use xlink:href="#DejaVuSans-13" transform="translate(1203.484375 0)"/>
     <use xlink:href="#DejaVuSans-3" transform="translate(1267.109375 0)"/>
     <use xlink:href="#DejaVuSans-46" transform="translate(1298.890625 0)"/>
     <use xlink:href="#DejaVuSans-50" transform="translate(1353.875 0)"/>
     <use xlink:href="#DejaVuSans-c" transform="translate(1451.28125 0)"/>
     <use xlink:href="#DejaVuSans-1e" transform="translate(1490.296875 0)"/>
     <use xlink:href="#DejaVuSans-3" transform="translate(1523.984375 0)"/>
     <use xlink:href="#DejaVuSans-44" transform="translate(1555.765625 0)"/>
     <use xlink:href="#DejaVuSans-45" transform="translate(1617.046875 0)"/>
     <use xlink:href="#DejaVuSans-44" transform="translate(1680.53125 0)"/>
     <use xlink:href="#DejaVuSans-4d" transform="translate(1741.8125 0)"/>
     <use xlink:href="#DejaVuSans-52" transform="translate(1769.59375 0)"/>
     <use xlink:href="#DejaVuSans-3" transform="translate(1830.78125 0)"/>
     <use xlink:href="#DejaVuSans-44" transform="translate(1862.5625 0)"/>
     <use xlink:href="#DejaVuSans-53" transform="translate(1923.84375 0)"/>
     <use xlink:href="#DejaVuSans-44" transform="translate(1987.328125 0)"/>
     <use xlink:href="#DejaVuSans-55" transform="translate(2048.609375 0)"/>
     <use xlink:href="#DejaVuSans-48" transform="translate(2087.515625 0)"/>
     <use xlink:href="#DejaVuSans-46" transform="translate(2149.046875 0)"/>
     <use xlink:href="#DejaVuSans-48" transform="translate(2204.03125 0)"/>
     <use xlink:href="#DejaVuSans-51" transform="translate(2265.5625 0)"/>
     <use xlink:href="#DejaVuSans-3" transform="translate(2328.9375 0)"/>
     <use xlink:href="#DejaVuSans-4f" transform="translate(2360.71875 0)"/>
     <use xlink:href="#DejaVuSans-44" transform="translate(2388.5 0)"/>
     <use xlink:href="#DejaVuSans-56" transform="translate(2449.78125 0)"/>
     <use xlink:href="#DejaVuSans-3" transform="translate(2501.875 0)"/>
     <use xlink:href="#DejaVuSans-52" transform="translate(2533.65625 0)"/>
     <use xlink:href="#DejaVuSans-56" transform="translate(2594.84375 0)"/>
     <use xlink:href="#DejaVuSans-46" transform="translate(2646.9375 0)"/>
     <use xlink:href="#DejaVuSans-4c" transform="translate(2701.921875 0)"/>
     <use xlink:href="#DejaVuSans-4f" transform="translate(2729.703125 0)"/>
     <use xlink:href="#DejaVuSans-44" transform="translate(2757.484375 0)"/>
     <use xlink:href="#DejaVuSans-46" transform="translate(2818.765625 0)"/>
     <use xlink:href="#DejaVuSans-4c" transform="translate(2873.75 0)"/>
     <use xlink:href="#DejaVuSans-52" transform="translate(2901.53125 0)"/>
     <use xlink:href="#DejaVuSans-51" transform="translate(2962.71875 0)"/>
     <use xlink:href="#DejaVuSans-48" transform="translate(3026.09375 0)"/>
     <use xlink:href="#DejaVuSans-56" transform="translate(3087.625 0)"/>
     <use xlink:href="#DejaVuSans-3" transform="translate(3139.71875 0)"/>
     <use xlink:href="#DejaVuSans-4f" transform="translate(3171.5 0)"/>
     <use xlink:href="#DejaVuSans-48" transform="translate(3199.28125 0)"/>
     <use xlink:href="#DejaVuSans-51" transform="translate(3260.8125 0)"/>
     <use xlink:href="#DejaVuSans-57" transform="translate(3324.1875 0)"/>
     <use xlink:href="#DejaVuSans-44" transform="translate(3363.390625 0)"/>
     <use xlink:href="#DejaVuSans-56" transform="translate(3424.671875 0)"/>
     <use xlink:href="#DejaVuSans-3" transform="translate(3476.765625 0)"/>
     <use xlink:href="#DejaVuSans-47" transform="translate(3508.546875 0)"/>
     <use xlink:href="#DejaVuSans-48" transform="translate(3572.03125 0)"/>
     <use xlink:href="#DejaVuSans-4f" transform="translate(3633.5625 0)"/>
     <use xlink:href="#DejaVuSans-3" transform="translate(3661.34375 0)"/>
     <use xlink:href="#DejaVuSans-55" transform="translate(3693.125 0)"/>
     <use xlink:href="#DejaVuSans-48" transform="translate(3732.03125 0)"/>
     <use xlink:href="#DejaVuSans-13b0" transform="translate(3793.5625 0)"/>
     <use xlink:href="#DejaVuSans-48" transform="translate(3856.546875 0)"/>
     <use xlink:href="#DejaVuSans-4d" transform="translate(3918.078125 0)"/>
     <use xlink:href="#DejaVuSans-52" transform="translate(3945.859375 0)"/>
     <use xlink:href="#DejaVuSans-3" transform="translate(4007.046875 0)"/>
     <use xlink:href="#DejaVuSans-b" transform="translate(4038.828125 0)"/>
     <use xlink:href="#DejaVuSans-73" transform="translate(4077.84375 0)"/>
     <use xlink:href="#DejaVuSans-14" transform="translate(4161.640625 0)"/>
     <use xlink:href="#DejaVuSans-3" transform="translate(4225.265625 0)"/>
     <use xlink:href="#DejaVuSans-50" transform="translate(4257.046875 0)"/>
     <use xlink:href="#DejaVuSans-c" transform="translate(4354.453125 0)"/>
    </g>
   </g>
   <g id="legend_1">
    <g id="patch_7">
     <path d="M 65.802344 60.406953 
L 262.558594 60.406953 
Q 264.158594 60.406953 264.158594 58.806953 
L 264.158594 47.606328 
Q 264.158594 46.006328 262.558594 46.006328 
L 65.802344 46.006328 
Q 64.202344 46.006328 64.202344 47.606328 
L 64.202344 58.806953 
Q 64.202344 60.406953 65.802344 60.406953 
z
" style="fill: #ffffff; opacity: 0.8; stroke: #cccccc; stroke-linejoin: miter"/>
    </g>
    <g id="line2d_24">
     <path d="M 67.402344 52.485078 
L 75.402344 52.485078 
L 83.402344 52.485078 
" style="fill: none; stroke: #1f77b4; stroke-width: 1.8; stroke-linecap: square"/>
    </g>
    <g id="text_8">
     <!-- E29 (elev media 68°) — suavizado 2.5 min -->
     <g transform="translate(89.802344 55.285078) scale(0.08 -0.08)">
      <defs>
       <path id="DejaVuSans-1c" d="M 703 97 
L 703 672 
Q 941 559 1184 500 
Q 1428 441 1663 441 
Q 2288 441 2617 861 
Q 2947 1281 2994 2138 
Q 2813 1869 2534 1725 
Q 2256 1581 1919 1581 
Q 1219 1581 811 2004 
Q 403 2428 403 3163 
Q 403 3881 828 4315 
Q 1253 4750 1959 4750 
Q 2769 4750 3195 4129 
Q 3622 3509 3622 2328 
Q 3622 1225 3098 567 
Q 2575 -91 1691 -91 
Q 1453 -91 1209 -44 
Q 966 3 703 97 
z
M 1959 2075 
Q 2384 2075 2632 2365 
Q 2881 2656 2881 3163 
Q 2881 3666 2632 3958 
Q 2384 4250 1959 4250 
Q 1534 4250 1286 3958 
Q 1038 3666 1038 3163 
Q 1038 2656 1286 2365 
Q 1534 2075 1959 2075 
z
" transform="scale(0.015625)"/>
       <path id="DejaVuSans-19" d="M 2113 2584 
Q 1688 2584 1439 2293 
Q 1191 2003 1191 1497 
Q 1191 994 1439 701 
Q 1688 409 2113 409 
Q 2538 409 2786 701 
Q 3034 994 3034 1497 
Q 3034 2003 2786 2293 
Q 2538 2584 2113 2584 
z
M 3366 4563 
L 3366 3988 
Q 3128 4100 2886 4159 
Q 2644 4219 2406 4219 
Q 1781 4219 1451 3797 
Q 1122 3375 1075 2522 
Q 1259 2794 1537 2939 
Q 1816 3084 2150 3084 
Q 2853 3084 3261 2657 
Q 3669 2231 3669 1497 
Q 3669 778 3244 343 
Q 2819 -91 2113 -91 
Q 1303 -91 875 529 
Q 447 1150 447 2328 
Q 447 3434 972 4092 
Q 1497 4750 2381 4750 
Q 2619 4750 2861 4703 
Q 3103 4656 3366 4563 
z
" transform="scale(0.015625)"/>
       <path id="DejaVuSans-1b" d="M 2034 2216 
Q 1584 2216 1326 1975 
Q 1069 1734 1069 1313 
Q 1069 891 1326 650 
Q 1584 409 2034 409 
Q 2484 409 2743 651 
Q 3003 894 3003 1313 
Q 3003 1734 2745 1975 
Q 2488 2216 2034 2216 
z
M 1403 2484 
Q 997 2584 770 2862 
Q 544 3141 544 3541 
Q 544 4100 942 4425 
Q 1341 4750 2034 4750 
Q 2731 4750 3128 4425 
Q 3525 4100 3525 3541 
Q 3525 3141 3298 2862 
Q 3072 2584 2669 2484 
Q 3125 2378 3379 2068 
Q 3634 1759 3634 1313 
Q 3634 634 3220 271 
Q 2806 -91 2034 -91 
Q 1263 -91 848 271 
Q 434 634 434 1313 
Q 434 1759 690 2068 
Q 947 2378 1403 2484 
z
M 1172 3481 
Q 1172 3119 1398 2916 
Q 1625 2713 2034 2713 
Q 2441 2713 2670 2916 
Q 2900 3119 2900 3481 
Q 2900 3844 2670 4047 
Q 2441 4250 2034 4250 
Q 1625 4250 1398 4047 
Q 1172 3844 1172 3481 
z
" transform="scale(0.015625)"/>
       <path id="DejaVuSans-72" d="M 1600 4347 
Q 1350 4347 1178 4173 
Q 1006 4000 1006 3750 
Q 1006 3503 1178 3333 
Q 1350 3163 1600 3163 
Q 1850 3163 2022 3333 
Q 2194 3503 2194 3750 
Q 2194 3997 2020 4172 
Q 1847 4347 1600 4347 
z
M 1600 4750 
Q 1800 4750 1984 4673 
Q 2169 4597 2303 4453 
Q 2447 4313 2519 4134 
Q 2591 3956 2591 3750 
Q 2591 3338 2302 3052 
Q 2013 2766 1594 2766 
Q 1172 2766 890 3047 
Q 609 3328 609 3750 
Q 609 4169 896 4459 
Q 1184 4750 1600 4750 
z
" transform="scale(0.015625)"/>
       <path id="DejaVuSans-af6" d="M 313 1978 
L 6088 1978 
L 6088 1528 
L 313 1528 
L 313 1978 
z
" transform="scale(0.015625)"/>
       <path id="DejaVuSans-11" d="M 684 794 
L 1344 794 
L 1344 0 
L 684 0 
L 684 794 
z
" transform="scale(0.015625)"/>
      </defs>
      <use xlink:href="#DejaVuSans-28"/>
      <use xlink:href="#DejaVuSans-15" transform="translate(63.1875 0)"/>
      <use xlink:href="#DejaVuSans-1c" transform="translate(126.8125 0)"/>
      <use xlink:href="#DejaVuSans-3" transform="translate(190.4375 0)"/>
      <use xlink:href="#DejaVuSans-b" transform="translate(222.21875 0)"/>
      <use xlink:href="#DejaVuSans-48" transform="translate(261.234375 0)"/>
      <use xlink:href="#DejaVuSans-4f" transform="translate(322.765625 0)"/>
      <use xlink:href="#DejaVuSans-48" transform="translate(350.546875 0)"/>
      <use xlink:href="#DejaVuSans-59" transform="translate(412.078125 0)"/>
      <use xlink:href="#DejaVuSans-3" transform="translate(471.265625 0)"/>
      <use xlink:href="#DejaVuSans-50" transform="translate(503.046875 0)"/>
      <use xlink:href="#DejaVuSans-48" transform="translate(600.453125 0)"/>
      <use xlink:href="#DejaVuSans-47" transform="translate(661.984375 0)"/>
      <use xlink:href="#DejaVuSans-4c" transform="translate(725.46875 0)"/>
      <use xlink:href="#DejaVuSans-44" transform="translate(753.25 0)"/>
      <use xlink:href="#DejaVuSans-3" transform="translate(814.53125 0)"/>
      <use xlink:href="#DejaVuSans-19" transform="translate(846.3125 0)"/>
      <use xlink:href="#DejaVuSans-1b" transform="translate(909.9375 0)"/>
      <use xlink:href="#DejaVuSans-72" transform="translate(973.5625 0)"/>
      <use xlink:href="#DejaVuSans-c" transform="translate(1023.5625 0)"/>
      <use xlink:href="#DejaVuSans-3" transform="translate(1062.578125 0)"/>
      <use xlink:href="#DejaVuSans-af6" transform="translate(1094.359375 0)"/>
      <use xlink:href="#DejaVuSans-3" transform="translate(1194.359375 0)"/>
      <use xlink:href="#DejaVuSans-56" transform="translate(1226.140625 0)"/>
      <use xlink:href="#DejaVuSans-58" transform="translate(1278.234375 0)"/>
      <use xlink:href="#DejaVuSans-44" transform="translate(1341.609375 0)"/>
      <use xlink:href="#DejaVuSans-59" transform="translate(1402.890625 0)"/>
      <use xlink:href="#DejaVuSans-4c" transform="translate(1462.078125 0)"/>
      <use xlink:href="#DejaVuSans-5d" transform="translate(1489.859375 0)"/>
      <use xlink:href="#DejaVuSans-44" transform="translate(1542.34375 0)"/>
      <use xlink:href="#DejaVuSans-47" transform="translate(1603.625 0)"/>
      <use xlink:href="#DejaVuSans-52" transform="translate(1667.109375 0)"/>
      <use xlink:href="#DejaVuSans-3" transform="translate(1728.296875 0)"/>
      <use xlink:href="#DejaVuSans-15" transform="translate(1760.078125 0)"/>
      <use xlink:href="#DejaVuSans-11" transform="translate(1823.703125 0)"/>
      <use xlink:href="#DejaVuSans-18" transform="translate(1855.484375 0)"/>
      <use xlink:href="#DejaVuSans-3" transform="translate(1919.109375 0)"/>
      <use xlink:href="#DejaVuSans-50" transform="translate(1950.890625 0)"/>
      <use xlink:href="#DejaVuSans-4c" transform="translate(2048.296875 0)"/>
      <use xlink:href="#DejaVuSans-51" transform="translate(2076.078125 0)"/>
     </g>
    </g>
   </g>
  </g>
  <g id="axes_2">
   <g id="patch_8">
    <path d="M 60.202344 389.877656 
L 746.917656 389.877656 
L 746.917656 224.112336 
L 60.202344 224.112336 
z
" style="fill: #ffffff"/>
   </g>
   <g id="matplotlib.axis_3">
    <g id="xtick_6">
     <g id="line2d_25">
      <path d="M 91.416676 389.877656 
L 91.416676 224.112336 
" clip-path="url(#p793c4151ea)" style="fill: none; stroke: #b0b0b0; stroke-opacity: 0.3; stroke-width: 0.8; stroke-linecap: square"/>
     </g>
     <g id="line2d_26">
      <g>
       <use xlink:href="#m1a6b7f5a44" x="91.416676" y="389.877656" style="stroke: #000000; stroke-width: 0.8"/>
      </g>
     </g>
     <g id="text_9">
      <!-- 0 -->
      <g transform="translate(88.235426 404.475312) scale(0.1 -0.1)">
       <use xlink:href="#DejaVuSans-13"/>
      </g>
     </g>
    </g>
    <g id="xtick_7">
     <g id="line2d_27">
      <path d="M 230.147042 389.877656 
L 230.147042 224.112336 
" clip-path="url(#p793c4151ea)" style="fill: none; stroke: #b0b0b0; stroke-opacity: 0.3; stroke-width: 0.8; stroke-linecap: square"/>
     </g>
     <g id="line2d_28">
      <g>
       <use xlink:href="#m1a6b7f5a44" x="230.147042" y="389.877656" style="stroke: #000000; stroke-width: 0.8"/>
      </g>
     </g>
     <g id="text_10">
      <!-- 20 -->
      <g transform="translate(223.784542 404.475312) scale(0.1 -0.1)">
       <use xlink:href="#DejaVuSans-15"/>
       <use xlink:href="#DejaVuSans-13" transform="translate(63.625 0)"/>
      </g>
     </g>
    </g>
    <g id="xtick_8">
     <g id="line2d_29">
      <path d="M 368.877408 389.877656 
L 368.877408 224.112336 
" clip-path="url(#p793c4151ea)" style="fill: none; stroke: #b0b0b0; stroke-opacity: 0.3; stroke-width: 0.8; stroke-linecap: square"/>
     </g>
     <g id="line2d_30">
      <g>
       <use xlink:href="#m1a6b7f5a44" x="368.877408" y="389.877656" style="stroke: #000000; stroke-width: 0.8"/>
      </g>
     </g>
     <g id="text_11">
      <!-- 40 -->
      <g transform="translate(362.514908 404.475312) scale(0.1 -0.1)">
       <defs>
        <path id="DejaVuSans-17" d="M 2419 4116 
L 825 1625 
L 2419 1625 
L 2419 4116 
z
M 2253 4666 
L 3047 4666 
L 3047 1625 
L 3713 1625 
L 3713 1100 
L 3047 1100 
L 3047 0 
L 2419 0 
L 2419 1100 
L 313 1100 
L 313 1709 
L 2253 4666 
z
" transform="scale(0.015625)"/>
       </defs>
       <use xlink:href="#DejaVuSans-17"/>
       <use xlink:href="#DejaVuSans-13" transform="translate(63.625 0)"/>
      </g>
     </g>
    </g>
    <g id="xtick_9">
     <g id="line2d_31">
      <path d="M 507.607775 389.877656 
L 507.607775 224.112336 
" clip-path="url(#p793c4151ea)" style="fill: none; stroke: #b0b0b0; stroke-opacity: 0.3; stroke-width: 0.8; stroke-linecap: square"/>
     </g>
     <g id="line2d_32">
      <g>
       <use xlink:href="#m1a6b7f5a44" x="507.607775" y="389.877656" style="stroke: #000000; stroke-width: 0.8"/>
      </g>
     </g>
     <g id="text_12">
      <!-- 60 -->
      <g transform="translate(501.245275 404.475312) scale(0.1 -0.1)">
       <use xlink:href="#DejaVuSans-19"/>
       <use xlink:href="#DejaVuSans-13" transform="translate(63.625 0)"/>
      </g>
     </g>
    </g>
    <g id="xtick_10">
     <g id="line2d_33">
      <path d="M 646.338141 389.877656 
L 646.338141 224.112336 
" clip-path="url(#p793c4151ea)" style="fill: none; stroke: #b0b0b0; stroke-opacity: 0.3; stroke-width: 0.8; stroke-linecap: square"/>
     </g>
     <g id="line2d_34">
      <g>
       <use xlink:href="#m1a6b7f5a44" x="646.338141" y="389.877656" style="stroke: #000000; stroke-width: 0.8"/>
      </g>
     </g>
     <g id="text_13">
      <!-- 80 -->
      <g transform="translate(639.975641 404.475312) scale(0.1 -0.1)">
       <use xlink:href="#DejaVuSans-1b"/>
       <use xlink:href="#DejaVuSans-13" transform="translate(63.625 0)"/>
      </g>
     </g>
    </g>
    <g id="text_14">
     <!-- minutos desde las 12:00 UTC -->
     <g transform="translate(330.4975 418.476094) scale(0.1 -0.1)">
      <defs>
       <path id="DejaVuSans-38" d="M 556 4666 
L 1191 4666 
L 1191 1831 
Q 1191 1081 1462 751 
Q 1734 422 2344 422 
Q 2950 422 3222 751 
Q 3494 1081 3494 1831 
L 3494 4666 
L 4128 4666 
L 4128 1753 
Q 4128 841 3676 375 
Q 3225 -91 2344 -91 
Q 1459 -91 1007 375 
Q 556 841 556 1753 
L 556 4666 
z
" transform="scale(0.015625)"/>
       <path id="DejaVuSans-37" d="M -19 4666 
L 3928 4666 
L 3928 4134 
L 2272 4134 
L 2272 0 
L 1638 0 
L 1638 4134 
L -19 4134 
L -19 4666 
z
" transform="scale(0.015625)"/>
       <path id="DejaVuSans-26" d="M 4122 4306 
L 4122 3641 
Q 3803 3938 3442 4084 
Q 3081 4231 2675 4231 
Q 1875 4231 1450 3742 
Q 1025 3253 1025 2328 
Q 1025 1406 1450 917 
Q 1875 428 2675 428 
Q 3081 428 3442 575 
Q 3803 722 4122 1019 
L 4122 359 
Q 3791 134 3420 21 
Q 3050 -91 2638 -91 
Q 1578 -91 968 557 
Q 359 1206 359 2328 
Q 359 3453 968 4101 
Q 1578 4750 2638 4750 
Q 3056 4750 3426 4639 
Q 3797 4528 4122 4306 
z
" transform="scale(0.015625)"/>
      </defs>
      <use xlink:href="#DejaVuSans-50"/>
      <use xlink:href="#DejaVuSans-4c" transform="translate(97.40625 0)"/>
      <use xlink:href="#DejaVuSans-51" transform="translate(125.1875 0)"/>
      <use xlink:href="#DejaVuSans-58" transform="translate(188.5625 0)"/>
      <use xlink:href="#DejaVuSans-57" transform="translate(251.9375 0)"/>
      <use xlink:href="#DejaVuSans-52" transform="translate(291.140625 0)"/>
      <use xlink:href="#DejaVuSans-56" transform="translate(352.328125 0)"/>
      <use xlink:href="#DejaVuSans-3" transform="translate(404.421875 0)"/>
      <use xlink:href="#DejaVuSans-47" transform="translate(436.203125 0)"/>
      <use xlink:href="#DejaVuSans-48" transform="translate(499.6875 0)"/>
      <use xlink:href="#DejaVuSans-56" transform="translate(561.21875 0)"/>
      <use xlink:href="#DejaVuSans-47" transform="translate(613.3125 0)"/>
      <use xlink:href="#DejaVuSans-48" transform="translate(676.796875 0)"/>
      <use xlink:href="#DejaVuSans-3" transform="translate(738.328125 0)"/>
      <use xlink:href="#DejaVuSans-4f" transform="translate(770.109375 0)"/>
      <use xlink:href="#DejaVuSans-44" transform="translate(797.890625 0)"/>
      <use xlink:href="#DejaVuSans-56" transform="translate(859.171875 0)"/>
      <use xlink:href="#DejaVuSans-3" transform="translate(911.265625 0)"/>
      <use xlink:href="#DejaVuSans-14" transform="translate(943.046875 0)"/>
      <use xlink:href="#DejaVuSans-15" transform="translate(1006.671875 0)"/>
      <use xlink:href="#DejaVuSans-1d" transform="translate(1070.296875 0)"/>
      <use xlink:href="#DejaVuSans-13" transform="translate(1103.984375 0)"/>
      <use xlink:href="#DejaVuSans-13" transform="translate(1167.609375 0)"/>
      <use xlink:href="#DejaVuSans-3" transform="translate(1231.234375 0)"/>
      <use xlink:href="#DejaVuSans-38" transform="translate(1263.015625 0)"/>
      <use xlink:href="#DejaVuSans-37" transform="translate(1336.203125 0)"/>
      <use xlink:href="#DejaVuSans-26" transform="translate(1391.421875 0)"/>
     </g>
    </g>
   </g>
   <g id="matplotlib.axis_4">
    <g id="ytick_6">
     <g id="line2d_35">
      <path d="M 60.202344 382.342869 
L 746.917656 382.342869 
" clip-path="url(#p793c4151ea)" style="fill: none; stroke: #b0b0b0; stroke-opacity: 0.3; stroke-width: 0.8; stroke-linecap: square"/>
     </g>
     <g id="line2d_36">
      <g>
       <use xlink:href="#m6cfe27720e" x="60.202344" y="382.342869" style="stroke: #000000; stroke-width: 0.8"/>
      </g>
     </g>
     <g id="text_15">
      <!-- −100 -->
      <g transform="translate(25.735156 386.141697) scale(0.1 -0.1)">
       <use xlink:href="#DejaVuSans-c9c"/>
       <use xlink:href="#DejaVuSans-14" transform="translate(83.796875 0)"/>
       <use xlink:href="#DejaVuSans-13" transform="translate(147.421875 0)"/>
       <use xlink:href="#DejaVuSans-13" transform="translate(211.046875 0)"/>
      </g>
     </g>
    </g>
    <g id="ytick_7">
     <g id="line2d_37">
      <path d="M 60.202344 344.668933 
L 746.917656 344.668933 
" clip-path="url(#p793c4151ea)" style="fill: none; stroke: #b0b0b0; stroke-opacity: 0.3; stroke-width: 0.8; stroke-linecap: square"/>
     </g>
     <g id="line2d_38">
      <g>
       <use xlink:href="#m6cfe27720e" x="60.202344" y="344.668933" style="stroke: #000000; stroke-width: 0.8"/>
      </g>
     </g>
     <g id="text_16">
      <!-- −50 -->
      <g transform="translate(32.097656 348.467761) scale(0.1 -0.1)">
       <use xlink:href="#DejaVuSans-c9c"/>
       <use xlink:href="#DejaVuSans-18" transform="translate(83.796875 0)"/>
       <use xlink:href="#DejaVuSans-13" transform="translate(147.421875 0)"/>
      </g>
     </g>
    </g>
    <g id="ytick_8">
     <g id="line2d_39">
      <path d="M 60.202344 306.994996 
L 746.917656 306.994996 
" clip-path="url(#p793c4151ea)" style="fill: none; stroke: #b0b0b0; stroke-opacity: 0.3; stroke-width: 0.8; stroke-linecap: square"/>
     </g>
     <g id="line2d_40">
      <g>
       <use xlink:href="#m6cfe27720e" x="60.202344" y="306.994996" style="stroke: #000000; stroke-width: 0.8"/>
      </g>
     </g>
     <g id="text_17">
      <!-- 0 -->
      <g transform="translate(46.839844 310.793824) scale(0.1 -0.1)">
       <use xlink:href="#DejaVuSans-13"/>
      </g>
     </g>
    </g>
    <g id="ytick_9">
     <g id="line2d_41">
      <path d="M 60.202344 269.32106 
L 746.917656 269.32106 
" clip-path="url(#p793c4151ea)" style="fill: none; stroke: #b0b0b0; stroke-opacity: 0.3; stroke-width: 0.8; stroke-linecap: square"/>
     </g>
     <g id="line2d_42">
      <g>
       <use xlink:href="#m6cfe27720e" x="60.202344" y="269.32106" style="stroke: #000000; stroke-width: 0.8"/>
      </g>
     </g>
     <g id="text_18">
      <!-- 50 -->
      <g transform="translate(40.477344 273.119888) scale(0.1 -0.1)">
       <use xlink:href="#DejaVuSans-18"/>
       <use xlink:href="#DejaVuSans-13" transform="translate(63.625 0)"/>
      </g>
     </g>
    </g>
    <g id="ytick_10">
     <g id="line2d_43">
      <path d="M 60.202344 231.647124 
L 746.917656 231.647124 
" clip-path="url(#p793c4151ea)" style="fill: none; stroke: #b0b0b0; stroke-opacity: 0.3; stroke-width: 0.8; stroke-linecap: square"/>
     </g>
     <g id="line2d_44">
      <g>
       <use xlink:href="#m6cfe27720e" x="60.202344" y="231.647124" style="stroke: #000000; stroke-width: 0.8"/>
      </g>
     </g>
     <g id="text_19">
      <!-- 100 -->
      <g transform="translate(34.114844 235.445952) scale(0.1 -0.1)">
       <use xlink:href="#DejaVuSans-14"/>
       <use xlink:href="#DejaVuSans-13" transform="translate(63.625 0)"/>
       <use xlink:href="#DejaVuSans-13" transform="translate(127.25 0)"/>
      </g>
     </g>
    </g>
    <g id="text_20">
     <!-- MP1 (cm) -->
     <g transform="translate(19.332813 330.615309) rotate(-90) scale(0.1 -0.1)">
      <use xlink:href="#DejaVuSans-30"/>
      <use xlink:href="#DejaVuSans-33" transform="translate(86.28125 0)"/>
      <use xlink:href="#DejaVuSans-14" transform="translate(146.578125 0)"/>
      <use xlink:href="#DejaVuSans-3" transform="translate(210.203125 0)"/>
      <use xlink:href="#DejaVuSans-b" transform="translate(241.984375 0)"/>
      <use xlink:href="#DejaVuSans-46" transform="translate(281 0)"/>
      <use xlink:href="#DejaVuSans-50" transform="translate(335.984375 0)"/>
      <use xlink:href="#DejaVuSans-c" transform="translate(433.390625 0)"/>
     </g>
    </g>
   </g>
   <g id="line2d_45">
    <path d="M 91.416676 286.349679 
L 94.884935 332.537925 
L 98.353194 305.337343 
L 101.821454 327.791009 
L 105.289713 307.522431 
L 108.757972 314.605132 
L 112.226231 305.337343 
L 115.69449 308.577302 
L 119.162749 296.823034 
L 122.631009 303.076907 
L 126.099268 329.071923 
L 129.567527 282.657634 
L 133.035786 309.782868 
L 136.504045 310.837738 
L 139.972304 312.344695 
L 143.440563 293.507727 
L 146.908823 326.660791 
L 150.377082 290.56916 
L 153.845341 288.308724 
L 157.3136 304.583864 
L 160.781859 311.214477 
L 164.250118 291.62403 
L 167.718378 297.501164 
L 171.186637 304.056429 
L 174.654896 295.54212 
L 178.123155 269.095016 
L 181.591414 289.891029 
L 185.059673 312.043304 
L 188.527932 367.273294 
L 191.996192 293.809119 
L 195.464451 310.234955 
L 198.93271 290.870552 
L 202.400969 294.11051 
L 205.869228 293.05564 
L 209.337487 288.534768 
L 212.805747 314.454436 
L 216.274006 289.815681 
L 219.742265 304.659212 
L 223.210524 300.289036 
L 226.678783 284.616678 
L 230.147042 343.764758 
L 233.615301 291.473335 
L 237.083561 309.933563 
L 240.55182 276.40376 
L 244.020079 304.809908 
L 247.488338 328.46914 
L 250.956597 319.95483 
L 254.424856 314.755827 
L 257.893116 326.3594 
L 261.361375 289.740334 
L 264.829634 293.281684 
L 268.297893 294.637945 
L 271.766152 300.289036 
L 275.234411 321.38644 
L 278.70267 345.799151 
L 282.17093 304.207125 
L 285.639189 287.479897 
L 289.107448 294.185858 
L 292.575707 265.101579 
L 296.043966 304.056429 
L 299.512225 295.617468 
L 302.980485 318.673917 
L 306.448744 327.941705 
L 309.917003 318.297177 
L 313.385262 322.516658 
L 316.853521 310.084259 
L 320.32178 288.308724 
L 323.790039 289.137551 
L 327.258299 291.548682 
L 330.726558 286.274331 
L 334.194817 303.302951 
L 337.663076 321.989223 
L 341.131335 319.2767 
L 344.599594 293.583075 
L 348.067854 303.981081 
L 351.536113 331.181663 
L 355.004372 307.597779 
L 358.472631 314.153044 
L 361.94089 324.098963 
L 365.409149 323.420833 
L 368.877408 320.482266 
L 375.813927 326.434748 
L 379.282186 345.573107 
L 382.750445 300.891819 
L 386.218704 311.81726 
L 389.686963 307.447084 
L 393.155223 286.349679 
L 396.623482 302.398776 
L 400.091741 291.774726 
L 403.56 320.33157 
L 407.028259 318.447873 
L 410.496518 275.34889 
L 413.964777 327.640313 
L 417.433037 317.166959 
L 420.901296 315.433958 
L 424.369555 269.245712 
L 427.837814 318.673917 
L 431.306073 324.475703 
L 434.774332 327.338922 
L 438.242592 317.468351 
L 441.710851 268.416886 
L 445.17911 274.821455 
L 448.647369 313.24887 
L 452.115628 370.437905 
L 455.583887 327.03753 
L 459.052146 314.002349 
L 462.520406 281.828807 
L 465.988665 306.467561 
L 469.456924 334.873709 
L 472.925183 323.87292 
L 476.393442 315.057219 
L 479.861701 270.526626 
L 483.329961 273.389845 
L 486.79822 336.456015 
M 493.734738 319.050656 
L 497.202997 288.08268 
L 500.671256 278.438153 
L 504.139515 326.133356 
L 507.607775 380.835912 
L 511.076034 345.422411 
L 514.544293 289.891029 
L 518.012552 275.273542 
L 521.480811 289.740334 
L 524.94907 341.278278 
L 528.41733 319.804135 
L 531.885589 278.362805 
L 535.353848 257.2654 
L 538.822107 292.00077 
L 542.290366 361.622204 
L 545.758625 325.379877 
L 549.226884 354.916243 
L 552.695144 288.986855 
L 556.163403 310.687042 
L 559.631662 305.563387 
L 563.099921 318.372525 
L 566.56818 355.142287 
L 570.036439 309.858216 
L 573.504699 302.097385 
L 576.972958 299.610905 
L 580.441217 333.894187 
L 583.909476 370.362557 
L 587.377735 314.906523 
L 590.845994 328.017053 
L 594.314253 302.24808 
L 597.782513 344.668933 
L 601.250772 334.346274 
L 604.719031 268.718277 
L 608.18729 300.289036 
L 611.655549 292.980292 
L 615.123808 287.630593 
L 618.592068 292.377509 
L 622.060327 306.467561 
L 625.528586 259.299793 
L 628.996845 257.2654 
L 632.465104 275.951673 
L 635.933363 251.086875 
L 639.401622 299.234165 
L 642.869882 287.479897 
L 646.338141 301.19321 
L 649.8064 282.130198 
L 653.274659 346.854021 
L 656.742918 312.043304 
L 660.211177 282.280894 
L 663.679437 277.081891 
L 667.147696 313.927001 
L 670.615955 334.949057 
L 674.084214 311.289825 
L 677.552473 293.884467 
L 681.020732 288.384072 
L 684.488991 322.81805 
L 687.957251 355.971114 
L 691.42551 317.468351 
L 694.893769 302.398776 
L 698.362028 307.296388 
L 701.830287 314.379088 
L 705.298546 302.323428 
L 708.766806 261.786273 
L 712.235065 310.008911 
L 715.703324 295.090032 
L 715.703324 295.090032 
" clip-path="url(#p793c4151ea)" style="fill: none; stroke: #d62728; stroke-opacity: 0.5; stroke-width: 0.7; stroke-linecap: square"/>
   </g>
   <g id="line2d_46">
    <path d="M 91.416676 308.074983 
L 94.884935 313.003989 
L 98.353194 311.907678 
L 101.821454 317.558768 
L 105.289713 312.118652 
L 108.757972 312.766643 
L 112.226231 306.573048 
L 115.69449 305.683943 
L 119.162749 308.577302 
L 122.631009 304.04136 
L 126.099268 304.282473 
L 129.567527 307.085414 
L 133.035786 308.938971 
L 136.504045 301.826132 
L 139.972304 310.626764 
L 143.440563 306.784022 
L 146.908823 302.27822 
L 150.377082 300.726053 
L 153.845341 304.267403 
L 157.3136 297.260051 
L 160.781859 298.646452 
L 164.250118 301.795993 
L 167.718378 299.987644 
L 171.186637 291.563752 
L 174.654896 291.217152 
L 178.123155 294.12558 
L 181.591414 306.768953 
L 185.059673 306.422353 
L 188.527932 314.65034 
L 191.996192 314.846245 
L 195.464451 311.259686 
L 198.93271 296.416155 
L 202.400969 295.361285 
L 205.869228 296.205181 
L 209.337487 295.994207 
L 212.805747 298.103947 
L 216.274006 299.550627 
L 219.742265 298.767009 
L 223.210524 304.629073 
L 226.678783 304.960604 
L 230.147042 306.015474 
L 233.615301 301.238419 
L 237.083561 305.277065 
L 240.55182 302.217941 
L 244.020079 307.91424 
L 247.488338 308.878693 
L 250.956597 318.869821 
L 254.424856 315.855906 
L 257.893116 308.818415 
L 261.361375 303.755038 
L 264.829634 300.86168 
L 268.297893 299.867088 
L 271.766152 311.078851 
L 275.234411 313.263939 
L 278.70267 311.83233 
L 282.17093 310.611694 
L 285.639189 299.354722 
L 289.107448 291.006178 
L 292.575707 289.288246 
L 296.043966 295.52705 
L 299.512225 302.27822 
L 302.980485 312.917339 
L 306.448744 316.609385 
L 309.917003 319.502743 
L 313.385262 313.429705 
L 316.853521 305.668874 
L 320.32178 300.319175 
L 323.790039 293.07071 
L 327.258299 291.714448 
L 330.726558 298.450548 
L 334.194817 304.478377 
L 337.663076 304.885256 
L 341.131335 308.426606 
L 344.599594 314.002349 
L 348.067854 311.12406 
L 351.536113 310.099329 
L 355.004372 316.202506 
L 358.472631 320.090457 
L 361.94089 317.950577 
L 365.409149 321.130257 
L 368.877408 323.586598 
L 372.345668 327.881427 
L 375.813927 323.375624 
L 379.282186 321.642623 
L 382.750445 318.432803 
L 386.218704 310.41579 
L 389.686963 301.780924 
L 393.155223 299.957505 
L 396.623482 301.660367 
L 400.091741 303.860525 
L 403.56 301.660367 
L 410.496518 311.787121 
L 413.964777 310.807599 
L 417.433037 300.967167 
L 420.901296 309.632172 
L 424.369555 308.99925 
L 427.837814 311.033642 
L 431.306073 311.440521 
L 434.774332 311.274756 
L 438.242592 302.504263 
L 441.710851 300.258897 
L 445.17911 308.878693 
L 448.647369 310.792529 
L 452.115628 319.909622 
L 455.583887 321.311092 
L 459.052146 319.95483 
L 462.520406 312.841991 
L 465.988665 312.209069 
L 469.456924 312.420043 
L 472.925183 310.159607 
L 476.393442 303.544064 
L 479.861701 303.860525 
L 483.329961 298.857426 
L 486.79822 299.855785 
L 490.266479 304.244799 
L 493.734738 305.506876 
L 497.202997 302.926211 
L 500.671256 318.508151 
L 504.139515 323.782502 
L 507.607775 324.144172 
L 511.076034 323.51125 
L 514.544293 316.232646 
L 518.012552 308.321119 
L 521.480811 303.197464 
L 524.94907 300.891819 
L 528.41733 297.29019 
L 531.885589 297.742278 
L 535.353848 301.811063 
L 538.822107 302.926211 
L 542.290366 318.236899 
L 545.758625 324.58119 
L 549.226884 328.318444 
L 552.695144 317.106681 
L 556.163403 315.70521 
L 559.631662 315.750419 
L 563.099921 319.924691 
L 566.56818 318.20676 
L 570.036439 317.016263 
L 576.972958 323.16465 
L 580.441217 324.174311 
L 583.909476 329.358245 
L 587.377735 329.88568 
L 590.845994 332.040629 
L 594.314253 324.837373 
L 597.782513 315.599723 
L 601.250772 310.05412 
L 604.719031 308.200562 
L 608.18729 296.792894 
L 611.655549 288.399141 
L 615.123808 295.948998 
L 618.592068 287.75115 
L 622.060327 280.608171 
L 625.528586 278.272387 
L 628.996845 270.01426 
L 632.465104 268.567581 
L 635.933363 274.203602 
L 639.401622 282.989164 
L 642.869882 284.224869 
L 646.338141 303.378298 
L 649.8064 305.940126 
L 653.274659 304.900326 
L 656.742918 300.078062 
L 660.211177 306.437422 
L 663.679437 304.056429 
L 667.147696 303.905734 
L 674.084214 308.486884 
L 677.552473 310.265094 
L 681.020732 314.469505 
L 684.488991 315.70521 
L 687.957251 317.408072 
L 691.42551 321.190536 
L 694.893769 319.502743 
L 698.362028 308.773206 
L 701.830287 297.636791 
L 705.298546 299.158818 
L 708.766806 296.717547 
L 712.235065 292.302161 
L 715.703324 288.961739 
L 715.703324 288.961739 
" clip-path="url(#p793c4151ea)" style="fill: none; stroke: #d62728; stroke-width: 1.8; stroke-linecap: square"/>
   </g>
   <g id="line2d_47">
    <path d="M 60.202344 306.994996 
L 746.917656 306.994996 
" clip-path="url(#p793c4151ea)" style="fill: none; stroke: #808080; stroke-width: 0.5; stroke-linecap: square"/>
   </g>
   <g id="patch_9">
    <path d="M 60.202344 389.877656 
L 60.202344 224.112336 
" style="fill: none; stroke: #000000; stroke-width: 0.8; stroke-linejoin: miter; stroke-linecap: square"/>
   </g>
   <g id="patch_10">
    <path d="M 746.917656 389.877656 
L 746.917656 224.112336 
" style="fill: none; stroke: #000000; stroke-width: 0.8; stroke-linejoin: miter; stroke-linecap: square"/>
   </g>
   <g id="patch_11">
    <path d="M 60.202344 389.877656 
L 746.917656 389.877656 
" style="fill: none; stroke: #000000; stroke-width: 0.8; stroke-linejoin: miter; stroke-linecap: square"/>
   </g>
   <g id="patch_12">
    <path d="M 60.202344 224.112336 
L 746.917656 224.112336 
" style="fill: none; stroke: #000000; stroke-width: 0.8; stroke-linejoin: miter; stroke-linecap: square"/>
   </g>
   <g id="legend_2">
    <g id="patch_13">
     <path d="M 65.802344 242.512961 
L 262.558594 242.512961 
Q 264.158594 242.512961 264.158594 240.912961 
L 264.158594 229.712336 
Q 264.158594 228.112336 262.558594 228.112336 
L 65.802344 228.112336 
Q 64.202344 228.112336 64.202344 229.712336 
L 64.202344 240.912961 
Q 64.202344 242.512961 65.802344 242.512961 
z
" style="fill: #ffffff; opacity: 0.8; stroke: #cccccc; stroke-linejoin: miter"/>
    </g>
    <g id="line2d_48">
     <path d="M 67.402344 234.591086 
L 75.402344 234.591086 
L 83.402344 234.591086 
" style="fill: none; stroke: #d62728; stroke-width: 1.8; stroke-linecap: square"/>
    </g>
    <g id="text_21">
     <!-- E30 (elev media 25°) — suavizado 2.5 min -->
     <g transform="translate(89.802344 237.391086) scale(0.08 -0.08)">
      <defs>
       <path id="DejaVuSans-16" d="M 2597 2516 
Q 3050 2419 3304 2112 
Q 3559 1806 3559 1356 
Q 3559 666 3084 287 
Q 2609 -91 1734 -91 
Q 1441 -91 1130 -33 
Q 819 25 488 141 
L 488 750 
Q 750 597 1062 519 
Q 1375 441 1716 441 
Q 2309 441 2620 675 
Q 2931 909 2931 1356 
Q 2931 1769 2642 2001 
Q 2353 2234 1838 2234 
L 1294 2234 
L 1294 2753 
L 1863 2753 
Q 2328 2753 2575 2939 
Q 2822 3125 2822 3475 
Q 2822 3834 2567 4026 
Q 2313 4219 1838 4219 
Q 1578 4219 1281 4162 
Q 984 4106 628 3988 
L 628 4550 
Q 988 4650 1302 4700 
Q 1616 4750 1894 4750 
Q 2613 4750 3031 4423 
Q 3450 4097 3450 3541 
Q 3450 3153 3228 2886 
Q 3006 2619 2597 2516 
z
" transform="scale(0.015625)"/>
      </defs>
      <use xlink:href="#DejaVuSans-28"/>
      <use xlink:href="#DejaVuSans-16" transform="translate(63.1875 0)"/>
      <use xlink:href="#DejaVuSans-13" transform="translate(126.8125 0)"/>
      <use xlink:href="#DejaVuSans-3" transform="translate(190.4375 0)"/>
      <use xlink:href="#DejaVuSans-b" transform="translate(222.21875 0)"/>
      <use xlink:href="#DejaVuSans-48" transform="translate(261.234375 0)"/>
      <use xlink:href="#DejaVuSans-4f" transform="translate(322.765625 0)"/>
      <use xlink:href="#DejaVuSans-48" transform="translate(350.546875 0)"/>
      <use xlink:href="#DejaVuSans-59" transform="translate(412.078125 0)"/>
      <use xlink:href="#DejaVuSans-3" transform="translate(471.265625 0)"/>
      <use xlink:href="#DejaVuSans-50" transform="translate(503.046875 0)"/>
      <use xlink:href="#DejaVuSans-48" transform="translate(600.453125 0)"/>
      <use xlink:href="#DejaVuSans-47" transform="translate(661.984375 0)"/>
      <use xlink:href="#DejaVuSans-4c" transform="translate(725.46875 0)"/>
      <use xlink:href="#DejaVuSans-44" transform="translate(753.25 0)"/>
      <use xlink:href="#DejaVuSans-3" transform="translate(814.53125 0)"/>
      <use xlink:href="#DejaVuSans-15" transform="translate(846.3125 0)"/>
      <use xlink:href="#DejaVuSans-18" transform="translate(909.9375 0)"/>
      <use xlink:href="#DejaVuSans-72" transform="translate(973.5625 0)"/>
      <use xlink:href="#DejaVuSans-c" transform="translate(1023.5625 0)"/>
      <use xlink:href="#DejaVuSans-3" transform="translate(1062.578125 0)"/>
      <use xlink:href="#DejaVuSans-af6" transform="translate(1094.359375 0)"/>
      <use xlink:href="#DejaVuSans-3" transform="translate(1194.359375 0)"/>
      <use xlink:href="#DejaVuSans-56" transform="translate(1226.140625 0)"/>
      <use xlink:href="#DejaVuSans-58" transform="translate(1278.234375 0)"/>
      <use xlink:href="#DejaVuSans-44" transform="translate(1341.609375 0)"/>
      <use xlink:href="#DejaVuSans-59" transform="translate(1402.890625 0)"/>
      <use xlink:href="#DejaVuSans-4c" transform="translate(1462.078125 0)"/>
      <use xlink:href="#DejaVuSans-5d" transform="translate(1489.859375 0)"/>
      <use xlink:href="#DejaVuSans-44" transform="translate(1542.34375 0)"/>
      <use xlink:href="#DejaVuSans-47" transform="translate(1603.625 0)"/>
      <use xlink:href="#DejaVuSans-52" transform="translate(1667.109375 0)"/>
      <use xlink:href="#DejaVuSans-3" transform="translate(1728.296875 0)"/>
      <use xlink:href="#DejaVuSans-15" transform="translate(1760.078125 0)"/>
      <use xlink:href="#DejaVuSans-11" transform="translate(1823.703125 0)"/>
      <use xlink:href="#DejaVuSans-18" transform="translate(1855.484375 0)"/>
      <use xlink:href="#DejaVuSans-3" transform="translate(1919.109375 0)"/>
      <use xlink:href="#DejaVuSans-50" transform="translate(1950.890625 0)"/>
      <use xlink:href="#DejaVuSans-4c" transform="translate(2048.296875 0)"/>
      <use xlink:href="#DejaVuSans-51" transform="translate(2076.078125 0)"/>
     </g>
    </g>
   </g>
  </g>
  <g id="axes_3">
   <g id="matplotlib.axis_5">
    <g id="ytick_11">
     <g id="line2d_49">
      <defs>
       <path id="m331e072b40" d="M 0 0 
L 3.5 0 
" style="stroke: #000000; stroke-width: 0.8"/>
      </defs>
      <g>
       <use xlink:href="#m331e072b40" x="746.917656" y="193.060873" style="stroke: #000000; stroke-width: 0.8"/>
      </g>
     </g>
     <g id="text_22">
      <!-- 62 -->
      <g transform="translate(753.917656 196.859701) scale(0.1 -0.1)">
       <use xlink:href="#DejaVuSans-19"/>
       <use xlink:href="#DejaVuSans-15" transform="translate(63.625 0)"/>
      </g>
     </g>
    </g>
    <g id="ytick_12">
     <g id="line2d_50">
      <g>
       <use xlink:href="#m331e072b40" x="746.917656" y="164.356921" style="stroke: #000000; stroke-width: 0.8"/>
      </g>
     </g>
     <g id="text_23">
      <!-- 64 -->
      <g transform="translate(753.917656 168.155749) scale(0.1 -0.1)">
       <use xlink:href="#DejaVuSans-19"/>
       <use xlink:href="#DejaVuSans-17" transform="translate(63.625 0)"/>
      </g>
     </g>
    </g>
    <g id="ytick_13">
     <g id="line2d_51">
      <g>
       <use xlink:href="#m331e072b40" x="746.917656" y="135.65297" style="stroke: #000000; stroke-width: 0.8"/>
      </g>
     </g>
     <g id="text_24">
      <!-- 66 -->
      <g transform="translate(753.917656 139.451798) scale(0.1 -0.1)">
       <use xlink:href="#DejaVuSans-19"/>
       <use xlink:href="#DejaVuSans-19" transform="translate(63.625 0)"/>
      </g>
     </g>
    </g>
    <g id="ytick_14">
     <g id="line2d_52">
      <g>
       <use xlink:href="#m331e072b40" x="746.917656" y="106.949018" style="stroke: #000000; stroke-width: 0.8"/>
      </g>
     </g>
     <g id="text_25">
      <!-- 68 -->
      <g transform="translate(753.917656 110.747846) scale(0.1 -0.1)">
       <use xlink:href="#DejaVuSans-19"/>
       <use xlink:href="#DejaVuSans-1b" transform="translate(63.625 0)"/>
      </g>
     </g>
    </g>
    <g id="ytick_15">
     <g id="line2d_53">
      <g>
       <use xlink:href="#m331e072b40" x="746.917656" y="78.245067" style="stroke: #000000; stroke-width: 0.8"/>
      </g>
     </g>
     <g id="text_26">
      <!-- 70 -->
      <g transform="translate(753.917656 82.043895) scale(0.1 -0.1)">
       <defs>
        <path id="DejaVuSans-1a" d="M 525 4666 
L 3525 4666 
L 3525 4397 
L 1831 0 
L 1172 0 
L 2766 4134 
L 525 4134 
L 525 4666 
z
" transform="scale(0.015625)"/>
       </defs>
       <use xlink:href="#DejaVuSans-1a"/>
       <use xlink:href="#DejaVuSans-13" transform="translate(63.625 0)"/>
      </g>
     </g>
    </g>
    <g id="ytick_16">
     <g id="line2d_54">
      <g>
       <use xlink:href="#m331e072b40" x="746.917656" y="49.541115" style="stroke: #000000; stroke-width: 0.8"/>
      </g>
     </g>
     <g id="text_27">
      <!-- 72 -->
      <g transform="translate(753.917656 53.339944) scale(0.1 -0.1)">
       <use xlink:href="#DejaVuSans-1a"/>
       <use xlink:href="#DejaVuSans-15" transform="translate(63.625 0)"/>
      </g>
     </g>
    </g>
    <g id="text_28">
     <!-- elevación (°) -->
     <g style="fill: #808080" transform="translate(778.641094 156.811644) rotate(-90) scale(0.1 -0.1)">
      <defs>
       <path id="DejaVuSans-b5" d="M 1959 3097 
Q 1497 3097 1228 2736 
Q 959 2375 959 1747 
Q 959 1119 1226 758 
Q 1494 397 1959 397 
Q 2419 397 2687 759 
Q 2956 1122 2956 1747 
Q 2956 2369 2687 2733 
Q 2419 3097 1959 3097 
z
M 1959 3584 
Q 2709 3584 3137 3096 
Q 3566 2609 3566 1747 
Q 3566 888 3137 398 
Q 2709 -91 1959 -91 
Q 1206 -91 779 398 
Q 353 888 353 1747 
Q 353 2609 779 3096 
Q 1206 3584 1959 3584 
z
M 2393 5119 
L 3015 5119 
L 1997 3944 
L 1518 3944 
L 2393 5119 
z
" transform="scale(0.015625)"/>
      </defs>
      <use xlink:href="#DejaVuSans-48"/>
      <use xlink:href="#DejaVuSans-4f" transform="translate(61.53125 0)"/>
      <use xlink:href="#DejaVuSans-48" transform="translate(89.3125 0)"/>
      <use xlink:href="#DejaVuSans-59" transform="translate(150.84375 0)"/>
      <use xlink:href="#DejaVuSans-44" transform="translate(210.03125 0)"/>
      <use xlink:href="#DejaVuSans-46" transform="translate(271.3125 0)"/>
      <use xlink:href="#DejaVuSans-4c" transform="translate(326.296875 0)"/>
      <use xlink:href="#DejaVuSans-b5" transform="translate(354.078125 0)"/>
      <use xlink:href="#DejaVuSans-51" transform="translate(415.265625 0)"/>
      <use xlink:href="#DejaVuSans-3" transform="translate(478.640625 0)"/>
      <use xlink:href="#DejaVuSans-b" transform="translate(510.421875 0)"/>
      <use xlink:href="#DejaVuSans-72" transform="translate(549.4375 0)"/>
      <use xlink:href="#DejaVuSans-c" transform="translate(599.4375 0)"/>
     </g>
    </g>
   </g>
   <g id="line2d_55">
    <path d="M 91.416676 200.236861 
L 129.567527 184.449687 
L 133.035786 184.449687 
L 174.654896 167.227316 
L 178.123155 167.227316 
L 209.337487 154.310538 
L 212.805747 154.310538 
L 240.55182 142.828958 
L 244.020079 142.828958 
L 268.297893 132.782575 
L 271.766152 132.782575 
L 292.575707 124.171389 
L 296.043966 124.171389 
L 313.385262 116.995401 
L 316.853521 116.995401 
L 330.726558 111.254611 
L 334.194817 111.254611 
L 348.067854 105.513821 
L 351.536113 105.513821 
L 361.94089 101.208228 
L 365.409149 101.208228 
L 375.813927 96.902635 
L 379.282186 96.902635 
L 389.686963 92.597043 
L 393.155223 92.597043 
L 400.091741 89.726647 
L 403.56 89.726647 
L 410.496518 86.856252 
L 413.964777 86.856252 
L 420.901296 83.985857 
L 424.369555 83.985857 
L 431.306073 81.115462 
L 434.774332 81.115462 
L 441.710851 78.245067 
L 445.17911 78.245067 
L 452.115628 75.374672 
L 455.583887 75.374672 
L 459.052146 73.939474 
L 462.520406 73.939474 
L 465.988665 72.504277 
L 469.456924 72.504277 
L 476.393442 69.633881 
L 479.861701 69.633881 
L 483.329961 68.198684 
L 486.79822 68.198684 
L 490.266479 66.763486 
L 493.734738 66.763486 
L 497.202997 65.328289 
L 500.671256 65.328289 
L 504.139515 63.893091 
L 507.607775 63.893091 
L 511.076034 62.457894 
L 518.012552 62.457894 
L 521.480811 61.022696 
L 524.94907 61.022696 
L 528.41733 59.587498 
L 531.885589 59.587498 
L 535.353848 58.152301 
L 542.290366 58.152301 
L 545.758625 56.717103 
L 552.695144 56.717103 
L 556.163403 55.281906 
L 563.099921 55.281906 
L 566.56818 53.846708 
L 576.972958 53.846708 
L 580.441217 52.411511 
L 594.314253 52.411511 
L 597.782513 50.976313 
L 622.060327 50.976313 
L 625.528586 49.541115 
L 660.211177 49.541115 
L 663.679437 50.976313 
L 687.957251 50.976313 
L 691.42551 52.411511 
L 701.830287 52.411511 
L 705.298546 53.846708 
L 715.703324 53.846708 
L 715.703324 53.846708 
" clip-path="url(#p3b77186b10)" style="fill: none; stroke-dasharray: 1,1.65; stroke-dashoffset: 0; stroke: #808080"/>
   </g>
   <g id="patch_14">
    <path d="M 60.202344 207.771648 
L 60.202344 42.006328 
" style="fill: none; stroke: #000000; stroke-width: 0.8; stroke-linejoin: miter; stroke-linecap: square"/>
   </g>
   <g id="patch_15">
    <path d="M 746.917656 207.771648 
L 746.917656 42.006328 
" style="fill: none; stroke: #000000; stroke-width: 0.8; stroke-linejoin: miter; stroke-linecap: square"/>
   </g>
   <g id="patch_16">
    <path d="M 60.202344 207.771648 
L 746.917656 207.771648 
" style="fill: none; stroke: #000000; stroke-width: 0.8; stroke-linejoin: miter; stroke-linecap: square"/>
   </g>
   <g id="patch_17">
    <path d="M 60.202344 42.006328 
L 746.917656 42.006328 
" style="fill: none; stroke: #000000; stroke-width: 0.8; stroke-linejoin: miter; stroke-linecap: square"/>
   </g>
  </g>
  <g id="axes_4">
   <g id="matplotlib.axis_6">
    <g id="ytick_17">
     <g id="line2d_56">
      <g>
       <use xlink:href="#m331e072b40" x="746.917656" y="366.221929" style="stroke: #000000; stroke-width: 0.8"/>
      </g>
     </g>
     <g id="text_29">
      <!-- 15 -->
      <g transform="translate(753.917656 370.020757) scale(0.1 -0.1)">
       <use xlink:href="#DejaVuSans-14"/>
       <use xlink:href="#DejaVuSans-18" transform="translate(63.625 0)"/>
      </g>
     </g>
    </g>
    <g id="ytick_18">
     <g id="line2d_57">
      <g>
       <use xlink:href="#m331e072b40" x="746.917656" y="331.176407" style="stroke: #000000; stroke-width: 0.8"/>
      </g>
     </g>
     <g id="text_30">
      <!-- 20 -->
      <g transform="translate(753.917656 334.975235) scale(0.1 -0.1)">
       <use xlink:href="#DejaVuSans-15"/>
       <use xlink:href="#DejaVuSans-13" transform="translate(63.625 0)"/>
      </g>
     </g>
    </g>
    <g id="ytick_19">
     <g id="line2d_58">
      <g>
       <use xlink:href="#m331e072b40" x="746.917656" y="296.130884" style="stroke: #000000; stroke-width: 0.8"/>
      </g>
     </g>
     <g id="text_31">
      <!-- 25 -->
      <g transform="translate(753.917656 299.929713) scale(0.1 -0.1)">
       <use xlink:href="#DejaVuSans-15"/>
       <use xlink:href="#DejaVuSans-18" transform="translate(63.625 0)"/>
      </g>
     </g>
    </g>
    <g id="ytick_20">
     <g id="line2d_59">
      <g>
       <use xlink:href="#m331e072b40" x="746.917656" y="261.085362" style="stroke: #000000; stroke-width: 0.8"/>
      </g>
     </g>
     <g id="text_32">
      <!-- 30 -->
      <g transform="translate(753.917656 264.88419) scale(0.1 -0.1)">
       <use xlink:href="#DejaVuSans-16"/>
       <use xlink:href="#DejaVuSans-13" transform="translate(63.625 0)"/>
      </g>
     </g>
    </g>
    <g id="ytick_21">
     <g id="line2d_60">
      <g>
       <use xlink:href="#m331e072b40" x="746.917656" y="226.03984" style="stroke: #000000; stroke-width: 0.8"/>
      </g>
     </g>
     <g id="text_33">
      <!-- 35 -->
      <g transform="translate(753.917656 229.838668) scale(0.1 -0.1)">
       <use xlink:href="#DejaVuSans-16"/>
       <use xlink:href="#DejaVuSans-18" transform="translate(63.625 0)"/>
      </g>
     </g>
    </g>
    <g id="text_34">
     <!-- elevación (°) -->
     <g style="fill: #808080" transform="translate(778.641094 338.917653) rotate(-90) scale(0.1 -0.1)">
      <use xlink:href="#DejaVuSans-48"/>
      <use xlink:href="#DejaVuSans-4f" transform="translate(61.53125 0)"/>
      <use xlink:href="#DejaVuSans-48" transform="translate(89.3125 0)"/>
      <use xlink:href="#DejaVuSans-59" transform="translate(150.84375 0)"/>
      <use xlink:href="#DejaVuSans-44" transform="translate(210.03125 0)"/>
      <use xlink:href="#DejaVuSans-46" transform="translate(271.3125 0)"/>
      <use xlink:href="#DejaVuSans-4c" transform="translate(326.296875 0)"/>
      <use xlink:href="#DejaVuSans-b5" transform="translate(354.078125 0)"/>
      <use xlink:href="#DejaVuSans-51" transform="translate(415.265625 0)"/>
      <use xlink:href="#DejaVuSans-3" transform="translate(478.640625 0)"/>
      <use xlink:href="#DejaVuSans-b" transform="translate(510.421875 0)"/>
      <use xlink:href="#DejaVuSans-72" transform="translate(549.4375 0)"/>
      <use xlink:href="#DejaVuSans-c" transform="translate(599.4375 0)"/>
     </g>
    </g>
   </g>
   <g id="line2d_61">
    <path d="M 91.416676 231.647124 
L 94.884935 232.348034 
L 98.353194 232.348034 
L 108.757972 234.450766 
L 112.226231 234.450766 
L 122.631009 236.553497 
L 126.099268 236.553497 
L 136.504045 238.656228 
L 139.972304 238.656228 
L 157.3136 242.16078 
L 160.781859 242.16078 
L 181.591414 246.366243 
L 185.059673 246.366243 
L 289.107448 267.393556 
L 292.575707 268.795377 
L 316.853521 273.70175 
L 320.32178 275.103571 
L 341.131335 279.309034 
L 344.599594 280.710855 
L 358.472631 283.514497 
L 361.94089 284.916317 
L 375.813927 287.719959 
L 379.282186 289.12178 
L 389.686963 291.224511 
L 393.155223 292.626332 
L 403.56 294.729064 
L 407.028259 296.130884 
L 417.433037 298.233616 
L 420.901296 299.635437 
L 427.837814 301.037258 
L 431.306073 302.439078 
L 441.710851 304.54181 
L 445.17911 305.943631 
L 452.115628 307.345452 
L 455.583887 308.747272 
L 462.520406 310.149093 
L 465.988665 311.550914 
L 472.925183 312.952735 
L 476.393442 314.354556 
L 483.329961 315.756377 
L 486.79822 317.158198 
L 493.734738 318.560019 
L 497.202997 319.96184 
L 504.139515 321.36366 
L 507.607775 322.765481 
L 514.544293 324.167302 
L 518.012552 325.569123 
L 524.94907 326.970944 
L 528.41733 328.372765 
L 531.885589 329.073675 
L 535.353848 330.475496 
L 542.290366 331.877317 
L 545.758625 333.279138 
L 552.695144 334.680959 
L 556.163403 336.08278 
L 559.631662 336.78369 
L 563.099921 338.185511 
L 570.036439 339.587332 
L 573.504699 340.989153 
L 576.972958 341.690063 
L 580.441217 343.091884 
L 587.377735 344.493705 
L 590.845994 345.895526 
L 594.314253 346.596436 
L 597.782513 347.998257 
L 601.250772 348.699168 
L 604.719031 350.100989 
L 611.655549 351.502809 
L 615.123808 352.90463 
L 618.592068 353.605541 
L 622.060327 355.007362 
L 625.528586 355.708272 
L 628.996845 357.110093 
L 635.933363 358.511914 
L 639.401622 359.913735 
L 642.869882 360.614645 
L 646.338141 362.016466 
L 649.8064 362.717377 
L 653.274659 364.119197 
L 660.211177 365.521018 
L 663.679437 366.922839 
L 667.147696 367.62375 
L 670.615955 369.025571 
L 674.084214 369.726481 
L 677.552473 371.128302 
L 681.020732 371.829212 
L 684.488991 373.231033 
L 691.42551 374.632854 
L 694.893769 376.034675 
L 698.362028 376.735585 
L 701.830287 378.137406 
L 705.298546 378.838317 
L 708.766806 380.240138 
L 712.235065 380.941048 
L 715.703324 382.342869 
L 715.703324 382.342869 
" clip-path="url(#p793c4151ea)" style="fill: none; stroke-dasharray: 1,1.65; stroke-dashoffset: 0; stroke: #808080"/>
   </g>
   <g id="patch_18">
    <path d="M 60.202344 389.877656 
L 60.202344 224.112336 
" style="fill: none; stroke: #000000; stroke-width: 0.8; stroke-linejoin: miter; stroke-linecap: square"/>
   </g>
   <g id="patch_19">
    <path d="M 746.917656 389.877656 
L 746.917656 224.112336 
" style="fill: none; stroke: #000000; stroke-width: 0.8; stroke-linejoin: miter; stroke-linecap: square"/>
   </g>
   <g id="patch_20">
    <path d="M 60.202344 389.877656 
L 746.917656 389.877656 
" style="fill: none; stroke: #000000; stroke-width: 0.8; stroke-linejoin: miter; stroke-linecap: square"/>
   </g>
   <g id="patch_21">
    <path d="M 60.202344 224.112336 
L 746.917656 224.112336 
" style="fill: none; stroke: #000000; stroke-width: 0.8; stroke-linejoin: miter; stroke-linecap: square"/>
   </g>
  </g>
 </g>
 <defs>
  <clipPath id="p3b77186b10">
   <rect x="60.202344" y="42.006328" width="686.715312" height="165.76532"/>
  </clipPath>
  <clipPath id="p793c4151ea">
   <rect x="60.202344" y="224.112336" width="686.715312" height="165.76532"/>
  </clipPath>
 </defs>
</svg>
