<?xml version="1.0" encoding="utf-8" standalone="no"?>
<!DOCTYPE svg PUBLIC "-//W3C//DTD SVG 1.1//EN"
  "http://www.w3.org/Graphics/SVG/1.1/DTD/svg11.dtd">
<svg xmlns:xlink="http://www.w3.org/1999/xlink" width="792pt" height="309.6pt" viewBox="0 0 792 309.6" xmlns="http://www.w3.org/2000/svg" version="1.1">
 <metadata>
  <rdf:RDF xmlns:dc="http://purl.org/dc/elements/1.1/" xmlns:cc="http://creativecommons.org/ns#" xmlns:rdf="http://www.w3.org/1999/02/22-rdf-syntax-ns#">
   <cc:Work>
    <dc:type rdf:resource="http://purl.org/dc/dcmitype/StillImage"/>
    <dc:date>2026-07-05T22:17:06.180188</dc:date>
    <dc:format>image/svg+xml</dc:format>
    <dc:creator>
     <cc:Agent>
      <dc:title>Matplotlib v3.11.0, https://matplotlib.org/</dc:title>
     </cc:Agent>
    </dc:creator>
   </cc:Work>
  </rdf:RDF>
 </metadata>
 <defs>
  <style type="text/css">*{stroke-linejoin: round; stroke-linecap: butt}</style>
 </defs>
 <g id="figure_1">
  <g id="patch_1">
   <path d="M 0 309.6 
L 792 309.6 
L 792 0 
L 0 0 
z
" style="fill: #ffffff"/>
  </g>
  <g id="axes_1">
   <g id="patch_2">
    <path d="M 53.722344 267.477656 
L 456.247531 267.477656 
L 456.247531 43.446328 
L 53.722344 43.446328 
z
" style="fill: #ffffff"/>
   </g>
   <g id="matplotlib.axis_1">
    <g id="xtick_1">
     <g id="line2d_1">
      <path d="M 73.848603 267.477656 
L 73.848603 43.446328 
" clip-path="url(#pf332b2ce8f)" style="fill: none; stroke: #b0b0b0; stroke-opacity: 0.3; stroke-width: 0.8; stroke-linecap: square"/>
     </g>
     <g id="line2d_2">
      <defs>
       <path id="m4988b46dde" d="M 0 0 
L 0 3.5 
" style="stroke: #000000; stroke-width: 0.8"/>
      </defs>
      <g>
       <use xlink:href="#m4988b46dde" x="73.848603" y="267.477656" style="stroke: #000000; stroke-width: 0.8"/>
      </g>
     </g>
     <g id="text_1">
      <!-- 720 -->
      <g transform="translate(64.304853 282.075312) scale(0.1 -0.1)">
       <defs>
        <path id="DejaVuSans-1a" d="M 525 4666 
L 3525 4666 
L 3525 4397 
L 1831 0 
L 1172 0 
L 2766 4134 
L 525 4134 
L 525 4666 
z
" transform="scale(0.015625)"/>
        <path id="DejaVuSans-15" d="M 1228 531 
L 3431 531 
L 3431 0 
L 469 0 
L 469 531 
Q 828 903 1448 1529 
Q 2069 2156 2228 2338 
Q 2531 2678 2651 2914 
Q 2772 3150 2772 3378 
Q 2772 3750 2511 3984 
Q 2250 4219 1831 4219 
Q 1534 4219 1204 4116 
Q 875 4013 500 3803 
L 500 4441 
Q 881 4594 1212 4672 
Q 1544 4750 1819 4750 
Q 2544 4750 2975 4387 
Q 3406 4025 3406 3419 
Q 3406 3131 3298 2873 
Q 3191 2616 2906 2266 
Q 2828 2175 2409 1742 
Q 1991 1309 1228 531 
z
" transform="scale(0.015625)"/>
        <path id="DejaVuSans-13" d="M 2034 4250 
Q 1547 4250 1301 3770 
Q 1056 3291 1056 2328 
Q 1056 1369 1301 889 
Q 1547 409 2034 409 
Q 2525 409 2770 889 
Q 3016 1369 3016 2328 
Q 3016 3291 2770 3770 
Q 2525 4250 2034 4250 
z
M 2034 4750 
Q 2819 4750 3233 4129 
Q 3647 3509 3647 2328 
Q 3647 1150 3233 529 
Q 2819 -91 2034 -91 
Q 1250 -91 836 529 
Q 422 1150 422 2328 
Q 422 3509 836 4129 
Q 1250 4750 2034 4750 
z
" transform="scale(0.015625)"/>
       </defs>
       <use xlink:href="#DejaVuSans-1a"/>
       <use xlink:href="#DejaVuSans-15" transform="translate(63.625 0)"/>
       <use xlink:href="#DejaVuSans-13" transform="translate(127.25 0)"/>
      </g>
     </g>
    </g>
    <g id="xtick_2">
     <g id="line2d_3">
      <path d="M 154.353641 267.477656 
L 154.353641 43.446328 
" clip-path="url(#pf332b2ce8f)" style="fill: none; stroke: #b0b0b0; stroke-opacity: 0.3; stroke-width: 0.8; stroke-linecap: square"/>
     </g>
     <g id="line2d_4">
      <g>
       <use xlink:href="#m4988b46dde" x="154.353641" y="267.477656" style="stroke: #000000; stroke-width: 0.8"/>
      </g>
     </g>
     <g id="text_2">
      <!-- 740 -->
      <g transform="translate(144.809891 282.075312) scale(0.1 -0.1)">
       <defs>
        <path id="DejaVuSans-17" d="M 2419 4116 
L 825 1625 
L 2419 1625 
L 2419 4116 
z
M 2253 4666 
L 3047 4666 
L 3047 1625 
L 3713 1625 
L 3713 1100 
L 3047 1100 
L 3047 0 
L 2419 0 
L 2419 1100 
L 313 1100 
L 313 1709 
L 2253 4666 
z
" transform="scale(0.015625)"/>
       </defs>
       <use xlink:href="#DejaVuSans-1a"/>
       <use xlink:href="#DejaVuSans-17" transform="translate(63.625 0)"/>
       <use xlink:href="#DejaVuSans-13" transform="translate(127.25 0)"/>
      </g>
     </g>
    </g>
    <g id="xtick_3">
     <g id="line2d_5">
      <path d="M 234.858678 267.477656 
L 234.858678 43.446328 
" clip-path="url(#pf332b2ce8f)" style="fill: none; stroke: #b0b0b0; stroke-opacity: 0.3; stroke-width: 0.8; stroke-linecap: square"/>
     </g>
     <g id="line2d_6">
      <g>
       <use xlink:href="#m4988b46dde" x="234.858678" y="267.477656" style="stroke: #000000; stroke-width: 0.8"/>
      </g>
     </g>
     <g id="text_3">
      <!-- 760 -->
      <g transform="translate(225.314928 282.075312) scale(0.1 -0.1)">
       <defs>
        <path id="DejaVuSans-19" d="M 2113 2584 
Q 1688 2584 1439 2293 
Q 1191 2003 1191 1497 
Q 1191 994 1439 701 
Q 1688 409 2113 409 
Q 2538 409 2786 701 
Q 3034 994 3034 1497 
Q 3034 2003 2786 2293 
Q 2538 2584 2113 2584 
z
M 3366 4563 
L 3366 3988 
Q 3128 4100 2886 4159 
Q 2644 4219 2406 4219 
Q 1781 4219 1451 3797 
Q 1122 3375 1075 2522 
Q 1259 2794 1537 2939 
Q 1816 3084 2150 3084 
Q 2853 3084 3261 2657 
Q 3669 2231 3669 1497 
Q 3669 778 3244 343 
Q 2819 -91 2113 -91 
Q 1303 -91 875 529 
Q 447 1150 447 2328 
Q 447 3434 972 4092 
Q 1497 4750 2381 4750 
Q 2619 4750 2861 4703 
Q 3103 4656 3366 4563 
z
" transform="scale(0.015625)"/>
       </defs>
       <use xlink:href="#DejaVuSans-1a"/>
       <use xlink:href="#DejaVuSans-19" transform="translate(63.625 0)"/>
       <use xlink:href="#DejaVuSans-13" transform="translate(127.25 0)"/>
      </g>
     </g>
    </g>
    <g id="xtick_4">
     <g id="line2d_7">
      <path d="M 315.363716 267.477656 
L 315.363716 43.446328 
" clip-path="url(#pf332b2ce8f)" style="fill: none; stroke: #b0b0b0; stroke-opacity: 0.3; stroke-width: 0.8; stroke-linecap: square"/>
     </g>
     <g id="line2d_8">
      <g>
       <use xlink:href="#m4988b46dde" x="315.363716" y="267.477656" style="stroke: #000000; stroke-width: 0.8"/>
      </g>
     </g>
     <g id="text_4">
      <!-- 780 -->
      <g transform="translate(305.819966 282.075312) scale(0.1 -0.1)">
       <defs>
        <path id="DejaVuSans-1b" d="M 2034 2216 
Q 1584 2216 1326 1975 
Q 1069 1734 1069 1313 
Q 1069 891 1326 650 
Q 1584 409 2034 409 
Q 2484 409 2743 651 
Q 3003 894 3003 1313 
Q 3003 1734 2745 1975 
Q 2488 2216 2034 2216 
z
M 1403 2484 
Q 997 2584 770 2862 
Q 544 3141 544 3541 
Q 544 4100 942 4425 
Q 1341 4750 2034 4750 
Q 2731 4750 3128 4425 
Q 3525 4100 3525 3541 
Q 3525 3141 3298 2862 
Q 3072 2584 2669 2484 
Q 3125 2378 3379 2068 
Q 3634 1759 3634 1313 
Q 3634 634 3220 271 
Q 2806 -91 2034 -91 
Q 1263 -91 848 271 
Q 434 634 434 1313 
Q 434 1759 690 2068 
Q 947 2378 1403 2484 
z
M 1172 3481 
Q 1172 3119 1398 2916 
Q 1625 2713 2034 2713 
Q 2441 2713 2670 2916 
Q 2900 3119 2900 3481 
Q 2900 3844 2670 4047 
Q 2441 4250 2034 4250 
Q 1625 4250 1398 4047 
Q 1172 3844 1172 3481 
z
" transform="scale(0.015625)"/>
       </defs>
       <use xlink:href="#DejaVuSans-1a"/>
       <use xlink:href="#DejaVuSans-1b" transform="translate(63.625 0)"/>
       <use xlink:href="#DejaVuSans-13" transform="translate(127.25 0)"/>
      </g>
     </g>
    </g>
    <g id="xtick_5">
     <g id="line2d_9">
      <path d="M 395.868753 267.477656 
L 395.868753 43.446328 
" clip-path="url(#pf332b2ce8f)" style="fill: none; stroke: #b0b0b0; stroke-opacity: 0.3; stroke-width: 0.8; stroke-linecap: square"/>
     </g>
     <g id="line2d_10">
      <g>
       <use xlink:href="#m4988b46dde" x="395.868753" y="267.477656" style="stroke: #000000; stroke-width: 0.8"/>
      </g>
     </g>
     <g id="text_5">
      <!-- 800 -->
      <g transform="translate(386.325003 282.075312) scale(0.1 -0.1)">
       <use xlink:href="#DejaVuSans-1b"/>
       <use xlink:href="#DejaVuSans-13" transform="translate(63.625 0)"/>
       <use xlink:href="#DejaVuSans-13" transform="translate(127.25 0)"/>
      </g>
     </g>
    </g>
    <g id="text_6">
     <!-- minutos del día (día 166) — series suavizadas 2.5 min -->
     <g transform="translate(119.218531 296.476094) scale(0.1 -0.1)">
      <defs>
       <path id="DejaVuSans-50" d="M 3328 2828 
Q 3544 3216 3844 3400 
Q 4144 3584 4550 3584 
Q 5097 3584 5394 3201 
Q 5691 2819 5691 2113 
L 5691 0 
L 5113 0 
L 5113 2094 
Q 5113 2597 4934 2840 
Q 4756 3084 4391 3084 
Q 3944 3084 3684 2787 
Q 3425 2491 3425 1978 
L 3425 0 
L 2847 0 
L 2847 2094 
Q 2847 2600 2669 2842 
Q 2491 3084 2119 3084 
Q 1678 3084 1418 2786 
Q 1159 2488 1159 1978 
L 1159 0 
L 581 0 
L 581 3500 
L 1159 3500 
L 1159 2956 
Q 1356 3278 1631 3431 
Q 1906 3584 2284 3584 
Q 2666 3584 2933 3390 
Q 3200 3197 3328 2828 
z
" transform="scale(0.015625)"/>
       <path id="DejaVuSans-4c" d="M 603 3500 
L 1178 3500 
L 1178 0 
L 603 0 
L 603 3500 
z
M 603 4863 
L 1178 4863 
L 1178 4134 
L 603 4134 
L 603 4863 
z
" transform="scale(0.015625)"/>
       <path id="DejaVuSans-51" d="M 3513 2113 
L 3513 0 
L 2938 0 
L 2938 2094 
Q 2938 2591 2744 2837 
Q 2550 3084 2163 3084 
Q 1697 3084 1428 2787 
Q 1159 2491 1159 1978 
L 1159 0 
L 581 0 
L 581 3500 
L 1159 3500 
L 1159 2956 
Q 1366 3272 1645 3428 
Q 1925 3584 2291 3584 
Q 2894 3584 3203 3211 
Q 3513 2838 3513 2113 
z
" transform="scale(0.015625)"/>
       <path id="DejaVuSans-58" d="M 544 1381 
L 544 3500 
L 1119 3500 
L 1119 1403 
Q 1119 906 1312 657 
Q 1506 409 1894 409 
Q 2359 409 2629 706 
Q 2900 1003 2900 1516 
L 2900 3500 
L 3475 3500 
L 3475 0 
L 2900 0 
L 2900 538 
Q 2691 219 2414 64 
Q 2138 -91 1772 -91 
Q 1169 -91 856 284 
Q 544 659 544 1381 
z
M 1991 3584 
L 1991 3584 
z
" transform="scale(0.015625)"/>
       <path id="DejaVuSans-57" d="M 1172 4494 
L 1172 3500 
L 2356 3500 
L 2356 3053 
L 1172 3053 
L 1172 1153 
Q 1172 725 1289 603 
Q 1406 481 1766 481 
L 2356 481 
L 2356 0 
L 1766 0 
Q 1100 0 847 248 
Q 594 497 594 1153 
L 594 3053 
L 172 3053 
L 172 3500 
L 594 3500 
L 594 4494 
L 1172 4494 
z
" transform="scale(0.015625)"/>
       <path id="DejaVuSans-52" d="M 1959 3097 
Q 1497 3097 1228 2736 
Q 959 2375 959 1747 
Q 959 1119 1226 758 
Q 1494 397 1959 397 
Q 2419 397 2687 759 
Q 2956 1122 2956 1747 
Q 2956 2369 2687 2733 
Q 2419 3097 1959 3097 
z
M 1959 3584 
Q 2709 3584 3137 3096 
Q 3566 2609 3566 1747 
Q 3566 888 3137 398 
Q 2709 -91 1959 -91 
Q 1206 -91 779 398 
Q 353 888 353 1747 
Q 353 2609 779 3096 
Q 1206 3584 1959 3584 
z
" transform="scale(0.015625)"/>
       <path id="DejaVuSans-56" d="M 2834 3397 
L 2834 2853 
Q 2591 2978 2328 3040 
Q 2066 3103 1784 3103 
Q 1356 3103 1142 2972 
Q 928 2841 928 2578 
Q 928 2378 1081 2264 
Q 1234 2150 1697 2047 
L 1894 2003 
Q 2506 1872 2764 1633 
Q 3022 1394 3022 966 
Q 3022 478 2636 193 
Q 2250 -91 1575 -91 
Q 1294 -91 989 -36 
Q 684 19 347 128 
L 347 722 
Q 666 556 975 473 
Q 1284 391 1588 391 
Q 1994 391 2212 530 
Q 2431 669 2431 922 
Q 2431 1156 2273 1281 
Q 2116 1406 1581 1522 
L 1381 1569 
Q 847 1681 609 1914 
Q 372 2147 372 2553 
Q 372 3047 722 3315 
Q 1072 3584 1716 3584 
Q 2034 3584 2315 3537 
Q 2597 3491 2834 3397 
z
" transform="scale(0.015625)"/>
       <path id="DejaVuSans-3" transform="scale(0.015625)"/>
       <path id="DejaVuSans-47" d="M 2906 2969 
L 2906 4863 
L 3481 4863 
L 3481 0 
L 2906 0 
L 2906 525 
Q 2725 213 2448 61 
Q 2172 -91 1784 -91 
Q 1150 -91 751 415 
Q 353 922 353 1747 
Q 353 2572 751 3078 
Q 1150 3584 1784 3584 
Q 2172 3584 2448 3432 
Q 2725 3281 2906 2969 
z
M 947 1747 
Q 947 1113 1208 752 
Q 1469 391 1925 391 
Q 2381 391 2643 752 
Q 2906 1113 2906 1747 
Q 2906 2381 2643 2742 
Q 2381 3103 1925 3103 
Q 1469 3103 1208 2742 
Q 947 2381 947 1747 
z
" transform="scale(0.015625)"/>
       <path id="DejaVuSans-48" d="M 3597 1894 
L 3597 1613 
L 953 1613 
Q 991 1019 1311 708 
Q 1631 397 2203 397 
Q 2534 397 2845 478 
Q 3156 559 3463 722 
L 3463 178 
Q 3153 47 2828 -22 
Q 2503 -91 2169 -91 
Q 1331 -91 842 396 
Q 353 884 353 1716 
Q 353 2575 817 3079 
Q 1281 3584 2069 3584 
Q 2775 3584 3186 3129 
Q 3597 2675 3597 1894 
z
M 3022 2063 
Q 3016 2534 2758 2815 
Q 2500 3097 2075 3097 
Q 1594 3097 1305 2825 
Q 1016 2553 972 2059 
L 3022 2063 
z
" transform="scale(0.015625)"/>
       <path id="DejaVuSans-4f" d="M 603 4863 
L 1178 4863 
L 1178 0 
L 603 0 
L 603 4863 
z
" transform="scale(0.015625)"/>
       <path id="DejaVuSans-af" d="M 1325 5119 
L 1947 5119 
L 929 3944 
L 450 3944 
L 1325 5119 
z
M 603 3500 
L 1178 3500 
L 1178 0 
L 603 0 
L 603 3500 
z
M 891 3584 
L 891 3584 
z
" transform="scale(0.015625)"/>
       <path id="DejaVuSans-44" d="M 2194 1759 
Q 1497 1759 1228 1600 
Q 959 1441 959 1056 
Q 959 750 1161 570 
Q 1363 391 1709 391 
Q 2188 391 2477 730 
Q 2766 1069 2766 1631 
L 2766 1759 
L 2194 1759 
z
M 3341 1997 
L 3341 0 
L 2766 0 
L 2766 531 
Q 2569 213 2275 61 
Q 1981 -91 1556 -91 
Q 1019 -91 701 211 
Q 384 513 384 1019 
Q 384 1609 779 1909 
Q 1175 2209 1959 2209 
L 2766 2209 
L 2766 2266 
Q 2766 2663 2505 2880 
Q 2244 3097 1772 3097 
Q 1472 3097 1187 3025 
Q 903 2953 641 2809 
L 641 3341 
Q 956 3463 1253 3523 
Q 1550 3584 1831 3584 
Q 2591 3584 2966 3190 
Q 3341 2797 3341 1997 
z
" transform="scale(0.015625)"/>
       <path id="DejaVuSans-b" d="M 1984 4856 
Q 1566 4138 1362 3434 
Q 1159 2731 1159 2009 
Q 1159 1288 1364 580 
Q 1569 -128 1984 -844 
L 1484 -844 
Q 1016 -109 783 600 
Q 550 1309 550 2009 
Q 550 2706 781 3412 
Q 1013 4119 1484 4856 
L 1984 4856 
z
" transform="scale(0.015625)"/>
       <path id="DejaVuSans-14" d="M 794 531 
L 1825 531 
L 1825 4091 
L 703 3866 
L 703 4441 
L 1819 4666 
L 2450 4666 
L 2450 531 
L 3481 531 
L 3481 0 
L 794 0 
L 794 531 
z
" transform="scale(0.015625)"/>
       <path id="DejaVuSans-c" d="M 513 4856 
L 1013 4856 
Q 1481 4119 1714 3412 
Q 1947 2706 1947 2009 
Q 1947 1309 1714 600 
Q 1481 -109 1013 -844 
L 513 -844 
Q 928 -128 1133 580 
Q 1338 1288 1338 2009 
Q 1338 2731 1133 3434 
Q 928 4138 513 4856 
z
" transform="scale(0.015625)"/>
       <path id="DejaVuSans-af6" d="M 313 1978 
L 6088 1978 
L 6088 1528 
L 313 1528 
L 313 1978 
z
" transform="scale(0.015625)"/>
       <path id="DejaVuSans-55" d="M 2631 2963 
Q 2534 3019 2420 3045 
Q 2306 3072 2169 3072 
Q 1681 3072 1420 2755 
Q 1159 2438 1159 1844 
L 1159 0 
L 581 0 
L 581 3500 
L 1159 3500 
L 1159 2956 
Q 1341 3275 1631 3429 
Q 1922 3584 2338 3584 
Q 2397 3584 2469 3576 
Q 2541 3569 2628 3553 
L 2631 2963 
z
" transform="scale(0.015625)"/>
       <path id="DejaVuSans-59" d="M 191 3500 
L 800 3500 
L 1894 563 
L 2988 3500 
L 3597 3500 
L 2284 0 
L 1503 0 
L 191 3500 
z
" transform="scale(0.015625)"/>
       <path id="DejaVuSans-5d" d="M 353 3500 
L 3084 3500 
L 3084 2975 
L 922 459 
L 3084 459 
L 3084 0 
L 275 0 
L 275 525 
L 2438 3041 
L 353 3041 
L 353 3500 
z
" transform="scale(0.015625)"/>
       <path id="DejaVuSans-11" d="M 684 794 
L 1344 794 
L 1344 0 
L 684 0 
L 684 794 
z
" transform="scale(0.015625)"/>
       <path id="DejaVuSans-18" d="M 691 4666 
L 3169 4666 
L 3169 4134 
L 1269 4134 
L 1269 2991 
Q 1406 3038 1543 3061 
Q 1681 3084 1819 3084 
Q 2600 3084 3056 2656 
Q 3513 2228 3513 1497 
Q 3513 744 3044 326 
Q 2575 -91 1722 -91 
Q 1428 -91 1123 -41 
Q 819 9 494 109 
L 494 744 
Q 775 591 1075 516 
Q 1375 441 1709 441 
Q 2250 441 2565 725 
Q 2881 1009 2881 1497 
Q 2881 1984 2565 2268 
Q 2250 2553 1709 2553 
Q 1456 2553 1204 2497 
Q 953 2441 691 2322 
L 691 4666 
z
" transform="scale(0.015625)"/>
      </defs>
      <use xlink:href="#DejaVuSans-50"/>
      <use xlink:href="#DejaVuSans-4c" transform="translate(97.40625 0)"/>
      <use xlink:href="#DejaVuSans-51" transform="translate(125.1875 0)"/>
      <use xlink:href="#DejaVuSans-58" transform="translate(188.5625 0)"/>
      <use xlink:href="#DejaVuSans-57" transform="translate(251.9375 0)"/>
      <use xlink:href="#DejaVuSans-52" transform="translate(291.140625 0)"/>
      <use xlink:href="#DejaVuSans-56" transform="translate(352.328125 0)"/>
      <use xlink:href="#DejaVuSans-3" transform="translate(404.421875 0)"/>
      <use xlink:href="#DejaVuSans-47" transform="translate(436.203125 0)"/>
      <use xlink:href="#DejaVuSans-48" transform="translate(499.6875 0)"/>
      <use xlink:href="#DejaVuSans-4f" transform="translate(561.21875 0)"/>
      <use xlink:href="#DejaVuSans-3" transform="translate(589 0)"/>
      <use xlink:href="#DejaVuSans-47" transform="translate(620.78125 0)"/>
      <use xlink:href="#DejaVuSans-af" transform="translate(684.265625 0)"/>
      <use xlink:href="#DejaVuSans-44" transform="translate(712.046875 0)"/>
      <use xlink:href="#DejaVuSans-3" transform="translate(773.328125 0)"/>
      <use xlink:href="#DejaVuSans-b" transform="translate(805.109375 0)"/>
      <use xlink:href="#DejaVuSans-47" transform="translate(844.125 0)"/>
      <use xlink:href="#DejaVuSans-af" transform="translate(907.609375 0)"/>
      <use xlink:href="#DejaVuSans-44" transform="translate(935.390625 0)"/>
      <use xlink:href="#DejaVuSans-3" transform="translate(996.671875 0)"/>
      <use xlink:href="#DejaVuSans-14" transform="translate(1028.453125 0)"/>
      <use xlink:href="#DejaVuSans-19" transform="translate(1092.078125 0)"/>
      <use xlink:href="#DejaVuSans-19" transform="translate(1155.703125 0)"/>
      <use xlink:href="#DejaVuSans-c" transform="translate(1219.328125 0)"/>
      <use xlink:href="#DejaVuSans-3" transform="translate(1258.34375 0)"/>
      <use xlink:href="#DejaVuSans-af6" transform="translate(1290.125 0)"/>
      <use xlink:href="#DejaVuSans-3" transform="translate(1390.125 0)"/>
      <use xlink:href="#DejaVuSans-56" transform="translate(1421.90625 0)"/>
      <use xlink:href="#DejaVuSans-48" transform="translate(1474 0)"/>
      <use xlink:href="#DejaVuSans-55" transform="translate(1535.53125 0)"/>
      <use xlink:href="#DejaVuSans-4c" transform="translate(1576.640625 0)"/>
      <use xlink:href="#DejaVuSans-48" transform="translate(1604.421875 0)"/>
      <use xlink:href="#DejaVuSans-56" transform="translate(1665.953125 0)"/>
      <use xlink:href="#DejaVuSans-3" transform="translate(1718.046875 0)"/>
      <use xlink:href="#DejaVuSans-56" transform="translate(1749.828125 0)"/>
      <use xlink:href="#DejaVuSans-58" transform="translate(1801.921875 0)"/>
      <use xlink:href="#DejaVuSans-44" transform="translate(1865.296875 0)"/>
      <use xlink:href="#DejaVuSans-59" transform="translate(1926.578125 0)"/>
      <use xlink:href="#DejaVuSans-4c" transform="translate(1985.765625 0)"/>
      <use xlink:href="#DejaVuSans-5d" transform="translate(2013.546875 0)"/>
      <use xlink:href="#DejaVuSans-44" transform="translate(2066.03125 0)"/>
      <use xlink:href="#DejaVuSans-47" transform="translate(2127.3125 0)"/>
      <use xlink:href="#DejaVuSans-44" transform="translate(2190.796875 0)"/>
      <use xlink:href="#DejaVuSans-56" transform="translate(2252.078125 0)"/>
      <use xlink:href="#DejaVuSans-3" transform="translate(2304.171875 0)"/>
      <use xlink:href="#DejaVuSans-15" transform="translate(2335.953125 0)"/>
      <use xlink:href="#DejaVuSans-11" transform="translate(2399.578125 0)"/>
      <use xlink:href="#DejaVuSans-18" transform="translate(2431.359375 0)"/>
      <use xlink:href="#DejaVuSans-3" transform="translate(2494.984375 0)"/>
      <use xlink:href="#DejaVuSans-50" transform="translate(2526.765625 0)"/>
      <use xlink:href="#DejaVuSans-4c" transform="translate(2624.171875 0)"/>
      <use xlink:href="#DejaVuSans-51" transform="translate(2651.953125 0)"/>
     </g>
    </g>
   </g>
   <g id="matplotlib.axis_2">
    <g id="ytick_1">
     <g id="line2d_11">
      <path d="M 53.722344 257.294414 
L 456.247531 257.294414 
" clip-path="url(#pf332b2ce8f)" style="fill: none; stroke: #b0b0b0; stroke-opacity: 0.3; stroke-width: 0.8; stroke-linecap: square"/>
     </g>
     <g id="line2d_12">
      <defs>
       <path id="me2e11d2bf3" d="M 0 0 
L -3.5 0 
" style="stroke: #000000; stroke-width: 0.8"/>
      </defs>
      <g>
       <use xlink:href="#me2e11d2bf3" x="53.722344" y="257.294414" style="stroke: #000000; stroke-width: 0.8"/>
      </g>
     </g>
     <g id="text_7">
      <!-- −40 -->
      <g transform="translate(25.617656 261.093242) scale(0.1 -0.1)">
       <defs>
        <path id="DejaVuSans-c9c" d="M 678 2272 
L 4684 2272 
L 4684 1741 
L 678 1741 
L 678 2272 
z
" transform="scale(0.015625)"/>
       </defs>
       <use xlink:href="#DejaVuSans-c9c"/>
       <use xlink:href="#DejaVuSans-17" transform="translate(83.796875 0)"/>
       <use xlink:href="#DejaVuSans-13" transform="translate(147.421875 0)"/>
      </g>
     </g>
    </g>
    <g id="ytick_2">
     <g id="line2d_13">
      <path d="M 53.722344 213.41295 
L 456.247531 213.41295 
" clip-path="url(#pf332b2ce8f)" style="fill: none; stroke: #b0b0b0; stroke-opacity: 0.3; stroke-width: 0.8; stroke-linecap: square"/>
     </g>
     <g id="line2d_14">
      <g>
       <use xlink:href="#me2e11d2bf3" x="53.722344" y="213.41295" style="stroke: #000000; stroke-width: 0.8"/>
      </g>
     </g>
     <g id="text_8">
      <!-- −20 -->
      <g transform="translate(25.617656 217.211778) scale(0.1 -0.1)">
       <use xlink:href="#DejaVuSans-c9c"/>
       <use xlink:href="#DejaVuSans-15" transform="translate(83.796875 0)"/>
       <use xlink:href="#DejaVuSans-13" transform="translate(147.421875 0)"/>
      </g>
     </g>
    </g>
    <g id="ytick_3">
     <g id="line2d_15">
      <path d="M 53.722344 169.531487 
L 456.247531 169.531487 
" clip-path="url(#pf332b2ce8f)" style="fill: none; stroke: #b0b0b0; stroke-opacity: 0.3; stroke-width: 0.8; stroke-linecap: square"/>
     </g>
     <g id="line2d_16">
      <g>
       <use xlink:href="#me2e11d2bf3" x="53.722344" y="169.531487" style="stroke: #000000; stroke-width: 0.8"/>
      </g>
     </g>
     <g id="text_9">
      <!-- 0 -->
      <g transform="translate(40.359844 173.330315) scale(0.1 -0.1)">
       <use xlink:href="#DejaVuSans-13"/>
      </g>
     </g>
    </g>
    <g id="ytick_4">
     <g id="line2d_17">
      <path d="M 53.722344 125.650023 
L 456.247531 125.650023 
" clip-path="url(#pf332b2ce8f)" style="fill: none; stroke: #b0b0b0; stroke-opacity: 0.3; stroke-width: 0.8; stroke-linecap: square"/>
     </g>
     <g id="line2d_18">
      <g>
       <use xlink:href="#me2e11d2bf3" x="53.722344" y="125.650023" style="stroke: #000000; stroke-width: 0.8"/>
      </g>
     </g>
     <g id="text_10">
      <!-- 20 -->
      <g transform="translate(33.997344 129.448851) scale(0.1 -0.1)">
       <use xlink:href="#DejaVuSans-15"/>
       <use xlink:href="#DejaVuSans-13" transform="translate(63.625 0)"/>
      </g>
     </g>
    </g>
    <g id="ytick_5">
     <g id="line2d_19">
      <path d="M 53.722344 81.768559 
L 456.247531 81.768559 
" clip-path="url(#pf332b2ce8f)" style="fill: none; stroke: #b0b0b0; stroke-opacity: 0.3; stroke-width: 0.8; stroke-linecap: square"/>
     </g>
     <g id="line2d_20">
      <g>
       <use xlink:href="#me2e11d2bf3" x="53.722344" y="81.768559" style="stroke: #000000; stroke-width: 0.8"/>
      </g>
     </g>
     <g id="text_11">
      <!-- 40 -->
      <g transform="translate(33.997344 85.567387) scale(0.1 -0.1)">
       <use xlink:href="#DejaVuSans-17"/>
       <use xlink:href="#DejaVuSans-13" transform="translate(63.625 0)"/>
      </g>
     </g>
    </g>
    <g id="text_12">
     <!-- MP1 (cm) -->
     <g transform="translate(19.215313 179.082305) rotate(-90) scale(0.1 -0.1)">
      <defs>
       <path id="DejaVuSans-30" d="M 628 4666 
L 1569 4666 
L 2759 1491 
L 3956 4666 
L 4897 4666 
L 4897 0 
L 4281 0 
L 4281 4097 
L 3078 897 
L 2444 897 
L 1241 4097 
L 1241 0 
L 628 0 
L 628 4666 
z
" transform="scale(0.015625)"/>
       <path id="DejaVuSans-33" d="M 1259 4147 
L 1259 2394 
L 2053 2394 
Q 2494 2394 2734 2622 
Q 2975 2850 2975 3272 
Q 2975 3691 2734 3919 
Q 2494 4147 2053 4147 
L 1259 4147 
z
M 628 4666 
L 2053 4666 
Q 2838 4666 3239 4311 
Q 3641 3956 3641 3272 
Q 3641 2581 3239 2228 
Q 2838 1875 2053 1875 
L 1259 1875 
L 1259 0 
L 628 0 
L 628 4666 
z
" transform="scale(0.015625)"/>
       <path id="DejaVuSans-46" d="M 3122 3366 
L 3122 2828 
Q 2878 2963 2633 3030 
Q 2388 3097 2138 3097 
Q 1578 3097 1268 2742 
Q 959 2388 959 1747 
Q 959 1106 1268 751 
Q 1578 397 2138 397 
Q 2388 397 2633 464 
Q 2878 531 3122 666 
L 3122 134 
Q 2881 22 2623 -34 
Q 2366 -91 2075 -91 
Q 1284 -91 818 406 
Q 353 903 353 1747 
Q 353 2603 823 3093 
Q 1294 3584 2113 3584 
Q 2378 3584 2631 3529 
Q 2884 3475 3122 3366 
z
" transform="scale(0.015625)"/>
      </defs>
      <use xlink:href="#DejaVuSans-30"/>
      <use xlink:href="#DejaVuSans-33" transform="translate(86.28125 0)"/>
      <use xlink:href="#DejaVuSans-14" transform="translate(146.578125 0)"/>
      <use xlink:href="#DejaVuSans-3" transform="translate(210.203125 0)"/>
      <use xlink:href="#DejaVuSans-b" transform="translate(241.984375 0)"/>
      <use xlink:href="#DejaVuSans-46" transform="translate(281 0)"/>
      <use xlink:href="#DejaVuSans-50" transform="translate(335.984375 0)"/>
      <use xlink:href="#DejaVuSans-c" transform="translate(433.390625 0)"/>
     </g>
    </g>
   </g>
   <g id="line2d_21">
    <path d="M 73.848603 172.676325 
L 75.861229 187.02922 
L 77.873855 183.836844 
L 79.886481 200.292393 
L 81.899107 184.451184 
L 83.911733 186.338087 
L 85.924359 168.302806 
L 87.936985 165.713799 
L 89.949611 174.13904 
L 91.962237 160.93072 
L 93.974863 161.632823 
L 95.987488 169.794775 
L 98.000114 175.192195 
L 100.01274 154.480144 
L 102.025366 180.106919 
L 104.037992 168.917146 
L 106.050618 155.796588 
L 108.063244 151.276798 
L 110.07587 161.588942 
L 112.088496 141.184061 
L 114.101122 145.221156 
L 116.113748 154.392382 
L 118.126374 149.126606 
L 120.139 124.596868 
L 122.151626 123.587594 
L 124.164252 132.056716 
L 126.176878 168.873265 
L 128.189503 167.863991 
L 130.202129 191.82327 
L 132.214755 192.393729 
L 134.227381 181.949941 
L 136.240007 138.726699 
L 138.252633 135.654996 
L 140.265259 138.112358 
L 142.277885 137.498018 
L 144.290511 143.641423 
L 146.303137 147.854043 
L 148.315763 145.572207 
L 150.328389 162.642097 
L 152.341015 163.607489 
L 154.353641 166.679191 
L 156.366267 152.768767 
L 158.378893 164.529 
L 160.391518 155.621062 
L 162.404144 172.208256 
L 164.41677 175.016669 
L 166.429396 204.11008 
L 168.442022 195.333787 
L 170.454648 174.841144 
L 172.467274 160.096972 
L 174.4799 151.671731 
L 176.492526 148.775554 
L 178.505152 181.423363 
L 180.517778 187.786175 
L 182.530404 183.617436 
L 184.54303 180.063038 
L 186.555656 147.283584 
L 188.568282 122.973253 
L 190.580908 117.970767 
L 192.593533 136.137693 
L 194.606159 155.796588 
L 196.618785 186.776902 
L 198.631411 197.52786 
L 200.644037 205.953101 
L 202.656663 188.268872 
L 204.669289 165.669918 
L 206.681915 150.091998 
L 208.694541 128.985014 
L 210.707167 125.035682 
L 212.719793 144.650697 
L 214.732419 162.203282 
L 216.745045 163.388082 
L 218.757671 173.700226 
L 220.770297 189.936367 
L 222.782923 181.555008 
L 224.795548 178.571068 
L 226.808174 196.343061 
L 228.8208 207.664479 
L 230.833426 201.433311 
L 232.846052 210.6923 
L 234.858678 217.844978 
L 236.871304 230.351195 
L 238.88393 217.230638 
L 240.896556 212.184269 
L 242.909182 202.837518 
L 244.921808 179.492579 
L 246.934434 154.3485 
L 248.94706 149.038843 
L 250.959686 153.997448 
L 252.972312 160.404142 
L 254.984938 153.997448 
L 259.010189 183.485792 
L 261.022815 180.633497 
L 263.035441 151.978901 
L 265.048067 177.210743 
L 267.060693 175.367721 
L 269.073319 181.291719 
L 271.085945 182.476518 
L 273.098571 181.993822 
L 275.111197 156.45481 
L 277.123823 149.916472 
L 279.136449 175.016669 
L 281.149075 180.589615 
L 283.161701 207.137901 
L 285.174327 211.218877 
L 287.186953 207.269545 
L 289.199578 186.557494 
L 291.212204 184.714473 
L 293.22483 185.328813 
L 295.237456 178.746594 
L 297.250082 159.482631 
L 299.262708 160.404142 
L 301.275334 145.835496 
L 303.28796 148.742643 
L 305.300586 161.523119 
L 307.313212 165.198192 
L 309.325838 157.683491 
L 311.338464 203.056925 
L 313.35109 218.415437 
L 315.363716 219.468592 
L 317.376342 217.625571 
L 319.388968 196.430824 
L 321.401593 173.393055 
L 323.414219 158.473358 
L 325.426845 151.759494 
L 327.439471 141.271824 
L 329.452097 142.588268 
L 331.464723 154.436263 
L 333.477349 157.683491 
L 335.489975 202.267058 
L 337.502601 220.741155 
L 339.515227 231.623758 
L 341.527853 198.975949 
L 343.540479 194.894973 
L 345.553105 195.026617 
L 347.565731 207.181782 
L 349.578357 202.179296 
L 351.590983 198.71266 
L 355.616234 216.616297 
L 357.62886 219.556355 
L 359.641486 234.651579 
L 361.654112 236.18743 
L 363.666738 242.462479 
L 365.679364 221.48714 
L 367.69199 194.587802 
L 369.704616 178.439424 
L 371.717242 173.042004 
L 373.729868 139.823736 
L 375.742494 115.38176 
L 377.75512 137.366374 
L 379.767746 113.494857 
L 381.780372 92.695043 
L 383.792998 85.893417 
L 385.805623 61.846374 
L 387.818249 57.633754 
L 389.830875 74.045421 
L 391.843501 99.628315 
L 393.856127 103.226595 
L 395.868753 158.999935 
L 397.881379 166.459784 
L 399.894005 163.431963 
L 401.906631 149.389895 
L 403.919257 167.907872 
L 405.931883 160.974601 
L 407.944509 160.535786 
L 411.969761 173.875751 
L 413.982387 179.053764 
L 415.995013 191.296693 
L 418.007638 194.894973 
L 420.020264 199.853578 
L 422.03289 210.867825 
L 424.045516 205.953101 
L 428.070768 142.281098 
L 430.083394 146.713125 
L 432.09602 139.604328 
L 434.108646 126.747059 
L 436.121272 117.020002 
L 436.121272 117.020002 
" clip-path="url(#pf332b2ce8f)" style="fill: none; stroke: #1f77b4; stroke-width: 1.8; stroke-linecap: square"/>
   </g>
   <g id="line2d_22">
    <path d="M 55.73497 187.084072 
L 57.747596 182.037704 
L 59.760222 181.291719 
L 61.772848 195.11438 
L 63.785473 194.938854 
L 65.798099 193.92958 
L 67.810725 198.624897 
L 69.823351 192.086559 
L 71.835977 195.948128 
L 73.848603 185.855391 
L 75.861229 197.747268 
L 77.873855 195.026617 
L 79.886481 198.581016 
L 83.911733 187.786175 
L 85.924359 179.404816 
L 87.936985 175.674891 
L 89.949611 176.420876 
L 91.962237 165.845444 
L 93.974863 174.972788 
L 95.987488 155.928233 
L 98.000114 174.490092 
L 100.01274 169.04879 
L 102.025366 172.559308 
L 104.037992 158.692765 
L 106.050618 158.912172 
L 108.063244 150.618576 
L 110.07587 157.244677 
L 112.088496 150.794101 
L 114.101122 163.475845 
L 116.113748 177.342387 
L 118.126374 168.171161 
L 120.139 154.611789 
L 122.151626 137.585781 
L 124.164252 123.061016 
L 126.176878 137.84907 
L 128.189503 126.088837 
L 130.202129 151.452323 
L 132.214755 166.196495 
L 134.227381 176.728047 
L 136.240007 151.759494 
L 138.252633 159.921446 
L 140.265259 155.972114 
L 142.277885 167.469058 
L 144.290511 167.776228 
L 146.303137 181.949941 
L 148.315763 167.161887 
L 150.328389 155.873381 
L 152.341015 129.105688 
L 154.353641 124.991801 
L 156.366267 99.540552 
L 158.378893 128.995984 
L 160.391518 146.713125 
L 162.404144 154.216856 
L 164.41677 158.912172 
L 166.429396 180.063038 
L 168.442022 172.690952 
L 170.454648 162.993148 
L 172.467274 159.087698 
L 174.4799 145.96714 
L 176.492526 137.761307 
L 178.505152 153.295345 
L 180.517778 162.291045 
L 182.530404 190.375182 
L 184.54303 208.89316 
L 186.555656 187.873938 
L 188.568282 176.684165 
L 190.580908 157.244677 
L 192.593533 146.142666 
L 194.606159 153.339226 
L 196.618785 182.959214 
L 198.631411 189.322027 
L 200.644037 210.6923 
L 202.656663 213.983409 
L 204.669289 194.192869 
L 206.681915 159.702039 
L 208.694541 138.551173 
L 210.707167 115.162353 
L 212.719793 108.141319 
L 214.732419 136.093811 
L 216.745045 162.027756 
L 218.757671 184.714473 
L 220.770297 188.751568 
L 222.782923 179.009883 
L 224.795548 152.812649 
L 226.808174 163.783015 
L 228.8208 158.166187 
L 230.833426 180.370208 
L 232.846052 189.40979 
L 234.858678 213.149662 
L 236.871304 207.927767 
L 238.88393 202.223177 
L 240.896556 220.126814 
L 242.909182 211.174996 
L 244.921808 177.868965 
L 246.934434 170.409116 
L 248.94706 171.769441 
L 250.959686 138.024596 
L 252.972312 144.562934 
L 254.984938 132.802701 
L 256.997563 131.661783 
L 259.010189 144.738459 
L 261.022815 141.008535 
L 263.035441 136.225456 
L 265.048067 170.101946 
L 267.060693 193.271358 
L 269.073319 190.901759 
L 271.085945 215.299853 
L 273.098571 210.604537 
L 275.111197 200.687326 
L 277.123823 177.079098 
L 279.136449 179.84363 
L 281.149075 170.452997 
L 283.161701 198.756541 
L 285.174327 190.199656 
L 287.186953 189.146501 
L 289.199578 185.987035 
L 291.212204 194.412276 
L 293.22483 173.744107 
L 295.237456 187.61065 
L 297.250082 166.108732 
L 299.262708 169.882538 
L 301.275334 195.816483 
L 303.28796 214.90492 
L 305.300586 210.253485 
L 307.313212 211.789336 
L 309.325838 204.066199 
L 311.338464 183.661318 
L 313.35109 183.266385 
L 315.363716 159.658157 
L 317.376342 158.736646 
L 319.388968 122.007861 
L 321.401593 81.274892 
L 323.414219 53.62957 
L 325.426845 55.275125 
L 327.439471 62.789826 
L 331.464723 151.583968 
L 333.477349 187.786175 
L 335.489975 229.824618 
L 337.502601 236.757889 
L 339.515227 223.549568 
L 341.527853 199.590289 
L 343.540479 176.991335 
L 345.553105 205.338761 
L 347.565731 215.431498 
L 349.578357 208.673752 
L 351.590983 199.590289 
L 353.603608 195.42155 
L 355.616234 159.526513 
L 357.62886 151.540086 
L 359.641486 159.526513 
L 361.654112 161.896112 
L 363.666738 179.141527 
L 365.679364 182.783689 
L 367.69199 185.416576 
L 369.704616 199.502526 
L 371.717242 181.642771 
L 375.742494 105.464549 
L 377.75512 112.397821 
L 379.767746 90.160889 
L 381.780372 91.715024 
L 383.792998 117.678223 
L 385.805623 102.68539 
L 387.818249 58.950198 
L 389.830875 73.924747 
L 391.843501 82.251255 
L 393.856127 108.49237 
L 395.868753 144.738459 
L 397.881379 176.333113 
L 399.894005 171.330627 
L 401.906631 167.907872 
L 403.919257 124.158053 
L 405.931883 121.832335 
L 407.944509 118.453463 
L 409.957135 137.059203 
L 411.969761 165.318866 
L 413.982387 183.398029 
L 415.995013 209.375856 
L 418.007638 231.009417 
L 420.020264 257.294414 
L 422.03289 232.194217 
L 424.045516 249.132462 
L 426.058142 228.552055 
L 428.070768 218.5032 
L 430.083394 172.164374 
L 432.09602 180.852904 
L 434.108646 183.836844 
L 436.121272 192.174322 
L 438.133898 162.598215 
L 440.146524 174.665618 
L 442.15915 188.707686 
L 446.184402 155.63569 
L 448.197028 187.413183 
L 448.197028 187.413183 
" clip-path="url(#pf332b2ce8f)" style="fill: none; stroke: #ff7f0e; stroke-width: 1.8; stroke-linecap: square"/>
   </g>
   <g id="line2d_23">
    <path d="M 53.722344 169.531487 
L 456.247531 169.531487 
" clip-path="url(#pf332b2ce8f)" style="fill: none; stroke: #808080; stroke-width: 0.5; stroke-linecap: square"/>
   </g>
   <g id="patch_3">
    <path d="M 53.722344 267.477656 
L 53.722344 43.446328 
" style="fill: none; stroke: #000000; stroke-width: 0.8; stroke-linejoin: miter; stroke-linecap: square"/>
   </g>
   <g id="patch_4">
    <path d="M 456.247531 267.477656 
L 456.247531 43.446328 
" style="fill: none; stroke: #000000; stroke-width: 0.8; stroke-linejoin: miter; stroke-linecap: square"/>
   </g>
   <g id="patch_5">
    <path d="M 53.722344 267.477656 
L 456.247531 267.477656 
" style="fill: none; stroke: #000000; stroke-width: 0.8; stroke-linejoin: miter; stroke-linecap: square"/>
   </g>
   <g id="patch_6">
    <path d="M 53.722344 43.446328 
L 456.247531 43.446328 
" style="fill: none; stroke: #000000; stroke-width: 0.8; stroke-linejoin: miter; stroke-linecap: square"/>
   </g>
   <g id="text_13">
    <!-- El mismo reflejo, 10 días después: -->
    <g transform="translate(152.107437 22.563047) scale(0.12 -0.12)">
     <defs>
      <path id="DejaVuSans-28" d="M 628 4666 
L 3578 4666 
L 3578 4134 
L 1259 4134 
L 1259 2753 
L 3481 2753 
L 3481 2222 
L 1259 2222 
L 1259 531 
L 3634 531 
L 3634 0 
L 628 0 
L 628 4666 
z
" transform="scale(0.015625)"/>
      <path id="DejaVuSans-13b0" d="M 1831 4863 
L 3431 4863 
L 3431 0 
L 2853 0 
L 2853 4384 
L 1825 4384 
Q 1516 4384 1395 4259 
Q 1275 4134 1275 3809 
L 1275 3500 
L 2222 3500 
L 2222 3053 
L 1275 3053 
L 1275 0 
L 697 0 
L 697 3053 
L 147 3053 
L 147 3500 
L 697 3500 
L 697 3744 
Q 697 4328 969 4595 
Q 1241 4863 1831 4863 
z
" transform="scale(0.015625)"/>
      <path id="DejaVuSans-4d" d="M 603 3500 
L 1178 3500 
L 1178 -63 
Q 1178 -731 923 -1031 
Q 669 -1331 103 -1331 
L -116 -1331 
L -116 -844 
L 38 -844 
Q 366 -844 484 -692 
Q 603 -541 603 -63 
L 603 3500 
z
M 603 4863 
L 1178 4863 
L 1178 4134 
L 603 4134 
L 603 4863 
z
" transform="scale(0.015625)"/>
      <path id="DejaVuSans-f" d="M 750 794 
L 1409 794 
L 1409 256 
L 897 -744 
L 494 -744 
L 750 256 
L 750 794 
z
" transform="scale(0.015625)"/>
      <path id="DejaVuSans-53" d="M 1159 525 
L 1159 -1331 
L 581 -1331 
L 581 3500 
L 1159 3500 
L 1159 2969 
Q 1341 3281 1617 3432 
Q 1894 3584 2278 3584 
Q 2916 3584 3314 3078 
Q 3713 2572 3713 1747 
Q 3713 922 3314 415 
Q 2916 -91 2278 -91 
Q 1894 -91 1617 61 
Q 1341 213 1159 525 
z
M 3116 1747 
Q 3116 2381 2855 2742 
Q 2594 3103 2138 3103 
Q 1681 3103 1420 2742 
Q 1159 2381 1159 1747 
Q 1159 1113 1420 752 
Q 1681 391 2138 391 
Q 2594 391 2855 752 
Q 3116 1113 3116 1747 
z
" transform="scale(0.015625)"/>
      <path id="DejaVuSans-ab" d="M 3597 1894 
L 3597 1613 
L 953 1613 
Q 991 1019 1311 708 
Q 1631 397 2203 397 
Q 2534 397 2845 478 
Q 3156 559 3463 722 
L 3463 178 
Q 3153 47 2828 -22 
Q 2503 -91 2169 -91 
Q 1331 -91 842 396 
Q 353 884 353 1716 
Q 353 2575 817 3079 
Q 1281 3584 2069 3584 
Q 2775 3584 3186 3129 
Q 3597 2675 3597 1894 
z
M 3022 2063 
Q 3016 2534 2758 2815 
Q 2500 3097 2075 3097 
Q 1594 3097 1305 2825 
Q 1016 2553 972 2059 
L 3022 2063 
z
M 2468 5119 
L 3090 5119 
L 2072 3944 
L 1593 3944 
L 2468 5119 
z
" transform="scale(0.015625)"/>
      <path id="DejaVuSans-1d" d="M 750 794 
L 1409 794 
L 1409 0 
L 750 0 
L 750 794 
z
M 750 3309 
L 1409 3309 
L 1409 2516 
L 750 2516 
L 750 3309 
z
" transform="scale(0.015625)"/>
     </defs>
     <use xlink:href="#DejaVuSans-28"/>
     <use xlink:href="#DejaVuSans-4f" transform="translate(63.1875 0)"/>
     <use xlink:href="#DejaVuSans-3" transform="translate(90.96875 0)"/>
     <use xlink:href="#DejaVuSans-50" transform="translate(122.75 0)"/>
     <use xlink:href="#DejaVuSans-4c" transform="translate(220.15625 0)"/>
     <use xlink:href="#DejaVuSans-56" transform="translate(247.9375 0)"/>
     <use xlink:href="#DejaVuSans-50" transform="translate(300.03125 0)"/>
     <use xlink:href="#DejaVuSans-52" transform="translate(397.4375 0)"/>
     <use xlink:href="#DejaVuSans-3" transform="translate(458.625 0)"/>
     <use xlink:href="#DejaVuSans-55" transform="translate(490.40625 0)"/>
     <use xlink:href="#DejaVuSans-48" transform="translate(529.3125 0)"/>
     <use xlink:href="#DejaVuSans-13b0" transform="translate(590.84375 0)"/>
     <use xlink:href="#DejaVuSans-48" transform="translate(653.828125 0)"/>
     <use xlink:href="#DejaVuSans-4d" transform="translate(715.359375 0)"/>
     <use xlink:href="#DejaVuSans-52" transform="translate(743.140625 0)"/>
     <use xlink:href="#DejaVuSans-f" transform="translate(804.328125 0)"/>
     <use xlink:href="#DejaVuSans-3" transform="translate(836.109375 0)"/>
     <use xlink:href="#DejaVuSans-14" transform="translate(867.890625 0)"/>
     <use xlink:href="#DejaVuSans-13" transform="translate(931.515625 0)"/>
     <use xlink:href="#DejaVuSans-3" transform="translate(995.140625 0)"/>
     <use xlink:href="#DejaVuSans-47" transform="translate(1026.921875 0)"/>
     <use xlink:href="#DejaVuSans-af" transform="translate(1090.40625 0)"/>
     <use xlink:href="#DejaVuSans-44" transform="translate(1118.1875 0)"/>
     <use xlink:href="#DejaVuSans-56" transform="translate(1179.46875 0)"/>
     <use xlink:href="#DejaVuSans-3" transform="translate(1231.5625 0)"/>
     <use xlink:href="#DejaVuSans-47" transform="translate(1263.34375 0)"/>
     <use xlink:href="#DejaVuSans-48" transform="translate(1326.828125 0)"/>
     <use xlink:href="#DejaVuSans-56" transform="translate(1388.359375 0)"/>
     <use xlink:href="#DejaVuSans-53" transform="translate(1440.453125 0)"/>
     <use xlink:href="#DejaVuSans-58" transform="translate(1503.9375 0)"/>
     <use xlink:href="#DejaVuSans-ab" transform="translate(1567.3125 0)"/>
     <use xlink:href="#DejaVuSans-56" transform="translate(1628.84375 0)"/>
     <use xlink:href="#DejaVuSans-1d" transform="translate(1680.9375 0)"/>
    </g>
    <!-- la geometría Galileo se repite (correlación 0.60) -->
    <g transform="translate(111.09275 37.446328) scale(0.12 -0.12)">
     <defs>
      <path id="DejaVuSans-4a" d="M 2906 1791 
Q 2906 2416 2648 2759 
Q 2391 3103 1925 3103 
Q 1463 3103 1205 2759 
Q 947 2416 947 1791 
Q 947 1169 1205 825 
Q 1463 481 1925 481 
Q 2391 481 2648 825 
Q 2906 1169 2906 1791 
z
M 3481 434 
Q 3481 -459 3084 -895 
Q 2688 -1331 1869 -1331 
Q 1566 -1331 1297 -1286 
Q 1028 -1241 775 -1147 
L 775 -588 
Q 1028 -725 1275 -790 
Q 1522 -856 1778 -856 
Q 2344 -856 2625 -561 
Q 2906 -266 2906 331 
L 2906 616 
Q 2728 306 2450 153 
Q 2172 0 1784 0 
Q 1141 0 747 490 
Q 353 981 353 1791 
Q 353 2603 747 3093 
Q 1141 3584 1784 3584 
Q 2172 3584 2450 3431 
Q 2728 3278 2906 2969 
L 2906 3500 
L 3481 3500 
L 3481 434 
z
" transform="scale(0.015625)"/>
      <path id="DejaVuSans-2a" d="M 3809 666 
L 3809 1919 
L 2778 1919 
L 2778 2438 
L 4434 2438 
L 4434 434 
Q 4069 175 3628 42 
Q 3188 -91 2688 -91 
Q 1594 -91 976 548 
Q 359 1188 359 2328 
Q 359 3472 976 4111 
Q 1594 4750 2688 4750 
Q 3144 4750 3555 4637 
Q 3966 4525 4313 4306 
L 4313 3634 
Q 3963 3931 3569 4081 
Q 3175 4231 2741 4231 
Q 1884 4231 1454 3753 
Q 1025 3275 1025 2328 
Q 1025 1384 1454 906 
Q 1884 428 2741 428 
Q 3075 428 3337 486 
Q 3600 544 3809 666 
z
" transform="scale(0.015625)"/>
      <path id="DejaVuSans-b5" d="M 1959 3097 
Q 1497 3097 1228 2736 
Q 959 2375 959 1747 
Q 959 1119 1226 758 
Q 1494 397 1959 397 
Q 2419 397 2687 759 
Q 2956 1122 2956 1747 
Q 2956 2369 2687 2733 
Q 2419 3097 1959 3097 
z
M 1959 3584 
Q 2709 3584 3137 3096 
Q 3566 2609 3566 1747 
Q 3566 888 3137 398 
Q 2709 -91 1959 -91 
Q 1206 -91 779 398 
Q 353 888 353 1747 
Q 353 2609 779 3096 
Q 1206 3584 1959 3584 
z
M 2393 5119 
L 3015 5119 
L 1997 3944 
L 1518 3944 
L 2393 5119 
z
" transform="scale(0.015625)"/>
     </defs>
     <use xlink:href="#DejaVuSans-4f"/>
     <use xlink:href="#DejaVuSans-44" transform="translate(27.78125 0)"/>
     <use xlink:href="#DejaVuSans-3" transform="translate(89.0625 0)"/>
     <use xlink:href="#DejaVuSans-4a" transform="translate(120.84375 0)"/>
     <use xlink:href="#DejaVuSans-48" transform="translate(184.328125 0)"/>
     <use xlink:href="#DejaVuSans-52" transform="translate(245.859375 0)"/>
     <use xlink:href="#DejaVuSans-50" transform="translate(307.046875 0)"/>
     <use xlink:href="#DejaVuSans-48" transform="translate(404.453125 0)"/>
     <use xlink:href="#DejaVuSans-57" transform="translate(465.984375 0)"/>
     <use xlink:href="#DejaVuSans-55" transform="translate(505.1875 0)"/>
     <use xlink:href="#DejaVuSans-af" transform="translate(546.296875 0)"/>
     <use xlink:href="#DejaVuSans-44" transform="translate(574.078125 0)"/>
     <use xlink:href="#DejaVuSans-3" transform="translate(635.359375 0)"/>
     <use xlink:href="#DejaVuSans-2a" transform="translate(667.140625 0)"/>
     <use xlink:href="#DejaVuSans-44" transform="translate(744.625 0)"/>
     <use xlink:href="#DejaVuSans-4f" transform="translate(805.90625 0)"/>
     <use xlink:href="#DejaVuSans-4c" transform="translate(833.6875 0)"/>
     <use xlink:href="#DejaVuSans-4f" transform="translate(861.46875 0)"/>
     <use xlink:href="#DejaVuSans-48" transform="translate(889.25 0)"/>
     <use xlink:href="#DejaVuSans-52" transform="translate(950.78125 0)"/>
     <use xlink:href="#DejaVuSans-3" transform="translate(1011.96875 0)"/>
     <use xlink:href="#DejaVuSans-56" transform="translate(1043.75 0)"/>
     <use xlink:href="#DejaVuSans-48" transform="translate(1095.84375 0)"/>
     <use xlink:href="#DejaVuSans-3" transform="translate(1157.375 0)"/>
     <use xlink:href="#DejaVuSans-55" transform="translate(1189.15625 0)"/>
     <use xlink:href="#DejaVuSans-48" transform="translate(1228.0625 0)"/>
     <use xlink:href="#DejaVuSans-53" transform="translate(1289.59375 0)"/>
     <use xlink:href="#DejaVuSans-4c" transform="translate(1353.078125 0)"/>
     <use xlink:href="#DejaVuSans-57" transform="translate(1380.859375 0)"/>
     <use xlink:href="#DejaVuSans-48" transform="translate(1420.0625 0)"/>
     <use xlink:href="#DejaVuSans-3" transform="translate(1481.59375 0)"/>
     <use xlink:href="#DejaVuSans-b" transform="translate(1513.375 0)"/>
     <use xlink:href="#DejaVuSans-46" transform="translate(1552.390625 0)"/>
     <use xlink:href="#DejaVuSans-52" transform="translate(1607.375 0)"/>
     <use xlink:href="#DejaVuSans-55" transform="translate(1668.5625 0)"/>
     <use xlink:href="#DejaVuSans-55" transform="translate(1707.921875 0)"/>
     <use xlink:href="#DejaVuSans-48" transform="translate(1746.828125 0)"/>
     <use xlink:href="#DejaVuSans-4f" transform="translate(1808.359375 0)"/>
     <use xlink:href="#DejaVuSans-44" transform="translate(1836.140625 0)"/>
     <use xlink:href="#DejaVuSans-46" transform="translate(1897.421875 0)"/>
     <use xlink:href="#DejaVuSans-4c" transform="translate(1952.40625 0)"/>
     <use xlink:href="#DejaVuSans-b5" transform="translate(1980.1875 0)"/>
     <use xlink:href="#DejaVuSans-51" transform="translate(2041.375 0)"/>
     <use xlink:href="#DejaVuSans-3" transform="translate(2104.75 0)"/>
     <use xlink:href="#DejaVuSans-13" transform="translate(2136.53125 0)"/>
     <use xlink:href="#DejaVuSans-11" transform="translate(2200.15625 0)"/>
     <use xlink:href="#DejaVuSans-19" transform="translate(2231.9375 0)"/>
     <use xlink:href="#DejaVuSans-13" transform="translate(2295.5625 0)"/>
     <use xlink:href="#DejaVuSans-c" transform="translate(2359.1875 0)"/>
    </g>
   </g>
   <g id="legend_1">
    <g id="patch_7">
     <path d="M 59.322344 74.487578 
L 203.711094 74.487578 
Q 205.311094 74.487578 205.311094 72.887578 
L 205.311094 49.046328 
Q 205.311094 47.446328 203.711094 47.446328 
L 59.322344 47.446328 
Q 57.722344 47.446328 57.722344 49.046328 
L 57.722344 72.887578 
Q 57.722344 74.487578 59.322344 74.487578 
z
" style="fill: #ffffff; opacity: 0.8; stroke: #cccccc; stroke-linejoin: miter"/>
    </g>
    <g id="line2d_24">
     <path d="M 60.922344 54.245078 
L 68.922344 54.245078 
L 76.922344 54.245078 
" style="fill: none; stroke: #1f77b4; stroke-width: 1.8; stroke-linecap: square"/>
    </g>
    <g id="text_14">
     <!-- E30 día 166 -->
     <g transform="translate(83.322344 57.045078) scale(0.08 -0.08)">
      <defs>
       <path id="DejaVuSans-16" d="M 2597 2516 
Q 3050 2419 3304 2112 
Q 3559 1806 3559 1356 
Q 3559 666 3084 287 
Q 2609 -91 1734 -91 
Q 1441 -91 1130 -33 
Q 819 25 488 141 
L 488 750 
Q 750 597 1062 519 
Q 1375 441 1716 441 
Q 2309 441 2620 675 
Q 2931 909 2931 1356 
Q 2931 1769 2642 2001 
Q 2353 2234 1838 2234 
L 1294 2234 
L 1294 2753 
L 1863 2753 
Q 2328 2753 2575 2939 
Q 2822 3125 2822 3475 
Q 2822 3834 2567 4026 
Q 2313 4219 1838 4219 
Q 1578 4219 1281 4162 
Q 984 4106 628 3988 
L 628 4550 
Q 988 4650 1302 4700 
Q 1616 4750 1894 4750 
Q 2613 4750 3031 4423 
Q 3450 4097 3450 3541 
Q 3450 3153 3228 2886 
Q 3006 2619 2597 2516 
z
" transform="scale(0.015625)"/>
      </defs>
      <use xlink:href="#DejaVuSans-28"/>
      <use xlink:href="#DejaVuSans-16" transform="translate(63.1875 0)"/>
      <use xlink:href="#DejaVuSans-13" transform="translate(126.8125 0)"/>
      <use xlink:href="#DejaVuSans-3" transform="translate(190.4375 0)"/>
      <use xlink:href="#DejaVuSans-47" transform="translate(222.21875 0)"/>
      <use xlink:href="#DejaVuSans-af" transform="translate(285.703125 0)"/>
      <use xlink:href="#DejaVuSans-44" transform="translate(313.484375 0)"/>
      <use xlink:href="#DejaVuSans-3" transform="translate(374.765625 0)"/>
      <use xlink:href="#DejaVuSans-14" transform="translate(406.546875 0)"/>
      <use xlink:href="#DejaVuSans-19" transform="translate(470.171875 0)"/>
      <use xlink:href="#DejaVuSans-19" transform="translate(533.796875 0)"/>
     </g>
    </g>
    <g id="line2d_25">
     <path d="M 60.922344 66.565703 
L 68.922344 66.565703 
L 76.922344 66.565703 
" style="fill: none; stroke: #ff7f0e; stroke-width: 1.8; stroke-linecap: square"/>
    </g>
    <g id="text_15">
     <!-- E30 día 176, corrido 40.5 min -->
     <g transform="translate(83.322344 69.365703) scale(0.08 -0.08)">
      <use xlink:href="#DejaVuSans-28"/>
      <use xlink:href="#DejaVuSans-16" transform="translate(63.1875 0)"/>
      <use xlink:href="#DejaVuSans-13" transform="translate(126.8125 0)"/>
      <use xlink:href="#DejaVuSans-3" transform="translate(190.4375 0)"/>
      <use xlink:href="#DejaVuSans-47" transform="translate(222.21875 0)"/>
      <use xlink:href="#DejaVuSans-af" transform="translate(285.703125 0)"/>
      <use xlink:href="#DejaVuSans-44" transform="translate(313.484375 0)"/>
      <use xlink:href="#DejaVuSans-3" transform="translate(374.765625 0)"/>
      <use xlink:href="#DejaVuSans-14" transform="translate(406.546875 0)"/>
      <use xlink:href="#DejaVuSans-1a" transform="translate(470.171875 0)"/>
      <use xlink:href="#DejaVuSans-19" transform="translate(533.796875 0)"/>
      <use xlink:href="#DejaVuSans-f" transform="translate(597.421875 0)"/>
      <use xlink:href="#DejaVuSans-3" transform="translate(629.203125 0)"/>
      <use xlink:href="#DejaVuSans-46" transform="translate(660.984375 0)"/>
      <use xlink:href="#DejaVuSans-52" transform="translate(715.96875 0)"/>
      <use xlink:href="#DejaVuSans-55" transform="translate(777.15625 0)"/>
      <use xlink:href="#DejaVuSans-55" transform="translate(816.515625 0)"/>
      <use xlink:href="#DejaVuSans-4c" transform="translate(857.625 0)"/>
      <use xlink:href="#DejaVuSans-47" transform="translate(885.40625 0)"/>
      <use xlink:href="#DejaVuSans-52" transform="translate(948.890625 0)"/>
      <use xlink:href="#DejaVuSans-3" transform="translate(1010.078125 0)"/>
      <use xlink:href="#DejaVuSans-17" transform="translate(1041.859375 0)"/>
      <use xlink:href="#DejaVuSans-13" transform="translate(1105.484375 0)"/>
      <use xlink:href="#DejaVuSans-11" transform="translate(1169.109375 0)"/>
      <use xlink:href="#DejaVuSans-18" transform="translate(1200.890625 0)"/>
      <use xlink:href="#DejaVuSans-3" transform="translate(1264.515625 0)"/>
      <use xlink:href="#DejaVuSans-50" transform="translate(1296.296875 0)"/>
      <use xlink:href="#DejaVuSans-4c" transform="translate(1393.703125 0)"/>
      <use xlink:href="#DejaVuSans-51" transform="translate(1421.484375 0)"/>
     </g>
    </g>
   </g>
  </g>
  <g id="axes_2">
   <g id="patch_8">
    <path d="M 512.849875 267.477656 
L 781.2 267.477656 
L 781.2 43.446328 
L 512.849875 43.446328 
z
" style="fill: #ffffff"/>
   </g>
   <g id="matplotlib.axis_3">
    <g id="xtick_6">
     <g id="line2d_26">
      <path d="M 555.006952 267.477656 
L 555.006952 43.446328 
" clip-path="url(#pb582d40b96)" style="fill: none; stroke: #b0b0b0; stroke-opacity: 0.3; stroke-width: 0.8; stroke-linecap: square"/>
     </g>
     <g id="line2d_27">
      <g>
       <use xlink:href="#m4988b46dde" x="555.006952" y="267.477656" style="stroke: #000000; stroke-width: 0.8"/>
      </g>
     </g>
     <g id="text_16">
      <!-- −2500 -->
      <g transform="translate(538.092108 282.075312) scale(0.1 -0.1)">
       <use xlink:href="#DejaVuSans-c9c"/>
       <use xlink:href="#DejaVuSans-15" transform="translate(83.796875 0)"/>
       <use xlink:href="#DejaVuSans-18" transform="translate(147.421875 0)"/>
       <use xlink:href="#DejaVuSans-13" transform="translate(211.046875 0)"/>
       <use xlink:href="#DejaVuSans-13" transform="translate(274.671875 0)"/>
      </g>
     </g>
    </g>
    <g id="xtick_7">
     <g id="line2d_28">
      <path d="M 597.806015 267.477656 
L 597.806015 43.446328 
" clip-path="url(#pb582d40b96)" style="fill: none; stroke: #b0b0b0; stroke-opacity: 0.3; stroke-width: 0.8; stroke-linecap: square"/>
     </g>
     <g id="line2d_29">
      <g>
       <use xlink:href="#m4988b46dde" x="597.806015" y="267.477656" style="stroke: #000000; stroke-width: 0.8"/>
      </g>
     </g>
     <g id="text_17">
      <!-- −2000 -->
      <g transform="translate(580.891171 282.075312) scale(0.1 -0.1)">
       <use xlink:href="#DejaVuSans-c9c"/>
       <use xlink:href="#DejaVuSans-15" transform="translate(83.796875 0)"/>
       <use xlink:href="#DejaVuSans-13" transform="translate(147.421875 0)"/>
       <use xlink:href="#DejaVuSans-13" transform="translate(211.046875 0)"/>
       <use xlink:href="#DejaVuSans-13" transform="translate(274.671875 0)"/>
      </g>
     </g>
    </g>
    <g id="xtick_8">
     <g id="line2d_30">
      <path d="M 640.605078 267.477656 
L 640.605078 43.446328 
" clip-path="url(#pb582d40b96)" style="fill: none; stroke: #b0b0b0; stroke-opacity: 0.3; stroke-width: 0.8; stroke-linecap: square"/>
     </g>
     <g id="line2d_31">
      <g>
       <use xlink:href="#m4988b46dde" x="640.605078" y="267.477656" style="stroke: #000000; stroke-width: 0.8"/>
      </g>
     </g>
     <g id="text_18">
      <!-- −1500 -->
      <g transform="translate(623.690234 282.075312) scale(0.1 -0.1)">
       <use xlink:href="#DejaVuSans-c9c"/>
       <use xlink:href="#DejaVuSans-14" transform="translate(83.796875 0)"/>
       <use xlink:href="#DejaVuSans-18" transform="translate(147.421875 0)"/>
       <use xlink:href="#DejaVuSans-13" transform="translate(211.046875 0)"/>
       <use xlink:href="#DejaVuSans-13" transform="translate(274.671875 0)"/>
      </g>
     </g>
    </g>
    <g id="xtick_9">
     <g id="line2d_32">
      <path d="M 683.404141 267.477656 
L 683.404141 43.446328 
" clip-path="url(#pb582d40b96)" style="fill: none; stroke: #b0b0b0; stroke-opacity: 0.3; stroke-width: 0.8; stroke-linecap: square"/>
     </g>
     <g id="line2d_33">
      <g>
       <use xlink:href="#m4988b46dde" x="683.404141" y="267.477656" style="stroke: #000000; stroke-width: 0.8"/>
      </g>
     </g>
     <g id="text_19">
      <!-- −1000 -->
      <g transform="translate(666.489297 282.075312) scale(0.1 -0.1)">
       <use xlink:href="#DejaVuSans-c9c"/>
       <use xlink:href="#DejaVuSans-14" transform="translate(83.796875 0)"/>
       <use xlink:href="#DejaVuSans-13" transform="translate(147.421875 0)"/>
       <use xlink:href="#DejaVuSans-13" transform="translate(211.046875 0)"/>
       <use xlink:href="#DejaVuSans-13" transform="translate(274.671875 0)"/>
      </g>
     </g>
    </g>
    <g id="xtick_10">
     <g id="line2d_34">
      <path d="M 726.203204 267.477656 
L 726.203204 43.446328 
" clip-path="url(#pb582d40b96)" style="fill: none; stroke: #b0b0b0; stroke-opacity: 0.3; stroke-width: 0.8; stroke-linecap: square"/>
     </g>
     <g id="line2d_35">
      <g>
       <use xlink:href="#m4988b46dde" x="726.203204" y="267.477656" style="stroke: #000000; stroke-width: 0.8"/>
      </g>
     </g>
     <g id="text_20">
      <!-- −500 -->
      <g transform="translate(712.46961 282.075312) scale(0.1 -0.1)">
       <use xlink:href="#DejaVuSans-c9c"/>
       <use xlink:href="#DejaVuSans-18" transform="translate(83.796875 0)"/>
       <use xlink:href="#DejaVuSans-13" transform="translate(147.421875 0)"/>
       <use xlink:href="#DejaVuSans-13" transform="translate(211.046875 0)"/>
      </g>
     </g>
    </g>
    <g id="xtick_11">
     <g id="line2d_36">
      <path d="M 769.002267 267.477656 
L 769.002267 43.446328 
" clip-path="url(#pb582d40b96)" style="fill: none; stroke: #b0b0b0; stroke-opacity: 0.3; stroke-width: 0.8; stroke-linecap: square"/>
     </g>
     <g id="line2d_37">
      <g>
       <use xlink:href="#m4988b46dde" x="769.002267" y="267.477656" style="stroke: #000000; stroke-width: 0.8"/>
      </g>
     </g>
     <g id="text_21">
      <!-- 0 -->
      <g transform="translate(765.821017 282.075312) scale(0.1 -0.1)">
       <use xlink:href="#DejaVuSans-13"/>
      </g>
     </g>
    </g>
    <g id="text_22">
     <!-- corrimiento aplicado al día 176 (s) -->
     <g transform="translate(561.140563 296.476094) scale(0.1 -0.1)">
      <use xlink:href="#DejaVuSans-46"/>
      <use xlink:href="#DejaVuSans-52" transform="translate(54.984375 0)"/>
      <use xlink:href="#DejaVuSans-55" transform="translate(116.171875 0)"/>
      <use xlink:href="#DejaVuSans-55" transform="translate(155.53125 0)"/>
      <use xlink:href="#DejaVuSans-4c" transform="translate(196.640625 0)"/>
      <use xlink:href="#DejaVuSans-50" transform="translate(224.421875 0)"/>
      <use xlink:href="#DejaVuSans-4c" transform="translate(321.828125 0)"/>
      <use xlink:href="#DejaVuSans-48" transform="translate(349.609375 0)"/>
      <use xlink:href="#DejaVuSans-51" transform="translate(411.140625 0)"/>
      <use xlink:href="#DejaVuSans-57" transform="translate(474.515625 0)"/>
      <use xlink:href="#DejaVuSans-52" transform="translate(513.71875 0)"/>
      <use xlink:href="#DejaVuSans-3" transform="translate(574.90625 0)"/>
      <use xlink:href="#DejaVuSans-44" transform="translate(606.6875 0)"/>
      <use xlink:href="#DejaVuSans-53" transform="translate(667.96875 0)"/>
      <use xlink:href="#DejaVuSans-4f" transform="translate(731.453125 0)"/>
      <use xlink:href="#DejaVuSans-4c" transform="translate(759.234375 0)"/>
      <use xlink:href="#DejaVuSans-46" transform="translate(787.015625 0)"/>
      <use xlink:href="#DejaVuSans-44" transform="translate(842 0)"/>
      <use xlink:href="#DejaVuSans-47" transform="translate(903.28125 0)"/>
      <use xlink:href="#DejaVuSans-52" transform="translate(966.765625 0)"/>
      <use xlink:href="#DejaVuSans-3" transform="translate(1027.953125 0)"/>
      <use xlink:href="#DejaVuSans-44" transform="translate(1059.734375 0)"/>
      <use xlink:href="#DejaVuSans-4f" transform="translate(1121.015625 0)"/>
      <use xlink:href="#DejaVuSans-3" transform="translate(1148.796875 0)"/>
      <use xlink:href="#DejaVuSans-47" transform="translate(1180.578125 0)"/>
      <use xlink:href="#DejaVuSans-af" transform="translate(1244.0625 0)"/>
      <use xlink:href="#DejaVuSans-44" transform="translate(1271.84375 0)"/>
      <use xlink:href="#DejaVuSans-3" transform="translate(1333.125 0)"/>
      <use xlink:href="#DejaVuSans-14" transform="translate(1364.90625 0)"/>
      <use xlink:href="#DejaVuSans-1a" transform="translate(1428.53125 0)"/>
      <use xlink:href="#DejaVuSans-19" transform="translate(1492.15625 0)"/>
      <use xlink:href="#DejaVuSans-3" transform="translate(1555.78125 0)"/>
      <use xlink:href="#DejaVuSans-b" transform="translate(1587.5625 0)"/>
      <use xlink:href="#DejaVuSans-56" transform="translate(1626.578125 0)"/>
      <use xlink:href="#DejaVuSans-c" transform="translate(1678.671875 0)"/>
     </g>
    </g>
   </g>
   <g id="matplotlib.axis_4">
    <g id="ytick_6">
     <g id="line2d_38">
      <path d="M 512.849875 228.60614 
L 781.2 228.60614 
" clip-path="url(#pb582d40b96)" style="fill: none; stroke: #b0b0b0; stroke-opacity: 0.3; stroke-width: 0.8; stroke-linecap: square"/>
     </g>
     <g id="line2d_39">
      <g>
       <use xlink:href="#me2e11d2bf3" x="512.849875" y="228.60614" style="stroke: #000000; stroke-width: 0.8"/>
      </g>
     </g>
     <g id="text_23">
      <!-- −0.2 -->
      <g transform="translate(481.567063 232.404968) scale(0.1 -0.1)">
       <use xlink:href="#DejaVuSans-c9c"/>
       <use xlink:href="#DejaVuSans-13" transform="translate(83.796875 0)"/>
       <use xlink:href="#DejaVuSans-11" transform="translate(147.421875 0)"/>
       <use xlink:href="#DejaVuSans-15" transform="translate(179.203125 0)"/>
      </g>
     </g>
    </g>
    <g id="ytick_7">
     <g id="line2d_40">
      <path d="M 512.849875 184.807249 
L 781.2 184.807249 
" clip-path="url(#pb582d40b96)" style="fill: none; stroke: #b0b0b0; stroke-opacity: 0.3; stroke-width: 0.8; stroke-linecap: square"/>
     </g>
     <g id="line2d_41">
      <g>
       <use xlink:href="#me2e11d2bf3" x="512.849875" y="184.807249" style="stroke: #000000; stroke-width: 0.8"/>
      </g>
     </g>
     <g id="text_24">
      <!-- 0.0 -->
      <g transform="translate(489.94675 188.606077) scale(0.1 -0.1)">
       <use xlink:href="#DejaVuSans-13"/>
       <use xlink:href="#DejaVuSans-11" transform="translate(63.625 0)"/>
       <use xlink:href="#DejaVuSans-13" transform="translate(95.40625 0)"/>
      </g>
     </g>
    </g>
    <g id="ytick_8">
     <g id="line2d_42">
      <path d="M 512.849875 141.008358 
L 781.2 141.008358 
" clip-path="url(#pb582d40b96)" style="fill: none; stroke: #b0b0b0; stroke-opacity: 0.3; stroke-width: 0.8; stroke-linecap: square"/>
     </g>
     <g id="line2d_43">
      <g>
       <use xlink:href="#me2e11d2bf3" x="512.849875" y="141.008358" style="stroke: #000000; stroke-width: 0.8"/>
      </g>
     </g>
     <g id="text_25">
      <!-- 0.2 -->
      <g transform="translate(489.94675 144.807186) scale(0.1 -0.1)">
       <use xlink:href="#DejaVuSans-13"/>
       <use xlink:href="#DejaVuSans-11" transform="translate(63.625 0)"/>
       <use xlink:href="#DejaVuSans-15" transform="translate(95.40625 0)"/>
      </g>
     </g>
    </g>
    <g id="ytick_9">
     <g id="line2d_44">
      <path d="M 512.849875 97.209467 
L 781.2 97.209467 
" clip-path="url(#pb582d40b96)" style="fill: none; stroke: #b0b0b0; stroke-opacity: 0.3; stroke-width: 0.8; stroke-linecap: square"/>
     </g>
     <g id="line2d_45">
      <g>
       <use xlink:href="#me2e11d2bf3" x="512.849875" y="97.209467" style="stroke: #000000; stroke-width: 0.8"/>
      </g>
     </g>
     <g id="text_26">
      <!-- 0.4 -->
      <g transform="translate(489.94675 101.008295) scale(0.1 -0.1)">
       <use xlink:href="#DejaVuSans-13"/>
       <use xlink:href="#DejaVuSans-11" transform="translate(63.625 0)"/>
       <use xlink:href="#DejaVuSans-17" transform="translate(95.40625 0)"/>
      </g>
     </g>
    </g>
    <g id="ytick_10">
     <g id="line2d_46">
      <path d="M 512.849875 53.410576 
L 781.2 53.410576 
" clip-path="url(#pb582d40b96)" style="fill: none; stroke: #b0b0b0; stroke-opacity: 0.3; stroke-width: 0.8; stroke-linecap: square"/>
     </g>
     <g id="line2d_47">
      <g>
       <use xlink:href="#me2e11d2bf3" x="512.849875" y="53.410576" style="stroke: #000000; stroke-width: 0.8"/>
      </g>
     </g>
     <g id="text_27">
      <!-- 0.6 -->
      <g transform="translate(489.94675 57.209404) scale(0.1 -0.1)">
       <use xlink:href="#DejaVuSans-13"/>
       <use xlink:href="#DejaVuSans-11" transform="translate(63.625 0)"/>
       <use xlink:href="#DejaVuSans-19" transform="translate(95.40625 0)"/>
      </g>
     </g>
    </g>
    <g id="text_28">
     <!-- correlación -->
     <g transform="translate(475.164719 183.079961) rotate(-90) scale(0.1 -0.1)">
      <use xlink:href="#DejaVuSans-46"/>
      <use xlink:href="#DejaVuSans-52" transform="translate(54.984375 0)"/>
      <use xlink:href="#DejaVuSans-55" transform="translate(116.171875 0)"/>
      <use xlink:href="#DejaVuSans-55" transform="translate(155.53125 0)"/>
      <use xlink:href="#DejaVuSans-48" transform="translate(194.4375 0)"/>
      <use xlink:href="#DejaVuSans-4f" transform="translate(255.96875 0)"/>
      <use xlink:href="#DejaVuSans-44" transform="translate(283.75 0)"/>
      <use xlink:href="#DejaVuSans-46" transform="translate(345.03125 0)"/>
      <use xlink:href="#DejaVuSans-4c" transform="translate(400.015625 0)"/>
      <use xlink:href="#DejaVuSans-b5" transform="translate(427.796875 0)"/>
      <use xlink:href="#DejaVuSans-51" transform="translate(488.984375 0)"/>
     </g>
    </g>
   </g>
   <g id="line2d_48">
    <path d="M 525.047608 209.772617 
L 527.615552 231.672063 
L 530.183496 193.129039 
L 532.751439 164.002776 
L 535.319383 153.053053 
L 537.887327 177.361438 
L 540.455271 234.299996 
L 543.023214 205.392728 
L 545.591158 151.301098 
L 548.159102 121.736846 
L 550.727046 169.258643 
L 553.29499 236.270946 
L 555.862933 214.152506 
L 558.430877 160.717859 
L 560.998821 53.62957 
L 563.566765 124.364779 
L 566.134708 180.646355 
L 568.702652 209.991612 
L 571.270596 206.268706 
L 573.83854 140.789364 
L 576.406484 167.068698 
L 578.974427 195.537978 
L 581.542371 219.846362 
L 584.110315 187.435183 
L 586.678259 135.533497 
L 589.246202 143.855286 
L 591.814146 179.770377 
L 594.38209 257.294414 
L 596.950034 229.701113 
L 599.517978 188.749149 
L 602.085921 164.878754 
L 604.653865 172.105571 
L 607.221809 219.846362 
L 609.789753 226.854185 
L 612.357696 215.028484 
L 614.92564 172.762554 
" clip-path="url(#pb582d40b96)" style="fill: none; stroke: #1f77b4; stroke-linecap: square"/>
    <defs>
     <path id="m0d035bc124" d="M 0 1.5 
C 0.397805 1.5 0.77937 1.341951 1.06066 1.06066 
C 1.341951 0.77937 1.5 0.397805 1.5 0 
C 1.5 -0.397805 1.341951 -0.77937 1.06066 -1.06066 
C 0.77937 -1.341951 0.397805 -1.5 0 -1.5 
C -0.397805 -1.5 -0.77937 -1.341951 -1.06066 -1.06066 
C -1.341951 -0.77937 -1.5 -0.397805 -1.5 0 
C -1.5 0.397805 -1.341951 0.77937 -1.06066 1.06066 
C -0.77937 1.341951 -0.397805 1.5 0 1.5 
z
" style="stroke: #1f77b4"/>
    </defs>
    <g clip-path="url(#pb582d40b96)">
     <use xlink:href="#m0d035bc124" x="525.047608" y="209.772617" style="fill: #1f77b4; stroke: #1f77b4"/>
     <use xlink:href="#m0d035bc124" x="527.615552" y="231.672063" style="fill: #1f77b4; stroke: #1f77b4"/>
     <use xlink:href="#m0d035bc124" x="530.183496" y="193.129039" style="fill: #1f77b4; stroke: #1f77b4"/>
     <use xlink:href="#m0d035bc124" x="532.751439" y="164.002776" style="fill: #1f77b4; stroke: #1f77b4"/>
     <use xlink:href="#m0d035bc124" x="535.319383" y="153.053053" style="fill: #1f77b4; stroke: #1f77b4"/>
     <use xlink:href="#m0d035bc124" x="537.887327" y="177.361438" style="fill: #1f77b4; stroke: #1f77b4"/>
     <use xlink:href="#m0d035bc124" x="540.455271" y="234.299996" style="fill: #1f77b4; stroke: #1f77b4"/>
     <use xlink:href="#m0d035bc124" x="543.023214" y="205.392728" style="fill: #1f77b4; stroke: #1f77b4"/>
     <use xlink:href="#m0d035bc124" x="545.591158" y="151.301098" style="fill: #1f77b4; stroke: #1f77b4"/>
     <use xlink:href="#m0d035bc124" x="548.159102" y="121.736846" style="fill: #1f77b4; stroke: #1f77b4"/>
     <use xlink:href="#m0d035bc124" x="550.727046" y="169.258643" style="fill: #1f77b4; stroke: #1f77b4"/>
     <use xlink:href="#m0d035bc124" x="553.29499" y="236.270946" style="fill: #1f77b4; stroke: #1f77b4"/>
     <use xlink:href="#m0d035bc124" x="555.862933" y="214.152506" style="fill: #1f77b4; stroke: #1f77b4"/>
     <use xlink:href="#m0d035bc124" x="558.430877" y="160.717859" style="fill: #1f77b4; stroke: #1f77b4"/>
     <use xlink:href="#m0d035bc124" x="560.998821" y="53.62957" style="fill: #1f77b4; stroke: #1f77b4"/>
     <use xlink:href="#m0d035bc124" x="563.566765" y="124.364779" style="fill: #1f77b4; stroke: #1f77b4"/>
     <use xlink:href="#m0d035bc124" x="566.134708" y="180.646355" style="fill: #1f77b4; stroke: #1f77b4"/>
     <use xlink:href="#m0d035bc124" x="568.702652" y="209.991612" style="fill: #1f77b4; stroke: #1f77b4"/>
     <use xlink:href="#m0d035bc124" x="571.270596" y="206.268706" style="fill: #1f77b4; stroke: #1f77b4"/>
     <use xlink:href="#m0d035bc124" x="573.83854" y="140.789364" style="fill: #1f77b4; stroke: #1f77b4"/>
     <use xlink:href="#m0d035bc124" x="576.406484" y="167.068698" style="fill: #1f77b4; stroke: #1f77b4"/>
     <use xlink:href="#m0d035bc124" x="578.974427" y="195.537978" style="fill: #1f77b4; stroke: #1f77b4"/>
     <use xlink:href="#m0d035bc124" x="581.542371" y="219.846362" style="fill: #1f77b4; stroke: #1f77b4"/>
     <use xlink:href="#m0d035bc124" x="584.110315" y="187.435183" style="fill: #1f77b4; stroke: #1f77b4"/>
     <use xlink:href="#m0d035bc124" x="586.678259" y="135.533497" style="fill: #1f77b4; stroke: #1f77b4"/>
     <use xlink:href="#m0d035bc124" x="589.246202" y="143.855286" style="fill: #1f77b4; stroke: #1f77b4"/>
     <use xlink:href="#m0d035bc124" x="591.814146" y="179.770377" style="fill: #1f77b4; stroke: #1f77b4"/>
     <use xlink:href="#m0d035bc124" x="594.38209" y="257.294414" style="fill: #1f77b4; stroke: #1f77b4"/>
     <use xlink:href="#m0d035bc124" x="596.950034" y="229.701113" style="fill: #1f77b4; stroke: #1f77b4"/>
     <use xlink:href="#m0d035bc124" x="599.517978" y="188.749149" style="fill: #1f77b4; stroke: #1f77b4"/>
     <use xlink:href="#m0d035bc124" x="602.085921" y="164.878754" style="fill: #1f77b4; stroke: #1f77b4"/>
     <use xlink:href="#m0d035bc124" x="604.653865" y="172.105571" style="fill: #1f77b4; stroke: #1f77b4"/>
     <use xlink:href="#m0d035bc124" x="607.221809" y="219.846362" style="fill: #1f77b4; stroke: #1f77b4"/>
     <use xlink:href="#m0d035bc124" x="609.789753" y="226.854185" style="fill: #1f77b4; stroke: #1f77b4"/>
     <use xlink:href="#m0d035bc124" x="612.357696" y="215.028484" style="fill: #1f77b4; stroke: #1f77b4"/>
     <use xlink:href="#m0d035bc124" x="614.92564" y="172.762554" style="fill: #1f77b4; stroke: #1f77b4"/>
    </g>
   </g>
   <g id="line2d_49">
    <path d="M 567.076288 267.477656 
L 567.076288 43.446328 
" clip-path="url(#pb582d40b96)" style="fill: none; stroke-dasharray: 4.44,1.92; stroke-dashoffset: 0; stroke: #2ca02c; stroke-width: 1.2"/>
   </g>
   <g id="line2d_50">
    <defs>
     <path id="m527889f845" d="M 0 4 
C 1.060812 4 2.078319 3.578535 2.828427 2.828427 
C 3.578535 2.078319 4 1.060812 4 0 
C 4 -1.060812 3.578535 -2.078319 2.828427 -2.828427 
C 2.078319 -3.578535 1.060812 -4 0 -4 
C -1.060812 -4 -2.078319 -3.578535 -2.828427 -2.828427 
C -3.578535 -2.078319 -4 -1.060812 -4 0 
C -4 1.060812 -3.578535 2.078319 -2.828427 2.828427 
C -2.078319 3.578535 -1.060812 4 0 4 
z
" style="stroke: #d62728"/>
    </defs>
    <g clip-path="url(#pb582d40b96)">
     <use xlink:href="#m527889f845" x="560.998821" y="53.62957" style="fill: #d62728; stroke: #d62728"/>
    </g>
   </g>
   <g id="line2d_51">
    <defs>
     <path id="m4de956634e" d="M -3.5 3.5 
L 3.5 3.5 
L 3.5 -3.5 
L -3.5 -3.5 
z
" style="stroke: #808080; stroke-linejoin: miter"/>
    </defs>
    <g clip-path="url(#pb582d40b96)">
     <use xlink:href="#m4de956634e" x="769.002267" y="190.7201" style="fill: #808080; stroke: #808080; stroke-linejoin: miter"/>
    </g>
   </g>
   <g id="patch_9">
    <path d="M 512.849875 267.477656 
L 512.849875 43.446328 
" style="fill: none; stroke: #000000; stroke-width: 0.8; stroke-linejoin: miter; stroke-linecap: square"/>
   </g>
   <g id="patch_10">
    <path d="M 781.2 267.477656 
L 781.2 43.446328 
" style="fill: none; stroke: #000000; stroke-width: 0.8; stroke-linejoin: miter; stroke-linecap: square"/>
   </g>
   <g id="patch_11">
    <path d="M 512.849875 267.477656 
L 781.2 267.477656 
" style="fill: none; stroke: #000000; stroke-width: 0.8; stroke-linejoin: miter; stroke-linecap: square"/>
   </g>
   <g id="patch_12">
    <path d="M 512.849875 43.446328 
L 781.2 43.446328 
" style="fill: none; stroke: #000000; stroke-width: 0.8; stroke-linejoin: miter; stroke-linecap: square"/>
   </g>
   <g id="text_29">
    <!-- La correlación delata el ciclo de -->
    <g transform="translate(551.992438 22.563047) scale(0.12 -0.12)">
     <defs>
      <path id="DejaVuSans-2f" d="M 628 4666 
L 1259 4666 
L 1259 531 
L 3531 531 
L 3531 0 
L 628 0 
L 628 4666 
z
" transform="scale(0.015625)"/>
     </defs>
     <use xlink:href="#DejaVuSans-2f"/>
     <use xlink:href="#DejaVuSans-44" transform="translate(55.71875 0)"/>
     <use xlink:href="#DejaVuSans-3" transform="translate(117 0)"/>
     <use xlink:href="#DejaVuSans-46" transform="translate(148.78125 0)"/>
     <use xlink:href="#DejaVuSans-52" transform="translate(203.765625 0)"/>
     <use xlink:href="#DejaVuSans-55" transform="translate(264.953125 0)"/>
     <use xlink:href="#DejaVuSans-55" transform="translate(304.3125 0)"/>
     <use xlink:href="#DejaVuSans-48" transform="translate(343.21875 0)"/>
     <use xlink:href="#DejaVuSans-4f" transform="translate(404.75 0)"/>
     <use xlink:href="#DejaVuSans-44" transform="translate(432.53125 0)"/>
     <use xlink:href="#DejaVuSans-46" transform="translate(493.8125 0)"/>
     <use xlink:href="#DejaVuSans-4c" transform="translate(548.796875 0)"/>
     <use xlink:href="#DejaVuSans-b5" transform="translate(576.578125 0)"/>
     <use xlink:href="#DejaVuSans-51" transform="translate(637.765625 0)"/>
     <use xlink:href="#DejaVuSans-3" transform="translate(701.140625 0)"/>
     <use xlink:href="#DejaVuSans-47" transform="translate(732.921875 0)"/>
     <use xlink:href="#DejaVuSans-48" transform="translate(796.40625 0)"/>
     <use xlink:href="#DejaVuSans-4f" transform="translate(857.9375 0)"/>
     <use xlink:href="#DejaVuSans-44" transform="translate(885.71875 0)"/>
     <use xlink:href="#DejaVuSans-57" transform="translate(947 0)"/>
     <use xlink:href="#DejaVuSans-44" transform="translate(986.203125 0)"/>
     <use xlink:href="#DejaVuSans-3" transform="translate(1047.484375 0)"/>
     <use xlink:href="#DejaVuSans-48" transform="translate(1079.265625 0)"/>
     <use xlink:href="#DejaVuSans-4f" transform="translate(1140.796875 0)"/>
     <use xlink:href="#DejaVuSans-3" transform="translate(1168.578125 0)"/>
     <use xlink:href="#DejaVuSans-46" transform="translate(1200.359375 0)"/>
     <use xlink:href="#DejaVuSans-4c" transform="translate(1255.34375 0)"/>
     <use xlink:href="#DejaVuSans-46" transform="translate(1283.125 0)"/>
     <use xlink:href="#DejaVuSans-4f" transform="translate(1338.109375 0)"/>
     <use xlink:href="#DejaVuSans-52" transform="translate(1365.890625 0)"/>
     <use xlink:href="#DejaVuSans-3" transform="translate(1427.078125 0)"/>
     <use xlink:href="#DejaVuSans-47" transform="translate(1458.859375 0)"/>
     <use xlink:href="#DejaVuSans-48" transform="translate(1522.34375 0)"/>
    </g>
    <!-- repetición: 17 órbitas = 10 días -->
    <g transform="translate(552.138688 37.446328) scale(0.12 -0.12)">
     <defs>
      <path id="DejaVuSans-45" d="M 3116 1747 
Q 3116 2381 2855 2742 
Q 2594 3103 2138 3103 
Q 1681 3103 1420 2742 
Q 1159 2381 1159 1747 
Q 1159 1113 1420 752 
Q 1681 391 2138 391 
Q 2594 391 2855 752 
Q 3116 1113 3116 1747 
z
M 1159 2969 
Q 1341 3281 1617 3432 
Q 1894 3584 2278 3584 
Q 2916 3584 3314 3078 
Q 3713 2572 3713 1747 
Q 3713 922 3314 415 
Q 2916 -91 2278 -91 
Q 1894 -91 1617 61 
Q 1341 213 1159 525 
L 1159 0 
L 581 0 
L 581 4863 
L 1159 4863 
L 1159 2969 
z
" transform="scale(0.015625)"/>
      <path id="DejaVuSans-20" d="M 678 2906 
L 4684 2906 
L 4684 2381 
L 678 2381 
L 678 2906 
z
M 678 1631 
L 4684 1631 
L 4684 1100 
L 678 1100 
L 678 1631 
z
" transform="scale(0.015625)"/>
     </defs>
     <use xlink:href="#DejaVuSans-55"/>
     <use xlink:href="#DejaVuSans-48" transform="translate(38.90625 0)"/>
     <use xlink:href="#DejaVuSans-53" transform="translate(100.4375 0)"/>
     <use xlink:href="#DejaVuSans-48" transform="translate(163.921875 0)"/>
     <use xlink:href="#DejaVuSans-57" transform="translate(225.453125 0)"/>
     <use xlink:href="#DejaVuSans-4c" transform="translate(264.65625 0)"/>
     <use xlink:href="#DejaVuSans-46" transform="translate(292.4375 0)"/>
     <use xlink:href="#DejaVuSans-4c" transform="translate(347.421875 0)"/>
     <use xlink:href="#DejaVuSans-b5" transform="translate(375.203125 0)"/>
     <use xlink:href="#DejaVuSans-51" transform="translate(436.390625 0)"/>
     <use xlink:href="#DejaVuSans-1d" transform="translate(499.765625 0)"/>
     <use xlink:href="#DejaVuSans-3" transform="translate(533.453125 0)"/>
     <use xlink:href="#DejaVuSans-14" transform="translate(565.234375 0)"/>
     <use xlink:href="#DejaVuSans-1a" transform="translate(628.859375 0)"/>
     <use xlink:href="#DejaVuSans-3" transform="translate(692.484375 0)"/>
     <use xlink:href="#DejaVuSans-b5" transform="translate(724.265625 0)"/>
     <use xlink:href="#DejaVuSans-55" transform="translate(785.453125 0)"/>
     <use xlink:href="#DejaVuSans-45" transform="translate(826.5625 0)"/>
     <use xlink:href="#DejaVuSans-4c" transform="translate(890.046875 0)"/>
     <use xlink:href="#DejaVuSans-57" transform="translate(917.828125 0)"/>
     <use xlink:href="#DejaVuSans-44" transform="translate(957.03125 0)"/>
     <use xlink:href="#DejaVuSans-56" transform="translate(1018.3125 0)"/>
     <use xlink:href="#DejaVuSans-3" transform="translate(1070.40625 0)"/>
     <use xlink:href="#DejaVuSans-20" transform="translate(1102.1875 0)"/>
     <use xlink:href="#DejaVuSans-3" transform="translate(1185.984375 0)"/>
     <use xlink:href="#DejaVuSans-14" transform="translate(1217.765625 0)"/>
     <use xlink:href="#DejaVuSans-13" transform="translate(1281.390625 0)"/>
     <use xlink:href="#DejaVuSans-3" transform="translate(1345.015625 0)"/>
     <use xlink:href="#DejaVuSans-47" transform="translate(1376.796875 0)"/>
     <use xlink:href="#DejaVuSans-af" transform="translate(1440.28125 0)"/>
     <use xlink:href="#DejaVuSans-44" transform="translate(1468.0625 0)"/>
     <use xlink:href="#DejaVuSans-56" transform="translate(1529.34375 0)"/>
    </g>
   </g>
   <g id="legend_2">
    <g id="patch_13">
     <path d="M 648.377188 90.91125 
L 776.3 90.91125 
Q 777.7 90.91125 777.7 89.51125 
L 777.7 48.346328 
Q 777.7 46.946328 776.3 46.946328 
L 648.377188 46.946328 
Q 646.977188 46.946328 646.977188 48.346328 
L 646.977188 89.51125 
Q 646.977188 90.91125 648.377188 90.91125 
z
" style="fill: #ffffff; opacity: 0.8; stroke: #cccccc; stroke-linejoin: miter"/>
    </g>
    <g id="line2d_52">
     <path d="M 649.777188 58.637695 
L 656.777188 58.637695 
L 663.777188 58.637695 
" style="fill: none; stroke-dasharray: 4.44,1.92; stroke-dashoffset: 0; stroke: #2ca02c; stroke-width: 1.2"/>
    </g>
    <g id="text_30">
     <!-- teórico -2359 s -->
     <g transform="translate(669.377188 56.045918) scale(0.07 -0.07)">
      <defs>
       <path id="DejaVuSans-10" d="M 313 2009 
L 1997 2009 
L 1997 1497 
L 313 1497 
L 313 2009 
z
" transform="scale(0.015625)"/>
       <path id="DejaVuSans-1c" d="M 703 97 
L 703 672 
Q 941 559 1184 500 
Q 1428 441 1663 441 
Q 2288 441 2617 861 
Q 2947 1281 2994 2138 
Q 2813 1869 2534 1725 
Q 2256 1581 1919 1581 
Q 1219 1581 811 2004 
Q 403 2428 403 3163 
Q 403 3881 828 4315 
Q 1253 4750 1959 4750 
Q 2769 4750 3195 4129 
Q 3622 3509 3622 2328 
Q 3622 1225 3098 567 
Q 2575 -91 1691 -91 
Q 1453 -91 1209 -44 
Q 966 3 703 97 
z
M 1959 2075 
Q 2384 2075 2632 2365 
Q 2881 2656 2881 3163 
Q 2881 3666 2632 3958 
Q 2384 4250 1959 4250 
Q 1534 4250 1286 3958 
Q 1038 3666 1038 3163 
Q 1038 2656 1286 2365 
Q 1534 2075 1959 2075 
z
" transform="scale(0.015625)"/>
      </defs>
      <use xlink:href="#DejaVuSans-57"/>
      <use xlink:href="#DejaVuSans-48" transform="translate(39.203125 0)"/>
      <use xlink:href="#DejaVuSans-b5" transform="translate(100.734375 0)"/>
      <use xlink:href="#DejaVuSans-55" transform="translate(161.921875 0)"/>
      <use xlink:href="#DejaVuSans-4c" transform="translate(203.03125 0)"/>
      <use xlink:href="#DejaVuSans-46" transform="translate(230.8125 0)"/>
      <use xlink:href="#DejaVuSans-52" transform="translate(285.796875 0)"/>
      <use xlink:href="#DejaVuSans-3" transform="translate(346.984375 0)"/>
      <use xlink:href="#DejaVuSans-10" transform="translate(378.765625 0)"/>
      <use xlink:href="#DejaVuSans-15" transform="translate(414.84375 0)"/>
      <use xlink:href="#DejaVuSans-16" transform="translate(478.46875 0)"/>
      <use xlink:href="#DejaVuSans-18" transform="translate(542.09375 0)"/>
      <use xlink:href="#DejaVuSans-1c" transform="translate(605.71875 0)"/>
      <use xlink:href="#DejaVuSans-3" transform="translate(669.34375 0)"/>
      <use xlink:href="#DejaVuSans-56" transform="translate(701.125 0)"/>
     </g>
     <!-- (10 d sidéreos − 10 d solares) -->
     <g transform="translate(669.377188 64.727832) scale(0.07 -0.07)">
      <use xlink:href="#DejaVuSans-b"/>
      <use xlink:href="#DejaVuSans-14" transform="translate(39.015625 0)"/>
      <use xlink:href="#DejaVuSans-13" transform="translate(102.640625 0)"/>
      <use xlink:href="#DejaVuSans-3" transform="translate(166.265625 0)"/>
      <use xlink:href="#DejaVuSans-47" transform="translate(198.046875 0)"/>
      <use xlink:href="#DejaVuSans-3" transform="translate(261.53125 0)"/>
      <use xlink:href="#DejaVuSans-56" transform="translate(293.3125 0)"/>
      <use xlink:href="#DejaVuSans-4c" transform="translate(345.40625 0)"/>
      <use xlink:href="#DejaVuSans-47" transform="translate(373.1875 0)"/>
      <use xlink:href="#DejaVuSans-ab" transform="translate(436.671875 0)"/>
      <use xlink:href="#DejaVuSans-55" transform="translate(498.203125 0)"/>
      <use xlink:href="#DejaVuSans-48" transform="translate(537.109375 0)"/>
      <use xlink:href="#DejaVuSans-52" transform="translate(598.640625 0)"/>
      <use xlink:href="#DejaVuSans-56" transform="translate(659.828125 0)"/>
      <use xlink:href="#DejaVuSans-3" transform="translate(711.921875 0)"/>
      <use xlink:href="#DejaVuSans-c9c" transform="translate(743.703125 0)"/>
      <use xlink:href="#DejaVuSans-3" transform="translate(827.5 0)"/>
      <use xlink:href="#DejaVuSans-14" transform="translate(859.28125 0)"/>
      <use xlink:href="#DejaVuSans-13" transform="translate(922.90625 0)"/>
      <use xlink:href="#DejaVuSans-3" transform="translate(986.53125 0)"/>
      <use xlink:href="#DejaVuSans-47" transform="translate(1018.3125 0)"/>
      <use xlink:href="#DejaVuSans-3" transform="translate(1081.796875 0)"/>
      <use xlink:href="#DejaVuSans-56" transform="translate(1113.578125 0)"/>
      <use xlink:href="#DejaVuSans-52" transform="translate(1165.671875 0)"/>
      <use xlink:href="#DejaVuSans-4f" transform="translate(1226.859375 0)"/>
      <use xlink:href="#DejaVuSans-44" transform="translate(1254.640625 0)"/>
      <use xlink:href="#DejaVuSans-55" transform="translate(1315.921875 0)"/>
      <use xlink:href="#DejaVuSans-48" transform="translate(1354.828125 0)"/>
      <use xlink:href="#DejaVuSans-56" transform="translate(1416.359375 0)"/>
      <use xlink:href="#DejaVuSans-c" transform="translate(1468.453125 0)"/>
     </g>
    </g>
    <g id="line2d_53">
     <g>
      <use xlink:href="#m527889f845" x="656.777188" y="73.479062" style="fill: #d62728; stroke: #d62728"/>
     </g>
    </g>
    <g id="text_31">
     <!-- pico: -2430 s, r=0.60 -->
     <g transform="translate(669.377188 75.929062) scale(0.07 -0.07)">
      <use xlink:href="#DejaVuSans-53"/>
      <use xlink:href="#DejaVuSans-4c" transform="translate(63.484375 0)"/>
      <use xlink:href="#DejaVuSans-46" transform="translate(91.265625 0)"/>
      <use xlink:href="#DejaVuSans-52" transform="translate(146.25 0)"/>
      <use xlink:href="#DejaVuSans-1d" transform="translate(207.4375 0)"/>
      <use xlink:href="#DejaVuSans-3" transform="translate(241.125 0)"/>
      <use xlink:href="#DejaVuSans-10" transform="translate(272.90625 0)"/>
      <use xlink:href="#DejaVuSans-15" transform="translate(308.984375 0)"/>
      <use xlink:href="#DejaVuSans-17" transform="translate(372.609375 0)"/>
      <use xlink:href="#DejaVuSans-16" transform="translate(436.234375 0)"/>
      <use xlink:href="#DejaVuSans-13" transform="translate(499.859375 0)"/>
      <use xlink:href="#DejaVuSans-3" transform="translate(563.484375 0)"/>
      <use xlink:href="#DejaVuSans-56" transform="translate(595.265625 0)"/>
      <use xlink:href="#DejaVuSans-f" transform="translate(647.359375 0)"/>
      <use xlink:href="#DejaVuSans-3" transform="translate(679.140625 0)"/>
      <use xlink:href="#DejaVuSans-55" transform="translate(710.921875 0)"/>
      <use xlink:href="#DejaVuSans-20" transform="translate(752.03125 0)"/>
      <use xlink:href="#DejaVuSans-13" transform="translate(835.828125 0)"/>
      <use xlink:href="#DejaVuSans-11" transform="translate(899.453125 0)"/>
      <use xlink:href="#DejaVuSans-19" transform="translate(931.234375 0)"/>
      <use xlink:href="#DejaVuSans-13" transform="translate(994.859375 0)"/>
     </g>
    </g>
    <g id="line2d_54">
     <g>
      <use xlink:href="#m4de956634e" x="656.777188" y="83.979609" style="fill: #808080; stroke: #808080; stroke-linejoin: miter"/>
     </g>
    </g>
    <g id="text_32">
     <!-- sin corrimiento: r=-0.03 -->
     <g transform="translate(669.377188 86.429609) scale(0.07 -0.07)">
      <use xlink:href="#DejaVuSans-56"/>
      <use xlink:href="#DejaVuSans-4c" transform="translate(52.09375 0)"/>
      <use xlink:href="#DejaVuSans-51" transform="translate(79.875 0)"/>
      <use xlink:href="#DejaVuSans-3" transform="translate(143.25 0)"/>
      <use xlink:href="#DejaVuSans-46" transform="translate(175.03125 0)"/>
      <use xlink:href="#DejaVuSans-52" transform="translate(230.015625 0)"/>
      <use xlink:href="#DejaVuSans-55" transform="translate(291.203125 0)"/>
      <use xlink:href="#DejaVuSans-55" transform="translate(330.5625 0)"/>
      <use xlink:href="#DejaVuSans-4c" transform="translate(371.671875 0)"/>
      <use xlink:href="#DejaVuSans-50" transform="translate(399.453125 0)"/>
      <use xlink:href="#DejaVuSans-4c" transform="translate(496.859375 0)"/>
      <use xlink:href="#DejaVuSans-48" transform="translate(524.640625 0)"/>
      <use xlink:href="#DejaVuSans-51" transform="translate(586.171875 0)"/>
      <use xlink:href="#DejaVuSans-57" transform="translate(649.546875 0)"/>
      <use xlink:href="#DejaVuSans-52" transform="translate(688.75 0)"/>
      <use xlink:href="#DejaVuSans-1d" transform="translate(749.9375 0)"/>
      <use xlink:href="#DejaVuSans-3" transform="translate(783.625 0)"/>
      <use xlink:href="#DejaVuSans-55" transform="translate(815.40625 0)"/>
      <use xlink:href="#DejaVuSans-20" transform="translate(856.515625 0)"/>
      <use xlink:href="#DejaVuSans-10" transform="translate(940.3125 0)"/>
      <use xlink:href="#DejaVuSans-13" transform="translate(976.390625 0)"/>
      <use xlink:href="#DejaVuSans-11" transform="translate(1040.015625 0)"/>
      <use xlink:href="#DejaVuSans-13" transform="translate(1071.796875 0)"/>
      <use xlink:href="#DejaVuSans-16" transform="translate(1135.421875 0)"/>
     </g>
    </g>
   </g>
  </g>
 </g>
 <defs>
  <clipPath id="pf332b2ce8f">
   <rect x="53.722344" y="43.446328" width="402.525187" height="224.031328"/>
  </clipPath>
  <clipPath id="pb582d40b96">
   <rect x="512.849875" y="43.446328" width="268.350125" height="224.031328"/>
  </clipPath>
 </defs>
</svg>
