<?xml version="1.0" encoding="utf-8" standalone="no"?>
<!DOCTYPE svg PUBLIC "-//W3C//DTD SVG 1.1//EN"
  "http://www.w3.org/Graphics/SVG/1.1/DTD/svg11.dtd">
<svg xmlns:xlink="http://www.w3.org/1999/xlink" width="792pt" height="302.4pt" viewBox="0 0 792 302.4" xmlns="http://www.w3.org/2000/svg" version="1.1">
 <metadata>
  <rdf:RDF xmlns:dc="http://purl.org/dc/elements/1.1/" xmlns:cc="http://creativecommons.org/ns#" xmlns:rdf="http://www.w3.org/1999/02/22-rdf-syntax-ns#">
   <cc:Work>
    <dc:type rdf:resource="http://purl.org/dc/dcmitype/StillImage"/>
    <dc:date>2026-07-04T21:32:51.203067</dc:date>
    <dc:format>image/svg+xml</dc:format>
    <dc:creator>
     <cc:Agent>
      <dc:title>Matplotlib v3.11.0, https://matplotlib.org/</dc:title>
     </cc:Agent>
    </dc:creator>
   </cc:Work>
  </rdf:RDF>
 </metadata>
 <defs>
  <style type="text/css">*{stroke-linejoin: round; stroke-linecap: butt}</style>
 </defs>
 <g id="figure_1">
  <g id="patch_1">
   <path d="M 0 302.4 
L 792 302.4 
L 792 0 
L 0 0 
z
" style="fill: #ffffff"/>
  </g>
  <g id="axes_1">
   <g id="patch_2">
    <path d="M 58.042344 276.198125 
L 389.52 276.198125 
L 389.52 49.922813 
L 58.042344 49.922813 
z
" style="fill: #ffffff"/>
   </g>
   <g id="patch_3">
    <path d="M 73.10951 276.198125 
L 135.150783 276.198125 
L 135.150783 237.599955 
L 73.10951 237.599955 
z
" clip-path="url(#p6223db5bed)" style="fill: #1f77b4"/>
   </g>
   <g id="patch_4">
    <path d="M 250.370289 276.198125 
L 312.411561 276.198125 
L 312.411561 60.771629 
L 250.370289 60.771629 
z
" clip-path="url(#p6223db5bed)" style="fill: #1f77b4"/>
   </g>
   <g id="patch_5">
    <path d="M 135.150783 276.198125 
L 197.192055 276.198125 
L 197.192055 237.526154 
L 135.150783 237.526154 
z
" clip-path="url(#p6223db5bed)" style="fill: #ff7f0e"/>
   </g>
   <g id="patch_6">
    <path d="M 312.411561 276.198125 
L 374.452834 276.198125 
L 374.452834 60.697827 
L 312.411561 60.697827 
z
" clip-path="url(#p6223db5bed)" style="fill: #ff7f0e"/>
   </g>
   <g id="matplotlib.axis_1">
    <g id="xtick_1">
     <g id="line2d_1">
      <defs>
       <path id="m31e04a3589" d="M 0 0 
L 0 3.5 
" style="stroke: #000000; stroke-width: 0.8"/>
      </defs>
      <g>
       <use xlink:href="#m31e04a3589" x="135.150783" y="276.198125" style="stroke: #000000; stroke-width: 0.8"/>
      </g>
     </g>
     <g id="text_1">
      <!-- GPS L1 C/A -->
      <g transform="translate(112.907033 289.27625) scale(0.08 -0.08)">
       <defs>
        <path id="DejaVuSans-2a" d="M 3809 666 
L 3809 1919 
L 2778 1919 
L 2778 2438 
L 4434 2438 
L 4434 434 
Q 4069 175 3628 42 
Q 3188 -91 2688 -91 
Q 1594 -91 976 548 
Q 359 1188 359 2328 
Q 359 3472 976 4111 
Q 1594 4750 2688 4750 
Q 3144 4750 3555 4637 
Q 3966 4525 4313 4306 
L 4313 3634 
Q 3963 3931 3569 4081 
Q 3175 4231 2741 4231 
Q 1884 4231 1454 3753 
Q 1025 3275 1025 2328 
Q 1025 1384 1454 906 
Q 1884 428 2741 428 
Q 3075 428 3337 486 
Q 3600 544 3809 666 
z
" transform="scale(0.015625)"/>
        <path id="DejaVuSans-33" d="M 1259 4147 
L 1259 2394 
L 2053 2394 
Q 2494 2394 2734 2622 
Q 2975 2850 2975 3272 
Q 2975 3691 2734 3919 
Q 2494 4147 2053 4147 
L 1259 4147 
z
M 628 4666 
L 2053 4666 
Q 2838 4666 3239 4311 
Q 3641 3956 3641 3272 
Q 3641 2581 3239 2228 
Q 2838 1875 2053 1875 
L 1259 1875 
L 1259 0 
L 628 0 
L 628 4666 
z
" transform="scale(0.015625)"/>
        <path id="DejaVuSans-36" d="M 3425 4513 
L 3425 3897 
Q 3066 4069 2747 4153 
Q 2428 4238 2131 4238 
Q 1616 4238 1336 4038 
Q 1056 3838 1056 3469 
Q 1056 3159 1242 3001 
Q 1428 2844 1947 2747 
L 2328 2669 
Q 3034 2534 3370 2195 
Q 3706 1856 3706 1288 
Q 3706 609 3251 259 
Q 2797 -91 1919 -91 
Q 1588 -91 1214 -16 
Q 841 59 441 206 
L 441 856 
Q 825 641 1194 531 
Q 1563 422 1919 422 
Q 2459 422 2753 634 
Q 3047 847 3047 1241 
Q 3047 1584 2836 1778 
Q 2625 1972 2144 2069 
L 1759 2144 
Q 1053 2284 737 2584 
Q 422 2884 422 3419 
Q 422 4038 858 4394 
Q 1294 4750 2059 4750 
Q 2388 4750 2728 4690 
Q 3069 4631 3425 4513 
z
" transform="scale(0.015625)"/>
        <path id="DejaVuSans-3" transform="scale(0.015625)"/>
        <path id="DejaVuSans-2f" d="M 628 4666 
L 1259 4666 
L 1259 531 
L 3531 531 
L 3531 0 
L 628 0 
L 628 4666 
z
" transform="scale(0.015625)"/>
        <path id="DejaVuSans-14" d="M 794 531 
L 1825 531 
L 1825 4091 
L 703 3866 
L 703 4441 
L 1819 4666 
L 2450 4666 
L 2450 531 
L 3481 531 
L 3481 0 
L 794 0 
L 794 531 
z
" transform="scale(0.015625)"/>
        <path id="DejaVuSans-26" d="M 4122 4306 
L 4122 3641 
Q 3803 3938 3442 4084 
Q 3081 4231 2675 4231 
Q 1875 4231 1450 3742 
Q 1025 3253 1025 2328 
Q 1025 1406 1450 917 
Q 1875 428 2675 428 
Q 3081 428 3442 575 
Q 3803 722 4122 1019 
L 4122 359 
Q 3791 134 3420 21 
Q 3050 -91 2638 -91 
Q 1578 -91 968 557 
Q 359 1206 359 2328 
Q 359 3453 968 4101 
Q 1578 4750 2638 4750 
Q 3056 4750 3426 4639 
Q 3797 4528 4122 4306 
z
" transform="scale(0.015625)"/>
        <path id="DejaVuSans-12" d="M 1625 4666 
L 2156 4666 
L 531 -594 
L 0 -594 
L 1625 4666 
z
" transform="scale(0.015625)"/>
        <path id="DejaVuSans-24" d="M 2188 4044 
L 1331 1722 
L 3047 1722 
L 2188 4044 
z
M 1831 4666 
L 2547 4666 
L 4325 0 
L 3669 0 
L 3244 1197 
L 1141 1197 
L 716 0 
L 50 0 
L 1831 4666 
z
" transform="scale(0.015625)"/>
       </defs>
       <use xlink:href="#DejaVuSans-2a"/>
       <use xlink:href="#DejaVuSans-33" transform="translate(77.484375 0)"/>
       <use xlink:href="#DejaVuSans-36" transform="translate(137.78125 0)"/>
       <use xlink:href="#DejaVuSans-3" transform="translate(201.265625 0)"/>
       <use xlink:href="#DejaVuSans-2f" transform="translate(233.046875 0)"/>
       <use xlink:href="#DejaVuSans-14" transform="translate(288.765625 0)"/>
       <use xlink:href="#DejaVuSans-3" transform="translate(352.390625 0)"/>
       <use xlink:href="#DejaVuSans-26" transform="translate(384.171875 0)"/>
       <use xlink:href="#DejaVuSans-12" transform="translate(454 0)"/>
       <use xlink:href="#DejaVuSans-24" transform="translate(487.6875 0)"/>
      </g>
     </g>
    </g>
    <g id="xtick_2">
     <g id="line2d_2">
      <g>
       <use xlink:href="#m31e04a3589" x="312.411561" y="276.198125" style="stroke: #000000; stroke-width: 0.8"/>
      </g>
     </g>
     <g id="text_2">
      <!-- Galileo E1-B -->
      <g transform="translate(288.229686 289.276875) scale(0.08 -0.08)">
       <defs>
        <path id="DejaVuSans-44" d="M 2194 1759 
Q 1497 1759 1228 1600 
Q 959 1441 959 1056 
Q 959 750 1161 570 
Q 1363 391 1709 391 
Q 2188 391 2477 730 
Q 2766 1069 2766 1631 
L 2766 1759 
L 2194 1759 
z
M 3341 1997 
L 3341 0 
L 2766 0 
L 2766 531 
Q 2569 213 2275 61 
Q 1981 -91 1556 -91 
Q 1019 -91 701 211 
Q 384 513 384 1019 
Q 384 1609 779 1909 
Q 1175 2209 1959 2209 
L 2766 2209 
L 2766 2266 
Q 2766 2663 2505 2880 
Q 2244 3097 1772 3097 
Q 1472 3097 1187 3025 
Q 903 2953 641 2809 
L 641 3341 
Q 956 3463 1253 3523 
Q 1550 3584 1831 3584 
Q 2591 3584 2966 3190 
Q 3341 2797 3341 1997 
z
" transform="scale(0.015625)"/>
        <path id="DejaVuSans-4f" d="M 603 4863 
L 1178 4863 
L 1178 0 
L 603 0 
L 603 4863 
z
" transform="scale(0.015625)"/>
        <path id="DejaVuSans-4c" d="M 603 3500 
L 1178 3500 
L 1178 0 
L 603 0 
L 603 3500 
z
M 603 4863 
L 1178 4863 
L 1178 4134 
L 603 4134 
L 603 4863 
z
" transform="scale(0.015625)"/>
        <path id="DejaVuSans-48" d="M 3597 1894 
L 3597 1613 
L 953 1613 
Q 991 1019 1311 708 
Q 1631 397 2203 397 
Q 2534 397 2845 478 
Q 3156 559 3463 722 
L 3463 178 
Q 3153 47 2828 -22 
Q 2503 -91 2169 -91 
Q 1331 -91 842 396 
Q 353 884 353 1716 
Q 353 2575 817 3079 
Q 1281 3584 2069 3584 
Q 2775 3584 3186 3129 
Q 3597 2675 3597 1894 
z
M 3022 2063 
Q 3016 2534 2758 2815 
Q 2500 3097 2075 3097 
Q 1594 3097 1305 2825 
Q 1016 2553 972 2059 
L 3022 2063 
z
" transform="scale(0.015625)"/>
        <path id="DejaVuSans-52" d="M 1959 3097 
Q 1497 3097 1228 2736 
Q 959 2375 959 1747 
Q 959 1119 1226 758 
Q 1494 397 1959 397 
Q 2419 397 2687 759 
Q 2956 1122 2956 1747 
Q 2956 2369 2687 2733 
Q 2419 3097 1959 3097 
z
M 1959 3584 
Q 2709 3584 3137 3096 
Q 3566 2609 3566 1747 
Q 3566 888 3137 398 
Q 2709 -91 1959 -91 
Q 1206 -91 779 398 
Q 353 888 353 1747 
Q 353 2609 779 3096 
Q 1206 3584 1959 3584 
z
" transform="scale(0.015625)"/>
        <path id="DejaVuSans-28" d="M 628 4666 
L 3578 4666 
L 3578 4134 
L 1259 4134 
L 1259 2753 
L 3481 2753 
L 3481 2222 
L 1259 2222 
L 1259 531 
L 3634 531 
L 3634 0 
L 628 0 
L 628 4666 
z
" transform="scale(0.015625)"/>
        <path id="DejaVuSans-10" d="M 313 2009 
L 1997 2009 
L 1997 1497 
L 313 1497 
L 313 2009 
z
" transform="scale(0.015625)"/>
        <path id="DejaVuSans-25" d="M 1259 2228 
L 1259 519 
L 2272 519 
Q 2781 519 3026 730 
Q 3272 941 3272 1375 
Q 3272 1813 3026 2020 
Q 2781 2228 2272 2228 
L 1259 2228 
z
M 1259 4147 
L 1259 2741 
L 2194 2741 
Q 2656 2741 2882 2914 
Q 3109 3088 3109 3444 
Q 3109 3797 2882 3972 
Q 2656 4147 2194 4147 
L 1259 4147 
z
M 628 4666 
L 2241 4666 
Q 2963 4666 3353 4366 
Q 3744 4066 3744 3513 
Q 3744 3084 3544 2831 
Q 3344 2578 2956 2516 
Q 3422 2416 3680 2098 
Q 3938 1781 3938 1306 
Q 3938 681 3513 340 
Q 3088 0 2303 0 
L 628 0 
L 628 4666 
z
" transform="scale(0.015625)"/>
       </defs>
       <use xlink:href="#DejaVuSans-2a"/>
       <use xlink:href="#DejaVuSans-44" transform="translate(77.484375 0)"/>
       <use xlink:href="#DejaVuSans-4f" transform="translate(138.765625 0)"/>
       <use xlink:href="#DejaVuSans-4c" transform="translate(166.546875 0)"/>
       <use xlink:href="#DejaVuSans-4f" transform="translate(194.328125 0)"/>
       <use xlink:href="#DejaVuSans-48" transform="translate(222.109375 0)"/>
       <use xlink:href="#DejaVuSans-52" transform="translate(283.640625 0)"/>
       <use xlink:href="#DejaVuSans-3" transform="translate(344.828125 0)"/>
       <use xlink:href="#DejaVuSans-28" transform="translate(376.609375 0)"/>
       <use xlink:href="#DejaVuSans-14" transform="translate(439.796875 0)"/>
       <use xlink:href="#DejaVuSans-10" transform="translate(503.421875 0)"/>
       <use xlink:href="#DejaVuSans-25" transform="translate(535.9375 0)"/>
      </g>
     </g>
    </g>
   </g>
   <g id="matplotlib.axis_2">
    <g id="ytick_1">
     <g id="line2d_3">
      <path d="M 58.042344 276.198125 
L 389.52 276.198125 
" clip-path="url(#p6223db5bed)" style="fill: none; stroke: #b0b0b0; stroke-opacity: 0.3; stroke-width: 0.8; stroke-linecap: square"/>
     </g>
     <g id="line2d_4">
      <defs>
       <path id="m324f95f999" d="M 0 0 
L -3.5 0 
" style="stroke: #000000; stroke-width: 0.8"/>
      </defs>
      <g>
       <use xlink:href="#m324f95f999" x="58.042344" y="276.198125" style="stroke: #000000; stroke-width: 0.8"/>
      </g>
     </g>
     <g id="text_3">
      <!-- 0 -->
      <g transform="translate(44.679844 279.996953) scale(0.1 -0.1)">
       <defs>
        <path id="DejaVuSans-13" d="M 2034 4250 
Q 1547 4250 1301 3770 
Q 1056 3291 1056 2328 
Q 1056 1369 1301 889 
Q 1547 409 2034 409 
Q 2525 409 2770 889 
Q 3016 1369 3016 2328 
Q 3016 3291 2770 3770 
Q 2525 4250 2034 4250 
z
M 2034 4750 
Q 2819 4750 3233 4129 
Q 3647 3509 3647 2328 
Q 3647 1150 3233 529 
Q 2819 -91 2034 -91 
Q 1250 -91 836 529 
Q 422 1150 422 2328 
Q 422 3509 836 4129 
Q 1250 4750 2034 4750 
z
" transform="scale(0.015625)"/>
       </defs>
       <use xlink:href="#DejaVuSans-13"/>
      </g>
     </g>
    </g>
    <g id="ytick_2">
     <g id="line2d_5">
      <path d="M 58.042344 239.297389 
L 389.52 239.297389 
" clip-path="url(#p6223db5bed)" style="fill: none; stroke: #b0b0b0; stroke-opacity: 0.3; stroke-width: 0.8; stroke-linecap: square"/>
     </g>
     <g id="line2d_6">
      <g>
       <use xlink:href="#m324f95f999" x="58.042344" y="239.297389" style="stroke: #000000; stroke-width: 0.8"/>
      </g>
     </g>
     <g id="text_4">
      <!-- 500 -->
      <g transform="translate(31.954844 243.096217) scale(0.1 -0.1)">
       <defs>
        <path id="DejaVuSans-18" d="M 691 4666 
L 3169 4666 
L 3169 4134 
L 1269 4134 
L 1269 2991 
Q 1406 3038 1543 3061 
Q 1681 3084 1819 3084 
Q 2600 3084 3056 2656 
Q 3513 2228 3513 1497 
Q 3513 744 3044 326 
Q 2575 -91 1722 -91 
Q 1428 -91 1123 -41 
Q 819 9 494 109 
L 494 744 
Q 775 591 1075 516 
Q 1375 441 1709 441 
Q 2250 441 2565 725 
Q 2881 1009 2881 1497 
Q 2881 1984 2565 2268 
Q 2250 2553 1709 2553 
Q 1456 2553 1204 2497 
Q 953 2441 691 2322 
L 691 4666 
z
" transform="scale(0.015625)"/>
       </defs>
       <use xlink:href="#DejaVuSans-18"/>
       <use xlink:href="#DejaVuSans-13" transform="translate(63.625 0)"/>
       <use xlink:href="#DejaVuSans-13" transform="translate(127.25 0)"/>
      </g>
     </g>
    </g>
    <g id="ytick_3">
     <g id="line2d_7">
      <path d="M 58.042344 202.396653 
L 389.52 202.396653 
" clip-path="url(#p6223db5bed)" style="fill: none; stroke: #b0b0b0; stroke-opacity: 0.3; stroke-width: 0.8; stroke-linecap: square"/>
     </g>
     <g id="line2d_8">
      <g>
       <use xlink:href="#m324f95f999" x="58.042344" y="202.396653" style="stroke: #000000; stroke-width: 0.8"/>
      </g>
     </g>
     <g id="text_5">
      <!-- 1000 -->
      <g transform="translate(25.592344 206.195481) scale(0.1 -0.1)">
       <use xlink:href="#DejaVuSans-14"/>
       <use xlink:href="#DejaVuSans-13" transform="translate(63.625 0)"/>
       <use xlink:href="#DejaVuSans-13" transform="translate(127.25 0)"/>
       <use xlink:href="#DejaVuSans-13" transform="translate(190.875 0)"/>
      </g>
     </g>
    </g>
    <g id="ytick_4">
     <g id="line2d_9">
      <path d="M 58.042344 165.495917 
L 389.52 165.495917 
" clip-path="url(#p6223db5bed)" style="fill: none; stroke: #b0b0b0; stroke-opacity: 0.3; stroke-width: 0.8; stroke-linecap: square"/>
     </g>
     <g id="line2d_10">
      <g>
       <use xlink:href="#m324f95f999" x="58.042344" y="165.495917" style="stroke: #000000; stroke-width: 0.8"/>
      </g>
     </g>
     <g id="text_6">
      <!-- 1500 -->
      <g transform="translate(25.592344 169.294745) scale(0.1 -0.1)">
       <use xlink:href="#DejaVuSans-14"/>
       <use xlink:href="#DejaVuSans-18" transform="translate(63.625 0)"/>
       <use xlink:href="#DejaVuSans-13" transform="translate(127.25 0)"/>
       <use xlink:href="#DejaVuSans-13" transform="translate(190.875 0)"/>
      </g>
     </g>
    </g>
    <g id="ytick_5">
     <g id="line2d_11">
      <path d="M 58.042344 128.595181 
L 389.52 128.595181 
" clip-path="url(#p6223db5bed)" style="fill: none; stroke: #b0b0b0; stroke-opacity: 0.3; stroke-width: 0.8; stroke-linecap: square"/>
     </g>
     <g id="line2d_12">
      <g>
       <use xlink:href="#m324f95f999" x="58.042344" y="128.595181" style="stroke: #000000; stroke-width: 0.8"/>
      </g>
     </g>
     <g id="text_7">
      <!-- 2000 -->
      <g transform="translate(25.592344 132.39401) scale(0.1 -0.1)">
       <defs>
        <path id="DejaVuSans-15" d="M 1228 531 
L 3431 531 
L 3431 0 
L 469 0 
L 469 531 
Q 828 903 1448 1529 
Q 2069 2156 2228 2338 
Q 2531 2678 2651 2914 
Q 2772 3150 2772 3378 
Q 2772 3750 2511 3984 
Q 2250 4219 1831 4219 
Q 1534 4219 1204 4116 
Q 875 4013 500 3803 
L 500 4441 
Q 881 4594 1212 4672 
Q 1544 4750 1819 4750 
Q 2544 4750 2975 4387 
Q 3406 4025 3406 3419 
Q 3406 3131 3298 2873 
Q 3191 2616 2906 2266 
Q 2828 2175 2409 1742 
Q 1991 1309 1228 531 
z
" transform="scale(0.015625)"/>
       </defs>
       <use xlink:href="#DejaVuSans-15"/>
       <use xlink:href="#DejaVuSans-13" transform="translate(63.625 0)"/>
       <use xlink:href="#DejaVuSans-13" transform="translate(127.25 0)"/>
       <use xlink:href="#DejaVuSans-13" transform="translate(190.875 0)"/>
      </g>
     </g>
    </g>
    <g id="ytick_6">
     <g id="line2d_13">
      <path d="M 58.042344 91.694446 
L 389.52 91.694446 
" clip-path="url(#p6223db5bed)" style="fill: none; stroke: #b0b0b0; stroke-opacity: 0.3; stroke-width: 0.8; stroke-linecap: square"/>
     </g>
     <g id="line2d_14">
      <g>
       <use xlink:href="#m324f95f999" x="58.042344" y="91.694446" style="stroke: #000000; stroke-width: 0.8"/>
      </g>
     </g>
     <g id="text_8">
      <!-- 2500 -->
      <g transform="translate(25.592344 95.493274) scale(0.1 -0.1)">
       <use xlink:href="#DejaVuSans-15"/>
       <use xlink:href="#DejaVuSans-18" transform="translate(63.625 0)"/>
       <use xlink:href="#DejaVuSans-13" transform="translate(127.25 0)"/>
       <use xlink:href="#DejaVuSans-13" transform="translate(190.875 0)"/>
      </g>
     </g>
    </g>
    <g id="ytick_7">
     <g id="line2d_15">
      <path d="M 58.042344 54.79371 
L 389.52 54.79371 
" clip-path="url(#p6223db5bed)" style="fill: none; stroke: #b0b0b0; stroke-opacity: 0.3; stroke-width: 0.8; stroke-linecap: square"/>
     </g>
     <g id="line2d_16">
      <g>
       <use xlink:href="#m324f95f999" x="58.042344" y="54.79371" style="stroke: #000000; stroke-width: 0.8"/>
      </g>
     </g>
     <g id="text_9">
      <!-- 3000 -->
      <g transform="translate(25.592344 58.592538) scale(0.1 -0.1)">
       <defs>
        <path id="DejaVuSans-16" d="M 2597 2516 
Q 3050 2419 3304 2112 
Q 3559 1806 3559 1356 
Q 3559 666 3084 287 
Q 2609 -91 1734 -91 
Q 1441 -91 1130 -33 
Q 819 25 488 141 
L 488 750 
Q 750 597 1062 519 
Q 1375 441 1716 441 
Q 2309 441 2620 675 
Q 2931 909 2931 1356 
Q 2931 1769 2642 2001 
Q 2353 2234 1838 2234 
L 1294 2234 
L 1294 2753 
L 1863 2753 
Q 2328 2753 2575 2939 
Q 2822 3125 2822 3475 
Q 2822 3834 2567 4026 
Q 2313 4219 1838 4219 
Q 1578 4219 1281 4162 
Q 984 4106 628 3988 
L 628 4550 
Q 988 4650 1302 4700 
Q 1616 4750 1894 4750 
Q 2613 4750 3031 4423 
Q 3450 4097 3450 3541 
Q 3450 3153 3228 2886 
Q 3006 2619 2597 2516 
z
" transform="scale(0.015625)"/>
       </defs>
       <use xlink:href="#DejaVuSans-16"/>
       <use xlink:href="#DejaVuSans-13" transform="translate(63.625 0)"/>
       <use xlink:href="#DejaVuSans-13" transform="translate(127.25 0)"/>
       <use xlink:href="#DejaVuSans-13" transform="translate(190.875 0)"/>
      </g>
     </g>
    </g>
    <g id="text_10">
     <!-- desfase de código (muestras) -->
     <g transform="translate(19.19 237.351094) rotate(-90) scale(0.1 -0.1)">
      <defs>
       <path id="DejaVuSans-47" d="M 2906 2969 
L 2906 4863 
L 3481 4863 
L 3481 0 
L 2906 0 
L 2906 525 
Q 2725 213 2448 61 
Q 2172 -91 1784 -91 
Q 1150 -91 751 415 
Q 353 922 353 1747 
Q 353 2572 751 3078 
Q 1150 3584 1784 3584 
Q 2172 3584 2448 3432 
Q 2725 3281 2906 2969 
z
M 947 1747 
Q 947 1113 1208 752 
Q 1469 391 1925 391 
Q 2381 391 2643 752 
Q 2906 1113 2906 1747 
Q 2906 2381 2643 2742 
Q 2381 3103 1925 3103 
Q 1469 3103 1208 2742 
Q 947 2381 947 1747 
z
" transform="scale(0.015625)"/>
       <path id="DejaVuSans-56" d="M 2834 3397 
L 2834 2853 
Q 2591 2978 2328 3040 
Q 2066 3103 1784 3103 
Q 1356 3103 1142 2972 
Q 928 2841 928 2578 
Q 928 2378 1081 2264 
Q 1234 2150 1697 2047 
L 1894 2003 
Q 2506 1872 2764 1633 
Q 3022 1394 3022 966 
Q 3022 478 2636 193 
Q 2250 -91 1575 -91 
Q 1294 -91 989 -36 
Q 684 19 347 128 
L 347 722 
Q 666 556 975 473 
Q 1284 391 1588 391 
Q 1994 391 2212 530 
Q 2431 669 2431 922 
Q 2431 1156 2273 1281 
Q 2116 1406 1581 1522 
L 1381 1569 
Q 847 1681 609 1914 
Q 372 2147 372 2553 
Q 372 3047 722 3315 
Q 1072 3584 1716 3584 
Q 2034 3584 2315 3537 
Q 2597 3491 2834 3397 
z
" transform="scale(0.015625)"/>
       <path id="DejaVuSans-49" d="M 2375 4863 
L 2375 4384 
L 1825 4384 
Q 1516 4384 1395 4259 
Q 1275 4134 1275 3809 
L 1275 3500 
L 2222 3500 
L 2222 3053 
L 1275 3053 
L 1275 0 
L 697 0 
L 697 3053 
L 147 3053 
L 147 3500 
L 697 3500 
L 697 3744 
Q 697 4328 969 4595 
Q 1241 4863 1831 4863 
L 2375 4863 
z
" transform="scale(0.015625)"/>
       <path id="DejaVuSans-46" d="M 3122 3366 
L 3122 2828 
Q 2878 2963 2633 3030 
Q 2388 3097 2138 3097 
Q 1578 3097 1268 2742 
Q 959 2388 959 1747 
Q 959 1106 1268 751 
Q 1578 397 2138 397 
Q 2388 397 2633 464 
Q 2878 531 3122 666 
L 3122 134 
Q 2881 22 2623 -34 
Q 2366 -91 2075 -91 
Q 1284 -91 818 406 
Q 353 903 353 1747 
Q 353 2603 823 3093 
Q 1294 3584 2113 3584 
Q 2378 3584 2631 3529 
Q 2884 3475 3122 3366 
z
" transform="scale(0.015625)"/>
       <path id="DejaVuSans-b5" d="M 1959 3097 
Q 1497 3097 1228 2736 
Q 959 2375 959 1747 
Q 959 1119 1226 758 
Q 1494 397 1959 397 
Q 2419 397 2687 759 
Q 2956 1122 2956 1747 
Q 2956 2369 2687 2733 
Q 2419 3097 1959 3097 
z
M 1959 3584 
Q 2709 3584 3137 3096 
Q 3566 2609 3566 1747 
Q 3566 888 3137 398 
Q 2709 -91 1959 -91 
Q 1206 -91 779 398 
Q 353 888 353 1747 
Q 353 2609 779 3096 
Q 1206 3584 1959 3584 
z
M 2393 5119 
L 3015 5119 
L 1997 3944 
L 1518 3944 
L 2393 5119 
z
" transform="scale(0.015625)"/>
       <path id="DejaVuSans-4a" d="M 2906 1791 
Q 2906 2416 2648 2759 
Q 2391 3103 1925 3103 
Q 1463 3103 1205 2759 
Q 947 2416 947 1791 
Q 947 1169 1205 825 
Q 1463 481 1925 481 
Q 2391 481 2648 825 
Q 2906 1169 2906 1791 
z
M 3481 434 
Q 3481 -459 3084 -895 
Q 2688 -1331 1869 -1331 
Q 1566 -1331 1297 -1286 
Q 1028 -1241 775 -1147 
L 775 -588 
Q 1028 -725 1275 -790 
Q 1522 -856 1778 -856 
Q 2344 -856 2625 -561 
Q 2906 -266 2906 331 
L 2906 616 
Q 2728 306 2450 153 
Q 2172 0 1784 0 
Q 1141 0 747 490 
Q 353 981 353 1791 
Q 353 2603 747 3093 
Q 1141 3584 1784 3584 
Q 2172 3584 2450 3431 
Q 2728 3278 2906 2969 
L 2906 3500 
L 3481 3500 
L 3481 434 
z
" transform="scale(0.015625)"/>
       <path id="DejaVuSans-b" d="M 1984 4856 
Q 1566 4138 1362 3434 
Q 1159 2731 1159 2009 
Q 1159 1288 1364 580 
Q 1569 -128 1984 -844 
L 1484 -844 
Q 1016 -109 783 600 
Q 550 1309 550 2009 
Q 550 2706 781 3412 
Q 1013 4119 1484 4856 
L 1984 4856 
z
" transform="scale(0.015625)"/>
       <path id="DejaVuSans-50" d="M 3328 2828 
Q 3544 3216 3844 3400 
Q 4144 3584 4550 3584 
Q 5097 3584 5394 3201 
Q 5691 2819 5691 2113 
L 5691 0 
L 5113 0 
L 5113 2094 
Q 5113 2597 4934 2840 
Q 4756 3084 4391 3084 
Q 3944 3084 3684 2787 
Q 3425 2491 3425 1978 
L 3425 0 
L 2847 0 
L 2847 2094 
Q 2847 2600 2669 2842 
Q 2491 3084 2119 3084 
Q 1678 3084 1418 2786 
Q 1159 2488 1159 1978 
L 1159 0 
L 581 0 
L 581 3500 
L 1159 3500 
L 1159 2956 
Q 1356 3278 1631 3431 
Q 1906 3584 2284 3584 
Q 2666 3584 2933 3390 
Q 3200 3197 3328 2828 
z
" transform="scale(0.015625)"/>
       <path id="DejaVuSans-58" d="M 544 1381 
L 544 3500 
L 1119 3500 
L 1119 1403 
Q 1119 906 1312 657 
Q 1506 409 1894 409 
Q 2359 409 2629 706 
Q 2900 1003 2900 1516 
L 2900 3500 
L 3475 3500 
L 3475 0 
L 2900 0 
L 2900 538 
Q 2691 219 2414 64 
Q 2138 -91 1772 -91 
Q 1169 -91 856 284 
Q 544 659 544 1381 
z
M 1991 3584 
L 1991 3584 
z
" transform="scale(0.015625)"/>
       <path id="DejaVuSans-57" d="M 1172 4494 
L 1172 3500 
L 2356 3500 
L 2356 3053 
L 1172 3053 
L 1172 1153 
Q 1172 725 1289 603 
Q 1406 481 1766 481 
L 2356 481 
L 2356 0 
L 1766 0 
Q 1100 0 847 248 
Q 594 497 594 1153 
L 594 3053 
L 172 3053 
L 172 3500 
L 594 3500 
L 594 4494 
L 1172 4494 
z
" transform="scale(0.015625)"/>
       <path id="DejaVuSans-55" d="M 2631 2963 
Q 2534 3019 2420 3045 
Q 2306 3072 2169 3072 
Q 1681 3072 1420 2755 
Q 1159 2438 1159 1844 
L 1159 0 
L 581 0 
L 581 3500 
L 1159 3500 
L 1159 2956 
Q 1341 3275 1631 3429 
Q 1922 3584 2338 3584 
Q 2397 3584 2469 3576 
Q 2541 3569 2628 3553 
L 2631 2963 
z
" transform="scale(0.015625)"/>
       <path id="DejaVuSans-c" d="M 513 4856 
L 1013 4856 
Q 1481 4119 1714 3412 
Q 1947 2706 1947 2009 
Q 1947 1309 1714 600 
Q 1481 -109 1013 -844 
L 513 -844 
Q 928 -128 1133 580 
Q 1338 1288 1338 2009 
Q 1338 2731 1133 3434 
Q 928 4138 513 4856 
z
" transform="scale(0.015625)"/>
      </defs>
      <use xlink:href="#DejaVuSans-47"/>
      <use xlink:href="#DejaVuSans-48" transform="translate(63.484375 0)"/>
      <use xlink:href="#DejaVuSans-56" transform="translate(125.015625 0)"/>
      <use xlink:href="#DejaVuSans-49" transform="translate(177.109375 0)"/>
      <use xlink:href="#DejaVuSans-44" transform="translate(212.3125 0)"/>
      <use xlink:href="#DejaVuSans-56" transform="translate(273.59375 0)"/>
      <use xlink:href="#DejaVuSans-48" transform="translate(325.6875 0)"/>
      <use xlink:href="#DejaVuSans-3" transform="translate(387.21875 0)"/>
      <use xlink:href="#DejaVuSans-47" transform="translate(419 0)"/>
      <use xlink:href="#DejaVuSans-48" transform="translate(482.484375 0)"/>
      <use xlink:href="#DejaVuSans-3" transform="translate(544.015625 0)"/>
      <use xlink:href="#DejaVuSans-46" transform="translate(575.796875 0)"/>
      <use xlink:href="#DejaVuSans-b5" transform="translate(630.78125 0)"/>
      <use xlink:href="#DejaVuSans-47" transform="translate(691.96875 0)"/>
      <use xlink:href="#DejaVuSans-4c" transform="translate(755.453125 0)"/>
      <use xlink:href="#DejaVuSans-4a" transform="translate(783.234375 0)"/>
      <use xlink:href="#DejaVuSans-52" transform="translate(846.71875 0)"/>
      <use xlink:href="#DejaVuSans-3" transform="translate(907.90625 0)"/>
      <use xlink:href="#DejaVuSans-b" transform="translate(939.6875 0)"/>
      <use xlink:href="#DejaVuSans-50" transform="translate(978.703125 0)"/>
      <use xlink:href="#DejaVuSans-58" transform="translate(1076.109375 0)"/>
      <use xlink:href="#DejaVuSans-48" transform="translate(1139.484375 0)"/>
      <use xlink:href="#DejaVuSans-56" transform="translate(1201.015625 0)"/>
      <use xlink:href="#DejaVuSans-57" transform="translate(1253.109375 0)"/>
      <use xlink:href="#DejaVuSans-55" transform="translate(1292.3125 0)"/>
      <use xlink:href="#DejaVuSans-44" transform="translate(1333.421875 0)"/>
      <use xlink:href="#DejaVuSans-56" transform="translate(1394.703125 0)"/>
      <use xlink:href="#DejaVuSans-c" transform="translate(1446.796875 0)"/>
     </g>
    </g>
   </g>
   <g id="patch_7">
    <path d="M 58.042344 276.198125 
L 58.042344 49.922813 
" style="fill: none; stroke: #000000; stroke-width: 0.8; stroke-linejoin: miter; stroke-linecap: square"/>
   </g>
   <g id="patch_8">
    <path d="M 389.52 276.198125 
L 389.52 49.922813 
" style="fill: none; stroke: #000000; stroke-width: 0.8; stroke-linejoin: miter; stroke-linecap: square"/>
   </g>
   <g id="patch_9">
    <path d="M 58.042344 276.198125 
L 389.52 276.198125 
" style="fill: none; stroke: #000000; stroke-width: 0.8; stroke-linejoin: miter; stroke-linecap: square"/>
   </g>
   <g id="patch_10">
    <path d="M 58.042344 49.922813 
L 389.52 49.922813 
" style="fill: none; stroke: #000000; stroke-width: 0.8; stroke-linejoin: miter; stroke-linecap: square"/>
   </g>
   <g id="text_11">
    <!-- 523 -->
    <g transform="translate(96.495146 235.67808) scale(0.08 -0.08)">
     <use xlink:href="#DejaVuSans-18"/>
     <use xlink:href="#DejaVuSans-15" transform="translate(63.625 0)"/>
     <use xlink:href="#DejaVuSans-16" transform="translate(127.25 0)"/>
    </g>
   </g>
   <g id="text_12">
    <!-- 524 -->
    <g transform="translate(158.536419 235.604279) scale(0.08 -0.08)">
     <defs>
      <path id="DejaVuSans-17" d="M 2419 4116 
L 825 1625 
L 2419 1625 
L 2419 4116 
z
M 2253 4666 
L 3047 4666 
L 3047 1625 
L 3713 1625 
L 3713 1100 
L 3047 1100 
L 3047 0 
L 2419 0 
L 2419 1100 
L 313 1100 
L 313 1709 
L 2253 4666 
z
" transform="scale(0.015625)"/>
     </defs>
     <use xlink:href="#DejaVuSans-18"/>
     <use xlink:href="#DejaVuSans-15" transform="translate(63.625 0)"/>
     <use xlink:href="#DejaVuSans-17" transform="translate(127.25 0)"/>
    </g>
   </g>
   <g id="text_13">
    <!-- 2919 -->
    <g transform="translate(271.210925 58.849754) scale(0.08 -0.08)">
     <defs>
      <path id="DejaVuSans-1c" d="M 703 97 
L 703 672 
Q 941 559 1184 500 
Q 1428 441 1663 441 
Q 2288 441 2617 861 
Q 2947 1281 2994 2138 
Q 2813 1869 2534 1725 
Q 2256 1581 1919 1581 
Q 1219 1581 811 2004 
Q 403 2428 403 3163 
Q 403 3881 828 4315 
Q 1253 4750 1959 4750 
Q 2769 4750 3195 4129 
Q 3622 3509 3622 2328 
Q 3622 1225 3098 567 
Q 2575 -91 1691 -91 
Q 1453 -91 1209 -44 
Q 966 3 703 97 
z
M 1959 2075 
Q 2384 2075 2632 2365 
Q 2881 2656 2881 3163 
Q 2881 3666 2632 3958 
Q 2384 4250 1959 4250 
Q 1534 4250 1286 3958 
Q 1038 3666 1038 3163 
Q 1038 2656 1286 2365 
Q 1534 2075 1959 2075 
z
" transform="scale(0.015625)"/>
     </defs>
     <use xlink:href="#DejaVuSans-15"/>
     <use xlink:href="#DejaVuSans-1c" transform="translate(63.625 0)"/>
     <use xlink:href="#DejaVuSans-14" transform="translate(127.25 0)"/>
     <use xlink:href="#DejaVuSans-1c" transform="translate(190.875 0)"/>
    </g>
   </g>
   <g id="text_14">
    <!-- 2920 -->
    <g transform="translate(333.252198 58.775952) scale(0.08 -0.08)">
     <use xlink:href="#DejaVuSans-15"/>
     <use xlink:href="#DejaVuSans-1c" transform="translate(63.625 0)"/>
     <use xlink:href="#DejaVuSans-15" transform="translate(127.25 0)"/>
     <use xlink:href="#DejaVuSans-13" transform="translate(190.875 0)"/>
    </g>
   </g>
   <g id="text_15">
    <!-- Desfase de código: tu cadena vs gnss-sdr -->
    <g transform="translate(98.630547 43.922813) scale(0.12 -0.12)">
     <defs>
      <path id="DejaVuSans-27" d="M 1259 4147 
L 1259 519 
L 2022 519 
Q 2988 519 3436 956 
Q 3884 1394 3884 2338 
Q 3884 3275 3436 3711 
Q 2988 4147 2022 4147 
L 1259 4147 
z
M 628 4666 
L 1925 4666 
Q 3281 4666 3915 4102 
Q 4550 3538 4550 2338 
Q 4550 1131 3912 565 
Q 3275 0 1925 0 
L 628 0 
L 628 4666 
z
" transform="scale(0.015625)"/>
      <path id="DejaVuSans-1d" d="M 750 794 
L 1409 794 
L 1409 0 
L 750 0 
L 750 794 
z
M 750 3309 
L 1409 3309 
L 1409 2516 
L 750 2516 
L 750 3309 
z
" transform="scale(0.015625)"/>
      <path id="DejaVuSans-51" d="M 3513 2113 
L 3513 0 
L 2938 0 
L 2938 2094 
Q 2938 2591 2744 2837 
Q 2550 3084 2163 3084 
Q 1697 3084 1428 2787 
Q 1159 2491 1159 1978 
L 1159 0 
L 581 0 
L 581 3500 
L 1159 3500 
L 1159 2956 
Q 1366 3272 1645 3428 
Q 1925 3584 2291 3584 
Q 2894 3584 3203 3211 
Q 3513 2838 3513 2113 
z
" transform="scale(0.015625)"/>
      <path id="DejaVuSans-59" d="M 191 3500 
L 800 3500 
L 1894 563 
L 2988 3500 
L 3597 3500 
L 2284 0 
L 1503 0 
L 191 3500 
z
" transform="scale(0.015625)"/>
     </defs>
     <use xlink:href="#DejaVuSans-27"/>
     <use xlink:href="#DejaVuSans-48" transform="translate(77 0)"/>
     <use xlink:href="#DejaVuSans-56" transform="translate(138.53125 0)"/>
     <use xlink:href="#DejaVuSans-49" transform="translate(190.625 0)"/>
     <use xlink:href="#DejaVuSans-44" transform="translate(225.828125 0)"/>
     <use xlink:href="#DejaVuSans-56" transform="translate(287.109375 0)"/>
     <use xlink:href="#DejaVuSans-48" transform="translate(339.203125 0)"/>
     <use xlink:href="#DejaVuSans-3" transform="translate(400.734375 0)"/>
     <use xlink:href="#DejaVuSans-47" transform="translate(432.515625 0)"/>
     <use xlink:href="#DejaVuSans-48" transform="translate(496 0)"/>
     <use xlink:href="#DejaVuSans-3" transform="translate(557.53125 0)"/>
     <use xlink:href="#DejaVuSans-46" transform="translate(589.3125 0)"/>
     <use xlink:href="#DejaVuSans-b5" transform="translate(644.296875 0)"/>
     <use xlink:href="#DejaVuSans-47" transform="translate(705.484375 0)"/>
     <use xlink:href="#DejaVuSans-4c" transform="translate(768.96875 0)"/>
     <use xlink:href="#DejaVuSans-4a" transform="translate(796.75 0)"/>
     <use xlink:href="#DejaVuSans-52" transform="translate(860.234375 0)"/>
     <use xlink:href="#DejaVuSans-1d" transform="translate(921.421875 0)"/>
     <use xlink:href="#DejaVuSans-3" transform="translate(955.109375 0)"/>
     <use xlink:href="#DejaVuSans-57" transform="translate(986.890625 0)"/>
     <use xlink:href="#DejaVuSans-58" transform="translate(1026.09375 0)"/>
     <use xlink:href="#DejaVuSans-3" transform="translate(1089.46875 0)"/>
     <use xlink:href="#DejaVuSans-46" transform="translate(1121.25 0)"/>
     <use xlink:href="#DejaVuSans-44" transform="translate(1176.234375 0)"/>
     <use xlink:href="#DejaVuSans-47" transform="translate(1237.515625 0)"/>
     <use xlink:href="#DejaVuSans-48" transform="translate(1301 0)"/>
     <use xlink:href="#DejaVuSans-51" transform="translate(1362.53125 0)"/>
     <use xlink:href="#DejaVuSans-44" transform="translate(1425.90625 0)"/>
     <use xlink:href="#DejaVuSans-3" transform="translate(1487.1875 0)"/>
     <use xlink:href="#DejaVuSans-59" transform="translate(1518.96875 0)"/>
     <use xlink:href="#DejaVuSans-56" transform="translate(1578.15625 0)"/>
     <use xlink:href="#DejaVuSans-3" transform="translate(1630.25 0)"/>
     <use xlink:href="#DejaVuSans-4a" transform="translate(1662.03125 0)"/>
     <use xlink:href="#DejaVuSans-51" transform="translate(1725.515625 0)"/>
     <use xlink:href="#DejaVuSans-56" transform="translate(1788.890625 0)"/>
     <use xlink:href="#DejaVuSans-56" transform="translate(1840.984375 0)"/>
     <use xlink:href="#DejaVuSans-10" transform="translate(1893.078125 0)"/>
     <use xlink:href="#DejaVuSans-56" transform="translate(1929.15625 0)"/>
     <use xlink:href="#DejaVuSans-47" transform="translate(1981.25 0)"/>
     <use xlink:href="#DejaVuSans-55" transform="translate(2044.734375 0)"/>
    </g>
   </g>
   <g id="legend_1">
    <g id="patch_11">
     <path d="M 63.642344 80.324063 
L 173.086094 80.324063 
Q 174.686094 80.324063 174.686094 78.724063 
L 174.686094 55.522813 
Q 174.686094 53.922813 173.086094 53.922813 
L 63.642344 53.922813 
Q 62.042344 53.922813 62.042344 55.522813 
L 62.042344 78.724063 
Q 62.042344 80.324063 63.642344 80.324063 
z
" style="fill: #ffffff; opacity: 0.8; stroke: #cccccc; stroke-linejoin: miter"/>
    </g>
    <g id="patch_12">
     <path d="M 65.242344 63.201563 
L 81.242344 63.201563 
L 81.242344 57.601563 
L 65.242344 57.601563 
z
" style="fill: #1f77b4"/>
    </g>
    <g id="text_16">
     <!-- tu cadena (2.1-&gt;2.3) -->
     <g transform="translate(87.642344 63.201563) scale(0.08 -0.08)">
      <defs>
       <path id="DejaVuSans-11" d="M 684 794 
L 1344 794 
L 1344 0 
L 684 0 
L 684 794 
z
" transform="scale(0.015625)"/>
       <path id="DejaVuSans-21" d="M 678 3150 
L 678 3719 
L 4684 2266 
L 4684 1747 
L 678 294 
L 678 863 
L 3897 2003 
L 678 3150 
z
" transform="scale(0.015625)"/>
      </defs>
      <use xlink:href="#DejaVuSans-57"/>
      <use xlink:href="#DejaVuSans-58" transform="translate(39.203125 0)"/>
      <use xlink:href="#DejaVuSans-3" transform="translate(102.578125 0)"/>
      <use xlink:href="#DejaVuSans-46" transform="translate(134.359375 0)"/>
      <use xlink:href="#DejaVuSans-44" transform="translate(189.34375 0)"/>
      <use xlink:href="#DejaVuSans-47" transform="translate(250.625 0)"/>
      <use xlink:href="#DejaVuSans-48" transform="translate(314.109375 0)"/>
      <use xlink:href="#DejaVuSans-51" transform="translate(375.640625 0)"/>
      <use xlink:href="#DejaVuSans-44" transform="translate(439.015625 0)"/>
      <use xlink:href="#DejaVuSans-3" transform="translate(500.296875 0)"/>
      <use xlink:href="#DejaVuSans-b" transform="translate(532.078125 0)"/>
      <use xlink:href="#DejaVuSans-15" transform="translate(571.09375 0)"/>
      <use xlink:href="#DejaVuSans-11" transform="translate(634.71875 0)"/>
      <use xlink:href="#DejaVuSans-14" transform="translate(666.5 0)"/>
      <use xlink:href="#DejaVuSans-10" transform="translate(730.125 0)"/>
      <use xlink:href="#DejaVuSans-21" transform="translate(766.203125 0)"/>
      <use xlink:href="#DejaVuSans-15" transform="translate(850 0)"/>
      <use xlink:href="#DejaVuSans-11" transform="translate(913.625 0)"/>
      <use xlink:href="#DejaVuSans-16" transform="translate(945.40625 0)"/>
      <use xlink:href="#DejaVuSans-c" transform="translate(1009.03125 0)"/>
     </g>
    </g>
    <g id="patch_13">
     <path d="M 65.242344 75.202188 
L 81.242344 75.202188 
L 81.242344 69.602188 
L 65.242344 69.602188 
z
" style="fill: #ff7f0e"/>
    </g>
    <g id="text_17">
     <!-- gnss-sdr (referencia) -->
     <g transform="translate(87.642344 75.202188) scale(0.08 -0.08)">
      <use xlink:href="#DejaVuSans-4a"/>
      <use xlink:href="#DejaVuSans-51" transform="translate(63.484375 0)"/>
      <use xlink:href="#DejaVuSans-56" transform="translate(126.859375 0)"/>
      <use xlink:href="#DejaVuSans-56" transform="translate(178.953125 0)"/>
      <use xlink:href="#DejaVuSans-10" transform="translate(231.046875 0)"/>
      <use xlink:href="#DejaVuSans-56" transform="translate(267.125 0)"/>
      <use xlink:href="#DejaVuSans-47" transform="translate(319.21875 0)"/>
      <use xlink:href="#DejaVuSans-55" transform="translate(382.703125 0)"/>
      <use xlink:href="#DejaVuSans-3" transform="translate(423.8125 0)"/>
      <use xlink:href="#DejaVuSans-b" transform="translate(455.59375 0)"/>
      <use xlink:href="#DejaVuSans-55" transform="translate(494.609375 0)"/>
      <use xlink:href="#DejaVuSans-48" transform="translate(533.515625 0)"/>
      <use xlink:href="#DejaVuSans-49" transform="translate(595.046875 0)"/>
      <use xlink:href="#DejaVuSans-48" transform="translate(630.25 0)"/>
      <use xlink:href="#DejaVuSans-55" transform="translate(691.78125 0)"/>
      <use xlink:href="#DejaVuSans-48" transform="translate(730.6875 0)"/>
      <use xlink:href="#DejaVuSans-51" transform="translate(792.21875 0)"/>
      <use xlink:href="#DejaVuSans-46" transform="translate(855.59375 0)"/>
      <use xlink:href="#DejaVuSans-4c" transform="translate(910.578125 0)"/>
      <use xlink:href="#DejaVuSans-44" transform="translate(938.359375 0)"/>
      <use xlink:href="#DejaVuSans-c" transform="translate(999.640625 0)"/>
     </g>
    </g>
   </g>
  </g>
  <g id="axes_2">
   <g id="patch_14">
    <path d="M 449.722344 276.198125 
L 781.2 276.198125 
L 781.2 49.922813 
L 449.722344 49.922813 
z
" style="fill: #ffffff"/>
   </g>
   <g id="patch_15">
    <path d="M 464.78951 211.334608 
L 526.830783 211.334608 
L 526.830783 60.208054 
L 464.78951 60.208054 
z
" clip-path="url(#pba689cf4c7)" style="fill: #1f77b4"/>
   </g>
   <g id="patch_16">
    <path d="M 642.050289 211.334608 
L 704.091561 211.334608 
L 704.091561 265.308377 
L 642.050289 265.308377 
z
" clip-path="url(#pba689cf4c7)" style="fill: #1f77b4"/>
   </g>
   <g id="patch_17">
    <path d="M 526.830783 211.334608 
L 588.872055 211.334608 
L 588.872055 66.253116 
L 526.830783 66.253116 
z
" clip-path="url(#pba689cf4c7)" style="fill: #ff7f0e"/>
   </g>
   <g id="patch_18">
    <path d="M 704.091561 211.334608 
L 766.132834 211.334608 
L 766.132834 265.912884 
L 704.091561 265.912884 
z
" clip-path="url(#pba689cf4c7)" style="fill: #ff7f0e"/>
   </g>
   <g id="matplotlib.axis_3">
    <g id="xtick_3">
     <g id="line2d_17">
      <g>
       <use xlink:href="#m31e04a3589" x="526.830783" y="276.198125" style="stroke: #000000; stroke-width: 0.8"/>
      </g>
     </g>
     <g id="text_18">
      <!-- GPS L1 C/A -->
      <g transform="translate(504.587033 289.27625) scale(0.08 -0.08)">
       <use xlink:href="#DejaVuSans-2a"/>
       <use xlink:href="#DejaVuSans-33" transform="translate(77.484375 0)"/>
       <use xlink:href="#DejaVuSans-36" transform="translate(137.78125 0)"/>
       <use xlink:href="#DejaVuSans-3" transform="translate(201.265625 0)"/>
       <use xlink:href="#DejaVuSans-2f" transform="translate(233.046875 0)"/>
       <use xlink:href="#DejaVuSans-14" transform="translate(288.765625 0)"/>
       <use xlink:href="#DejaVuSans-3" transform="translate(352.390625 0)"/>
       <use xlink:href="#DejaVuSans-26" transform="translate(384.171875 0)"/>
       <use xlink:href="#DejaVuSans-12" transform="translate(454 0)"/>
       <use xlink:href="#DejaVuSans-24" transform="translate(487.6875 0)"/>
      </g>
     </g>
    </g>
    <g id="xtick_4">
     <g id="line2d_18">
      <g>
       <use xlink:href="#m31e04a3589" x="704.091561" y="276.198125" style="stroke: #000000; stroke-width: 0.8"/>
      </g>
     </g>
     <g id="text_19">
      <!-- Galileo E1-B -->
      <g transform="translate(679.909686 289.276875) scale(0.08 -0.08)">
       <use xlink:href="#DejaVuSans-2a"/>
       <use xlink:href="#DejaVuSans-44" transform="translate(77.484375 0)"/>
       <use xlink:href="#DejaVuSans-4f" transform="translate(138.765625 0)"/>
       <use xlink:href="#DejaVuSans-4c" transform="translate(166.546875 0)"/>
       <use xlink:href="#DejaVuSans-4f" transform="translate(194.328125 0)"/>
       <use xlink:href="#DejaVuSans-48" transform="translate(222.109375 0)"/>
       <use xlink:href="#DejaVuSans-52" transform="translate(283.640625 0)"/>
       <use xlink:href="#DejaVuSans-3" transform="translate(344.828125 0)"/>
       <use xlink:href="#DejaVuSans-28" transform="translate(376.609375 0)"/>
       <use xlink:href="#DejaVuSans-14" transform="translate(439.796875 0)"/>
       <use xlink:href="#DejaVuSans-10" transform="translate(503.421875 0)"/>
       <use xlink:href="#DejaVuSans-25" transform="translate(535.9375 0)"/>
      </g>
     </g>
    </g>
   </g>
   <g id="matplotlib.axis_4">
    <g id="ytick_8">
     <g id="line2d_19">
      <path d="M 449.722344 254.513623 
L 781.2 254.513623 
" clip-path="url(#pba689cf4c7)" style="fill: none; stroke: #b0b0b0; stroke-opacity: 0.3; stroke-width: 0.8; stroke-linecap: square"/>
     </g>
     <g id="line2d_20">
      <g>
       <use xlink:href="#m324f95f999" x="449.722344" y="254.513623" style="stroke: #000000; stroke-width: 0.8"/>
      </g>
     </g>
     <g id="text_20">
      <!-- −500 -->
      <g transform="translate(415.255156 258.312452) scale(0.1 -0.1)">
       <defs>
        <path id="DejaVuSans-c9c" d="M 678 2272 
L 4684 2272 
L 4684 1741 
L 678 1741 
L 678 2272 
z
" transform="scale(0.015625)"/>
       </defs>
       <use xlink:href="#DejaVuSans-c9c"/>
       <use xlink:href="#DejaVuSans-18" transform="translate(83.796875 0)"/>
       <use xlink:href="#DejaVuSans-13" transform="translate(147.421875 0)"/>
       <use xlink:href="#DejaVuSans-13" transform="translate(211.046875 0)"/>
      </g>
     </g>
    </g>
    <g id="ytick_9">
     <g id="line2d_21">
      <path d="M 449.722344 211.334608 
L 781.2 211.334608 
" clip-path="url(#pba689cf4c7)" style="fill: none; stroke: #b0b0b0; stroke-opacity: 0.3; stroke-width: 0.8; stroke-linecap: square"/>
     </g>
     <g id="line2d_22">
      <g>
       <use xlink:href="#m324f95f999" x="449.722344" y="211.334608" style="stroke: #000000; stroke-width: 0.8"/>
      </g>
     </g>
     <g id="text_21">
      <!-- 0 -->
      <g transform="translate(436.359844 215.133436) scale(0.1 -0.1)">
       <use xlink:href="#DejaVuSans-13"/>
      </g>
     </g>
    </g>
    <g id="ytick_10">
     <g id="line2d_23">
      <path d="M 449.722344 168.155593 
L 781.2 168.155593 
" clip-path="url(#pba689cf4c7)" style="fill: none; stroke: #b0b0b0; stroke-opacity: 0.3; stroke-width: 0.8; stroke-linecap: square"/>
     </g>
     <g id="line2d_24">
      <g>
       <use xlink:href="#m324f95f999" x="449.722344" y="168.155593" style="stroke: #000000; stroke-width: 0.8"/>
      </g>
     </g>
     <g id="text_22">
      <!-- 500 -->
      <g transform="translate(423.634844 171.954421) scale(0.1 -0.1)">
       <use xlink:href="#DejaVuSans-18"/>
       <use xlink:href="#DejaVuSans-13" transform="translate(63.625 0)"/>
       <use xlink:href="#DejaVuSans-13" transform="translate(127.25 0)"/>
      </g>
     </g>
    </g>
    <g id="ytick_11">
     <g id="line2d_25">
      <path d="M 449.722344 124.976577 
L 781.2 124.976577 
" clip-path="url(#pba689cf4c7)" style="fill: none; stroke: #b0b0b0; stroke-opacity: 0.3; stroke-width: 0.8; stroke-linecap: square"/>
     </g>
     <g id="line2d_26">
      <g>
       <use xlink:href="#m324f95f999" x="449.722344" y="124.976577" style="stroke: #000000; stroke-width: 0.8"/>
      </g>
     </g>
     <g id="text_23">
      <!-- 1000 -->
      <g transform="translate(417.272344 128.775405) scale(0.1 -0.1)">
       <use xlink:href="#DejaVuSans-14"/>
       <use xlink:href="#DejaVuSans-13" transform="translate(63.625 0)"/>
       <use xlink:href="#DejaVuSans-13" transform="translate(127.25 0)"/>
       <use xlink:href="#DejaVuSans-13" transform="translate(190.875 0)"/>
      </g>
     </g>
    </g>
    <g id="ytick_12">
     <g id="line2d_27">
      <path d="M 449.722344 81.797562 
L 781.2 81.797562 
" clip-path="url(#pba689cf4c7)" style="fill: none; stroke: #b0b0b0; stroke-opacity: 0.3; stroke-width: 0.8; stroke-linecap: square"/>
     </g>
     <g id="line2d_28">
      <g>
       <use xlink:href="#m324f95f999" x="449.722344" y="81.797562" style="stroke: #000000; stroke-width: 0.8"/>
      </g>
     </g>
     <g id="text_24">
      <!-- 1500 -->
      <g transform="translate(417.272344 85.59639) scale(0.1 -0.1)">
       <use xlink:href="#DejaVuSans-14"/>
       <use xlink:href="#DejaVuSans-18" transform="translate(63.625 0)"/>
       <use xlink:href="#DejaVuSans-13" transform="translate(127.25 0)"/>
       <use xlink:href="#DejaVuSans-13" transform="translate(190.875 0)"/>
      </g>
     </g>
    </g>
    <g id="text_25">
     <!-- Doppler (Hz) -->
     <g transform="translate(408.852813 194.714375) rotate(-90) scale(0.1 -0.1)">
      <defs>
       <path id="DejaVuSans-53" d="M 1159 525 
L 1159 -1331 
L 581 -1331 
L 581 3500 
L 1159 3500 
L 1159 2969 
Q 1341 3281 1617 3432 
Q 1894 3584 2278 3584 
Q 2916 3584 3314 3078 
Q 3713 2572 3713 1747 
Q 3713 922 3314 415 
Q 2916 -91 2278 -91 
Q 1894 -91 1617 61 
Q 1341 213 1159 525 
z
M 3116 1747 
Q 3116 2381 2855 2742 
Q 2594 3103 2138 3103 
Q 1681 3103 1420 2742 
Q 1159 2381 1159 1747 
Q 1159 1113 1420 752 
Q 1681 391 2138 391 
Q 2594 391 2855 752 
Q 3116 1113 3116 1747 
z
" transform="scale(0.015625)"/>
       <path id="DejaVuSans-2b" d="M 628 4666 
L 1259 4666 
L 1259 2753 
L 3553 2753 
L 3553 4666 
L 4184 4666 
L 4184 0 
L 3553 0 
L 3553 2222 
L 1259 2222 
L 1259 0 
L 628 0 
L 628 4666 
z
" transform="scale(0.015625)"/>
       <path id="DejaVuSans-5d" d="M 353 3500 
L 3084 3500 
L 3084 2975 
L 922 459 
L 3084 459 
L 3084 0 
L 275 0 
L 275 525 
L 2438 3041 
L 353 3041 
L 353 3500 
z
" transform="scale(0.015625)"/>
      </defs>
      <use xlink:href="#DejaVuSans-27"/>
      <use xlink:href="#DejaVuSans-52" transform="translate(77 0)"/>
      <use xlink:href="#DejaVuSans-53" transform="translate(138.1875 0)"/>
      <use xlink:href="#DejaVuSans-53" transform="translate(201.671875 0)"/>
      <use xlink:href="#DejaVuSans-4f" transform="translate(265.15625 0)"/>
      <use xlink:href="#DejaVuSans-48" transform="translate(292.9375 0)"/>
      <use xlink:href="#DejaVuSans-55" transform="translate(354.46875 0)"/>
      <use xlink:href="#DejaVuSans-3" transform="translate(395.578125 0)"/>
      <use xlink:href="#DejaVuSans-b" transform="translate(427.359375 0)"/>
      <use xlink:href="#DejaVuSans-2b" transform="translate(466.375 0)"/>
      <use xlink:href="#DejaVuSans-5d" transform="translate(541.578125 0)"/>
      <use xlink:href="#DejaVuSans-c" transform="translate(594.0625 0)"/>
     </g>
    </g>
   </g>
   <g id="line2d_29">
    <path d="M 449.722344 211.334608 
L 781.2 211.334608 
" clip-path="url(#pba689cf4c7)" style="fill: none; stroke: #000000; stroke-width: 0.5; stroke-linecap: square"/>
   </g>
   <g id="patch_19">
    <path d="M 449.722344 276.198125 
L 449.722344 49.922813 
" style="fill: none; stroke: #000000; stroke-width: 0.8; stroke-linejoin: miter; stroke-linecap: square"/>
   </g>
   <g id="patch_20">
    <path d="M 781.2 276.198125 
L 781.2 49.922813 
" style="fill: none; stroke: #000000; stroke-width: 0.8; stroke-linejoin: miter; stroke-linecap: square"/>
   </g>
   <g id="patch_21">
    <path d="M 449.722344 276.198125 
L 781.2 276.198125 
" style="fill: none; stroke: #000000; stroke-width: 0.8; stroke-linejoin: miter; stroke-linecap: square"/>
   </g>
   <g id="patch_22">
    <path d="M 449.722344 49.922813 
L 781.2 49.922813 
" style="fill: none; stroke: #000000; stroke-width: 0.8; stroke-linejoin: miter; stroke-linecap: square"/>
   </g>
   <g id="text_26">
    <!-- +1750 -->
    <g transform="translate(482.278271 58.286179) scale(0.08 -0.08)">
     <defs>
      <path id="DejaVuSans-e" d="M 2944 4013 
L 2944 2272 
L 4684 2272 
L 4684 1741 
L 2944 1741 
L 2944 0 
L 2419 0 
L 2419 1741 
L 678 1741 
L 678 2272 
L 2419 2272 
L 2419 4013 
L 2944 4013 
z
" transform="scale(0.015625)"/>
      <path id="DejaVuSans-1a" d="M 525 4666 
L 3525 4666 
L 3525 4397 
L 1831 0 
L 1172 0 
L 2766 4134 
L 525 4134 
L 525 4666 
z
" transform="scale(0.015625)"/>
     </defs>
     <use xlink:href="#DejaVuSans-e"/>
     <use xlink:href="#DejaVuSans-14" transform="translate(83.796875 0)"/>
     <use xlink:href="#DejaVuSans-1a" transform="translate(147.421875 0)"/>
     <use xlink:href="#DejaVuSans-18" transform="translate(211.046875 0)"/>
     <use xlink:href="#DejaVuSans-13" transform="translate(274.671875 0)"/>
    </g>
   </g>
   <g id="text_27">
    <!-- +1680 -->
    <g transform="translate(544.319544 64.331241) scale(0.08 -0.08)">
     <defs>
      <path id="DejaVuSans-19" d="M 2113 2584 
Q 1688 2584 1439 2293 
Q 1191 2003 1191 1497 
Q 1191 994 1439 701 
Q 1688 409 2113 409 
Q 2538 409 2786 701 
Q 3034 994 3034 1497 
Q 3034 2003 2786 2293 
Q 2538 2584 2113 2584 
z
M 3366 4563 
L 3366 3988 
Q 3128 4100 2886 4159 
Q 2644 4219 2406 4219 
Q 1781 4219 1451 3797 
Q 1122 3375 1075 2522 
Q 1259 2794 1537 2939 
Q 1816 3084 2150 3084 
Q 2853 3084 3261 2657 
Q 3669 2231 3669 1497 
Q 3669 778 3244 343 
Q 2819 -91 2113 -91 
Q 1303 -91 875 529 
Q 447 1150 447 2328 
Q 447 3434 972 4092 
Q 1497 4750 2381 4750 
Q 2619 4750 2861 4703 
Q 3103 4656 3366 4563 
z
" transform="scale(0.015625)"/>
      <path id="DejaVuSans-1b" d="M 2034 2216 
Q 1584 2216 1326 1975 
Q 1069 1734 1069 1313 
Q 1069 891 1326 650 
Q 1584 409 2034 409 
Q 2484 409 2743 651 
Q 3003 894 3003 1313 
Q 3003 1734 2745 1975 
Q 2488 2216 2034 2216 
z
M 1403 2484 
Q 997 2584 770 2862 
Q 544 3141 544 3541 
Q 544 4100 942 4425 
Q 1341 4750 2034 4750 
Q 2731 4750 3128 4425 
Q 3525 4100 3525 3541 
Q 3525 3141 3298 2862 
Q 3072 2584 2669 2484 
Q 3125 2378 3379 2068 
Q 3634 1759 3634 1313 
Q 3634 634 3220 271 
Q 2806 -91 2034 -91 
Q 1263 -91 848 271 
Q 434 634 434 1313 
Q 434 1759 690 2068 
Q 947 2378 1403 2484 
z
M 1172 3481 
Q 1172 3119 1398 2916 
Q 1625 2713 2034 2713 
Q 2441 2713 2670 2916 
Q 2900 3119 2900 3481 
Q 2900 3844 2670 4047 
Q 2441 4250 2034 4250 
Q 1625 4250 1398 4047 
Q 1172 3844 1172 3481 
z
" transform="scale(0.015625)"/>
     </defs>
     <use xlink:href="#DejaVuSans-e"/>
     <use xlink:href="#DejaVuSans-14" transform="translate(83.796875 0)"/>
     <use xlink:href="#DejaVuSans-19" transform="translate(147.421875 0)"/>
     <use xlink:href="#DejaVuSans-1b" transform="translate(211.046875 0)"/>
     <use xlink:href="#DejaVuSans-13" transform="translate(274.671875 0)"/>
    </g>
   </g>
   <g id="text_28">
    <!-- -625 -->
    <g transform="translate(663.9928 271.386502) scale(0.08 -0.08)">
     <use xlink:href="#DejaVuSans-10"/>
     <use xlink:href="#DejaVuSans-19" transform="translate(36.078125 0)"/>
     <use xlink:href="#DejaVuSans-15" transform="translate(99.703125 0)"/>
     <use xlink:href="#DejaVuSans-18" transform="translate(163.328125 0)"/>
    </g>
   </g>
   <g id="text_29">
    <!-- -632 -->
    <g transform="translate(726.034073 271.991009) scale(0.08 -0.08)">
     <use xlink:href="#DejaVuSans-10"/>
     <use xlink:href="#DejaVuSans-19" transform="translate(36.078125 0)"/>
     <use xlink:href="#DejaVuSans-16" transform="translate(99.703125 0)"/>
     <use xlink:href="#DejaVuSans-15" transform="translate(163.328125 0)"/>
    </g>
   </g>
   <g id="text_30">
    <!-- Doppler: tu cadena vs gnss-sdr -->
    <g transform="translate(521.966172 43.922813) scale(0.12 -0.12)">
     <use xlink:href="#DejaVuSans-27"/>
     <use xlink:href="#DejaVuSans-52" transform="translate(77 0)"/>
     <use xlink:href="#DejaVuSans-53" transform="translate(138.1875 0)"/>
     <use xlink:href="#DejaVuSans-53" transform="translate(201.671875 0)"/>
     <use xlink:href="#DejaVuSans-4f" transform="translate(265.15625 0)"/>
     <use xlink:href="#DejaVuSans-48" transform="translate(292.9375 0)"/>
     <use xlink:href="#DejaVuSans-55" transform="translate(354.46875 0)"/>
     <use xlink:href="#DejaVuSans-1d" transform="translate(393.828125 0)"/>
     <use xlink:href="#DejaVuSans-3" transform="translate(427.515625 0)"/>
     <use xlink:href="#DejaVuSans-57" transform="translate(459.296875 0)"/>
     <use xlink:href="#DejaVuSans-58" transform="translate(498.5 0)"/>
     <use xlink:href="#DejaVuSans-3" transform="translate(561.875 0)"/>
     <use xlink:href="#DejaVuSans-46" transform="translate(593.65625 0)"/>
     <use xlink:href="#DejaVuSans-44" transform="translate(648.640625 0)"/>
     <use xlink:href="#DejaVuSans-47" transform="translate(709.921875 0)"/>
     <use xlink:href="#DejaVuSans-48" transform="translate(773.40625 0)"/>
     <use xlink:href="#DejaVuSans-51" transform="translate(834.9375 0)"/>
     <use xlink:href="#DejaVuSans-44" transform="translate(898.3125 0)"/>
     <use xlink:href="#DejaVuSans-3" transform="translate(959.59375 0)"/>
     <use xlink:href="#DejaVuSans-59" transform="translate(991.375 0)"/>
     <use xlink:href="#DejaVuSans-56" transform="translate(1050.5625 0)"/>
     <use xlink:href="#DejaVuSans-3" transform="translate(1102.65625 0)"/>
     <use xlink:href="#DejaVuSans-4a" transform="translate(1134.4375 0)"/>
     <use xlink:href="#DejaVuSans-51" transform="translate(1197.921875 0)"/>
     <use xlink:href="#DejaVuSans-56" transform="translate(1261.296875 0)"/>
     <use xlink:href="#DejaVuSans-56" transform="translate(1313.390625 0)"/>
     <use xlink:href="#DejaVuSans-10" transform="translate(1365.484375 0)"/>
     <use xlink:href="#DejaVuSans-56" transform="translate(1401.5625 0)"/>
     <use xlink:href="#DejaVuSans-47" transform="translate(1453.65625 0)"/>
     <use xlink:href="#DejaVuSans-55" transform="translate(1517.140625 0)"/>
    </g>
   </g>
   <g id="legend_2">
    <g id="patch_23">
     <path d="M 709.97625 80.324063 
L 775.6 80.324063 
Q 777.2 80.324063 777.2 78.724063 
L 777.2 55.522813 
Q 777.2 53.922813 775.6 53.922813 
L 709.97625 53.922813 
Q 708.37625 53.922813 708.37625 55.522813 
L 708.37625 78.724063 
Q 708.37625 80.324063 709.97625 80.324063 
z
" style="fill: #ffffff; opacity: 0.8; stroke: #cccccc; stroke-linejoin: miter"/>
    </g>
    <g id="patch_24">
     <path d="M 711.57625 63.201563 
L 727.57625 63.201563 
L 727.57625 57.601563 
L 711.57625 57.601563 
z
" style="fill: #1f77b4"/>
    </g>
    <g id="text_31">
     <!-- tu cadena -->
     <g transform="translate(733.97625 63.201563) scale(0.08 -0.08)">
      <use xlink:href="#DejaVuSans-57"/>
      <use xlink:href="#DejaVuSans-58" transform="translate(39.203125 0)"/>
      <use xlink:href="#DejaVuSans-3" transform="translate(102.578125 0)"/>
      <use xlink:href="#DejaVuSans-46" transform="translate(134.359375 0)"/>
      <use xlink:href="#DejaVuSans-44" transform="translate(189.34375 0)"/>
      <use xlink:href="#DejaVuSans-47" transform="translate(250.625 0)"/>
      <use xlink:href="#DejaVuSans-48" transform="translate(314.109375 0)"/>
      <use xlink:href="#DejaVuSans-51" transform="translate(375.640625 0)"/>
      <use xlink:href="#DejaVuSans-44" transform="translate(439.015625 0)"/>
     </g>
    </g>
    <g id="patch_25">
     <path d="M 711.57625 75.202188 
L 727.57625 75.202188 
L 727.57625 69.602188 
L 711.57625 69.602188 
z
" style="fill: #ff7f0e"/>
    </g>
    <g id="text_32">
     <!-- gnss-sdr -->
     <g transform="translate(733.97625 75.202188) scale(0.08 -0.08)">
      <use xlink:href="#DejaVuSans-4a"/>
      <use xlink:href="#DejaVuSans-51" transform="translate(63.484375 0)"/>
      <use xlink:href="#DejaVuSans-56" transform="translate(126.859375 0)"/>
      <use xlink:href="#DejaVuSans-56" transform="translate(178.953125 0)"/>
      <use xlink:href="#DejaVuSans-10" transform="translate(231.046875 0)"/>
      <use xlink:href="#DejaVuSans-56" transform="translate(267.125 0)"/>
      <use xlink:href="#DejaVuSans-47" transform="translate(319.21875 0)"/>
      <use xlink:href="#DejaVuSans-55" transform="translate(382.703125 0)"/>
     </g>
    </g>
   </g>
  </g>
  <g id="text_33">
   <!-- Modulo 2 cerrado: tu receptor concuerda con la referencia -->
   <g transform="translate(220.829063 15.166125) scale(0.12 -0.12)">
    <defs>
     <path id="DejaVuSans-30" d="M 628 4666 
L 1569 4666 
L 2759 1491 
L 3956 4666 
L 4897 4666 
L 4897 0 
L 4281 0 
L 4281 4097 
L 3078 897 
L 2444 897 
L 1241 4097 
L 1241 0 
L 628 0 
L 628 4666 
z
" transform="scale(0.015625)"/>
    </defs>
    <use xlink:href="#DejaVuSans-30"/>
    <use xlink:href="#DejaVuSans-52" transform="translate(86.28125 0)"/>
    <use xlink:href="#DejaVuSans-47" transform="translate(147.46875 0)"/>
    <use xlink:href="#DejaVuSans-58" transform="translate(210.953125 0)"/>
    <use xlink:href="#DejaVuSans-4f" transform="translate(274.328125 0)"/>
    <use xlink:href="#DejaVuSans-52" transform="translate(302.109375 0)"/>
    <use xlink:href="#DejaVuSans-3" transform="translate(363.296875 0)"/>
    <use xlink:href="#DejaVuSans-15" transform="translate(395.078125 0)"/>
    <use xlink:href="#DejaVuSans-3" transform="translate(458.703125 0)"/>
    <use xlink:href="#DejaVuSans-46" transform="translate(490.484375 0)"/>
    <use xlink:href="#DejaVuSans-48" transform="translate(545.46875 0)"/>
    <use xlink:href="#DejaVuSans-55" transform="translate(607 0)"/>
    <use xlink:href="#DejaVuSans-55" transform="translate(646.359375 0)"/>
    <use xlink:href="#DejaVuSans-44" transform="translate(687.46875 0)"/>
    <use xlink:href="#DejaVuSans-47" transform="translate(748.75 0)"/>
    <use xlink:href="#DejaVuSans-52" transform="translate(812.234375 0)"/>
    <use xlink:href="#DejaVuSans-1d" transform="translate(873.421875 0)"/>
    <use xlink:href="#DejaVuSans-3" transform="translate(907.109375 0)"/>
    <use xlink:href="#DejaVuSans-57" transform="translate(938.890625 0)"/>
    <use xlink:href="#DejaVuSans-58" transform="translate(978.09375 0)"/>
    <use xlink:href="#DejaVuSans-3" transform="translate(1041.46875 0)"/>
    <use xlink:href="#DejaVuSans-55" transform="translate(1073.25 0)"/>
    <use xlink:href="#DejaVuSans-48" transform="translate(1112.15625 0)"/>
    <use xlink:href="#DejaVuSans-46" transform="translate(1173.6875 0)"/>
    <use xlink:href="#DejaVuSans-48" transform="translate(1228.671875 0)"/>
    <use xlink:href="#DejaVuSans-53" transform="translate(1290.203125 0)"/>
    <use xlink:href="#DejaVuSans-57" transform="translate(1353.6875 0)"/>
    <use xlink:href="#DejaVuSans-52" transform="translate(1392.890625 0)"/>
    <use xlink:href="#DejaVuSans-55" transform="translate(1454.078125 0)"/>
    <use xlink:href="#DejaVuSans-3" transform="translate(1495.1875 0)"/>
    <use xlink:href="#DejaVuSans-46" transform="translate(1526.96875 0)"/>
    <use xlink:href="#DejaVuSans-52" transform="translate(1581.953125 0)"/>
    <use xlink:href="#DejaVuSans-51" transform="translate(1643.140625 0)"/>
    <use xlink:href="#DejaVuSans-46" transform="translate(1706.515625 0)"/>
    <use xlink:href="#DejaVuSans-58" transform="translate(1761.5 0)"/>
    <use xlink:href="#DejaVuSans-48" transform="translate(1824.875 0)"/>
    <use xlink:href="#DejaVuSans-55" transform="translate(1886.40625 0)"/>
    <use xlink:href="#DejaVuSans-47" transform="translate(1925.765625 0)"/>
    <use xlink:href="#DejaVuSans-44" transform="translate(1989.25 0)"/>
    <use xlink:href="#DejaVuSans-3" transform="translate(2050.53125 0)"/>
    <use xlink:href="#DejaVuSans-46" transform="translate(2082.3125 0)"/>
    <use xlink:href="#DejaVuSans-52" transform="translate(2137.296875 0)"/>
    <use xlink:href="#DejaVuSans-51" transform="translate(2198.484375 0)"/>
    <use xlink:href="#DejaVuSans-3" transform="translate(2261.859375 0)"/>
    <use xlink:href="#DejaVuSans-4f" transform="translate(2293.640625 0)"/>
    <use xlink:href="#DejaVuSans-44" transform="translate(2321.421875 0)"/>
    <use xlink:href="#DejaVuSans-3" transform="translate(2382.703125 0)"/>
    <use xlink:href="#DejaVuSans-55" transform="translate(2414.484375 0)"/>
    <use xlink:href="#DejaVuSans-48" transform="translate(2453.390625 0)"/>
    <use xlink:href="#DejaVuSans-49" transform="translate(2514.921875 0)"/>
    <use xlink:href="#DejaVuSans-48" transform="translate(2550.125 0)"/>
    <use xlink:href="#DejaVuSans-55" transform="translate(2611.65625 0)"/>
    <use xlink:href="#DejaVuSans-48" transform="translate(2650.5625 0)"/>
    <use xlink:href="#DejaVuSans-51" transform="translate(2712.09375 0)"/>
    <use xlink:href="#DejaVuSans-46" transform="translate(2775.46875 0)"/>
    <use xlink:href="#DejaVuSans-4c" transform="translate(2830.453125 0)"/>
    <use xlink:href="#DejaVuSans-44" transform="translate(2858.234375 0)"/>
   </g>
  </g>
 </g>
 <defs>
  <clipPath id="p6223db5bed">
   <rect x="58.042344" y="49.922813" width="331.477656" height="226.275312"/>
  </clipPath>
  <clipPath id="pba689cf4c7">
   <rect x="449.722344" y="49.922813" width="331.477656" height="226.275312"/>
  </clipPath>
 </defs>
</svg>
