<?xml version="1.0" encoding="utf-8" standalone="no"?>
<!DOCTYPE svg PUBLIC "-//W3C//DTD SVG 1.1//EN"
  "http://www.w3.org/Graphics/SVG/1.1/DTD/svg11.dtd">
<svg xmlns:xlink="http://www.w3.org/1999/xlink" width="792pt" height="309.6pt" viewBox="0 0 792 309.6" xmlns="http://www.w3.org/2000/svg" version="1.1">
 <metadata>
  <rdf:RDF xmlns:dc="http://purl.org/dc/elements/1.1/" xmlns:cc="http://creativecommons.org/ns#" xmlns:rdf="http://www.w3.org/1999/02/22-rdf-syntax-ns#">
   <cc:Work>
    <dc:type rdf:resource="http://purl.org/dc/dcmitype/StillImage"/>
    <dc:date>2026-07-05T02:09:09.153366</dc:date>
    <dc:format>image/svg+xml</dc:format>
    <dc:creator>
     <cc:Agent>
      <dc:title>Matplotlib v3.11.0, https://matplotlib.org/</dc:title>
     </cc:Agent>
    </dc:creator>
   </cc:Work>
  </rdf:RDF>
 </metadata>
 <defs>
  <style type="text/css">*{stroke-linejoin: round; stroke-linecap: butt}</style>
 </defs>
 <g id="figure_1">
  <g id="patch_1">
   <path d="M 0 309.6 
L 792 309.6 
L 792 0 
L 0 0 
z
" style="fill: #ffffff"/>
  </g>
  <g id="axes_1">
   <g id="patch_2">
    <path d="M 45.082344 267.477656 
L 387.460909 267.477656 
L 387.460909 43.446328 
L 45.082344 43.446328 
z
" style="fill: #ffffff"/>
   </g>
   <g id="matplotlib.axis_1">
    <g id="xtick_1">
     <g id="line2d_1">
      <path d="M 115.572048 267.477656 
L 115.572048 43.446328 
" clip-path="url(#p64ed10c128)" style="fill: none; stroke: #b0b0b0; stroke-opacity: 0.3; stroke-width: 0.8; stroke-linecap: square"/>
     </g>
     <g id="line2d_2">
      <defs>
       <path id="m810fb789ea" d="M 0 0 
L 0 3.5 
" style="stroke: #000000; stroke-width: 0.8"/>
      </defs>
      <g>
       <use xlink:href="#m810fb789ea" x="115.572048" y="267.477656" style="stroke: #000000; stroke-width: 0.8"/>
      </g>
     </g>
     <g id="text_1">
      <!-- 20 -->
      <g transform="translate(109.209548 282.075312) scale(0.1 -0.1)">
       <defs>
        <path id="DejaVuSans-15" d="M 1228 531 
L 3431 531 
L 3431 0 
L 469 0 
L 469 531 
Q 828 903 1448 1529 
Q 2069 2156 2228 2338 
Q 2531 2678 2651 2914 
Q 2772 3150 2772 3378 
Q 2772 3750 2511 3984 
Q 2250 4219 1831 4219 
Q 1534 4219 1204 4116 
Q 875 4013 500 3803 
L 500 4441 
Q 881 4594 1212 4672 
Q 1544 4750 1819 4750 
Q 2544 4750 2975 4387 
Q 3406 4025 3406 3419 
Q 3406 3131 3298 2873 
Q 3191 2616 2906 2266 
Q 2828 2175 2409 1742 
Q 1991 1309 1228 531 
z
" transform="scale(0.015625)"/>
        <path id="DejaVuSans-13" d="M 2034 4250 
Q 1547 4250 1301 3770 
Q 1056 3291 1056 2328 
Q 1056 1369 1301 889 
Q 1547 409 2034 409 
Q 2525 409 2770 889 
Q 3016 1369 3016 2328 
Q 3016 3291 2770 3770 
Q 2525 4250 2034 4250 
z
M 2034 4750 
Q 2819 4750 3233 4129 
Q 3647 3509 3647 2328 
Q 3647 1150 3233 529 
Q 2819 -91 2034 -91 
Q 1250 -91 836 529 
Q 422 1150 422 2328 
Q 422 3509 836 4129 
Q 1250 4750 2034 4750 
z
" transform="scale(0.015625)"/>
       </defs>
       <use xlink:href="#DejaVuSans-15"/>
       <use xlink:href="#DejaVuSans-13" transform="translate(63.625 0)"/>
      </g>
     </g>
    </g>
    <g id="xtick_2">
     <g id="line2d_3">
      <path d="M 188.808105 267.477656 
L 188.808105 43.446328 
" clip-path="url(#p64ed10c128)" style="fill: none; stroke: #b0b0b0; stroke-opacity: 0.3; stroke-width: 0.8; stroke-linecap: square"/>
     </g>
     <g id="line2d_4">
      <g>
       <use xlink:href="#m810fb789ea" x="188.808105" y="267.477656" style="stroke: #000000; stroke-width: 0.8"/>
      </g>
     </g>
     <g id="text_2">
      <!-- 40 -->
      <g transform="translate(182.445605 282.075312) scale(0.1 -0.1)">
       <defs>
        <path id="DejaVuSans-17" d="M 2419 4116 
L 825 1625 
L 2419 1625 
L 2419 4116 
z
M 2253 4666 
L 3047 4666 
L 3047 1625 
L 3713 1625 
L 3713 1100 
L 3047 1100 
L 3047 0 
L 2419 0 
L 2419 1100 
L 313 1100 
L 313 1709 
L 2253 4666 
z
" transform="scale(0.015625)"/>
       </defs>
       <use xlink:href="#DejaVuSans-17"/>
       <use xlink:href="#DejaVuSans-13" transform="translate(63.625 0)"/>
      </g>
     </g>
    </g>
    <g id="xtick_3">
     <g id="line2d_5">
      <path d="M 262.044162 267.477656 
L 262.044162 43.446328 
" clip-path="url(#p64ed10c128)" style="fill: none; stroke: #b0b0b0; stroke-opacity: 0.3; stroke-width: 0.8; stroke-linecap: square"/>
     </g>
     <g id="line2d_6">
      <g>
       <use xlink:href="#m810fb789ea" x="262.044162" y="267.477656" style="stroke: #000000; stroke-width: 0.8"/>
      </g>
     </g>
     <g id="text_3">
      <!-- 60 -->
      <g transform="translate(255.681662 282.075312) scale(0.1 -0.1)">
       <defs>
        <path id="DejaVuSans-19" d="M 2113 2584 
Q 1688 2584 1439 2293 
Q 1191 2003 1191 1497 
Q 1191 994 1439 701 
Q 1688 409 2113 409 
Q 2538 409 2786 701 
Q 3034 994 3034 1497 
Q 3034 2003 2786 2293 
Q 2538 2584 2113 2584 
z
M 3366 4563 
L 3366 3988 
Q 3128 4100 2886 4159 
Q 2644 4219 2406 4219 
Q 1781 4219 1451 3797 
Q 1122 3375 1075 2522 
Q 1259 2794 1537 2939 
Q 1816 3084 2150 3084 
Q 2853 3084 3261 2657 
Q 3669 2231 3669 1497 
Q 3669 778 3244 343 
Q 2819 -91 2113 -91 
Q 1303 -91 875 529 
Q 447 1150 447 2328 
Q 447 3434 972 4092 
Q 1497 4750 2381 4750 
Q 2619 4750 2861 4703 
Q 3103 4656 3366 4563 
z
" transform="scale(0.015625)"/>
       </defs>
       <use xlink:href="#DejaVuSans-19"/>
       <use xlink:href="#DejaVuSans-13" transform="translate(63.625 0)"/>
      </g>
     </g>
    </g>
    <g id="xtick_4">
     <g id="line2d_7">
      <path d="M 335.280219 267.477656 
L 335.280219 43.446328 
" clip-path="url(#p64ed10c128)" style="fill: none; stroke: #b0b0b0; stroke-opacity: 0.3; stroke-width: 0.8; stroke-linecap: square"/>
     </g>
     <g id="line2d_8">
      <g>
       <use xlink:href="#m810fb789ea" x="335.280219" y="267.477656" style="stroke: #000000; stroke-width: 0.8"/>
      </g>
     </g>
     <g id="text_4">
      <!-- 80 -->
      <g transform="translate(328.917719 282.075312) scale(0.1 -0.1)">
       <defs>
        <path id="DejaVuSans-1b" d="M 2034 2216 
Q 1584 2216 1326 1975 
Q 1069 1734 1069 1313 
Q 1069 891 1326 650 
Q 1584 409 2034 409 
Q 2484 409 2743 651 
Q 3003 894 3003 1313 
Q 3003 1734 2745 1975 
Q 2488 2216 2034 2216 
z
M 1403 2484 
Q 997 2584 770 2862 
Q 544 3141 544 3541 
Q 544 4100 942 4425 
Q 1341 4750 2034 4750 
Q 2731 4750 3128 4425 
Q 3525 4100 3525 3541 
Q 3525 3141 3298 2862 
Q 3072 2584 2669 2484 
Q 3125 2378 3379 2068 
Q 3634 1759 3634 1313 
Q 3634 634 3220 271 
Q 2806 -91 2034 -91 
Q 1263 -91 848 271 
Q 434 634 434 1313 
Q 434 1759 690 2068 
Q 947 2378 1403 2484 
z
M 1172 3481 
Q 1172 3119 1398 2916 
Q 1625 2713 2034 2713 
Q 2441 2713 2670 2916 
Q 2900 3119 2900 3481 
Q 2900 3844 2670 4047 
Q 2441 4250 2034 4250 
Q 1625 4250 1398 4047 
Q 1172 3844 1172 3481 
z
" transform="scale(0.015625)"/>
       </defs>
       <use xlink:href="#DejaVuSans-1b"/>
       <use xlink:href="#DejaVuSans-13" transform="translate(63.625 0)"/>
      </g>
     </g>
    </g>
    <g id="text_5">
     <!-- elevación (grados) -->
     <g transform="translate(169.716939 296.476094) scale(0.1 -0.1)">
      <defs>
       <path id="DejaVuSans-48" d="M 3597 1894 
L 3597 1613 
L 953 1613 
Q 991 1019 1311 708 
Q 1631 397 2203 397 
Q 2534 397 2845 478 
Q 3156 559 3463 722 
L 3463 178 
Q 3153 47 2828 -22 
Q 2503 -91 2169 -91 
Q 1331 -91 842 396 
Q 353 884 353 1716 
Q 353 2575 817 3079 
Q 1281 3584 2069 3584 
Q 2775 3584 3186 3129 
Q 3597 2675 3597 1894 
z
M 3022 2063 
Q 3016 2534 2758 2815 
Q 2500 3097 2075 3097 
Q 1594 3097 1305 2825 
Q 1016 2553 972 2059 
L 3022 2063 
z
" transform="scale(0.015625)"/>
       <path id="DejaVuSans-4f" d="M 603 4863 
L 1178 4863 
L 1178 0 
L 603 0 
L 603 4863 
z
" transform="scale(0.015625)"/>
       <path id="DejaVuSans-59" d="M 191 3500 
L 800 3500 
L 1894 563 
L 2988 3500 
L 3597 3500 
L 2284 0 
L 1503 0 
L 191 3500 
z
" transform="scale(0.015625)"/>
       <path id="DejaVuSans-44" d="M 2194 1759 
Q 1497 1759 1228 1600 
Q 959 1441 959 1056 
Q 959 750 1161 570 
Q 1363 391 1709 391 
Q 2188 391 2477 730 
Q 2766 1069 2766 1631 
L 2766 1759 
L 2194 1759 
z
M 3341 1997 
L 3341 0 
L 2766 0 
L 2766 531 
Q 2569 213 2275 61 
Q 1981 -91 1556 -91 
Q 1019 -91 701 211 
Q 384 513 384 1019 
Q 384 1609 779 1909 
Q 1175 2209 1959 2209 
L 2766 2209 
L 2766 2266 
Q 2766 2663 2505 2880 
Q 2244 3097 1772 3097 
Q 1472 3097 1187 3025 
Q 903 2953 641 2809 
L 641 3341 
Q 956 3463 1253 3523 
Q 1550 3584 1831 3584 
Q 2591 3584 2966 3190 
Q 3341 2797 3341 1997 
z
" transform="scale(0.015625)"/>
       <path id="DejaVuSans-46" d="M 3122 3366 
L 3122 2828 
Q 2878 2963 2633 3030 
Q 2388 3097 2138 3097 
Q 1578 3097 1268 2742 
Q 959 2388 959 1747 
Q 959 1106 1268 751 
Q 1578 397 2138 397 
Q 2388 397 2633 464 
Q 2878 531 3122 666 
L 3122 134 
Q 2881 22 2623 -34 
Q 2366 -91 2075 -91 
Q 1284 -91 818 406 
Q 353 903 353 1747 
Q 353 2603 823 3093 
Q 1294 3584 2113 3584 
Q 2378 3584 2631 3529 
Q 2884 3475 3122 3366 
z
" transform="scale(0.015625)"/>
       <path id="DejaVuSans-4c" d="M 603 3500 
L 1178 3500 
L 1178 0 
L 603 0 
L 603 3500 
z
M 603 4863 
L 1178 4863 
L 1178 4134 
L 603 4134 
L 603 4863 
z
" transform="scale(0.015625)"/>
       <path id="DejaVuSans-b5" d="M 1959 3097 
Q 1497 3097 1228 2736 
Q 959 2375 959 1747 
Q 959 1119 1226 758 
Q 1494 397 1959 397 
Q 2419 397 2687 759 
Q 2956 1122 2956 1747 
Q 2956 2369 2687 2733 
Q 2419 3097 1959 3097 
z
M 1959 3584 
Q 2709 3584 3137 3096 
Q 3566 2609 3566 1747 
Q 3566 888 3137 398 
Q 2709 -91 1959 -91 
Q 1206 -91 779 398 
Q 353 888 353 1747 
Q 353 2609 779 3096 
Q 1206 3584 1959 3584 
z
M 2393 5119 
L 3015 5119 
L 1997 3944 
L 1518 3944 
L 2393 5119 
z
" transform="scale(0.015625)"/>
       <path id="DejaVuSans-51" d="M 3513 2113 
L 3513 0 
L 2938 0 
L 2938 2094 
Q 2938 2591 2744 2837 
Q 2550 3084 2163 3084 
Q 1697 3084 1428 2787 
Q 1159 2491 1159 1978 
L 1159 0 
L 581 0 
L 581 3500 
L 1159 3500 
L 1159 2956 
Q 1366 3272 1645 3428 
Q 1925 3584 2291 3584 
Q 2894 3584 3203 3211 
Q 3513 2838 3513 2113 
z
" transform="scale(0.015625)"/>
       <path id="DejaVuSans-3" transform="scale(0.015625)"/>
       <path id="DejaVuSans-b" d="M 1984 4856 
Q 1566 4138 1362 3434 
Q 1159 2731 1159 2009 
Q 1159 1288 1364 580 
Q 1569 -128 1984 -844 
L 1484 -844 
Q 1016 -109 783 600 
Q 550 1309 550 2009 
Q 550 2706 781 3412 
Q 1013 4119 1484 4856 
L 1984 4856 
z
" transform="scale(0.015625)"/>
       <path id="DejaVuSans-4a" d="M 2906 1791 
Q 2906 2416 2648 2759 
Q 2391 3103 1925 3103 
Q 1463 3103 1205 2759 
Q 947 2416 947 1791 
Q 947 1169 1205 825 
Q 1463 481 1925 481 
Q 2391 481 2648 825 
Q 2906 1169 2906 1791 
z
M 3481 434 
Q 3481 -459 3084 -895 
Q 2688 -1331 1869 -1331 
Q 1566 -1331 1297 -1286 
Q 1028 -1241 775 -1147 
L 775 -588 
Q 1028 -725 1275 -790 
Q 1522 -856 1778 -856 
Q 2344 -856 2625 -561 
Q 2906 -266 2906 331 
L 2906 616 
Q 2728 306 2450 153 
Q 2172 0 1784 0 
Q 1141 0 747 490 
Q 353 981 353 1791 
Q 353 2603 747 3093 
Q 1141 3584 1784 3584 
Q 2172 3584 2450 3431 
Q 2728 3278 2906 2969 
L 2906 3500 
L 3481 3500 
L 3481 434 
z
" transform="scale(0.015625)"/>
       <path id="DejaVuSans-55" d="M 2631 2963 
Q 2534 3019 2420 3045 
Q 2306 3072 2169 3072 
Q 1681 3072 1420 2755 
Q 1159 2438 1159 1844 
L 1159 0 
L 581 0 
L 581 3500 
L 1159 3500 
L 1159 2956 
Q 1341 3275 1631 3429 
Q 1922 3584 2338 3584 
Q 2397 3584 2469 3576 
Q 2541 3569 2628 3553 
L 2631 2963 
z
" transform="scale(0.015625)"/>
       <path id="DejaVuSans-47" d="M 2906 2969 
L 2906 4863 
L 3481 4863 
L 3481 0 
L 2906 0 
L 2906 525 
Q 2725 213 2448 61 
Q 2172 -91 1784 -91 
Q 1150 -91 751 415 
Q 353 922 353 1747 
Q 353 2572 751 3078 
Q 1150 3584 1784 3584 
Q 2172 3584 2448 3432 
Q 2725 3281 2906 2969 
z
M 947 1747 
Q 947 1113 1208 752 
Q 1469 391 1925 391 
Q 2381 391 2643 752 
Q 2906 1113 2906 1747 
Q 2906 2381 2643 2742 
Q 2381 3103 1925 3103 
Q 1469 3103 1208 2742 
Q 947 2381 947 1747 
z
" transform="scale(0.015625)"/>
       <path id="DejaVuSans-52" d="M 1959 3097 
Q 1497 3097 1228 2736 
Q 959 2375 959 1747 
Q 959 1119 1226 758 
Q 1494 397 1959 397 
Q 2419 397 2687 759 
Q 2956 1122 2956 1747 
Q 2956 2369 2687 2733 
Q 2419 3097 1959 3097 
z
M 1959 3584 
Q 2709 3584 3137 3096 
Q 3566 2609 3566 1747 
Q 3566 888 3137 398 
Q 2709 -91 1959 -91 
Q 1206 -91 779 398 
Q 353 888 353 1747 
Q 353 2609 779 3096 
Q 1206 3584 1959 3584 
z
" transform="scale(0.015625)"/>
       <path id="DejaVuSans-56" d="M 2834 3397 
L 2834 2853 
Q 2591 2978 2328 3040 
Q 2066 3103 1784 3103 
Q 1356 3103 1142 2972 
Q 928 2841 928 2578 
Q 928 2378 1081 2264 
Q 1234 2150 1697 2047 
L 1894 2003 
Q 2506 1872 2764 1633 
Q 3022 1394 3022 966 
Q 3022 478 2636 193 
Q 2250 -91 1575 -91 
Q 1294 -91 989 -36 
Q 684 19 347 128 
L 347 722 
Q 666 556 975 473 
Q 1284 391 1588 391 
Q 1994 391 2212 530 
Q 2431 669 2431 922 
Q 2431 1156 2273 1281 
Q 2116 1406 1581 1522 
L 1381 1569 
Q 847 1681 609 1914 
Q 372 2147 372 2553 
Q 372 3047 722 3315 
Q 1072 3584 1716 3584 
Q 2034 3584 2315 3537 
Q 2597 3491 2834 3397 
z
" transform="scale(0.015625)"/>
       <path id="DejaVuSans-c" d="M 513 4856 
L 1013 4856 
Q 1481 4119 1714 3412 
Q 1947 2706 1947 2009 
Q 1947 1309 1714 600 
Q 1481 -109 1013 -844 
L 513 -844 
Q 928 -128 1133 580 
Q 1338 1288 1338 2009 
Q 1338 2731 1133 3434 
Q 928 4138 513 4856 
z
" transform="scale(0.015625)"/>
      </defs>
      <use xlink:href="#DejaVuSans-48"/>
      <use xlink:href="#DejaVuSans-4f" transform="translate(61.53125 0)"/>
      <use xlink:href="#DejaVuSans-48" transform="translate(89.3125 0)"/>
      <use xlink:href="#DejaVuSans-59" transform="translate(150.84375 0)"/>
      <use xlink:href="#DejaVuSans-44" transform="translate(210.03125 0)"/>
      <use xlink:href="#DejaVuSans-46" transform="translate(271.3125 0)"/>
      <use xlink:href="#DejaVuSans-4c" transform="translate(326.296875 0)"/>
      <use xlink:href="#DejaVuSans-b5" transform="translate(354.078125 0)"/>
      <use xlink:href="#DejaVuSans-51" transform="translate(415.265625 0)"/>
      <use xlink:href="#DejaVuSans-3" transform="translate(478.640625 0)"/>
      <use xlink:href="#DejaVuSans-b" transform="translate(510.421875 0)"/>
      <use xlink:href="#DejaVuSans-4a" transform="translate(549.4375 0)"/>
      <use xlink:href="#DejaVuSans-55" transform="translate(612.921875 0)"/>
      <use xlink:href="#DejaVuSans-44" transform="translate(654.03125 0)"/>
      <use xlink:href="#DejaVuSans-47" transform="translate(715.3125 0)"/>
      <use xlink:href="#DejaVuSans-52" transform="translate(778.796875 0)"/>
      <use xlink:href="#DejaVuSans-56" transform="translate(839.984375 0)"/>
      <use xlink:href="#DejaVuSans-c" transform="translate(892.078125 0)"/>
     </g>
    </g>
   </g>
   <g id="matplotlib.axis_2">
    <g id="ytick_1">
     <g id="line2d_9">
      <path d="M 45.082344 235.325689 
L 387.460909 235.325689 
" clip-path="url(#p64ed10c128)" style="fill: none; stroke: #b0b0b0; stroke-opacity: 0.3; stroke-width: 0.8; stroke-linecap: square"/>
     </g>
     <g id="line2d_10">
      <defs>
       <path id="m7575c40630" d="M 0 0 
L -3.5 0 
" style="stroke: #000000; stroke-width: 0.8"/>
      </defs>
      <g>
       <use xlink:href="#m7575c40630" x="45.082344" y="235.325689" style="stroke: #000000; stroke-width: 0.8"/>
      </g>
     </g>
     <g id="text_6">
      <!-- 5 -->
      <g transform="translate(31.719844 239.124517) scale(0.1 -0.1)">
       <defs>
        <path id="DejaVuSans-18" d="M 691 4666 
L 3169 4666 
L 3169 4134 
L 1269 4134 
L 1269 2991 
Q 1406 3038 1543 3061 
Q 1681 3084 1819 3084 
Q 2600 3084 3056 2656 
Q 3513 2228 3513 1497 
Q 3513 744 3044 326 
Q 2575 -91 1722 -91 
Q 1428 -91 1123 -41 
Q 819 9 494 109 
L 494 744 
Q 775 591 1075 516 
Q 1375 441 1709 441 
Q 2250 441 2565 725 
Q 2881 1009 2881 1497 
Q 2881 1984 2565 2268 
Q 2250 2553 1709 2553 
Q 1456 2553 1204 2497 
Q 953 2441 691 2322 
L 691 4666 
z
" transform="scale(0.015625)"/>
       </defs>
       <use xlink:href="#DejaVuSans-18"/>
      </g>
     </g>
    </g>
    <g id="ytick_2">
     <g id="line2d_11">
      <path d="M 45.082344 194.786617 
L 387.460909 194.786617 
" clip-path="url(#p64ed10c128)" style="fill: none; stroke: #b0b0b0; stroke-opacity: 0.3; stroke-width: 0.8; stroke-linecap: square"/>
     </g>
     <g id="line2d_12">
      <g>
       <use xlink:href="#m7575c40630" x="45.082344" y="194.786617" style="stroke: #000000; stroke-width: 0.8"/>
      </g>
     </g>
     <g id="text_7">
      <!-- 10 -->
      <g transform="translate(25.357344 198.585445) scale(0.1 -0.1)">
       <defs>
        <path id="DejaVuSans-14" d="M 794 531 
L 1825 531 
L 1825 4091 
L 703 3866 
L 703 4441 
L 1819 4666 
L 2450 4666 
L 2450 531 
L 3481 531 
L 3481 0 
L 794 0 
L 794 531 
z
" transform="scale(0.015625)"/>
       </defs>
       <use xlink:href="#DejaVuSans-14"/>
       <use xlink:href="#DejaVuSans-13" transform="translate(63.625 0)"/>
      </g>
     </g>
    </g>
    <g id="ytick_3">
     <g id="line2d_13">
      <path d="M 45.082344 154.247546 
L 387.460909 154.247546 
" clip-path="url(#p64ed10c128)" style="fill: none; stroke: #b0b0b0; stroke-opacity: 0.3; stroke-width: 0.8; stroke-linecap: square"/>
     </g>
     <g id="line2d_14">
      <g>
       <use xlink:href="#m7575c40630" x="45.082344" y="154.247546" style="stroke: #000000; stroke-width: 0.8"/>
      </g>
     </g>
     <g id="text_8">
      <!-- 15 -->
      <g transform="translate(25.357344 158.046374) scale(0.1 -0.1)">
       <use xlink:href="#DejaVuSans-14"/>
       <use xlink:href="#DejaVuSans-18" transform="translate(63.625 0)"/>
      </g>
     </g>
    </g>
    <g id="ytick_4">
     <g id="line2d_15">
      <path d="M 45.082344 113.708474 
L 387.460909 113.708474 
" clip-path="url(#p64ed10c128)" style="fill: none; stroke: #b0b0b0; stroke-opacity: 0.3; stroke-width: 0.8; stroke-linecap: square"/>
     </g>
     <g id="line2d_16">
      <g>
       <use xlink:href="#m7575c40630" x="45.082344" y="113.708474" style="stroke: #000000; stroke-width: 0.8"/>
      </g>
     </g>
     <g id="text_9">
      <!-- 20 -->
      <g transform="translate(25.357344 117.507302) scale(0.1 -0.1)">
       <use xlink:href="#DejaVuSans-15"/>
       <use xlink:href="#DejaVuSans-13" transform="translate(63.625 0)"/>
      </g>
     </g>
    </g>
    <g id="ytick_5">
     <g id="line2d_17">
      <path d="M 45.082344 73.169403 
L 387.460909 73.169403 
" clip-path="url(#p64ed10c128)" style="fill: none; stroke: #b0b0b0; stroke-opacity: 0.3; stroke-width: 0.8; stroke-linecap: square"/>
     </g>
     <g id="line2d_18">
      <g>
       <use xlink:href="#m7575c40630" x="45.082344" y="73.169403" style="stroke: #000000; stroke-width: 0.8"/>
      </g>
     </g>
     <g id="text_10">
      <!-- 25 -->
      <g transform="translate(25.357344 76.968231) scale(0.1 -0.1)">
       <use xlink:href="#DejaVuSans-15"/>
       <use xlink:href="#DejaVuSans-18" transform="translate(63.625 0)"/>
      </g>
     </g>
    </g>
    <g id="text_11">
     <!-- retardo troposférico oblicuo (m) -->
     <g transform="translate(18.955 235.130742) rotate(-90) scale(0.1 -0.1)">
      <defs>
       <path id="DejaVuSans-57" d="M 1172 4494 
L 1172 3500 
L 2356 3500 
L 2356 3053 
L 1172 3053 
L 1172 1153 
Q 1172 725 1289 603 
Q 1406 481 1766 481 
L 2356 481 
L 2356 0 
L 1766 0 
Q 1100 0 847 248 
Q 594 497 594 1153 
L 594 3053 
L 172 3053 
L 172 3500 
L 594 3500 
L 594 4494 
L 1172 4494 
z
" transform="scale(0.015625)"/>
       <path id="DejaVuSans-53" d="M 1159 525 
L 1159 -1331 
L 581 -1331 
L 581 3500 
L 1159 3500 
L 1159 2969 
Q 1341 3281 1617 3432 
Q 1894 3584 2278 3584 
Q 2916 3584 3314 3078 
Q 3713 2572 3713 1747 
Q 3713 922 3314 415 
Q 2916 -91 2278 -91 
Q 1894 -91 1617 61 
Q 1341 213 1159 525 
z
M 3116 1747 
Q 3116 2381 2855 2742 
Q 2594 3103 2138 3103 
Q 1681 3103 1420 2742 
Q 1159 2381 1159 1747 
Q 1159 1113 1420 752 
Q 1681 391 2138 391 
Q 2594 391 2855 752 
Q 3116 1113 3116 1747 
z
" transform="scale(0.015625)"/>
       <path id="DejaVuSans-49" d="M 2375 4863 
L 2375 4384 
L 1825 4384 
Q 1516 4384 1395 4259 
Q 1275 4134 1275 3809 
L 1275 3500 
L 2222 3500 
L 2222 3053 
L 1275 3053 
L 1275 0 
L 697 0 
L 697 3053 
L 147 3053 
L 147 3500 
L 697 3500 
L 697 3744 
Q 697 4328 969 4595 
Q 1241 4863 1831 4863 
L 2375 4863 
z
" transform="scale(0.015625)"/>
       <path id="DejaVuSans-ab" d="M 3597 1894 
L 3597 1613 
L 953 1613 
Q 991 1019 1311 708 
Q 1631 397 2203 397 
Q 2534 397 2845 478 
Q 3156 559 3463 722 
L 3463 178 
Q 3153 47 2828 -22 
Q 2503 -91 2169 -91 
Q 1331 -91 842 396 
Q 353 884 353 1716 
Q 353 2575 817 3079 
Q 1281 3584 2069 3584 
Q 2775 3584 3186 3129 
Q 3597 2675 3597 1894 
z
M 3022 2063 
Q 3016 2534 2758 2815 
Q 2500 3097 2075 3097 
Q 1594 3097 1305 2825 
Q 1016 2553 972 2059 
L 3022 2063 
z
M 2468 5119 
L 3090 5119 
L 2072 3944 
L 1593 3944 
L 2468 5119 
z
" transform="scale(0.015625)"/>
       <path id="DejaVuSans-45" d="M 3116 1747 
Q 3116 2381 2855 2742 
Q 2594 3103 2138 3103 
Q 1681 3103 1420 2742 
Q 1159 2381 1159 1747 
Q 1159 1113 1420 752 
Q 1681 391 2138 391 
Q 2594 391 2855 752 
Q 3116 1113 3116 1747 
z
M 1159 2969 
Q 1341 3281 1617 3432 
Q 1894 3584 2278 3584 
Q 2916 3584 3314 3078 
Q 3713 2572 3713 1747 
Q 3713 922 3314 415 
Q 2916 -91 2278 -91 
Q 1894 -91 1617 61 
Q 1341 213 1159 525 
L 1159 0 
L 581 0 
L 581 4863 
L 1159 4863 
L 1159 2969 
z
" transform="scale(0.015625)"/>
       <path id="DejaVuSans-58" d="M 544 1381 
L 544 3500 
L 1119 3500 
L 1119 1403 
Q 1119 906 1312 657 
Q 1506 409 1894 409 
Q 2359 409 2629 706 
Q 2900 1003 2900 1516 
L 2900 3500 
L 3475 3500 
L 3475 0 
L 2900 0 
L 2900 538 
Q 2691 219 2414 64 
Q 2138 -91 1772 -91 
Q 1169 -91 856 284 
Q 544 659 544 1381 
z
M 1991 3584 
L 1991 3584 
z
" transform="scale(0.015625)"/>
       <path id="DejaVuSans-50" d="M 3328 2828 
Q 3544 3216 3844 3400 
Q 4144 3584 4550 3584 
Q 5097 3584 5394 3201 
Q 5691 2819 5691 2113 
L 5691 0 
L 5113 0 
L 5113 2094 
Q 5113 2597 4934 2840 
Q 4756 3084 4391 3084 
Q 3944 3084 3684 2787 
Q 3425 2491 3425 1978 
L 3425 0 
L 2847 0 
L 2847 2094 
Q 2847 2600 2669 2842 
Q 2491 3084 2119 3084 
Q 1678 3084 1418 2786 
Q 1159 2488 1159 1978 
L 1159 0 
L 581 0 
L 581 3500 
L 1159 3500 
L 1159 2956 
Q 1356 3278 1631 3431 
Q 1906 3584 2284 3584 
Q 2666 3584 2933 3390 
Q 3200 3197 3328 2828 
z
" transform="scale(0.015625)"/>
      </defs>
      <use xlink:href="#DejaVuSans-55"/>
      <use xlink:href="#DejaVuSans-48" transform="translate(38.90625 0)"/>
      <use xlink:href="#DejaVuSans-57" transform="translate(100.4375 0)"/>
      <use xlink:href="#DejaVuSans-44" transform="translate(139.640625 0)"/>
      <use xlink:href="#DejaVuSans-55" transform="translate(200.921875 0)"/>
      <use xlink:href="#DejaVuSans-47" transform="translate(240.28125 0)"/>
      <use xlink:href="#DejaVuSans-52" transform="translate(303.765625 0)"/>
      <use xlink:href="#DejaVuSans-3" transform="translate(364.953125 0)"/>
      <use xlink:href="#DejaVuSans-57" transform="translate(396.734375 0)"/>
      <use xlink:href="#DejaVuSans-55" transform="translate(435.9375 0)"/>
      <use xlink:href="#DejaVuSans-52" transform="translate(474.84375 0)"/>
      <use xlink:href="#DejaVuSans-53" transform="translate(536.03125 0)"/>
      <use xlink:href="#DejaVuSans-52" transform="translate(599.515625 0)"/>
      <use xlink:href="#DejaVuSans-56" transform="translate(660.703125 0)"/>
      <use xlink:href="#DejaVuSans-49" transform="translate(712.796875 0)"/>
      <use xlink:href="#DejaVuSans-ab" transform="translate(748 0)"/>
      <use xlink:href="#DejaVuSans-55" transform="translate(809.53125 0)"/>
      <use xlink:href="#DejaVuSans-4c" transform="translate(850.640625 0)"/>
      <use xlink:href="#DejaVuSans-46" transform="translate(878.421875 0)"/>
      <use xlink:href="#DejaVuSans-52" transform="translate(933.40625 0)"/>
      <use xlink:href="#DejaVuSans-3" transform="translate(994.59375 0)"/>
      <use xlink:href="#DejaVuSans-52" transform="translate(1026.375 0)"/>
      <use xlink:href="#DejaVuSans-45" transform="translate(1087.5625 0)"/>
      <use xlink:href="#DejaVuSans-4f" transform="translate(1151.046875 0)"/>
      <use xlink:href="#DejaVuSans-4c" transform="translate(1178.828125 0)"/>
      <use xlink:href="#DejaVuSans-46" transform="translate(1206.609375 0)"/>
      <use xlink:href="#DejaVuSans-58" transform="translate(1261.59375 0)"/>
      <use xlink:href="#DejaVuSans-52" transform="translate(1324.96875 0)"/>
      <use xlink:href="#DejaVuSans-3" transform="translate(1386.15625 0)"/>
      <use xlink:href="#DejaVuSans-b" transform="translate(1417.9375 0)"/>
      <use xlink:href="#DejaVuSans-50" transform="translate(1456.953125 0)"/>
      <use xlink:href="#DejaVuSans-c" transform="translate(1554.359375 0)"/>
     </g>
    </g>
   </g>
   <g id="line2d_19">
    <path d="M 60.645006 53.651952 
L 62.726967 76.279434 
L 64.808929 94.708384 
L 66.89089 110.00675 
L 68.972852 122.908592 
L 71.054813 133.935107 
L 73.136775 143.466573 
L 75.218736 151.786957 
L 77.300698 159.112592 
L 79.382659 165.611179 
L 81.464621 171.414727 
L 83.546582 176.628568 
L 85.628544 181.337771 
L 87.710505 185.611792 
L 89.792467 189.507899 
L 91.874428 193.073731 
L 94.99737 197.888884 
L 98.120312 202.159289 
L 101.243255 205.971554 
L 104.366197 209.394849 
L 107.489139 212.485075 
L 110.612081 215.287909 
L 113.735024 217.841031 
L 117.898947 220.910216 
L 122.062869 223.651489 
L 126.226792 226.113609 
L 130.390715 228.336104 
L 135.595619 230.826042 
L 140.800523 233.043039 
L 146.005426 235.028063 
L 152.251311 237.150085 
L 158.497195 239.031436 
L 165.784061 240.970559 
L 173.070926 242.677693 
L 181.398772 244.390876 
L 190.767598 246.065244 
L 200.136425 247.516799 
L 210.546232 248.912409 
L 221.99702 250.227772 
L 234.488789 251.444831 
L 249.06252 252.627484 
L 264.677231 253.660666 
L 281.332923 254.541704 
L 300.070576 255.304469 
L 319.84921 255.885991 
L 340.668825 256.281089 
L 362.52942 256.478312 
L 371.898247 256.497638 
L 371.898247 256.497638 
" clip-path="url(#p64ed10c128)" style="fill: none; stroke: #1f77b4; stroke-width: 1.8; stroke-linecap: square"/>
   </g>
   <g id="line2d_20">
    <path d="M 60.645006 62.793936 
L 62.726967 84.490509 
L 64.808929 102.161279 
L 66.89089 116.83026 
L 68.972852 129.201311 
L 71.054813 139.774188 
L 73.136775 148.913523 
L 75.218736 156.891602 
L 77.300698 163.915855 
L 79.382659 170.147086 
L 81.464621 175.711872 
L 83.546582 180.711211 
L 85.628544 185.226675 
L 87.710505 189.32486 
L 89.792467 193.060679 
L 91.874428 196.47981 
L 94.99737 201.096864 
L 98.120312 205.191581 
L 101.243255 208.847008 
L 104.366197 212.129465 
L 107.489139 215.092558 
L 110.612081 217.780081 
L 113.735024 220.228166 
L 117.898947 223.171083 
L 122.062869 225.799578 
L 126.226792 228.160404 
L 130.390715 230.291465 
L 135.595619 232.678965 
L 140.800523 234.804753 
L 146.005426 236.708112 
L 152.251311 238.742832 
L 158.497195 240.546784 
L 165.784061 242.40613 
L 173.070926 244.043031 
L 181.398772 245.685732 
L 190.767598 247.291216 
L 201.177406 248.826114 
L 212.628194 250.265836 
L 225.119963 251.593149 
L 238.652712 252.796537 
L 253.226443 253.86857 
L 269.882135 254.85986 
L 287.578807 255.68667 
L 307.357441 256.379717 
L 328.177056 256.88377 
L 350.037651 257.193152 
L 371.898247 257.294414 
L 371.898247 257.294414 
" clip-path="url(#p64ed10c128)" style="fill: none; stroke-dasharray: 5.18,2.24; stroke-dashoffset: 0; stroke: #7f7f7f; stroke-width: 1.4"/>
   </g>
   <g id="line2d_21">
    <defs>
     <path id="md85580ddaa" d="M 0 2 
C 0.530406 2 1.03916 1.789267 1.414214 1.414214 
C 1.789267 1.03916 2 0.530406 2 0 
C 2 -0.530406 1.789267 -1.03916 1.414214 -1.414214 
C 1.03916 -1.789267 0.530406 -2 0 -2 
C -0.530406 -2 -1.03916 -1.789267 -1.414214 -1.414214 
C -1.789267 -1.03916 -2 -0.530406 -2 0 
C -2 0.530406 -1.789267 1.03916 -1.414214 1.414214 
C -1.03916 1.789267 -0.530406 2 0 2 
z
" style="stroke: #d62728"/>
    </defs>
    <g clip-path="url(#p64ed10c128)">
     <use xlink:href="#md85580ddaa" x="371.898247" y="256.487084" style="fill: #d62728; stroke: #d62728"/>
    </g>
   </g>
   <g id="line2d_22">
    <g clip-path="url(#p64ed10c128)">
     <use xlink:href="#md85580ddaa" x="152.190077" y="237.109408" style="fill: #d62728; stroke: #d62728"/>
    </g>
   </g>
   <g id="line2d_23">
    <g clip-path="url(#p64ed10c128)">
     <use xlink:href="#md85580ddaa" x="97.263034" y="201.029634" style="fill: #d62728; stroke: #d62728"/>
    </g>
   </g>
   <g id="line2d_24">
    <g clip-path="url(#p64ed10c128)">
     <use xlink:href="#md85580ddaa" x="78.95402" y="164.301235" style="fill: #d62728; stroke: #d62728"/>
    </g>
   </g>
   <g id="line2d_25">
    <g clip-path="url(#p64ed10c128)">
     <use xlink:href="#md85580ddaa" x="60.645006" y="53.62957" style="fill: #d62728; stroke: #d62728"/>
    </g>
   </g>
   <g id="patch_3">
    <path d="M 45.082344 267.477656 
L 45.082344 43.446328 
" style="fill: none; stroke: #000000; stroke-width: 0.8; stroke-linejoin: miter; stroke-linecap: square"/>
   </g>
   <g id="patch_4">
    <path d="M 387.460909 267.477656 
L 387.460909 43.446328 
" style="fill: none; stroke: #000000; stroke-width: 0.8; stroke-linejoin: miter; stroke-linecap: square"/>
   </g>
   <g id="patch_5">
    <path d="M 45.082344 267.477656 
L 387.460909 267.477656 
" style="fill: none; stroke: #000000; stroke-width: 0.8; stroke-linejoin: miter; stroke-linecap: square"/>
   </g>
   <g id="patch_6">
    <path d="M 45.082344 43.446328 
L 387.460909 43.446328 
" style="fill: none; stroke: #000000; stroke-width: 0.8; stroke-linejoin: miter; stroke-linecap: square"/>
   </g>
   <g id="text_12">
    <!-- 2.4 -->
    <g transform="translate(377.898247 252.487084) scale(0.08 -0.08)">
     <defs>
      <path id="DejaVuSans-11" d="M 684 794 
L 1344 794 
L 1344 0 
L 684 0 
L 684 794 
z
" transform="scale(0.015625)"/>
     </defs>
     <use xlink:href="#DejaVuSans-15"/>
     <use xlink:href="#DejaVuSans-11" transform="translate(63.625 0)"/>
     <use xlink:href="#DejaVuSans-17" transform="translate(95.40625 0)"/>
    </g>
   </g>
   <g id="text_13">
    <!-- 4.8 -->
    <g transform="translate(158.190077 233.109408) scale(0.08 -0.08)">
     <use xlink:href="#DejaVuSans-17"/>
     <use xlink:href="#DejaVuSans-11" transform="translate(63.625 0)"/>
     <use xlink:href="#DejaVuSans-1b" transform="translate(95.40625 0)"/>
    </g>
   </g>
   <g id="text_14">
    <!-- 9.2 -->
    <g transform="translate(103.263034 197.029634) scale(0.08 -0.08)">
     <defs>
      <path id="DejaVuSans-1c" d="M 703 97 
L 703 672 
Q 941 559 1184 500 
Q 1428 441 1663 441 
Q 2288 441 2617 861 
Q 2947 1281 2994 2138 
Q 2813 1869 2534 1725 
Q 2256 1581 1919 1581 
Q 1219 1581 811 2004 
Q 403 2428 403 3163 
Q 403 3881 828 4315 
Q 1253 4750 1959 4750 
Q 2769 4750 3195 4129 
Q 3622 3509 3622 2328 
Q 3622 1225 3098 567 
Q 2575 -91 1691 -91 
Q 1453 -91 1209 -44 
Q 966 3 703 97 
z
M 1959 2075 
Q 2384 2075 2632 2365 
Q 2881 2656 2881 3163 
Q 2881 3666 2632 3958 
Q 2384 4250 1959 4250 
Q 1534 4250 1286 3958 
Q 1038 3666 1038 3163 
Q 1038 2656 1286 2365 
Q 1534 2075 1959 2075 
z
" transform="scale(0.015625)"/>
     </defs>
     <use xlink:href="#DejaVuSans-1c"/>
     <use xlink:href="#DejaVuSans-11" transform="translate(63.625 0)"/>
     <use xlink:href="#DejaVuSans-15" transform="translate(95.40625 0)"/>
    </g>
   </g>
   <g id="text_15">
    <!-- 13.8 -->
    <g transform="translate(84.95402 160.301235) scale(0.08 -0.08)">
     <defs>
      <path id="DejaVuSans-16" d="M 2597 2516 
Q 3050 2419 3304 2112 
Q 3559 1806 3559 1356 
Q 3559 666 3084 287 
Q 2609 -91 1734 -91 
Q 1441 -91 1130 -33 
Q 819 25 488 141 
L 488 750 
Q 750 597 1062 519 
Q 1375 441 1716 441 
Q 2309 441 2620 675 
Q 2931 909 2931 1356 
Q 2931 1769 2642 2001 
Q 2353 2234 1838 2234 
L 1294 2234 
L 1294 2753 
L 1863 2753 
Q 2328 2753 2575 2939 
Q 2822 3125 2822 3475 
Q 2822 3834 2567 4026 
Q 2313 4219 1838 4219 
Q 1578 4219 1281 4162 
Q 984 4106 628 3988 
L 628 4550 
Q 988 4650 1302 4700 
Q 1616 4750 1894 4750 
Q 2613 4750 3031 4423 
Q 3450 4097 3450 3541 
Q 3450 3153 3228 2886 
Q 3006 2619 2597 2516 
z
" transform="scale(0.015625)"/>
     </defs>
     <use xlink:href="#DejaVuSans-14"/>
     <use xlink:href="#DejaVuSans-16" transform="translate(63.625 0)"/>
     <use xlink:href="#DejaVuSans-11" transform="translate(127.25 0)"/>
     <use xlink:href="#DejaVuSans-1b" transform="translate(159.03125 0)"/>
    </g>
   </g>
   <g id="text_16">
    <!-- 27.4 -->
    <g transform="translate(66.645006 49.62957) scale(0.08 -0.08)">
     <defs>
      <path id="DejaVuSans-1a" d="M 525 4666 
L 3525 4666 
L 3525 4397 
L 1831 0 
L 1172 0 
L 2766 4134 
L 525 4134 
L 525 4666 
z
" transform="scale(0.015625)"/>
     </defs>
     <use xlink:href="#DejaVuSans-15"/>
     <use xlink:href="#DejaVuSans-1a" transform="translate(63.625 0)"/>
     <use xlink:href="#DejaVuSans-11" transform="translate(127.25 0)"/>
     <use xlink:href="#DejaVuSans-17" transform="translate(159.03125 0)"/>
    </g>
   </g>
   <g id="text_17">
    <!-- El retardo tropo con mapeo 1/sin(el): -->
    <g transform="translate(105.581939 23.043047) scale(0.12 -0.12)">
     <defs>
      <path id="DejaVuSans-28" d="M 628 4666 
L 3578 4666 
L 3578 4134 
L 1259 4134 
L 1259 2753 
L 3481 2753 
L 3481 2222 
L 1259 2222 
L 1259 531 
L 3634 531 
L 3634 0 
L 628 0 
L 628 4666 
z
" transform="scale(0.015625)"/>
      <path id="DejaVuSans-12" d="M 1625 4666 
L 2156 4666 
L 531 -594 
L 0 -594 
L 1625 4666 
z
" transform="scale(0.015625)"/>
      <path id="DejaVuSans-1d" d="M 750 794 
L 1409 794 
L 1409 0 
L 750 0 
L 750 794 
z
M 750 3309 
L 1409 3309 
L 1409 2516 
L 750 2516 
L 750 3309 
z
" transform="scale(0.015625)"/>
     </defs>
     <use xlink:href="#DejaVuSans-28"/>
     <use xlink:href="#DejaVuSans-4f" transform="translate(63.1875 0)"/>
     <use xlink:href="#DejaVuSans-3" transform="translate(90.96875 0)"/>
     <use xlink:href="#DejaVuSans-55" transform="translate(122.75 0)"/>
     <use xlink:href="#DejaVuSans-48" transform="translate(161.65625 0)"/>
     <use xlink:href="#DejaVuSans-57" transform="translate(223.1875 0)"/>
     <use xlink:href="#DejaVuSans-44" transform="translate(262.390625 0)"/>
     <use xlink:href="#DejaVuSans-55" transform="translate(323.671875 0)"/>
     <use xlink:href="#DejaVuSans-47" transform="translate(363.03125 0)"/>
     <use xlink:href="#DejaVuSans-52" transform="translate(426.515625 0)"/>
     <use xlink:href="#DejaVuSans-3" transform="translate(487.703125 0)"/>
     <use xlink:href="#DejaVuSans-57" transform="translate(519.484375 0)"/>
     <use xlink:href="#DejaVuSans-55" transform="translate(558.6875 0)"/>
     <use xlink:href="#DejaVuSans-52" transform="translate(597.59375 0)"/>
     <use xlink:href="#DejaVuSans-53" transform="translate(658.78125 0)"/>
     <use xlink:href="#DejaVuSans-52" transform="translate(722.265625 0)"/>
     <use xlink:href="#DejaVuSans-3" transform="translate(783.453125 0)"/>
     <use xlink:href="#DejaVuSans-46" transform="translate(815.234375 0)"/>
     <use xlink:href="#DejaVuSans-52" transform="translate(870.21875 0)"/>
     <use xlink:href="#DejaVuSans-51" transform="translate(931.40625 0)"/>
     <use xlink:href="#DejaVuSans-3" transform="translate(994.78125 0)"/>
     <use xlink:href="#DejaVuSans-50" transform="translate(1026.5625 0)"/>
     <use xlink:href="#DejaVuSans-44" transform="translate(1123.96875 0)"/>
     <use xlink:href="#DejaVuSans-53" transform="translate(1185.25 0)"/>
     <use xlink:href="#DejaVuSans-48" transform="translate(1248.734375 0)"/>
     <use xlink:href="#DejaVuSans-52" transform="translate(1310.265625 0)"/>
     <use xlink:href="#DejaVuSans-3" transform="translate(1371.453125 0)"/>
     <use xlink:href="#DejaVuSans-14" transform="translate(1403.234375 0)"/>
     <use xlink:href="#DejaVuSans-12" transform="translate(1466.859375 0)"/>
     <use xlink:href="#DejaVuSans-56" transform="translate(1500.546875 0)"/>
     <use xlink:href="#DejaVuSans-4c" transform="translate(1552.640625 0)"/>
     <use xlink:href="#DejaVuSans-51" transform="translate(1580.421875 0)"/>
     <use xlink:href="#DejaVuSans-b" transform="translate(1643.796875 0)"/>
     <use xlink:href="#DejaVuSans-48" transform="translate(1682.8125 0)"/>
     <use xlink:href="#DejaVuSans-4f" transform="translate(1744.34375 0)"/>
     <use xlink:href="#DejaVuSans-c" transform="translate(1772.125 0)"/>
     <use xlink:href="#DejaVuSans-1d" transform="translate(1811.140625 0)"/>
    </g>
    <!-- 2.4 m cenitales, 27 m a 5° -->
    <g transform="translate(136.589751 37.446328) scale(0.12 -0.12)">
     <defs>
      <path id="DejaVuSans-f" d="M 750 794 
L 1409 794 
L 1409 256 
L 897 -744 
L 494 -744 
L 750 256 
L 750 794 
z
" transform="scale(0.015625)"/>
      <path id="DejaVuSans-72" d="M 1600 4347 
Q 1350 4347 1178 4173 
Q 1006 4000 1006 3750 
Q 1006 3503 1178 3333 
Q 1350 3163 1600 3163 
Q 1850 3163 2022 3333 
Q 2194 3503 2194 3750 
Q 2194 3997 2020 4172 
Q 1847 4347 1600 4347 
z
M 1600 4750 
Q 1800 4750 1984 4673 
Q 2169 4597 2303 4453 
Q 2447 4313 2519 4134 
Q 2591 3956 2591 3750 
Q 2591 3338 2302 3052 
Q 2013 2766 1594 2766 
Q 1172 2766 890 3047 
Q 609 3328 609 3750 
Q 609 4169 896 4459 
Q 1184 4750 1600 4750 
z
" transform="scale(0.015625)"/>
     </defs>
     <use xlink:href="#DejaVuSans-15"/>
     <use xlink:href="#DejaVuSans-11" transform="translate(63.625 0)"/>
     <use xlink:href="#DejaVuSans-17" transform="translate(95.40625 0)"/>
     <use xlink:href="#DejaVuSans-3" transform="translate(159.03125 0)"/>
     <use xlink:href="#DejaVuSans-50" transform="translate(190.8125 0)"/>
     <use xlink:href="#DejaVuSans-3" transform="translate(288.21875 0)"/>
     <use xlink:href="#DejaVuSans-46" transform="translate(320 0)"/>
     <use xlink:href="#DejaVuSans-48" transform="translate(374.984375 0)"/>
     <use xlink:href="#DejaVuSans-51" transform="translate(436.515625 0)"/>
     <use xlink:href="#DejaVuSans-4c" transform="translate(499.890625 0)"/>
     <use xlink:href="#DejaVuSans-57" transform="translate(527.671875 0)"/>
     <use xlink:href="#DejaVuSans-44" transform="translate(566.875 0)"/>
     <use xlink:href="#DejaVuSans-4f" transform="translate(628.15625 0)"/>
     <use xlink:href="#DejaVuSans-48" transform="translate(655.9375 0)"/>
     <use xlink:href="#DejaVuSans-56" transform="translate(717.46875 0)"/>
     <use xlink:href="#DejaVuSans-f" transform="translate(769.5625 0)"/>
     <use xlink:href="#DejaVuSans-3" transform="translate(801.34375 0)"/>
     <use xlink:href="#DejaVuSans-15" transform="translate(833.125 0)"/>
     <use xlink:href="#DejaVuSans-1a" transform="translate(896.75 0)"/>
     <use xlink:href="#DejaVuSans-3" transform="translate(960.375 0)"/>
     <use xlink:href="#DejaVuSans-50" transform="translate(992.15625 0)"/>
     <use xlink:href="#DejaVuSans-3" transform="translate(1089.5625 0)"/>
     <use xlink:href="#DejaVuSans-44" transform="translate(1121.34375 0)"/>
     <use xlink:href="#DejaVuSans-3" transform="translate(1182.625 0)"/>
     <use xlink:href="#DejaVuSans-18" transform="translate(1214.40625 0)"/>
     <use xlink:href="#DejaVuSans-72" transform="translate(1278.03125 0)"/>
    </g>
   </g>
   <g id="legend_1">
    <g id="patch_7">
     <path d="M 232.848409 74.167578 
L 381.860909 74.167578 
Q 383.460909 74.167578 383.460909 72.567578 
L 383.460909 49.046328 
Q 383.460909 47.446328 381.860909 47.446328 
L 232.848409 47.446328 
Q 231.248409 47.446328 231.248409 49.046328 
L 231.248409 72.567578 
Q 231.248409 74.167578 232.848409 74.167578 
z
" style="fill: #ffffff; opacity: 0.8; stroke: #cccccc; stroke-linejoin: miter"/>
    </g>
    <g id="line2d_26">
     <path d="M 234.448409 53.925078 
L 242.448409 53.925078 
L 250.448409 53.925078 
" style="fill: none; stroke: #1f77b4; stroke-width: 1.8; stroke-linecap: square"/>
    </g>
    <g id="text_18">
     <!-- Saastamoinen (cenital 2.39 m) -->
     <g transform="translate(256.848409 56.725078) scale(0.08 -0.08)">
      <defs>
       <path id="DejaVuSans-36" d="M 3425 4513 
L 3425 3897 
Q 3066 4069 2747 4153 
Q 2428 4238 2131 4238 
Q 1616 4238 1336 4038 
Q 1056 3838 1056 3469 
Q 1056 3159 1242 3001 
Q 1428 2844 1947 2747 
L 2328 2669 
Q 3034 2534 3370 2195 
Q 3706 1856 3706 1288 
Q 3706 609 3251 259 
Q 2797 -91 1919 -91 
Q 1588 -91 1214 -16 
Q 841 59 441 206 
L 441 856 
Q 825 641 1194 531 
Q 1563 422 1919 422 
Q 2459 422 2753 634 
Q 3047 847 3047 1241 
Q 3047 1584 2836 1778 
Q 2625 1972 2144 2069 
L 1759 2144 
Q 1053 2284 737 2584 
Q 422 2884 422 3419 
Q 422 4038 858 4394 
Q 1294 4750 2059 4750 
Q 2388 4750 2728 4690 
Q 3069 4631 3425 4513 
z
" transform="scale(0.015625)"/>
      </defs>
      <use xlink:href="#DejaVuSans-36"/>
      <use xlink:href="#DejaVuSans-44" transform="translate(63.484375 0)"/>
      <use xlink:href="#DejaVuSans-44" transform="translate(124.765625 0)"/>
      <use xlink:href="#DejaVuSans-56" transform="translate(186.046875 0)"/>
      <use xlink:href="#DejaVuSans-57" transform="translate(238.140625 0)"/>
      <use xlink:href="#DejaVuSans-44" transform="translate(277.34375 0)"/>
      <use xlink:href="#DejaVuSans-50" transform="translate(338.625 0)"/>
      <use xlink:href="#DejaVuSans-52" transform="translate(436.03125 0)"/>
      <use xlink:href="#DejaVuSans-4c" transform="translate(497.21875 0)"/>
      <use xlink:href="#DejaVuSans-51" transform="translate(525 0)"/>
      <use xlink:href="#DejaVuSans-48" transform="translate(588.375 0)"/>
      <use xlink:href="#DejaVuSans-51" transform="translate(649.90625 0)"/>
      <use xlink:href="#DejaVuSans-3" transform="translate(713.28125 0)"/>
      <use xlink:href="#DejaVuSans-b" transform="translate(745.0625 0)"/>
      <use xlink:href="#DejaVuSans-46" transform="translate(784.078125 0)"/>
      <use xlink:href="#DejaVuSans-48" transform="translate(839.0625 0)"/>
      <use xlink:href="#DejaVuSans-51" transform="translate(900.59375 0)"/>
      <use xlink:href="#DejaVuSans-4c" transform="translate(963.96875 0)"/>
      <use xlink:href="#DejaVuSans-57" transform="translate(991.75 0)"/>
      <use xlink:href="#DejaVuSans-44" transform="translate(1030.953125 0)"/>
      <use xlink:href="#DejaVuSans-4f" transform="translate(1092.234375 0)"/>
      <use xlink:href="#DejaVuSans-3" transform="translate(1120.015625 0)"/>
      <use xlink:href="#DejaVuSans-15" transform="translate(1151.796875 0)"/>
      <use xlink:href="#DejaVuSans-11" transform="translate(1215.421875 0)"/>
      <use xlink:href="#DejaVuSans-16" transform="translate(1247.203125 0)"/>
      <use xlink:href="#DejaVuSans-1c" transform="translate(1310.828125 0)"/>
      <use xlink:href="#DejaVuSans-3" transform="translate(1374.453125 0)"/>
      <use xlink:href="#DejaVuSans-50" transform="translate(1406.234375 0)"/>
      <use xlink:href="#DejaVuSans-c" transform="translate(1503.640625 0)"/>
     </g>
    </g>
    <g id="line2d_27">
     <path d="M 234.448409 66.245703 
L 242.448409 66.245703 
L 250.448409 66.245703 
" style="fill: none; stroke-dasharray: 5.18,2.24; stroke-dashoffset: 0; stroke: #7f7f7f; stroke-width: 1.4"/>
    </g>
    <g id="text_19">
     <!-- mínimo 1.5 (cenital 2.29 m) -->
     <g transform="translate(256.848409 69.045703) scale(0.08 -0.08)">
      <defs>
       <path id="DejaVuSans-af" d="M 1325 5119 
L 1947 5119 
L 929 3944 
L 450 3944 
L 1325 5119 
z
M 603 3500 
L 1178 3500 
L 1178 0 
L 603 0 
L 603 3500 
z
M 891 3584 
L 891 3584 
z
" transform="scale(0.015625)"/>
      </defs>
      <use xlink:href="#DejaVuSans-50"/>
      <use xlink:href="#DejaVuSans-af" transform="translate(97.40625 0)"/>
      <use xlink:href="#DejaVuSans-51" transform="translate(125.1875 0)"/>
      <use xlink:href="#DejaVuSans-4c" transform="translate(188.5625 0)"/>
      <use xlink:href="#DejaVuSans-50" transform="translate(216.34375 0)"/>
      <use xlink:href="#DejaVuSans-52" transform="translate(313.75 0)"/>
      <use xlink:href="#DejaVuSans-3" transform="translate(374.9375 0)"/>
      <use xlink:href="#DejaVuSans-14" transform="translate(406.71875 0)"/>
      <use xlink:href="#DejaVuSans-11" transform="translate(470.34375 0)"/>
      <use xlink:href="#DejaVuSans-18" transform="translate(502.125 0)"/>
      <use xlink:href="#DejaVuSans-3" transform="translate(565.75 0)"/>
      <use xlink:href="#DejaVuSans-b" transform="translate(597.53125 0)"/>
      <use xlink:href="#DejaVuSans-46" transform="translate(636.546875 0)"/>
      <use xlink:href="#DejaVuSans-48" transform="translate(691.53125 0)"/>
      <use xlink:href="#DejaVuSans-51" transform="translate(753.0625 0)"/>
      <use xlink:href="#DejaVuSans-4c" transform="translate(816.4375 0)"/>
      <use xlink:href="#DejaVuSans-57" transform="translate(844.21875 0)"/>
      <use xlink:href="#DejaVuSans-44" transform="translate(883.421875 0)"/>
      <use xlink:href="#DejaVuSans-4f" transform="translate(944.703125 0)"/>
      <use xlink:href="#DejaVuSans-3" transform="translate(972.484375 0)"/>
      <use xlink:href="#DejaVuSans-15" transform="translate(1004.265625 0)"/>
      <use xlink:href="#DejaVuSans-11" transform="translate(1067.890625 0)"/>
      <use xlink:href="#DejaVuSans-15" transform="translate(1099.671875 0)"/>
      <use xlink:href="#DejaVuSans-1c" transform="translate(1163.296875 0)"/>
      <use xlink:href="#DejaVuSans-3" transform="translate(1226.921875 0)"/>
      <use xlink:href="#DejaVuSans-50" transform="translate(1258.703125 0)"/>
      <use xlink:href="#DejaVuSans-c" transform="translate(1356.109375 0)"/>
     </g>
    </g>
   </g>
  </g>
  <g id="axes_2">
   <g id="patch_8">
    <path d="M 438.821435 267.477656 
L 781.2 267.477656 
L 781.2 43.446328 
L 438.821435 43.446328 
z
" style="fill: #ffffff"/>
   </g>
   <g id="matplotlib.axis_3">
    <g id="xtick_5">
     <g id="line2d_28">
      <path d="M 509.311139 267.477656 
L 509.311139 43.446328 
" clip-path="url(#p8104815f38)" style="fill: none; stroke: #b0b0b0; stroke-opacity: 0.3; stroke-width: 0.8; stroke-linecap: square"/>
     </g>
     <g id="line2d_29">
      <g>
       <use xlink:href="#m810fb789ea" x="509.311139" y="267.477656" style="stroke: #000000; stroke-width: 0.8"/>
      </g>
     </g>
     <g id="text_20">
      <!-- 20 -->
      <g transform="translate(502.948639 282.075312) scale(0.1 -0.1)">
       <use xlink:href="#DejaVuSans-15"/>
       <use xlink:href="#DejaVuSans-13" transform="translate(63.625 0)"/>
      </g>
     </g>
    </g>
    <g id="xtick_6">
     <g id="line2d_30">
      <path d="M 582.547196 267.477656 
L 582.547196 43.446328 
" clip-path="url(#p8104815f38)" style="fill: none; stroke: #b0b0b0; stroke-opacity: 0.3; stroke-width: 0.8; stroke-linecap: square"/>
     </g>
     <g id="line2d_31">
      <g>
       <use xlink:href="#m810fb789ea" x="582.547196" y="267.477656" style="stroke: #000000; stroke-width: 0.8"/>
      </g>
     </g>
     <g id="text_21">
      <!-- 40 -->
      <g transform="translate(576.184696 282.075312) scale(0.1 -0.1)">
       <use xlink:href="#DejaVuSans-17"/>
       <use xlink:href="#DejaVuSans-13" transform="translate(63.625 0)"/>
      </g>
     </g>
    </g>
    <g id="xtick_7">
     <g id="line2d_32">
      <path d="M 655.783253 267.477656 
L 655.783253 43.446328 
" clip-path="url(#p8104815f38)" style="fill: none; stroke: #b0b0b0; stroke-opacity: 0.3; stroke-width: 0.8; stroke-linecap: square"/>
     </g>
     <g id="line2d_33">
      <g>
       <use xlink:href="#m810fb789ea" x="655.783253" y="267.477656" style="stroke: #000000; stroke-width: 0.8"/>
      </g>
     </g>
     <g id="text_22">
      <!-- 60 -->
      <g transform="translate(649.420753 282.075312) scale(0.1 -0.1)">
       <use xlink:href="#DejaVuSans-19"/>
       <use xlink:href="#DejaVuSans-13" transform="translate(63.625 0)"/>
      </g>
     </g>
    </g>
    <g id="xtick_8">
     <g id="line2d_34">
      <path d="M 729.01931 267.477656 
L 729.01931 43.446328 
" clip-path="url(#p8104815f38)" style="fill: none; stroke: #b0b0b0; stroke-opacity: 0.3; stroke-width: 0.8; stroke-linecap: square"/>
     </g>
     <g id="line2d_35">
      <g>
       <use xlink:href="#m810fb789ea" x="729.01931" y="267.477656" style="stroke: #000000; stroke-width: 0.8"/>
      </g>
     </g>
     <g id="text_23">
      <!-- 80 -->
      <g transform="translate(722.65681 282.075312) scale(0.1 -0.1)">
       <use xlink:href="#DejaVuSans-1b"/>
       <use xlink:href="#DejaVuSans-13" transform="translate(63.625 0)"/>
      </g>
     </g>
    </g>
    <g id="text_24">
     <!-- elevación (grados) -->
     <g transform="translate(563.45603 296.476094) scale(0.1 -0.1)">
      <use xlink:href="#DejaVuSans-48"/>
      <use xlink:href="#DejaVuSans-4f" transform="translate(61.53125 0)"/>
      <use xlink:href="#DejaVuSans-48" transform="translate(89.3125 0)"/>
      <use xlink:href="#DejaVuSans-59" transform="translate(150.84375 0)"/>
      <use xlink:href="#DejaVuSans-44" transform="translate(210.03125 0)"/>
      <use xlink:href="#DejaVuSans-46" transform="translate(271.3125 0)"/>
      <use xlink:href="#DejaVuSans-4c" transform="translate(326.296875 0)"/>
      <use xlink:href="#DejaVuSans-b5" transform="translate(354.078125 0)"/>
      <use xlink:href="#DejaVuSans-51" transform="translate(415.265625 0)"/>
      <use xlink:href="#DejaVuSans-3" transform="translate(478.640625 0)"/>
      <use xlink:href="#DejaVuSans-b" transform="translate(510.421875 0)"/>
      <use xlink:href="#DejaVuSans-4a" transform="translate(549.4375 0)"/>
      <use xlink:href="#DejaVuSans-55" transform="translate(612.921875 0)"/>
      <use xlink:href="#DejaVuSans-44" transform="translate(654.03125 0)"/>
      <use xlink:href="#DejaVuSans-47" transform="translate(715.3125 0)"/>
      <use xlink:href="#DejaVuSans-52" transform="translate(778.796875 0)"/>
      <use xlink:href="#DejaVuSans-56" transform="translate(839.984375 0)"/>
      <use xlink:href="#DejaVuSans-c" transform="translate(892.078125 0)"/>
     </g>
    </g>
   </g>
   <g id="matplotlib.axis_4">
    <g id="ytick_6">
     <g id="line2d_36">
      <path d="M 438.821435 237.849081 
L 781.2 237.849081 
" clip-path="url(#p8104815f38)" style="fill: none; stroke: #b0b0b0; stroke-opacity: 0.3; stroke-width: 0.8; stroke-linecap: square"/>
     </g>
     <g id="line2d_37">
      <g>
       <use xlink:href="#m7575c40630" x="438.821435" y="237.849081" style="stroke: #000000; stroke-width: 0.8"/>
      </g>
     </g>
     <g id="text_25">
      <!-- 2 -->
      <g transform="translate(425.458935 241.647909) scale(0.1 -0.1)">
       <use xlink:href="#DejaVuSans-15"/>
      </g>
     </g>
    </g>
    <g id="ytick_7">
     <g id="line2d_38">
      <path d="M 438.821435 198.958415 
L 781.2 198.958415 
" clip-path="url(#p8104815f38)" style="fill: none; stroke: #b0b0b0; stroke-opacity: 0.3; stroke-width: 0.8; stroke-linecap: square"/>
     </g>
     <g id="line2d_39">
      <g>
       <use xlink:href="#m7575c40630" x="438.821435" y="198.958415" style="stroke: #000000; stroke-width: 0.8"/>
      </g>
     </g>
     <g id="text_26">
      <!-- 4 -->
      <g transform="translate(425.458935 202.757243) scale(0.1 -0.1)">
       <use xlink:href="#DejaVuSans-17"/>
      </g>
     </g>
    </g>
    <g id="ytick_8">
     <g id="line2d_40">
      <path d="M 438.821435 160.067748 
L 781.2 160.067748 
" clip-path="url(#p8104815f38)" style="fill: none; stroke: #b0b0b0; stroke-opacity: 0.3; stroke-width: 0.8; stroke-linecap: square"/>
     </g>
     <g id="line2d_41">
      <g>
       <use xlink:href="#m7575c40630" x="438.821435" y="160.067748" style="stroke: #000000; stroke-width: 0.8"/>
      </g>
     </g>
     <g id="text_27">
      <!-- 6 -->
      <g transform="translate(425.458935 163.866576) scale(0.1 -0.1)">
       <use xlink:href="#DejaVuSans-19"/>
      </g>
     </g>
    </g>
    <g id="ytick_9">
     <g id="line2d_42">
      <path d="M 438.821435 121.177082 
L 781.2 121.177082 
" clip-path="url(#p8104815f38)" style="fill: none; stroke: #b0b0b0; stroke-opacity: 0.3; stroke-width: 0.8; stroke-linecap: square"/>
     </g>
     <g id="line2d_43">
      <g>
       <use xlink:href="#m7575c40630" x="438.821435" y="121.177082" style="stroke: #000000; stroke-width: 0.8"/>
      </g>
     </g>
     <g id="text_28">
      <!-- 8 -->
      <g transform="translate(425.458935 124.97591) scale(0.1 -0.1)">
       <use xlink:href="#DejaVuSans-1b"/>
      </g>
     </g>
    </g>
    <g id="ytick_10">
     <g id="line2d_44">
      <path d="M 438.821435 82.286415 
L 781.2 82.286415 
" clip-path="url(#p8104815f38)" style="fill: none; stroke: #b0b0b0; stroke-opacity: 0.3; stroke-width: 0.8; stroke-linecap: square"/>
     </g>
     <g id="line2d_45">
      <g>
       <use xlink:href="#m7575c40630" x="438.821435" y="82.286415" style="stroke: #000000; stroke-width: 0.8"/>
      </g>
     </g>
     <g id="text_29">
      <!-- 10 -->
      <g transform="translate(419.096435 86.085244) scale(0.1 -0.1)">
       <use xlink:href="#DejaVuSans-14"/>
       <use xlink:href="#DejaVuSans-13" transform="translate(63.625 0)"/>
      </g>
     </g>
    </g>
    <g id="text_30">
     <!-- factor de amplificación -->
     <g transform="translate(412.694091 212.754961) rotate(-90) scale(0.1 -0.1)">
      <defs>
       <path id="DejaVuSans-13af" d="M 3431 3500 
L 3431 0 
L 2853 0 
L 2853 3053 
L 1275 3053 
L 1275 0 
L 697 0 
L 697 3053 
L 147 3053 
L 147 3500 
L 697 3500 
L 697 3744 
Q 697 4316 967 4589 
Q 1238 4863 1797 4863 
L 2375 4863 
L 2375 4384 
L 1825 4384 
Q 1516 4384 1395 4259 
Q 1275 4134 1275 3809 
L 1275 3500 
L 3431 3500 
z
M 2853 4856 
L 3431 4856 
L 3431 4128 
L 2853 4128 
L 2853 4856 
z
" transform="scale(0.015625)"/>
      </defs>
      <use xlink:href="#DejaVuSans-49"/>
      <use xlink:href="#DejaVuSans-44" transform="translate(35.203125 0)"/>
      <use xlink:href="#DejaVuSans-46" transform="translate(96.484375 0)"/>
      <use xlink:href="#DejaVuSans-57" transform="translate(151.46875 0)"/>
      <use xlink:href="#DejaVuSans-52" transform="translate(190.671875 0)"/>
      <use xlink:href="#DejaVuSans-55" transform="translate(251.859375 0)"/>
      <use xlink:href="#DejaVuSans-3" transform="translate(292.96875 0)"/>
      <use xlink:href="#DejaVuSans-47" transform="translate(324.75 0)"/>
      <use xlink:href="#DejaVuSans-48" transform="translate(388.234375 0)"/>
      <use xlink:href="#DejaVuSans-3" transform="translate(449.765625 0)"/>
      <use xlink:href="#DejaVuSans-44" transform="translate(481.546875 0)"/>
      <use xlink:href="#DejaVuSans-50" transform="translate(542.828125 0)"/>
      <use xlink:href="#DejaVuSans-53" transform="translate(640.234375 0)"/>
      <use xlink:href="#DejaVuSans-4f" transform="translate(703.71875 0)"/>
      <use xlink:href="#DejaVuSans-4c" transform="translate(731.5 0)"/>
      <use xlink:href="#DejaVuSans-13af" transform="translate(759.28125 0)"/>
      <use xlink:href="#DejaVuSans-46" transform="translate(822.265625 0)"/>
      <use xlink:href="#DejaVuSans-44" transform="translate(877.25 0)"/>
      <use xlink:href="#DejaVuSans-46" transform="translate(938.53125 0)"/>
      <use xlink:href="#DejaVuSans-4c" transform="translate(993.515625 0)"/>
      <use xlink:href="#DejaVuSans-b5" transform="translate(1021.296875 0)"/>
      <use xlink:href="#DejaVuSans-51" transform="translate(1082.484375 0)"/>
     </g>
    </g>
   </g>
   <g id="line2d_46">
    <path d="M 454.384097 53.62957 
L 456.466058 76.34843 
L 458.54802 94.851802 
L 460.629981 110.211948 
L 462.711943 123.165891 
L 464.793904 134.236935 
L 466.875866 143.806893 
L 468.957827 152.160877 
L 471.039789 159.516095 
L 473.12175 166.040926 
L 475.203712 171.86791 
L 477.285673 177.102806 
L 479.367634 181.831027 
L 481.449596 186.122308 
L 483.531557 190.034149 
L 485.613519 193.614381 
L 488.736461 198.448979 
L 491.859403 202.736629 
L 494.982346 206.56429 
L 498.105288 210.001408 
L 501.22823 213.104114 
L 504.351172 215.918267 
L 507.474114 218.481699 
L 511.638037 221.563279 
L 515.80196 224.315622 
L 519.965883 226.787684 
L 524.129806 229.019155 
L 529.33471 231.519148 
L 534.539614 233.745098 
L 539.744517 235.738138 
L 545.990402 237.868729 
L 552.236286 239.757678 
L 559.523151 241.704632 
L 566.810017 243.41866 
L 575.137863 245.138761 
L 584.506689 246.819891 
L 593.875516 248.277308 
L 604.285323 249.678553 
L 615.736111 250.999229 
L 628.22788 252.221202 
L 642.801611 253.408631 
L 658.416322 254.445986 
L 675.072014 255.330582 
L 693.809667 256.096427 
L 713.588301 256.680298 
L 734.407916 257.076991 
L 756.268511 257.27501 
L 765.637338 257.294414 
L 765.637338 257.294414 
" clip-path="url(#p8104815f38)" style="fill: none; stroke: #1f77b4; stroke-width: 1.8; stroke-linecap: square"/>
   </g>
   <g id="line2d_47">
    <path d="M 454.384097 217.882897 
L 464.793904 221.485322 
L 475.203712 224.861252 
L 485.613519 228.018043 
L 497.064307 231.246183 
L 508.515095 234.227849 
L 519.965883 236.97283 
L 531.416671 239.490913 
L 542.86746 241.791886 
L 555.359228 244.065928 
L 567.850997 246.105947 
L 580.342766 247.924651 
L 593.875516 249.659903 
L 607.408265 251.166488 
L 621.981996 252.551765 
L 636.555726 253.710758 
L 652.170437 254.724355 
L 668.826129 255.572703 
L 686.522802 256.243742 
L 706.301436 256.75649 
L 728.162031 257.090551 
L 755.227531 257.264537 
L 765.637338 257.286014 
L 765.637338 257.286014 
" clip-path="url(#p8104815f38)" style="fill: none; stroke: #ff7f0e; stroke-width: 1.8; stroke-linecap: square"/>
   </g>
   <g id="patch_9">
    <path d="M 438.821435 267.477656 
L 438.821435 43.446328 
" style="fill: none; stroke: #000000; stroke-width: 0.8; stroke-linejoin: miter; stroke-linecap: square"/>
   </g>
   <g id="patch_10">
    <path d="M 781.2 267.477656 
L 781.2 43.446328 
" style="fill: none; stroke: #000000; stroke-width: 0.8; stroke-linejoin: miter; stroke-linecap: square"/>
   </g>
   <g id="patch_11">
    <path d="M 438.821435 267.477656 
L 781.2 267.477656 
" style="fill: none; stroke: #000000; stroke-width: 0.8; stroke-linejoin: miter; stroke-linecap: square"/>
   </g>
   <g id="patch_12">
    <path d="M 438.821435 43.446328 
L 781.2 43.446328 
" style="fill: none; stroke: #000000; stroke-width: 0.8; stroke-linejoin: miter; stroke-linecap: square"/>
   </g>
   <g id="text_31">
    <!-- ×11.5 -->
    <g style="fill: #1f77b4" transform="translate(462.384097 53.62957) scale(0.09 -0.09)">
     <defs>
      <path id="DejaVuSans-99" d="M 4488 3438 
L 3059 2003 
L 4488 575 
L 4116 197 
L 2681 1631 
L 1247 197 
L 878 575 
L 2303 2003 
L 878 3438 
L 1247 3816 
L 2681 2381 
L 4116 3816 
L 4488 3438 
z
" transform="scale(0.015625)"/>
     </defs>
     <use xlink:href="#DejaVuSans-99"/>
     <use xlink:href="#DejaVuSans-14" transform="translate(83.796875 0)"/>
     <use xlink:href="#DejaVuSans-14" transform="translate(147.421875 0)"/>
     <use xlink:href="#DejaVuSans-11" transform="translate(211.046875 0)"/>
     <use xlink:href="#DejaVuSans-18" transform="translate(242.828125 0)"/>
    </g>
   </g>
   <g id="text_32">
    <!-- ×3.0 -->
    <g style="fill: #ff7f0e" transform="translate(462.384097 213.882897) scale(0.09 -0.09)">
     <use xlink:href="#DejaVuSans-99"/>
     <use xlink:href="#DejaVuSans-16" transform="translate(83.796875 0)"/>
     <use xlink:href="#DejaVuSans-11" transform="translate(147.421875 0)"/>
     <use xlink:href="#DejaVuSans-13" transform="translate(179.203125 0)"/>
    </g>
   </g>
   <g id="text_33">
    <!-- Tropo vs iono a baja elevación: -->
    <g transform="translate(517.472905 22.563047) scale(0.12 -0.12)">
     <defs>
      <path id="DejaVuSans-37" d="M -19 4666 
L 3928 4666 
L 3928 4134 
L 2272 4134 
L 2272 0 
L 1638 0 
L 1638 4134 
L -19 4134 
L -19 4666 
z
" transform="scale(0.015625)"/>
      <path id="DejaVuSans-4d" d="M 603 3500 
L 1178 3500 
L 1178 -63 
Q 1178 -731 923 -1031 
Q 669 -1331 103 -1331 
L -116 -1331 
L -116 -844 
L 38 -844 
Q 366 -844 484 -692 
Q 603 -541 603 -63 
L 603 3500 
z
M 603 4863 
L 1178 4863 
L 1178 4134 
L 603 4134 
L 603 4863 
z
" transform="scale(0.015625)"/>
     </defs>
     <use xlink:href="#DejaVuSans-37"/>
     <use xlink:href="#DejaVuSans-55" transform="translate(46.375 0)"/>
     <use xlink:href="#DejaVuSans-52" transform="translate(85.28125 0)"/>
     <use xlink:href="#DejaVuSans-53" transform="translate(146.46875 0)"/>
     <use xlink:href="#DejaVuSans-52" transform="translate(209.953125 0)"/>
     <use xlink:href="#DejaVuSans-3" transform="translate(271.140625 0)"/>
     <use xlink:href="#DejaVuSans-59" transform="translate(302.921875 0)"/>
     <use xlink:href="#DejaVuSans-56" transform="translate(362.109375 0)"/>
     <use xlink:href="#DejaVuSans-3" transform="translate(414.203125 0)"/>
     <use xlink:href="#DejaVuSans-4c" transform="translate(445.984375 0)"/>
     <use xlink:href="#DejaVuSans-52" transform="translate(473.765625 0)"/>
     <use xlink:href="#DejaVuSans-51" transform="translate(534.953125 0)"/>
     <use xlink:href="#DejaVuSans-52" transform="translate(598.328125 0)"/>
     <use xlink:href="#DejaVuSans-3" transform="translate(659.515625 0)"/>
     <use xlink:href="#DejaVuSans-44" transform="translate(691.296875 0)"/>
     <use xlink:href="#DejaVuSans-3" transform="translate(752.578125 0)"/>
     <use xlink:href="#DejaVuSans-45" transform="translate(784.359375 0)"/>
     <use xlink:href="#DejaVuSans-44" transform="translate(847.84375 0)"/>
     <use xlink:href="#DejaVuSans-4d" transform="translate(909.125 0)"/>
     <use xlink:href="#DejaVuSans-44" transform="translate(936.90625 0)"/>
     <use xlink:href="#DejaVuSans-3" transform="translate(998.1875 0)"/>
     <use xlink:href="#DejaVuSans-48" transform="translate(1029.96875 0)"/>
     <use xlink:href="#DejaVuSans-4f" transform="translate(1091.5 0)"/>
     <use xlink:href="#DejaVuSans-48" transform="translate(1119.28125 0)"/>
     <use xlink:href="#DejaVuSans-59" transform="translate(1180.8125 0)"/>
     <use xlink:href="#DejaVuSans-44" transform="translate(1240 0)"/>
     <use xlink:href="#DejaVuSans-46" transform="translate(1301.28125 0)"/>
     <use xlink:href="#DejaVuSans-4c" transform="translate(1356.265625 0)"/>
     <use xlink:href="#DejaVuSans-b5" transform="translate(1384.046875 0)"/>
     <use xlink:href="#DejaVuSans-51" transform="translate(1445.234375 0)"/>
     <use xlink:href="#DejaVuSans-1d" transform="translate(1508.609375 0)"/>
    </g>
    <!-- la capa pegada al suelo amplifica mucho más -->
    <g transform="translate(472.596655 37.446328) scale(0.12 -0.12)">
     <defs>
      <path id="DejaVuSans-4b" d="M 3513 2113 
L 3513 0 
L 2938 0 
L 2938 2094 
Q 2938 2591 2744 2837 
Q 2550 3084 2163 3084 
Q 1697 3084 1428 2787 
Q 1159 2491 1159 1978 
L 1159 0 
L 581 0 
L 581 4863 
L 1159 4863 
L 1159 2956 
Q 1366 3272 1645 3428 
Q 1925 3584 2291 3584 
Q 2894 3584 3203 3211 
Q 3513 2838 3513 2113 
z
" transform="scale(0.015625)"/>
      <path id="DejaVuSans-a3" d="M 2194 1759 
Q 1497 1759 1228 1600 
Q 959 1441 959 1056 
Q 959 750 1161 570 
Q 1363 391 1709 391 
Q 2188 391 2477 730 
Q 2766 1069 2766 1631 
L 2766 1759 
L 2194 1759 
z
M 3341 1997 
L 3341 0 
L 2766 0 
L 2766 531 
Q 2569 213 2275 61 
Q 1981 -91 1556 -91 
Q 1019 -91 701 211 
Q 384 513 384 1019 
Q 384 1609 779 1909 
Q 1175 2209 1959 2209 
L 2766 2209 
L 2766 2266 
Q 2766 2663 2505 2880 
Q 2244 3097 1772 3097 
Q 1472 3097 1187 3025 
Q 903 2953 641 2809 
L 641 3341 
Q 956 3463 1253 3523 
Q 1550 3584 1831 3584 
Q 2591 3584 2966 3190 
Q 3341 2797 3341 1997 
z
M 2290 5119 
L 2912 5119 
L 1894 3944 
L 1415 3944 
L 2290 5119 
z
" transform="scale(0.015625)"/>
     </defs>
     <use xlink:href="#DejaVuSans-4f"/>
     <use xlink:href="#DejaVuSans-44" transform="translate(27.78125 0)"/>
     <use xlink:href="#DejaVuSans-3" transform="translate(89.0625 0)"/>
     <use xlink:href="#DejaVuSans-46" transform="translate(120.84375 0)"/>
     <use xlink:href="#DejaVuSans-44" transform="translate(175.828125 0)"/>
     <use xlink:href="#DejaVuSans-53" transform="translate(237.109375 0)"/>
     <use xlink:href="#DejaVuSans-44" transform="translate(300.59375 0)"/>
     <use xlink:href="#DejaVuSans-3" transform="translate(361.875 0)"/>
     <use xlink:href="#DejaVuSans-53" transform="translate(393.65625 0)"/>
     <use xlink:href="#DejaVuSans-48" transform="translate(457.140625 0)"/>
     <use xlink:href="#DejaVuSans-4a" transform="translate(518.671875 0)"/>
     <use xlink:href="#DejaVuSans-44" transform="translate(582.15625 0)"/>
     <use xlink:href="#DejaVuSans-47" transform="translate(643.4375 0)"/>
     <use xlink:href="#DejaVuSans-44" transform="translate(706.921875 0)"/>
     <use xlink:href="#DejaVuSans-3" transform="translate(768.203125 0)"/>
     <use xlink:href="#DejaVuSans-44" transform="translate(799.984375 0)"/>
     <use xlink:href="#DejaVuSans-4f" transform="translate(861.265625 0)"/>
     <use xlink:href="#DejaVuSans-3" transform="translate(889.046875 0)"/>
     <use xlink:href="#DejaVuSans-56" transform="translate(920.828125 0)"/>
     <use xlink:href="#DejaVuSans-58" transform="translate(972.921875 0)"/>
     <use xlink:href="#DejaVuSans-48" transform="translate(1036.296875 0)"/>
     <use xlink:href="#DejaVuSans-4f" transform="translate(1097.828125 0)"/>
     <use xlink:href="#DejaVuSans-52" transform="translate(1125.609375 0)"/>
     <use xlink:href="#DejaVuSans-3" transform="translate(1186.796875 0)"/>
     <use xlink:href="#DejaVuSans-44" transform="translate(1218.578125 0)"/>
     <use xlink:href="#DejaVuSans-50" transform="translate(1279.859375 0)"/>
     <use xlink:href="#DejaVuSans-53" transform="translate(1377.265625 0)"/>
     <use xlink:href="#DejaVuSans-4f" transform="translate(1440.75 0)"/>
     <use xlink:href="#DejaVuSans-4c" transform="translate(1468.53125 0)"/>
     <use xlink:href="#DejaVuSans-13af" transform="translate(1496.3125 0)"/>
     <use xlink:href="#DejaVuSans-46" transform="translate(1559.296875 0)"/>
     <use xlink:href="#DejaVuSans-44" transform="translate(1614.28125 0)"/>
     <use xlink:href="#DejaVuSans-3" transform="translate(1675.5625 0)"/>
     <use xlink:href="#DejaVuSans-50" transform="translate(1707.34375 0)"/>
     <use xlink:href="#DejaVuSans-58" transform="translate(1804.75 0)"/>
     <use xlink:href="#DejaVuSans-46" transform="translate(1868.125 0)"/>
     <use xlink:href="#DejaVuSans-4b" transform="translate(1923.109375 0)"/>
     <use xlink:href="#DejaVuSans-52" transform="translate(1986.484375 0)"/>
     <use xlink:href="#DejaVuSans-3" transform="translate(2047.671875 0)"/>
     <use xlink:href="#DejaVuSans-50" transform="translate(2079.453125 0)"/>
     <use xlink:href="#DejaVuSans-a3" transform="translate(2176.859375 0)"/>
     <use xlink:href="#DejaVuSans-56" transform="translate(2238.140625 0)"/>
    </g>
   </g>
   <g id="legend_2">
    <g id="patch_13">
     <path d="M 658.85625 73.847578 
L 775.6 73.847578 
Q 777.2 73.847578 777.2 72.247578 
L 777.2 49.046328 
Q 777.2 47.446328 775.6 47.446328 
L 658.85625 47.446328 
Q 657.25625 47.446328 657.25625 49.046328 
L 657.25625 72.247578 
Q 657.25625 73.847578 658.85625 73.847578 
z
" style="fill: #ffffff; opacity: 0.8; stroke: #cccccc; stroke-linejoin: miter"/>
    </g>
    <g id="line2d_48">
     <path d="M 660.45625 53.925078 
L 668.45625 53.925078 
L 676.45625 53.925078 
" style="fill: none; stroke: #1f77b4; stroke-width: 1.8; stroke-linecap: square"/>
    </g>
    <g id="text_34">
     <!-- tropo: 1/sin(el) -->
     <g transform="translate(682.85625 56.725078) scale(0.08 -0.08)">
      <use xlink:href="#DejaVuSans-57"/>
      <use xlink:href="#DejaVuSans-55" transform="translate(39.203125 0)"/>
      <use xlink:href="#DejaVuSans-52" transform="translate(78.109375 0)"/>
      <use xlink:href="#DejaVuSans-53" transform="translate(139.296875 0)"/>
      <use xlink:href="#DejaVuSans-52" transform="translate(202.78125 0)"/>
      <use xlink:href="#DejaVuSans-1d" transform="translate(263.96875 0)"/>
      <use xlink:href="#DejaVuSans-3" transform="translate(297.65625 0)"/>
      <use xlink:href="#DejaVuSans-14" transform="translate(329.4375 0)"/>
      <use xlink:href="#DejaVuSans-12" transform="translate(393.0625 0)"/>
      <use xlink:href="#DejaVuSans-56" transform="translate(426.75 0)"/>
      <use xlink:href="#DejaVuSans-4c" transform="translate(478.84375 0)"/>
      <use xlink:href="#DejaVuSans-51" transform="translate(506.625 0)"/>
      <use xlink:href="#DejaVuSans-b" transform="translate(570 0)"/>
      <use xlink:href="#DejaVuSans-48" transform="translate(609.015625 0)"/>
      <use xlink:href="#DejaVuSans-4f" transform="translate(670.546875 0)"/>
      <use xlink:href="#DejaVuSans-c" transform="translate(698.328125 0)"/>
     </g>
    </g>
    <g id="line2d_49">
     <path d="M 660.45625 65.925703 
L 668.45625 65.925703 
L 676.45625 65.925703 
" style="fill: none; stroke: #ff7f0e; stroke-width: 1.8; stroke-linecap: square"/>
    </g>
    <g id="text_35">
     <!-- iono: F Klobuchar (3.1) -->
     <g transform="translate(682.85625 68.725703) scale(0.08 -0.08)">
      <defs>
       <path id="DejaVuSans-29" d="M 628 4666 
L 3309 4666 
L 3309 4134 
L 1259 4134 
L 1259 2759 
L 3109 2759 
L 3109 2228 
L 1259 2228 
L 1259 0 
L 628 0 
L 628 4666 
z
" transform="scale(0.015625)"/>
       <path id="DejaVuSans-2e" d="M 628 4666 
L 1259 4666 
L 1259 2694 
L 3353 4666 
L 4166 4666 
L 1850 2491 
L 4331 0 
L 3500 0 
L 1259 2247 
L 1259 0 
L 628 0 
L 628 4666 
z
" transform="scale(0.015625)"/>
      </defs>
      <use xlink:href="#DejaVuSans-4c"/>
      <use xlink:href="#DejaVuSans-52" transform="translate(27.78125 0)"/>
      <use xlink:href="#DejaVuSans-51" transform="translate(88.96875 0)"/>
      <use xlink:href="#DejaVuSans-52" transform="translate(152.34375 0)"/>
      <use xlink:href="#DejaVuSans-1d" transform="translate(213.53125 0)"/>
      <use xlink:href="#DejaVuSans-3" transform="translate(247.21875 0)"/>
      <use xlink:href="#DejaVuSans-29" transform="translate(279 0)"/>
      <use xlink:href="#DejaVuSans-3" transform="translate(336.515625 0)"/>
      <use xlink:href="#DejaVuSans-2e" transform="translate(368.296875 0)"/>
      <use xlink:href="#DejaVuSans-4f" transform="translate(433.875 0)"/>
      <use xlink:href="#DejaVuSans-52" transform="translate(461.65625 0)"/>
      <use xlink:href="#DejaVuSans-45" transform="translate(522.84375 0)"/>
      <use xlink:href="#DejaVuSans-58" transform="translate(586.328125 0)"/>
      <use xlink:href="#DejaVuSans-46" transform="translate(649.703125 0)"/>
      <use xlink:href="#DejaVuSans-4b" transform="translate(704.6875 0)"/>
      <use xlink:href="#DejaVuSans-44" transform="translate(768.0625 0)"/>
      <use xlink:href="#DejaVuSans-55" transform="translate(829.34375 0)"/>
      <use xlink:href="#DejaVuSans-3" transform="translate(870.453125 0)"/>
      <use xlink:href="#DejaVuSans-b" transform="translate(902.234375 0)"/>
      <use xlink:href="#DejaVuSans-16" transform="translate(941.25 0)"/>
      <use xlink:href="#DejaVuSans-11" transform="translate(1004.875 0)"/>
      <use xlink:href="#DejaVuSans-14" transform="translate(1036.65625 0)"/>
      <use xlink:href="#DejaVuSans-c" transform="translate(1100.28125 0)"/>
     </g>
    </g>
   </g>
  </g>
 </g>
 <defs>
  <clipPath id="p64ed10c128">
   <rect x="45.082344" y="43.446328" width="342.378565" height="224.031328"/>
  </clipPath>
  <clipPath id="p8104815f38">
   <rect x="438.821435" y="43.446328" width="342.378565" height="224.031328"/>
  </clipPath>
 </defs>
</svg>
